ISO-10303-21;
HEADER;
/* Generated by software containing ST-Developer
 * from STEP Tools, Inc. (www.steptools.com) 
 */
/* OPTION: using custom renumber hook */

FILE_DESCRIPTION(
/* description */ ('STEP AP214',
'CAx-IF Rec.Pracs.---User Defined Attributes---1.5---2016-08-15'),
/* implementation_level */ '2;1');

FILE_NAME(
/* name */ 'Base turn - Part 9',
/* time_stamp */ '2026-05-17T02:39:05Z',
/* author */ (''),
/* organization */ (''),
/* preprocessor_version */ 'ST-DEVELOPER v20',
/* originating_system */ 'ONSHAPE BY PTC INC, 1.215',
/* authorisation */ '  ');

FILE_SCHEMA (('AUTOMOTIVE_DESIGN {1 0 10303 214 3 1 1}'));
ENDSEC;

DATA;
#10=PROPERTY_DEFINITION_REPRESENTATION(#14,#12);
#11=PROPERTY_DEFINITION_REPRESENTATION(#15,#13);
#12=REPRESENTATION('',(#16),#1900);
#13=REPRESENTATION('',(#17),#1900);
#14=PROPERTY_DEFINITION('pmi validation property','',#1905);
#15=PROPERTY_DEFINITION('pmi validation property','',#1905);
#16=VALUE_REPRESENTATION_ITEM('number of annotations',COUNT_MEASURE(0.));
#17=VALUE_REPRESENTATION_ITEM('number of views',COUNT_MEASURE(0.));
#18=SHAPE_REPRESENTATION_RELATIONSHIP('','',#1210,#19);
#19=ADVANCED_BREP_SHAPE_REPRESENTATION('',(#1208),#1900);
#20=CYLINDRICAL_SURFACE('',#1265,0.0015);
#21=CYLINDRICAL_SURFACE('',#1274,0.0015);
#22=CIRCLE('',#1253,0.0015);
#23=CIRCLE('',#1254,0.0015);
#24=CIRCLE('',#1260,0.0015);
#25=CIRCLE('',#1261,0.0015);
#26=ORIENTED_EDGE('',*,*,#356,.F.);
#27=ORIENTED_EDGE('',*,*,#357,.T.);
#28=ORIENTED_EDGE('',*,*,#358,.T.);
#29=ORIENTED_EDGE('',*,*,#359,.F.);
#30=ORIENTED_EDGE('',*,*,#360,.T.);
#31=ORIENTED_EDGE('',*,*,#361,.T.);
#32=ORIENTED_EDGE('',*,*,#362,.F.);
#33=ORIENTED_EDGE('',*,*,#363,.F.);
#34=ORIENTED_EDGE('',*,*,#364,.T.);
#35=ORIENTED_EDGE('',*,*,#365,.T.);
#36=ORIENTED_EDGE('',*,*,#366,.F.);
#37=ORIENTED_EDGE('',*,*,#367,.F.);
#38=ORIENTED_EDGE('',*,*,#368,.T.);
#39=ORIENTED_EDGE('',*,*,#369,.T.);
#40=ORIENTED_EDGE('',*,*,#370,.F.);
#41=ORIENTED_EDGE('',*,*,#371,.F.);
#42=ORIENTED_EDGE('',*,*,#372,.F.);
#43=ORIENTED_EDGE('',*,*,#373,.T.);
#44=ORIENTED_EDGE('',*,*,#374,.F.);
#45=ORIENTED_EDGE('',*,*,#375,.F.);
#46=ORIENTED_EDGE('',*,*,#376,.F.);
#47=ORIENTED_EDGE('',*,*,#377,.F.);
#48=ORIENTED_EDGE('',*,*,#378,.F.);
#49=ORIENTED_EDGE('',*,*,#379,.F.);
#50=ORIENTED_EDGE('',*,*,#380,.F.);
#51=ORIENTED_EDGE('',*,*,#381,.F.);
#52=ORIENTED_EDGE('',*,*,#382,.F.);
#53=ORIENTED_EDGE('',*,*,#383,.F.);
#54=ORIENTED_EDGE('',*,*,#384,.F.);
#55=ORIENTED_EDGE('',*,*,#385,.F.);
#56=ORIENTED_EDGE('',*,*,#386,.F.);
#57=ORIENTED_EDGE('',*,*,#387,.F.);
#58=ORIENTED_EDGE('',*,*,#388,.F.);
#59=ORIENTED_EDGE('',*,*,#389,.F.);
#60=ORIENTED_EDGE('',*,*,#390,.F.);
#61=ORIENTED_EDGE('',*,*,#391,.F.);
#62=ORIENTED_EDGE('',*,*,#392,.F.);
#63=ORIENTED_EDGE('',*,*,#393,.F.);
#64=ORIENTED_EDGE('',*,*,#394,.F.);
#65=ORIENTED_EDGE('',*,*,#395,.F.);
#66=ORIENTED_EDGE('',*,*,#396,.F.);
#67=ORIENTED_EDGE('',*,*,#397,.F.);
#68=ORIENTED_EDGE('',*,*,#398,.T.);
#69=ORIENTED_EDGE('',*,*,#399,.T.);
#70=ORIENTED_EDGE('',*,*,#373,.F.);
#71=ORIENTED_EDGE('',*,*,#400,.F.);
#72=ORIENTED_EDGE('',*,*,#401,.F.);
#73=ORIENTED_EDGE('',*,*,#402,.F.);
#74=ORIENTED_EDGE('',*,*,#403,.T.);
#75=ORIENTED_EDGE('',*,*,#360,.F.);
#76=ORIENTED_EDGE('',*,*,#404,.F.);
#77=ORIENTED_EDGE('',*,*,#405,.T.);
#78=ORIENTED_EDGE('',*,*,#406,.T.);
#79=ORIENTED_EDGE('',*,*,#407,.F.);
#80=ORIENTED_EDGE('',*,*,#408,.F.);
#81=ORIENTED_EDGE('',*,*,#362,.T.);
#82=ORIENTED_EDGE('',*,*,#409,.T.);
#83=ORIENTED_EDGE('',*,*,#410,.F.);
#84=ORIENTED_EDGE('',*,*,#411,.F.);
#85=ORIENTED_EDGE('',*,*,#407,.T.);
#86=ORIENTED_EDGE('',*,*,#412,.T.);
#87=ORIENTED_EDGE('',*,*,#364,.F.);
#88=ORIENTED_EDGE('',*,*,#413,.F.);
#89=ORIENTED_EDGE('',*,*,#410,.T.);
#90=ORIENTED_EDGE('',*,*,#414,.T.);
#91=ORIENTED_EDGE('',*,*,#415,.F.);
#92=ORIENTED_EDGE('',*,*,#416,.F.);
#93=ORIENTED_EDGE('',*,*,#366,.T.);
#94=ORIENTED_EDGE('',*,*,#417,.T.);
#95=ORIENTED_EDGE('',*,*,#418,.F.);
#96=ORIENTED_EDGE('',*,*,#419,.F.);
#97=ORIENTED_EDGE('',*,*,#415,.T.);
#98=ORIENTED_EDGE('',*,*,#420,.T.);
#99=ORIENTED_EDGE('',*,*,#368,.F.);
#100=ORIENTED_EDGE('',*,*,#421,.F.);
#101=ORIENTED_EDGE('',*,*,#418,.T.);
#102=ORIENTED_EDGE('',*,*,#422,.T.);
#103=ORIENTED_EDGE('',*,*,#423,.F.);
#104=ORIENTED_EDGE('',*,*,#424,.F.);
#105=ORIENTED_EDGE('',*,*,#370,.T.);
#106=ORIENTED_EDGE('',*,*,#425,.T.);
#107=ORIENTED_EDGE('',*,*,#426,.F.);
#108=ORIENTED_EDGE('',*,*,#427,.F.);
#109=ORIENTED_EDGE('',*,*,#423,.T.);
#110=ORIENTED_EDGE('',*,*,#428,.T.);
#111=ORIENTED_EDGE('',*,*,#429,.F.);
#112=ORIENTED_EDGE('',*,*,#430,.F.);
#113=ORIENTED_EDGE('',*,*,#426,.T.);
#114=ORIENTED_EDGE('',*,*,#429,.T.);
#115=ORIENTED_EDGE('',*,*,#431,.T.);
#116=ORIENTED_EDGE('',*,*,#432,.F.);
#117=ORIENTED_EDGE('',*,*,#433,.F.);
#118=ORIENTED_EDGE('',*,*,#397,.T.);
#119=ORIENTED_EDGE('',*,*,#434,.F.);
#120=ORIENTED_EDGE('',*,*,#435,.F.);
#121=ORIENTED_EDGE('',*,*,#432,.T.);
#122=ORIENTED_EDGE('',*,*,#396,.T.);
#123=ORIENTED_EDGE('',*,*,#436,.F.);
#124=ORIENTED_EDGE('',*,*,#437,.F.);
#125=ORIENTED_EDGE('',*,*,#434,.T.);
#126=ORIENTED_EDGE('',*,*,#395,.T.);
#127=ORIENTED_EDGE('',*,*,#438,.F.);
#128=ORIENTED_EDGE('',*,*,#439,.F.);
#129=ORIENTED_EDGE('',*,*,#436,.T.);
#130=ORIENTED_EDGE('',*,*,#394,.T.);
#131=ORIENTED_EDGE('',*,*,#440,.F.);
#132=ORIENTED_EDGE('',*,*,#441,.F.);
#133=ORIENTED_EDGE('',*,*,#438,.T.);
#134=ORIENTED_EDGE('',*,*,#393,.T.);
#135=ORIENTED_EDGE('',*,*,#442,.F.);
#136=ORIENTED_EDGE('',*,*,#443,.F.);
#137=ORIENTED_EDGE('',*,*,#440,.T.);
#138=ORIENTED_EDGE('',*,*,#392,.T.);
#139=ORIENTED_EDGE('',*,*,#444,.F.);
#140=ORIENTED_EDGE('',*,*,#445,.F.);
#141=ORIENTED_EDGE('',*,*,#442,.T.);
#142=ORIENTED_EDGE('',*,*,#391,.T.);
#143=ORIENTED_EDGE('',*,*,#446,.F.);
#144=ORIENTED_EDGE('',*,*,#447,.F.);
#145=ORIENTED_EDGE('',*,*,#444,.T.);
#146=ORIENTED_EDGE('',*,*,#390,.T.);
#147=ORIENTED_EDGE('',*,*,#448,.F.);
#148=ORIENTED_EDGE('',*,*,#449,.F.);
#149=ORIENTED_EDGE('',*,*,#446,.T.);
#150=ORIENTED_EDGE('',*,*,#389,.T.);
#151=ORIENTED_EDGE('',*,*,#450,.F.);
#152=ORIENTED_EDGE('',*,*,#451,.F.);
#153=ORIENTED_EDGE('',*,*,#448,.T.);
#154=ORIENTED_EDGE('',*,*,#388,.T.);
#155=ORIENTED_EDGE('',*,*,#452,.F.);
#156=ORIENTED_EDGE('',*,*,#453,.F.);
#157=ORIENTED_EDGE('',*,*,#450,.T.);
#158=ORIENTED_EDGE('',*,*,#387,.T.);
#159=ORIENTED_EDGE('',*,*,#454,.F.);
#160=ORIENTED_EDGE('',*,*,#455,.F.);
#161=ORIENTED_EDGE('',*,*,#452,.T.);
#162=ORIENTED_EDGE('',*,*,#386,.T.);
#163=ORIENTED_EDGE('',*,*,#456,.F.);
#164=ORIENTED_EDGE('',*,*,#457,.F.);
#165=ORIENTED_EDGE('',*,*,#454,.T.);
#166=ORIENTED_EDGE('',*,*,#385,.T.);
#167=ORIENTED_EDGE('',*,*,#458,.F.);
#168=ORIENTED_EDGE('',*,*,#459,.F.);
#169=ORIENTED_EDGE('',*,*,#456,.T.);
#170=ORIENTED_EDGE('',*,*,#384,.T.);
#171=ORIENTED_EDGE('',*,*,#460,.F.);
#172=ORIENTED_EDGE('',*,*,#461,.F.);
#173=ORIENTED_EDGE('',*,*,#458,.T.);
#174=ORIENTED_EDGE('',*,*,#383,.T.);
#175=ORIENTED_EDGE('',*,*,#462,.F.);
#176=ORIENTED_EDGE('',*,*,#463,.F.);
#177=ORIENTED_EDGE('',*,*,#460,.T.);
#178=ORIENTED_EDGE('',*,*,#382,.T.);
#179=ORIENTED_EDGE('',*,*,#464,.F.);
#180=ORIENTED_EDGE('',*,*,#465,.F.);
#181=ORIENTED_EDGE('',*,*,#462,.T.);
#182=ORIENTED_EDGE('',*,*,#381,.T.);
#183=ORIENTED_EDGE('',*,*,#466,.F.);
#184=ORIENTED_EDGE('',*,*,#467,.F.);
#185=ORIENTED_EDGE('',*,*,#464,.T.);
#186=ORIENTED_EDGE('',*,*,#380,.T.);
#187=ORIENTED_EDGE('',*,*,#468,.F.);
#188=ORIENTED_EDGE('',*,*,#469,.F.);
#189=ORIENTED_EDGE('',*,*,#466,.T.);
#190=ORIENTED_EDGE('',*,*,#379,.T.);
#191=ORIENTED_EDGE('',*,*,#470,.F.);
#192=ORIENTED_EDGE('',*,*,#471,.F.);
#193=ORIENTED_EDGE('',*,*,#468,.T.);
#194=ORIENTED_EDGE('',*,*,#378,.T.);
#195=ORIENTED_EDGE('',*,*,#472,.F.);
#196=ORIENTED_EDGE('',*,*,#473,.F.);
#197=ORIENTED_EDGE('',*,*,#470,.T.);
#198=ORIENTED_EDGE('',*,*,#377,.T.);
#199=ORIENTED_EDGE('',*,*,#474,.F.);
#200=ORIENTED_EDGE('',*,*,#475,.F.);
#201=ORIENTED_EDGE('',*,*,#472,.T.);
#202=ORIENTED_EDGE('',*,*,#376,.T.);
#203=ORIENTED_EDGE('',*,*,#476,.F.);
#204=ORIENTED_EDGE('',*,*,#477,.F.);
#205=ORIENTED_EDGE('',*,*,#474,.T.);
#206=ORIENTED_EDGE('',*,*,#375,.T.);
#207=ORIENTED_EDGE('',*,*,#478,.F.);
#208=ORIENTED_EDGE('',*,*,#479,.F.);
#209=ORIENTED_EDGE('',*,*,#476,.T.);
#210=ORIENTED_EDGE('',*,*,#480,.F.);
#211=ORIENTED_EDGE('',*,*,#481,.F.);
#212=ORIENTED_EDGE('',*,*,#482,.F.);
#213=ORIENTED_EDGE('',*,*,#359,.T.);
#214=ORIENTED_EDGE('',*,*,#483,.T.);
#215=ORIENTED_EDGE('',*,*,#484,.T.);
#216=ORIENTED_EDGE('',*,*,#485,.F.);
#217=ORIENTED_EDGE('',*,*,#486,.F.);
#218=ORIENTED_EDGE('',*,*,#402,.T.);
#219=ORIENTED_EDGE('',*,*,#487,.F.);
#220=ORIENTED_EDGE('',*,*,#488,.F.);
#221=ORIENTED_EDGE('',*,*,#489,.T.);
#222=ORIENTED_EDGE('',*,*,#490,.T.);
#223=ORIENTED_EDGE('',*,*,#491,.F.);
#224=ORIENTED_EDGE('',*,*,#492,.T.);
#225=ORIENTED_EDGE('',*,*,#493,.F.);
#226=ORIENTED_EDGE('',*,*,#494,.F.);
#227=ORIENTED_EDGE('',*,*,#485,.T.);
#228=ORIENTED_EDGE('',*,*,#495,.T.);
#229=ORIENTED_EDGE('',*,*,#405,.F.);
#230=ORIENTED_EDGE('',*,*,#496,.F.);
#231=ORIENTED_EDGE('',*,*,#493,.T.);
#232=ORIENTED_EDGE('',*,*,#497,.F.);
#233=ORIENTED_EDGE('',*,*,#398,.F.);
#234=ORIENTED_EDGE('',*,*,#486,.T.);
#235=ORIENTED_EDGE('',*,*,#494,.T.);
#236=ORIENTED_EDGE('',*,*,#496,.T.);
#237=ORIENTED_EDGE('',*,*,#404,.T.);
#238=ORIENTED_EDGE('',*,*,#363,.T.);
#239=ORIENTED_EDGE('',*,*,#408,.T.);
#240=ORIENTED_EDGE('',*,*,#411,.T.);
#241=ORIENTED_EDGE('',*,*,#413,.T.);
#242=ORIENTED_EDGE('',*,*,#367,.T.);
#243=ORIENTED_EDGE('',*,*,#416,.T.);
#244=ORIENTED_EDGE('',*,*,#419,.T.);
#245=ORIENTED_EDGE('',*,*,#421,.T.);
#246=ORIENTED_EDGE('',*,*,#371,.T.);
#247=ORIENTED_EDGE('',*,*,#424,.T.);
#248=ORIENTED_EDGE('',*,*,#427,.T.);
#249=ORIENTED_EDGE('',*,*,#430,.T.);
#250=ORIENTED_EDGE('',*,*,#433,.T.);
#251=ORIENTED_EDGE('',*,*,#435,.T.);
#252=ORIENTED_EDGE('',*,*,#437,.T.);
#253=ORIENTED_EDGE('',*,*,#439,.T.);
#254=ORIENTED_EDGE('',*,*,#441,.T.);
#255=ORIENTED_EDGE('',*,*,#443,.T.);
#256=ORIENTED_EDGE('',*,*,#445,.T.);
#257=ORIENTED_EDGE('',*,*,#447,.T.);
#258=ORIENTED_EDGE('',*,*,#449,.T.);
#259=ORIENTED_EDGE('',*,*,#451,.T.);
#260=ORIENTED_EDGE('',*,*,#453,.T.);
#261=ORIENTED_EDGE('',*,*,#455,.T.);
#262=ORIENTED_EDGE('',*,*,#457,.T.);
#263=ORIENTED_EDGE('',*,*,#459,.T.);
#264=ORIENTED_EDGE('',*,*,#461,.T.);
#265=ORIENTED_EDGE('',*,*,#463,.T.);
#266=ORIENTED_EDGE('',*,*,#465,.T.);
#267=ORIENTED_EDGE('',*,*,#467,.T.);
#268=ORIENTED_EDGE('',*,*,#469,.T.);
#269=ORIENTED_EDGE('',*,*,#471,.T.);
#270=ORIENTED_EDGE('',*,*,#473,.T.);
#271=ORIENTED_EDGE('',*,*,#475,.T.);
#272=ORIENTED_EDGE('',*,*,#477,.T.);
#273=ORIENTED_EDGE('',*,*,#479,.T.);
#274=ORIENTED_EDGE('',*,*,#374,.T.);
#275=ORIENTED_EDGE('',*,*,#399,.F.);
#276=ORIENTED_EDGE('',*,*,#497,.T.);
#277=ORIENTED_EDGE('',*,*,#478,.T.);
#278=ORIENTED_EDGE('',*,*,#357,.F.);
#279=ORIENTED_EDGE('',*,*,#498,.T.);
#280=ORIENTED_EDGE('',*,*,#499,.T.);
#281=ORIENTED_EDGE('',*,*,#500,.F.);
#282=ORIENTED_EDGE('',*,*,#501,.T.);
#283=ORIENTED_EDGE('',*,*,#502,.F.);
#284=ORIENTED_EDGE('',*,*,#503,.F.);
#285=ORIENTED_EDGE('',*,*,#504,.T.);
#286=ORIENTED_EDGE('',*,*,#505,.F.);
#287=ORIENTED_EDGE('',*,*,#400,.T.);
#288=ORIENTED_EDGE('',*,*,#372,.T.);
#289=ORIENTED_EDGE('',*,*,#506,.F.);
#290=ORIENTED_EDGE('',*,*,#507,.F.);
#291=ORIENTED_EDGE('',*,*,#508,.T.);
#292=ORIENTED_EDGE('',*,*,#509,.F.);
#293=ORIENTED_EDGE('',*,*,#510,.F.);
#294=ORIENTED_EDGE('',*,*,#487,.T.);
#295=ORIENTED_EDGE('',*,*,#401,.T.);
#296=ORIENTED_EDGE('',*,*,#505,.T.);
#297=ORIENTED_EDGE('',*,*,#406,.F.);
#298=ORIENTED_EDGE('',*,*,#361,.F.);
#299=ORIENTED_EDGE('',*,*,#403,.F.);
#300=ORIENTED_EDGE('',*,*,#495,.F.);
#301=ORIENTED_EDGE('',*,*,#492,.F.);
#302=ORIENTED_EDGE('',*,*,#484,.F.);
#303=ORIENTED_EDGE('',*,*,#511,.T.);
#304=ORIENTED_EDGE('',*,*,#506,.T.);
#305=ORIENTED_EDGE('',*,*,#431,.F.);
#306=ORIENTED_EDGE('',*,*,#428,.F.);
#307=ORIENTED_EDGE('',*,*,#425,.F.);
#308=ORIENTED_EDGE('',*,*,#422,.F.);
#309=ORIENTED_EDGE('',*,*,#369,.F.);
#310=ORIENTED_EDGE('',*,*,#420,.F.);
#311=ORIENTED_EDGE('',*,*,#417,.F.);
#312=ORIENTED_EDGE('',*,*,#414,.F.);
#313=ORIENTED_EDGE('',*,*,#365,.F.);
#314=ORIENTED_EDGE('',*,*,#412,.F.);
#315=ORIENTED_EDGE('',*,*,#409,.F.);
#316=ORIENTED_EDGE('',*,*,#358,.F.);
#317=ORIENTED_EDGE('',*,*,#507,.T.);
#318=ORIENTED_EDGE('',*,*,#511,.F.);
#319=ORIENTED_EDGE('',*,*,#483,.F.);
#320=ORIENTED_EDGE('',*,*,#509,.T.);
#321=ORIENTED_EDGE('',*,*,#490,.F.);
#322=ORIENTED_EDGE('',*,*,#512,.F.);
#323=ORIENTED_EDGE('',*,*,#513,.T.);
#324=ORIENTED_EDGE('',*,*,#514,.T.);
#325=ORIENTED_EDGE('',*,*,#502,.T.);
#326=ORIENTED_EDGE('',*,*,#488,.T.);
#327=ORIENTED_EDGE('',*,*,#515,.T.);
#328=ORIENTED_EDGE('',*,*,#516,.T.);
#329=ORIENTED_EDGE('',*,*,#513,.F.);
#330=ORIENTED_EDGE('',*,*,#516,.F.);
#331=ORIENTED_EDGE('',*,*,#517,.T.);
#332=ORIENTED_EDGE('',*,*,#503,.T.);
#333=ORIENTED_EDGE('',*,*,#514,.F.);
#334=ORIENTED_EDGE('',*,*,#515,.F.);
#335=ORIENTED_EDGE('',*,*,#510,.T.);
#336=ORIENTED_EDGE('',*,*,#504,.F.);
#337=ORIENTED_EDGE('',*,*,#517,.F.);
#338=ORIENTED_EDGE('',*,*,#518,.F.);
#339=ORIENTED_EDGE('',*,*,#480,.T.);
#340=ORIENTED_EDGE('',*,*,#519,.T.);
#341=ORIENTED_EDGE('',*,*,#500,.T.);
#342=ORIENTED_EDGE('',*,*,#512,.T.);
#343=ORIENTED_EDGE('',*,*,#501,.F.);
#344=ORIENTED_EDGE('',*,*,#519,.F.);
#345=ORIENTED_EDGE('',*,*,#489,.F.);
#346=ORIENTED_EDGE('',*,*,#518,.T.);
#347=ORIENTED_EDGE('',*,*,#499,.F.);
#348=ORIENTED_EDGE('',*,*,#520,.F.);
#349=ORIENTED_EDGE('',*,*,#481,.T.);
#350=ORIENTED_EDGE('',*,*,#356,.T.);
#351=ORIENTED_EDGE('',*,*,#482,.T.);
#352=ORIENTED_EDGE('',*,*,#520,.T.);
#353=ORIENTED_EDGE('',*,*,#498,.F.);
#354=ORIENTED_EDGE('',*,*,#508,.F.);
#355=ORIENTED_EDGE('',*,*,#491,.T.);
#356=EDGE_CURVE('',#521,#522,#631,.T.);
#357=EDGE_CURVE('',#521,#523,#632,.T.);
#358=EDGE_CURVE('',#523,#524,#633,.T.);
#359=EDGE_CURVE('',#522,#524,#634,.T.);
#360=EDGE_CURVE('',#525,#526,#635,.T.);
#361=EDGE_CURVE('',#526,#527,#636,.T.);
#362=EDGE_CURVE('',#528,#527,#637,.T.);
#363=EDGE_CURVE('',#525,#528,#638,.T.);
#364=EDGE_CURVE('',#529,#530,#639,.T.);
#365=EDGE_CURVE('',#530,#531,#640,.T.);
#366=EDGE_CURVE('',#532,#531,#641,.T.);
#367=EDGE_CURVE('',#529,#532,#642,.T.);
#368=EDGE_CURVE('',#533,#534,#643,.T.);
#369=EDGE_CURVE('',#534,#535,#644,.T.);
#370=EDGE_CURVE('',#536,#535,#645,.T.);
#371=EDGE_CURVE('',#533,#536,#646,.T.);
#372=EDGE_CURVE('',#537,#538,#647,.T.);
#373=EDGE_CURVE('',#537,#539,#648,.T.);
#374=EDGE_CURVE('',#540,#539,#649,.T.);
#375=EDGE_CURVE('',#541,#540,#650,.T.);
#376=EDGE_CURVE('',#542,#541,#651,.T.);
#377=EDGE_CURVE('',#543,#542,#652,.T.);
#378=EDGE_CURVE('',#544,#543,#653,.T.);
#379=EDGE_CURVE('',#545,#544,#654,.T.);
#380=EDGE_CURVE('',#546,#545,#655,.T.);
#381=EDGE_CURVE('',#547,#546,#656,.T.);
#382=EDGE_CURVE('',#548,#547,#657,.T.);
#383=EDGE_CURVE('',#549,#548,#658,.T.);
#384=EDGE_CURVE('',#550,#549,#659,.T.);
#385=EDGE_CURVE('',#551,#550,#660,.T.);
#386=EDGE_CURVE('',#552,#551,#661,.T.);
#387=EDGE_CURVE('',#553,#552,#662,.T.);
#388=EDGE_CURVE('',#554,#553,#663,.T.);
#389=EDGE_CURVE('',#555,#554,#664,.T.);
#390=EDGE_CURVE('',#556,#555,#665,.T.);
#391=EDGE_CURVE('',#557,#556,#666,.T.);
#392=EDGE_CURVE('',#558,#557,#667,.T.);
#393=EDGE_CURVE('',#559,#558,#668,.T.);
#394=EDGE_CURVE('',#560,#559,#669,.T.);
#395=EDGE_CURVE('',#561,#560,#670,.T.);
#396=EDGE_CURVE('',#562,#561,#671,.T.);
#397=EDGE_CURVE('',#538,#562,#672,.T.);
#398=EDGE_CURVE('',#563,#564,#673,.T.);
#399=EDGE_CURVE('',#564,#539,#674,.T.);
#400=EDGE_CURVE('',#565,#537,#675,.T.);
#401=EDGE_CURVE('',#566,#565,#676,.T.);
#402=EDGE_CURVE('',#563,#566,#677,.T.);
#403=EDGE_CURVE('',#567,#526,#678,.T.);
#404=EDGE_CURVE('',#568,#525,#679,.T.);
#405=EDGE_CURVE('',#568,#567,#680,.T.);
#406=EDGE_CURVE('',#527,#569,#681,.T.);
#407=EDGE_CURVE('',#570,#569,#682,.T.);
#408=EDGE_CURVE('',#528,#570,#683,.T.);
#409=EDGE_CURVE('',#569,#571,#684,.T.);
#410=EDGE_CURVE('',#572,#571,#685,.T.);
#411=EDGE_CURVE('',#570,#572,#686,.T.);
#412=EDGE_CURVE('',#571,#530,#687,.T.);
#413=EDGE_CURVE('',#572,#529,#688,.T.);
#414=EDGE_CURVE('',#531,#573,#689,.T.);
#415=EDGE_CURVE('',#574,#573,#690,.T.);
#416=EDGE_CURVE('',#532,#574,#691,.T.);
#417=EDGE_CURVE('',#573,#575,#692,.T.);
#418=EDGE_CURVE('',#576,#575,#693,.T.);
#419=EDGE_CURVE('',#574,#576,#694,.T.);
#420=EDGE_CURVE('',#575,#534,#695,.T.);
#421=EDGE_CURVE('',#576,#533,#696,.T.);
#422=EDGE_CURVE('',#535,#577,#697,.T.);
#423=EDGE_CURVE('',#578,#577,#698,.T.);
#424=EDGE_CURVE('',#536,#578,#699,.T.);
#425=EDGE_CURVE('',#577,#579,#700,.T.);
#426=EDGE_CURVE('',#580,#579,#701,.T.);
#427=EDGE_CURVE('',#578,#580,#702,.T.);
#428=EDGE_CURVE('',#579,#581,#703,.T.);
#429=EDGE_CURVE('',#582,#581,#704,.T.);
#430=EDGE_CURVE('',#580,#582,#705,.T.);
#431=EDGE_CURVE('',#581,#538,#706,.T.);
#432=EDGE_CURVE('',#583,#538,#707,.T.);
#433=EDGE_CURVE('',#582,#583,#708,.T.);
#434=EDGE_CURVE('',#584,#562,#709,.T.);
#435=EDGE_CURVE('',#583,#584,#710,.T.);
#436=EDGE_CURVE('',#585,#561,#711,.T.);
#437=EDGE_CURVE('',#584,#585,#712,.T.);
#438=EDGE_CURVE('',#586,#560,#713,.T.);
#439=EDGE_CURVE('',#585,#586,#714,.T.);
#440=EDGE_CURVE('',#587,#559,#715,.T.);
#441=EDGE_CURVE('',#586,#587,#716,.T.);
#442=EDGE_CURVE('',#588,#558,#717,.T.);
#443=EDGE_CURVE('',#587,#588,#718,.T.);
#444=EDGE_CURVE('',#589,#557,#719,.T.);
#445=EDGE_CURVE('',#588,#589,#720,.T.);
#446=EDGE_CURVE('',#590,#556,#721,.T.);
#447=EDGE_CURVE('',#589,#590,#722,.T.);
#448=EDGE_CURVE('',#591,#555,#723,.T.);
#449=EDGE_CURVE('',#590,#591,#724,.T.);
#450=EDGE_CURVE('',#592,#554,#725,.T.);
#451=EDGE_CURVE('',#591,#592,#726,.T.);
#452=EDGE_CURVE('',#593,#553,#727,.T.);
#453=EDGE_CURVE('',#592,#593,#728,.T.);
#454=EDGE_CURVE('',#594,#552,#729,.T.);
#455=EDGE_CURVE('',#593,#594,#730,.T.);
#456=EDGE_CURVE('',#595,#551,#731,.T.);
#457=EDGE_CURVE('',#594,#595,#732,.T.);
#458=EDGE_CURVE('',#596,#550,#733,.T.);
#459=EDGE_CURVE('',#595,#596,#734,.T.);
#460=EDGE_CURVE('',#597,#549,#735,.T.);
#461=EDGE_CURVE('',#596,#597,#736,.T.);
#462=EDGE_CURVE('',#598,#548,#737,.T.);
#463=EDGE_CURVE('',#597,#598,#738,.T.);
#464=EDGE_CURVE('',#599,#547,#739,.T.);
#465=EDGE_CURVE('',#598,#599,#740,.T.);
#466=EDGE_CURVE('',#600,#546,#741,.T.);
#467=EDGE_CURVE('',#599,#600,#742,.T.);
#468=EDGE_CURVE('',#601,#545,#743,.T.);
#469=EDGE_CURVE('',#600,#601,#744,.T.);
#470=EDGE_CURVE('',#602,#544,#745,.T.);
#471=EDGE_CURVE('',#601,#602,#746,.T.);
#472=EDGE_CURVE('',#603,#543,#747,.T.);
#473=EDGE_CURVE('',#602,#603,#748,.T.);
#474=EDGE_CURVE('',#604,#542,#749,.T.);
#475=EDGE_CURVE('',#603,#604,#750,.T.);
#476=EDGE_CURVE('',#605,#541,#751,.T.);
#477=EDGE_CURVE('',#604,#605,#752,.T.);
#478=EDGE_CURVE('',#606,#540,#753,.T.);
#479=EDGE_CURVE('',#605,#606,#754,.T.);
#480=EDGE_CURVE('',#607,#608,#755,.T.);
#481=EDGE_CURVE('',#609,#607,#756,.T.);
#482=EDGE_CURVE('',#522,#609,#757,.T.);
#483=EDGE_CURVE('',#524,#610,#758,.T.);
#484=EDGE_CURVE('',#610,#611,#759,.T.);
#485=EDGE_CURVE('',#612,#611,#760,.T.);
#486=EDGE_CURVE('',#563,#612,#761,.T.);
#487=EDGE_CURVE('',#613,#566,#762,.T.);
#488=EDGE_CURVE('',#614,#613,#763,.T.);
#489=EDGE_CURVE('',#614,#608,#764,.T.);
#490=EDGE_CURVE('',#615,#615,#22,.T.);
#491=EDGE_CURVE('',#616,#616,#23,.T.);
#492=EDGE_CURVE('',#611,#617,#765,.T.);
#493=EDGE_CURVE('',#618,#617,#766,.T.);
#494=EDGE_CURVE('',#612,#618,#767,.T.);
#495=EDGE_CURVE('',#617,#567,#768,.T.);
#496=EDGE_CURVE('',#618,#568,#769,.T.);
#497=EDGE_CURVE('',#564,#606,#770,.T.);
#498=EDGE_CURVE('',#521,#619,#771,.T.);
#499=EDGE_CURVE('',#619,#620,#772,.T.);
#500=EDGE_CURVE('',#621,#620,#773,.T.);
#501=EDGE_CURVE('',#621,#622,#774,.T.);
#502=EDGE_CURVE('',#623,#622,#775,.T.);
#503=EDGE_CURVE('',#624,#623,#776,.T.);
#504=EDGE_CURVE('',#624,#625,#777,.T.);
#505=EDGE_CURVE('',#565,#625,#778,.T.);
#506=EDGE_CURVE('',#626,#538,#779,.T.);
#507=EDGE_CURVE('',#523,#626,#780,.T.);
#508=EDGE_CURVE('',#627,#627,#24,.T.);
#509=EDGE_CURVE('',#628,#628,#25,.T.);
#510=EDGE_CURVE('',#613,#625,#781,.T.);
#511=EDGE_CURVE('',#610,#626,#782,.T.);
#512=EDGE_CURVE('',#614,#622,#783,.T.);
#513=EDGE_CURVE('',#614,#629,#784,.T.);
#514=EDGE_CURVE('',#629,#623,#785,.T.);
#515=EDGE_CURVE('',#613,#630,#786,.T.);
#516=EDGE_CURVE('',#630,#629,#787,.T.);
#517=EDGE_CURVE('',#630,#624,#788,.T.);
#518=EDGE_CURVE('',#607,#620,#789,.T.);
#519=EDGE_CURVE('',#608,#621,#790,.T.);
#520=EDGE_CURVE('',#609,#619,#791,.T.);
#521=VERTEX_POINT('',#1567);
#522=VERTEX_POINT('',#1568);
#523=VERTEX_POINT('',#1570);
#524=VERTEX_POINT('',#1572);
#525=VERTEX_POINT('',#1576);
#526=VERTEX_POINT('',#1577);
#527=VERTEX_POINT('',#1579);
#528=VERTEX_POINT('',#1581);
#529=VERTEX_POINT('',#1585);
#530=VERTEX_POINT('',#1586);
#531=VERTEX_POINT('',#1588);
#532=VERTEX_POINT('',#1590);
#533=VERTEX_POINT('',#1594);
#534=VERTEX_POINT('',#1595);
#535=VERTEX_POINT('',#1597);
#536=VERTEX_POINT('',#1599);
#537=VERTEX_POINT('',#1603);
#538=VERTEX_POINT('',#1604);
#539=VERTEX_POINT('',#1606);
#540=VERTEX_POINT('',#1608);
#541=VERTEX_POINT('',#1610);
#542=VERTEX_POINT('',#1612);
#543=VERTEX_POINT('',#1614);
#544=VERTEX_POINT('',#1616);
#545=VERTEX_POINT('',#1618);
#546=VERTEX_POINT('',#1620);
#547=VERTEX_POINT('',#1622);
#548=VERTEX_POINT('',#1624);
#549=VERTEX_POINT('',#1626);
#550=VERTEX_POINT('',#1628);
#551=VERTEX_POINT('',#1630);
#552=VERTEX_POINT('',#1632);
#553=VERTEX_POINT('',#1634);
#554=VERTEX_POINT('',#1636);
#555=VERTEX_POINT('',#1638);
#556=VERTEX_POINT('',#1640);
#557=VERTEX_POINT('',#1642);
#558=VERTEX_POINT('',#1644);
#559=VERTEX_POINT('',#1646);
#560=VERTEX_POINT('',#1648);
#561=VERTEX_POINT('',#1650);
#562=VERTEX_POINT('',#1652);
#563=VERTEX_POINT('',#1656);
#564=VERTEX_POINT('',#1657);
#565=VERTEX_POINT('',#1660);
#566=VERTEX_POINT('',#1662);
#567=VERTEX_POINT('',#1666);
#568=VERTEX_POINT('',#1668);
#569=VERTEX_POINT('',#1672);
#570=VERTEX_POINT('',#1674);
#571=VERTEX_POINT('',#1678);
#572=VERTEX_POINT('',#1680);
#573=VERTEX_POINT('',#1687);
#574=VERTEX_POINT('',#1689);
#575=VERTEX_POINT('',#1693);
#576=VERTEX_POINT('',#1695);
#577=VERTEX_POINT('',#1702);
#578=VERTEX_POINT('',#1704);
#579=VERTEX_POINT('',#1708);
#580=VERTEX_POINT('',#1710);
#581=VERTEX_POINT('',#1714);
#582=VERTEX_POINT('',#1716);
#583=VERTEX_POINT('',#1721);
#584=VERTEX_POINT('',#1725);
#585=VERTEX_POINT('',#1729);
#586=VERTEX_POINT('',#1733);
#587=VERTEX_POINT('',#1737);
#588=VERTEX_POINT('',#1741);
#589=VERTEX_POINT('',#1745);
#590=VERTEX_POINT('',#1749);
#591=VERTEX_POINT('',#1753);
#592=VERTEX_POINT('',#1757);
#593=VERTEX_POINT('',#1761);
#594=VERTEX_POINT('',#1765);
#595=VERTEX_POINT('',#1769);
#596=VERTEX_POINT('',#1773);
#597=VERTEX_POINT('',#1777);
#598=VERTEX_POINT('',#1781);
#599=VERTEX_POINT('',#1785);
#600=VERTEX_POINT('',#1789);
#601=VERTEX_POINT('',#1793);
#602=VERTEX_POINT('',#1797);
#603=VERTEX_POINT('',#1801);
#604=VERTEX_POINT('',#1805);
#605=VERTEX_POINT('',#1809);
#606=VERTEX_POINT('',#1813);
#607=VERTEX_POINT('',#1817);
#608=VERTEX_POINT('',#1818);
#609=VERTEX_POINT('',#1820);
#610=VERTEX_POINT('',#1823);
#611=VERTEX_POINT('',#1825);
#612=VERTEX_POINT('',#1827);
#613=VERTEX_POINT('',#1830);
#614=VERTEX_POINT('',#1832);
#615=VERTEX_POINT('',#1835);
#616=VERTEX_POINT('',#1837);
#617=VERTEX_POINT('',#1840);
#618=VERTEX_POINT('',#1842);
#619=VERTEX_POINT('',#1852);
#620=VERTEX_POINT('',#1854);
#621=VERTEX_POINT('',#1856);
#622=VERTEX_POINT('',#1858);
#623=VERTEX_POINT('',#1860);
#624=VERTEX_POINT('',#1862);
#625=VERTEX_POINT('',#1864);
#626=VERTEX_POINT('',#1867);
#627=VERTEX_POINT('',#1870);
#628=VERTEX_POINT('',#1872);
#629=VERTEX_POINT('',#1882);
#630=VERTEX_POINT('',#1886);
#631=LINE('',#1566,#792);
#632=LINE('',#1569,#793);
#633=LINE('',#1571,#794);
#634=LINE('',#1573,#795);
#635=LINE('',#1575,#796);
#636=LINE('',#1578,#797);
#637=LINE('',#1580,#798);
#638=LINE('',#1582,#799);
#639=LINE('',#1584,#800);
#640=LINE('',#1587,#801);
#641=LINE('',#1589,#802);
#642=LINE('',#1591,#803);
#643=LINE('',#1593,#804);
#644=LINE('',#1596,#805);
#645=LINE('',#1598,#806);
#646=LINE('',#1600,#807);
#647=LINE('',#1602,#808);
#648=LINE('',#1605,#809);
#649=LINE('',#1607,#810);
#650=LINE('',#1609,#811);
#651=LINE('',#1611,#812);
#652=LINE('',#1613,#813);
#653=LINE('',#1615,#814);
#654=LINE('',#1617,#815);
#655=LINE('',#1619,#816);
#656=LINE('',#1621,#817);
#657=LINE('',#1623,#818);
#658=LINE('',#1625,#819);
#659=LINE('',#1627,#820);
#660=LINE('',#1629,#821);
#661=LINE('',#1631,#822);
#662=LINE('',#1633,#823);
#663=LINE('',#1635,#824);
#664=LINE('',#1637,#825);
#665=LINE('',#1639,#826);
#666=LINE('',#1641,#827);
#667=LINE('',#1643,#828);
#668=LINE('',#1645,#829);
#669=LINE('',#1647,#830);
#670=LINE('',#1649,#831);
#671=LINE('',#1651,#832);
#672=LINE('',#1653,#833);
#673=LINE('',#1655,#834);
#674=LINE('',#1658,#835);
#675=LINE('',#1659,#836);
#676=LINE('',#1661,#837);
#677=LINE('',#1663,#838);
#678=LINE('',#1665,#839);
#679=LINE('',#1667,#840);
#680=LINE('',#1669,#841);
#681=LINE('',#1671,#842);
#682=LINE('',#1673,#843);
#683=LINE('',#1675,#844);
#684=LINE('',#1677,#845);
#685=LINE('',#1679,#846);
#686=LINE('',#1681,#847);
#687=LINE('',#1683,#848);
#688=LINE('',#1684,#849);
#689=LINE('',#1686,#850);
#690=LINE('',#1688,#851);
#691=LINE('',#1690,#852);
#692=LINE('',#1692,#853);
#693=LINE('',#1694,#854);
#694=LINE('',#1696,#855);
#695=LINE('',#1698,#856);
#696=LINE('',#1699,#857);
#697=LINE('',#1701,#858);
#698=LINE('',#1703,#859);
#699=LINE('',#1705,#860);
#700=LINE('',#1707,#861);
#701=LINE('',#1709,#862);
#702=LINE('',#1711,#863);
#703=LINE('',#1713,#864);
#704=LINE('',#1715,#865);
#705=LINE('',#1717,#866);
#706=LINE('',#1719,#867);
#707=LINE('',#1720,#868);
#708=LINE('',#1722,#869);
#709=LINE('',#1724,#870);
#710=LINE('',#1726,#871);
#711=LINE('',#1728,#872);
#712=LINE('',#1730,#873);
#713=LINE('',#1732,#874);
#714=LINE('',#1734,#875);
#715=LINE('',#1736,#876);
#716=LINE('',#1738,#877);
#717=LINE('',#1740,#878);
#718=LINE('',#1742,#879);
#719=LINE('',#1744,#880);
#720=LINE('',#1746,#881);
#721=LINE('',#1748,#882);
#722=LINE('',#1750,#883);
#723=LINE('',#1752,#884);
#724=LINE('',#1754,#885);
#725=LINE('',#1756,#886);
#726=LINE('',#1758,#887);
#727=LINE('',#1760,#888);
#728=LINE('',#1762,#889);
#729=LINE('',#1764,#890);
#730=LINE('',#1766,#891);
#731=LINE('',#1768,#892);
#732=LINE('',#1770,#893);
#733=LINE('',#1772,#894);
#734=LINE('',#1774,#895);
#735=LINE('',#1776,#896);
#736=LINE('',#1778,#897);
#737=LINE('',#1780,#898);
#738=LINE('',#1782,#899);
#739=LINE('',#1784,#900);
#740=LINE('',#1786,#901);
#741=LINE('',#1788,#902);
#742=LINE('',#1790,#903);
#743=LINE('',#1792,#904);
#744=LINE('',#1794,#905);
#745=LINE('',#1796,#906);
#746=LINE('',#1798,#907);
#747=LINE('',#1800,#908);
#748=LINE('',#1802,#909);
#749=LINE('',#1804,#910);
#750=LINE('',#1806,#911);
#751=LINE('',#1808,#912);
#752=LINE('',#1810,#913);
#753=LINE('',#1812,#914);
#754=LINE('',#1814,#915);
#755=LINE('',#1816,#916);
#756=LINE('',#1819,#917);
#757=LINE('',#1821,#918);
#758=LINE('',#1822,#919);
#759=LINE('',#1824,#920);
#760=LINE('',#1826,#921);
#761=LINE('',#1828,#922);
#762=LINE('',#1829,#923);
#763=LINE('',#1831,#924);
#764=LINE('',#1833,#925);
#765=LINE('',#1839,#926);
#766=LINE('',#1841,#927);
#767=LINE('',#1843,#928);
#768=LINE('',#1845,#929);
#769=LINE('',#1846,#930);
#770=LINE('',#1848,#931);
#771=LINE('',#1851,#932);
#772=LINE('',#1853,#933);
#773=LINE('',#1855,#934);
#774=LINE('',#1857,#935);
#775=LINE('',#1859,#936);
#776=LINE('',#1861,#937);
#777=LINE('',#1863,#938);
#778=LINE('',#1865,#939);
#779=LINE('',#1866,#940);
#780=LINE('',#1868,#941);
#781=LINE('',#1874,#942);
#782=LINE('',#1876,#943);
#783=LINE('',#1880,#944);
#784=LINE('',#1881,#945);
#785=LINE('',#1883,#946);
#786=LINE('',#1885,#947);
#787=LINE('',#1887,#948);
#788=LINE('',#1889,#949);
#789=LINE('',#1892,#950);
#790=LINE('',#1893,#951);
#791=LINE('',#1896,#952);
#792=VECTOR('',#1279,1.);
#793=VECTOR('',#1280,1.);
#794=VECTOR('',#1281,1.);
#795=VECTOR('',#1282,1.);
#796=VECTOR('',#1285,1.);
#797=VECTOR('',#1286,1.);
#798=VECTOR('',#1287,1.);
#799=VECTOR('',#1288,1.);
#800=VECTOR('',#1291,1.);
#801=VECTOR('',#1292,1.);
#802=VECTOR('',#1293,1.);
#803=VECTOR('',#1294,1.);
#804=VECTOR('',#1297,1.);
#805=VECTOR('',#1298,1.);
#806=VECTOR('',#1299,1.);
#807=VECTOR('',#1300,1.);
#808=VECTOR('',#1303,1.);
#809=VECTOR('',#1304,1.);
#810=VECTOR('',#1305,1.);
#811=VECTOR('',#1306,1.);
#812=VECTOR('',#1307,1.);
#813=VECTOR('',#1308,1.);
#814=VECTOR('',#1309,1.);
#815=VECTOR('',#1310,1.);
#816=VECTOR('',#1311,1.);
#817=VECTOR('',#1312,1.);
#818=VECTOR('',#1313,1.);
#819=VECTOR('',#1314,1.);
#820=VECTOR('',#1315,1.);
#821=VECTOR('',#1316,1.);
#822=VECTOR('',#1317,1.);
#823=VECTOR('',#1318,1.);
#824=VECTOR('',#1319,1.);
#825=VECTOR('',#1320,1.);
#826=VECTOR('',#1321,1.);
#827=VECTOR('',#1322,1.);
#828=VECTOR('',#1323,1.);
#829=VECTOR('',#1324,1.);
#830=VECTOR('',#1325,1.);
#831=VECTOR('',#1326,1.);
#832=VECTOR('',#1327,1.);
#833=VECTOR('',#1328,1.);
#834=VECTOR('',#1331,1.);
#835=VECTOR('',#1332,1.);
#836=VECTOR('',#1333,1.);
#837=VECTOR('',#1334,1.);
#838=VECTOR('',#1335,1.);
#839=VECTOR('',#1338,1.);
#840=VECTOR('',#1339,1.);
#841=VECTOR('',#1340,1.);
#842=VECTOR('',#1343,1.);
#843=VECTOR('',#1344,1.);
#844=VECTOR('',#1345,1.);
#845=VECTOR('',#1348,1.);
#846=VECTOR('',#1349,1.);
#847=VECTOR('',#1350,1.);
#848=VECTOR('',#1353,1.);
#849=VECTOR('',#1354,1.);
#850=VECTOR('',#1357,1.);
#851=VECTOR('',#1358,1.);
#852=VECTOR('',#1359,1.);
#853=VECTOR('',#1362,1.);
#854=VECTOR('',#1363,1.);
#855=VECTOR('',#1364,1.);
#856=VECTOR('',#1367,1.);
#857=VECTOR('',#1368,1.);
#858=VECTOR('',#1371,1.);
#859=VECTOR('',#1372,1.);
#860=VECTOR('',#1373,1.);
#861=VECTOR('',#1376,1.);
#862=VECTOR('',#1377,1.);
#863=VECTOR('',#1378,1.);
#864=VECTOR('',#1381,1.);
#865=VECTOR('',#1382,1.);
#866=VECTOR('',#1383,1.);
#867=VECTOR('',#1386,1.);
#868=VECTOR('',#1387,1.);
#869=VECTOR('',#1388,1.);
#870=VECTOR('',#1391,1.);
#871=VECTOR('',#1392,1.);
#872=VECTOR('',#1395,1.);
#873=VECTOR('',#1396,1.);
#874=VECTOR('',#1399,1.);
#875=VECTOR('',#1400,1.);
#876=VECTOR('',#1403,1.);
#877=VECTOR('',#1404,1.);
#878=VECTOR('',#1407,1.);
#879=VECTOR('',#1408,1.);
#880=VECTOR('',#1411,1.);
#881=VECTOR('',#1412,1.);
#882=VECTOR('',#1415,1.);
#883=VECTOR('',#1416,1.);
#884=VECTOR('',#1419,1.);
#885=VECTOR('',#1420,1.);
#886=VECTOR('',#1423,1.);
#887=VECTOR('',#1424,1.);
#888=VECTOR('',#1427,1.);
#889=VECTOR('',#1428,1.);
#890=VECTOR('',#1431,1.);
#891=VECTOR('',#1432,1.);
#892=VECTOR('',#1435,1.);
#893=VECTOR('',#1436,1.);
#894=VECTOR('',#1439,1.);
#895=VECTOR('',#1440,1.);
#896=VECTOR('',#1443,1.);
#897=VECTOR('',#1444,1.);
#898=VECTOR('',#1447,1.);
#899=VECTOR('',#1448,1.);
#900=VECTOR('',#1451,1.);
#901=VECTOR('',#1452,1.);
#902=VECTOR('',#1455,1.);
#903=VECTOR('',#1456,1.);
#904=VECTOR('',#1459,1.);
#905=VECTOR('',#1460,1.);
#906=VECTOR('',#1463,1.);
#907=VECTOR('',#1464,1.);
#908=VECTOR('',#1467,1.);
#909=VECTOR('',#1468,1.);
#910=VECTOR('',#1471,1.);
#911=VECTOR('',#1472,1.);
#912=VECTOR('',#1475,1.);
#913=VECTOR('',#1476,1.);
#914=VECTOR('',#1479,1.);
#915=VECTOR('',#1480,1.);
#916=VECTOR('',#1483,1.);
#917=VECTOR('',#1484,1.);
#918=VECTOR('',#1485,1.);
#919=VECTOR('',#1486,1.);
#920=VECTOR('',#1487,1.);
#921=VECTOR('',#1488,1.);
#922=VECTOR('',#1489,1.);
#923=VECTOR('',#1490,1.);
#924=VECTOR('',#1491,1.);
#925=VECTOR('',#1492,1.);
#926=VECTOR('',#1499,1.);
#927=VECTOR('',#1500,1.);
#928=VECTOR('',#1501,1.);
#929=VECTOR('',#1504,1.);
#930=VECTOR('',#1505,1.);
#931=VECTOR('',#1508,1.);
#932=VECTOR('',#1513,1.);
#933=VECTOR('',#1514,1.);
#934=VECTOR('',#1515,1.);
#935=VECTOR('',#1516,1.);
#936=VECTOR('',#1517,1.);
#937=VECTOR('',#1518,1.);
#938=VECTOR('',#1519,1.);
#939=VECTOR('',#1520,1.);
#940=VECTOR('',#1521,1.);
#941=VECTOR('',#1522,1.);
#942=VECTOR('',#1529,1.);
#943=VECTOR('',#1532,1.);
#944=VECTOR('',#1539,1.);
#945=VECTOR('',#1540,1.);
#946=VECTOR('',#1541,1.);
#947=VECTOR('',#1544,1.);
#948=VECTOR('',#1545,1.);
#949=VECTOR('',#1548,1.);
#950=VECTOR('',#1553,1.);
#951=VECTOR('',#1554,1.);
#952=VECTOR('',#1559,1.);
#953=EDGE_LOOP('',(#26,#27,#28,#29));
#954=EDGE_LOOP('',(#30,#31,#32,#33));
#955=EDGE_LOOP('',(#34,#35,#36,#37));
#956=EDGE_LOOP('',(#38,#39,#40,#41));
#957=EDGE_LOOP('',(#42,#43,#44,#45,#46,#47,#48,#49,#50,#51,#52,#53,#54,
#55,#56,#57,#58,#59,#60,#61,#62,#63,#64,#65,#66,#67));
#958=EDGE_LOOP('',(#68,#69,#70,#71,#72,#73));
#959=EDGE_LOOP('',(#74,#75,#76,#77));
#960=EDGE_LOOP('',(#78,#79,#80,#81));
#961=EDGE_LOOP('',(#82,#83,#84,#85));
#962=EDGE_LOOP('',(#86,#87,#88,#89));
#963=EDGE_LOOP('',(#90,#91,#92,#93));
#964=EDGE_LOOP('',(#94,#95,#96,#97));
#965=EDGE_LOOP('',(#98,#99,#100,#101));
#966=EDGE_LOOP('',(#102,#103,#104,#105));
#967=EDGE_LOOP('',(#106,#107,#108,#109));
#968=EDGE_LOOP('',(#110,#111,#112,#113));
#969=EDGE_LOOP('',(#114,#115,#116,#117));
#970=EDGE_LOOP('',(#118,#119,#120,#121));
#971=EDGE_LOOP('',(#122,#123,#124,#125));
#972=EDGE_LOOP('',(#126,#127,#128,#129));
#973=EDGE_LOOP('',(#130,#131,#132,#133));
#974=EDGE_LOOP('',(#134,#135,#136,#137));
#975=EDGE_LOOP('',(#138,#139,#140,#141));
#976=EDGE_LOOP('',(#142,#143,#144,#145));
#977=EDGE_LOOP('',(#146,#147,#148,#149));
#978=EDGE_LOOP('',(#150,#151,#152,#153));
#979=EDGE_LOOP('',(#154,#155,#156,#157));
#980=EDGE_LOOP('',(#158,#159,#160,#161));
#981=EDGE_LOOP('',(#162,#163,#164,#165));
#982=EDGE_LOOP('',(#166,#167,#168,#169));
#983=EDGE_LOOP('',(#170,#171,#172,#173));
#984=EDGE_LOOP('',(#174,#175,#176,#177));
#985=EDGE_LOOP('',(#178,#179,#180,#181));
#986=EDGE_LOOP('',(#182,#183,#184,#185));
#987=EDGE_LOOP('',(#186,#187,#188,#189));
#988=EDGE_LOOP('',(#190,#191,#192,#193));
#989=EDGE_LOOP('',(#194,#195,#196,#197));
#990=EDGE_LOOP('',(#198,#199,#200,#201));
#991=EDGE_LOOP('',(#202,#203,#204,#205));
#992=EDGE_LOOP('',(#206,#207,#208,#209));
#993=EDGE_LOOP('',(#210,#211,#212,#213,#214,#215,#216,#217,#218,#219,#220,
#221));
#994=EDGE_LOOP('',(#222));
#995=EDGE_LOOP('',(#223));
#996=EDGE_LOOP('',(#224,#225,#226,#227));
#997=EDGE_LOOP('',(#228,#229,#230,#231));
#998=EDGE_LOOP('',(#232,#233,#234,#235,#236,#237,#238,#239,#240,#241,#242,
#243,#244,#245,#246,#247,#248,#249,#250,#251,#252,#253,#254,#255,#256,#257,
#258,#259,#260,#261,#262,#263,#264,#265,#266,#267,#268,#269,#270,#271,#272,
#273));
#999=EDGE_LOOP('',(#274,#275,#276,#277));
#1000=EDGE_LOOP('',(#278,#279,#280,#281,#282,#283,#284,#285,#286,#287,#288,
#289,#290));
#1001=EDGE_LOOP('',(#291));
#1002=EDGE_LOOP('',(#292));
#1003=EDGE_LOOP('',(#293,#294,#295,#296));
#1004=EDGE_LOOP('',(#297,#298,#299,#300,#301,#302,#303,#304,#305,#306,#307,
#308,#309,#310,#311,#312,#313,#314,#315));
#1005=EDGE_LOOP('',(#316,#317,#318,#319));
#1006=EDGE_LOOP('',(#320));
#1007=EDGE_LOOP('',(#321));
#1008=EDGE_LOOP('',(#322,#323,#324,#325));
#1009=EDGE_LOOP('',(#326,#327,#328,#329));
#1010=EDGE_LOOP('',(#330,#331,#332,#333));
#1011=EDGE_LOOP('',(#334,#335,#336,#337));
#1012=EDGE_LOOP('',(#338,#339,#340,#341));
#1013=EDGE_LOOP('',(#342,#343,#344,#345));
#1014=EDGE_LOOP('',(#346,#347,#348,#349));
#1015=EDGE_LOOP('',(#350,#351,#352,#353));
#1016=EDGE_LOOP('',(#354));
#1017=EDGE_LOOP('',(#355));
#1018=FACE_BOUND('',#953,.T.);
#1019=FACE_BOUND('',#954,.T.);
#1020=FACE_BOUND('',#955,.T.);
#1021=FACE_BOUND('',#956,.T.);
#1022=FACE_BOUND('',#957,.T.);
#1023=FACE_BOUND('',#958,.T.);
#1024=FACE_BOUND('',#959,.T.);
#1025=FACE_BOUND('',#960,.T.);
#1026=FACE_BOUND('',#961,.T.);
#1027=FACE_BOUND('',#962,.T.);
#1028=FACE_BOUND('',#963,.T.);
#1029=FACE_BOUND('',#964,.T.);
#1030=FACE_BOUND('',#965,.T.);
#1031=FACE_BOUND('',#966,.T.);
#1032=FACE_BOUND('',#967,.T.);
#1033=FACE_BOUND('',#968,.T.);
#1034=FACE_BOUND('',#969,.T.);
#1035=FACE_BOUND('',#970,.T.);
#1036=FACE_BOUND('',#971,.T.);
#1037=FACE_BOUND('',#972,.T.);
#1038=FACE_BOUND('',#973,.T.);
#1039=FACE_BOUND('',#974,.T.);
#1040=FACE_BOUND('',#975,.T.);
#1041=FACE_BOUND('',#976,.T.);
#1042=FACE_BOUND('',#977,.T.);
#1043=FACE_BOUND('',#978,.T.);
#1044=FACE_BOUND('',#979,.T.);
#1045=FACE_BOUND('',#980,.T.);
#1046=FACE_BOUND('',#981,.T.);
#1047=FACE_BOUND('',#982,.T.);
#1048=FACE_BOUND('',#983,.T.);
#1049=FACE_BOUND('',#984,.T.);
#1050=FACE_BOUND('',#985,.T.);
#1051=FACE_BOUND('',#986,.T.);
#1052=FACE_BOUND('',#987,.T.);
#1053=FACE_BOUND('',#988,.T.);
#1054=FACE_BOUND('',#989,.T.);
#1055=FACE_BOUND('',#990,.T.);
#1056=FACE_BOUND('',#991,.T.);
#1057=FACE_BOUND('',#992,.T.);
#1058=FACE_BOUND('',#993,.T.);
#1059=FACE_BOUND('',#994,.T.);
#1060=FACE_BOUND('',#995,.T.);
#1061=FACE_BOUND('',#996,.T.);
#1062=FACE_BOUND('',#997,.T.);
#1063=FACE_BOUND('',#998,.T.);
#1064=FACE_BOUND('',#999,.T.);
#1065=FACE_BOUND('',#1000,.T.);
#1066=FACE_BOUND('',#1001,.T.);
#1067=FACE_BOUND('',#1002,.T.);
#1068=FACE_BOUND('',#1003,.T.);
#1069=FACE_BOUND('',#1004,.T.);
#1070=FACE_BOUND('',#1005,.T.);
#1071=FACE_BOUND('',#1006,.T.);
#1072=FACE_BOUND('',#1007,.T.);
#1073=FACE_BOUND('',#1008,.T.);
#1074=FACE_BOUND('',#1009,.T.);
#1075=FACE_BOUND('',#1010,.T.);
#1076=FACE_BOUND('',#1011,.T.);
#1077=FACE_BOUND('',#1012,.T.);
#1078=FACE_BOUND('',#1013,.T.);
#1079=FACE_BOUND('',#1014,.T.);
#1080=FACE_BOUND('',#1015,.T.);
#1081=FACE_BOUND('',#1016,.T.);
#1082=FACE_BOUND('',#1017,.T.);
#1083=PLANE('',#1212);
#1084=PLANE('',#1213);
#1085=PLANE('',#1214);
#1086=PLANE('',#1215);
#1087=PLANE('',#1216);
#1088=PLANE('',#1217);
#1089=PLANE('',#1218);
#1090=PLANE('',#1219);
#1091=PLANE('',#1220);
#1092=PLANE('',#1221);
#1093=PLANE('',#1222);
#1094=PLANE('',#1223);
#1095=PLANE('',#1224);
#1096=PLANE('',#1225);
#1097=PLANE('',#1226);
#1098=PLANE('',#1227);
#1099=PLANE('',#1228);
#1100=PLANE('',#1229);
#1101=PLANE('',#1230);
#1102=PLANE('',#1231);
#1103=PLANE('',#1232);
#1104=PLANE('',#1233);
#1105=PLANE('',#1234);
#1106=PLANE('',#1235);
#1107=PLANE('',#1236);
#1108=PLANE('',#1237);
#1109=PLANE('',#1238);
#1110=PLANE('',#1239);
#1111=PLANE('',#1240);
#1112=PLANE('',#1241);
#1113=PLANE('',#1242);
#1114=PLANE('',#1243);
#1115=PLANE('',#1244);
#1116=PLANE('',#1245);
#1117=PLANE('',#1246);
#1118=PLANE('',#1247);
#1119=PLANE('',#1248);
#1120=PLANE('',#1249);
#1121=PLANE('',#1250);
#1122=PLANE('',#1251);
#1123=PLANE('',#1252);
#1124=PLANE('',#1255);
#1125=PLANE('',#1256);
#1126=PLANE('',#1257);
#1127=PLANE('',#1258);
#1128=PLANE('',#1259);
#1129=PLANE('',#1262);
#1130=PLANE('',#1263);
#1131=PLANE('',#1264);
#1132=PLANE('',#1266);
#1133=PLANE('',#1267);
#1134=PLANE('',#1268);
#1135=PLANE('',#1269);
#1136=PLANE('',#1270);
#1137=PLANE('',#1271);
#1138=PLANE('',#1272);
#1139=PLANE('',#1273);
#1140=ADVANCED_FACE('',(#1018),#1083,.F.);
#1141=ADVANCED_FACE('',(#1019),#1084,.F.);
#1142=ADVANCED_FACE('',(#1020),#1085,.F.);
#1143=ADVANCED_FACE('',(#1021),#1086,.F.);
#1144=ADVANCED_FACE('',(#1022),#1087,.F.);
#1145=ADVANCED_FACE('',(#1023),#1088,.T.);
#1146=ADVANCED_FACE('',(#1024),#1089,.F.);
#1147=ADVANCED_FACE('',(#1025),#1090,.F.);
#1148=ADVANCED_FACE('',(#1026),#1091,.F.);
#1149=ADVANCED_FACE('',(#1027),#1092,.F.);
#1150=ADVANCED_FACE('',(#1028),#1093,.F.);
#1151=ADVANCED_FACE('',(#1029),#1094,.F.);
#1152=ADVANCED_FACE('',(#1030),#1095,.F.);
#1153=ADVANCED_FACE('',(#1031),#1096,.F.);
#1154=ADVANCED_FACE('',(#1032),#1097,.F.);
#1155=ADVANCED_FACE('',(#1033),#1098,.F.);
#1156=ADVANCED_FACE('',(#1034),#1099,.F.);
#1157=ADVANCED_FACE('',(#1035),#1100,.F.);
#1158=ADVANCED_FACE('',(#1036),#1101,.F.);
#1159=ADVANCED_FACE('',(#1037),#1102,.F.);
#1160=ADVANCED_FACE('',(#1038),#1103,.F.);
#1161=ADVANCED_FACE('',(#1039),#1104,.F.);
#1162=ADVANCED_FACE('',(#1040),#1105,.F.);
#1163=ADVANCED_FACE('',(#1041),#1106,.F.);
#1164=ADVANCED_FACE('',(#1042),#1107,.F.);
#1165=ADVANCED_FACE('',(#1043),#1108,.F.);
#1166=ADVANCED_FACE('',(#1044),#1109,.F.);
#1167=ADVANCED_FACE('',(#1045),#1110,.F.);
#1168=ADVANCED_FACE('',(#1046),#1111,.F.);
#1169=ADVANCED_FACE('',(#1047),#1112,.F.);
#1170=ADVANCED_FACE('',(#1048),#1113,.F.);
#1171=ADVANCED_FACE('',(#1049),#1114,.F.);
#1172=ADVANCED_FACE('',(#1050),#1115,.F.);
#1173=ADVANCED_FACE('',(#1051),#1116,.F.);
#1174=ADVANCED_FACE('',(#1052),#1117,.F.);
#1175=ADVANCED_FACE('',(#1053),#1118,.F.);
#1176=ADVANCED_FACE('',(#1054),#1119,.F.);
#1177=ADVANCED_FACE('',(#1055),#1120,.F.);
#1178=ADVANCED_FACE('',(#1056),#1121,.F.);
#1179=ADVANCED_FACE('',(#1057),#1122,.F.);
#1180=ADVANCED_FACE('',(#1058,#1059,#1060),#1123,.F.);
#1181=ADVANCED_FACE('',(#1061),#1124,.F.);
#1182=ADVANCED_FACE('',(#1062),#1125,.F.);
#1183=ADVANCED_FACE('',(#1063),#1126,.T.);
#1184=ADVANCED_FACE('',(#1064),#1127,.F.);
#1185=ADVANCED_FACE('',(#1065,#1066,#1067),#1128,.F.);
#1186=ADVANCED_FACE('',(#1068),#1129,.F.);
#1187=ADVANCED_FACE('',(#1069),#1130,.T.);
#1188=ADVANCED_FACE('',(#1070),#1131,.T.);
#1189=ADVANCED_FACE('',(#1071,#1072),#20,.F.);
#1190=ADVANCED_FACE('',(#1073),#1132,.T.);
#1191=ADVANCED_FACE('',(#1074),#1133,.T.);
#1192=ADVANCED_FACE('',(#1075),#1134,.T.);
#1193=ADVANCED_FACE('',(#1076),#1135,.T.);
#1194=ADVANCED_FACE('',(#1077),#1136,.T.);
#1195=ADVANCED_FACE('',(#1078),#1137,.F.);
#1196=ADVANCED_FACE('',(#1079),#1138,.T.);
#1197=ADVANCED_FACE('',(#1080),#1139,.T.);
#1198=ADVANCED_FACE('',(#1081,#1082),#21,.F.);
#1199=CLOSED_SHELL('',(#1140,#1141,#1142,#1143,#1144,#1145,#1146,#1147,
#1148,#1149,#1150,#1151,#1152,#1153,#1154,#1155,#1156,#1157,#1158,#1159,
#1160,#1161,#1162,#1163,#1164,#1165,#1166,#1167,#1168,#1169,#1170,#1171,
#1172,#1173,#1174,#1175,#1176,#1177,#1178,#1179,#1180,#1181,#1182,#1183,
#1184,#1185,#1186,#1187,#1188,#1189,#1190,#1191,#1192,#1193,#1194,#1195,
#1196,#1197,#1198));
#1200=STYLED_ITEM('',(#1201),#1208);
#1201=PRESENTATION_STYLE_ASSIGNMENT((#1202));
#1202=SURFACE_STYLE_USAGE(.BOTH.,#1203);
#1203=SURFACE_SIDE_STYLE('',(#1204));
#1204=SURFACE_STYLE_FILL_AREA(#1205);
#1205=FILL_AREA_STYLE('',(#1206));
#1206=FILL_AREA_STYLE_COLOUR('',#1207);
#1207=COLOUR_RGB('',0.231372549019608,0.380392156862745,0.705882352941177);
#1208=MANIFOLD_SOLID_BREP('Part 9',#1199);
#1209=SHAPE_DEFINITION_REPRESENTATION(#1905,#1210);
#1210=SHAPE_REPRESENTATION('Part 9',(#1211),#1900);
#1211=AXIS2_PLACEMENT_3D('',#1564,#1275,#1276);
#1212=AXIS2_PLACEMENT_3D('',#1565,#1277,#1278);
#1213=AXIS2_PLACEMENT_3D('',#1574,#1283,#1284);
#1214=AXIS2_PLACEMENT_3D('',#1583,#1289,#1290);
#1215=AXIS2_PLACEMENT_3D('',#1592,#1295,#1296);
#1216=AXIS2_PLACEMENT_3D('',#1601,#1301,#1302);
#1217=AXIS2_PLACEMENT_3D('',#1654,#1329,#1330);
#1218=AXIS2_PLACEMENT_3D('',#1664,#1336,#1337);
#1219=AXIS2_PLACEMENT_3D('',#1670,#1341,#1342);
#1220=AXIS2_PLACEMENT_3D('',#1676,#1346,#1347);
#1221=AXIS2_PLACEMENT_3D('',#1682,#1351,#1352);
#1222=AXIS2_PLACEMENT_3D('',#1685,#1355,#1356);
#1223=AXIS2_PLACEMENT_3D('',#1691,#1360,#1361);
#1224=AXIS2_PLACEMENT_3D('',#1697,#1365,#1366);
#1225=AXIS2_PLACEMENT_3D('',#1700,#1369,#1370);
#1226=AXIS2_PLACEMENT_3D('',#1706,#1374,#1375);
#1227=AXIS2_PLACEMENT_3D('',#1712,#1379,#1380);
#1228=AXIS2_PLACEMENT_3D('',#1718,#1384,#1385);
#1229=AXIS2_PLACEMENT_3D('',#1723,#1389,#1390);
#1230=AXIS2_PLACEMENT_3D('',#1727,#1393,#1394);
#1231=AXIS2_PLACEMENT_3D('',#1731,#1397,#1398);
#1232=AXIS2_PLACEMENT_3D('',#1735,#1401,#1402);
#1233=AXIS2_PLACEMENT_3D('',#1739,#1405,#1406);
#1234=AXIS2_PLACEMENT_3D('',#1743,#1409,#1410);
#1235=AXIS2_PLACEMENT_3D('',#1747,#1413,#1414);
#1236=AXIS2_PLACEMENT_3D('',#1751,#1417,#1418);
#1237=AXIS2_PLACEMENT_3D('',#1755,#1421,#1422);
#1238=AXIS2_PLACEMENT_3D('',#1759,#1425,#1426);
#1239=AXIS2_PLACEMENT_3D('',#1763,#1429,#1430);
#1240=AXIS2_PLACEMENT_3D('',#1767,#1433,#1434);
#1241=AXIS2_PLACEMENT_3D('',#1771,#1437,#1438);
#1242=AXIS2_PLACEMENT_3D('',#1775,#1441,#1442);
#1243=AXIS2_PLACEMENT_3D('',#1779,#1445,#1446);
#1244=AXIS2_PLACEMENT_3D('',#1783,#1449,#1450);
#1245=AXIS2_PLACEMENT_3D('',#1787,#1453,#1454);
#1246=AXIS2_PLACEMENT_3D('',#1791,#1457,#1458);
#1247=AXIS2_PLACEMENT_3D('',#1795,#1461,#1462);
#1248=AXIS2_PLACEMENT_3D('',#1799,#1465,#1466);
#1249=AXIS2_PLACEMENT_3D('',#1803,#1469,#1470);
#1250=AXIS2_PLACEMENT_3D('',#1807,#1473,#1474);
#1251=AXIS2_PLACEMENT_3D('',#1811,#1477,#1478);
#1252=AXIS2_PLACEMENT_3D('',#1815,#1481,#1482);
#1253=AXIS2_PLACEMENT_3D('',#1834,#1493,#1494);
#1254=AXIS2_PLACEMENT_3D('',#1836,#1495,#1496);
#1255=AXIS2_PLACEMENT_3D('',#1838,#1497,#1498);
#1256=AXIS2_PLACEMENT_3D('',#1844,#1502,#1503);
#1257=AXIS2_PLACEMENT_3D('',#1847,#1506,#1507);
#1258=AXIS2_PLACEMENT_3D('',#1849,#1509,#1510);
#1259=AXIS2_PLACEMENT_3D('',#1850,#1511,#1512);
#1260=AXIS2_PLACEMENT_3D('',#1869,#1523,#1524);
#1261=AXIS2_PLACEMENT_3D('',#1871,#1525,#1526);
#1262=AXIS2_PLACEMENT_3D('',#1873,#1527,#1528);
#1263=AXIS2_PLACEMENT_3D('',#1875,#1530,#1531);
#1264=AXIS2_PLACEMENT_3D('',#1877,#1533,#1534);
#1265=AXIS2_PLACEMENT_3D('',#1878,#1535,#1536);
#1266=AXIS2_PLACEMENT_3D('',#1879,#1537,#1538);
#1267=AXIS2_PLACEMENT_3D('',#1884,#1542,#1543);
#1268=AXIS2_PLACEMENT_3D('',#1888,#1546,#1547);
#1269=AXIS2_PLACEMENT_3D('',#1890,#1549,#1550);
#1270=AXIS2_PLACEMENT_3D('',#1891,#1551,#1552);
#1271=AXIS2_PLACEMENT_3D('',#1894,#1555,#1556);
#1272=AXIS2_PLACEMENT_3D('',#1895,#1557,#1558);
#1273=AXIS2_PLACEMENT_3D('',#1897,#1560,#1561);
#1274=AXIS2_PLACEMENT_3D('',#1898,#1562,#1563);
#1275=DIRECTION('',(0.,0.,1.));
#1276=DIRECTION('',(1.,0.,0.));
#1277=DIRECTION('',(9.20375358646438E-17,0.,-1.));
#1278=DIRECTION('',(-1.,0.,-9.20375358646438E-17));
#1279=DIRECTION('',(-1.,0.,-9.20375358646438E-17));
#1280=DIRECTION('',(0.,1.,0.));
#1281=DIRECTION('',(-1.,0.,-9.20375358646438E-17));
#1282=DIRECTION('',(0.,1.,0.));
#1283=DIRECTION('',(0.,1.,0.));
#1284=DIRECTION('',(0.,0.,1.));
#1285=DIRECTION('',(0.,0.,-1.));
#1286=DIRECTION('',(1.,0.,0.));
#1287=DIRECTION('',(0.,0.,-1.));
#1288=DIRECTION('',(1.,0.,0.));
#1289=DIRECTION('',(0.,1.,0.));
#1290=DIRECTION('',(0.,0.,1.));
#1291=DIRECTION('',(0.,0.,-1.));
#1292=DIRECTION('',(1.,0.,0.));
#1293=DIRECTION('',(0.,0.,-1.));
#1294=DIRECTION('',(1.,0.,0.));
#1295=DIRECTION('',(0.,1.,0.));
#1296=DIRECTION('',(0.,0.,1.));
#1297=DIRECTION('',(0.,0.,-1.));
#1298=DIRECTION('',(1.,0.,0.));
#1299=DIRECTION('',(0.,0.,-1.));
#1300=DIRECTION('',(1.,0.,0.));
#1301=DIRECTION('',(0.,0.,1.));
#1302=DIRECTION('',(1.,0.,0.));
#1303=DIRECTION('',(0.,-1.,0.));
#1304=DIRECTION('',(1.,0.,0.));
#1305=DIRECTION('',(-0.0063270859027139,0.999979983791666,0.));
#1306=DIRECTION('',(0.342044841668269,0.939683630956786,0.));
#1307=DIRECTION('',(1.,0.,0.));
#1308=DIRECTION('',(0.342044841668268,-0.939683630956786,0.));
#1309=DIRECTION('',(1.,0.,0.));
#1310=DIRECTION('',(0.342044841668269,0.939683630956786,0.));
#1311=DIRECTION('',(1.,0.,0.));
#1312=DIRECTION('',(0.342044841668269,-0.939683630956786,0.));
#1313=DIRECTION('',(1.,0.,0.));
#1314=DIRECTION('',(0.342044841668269,0.939683630956786,0.));
#1315=DIRECTION('',(1.,0.,0.));
#1316=DIRECTION('',(0.342044841668268,-0.939683630956786,0.));
#1317=DIRECTION('',(1.,0.,0.));
#1318=DIRECTION('',(0.342044841668268,0.939683630956786,0.));
#1319=DIRECTION('',(1.,0.,0.));
#1320=DIRECTION('',(0.342044841668269,-0.939683630956786,0.));
#1321=DIRECTION('',(1.,0.,0.));
#1322=DIRECTION('',(0.342044841668269,0.939683630956786,0.));
#1323=DIRECTION('',(1.,0.,0.));
#1324=DIRECTION('',(0.342044841668269,-0.939683630956786,0.));
#1325=DIRECTION('',(1.,0.,0.));
#1326=DIRECTION('',(0.342044841668269,0.939683630956786,0.));
#1327=DIRECTION('',(1.,0.,0.));
#1328=DIRECTION('',(0.342044841668269,-0.939683630956786,0.));
#1329=DIRECTION('',(0.,1.,0.));
#1330=DIRECTION('',(0.,0.,1.));
#1331=DIRECTION('',(1.,0.,0.));
#1332=DIRECTION('',(0.,0.,-1.));
#1333=DIRECTION('',(0.,0.,1.));
#1334=DIRECTION('',(1.,0.,0.));
#1335=DIRECTION('',(0.,0.,-1.));
#1336=DIRECTION('',(-0.939683630956786,0.342044841668269,0.));
#1337=DIRECTION('',(-0.342044841668269,-0.939683630956786,0.));
#1338=DIRECTION('',(0.342044841668269,0.939683630956786,0.));
#1339=DIRECTION('',(0.342044841668269,0.939683630956786,0.));
#1340=DIRECTION('',(0.,0.,-1.));
#1341=DIRECTION('',(0.939683630956786,0.342044841668269,0.));
#1342=DIRECTION('',(-0.342044841668269,0.939683630956786,0.));
#1343=DIRECTION('',(0.342044841668269,-0.939683630956786,0.));
#1344=DIRECTION('',(0.,0.,-1.));
#1345=DIRECTION('',(0.342044841668269,-0.939683630956786,0.));
#1346=DIRECTION('',(0.,1.,0.));
#1347=DIRECTION('',(0.,0.,1.));
#1348=DIRECTION('',(1.,0.,0.));
#1349=DIRECTION('',(0.,0.,-1.));
#1350=DIRECTION('',(1.,0.,0.));
#1351=DIRECTION('',(-0.939683630956786,0.342044841668269,0.));
#1352=DIRECTION('',(-0.342044841668269,-0.939683630956786,0.));
#1353=DIRECTION('',(0.342044841668269,0.939683630956786,0.));
#1354=DIRECTION('',(0.342044841668269,0.939683630956786,0.));
#1355=DIRECTION('',(0.939683630956786,0.342044841668269,0.));
#1356=DIRECTION('',(-0.342044841668269,0.939683630956786,0.));
#1357=DIRECTION('',(0.342044841668269,-0.939683630956786,0.));
#1358=DIRECTION('',(0.,0.,-1.));
#1359=DIRECTION('',(0.342044841668269,-0.939683630956786,0.));
#1360=DIRECTION('',(0.,1.,0.));
#1361=DIRECTION('',(0.,0.,1.));
#1362=DIRECTION('',(1.,0.,0.));
#1363=DIRECTION('',(0.,0.,-1.));
#1364=DIRECTION('',(1.,0.,0.));
#1365=DIRECTION('',(-0.939683630956786,0.342044841668269,0.));
#1366=DIRECTION('',(-0.342044841668269,-0.939683630956786,0.));
#1367=DIRECTION('',(0.342044841668269,0.939683630956786,0.));
#1368=DIRECTION('',(0.342044841668269,0.939683630956786,0.));
#1369=DIRECTION('',(0.939683630956786,0.342044841668269,0.));
#1370=DIRECTION('',(-0.342044841668269,0.939683630956786,0.));
#1371=DIRECTION('',(0.342044841668269,-0.939683630956786,0.));
#1372=DIRECTION('',(0.,0.,-1.));
#1373=DIRECTION('',(0.342044841668269,-0.939683630956786,0.));
#1374=DIRECTION('',(0.,1.,0.));
#1375=DIRECTION('',(0.,0.,1.));
#1376=DIRECTION('',(1.,0.,0.));
#1377=DIRECTION('',(0.,0.,-1.));
#1378=DIRECTION('',(1.,0.,0.));
#1379=DIRECTION('',(-0.939683630956786,0.342044841668269,0.));
#1380=DIRECTION('',(-0.342044841668269,-0.939683630956786,0.));
#1381=DIRECTION('',(0.342044841668269,0.939683630956786,0.));
#1382=DIRECTION('',(0.,0.,-1.));
#1383=DIRECTION('',(0.342044841668269,0.939683630956786,0.));
#1384=DIRECTION('',(0.,1.,0.));
#1385=DIRECTION('',(0.,0.,1.));
#1386=DIRECTION('',(1.,0.,0.));
#1387=DIRECTION('',(0.,0.,-1.));
#1388=DIRECTION('',(1.,0.,0.));
#1389=DIRECTION('',(0.939683630956786,0.342044841668269,0.));
#1390=DIRECTION('',(-0.342044841668269,0.939683630956786,0.));
#1391=DIRECTION('',(0.,0.,-1.));
#1392=DIRECTION('',(0.342044841668269,-0.939683630956786,0.));
#1393=DIRECTION('',(0.,1.,0.));
#1394=DIRECTION('',(0.,0.,1.));
#1395=DIRECTION('',(0.,0.,-1.));
#1396=DIRECTION('',(1.,0.,0.));
#1397=DIRECTION('',(-0.939683630956786,0.342044841668269,0.));
#1398=DIRECTION('',(-0.342044841668269,-0.939683630956786,0.));
#1399=DIRECTION('',(0.,0.,-1.));
#1400=DIRECTION('',(0.342044841668269,0.939683630956786,0.));
#1401=DIRECTION('',(0.,1.,0.));
#1402=DIRECTION('',(0.,0.,1.));
#1403=DIRECTION('',(0.,0.,-1.));
#1404=DIRECTION('',(1.,0.,0.));
#1405=DIRECTION('',(0.939683630956786,0.342044841668269,0.));
#1406=DIRECTION('',(-0.342044841668269,0.939683630956786,0.));
#1407=DIRECTION('',(0.,0.,-1.));
#1408=DIRECTION('',(0.342044841668269,-0.939683630956786,0.));
#1409=DIRECTION('',(0.,1.,0.));
#1410=DIRECTION('',(0.,0.,1.));
#1411=DIRECTION('',(0.,0.,-1.));
#1412=DIRECTION('',(1.,0.,0.));
#1413=DIRECTION('',(-0.939683630956786,0.342044841668269,0.));
#1414=DIRECTION('',(-0.342044841668269,-0.939683630956786,0.));
#1415=DIRECTION('',(0.,0.,-1.));
#1416=DIRECTION('',(0.342044841668269,0.939683630956786,0.));
#1417=DIRECTION('',(0.,1.,0.));
#1418=DIRECTION('',(0.,0.,1.));
#1419=DIRECTION('',(0.,0.,-1.));
#1420=DIRECTION('',(1.,0.,0.));
#1421=DIRECTION('',(0.939683630956786,0.342044841668269,0.));
#1422=DIRECTION('',(-0.342044841668269,0.939683630956786,0.));
#1423=DIRECTION('',(0.,0.,-1.));
#1424=DIRECTION('',(0.342044841668269,-0.939683630956786,0.));
#1425=DIRECTION('',(0.,1.,0.));
#1426=DIRECTION('',(0.,0.,1.));
#1427=DIRECTION('',(0.,0.,-1.));
#1428=DIRECTION('',(1.,0.,0.));
#1429=DIRECTION('',(-0.939683630956786,0.342044841668268,0.));
#1430=DIRECTION('',(-0.342044841668268,-0.939683630956786,0.));
#1431=DIRECTION('',(0.,0.,-1.));
#1432=DIRECTION('',(0.342044841668268,0.939683630956786,0.));
#1433=DIRECTION('',(0.,1.,0.));
#1434=DIRECTION('',(0.,0.,1.));
#1435=DIRECTION('',(0.,0.,-1.));
#1436=DIRECTION('',(1.,0.,0.));
#1437=DIRECTION('',(0.939683630956786,0.342044841668268,0.));
#1438=DIRECTION('',(-0.342044841668268,0.939683630956786,0.));
#1439=DIRECTION('',(0.,0.,-1.));
#1440=DIRECTION('',(0.342044841668268,-0.939683630956786,0.));
#1441=DIRECTION('',(0.,1.,0.));
#1442=DIRECTION('',(0.,0.,1.));
#1443=DIRECTION('',(0.,0.,-1.));
#1444=DIRECTION('',(1.,0.,0.));
#1445=DIRECTION('',(-0.939683630956786,0.342044841668269,0.));
#1446=DIRECTION('',(-0.342044841668269,-0.939683630956786,0.));
#1447=DIRECTION('',(0.,0.,-1.));
#1448=DIRECTION('',(0.342044841668269,0.939683630956786,0.));
#1449=DIRECTION('',(0.,1.,0.));
#1450=DIRECTION('',(0.,0.,1.));
#1451=DIRECTION('',(0.,0.,-1.));
#1452=DIRECTION('',(1.,0.,0.));
#1453=DIRECTION('',(0.939683630956786,0.342044841668269,0.));
#1454=DIRECTION('',(-0.342044841668269,0.939683630956786,0.));
#1455=DIRECTION('',(0.,0.,-1.));
#1456=DIRECTION('',(0.342044841668269,-0.939683630956786,0.));
#1457=DIRECTION('',(0.,1.,0.));
#1458=DIRECTION('',(0.,0.,1.));
#1459=DIRECTION('',(0.,0.,-1.));
#1460=DIRECTION('',(1.,0.,0.));
#1461=DIRECTION('',(-0.939683630956786,0.342044841668269,0.));
#1462=DIRECTION('',(-0.342044841668269,-0.939683630956786,0.));
#1463=DIRECTION('',(0.,0.,-1.));
#1464=DIRECTION('',(0.342044841668269,0.939683630956786,0.));
#1465=DIRECTION('',(0.,1.,0.));
#1466=DIRECTION('',(0.,0.,1.));
#1467=DIRECTION('',(0.,0.,-1.));
#1468=DIRECTION('',(1.,0.,0.));
#1469=DIRECTION('',(0.939683630956786,0.342044841668268,0.));
#1470=DIRECTION('',(-0.342044841668268,0.939683630956786,0.));
#1471=DIRECTION('',(0.,0.,-1.));
#1472=DIRECTION('',(0.342044841668268,-0.939683630956786,0.));
#1473=DIRECTION('',(0.,1.,0.));
#1474=DIRECTION('',(0.,0.,1.));
#1475=DIRECTION('',(0.,0.,-1.));
#1476=DIRECTION('',(1.,0.,0.));
#1477=DIRECTION('',(-0.939683630956786,0.342044841668269,0.));
#1478=DIRECTION('',(-0.342044841668269,-0.939683630956786,0.));
#1479=DIRECTION('',(0.,0.,-1.));
#1480=DIRECTION('',(0.342044841668269,0.939683630956786,0.));
#1481=DIRECTION('',(1.,6.12323399573677E-17,0.));
#1482=DIRECTION('',(-6.12323399573677E-17,1.,0.));
#1483=DIRECTION('',(0.,0.,-1.));
#1484=DIRECTION('',(0.,-1.,0.));
#1485=DIRECTION('',(0.,0.,1.));
#1486=DIRECTION('',(0.,0.,1.));
#1487=DIRECTION('',(0.,1.,0.));
#1488=DIRECTION('',(0.,0.,-1.));
#1489=DIRECTION('',(6.12323399573677E-17,-1.,0.));
#1490=DIRECTION('',(-3.06161699786838E-17,0.5,0.866025403784439));
#1491=DIRECTION('',(-6.12323399573677E-17,1.,0.));
#1492=DIRECTION('',(-3.06161699786838E-17,-0.5,0.866025403784439));
#1493=DIRECTION('',(1.,6.12323399573677E-17,0.));
#1494=DIRECTION('',(-6.12323399573677E-17,1.,0.));
#1495=DIRECTION('',(-1.,6.12323399573677E-17,0.));
#1496=DIRECTION('',(-6.12323399573677E-17,-1.,0.));
#1497=DIRECTION('',(0.939683630956786,0.342044841668269,0.));
#1498=DIRECTION('',(-0.342044841668269,0.939683630956786,0.));
#1499=DIRECTION('',(0.342044841668269,-0.939683630956786,0.));
#1500=DIRECTION('',(0.,0.,-1.));
#1501=DIRECTION('',(0.342044841668269,-0.939683630956786,0.));
#1502=DIRECTION('',(0.,1.,0.));
#1503=DIRECTION('',(0.,0.,1.));
#1504=DIRECTION('',(1.,0.,0.));
#1505=DIRECTION('',(1.,0.,0.));
#1506=DIRECTION('',(0.,0.,1.));
#1507=DIRECTION('',(1.,0.,0.));
#1508=DIRECTION('',(0.0063270859027139,-0.999979983791666,0.));
#1509=DIRECTION('',(-0.999979983791666,-0.0063270859027139,0.));
#1510=DIRECTION('',(0.0063270859027139,-0.999979983791666,0.));
#1511=DIRECTION('',(-1.,0.,0.));
#1512=DIRECTION('',(0.,0.,1.));
#1513=DIRECTION('',(0.,0.,1.));
#1514=DIRECTION('',(0.,-1.,0.));
#1515=DIRECTION('',(0.,0.,1.));
#1516=DIRECTION('',(0.,0.5,-0.866025403784439));
#1517=DIRECTION('',(0.,0.,1.));
#1518=DIRECTION('',(0.,-1.,0.));
#1519=DIRECTION('',(0.,0.,1.));
#1520=DIRECTION('',(0.,-0.5,-0.866025403784439));
#1521=DIRECTION('',(0.,1.,0.));
#1522=DIRECTION('',(0.,0.,1.));
#1523=DIRECTION('',(-1.,0.,0.));
#1524=DIRECTION('',(0.,0.,-1.));
#1525=DIRECTION('',(1.,0.,0.));
#1526=DIRECTION('',(0.,0.,-1.));
#1527=DIRECTION('',(0.,-0.866025403784439,0.5));
#1528=DIRECTION('',(0.,-0.5,-0.866025403784439));
#1529=DIRECTION('',(1.,0.,0.));
#1530=DIRECTION('',(0.,0.,1.));
#1531=DIRECTION('',(1.,0.,0.));
#1532=DIRECTION('',(1.,0.,0.));
#1533=DIRECTION('',(0.,-1.,0.));
#1534=DIRECTION('',(1.,0.,0.));
#1535=DIRECTION('',(1.,0.,0.));
#1536=DIRECTION('',(0.,0.,-1.));
#1537=DIRECTION('',(0.,-1.,0.));
#1538=DIRECTION('',(1.,0.,0.));
#1539=DIRECTION('',(1.,0.,0.));
#1540=DIRECTION('',(0.64278760968654,0.,-0.766044443118978));
#1541=DIRECTION('',(1.,0.,0.));
#1542=DIRECTION('',(-0.766044443118978,0.,-0.642787609686539));
#1543=DIRECTION('',(-0.64278760968654,0.,0.766044443118978));
#1544=DIRECTION('',(0.64278760968654,0.,-0.766044443118978));
#1545=DIRECTION('',(0.,-1.,0.));
#1546=DIRECTION('',(0.,0.,-1.));
#1547=DIRECTION('',(-1.,0.,0.));
#1548=DIRECTION('',(1.,0.,0.));
#1549=DIRECTION('',(0.,1.,0.));
#1550=DIRECTION('',(-1.,0.,0.));
#1551=DIRECTION('',(0.,-1.,0.));
#1552=DIRECTION('',(0.,0.,1.));
#1553=DIRECTION('',(1.,0.,0.));
#1554=DIRECTION('',(1.,0.,0.));
#1555=DIRECTION('',(0.,0.866025403784439,0.5));
#1556=DIRECTION('',(0.,0.5,-0.866025403784439));
#1557=DIRECTION('',(0.,0.,1.));
#1558=DIRECTION('',(1.,0.,0.));
#1559=DIRECTION('',(1.,0.,0.));
#1560=DIRECTION('',(0.,1.,0.));
#1561=DIRECTION('',(1.,0.,0.));
#1562=DIRECTION('',(1.,0.,0.));
#1563=DIRECTION('',(0.,0.,-1.));
#1564=CARTESIAN_POINT('',(0.,0.,0.));
#1565=CARTESIAN_POINT('',(0.009424,-0.04875,-0.0075));
#1566=CARTESIAN_POINT('',(0.009424,-0.0416367513459481,-0.0075));
#1567=CARTESIAN_POINT('',(0.018848,-0.0416367513459481,-0.0075));
#1568=CARTESIAN_POINT('',(-9.75781955236954E-19,-0.0416367513459481,-0.0075));
#1569=CARTESIAN_POINT('',(0.018848,-0.04875,-0.0075));
#1570=CARTESIAN_POINT('',(0.018848,-0.01,-0.0075));
#1571=CARTESIAN_POINT('',(0.009424,-0.01,-0.0075));
#1572=CARTESIAN_POINT('',(-9.75781955236954E-19,-0.01,-0.0075));
#1573=CARTESIAN_POINT('',(-9.75781955236954E-19,-0.04875,-0.0075));
#1574=CARTESIAN_POINT('',(0.0183525,-0.005,0.0075));
#1575=CARTESIAN_POINT('',(0.003721,-0.005,0.0075));
#1576=CARTESIAN_POINT('',(0.003721,-0.005,0.0075));
#1577=CARTESIAN_POINT('',(0.003721,-0.005,0.));
#1578=CARTESIAN_POINT('',(0.009424,-0.005,0.));
#1579=CARTESIAN_POINT('',(0.004712,-0.005,0.));
#1580=CARTESIAN_POINT('',(0.004712,-0.005,0.0075));
#1581=CARTESIAN_POINT('',(0.004712,-0.005,0.0075));
#1582=CARTESIAN_POINT('',(0.0042165,-0.005,0.0075));
#1583=CARTESIAN_POINT('',(0.0183525,-0.005,0.0075));
#1584=CARTESIAN_POINT('',(0.008433,-0.005,0.0075));
#1585=CARTESIAN_POINT('',(0.008433,-0.005,0.0075));
#1586=CARTESIAN_POINT('',(0.008433,-0.005,0.));
#1587=CARTESIAN_POINT('',(0.009424,-0.005,0.));
#1588=CARTESIAN_POINT('',(0.009424,-0.005,0.));
#1589=CARTESIAN_POINT('',(0.009424,-0.005,0.0075));
#1590=CARTESIAN_POINT('',(0.009424,-0.005,0.0075));
#1591=CARTESIAN_POINT('',(0.0089285,-0.005,0.0075));
#1592=CARTESIAN_POINT('',(0.0183525,-0.005,0.0075));
#1593=CARTESIAN_POINT('',(0.013145,-0.005,0.0075));
#1594=CARTESIAN_POINT('',(0.013145,-0.005,0.0075));
#1595=CARTESIAN_POINT('',(0.013145,-0.005,0.));
#1596=CARTESIAN_POINT('',(0.009424,-0.005,0.));
#1597=CARTESIAN_POINT('',(0.014136,-0.005,0.));
#1598=CARTESIAN_POINT('',(0.014136,-0.005,0.0075));
#1599=CARTESIAN_POINT('',(0.014136,-0.005,0.0075));
#1600=CARTESIAN_POINT('',(0.0136405,-0.005,0.0075));
#1601=CARTESIAN_POINT('',(0.070685,-0.0041875,0.));
#1602=CARTESIAN_POINT('',(0.018848,-0.0025,0.));
#1603=CARTESIAN_POINT('',(0.018848,0.,0.));
#1604=CARTESIAN_POINT('',(0.018848,-0.005,0.));
#1605=CARTESIAN_POINT('',(0.070685,0.,0.));
#1606=CARTESIAN_POINT('',(0.0460973639372524,8.67361737988404E-19,0.));
#1607=CARTESIAN_POINT('',(0.0461750145990902,-0.0122724914375928,0.));
#1608=CARTESIAN_POINT('',(0.046129,-0.005,0.));
#1609=CARTESIAN_POINT('',(0.04551475,-0.0066875,0.));
#1610=CARTESIAN_POINT('',(0.0449005,-0.008375,0.));
#1611=CARTESIAN_POINT('',(0.0442685,-0.008375,0.));
#1612=CARTESIAN_POINT('',(0.0436365,-0.008375,0.));
#1613=CARTESIAN_POINT('',(0.04302225,-0.0066875,0.));
#1614=CARTESIAN_POINT('',(0.042408,-0.005,0.));
#1615=CARTESIAN_POINT('',(0.0419125,-0.005,0.));
#1616=CARTESIAN_POINT('',(0.041417,-0.005,0.));
#1617=CARTESIAN_POINT('',(0.04080275,-0.0066875,0.));
#1618=CARTESIAN_POINT('',(0.0401885,-0.008375,0.));
#1619=CARTESIAN_POINT('',(0.0395565,-0.008375,0.));
#1620=CARTESIAN_POINT('',(0.0389245,-0.008375,0.));
#1621=CARTESIAN_POINT('',(0.03831025,-0.0066875,0.));
#1622=CARTESIAN_POINT('',(0.037696,-0.005,0.));
#1623=CARTESIAN_POINT('',(0.0372005,-0.005,0.));
#1624=CARTESIAN_POINT('',(0.036705,-0.005,0.));
#1625=CARTESIAN_POINT('',(0.03609075,-0.0066875,0.));
#1626=CARTESIAN_POINT('',(0.0354765,-0.008375,0.));
#1627=CARTESIAN_POINT('',(0.0348445,-0.008375,0.));
#1628=CARTESIAN_POINT('',(0.0342125,-0.008375,0.));
#1629=CARTESIAN_POINT('',(0.03359825,-0.0066875,0.));
#1630=CARTESIAN_POINT('',(0.032984,-0.005,0.));
#1631=CARTESIAN_POINT('',(0.0324885,-0.005,0.));
#1632=CARTESIAN_POINT('',(0.031993,-0.005,0.));
#1633=CARTESIAN_POINT('',(0.03137875,-0.0066875,0.));
#1634=CARTESIAN_POINT('',(0.0307645,-0.008375,0.));
#1635=CARTESIAN_POINT('',(0.0301325,-0.008375,0.));
#1636=CARTESIAN_POINT('',(0.0295005,-0.008375,0.));
#1637=CARTESIAN_POINT('',(0.02888625,-0.0066875,0.));
#1638=CARTESIAN_POINT('',(0.028272,-0.005,0.));
#1639=CARTESIAN_POINT('',(0.0277765,-0.005,0.));
#1640=CARTESIAN_POINT('',(0.027281,-0.005,0.));
#1641=CARTESIAN_POINT('',(0.02666675,-0.0066875,0.));
#1642=CARTESIAN_POINT('',(0.0260525,-0.008375,0.));
#1643=CARTESIAN_POINT('',(0.0254205,-0.008375,0.));
#1644=CARTESIAN_POINT('',(0.0247885,-0.008375,0.));
#1645=CARTESIAN_POINT('',(0.02417425,-0.0066875,0.));
#1646=CARTESIAN_POINT('',(0.02356,-0.005,0.));
#1647=CARTESIAN_POINT('',(0.0230645,-0.005,0.));
#1648=CARTESIAN_POINT('',(0.022569,-0.005,0.));
#1649=CARTESIAN_POINT('',(0.02195475,-0.0066875,0.));
#1650=CARTESIAN_POINT('',(0.0213405,-0.008375,0.));
#1651=CARTESIAN_POINT('',(0.0207085,-0.008375,0.));
#1652=CARTESIAN_POINT('',(0.0200765,-0.008375,0.));
#1653=CARTESIAN_POINT('',(0.01946225,-0.0066875,0.));
#1654=CARTESIAN_POINT('',(0.070685,0.,0.0075));
#1655=CARTESIAN_POINT('',(0.070685,0.,0.0075));
#1656=CARTESIAN_POINT('',(-1.53080849893419E-19,0.,0.0075));
#1657=CARTESIAN_POINT('',(0.0460973639372524,4.33680868994202E-19,0.0075));
#1658=CARTESIAN_POINT('',(0.0460973639372524,8.67361737988404E-19,0.025));
#1659=CARTESIAN_POINT('',(0.018848,0.,-0.005));
#1660=CARTESIAN_POINT('',(0.018848,0.,-0.005));
#1661=CARTESIAN_POINT('',(0.070685,0.,-0.005));
#1662=CARTESIAN_POINT('',(-1.53080849893419E-19,0.,-0.005));
#1663=CARTESIAN_POINT('',(-1.53080849893419E-19,0.,0.0075));
#1664=CARTESIAN_POINT('',(0.00310675,-0.0066875,0.0075));
#1665=CARTESIAN_POINT('',(0.00310675,-0.0066875,0.));
#1666=CARTESIAN_POINT('',(0.0024925,-0.008375,0.));
#1667=CARTESIAN_POINT('',(0.00310675,-0.0066875,0.0075));
#1668=CARTESIAN_POINT('',(0.0024925,-0.008375,0.0075));
#1669=CARTESIAN_POINT('',(0.0024925,-0.008375,0.0075));
#1670=CARTESIAN_POINT('',(0.00532625,-0.0066875,0.0075));
#1671=CARTESIAN_POINT('',(0.00532625,-0.0066875,0.));
#1672=CARTESIAN_POINT('',(0.0059405,-0.008375,0.));
#1673=CARTESIAN_POINT('',(0.0059405,-0.008375,0.0075));
#1674=CARTESIAN_POINT('',(0.0059405,-0.008375,0.0075));
#1675=CARTESIAN_POINT('',(0.00532625,-0.0066875,0.0075));
#1676=CARTESIAN_POINT('',(0.0065725,-0.008375,0.0075));
#1677=CARTESIAN_POINT('',(0.0065725,-0.008375,0.));
#1678=CARTESIAN_POINT('',(0.0072045,-0.008375,0.));
#1679=CARTESIAN_POINT('',(0.0072045,-0.008375,0.0075));
#1680=CARTESIAN_POINT('',(0.0072045,-0.008375,0.0075));
#1681=CARTESIAN_POINT('',(0.0065725,-0.008375,0.0075));
#1682=CARTESIAN_POINT('',(0.00781875,-0.0066875,0.0075));
#1683=CARTESIAN_POINT('',(0.00781875,-0.0066875,0.));
#1684=CARTESIAN_POINT('',(0.00781875,-0.0066875,0.0075));
#1685=CARTESIAN_POINT('',(0.01003825,-0.0066875,0.0075));
#1686=CARTESIAN_POINT('',(0.01003825,-0.0066875,0.));
#1687=CARTESIAN_POINT('',(0.0106525,-0.008375,0.));
#1688=CARTESIAN_POINT('',(0.0106525,-0.008375,0.0075));
#1689=CARTESIAN_POINT('',(0.0106525,-0.008375,0.0075));
#1690=CARTESIAN_POINT('',(0.01003825,-0.0066875,0.0075));
#1691=CARTESIAN_POINT('',(0.0112845,-0.008375,0.0075));
#1692=CARTESIAN_POINT('',(0.0112845,-0.008375,0.));
#1693=CARTESIAN_POINT('',(0.0119165,-0.008375,0.));
#1694=CARTESIAN_POINT('',(0.0119165,-0.008375,0.0075));
#1695=CARTESIAN_POINT('',(0.0119165,-0.008375,0.0075));
#1696=CARTESIAN_POINT('',(0.0112845,-0.008375,0.0075));
#1697=CARTESIAN_POINT('',(0.01253075,-0.0066875,0.0075));
#1698=CARTESIAN_POINT('',(0.01253075,-0.0066875,0.));
#1699=CARTESIAN_POINT('',(0.01253075,-0.0066875,0.0075));
#1700=CARTESIAN_POINT('',(0.01475025,-0.0066875,0.0075));
#1701=CARTESIAN_POINT('',(0.01475025,-0.0066875,0.));
#1702=CARTESIAN_POINT('',(0.0153645,-0.008375,0.));
#1703=CARTESIAN_POINT('',(0.0153645,-0.008375,0.0075));
#1704=CARTESIAN_POINT('',(0.0153645,-0.008375,0.0075));
#1705=CARTESIAN_POINT('',(0.01475025,-0.0066875,0.0075));
#1706=CARTESIAN_POINT('',(0.0159965,-0.008375,0.0075));
#1707=CARTESIAN_POINT('',(0.0159965,-0.008375,0.));
#1708=CARTESIAN_POINT('',(0.0166285,-0.008375,0.));
#1709=CARTESIAN_POINT('',(0.0166285,-0.008375,0.0075));
#1710=CARTESIAN_POINT('',(0.0166285,-0.008375,0.0075));
#1711=CARTESIAN_POINT('',(0.0159965,-0.008375,0.0075));
#1712=CARTESIAN_POINT('',(0.01724275,-0.0066875,0.0075));
#1713=CARTESIAN_POINT('',(0.01724275,-0.0066875,0.));
#1714=CARTESIAN_POINT('',(0.017857,-0.005,0.));
#1715=CARTESIAN_POINT('',(0.017857,-0.005,0.0075));
#1716=CARTESIAN_POINT('',(0.017857,-0.005,0.0075));
#1717=CARTESIAN_POINT('',(0.01724275,-0.0066875,0.0075));
#1718=CARTESIAN_POINT('',(0.0183525,-0.005,0.0075));
#1719=CARTESIAN_POINT('',(0.009424,-0.005,0.));
#1720=CARTESIAN_POINT('',(0.018848,-0.005,0.0075));
#1721=CARTESIAN_POINT('',(0.018848,-0.005,0.0075));
#1722=CARTESIAN_POINT('',(0.0183525,-0.005,0.0075));
#1723=CARTESIAN_POINT('',(0.01946225,-0.0066875,0.0075));
#1724=CARTESIAN_POINT('',(0.0200765,-0.008375,0.0075));
#1725=CARTESIAN_POINT('',(0.0200765,-0.008375,0.0075));
#1726=CARTESIAN_POINT('',(0.01946225,-0.0066875,0.0075));
#1727=CARTESIAN_POINT('',(0.0207085,-0.008375,0.0075));
#1728=CARTESIAN_POINT('',(0.0213405,-0.008375,0.0075));
#1729=CARTESIAN_POINT('',(0.0213405,-0.008375,0.0075));
#1730=CARTESIAN_POINT('',(0.0207085,-0.008375,0.0075));
#1731=CARTESIAN_POINT('',(0.02195475,-0.0066875,0.0075));
#1732=CARTESIAN_POINT('',(0.022569,-0.005,0.0075));
#1733=CARTESIAN_POINT('',(0.022569,-0.005,0.0075));
#1734=CARTESIAN_POINT('',(0.02195475,-0.0066875,0.0075));
#1735=CARTESIAN_POINT('',(0.0230645,-0.005,0.0075));
#1736=CARTESIAN_POINT('',(0.02356,-0.005,0.0075));
#1737=CARTESIAN_POINT('',(0.02356,-0.005,0.0075));
#1738=CARTESIAN_POINT('',(0.0230645,-0.005,0.0075));
#1739=CARTESIAN_POINT('',(0.02417425,-0.0066875,0.0075));
#1740=CARTESIAN_POINT('',(0.0247885,-0.008375,0.0075));
#1741=CARTESIAN_POINT('',(0.0247885,-0.008375,0.0075));
#1742=CARTESIAN_POINT('',(0.02417425,-0.0066875,0.0075));
#1743=CARTESIAN_POINT('',(0.0254205,-0.008375,0.0075));
#1744=CARTESIAN_POINT('',(0.0260525,-0.008375,0.0075));
#1745=CARTESIAN_POINT('',(0.0260525,-0.008375,0.0075));
#1746=CARTESIAN_POINT('',(0.0254205,-0.008375,0.0075));
#1747=CARTESIAN_POINT('',(0.02666675,-0.0066875,0.0075));
#1748=CARTESIAN_POINT('',(0.027281,-0.005,0.0075));
#1749=CARTESIAN_POINT('',(0.027281,-0.005,0.0075));
#1750=CARTESIAN_POINT('',(0.02666675,-0.0066875,0.0075));
#1751=CARTESIAN_POINT('',(0.0277765,-0.005,0.0075));
#1752=CARTESIAN_POINT('',(0.028272,-0.005,0.0075));
#1753=CARTESIAN_POINT('',(0.028272,-0.005,0.0075));
#1754=CARTESIAN_POINT('',(0.0277765,-0.005,0.0075));
#1755=CARTESIAN_POINT('',(0.02888625,-0.0066875,0.0075));
#1756=CARTESIAN_POINT('',(0.0295005,-0.008375,0.0075));
#1757=CARTESIAN_POINT('',(0.0295005,-0.008375,0.0075));
#1758=CARTESIAN_POINT('',(0.02888625,-0.0066875,0.0075));
#1759=CARTESIAN_POINT('',(0.0301325,-0.008375,0.0075));
#1760=CARTESIAN_POINT('',(0.0307645,-0.008375,0.0075));
#1761=CARTESIAN_POINT('',(0.0307645,-0.008375,0.0075));
#1762=CARTESIAN_POINT('',(0.0301325,-0.008375,0.0075));
#1763=CARTESIAN_POINT('',(0.03137875,-0.0066875,0.0075));
#1764=CARTESIAN_POINT('',(0.031993,-0.005,0.0075));
#1765=CARTESIAN_POINT('',(0.031993,-0.005,0.0075));
#1766=CARTESIAN_POINT('',(0.03137875,-0.0066875,0.0075));
#1767=CARTESIAN_POINT('',(0.0324885,-0.005,0.0075));
#1768=CARTESIAN_POINT('',(0.032984,-0.005,0.0075));
#1769=CARTESIAN_POINT('',(0.032984,-0.005,0.0075));
#1770=CARTESIAN_POINT('',(0.0324885,-0.005,0.0075));
#1771=CARTESIAN_POINT('',(0.03359825,-0.0066875,0.0075));
#1772=CARTESIAN_POINT('',(0.0342125,-0.008375,0.0075));
#1773=CARTESIAN_POINT('',(0.0342125,-0.008375,0.0075));
#1774=CARTESIAN_POINT('',(0.03359825,-0.0066875,0.0075));
#1775=CARTESIAN_POINT('',(0.0348445,-0.008375,0.0075));
#1776=CARTESIAN_POINT('',(0.0354765,-0.008375,0.0075));
#1777=CARTESIAN_POINT('',(0.0354765,-0.008375,0.0075));
#1778=CARTESIAN_POINT('',(0.0348445,-0.008375,0.0075));
#1779=CARTESIAN_POINT('',(0.03609075,-0.0066875,0.0075));
#1780=CARTESIAN_POINT('',(0.036705,-0.005,0.0075));
#1781=CARTESIAN_POINT('',(0.036705,-0.005,0.0075));
#1782=CARTESIAN_POINT('',(0.03609075,-0.0066875,0.0075));
#1783=CARTESIAN_POINT('',(0.0372005,-0.005,0.0075));
#1784=CARTESIAN_POINT('',(0.037696,-0.005,0.0075));
#1785=CARTESIAN_POINT('',(0.037696,-0.005,0.0075));
#1786=CARTESIAN_POINT('',(0.0372005,-0.005,0.0075));
#1787=CARTESIAN_POINT('',(0.03831025,-0.0066875,0.0075));
#1788=CARTESIAN_POINT('',(0.0389245,-0.008375,0.0075));
#1789=CARTESIAN_POINT('',(0.0389245,-0.008375,0.0075));
#1790=CARTESIAN_POINT('',(0.03831025,-0.0066875,0.0075));
#1791=CARTESIAN_POINT('',(0.0395565,-0.008375,0.0075));
#1792=CARTESIAN_POINT('',(0.0401885,-0.008375,0.0075));
#1793=CARTESIAN_POINT('',(0.0401885,-0.008375,0.0075));
#1794=CARTESIAN_POINT('',(0.0395565,-0.008375,0.0075));
#1795=CARTESIAN_POINT('',(0.04080275,-0.0066875,0.0075));
#1796=CARTESIAN_POINT('',(0.041417,-0.005,0.0075));
#1797=CARTESIAN_POINT('',(0.041417,-0.005,0.0075));
#1798=CARTESIAN_POINT('',(0.04080275,-0.0066875,0.0075));
#1799=CARTESIAN_POINT('',(0.0419125,-0.005,0.0075));
#1800=CARTESIAN_POINT('',(0.042408,-0.005,0.0075));
#1801=CARTESIAN_POINT('',(0.042408,-0.005,0.0075));
#1802=CARTESIAN_POINT('',(0.0419125,-0.005,0.0075));
#1803=CARTESIAN_POINT('',(0.04302225,-0.0066875,0.0075));
#1804=CARTESIAN_POINT('',(0.0436365,-0.008375,0.0075));
#1805=CARTESIAN_POINT('',(0.0436365,-0.008375,0.0075));
#1806=CARTESIAN_POINT('',(0.04302225,-0.0066875,0.0075));
#1807=CARTESIAN_POINT('',(0.0442685,-0.008375,0.0075));
#1808=CARTESIAN_POINT('',(0.0449005,-0.008375,0.0075));
#1809=CARTESIAN_POINT('',(0.0449005,-0.008375,0.0075));
#1810=CARTESIAN_POINT('',(0.0442685,-0.008375,0.0075));
#1811=CARTESIAN_POINT('',(0.04551475,-0.0066875,0.0075));
#1812=CARTESIAN_POINT('',(0.046129,-0.005,0.0075));
#1813=CARTESIAN_POINT('',(0.046129,-0.005,0.0075));
#1814=CARTESIAN_POINT('',(0.04551475,-0.0066875,0.0075));
#1815=CARTESIAN_POINT('',(6.01853107621011E-35,-0.0025,0.0075));
#1816=CARTESIAN_POINT('',(-1.53080849893419E-19,-0.0516367513459481,0.0075));
#1817=CARTESIAN_POINT('',(3.00875826281574E-18,-0.0516367513459481,0.));
#1818=CARTESIAN_POINT('',(-1.53080849893419E-19,-0.0516367513459481,-0.005));
#1819=CARTESIAN_POINT('',(-9.75781955236954E-19,-0.0416367513459481,0.));
#1820=CARTESIAN_POINT('',(-9.75781955236954E-19,-0.0416367513459481,0.));
#1821=CARTESIAN_POINT('',(-9.75781955236954E-19,-0.0416367513459481,-0.005));
#1822=CARTESIAN_POINT('',(-9.75781955236954E-19,-0.01,-0.005));
#1823=CARTESIAN_POINT('',(-9.75781955236954E-19,-0.01,0.));
#1824=CARTESIAN_POINT('',(-9.75781955236954E-19,-0.01,0.));
#1825=CARTESIAN_POINT('',(-9.75781955236954E-19,-0.005,0.));
#1826=CARTESIAN_POINT('',(-9.75781955236954E-19,-0.005,0.0075));
#1827=CARTESIAN_POINT('',(-9.75781955236954E-19,-0.005,0.0075));
#1828=CARTESIAN_POINT('',(6.01853107621011E-35,-0.0025,0.0075));
#1829=CARTESIAN_POINT('',(-6.4798020464954E-20,-0.00144337567297406,-0.0075));
#1830=CARTESIAN_POINT('',(8.85149429880744E-20,-0.00288675134594813,-0.01));
#1831=CARTESIAN_POINT('',(8.85149429880744E-20,-0.00394337567297406,-0.01));
#1832=CARTESIAN_POINT('',(8.85149429880744E-20,-0.04875,-0.01));
#1833=CARTESIAN_POINT('',(-6.4798020464954E-20,-0.0501933756729741,-0.0075));
#1834=CARTESIAN_POINT('',(0.,-0.006,-0.005));
#1835=CARTESIAN_POINT('',(-9.18485099360516E-20,-0.0045,-0.005));
#1836=CARTESIAN_POINT('',(0.,-0.0456367513459481,-0.005));
#1837=CARTESIAN_POINT('',(-9.18485099360516E-20,-0.0471367513459481,-0.005));
#1838=CARTESIAN_POINT('',(0.00061425,-0.0066875,0.0075));
#1839=CARTESIAN_POINT('',(0.00061425,-0.0066875,0.));
#1840=CARTESIAN_POINT('',(0.0012285,-0.008375,0.));
#1841=CARTESIAN_POINT('',(0.0012285,-0.008375,0.0075));
#1842=CARTESIAN_POINT('',(0.0012285,-0.008375,0.0075));
#1843=CARTESIAN_POINT('',(0.00061425,-0.0066875,0.0075));
#1844=CARTESIAN_POINT('',(0.0018605,-0.008375,0.0075));
#1845=CARTESIAN_POINT('',(0.0018605,-0.008375,0.));
#1846=CARTESIAN_POINT('',(0.0018605,-0.008375,0.0075));
#1847=CARTESIAN_POINT('',(0.070685,-0.0041875,0.0075));
#1848=CARTESIAN_POINT('',(0.0461248423717879,-0.00434289733756338,0.0075));
#1849=CARTESIAN_POINT('',(0.0461750145990902,-0.0122724914375928,0.025));
#1850=CARTESIAN_POINT('',(0.018848,-0.0025,-0.005));
#1851=CARTESIAN_POINT('',(0.018848,-0.0416367513459481,-0.005));
#1852=CARTESIAN_POINT('',(0.018848,-0.0416367513459481,0.));
#1853=CARTESIAN_POINT('',(0.018848,-0.0416367513459481,0.));
#1854=CARTESIAN_POINT('',(0.018848,-0.0516367513459481,0.));
#1855=CARTESIAN_POINT('',(0.018848,-0.0516367513459481,-0.005));
#1856=CARTESIAN_POINT('',(0.018848,-0.0516367513459481,-0.005));
#1857=CARTESIAN_POINT('',(0.018848,-0.0501933756729741,-0.0075));
#1858=CARTESIAN_POINT('',(0.018848,-0.04875,-0.01));
#1859=CARTESIAN_POINT('',(0.018848,-0.04875,-0.005));
#1860=CARTESIAN_POINT('',(0.018848,-0.04875,-0.0265034037502446));
#1861=CARTESIAN_POINT('',(0.018848,-0.00288475134594813,-0.0265034037502446));
#1862=CARTESIAN_POINT('',(0.018848,-0.00288675134594813,-0.0265034037502446));
#1863=CARTESIAN_POINT('',(0.018848,-0.00288675134594813,-0.0182517018751223));
#1864=CARTESIAN_POINT('',(0.018848,-0.00288675134594813,-0.01));
#1865=CARTESIAN_POINT('',(0.018848,-0.00144337567297406,-0.0075));
#1866=CARTESIAN_POINT('',(0.018848,-0.01,0.));
#1867=CARTESIAN_POINT('',(0.018848,-0.01,0.));
#1868=CARTESIAN_POINT('',(0.018848,-0.01,-0.005));
#1869=CARTESIAN_POINT('',(0.018848,-0.0456367513459481,-0.005));
#1870=CARTESIAN_POINT('',(0.018848,-0.0456367513459481,-0.0065));
#1871=CARTESIAN_POINT('',(0.018848,-0.006,-0.005));
#1872=CARTESIAN_POINT('',(0.018848,-0.006,-0.0065));
#1873=CARTESIAN_POINT('',(-1.99999999999853E-6,-0.00144337567297406,-0.0075));
#1874=CARTESIAN_POINT('',(-1.99999999999853E-6,-0.00288675134594813,-0.01));
#1875=CARTESIAN_POINT('',(0.009424,-0.01,0.));
#1876=CARTESIAN_POINT('',(0.009424,-0.01,0.));
#1877=CARTESIAN_POINT('',(0.009424,-0.01,-0.00125));
#1878=CARTESIAN_POINT('',(-0.006152,-0.006,-0.005));
#1879=CARTESIAN_POINT('',(0.009424,-0.04875,-0.005));
#1880=CARTESIAN_POINT('',(-1.99999999999853E-6,-0.04875,-0.01));
#1881=CARTESIAN_POINT('',(0.006924,-0.04875,-0.0182517018751223));
#1882=CARTESIAN_POINT('',(0.013848,-0.04875,-0.0265034037502446));
#1883=CARTESIAN_POINT('',(0.016348,-0.04875,-0.0265034037502446));
#1884=CARTESIAN_POINT('',(0.006924,-0.00288475134594813,-0.0182517018751223));
#1885=CARTESIAN_POINT('',(0.006924,-0.00288675134594813,-0.0182517018751223));
#1886=CARTESIAN_POINT('',(0.013848,-0.00288675134594813,-0.0265034037502446));
#1887=CARTESIAN_POINT('',(0.013848,-0.00288475134594813,-0.0265034037502446));
#1888=CARTESIAN_POINT('',(0.016348,-0.00288475134594813,-0.0265034037502446));
#1889=CARTESIAN_POINT('',(0.016348,-0.00288675134594813,-0.0265034037502446));
#1890=CARTESIAN_POINT('',(0.0125653333333333,-0.00288675134594813,-0.00666666666666667));
#1891=CARTESIAN_POINT('',(0.070685,-0.0516367513459481,0.0075));
#1892=CARTESIAN_POINT('',(0.070685,-0.0516367513459481,0.));
#1893=CARTESIAN_POINT('',(0.070685,-0.0516367513459481,-0.005));
#1894=CARTESIAN_POINT('',(-1.99999999999853E-6,-0.0501933756729741,-0.0075));
#1895=CARTESIAN_POINT('',(0.009424,-0.0416367513459481,0.));
#1896=CARTESIAN_POINT('',(0.009424,-0.0416367513459481,0.));
#1897=CARTESIAN_POINT('',(0.009424,-0.0416367513459481,-0.00125));
#1898=CARTESIAN_POINT('',(-0.006152,-0.0456367513459481,-0.005));
#1899=MECHANICAL_DESIGN_GEOMETRIC_PRESENTATION_REPRESENTATION('',(#1200),
#1900);
#1900=(
GEOMETRIC_REPRESENTATION_CONTEXT(3)
GLOBAL_UNCERTAINTY_ASSIGNED_CONTEXT((#1901))
GLOBAL_UNIT_ASSIGNED_CONTEXT((#1904,#1903,#1902))
REPRESENTATION_CONTEXT('Part 9','TOP_LEVEL_ASSEMBLY_PART')
);
#1901=UNCERTAINTY_MEASURE_WITH_UNIT(LENGTH_MEASURE(1.E-8),#1904,
'DISTANCE_ACCURACY_VALUE','Maximum Tolerance applied to model');
#1902=(
NAMED_UNIT(*)
SI_UNIT($,.STERADIAN.)
SOLID_ANGLE_UNIT()
);
#1903=(
NAMED_UNIT(*)
PLANE_ANGLE_UNIT()
SI_UNIT($,.RADIAN.)
);
#1904=(
LENGTH_UNIT()
NAMED_UNIT(*)
SI_UNIT($,.METRE.)
);
#1905=PRODUCT_DEFINITION_SHAPE('','',#1906);
#1906=PRODUCT_DEFINITION('','',#1908,#1907);
#1907=PRODUCT_DEFINITION_CONTEXT('',#1914,'design');
#1908=PRODUCT_DEFINITION_FORMATION_WITH_SPECIFIED_SOURCE('','',#1910,
 .NOT_KNOWN.);
#1909=PRODUCT_RELATED_PRODUCT_CATEGORY('','',(#1910));
#1910=PRODUCT('Part 9','Part 9','Part 9',(#1912));
#1911=PRODUCT_CATEGORY('','');
#1912=PRODUCT_CONTEXT('',#1914,'mechanical');
#1913=APPLICATION_PROTOCOL_DEFINITION('international standard',
'automotive_design',2010,#1914);
#1914=APPLICATION_CONTEXT(
'core data for automotive mechanical design processes');
ENDSEC;
END-ISO-10303-21;
