ISO-10303-21;
HEADER;
/* Generated by software containing ST-Developer
 * from STEP Tools, Inc. (www.steptools.com) 
 */
/* OPTION: using custom renumber hook */

FILE_DESCRIPTION(
/* description */ ('STEP AP214',
'CAx-IF Rec.Pracs.---User Defined Attributes---1.5---2016-08-15'),
/* implementation_level */ '2;1');

FILE_NAME(
/* name */ 'Base turn - Part 1',
/* time_stamp */ '2026-05-17T02:39:04Z',
/* author */ (''),
/* organization */ (''),
/* preprocessor_version */ 'ST-DEVELOPER v20',
/* originating_system */ 'ONSHAPE BY PTC INC, 1.215',
/* authorisation */ '  ');

FILE_SCHEMA (('AUTOMOTIVE_DESIGN {1 0 10303 214 3 1 1}'));
ENDSEC;

DATA;
#10=PROPERTY_DEFINITION_REPRESENTATION(#14,#12);
#11=PROPERTY_DEFINITION_REPRESENTATION(#15,#13);
#12=REPRESENTATION('',(#16),#651);
#13=REPRESENTATION('',(#17),#651);
#14=PROPERTY_DEFINITION('pmi validation property','',#656);
#15=PROPERTY_DEFINITION('pmi validation property','',#656);
#16=VALUE_REPRESENTATION_ITEM('number of annotations',COUNT_MEASURE(0.));
#17=VALUE_REPRESENTATION_ITEM('number of views',COUNT_MEASURE(0.));
#18=SHAPE_REPRESENTATION_RELATIONSHIP('','',#391,#19);
#19=ADVANCED_BREP_SHAPE_REPRESENTATION('',(#389),#651);
#20=CONICAL_SURFACE('',#420,0.00336,0.785398163397448);
#21=CONICAL_SURFACE('',#423,0.00336,0.785398163397448);
#22=CONICAL_SURFACE('',#426,0.00336,0.785398163397448);
#23=CONICAL_SURFACE('',#429,0.00336,0.785398163397448);
#24=CONICAL_SURFACE('',#432,0.00225,0.785398163397449);
#25=CONICAL_SURFACE('',#435,0.00225,0.785398163397449);
#26=CONICAL_SURFACE('',#438,0.00225,0.785398163397449);
#27=CONICAL_SURFACE('',#441,0.00225,0.785398163397449);
#28=CIRCLE('',#397,0.005);
#29=CIRCLE('',#398,0.005);
#30=CIRCLE('',#401,0.0011);
#31=CIRCLE('',#402,0.0011);
#32=CIRCLE('',#403,0.0011);
#33=CIRCLE('',#404,0.0011);
#34=CIRCLE('',#405,0.0016);
#35=CIRCLE('',#406,0.0016);
#36=CIRCLE('',#407,0.0016);
#37=CIRCLE('',#408,0.0016);
#38=CIRCLE('',#410,0.00225);
#39=CIRCLE('',#411,0.00225);
#40=CIRCLE('',#412,0.00225);
#41=CIRCLE('',#413,0.00225);
#42=CIRCLE('',#414,0.00336);
#43=CIRCLE('',#415,0.00336);
#44=CIRCLE('',#416,0.00336);
#45=CIRCLE('',#417,0.00336);
#46=CIRCLE('',#419,0.0016);
#47=CIRCLE('',#422,0.0016);
#48=CIRCLE('',#425,0.0016);
#49=CIRCLE('',#428,0.0016);
#50=CIRCLE('',#431,0.0011);
#51=CIRCLE('',#434,0.0011);
#52=CIRCLE('',#437,0.0011);
#53=CIRCLE('',#440,0.0011);
#54=CYLINDRICAL_SURFACE('',#396,0.005);
#55=CYLINDRICAL_SURFACE('',#418,0.0016);
#56=CYLINDRICAL_SURFACE('',#421,0.0016);
#57=CYLINDRICAL_SURFACE('',#424,0.0016);
#58=CYLINDRICAL_SURFACE('',#427,0.0016);
#59=CYLINDRICAL_SURFACE('',#430,0.0011);
#60=CYLINDRICAL_SURFACE('',#433,0.0011);
#61=CYLINDRICAL_SURFACE('',#436,0.0011);
#62=CYLINDRICAL_SURFACE('',#439,0.0011);
#63=ORIENTED_EDGE('',*,*,#139,.T.);
#64=ORIENTED_EDGE('',*,*,#140,.F.);
#65=ORIENTED_EDGE('',*,*,#141,.F.);
#66=ORIENTED_EDGE('',*,*,#142,.T.);
#67=ORIENTED_EDGE('',*,*,#143,.T.);
#68=ORIENTED_EDGE('',*,*,#144,.F.);
#69=ORIENTED_EDGE('',*,*,#145,.F.);
#70=ORIENTED_EDGE('',*,*,#140,.T.);
#71=ORIENTED_EDGE('',*,*,#146,.F.);
#72=ORIENTED_EDGE('',*,*,#147,.F.);
#73=ORIENTED_EDGE('',*,*,#148,.T.);
#74=ORIENTED_EDGE('',*,*,#144,.T.);
#75=ORIENTED_EDGE('',*,*,#149,.T.);
#76=ORIENTED_EDGE('',*,*,#150,.F.);
#77=ORIENTED_EDGE('',*,*,#151,.F.);
#78=ORIENTED_EDGE('',*,*,#142,.F.);
#79=ORIENTED_EDGE('',*,*,#152,.T.);
#80=ORIENTED_EDGE('',*,*,#147,.T.);
#81=ORIENTED_EDGE('',*,*,#153,.T.);
#82=ORIENTED_EDGE('',*,*,#154,.T.);
#83=ORIENTED_EDGE('',*,*,#155,.T.);
#84=ORIENTED_EDGE('',*,*,#156,.T.);
#85=ORIENTED_EDGE('',*,*,#157,.T.);
#86=ORIENTED_EDGE('',*,*,#158,.T.);
#87=ORIENTED_EDGE('',*,*,#159,.T.);
#88=ORIENTED_EDGE('',*,*,#160,.T.);
#89=ORIENTED_EDGE('',*,*,#149,.F.);
#90=ORIENTED_EDGE('',*,*,#141,.T.);
#91=ORIENTED_EDGE('',*,*,#145,.T.);
#92=ORIENTED_EDGE('',*,*,#148,.F.);
#93=ORIENTED_EDGE('',*,*,#152,.F.);
#94=ORIENTED_EDGE('',*,*,#161,.T.);
#95=ORIENTED_EDGE('',*,*,#162,.T.);
#96=ORIENTED_EDGE('',*,*,#163,.T.);
#97=ORIENTED_EDGE('',*,*,#164,.T.);
#98=ORIENTED_EDGE('',*,*,#165,.T.);
#99=ORIENTED_EDGE('',*,*,#166,.T.);
#100=ORIENTED_EDGE('',*,*,#167,.T.);
#101=ORIENTED_EDGE('',*,*,#168,.T.);
#102=ORIENTED_EDGE('',*,*,#150,.T.);
#103=ORIENTED_EDGE('',*,*,#139,.F.);
#104=ORIENTED_EDGE('',*,*,#151,.T.);
#105=ORIENTED_EDGE('',*,*,#146,.T.);
#106=ORIENTED_EDGE('',*,*,#143,.F.);
#107=ORIENTED_EDGE('',*,*,#160,.F.);
#108=ORIENTED_EDGE('',*,*,#169,.F.);
#109=ORIENTED_EDGE('',*,*,#169,.T.);
#110=ORIENTED_EDGE('',*,*,#168,.F.);
#111=ORIENTED_EDGE('',*,*,#159,.F.);
#112=ORIENTED_EDGE('',*,*,#170,.F.);
#113=ORIENTED_EDGE('',*,*,#170,.T.);
#114=ORIENTED_EDGE('',*,*,#167,.F.);
#115=ORIENTED_EDGE('',*,*,#158,.F.);
#116=ORIENTED_EDGE('',*,*,#171,.F.);
#117=ORIENTED_EDGE('',*,*,#171,.T.);
#118=ORIENTED_EDGE('',*,*,#166,.F.);
#119=ORIENTED_EDGE('',*,*,#157,.F.);
#120=ORIENTED_EDGE('',*,*,#172,.F.);
#121=ORIENTED_EDGE('',*,*,#172,.T.);
#122=ORIENTED_EDGE('',*,*,#165,.F.);
#123=ORIENTED_EDGE('',*,*,#156,.F.);
#124=ORIENTED_EDGE('',*,*,#173,.F.);
#125=ORIENTED_EDGE('',*,*,#173,.T.);
#126=ORIENTED_EDGE('',*,*,#164,.F.);
#127=ORIENTED_EDGE('',*,*,#155,.F.);
#128=ORIENTED_EDGE('',*,*,#174,.F.);
#129=ORIENTED_EDGE('',*,*,#174,.T.);
#130=ORIENTED_EDGE('',*,*,#163,.F.);
#131=ORIENTED_EDGE('',*,*,#154,.F.);
#132=ORIENTED_EDGE('',*,*,#175,.F.);
#133=ORIENTED_EDGE('',*,*,#175,.T.);
#134=ORIENTED_EDGE('',*,*,#162,.F.);
#135=ORIENTED_EDGE('',*,*,#153,.F.);
#136=ORIENTED_EDGE('',*,*,#176,.F.);
#137=ORIENTED_EDGE('',*,*,#176,.T.);
#138=ORIENTED_EDGE('',*,*,#161,.F.);
#139=EDGE_CURVE('',#177,#178,#211,.T.);
#140=EDGE_CURVE('',#179,#178,#212,.T.);
#141=EDGE_CURVE('',#180,#179,#213,.T.);
#142=EDGE_CURVE('',#180,#177,#214,.T.);
#143=EDGE_CURVE('',#178,#181,#215,.T.);
#144=EDGE_CURVE('',#182,#181,#216,.T.);
#145=EDGE_CURVE('',#179,#182,#217,.T.);
#146=EDGE_CURVE('',#183,#181,#218,.T.);
#147=EDGE_CURVE('',#184,#183,#219,.T.);
#148=EDGE_CURVE('',#184,#182,#220,.T.);
#149=EDGE_CURVE('',#185,#185,#28,.T.);
#150=EDGE_CURVE('',#186,#186,#29,.T.);
#151=EDGE_CURVE('',#177,#183,#221,.T.);
#152=EDGE_CURVE('',#180,#184,#222,.T.);
#153=EDGE_CURVE('',#187,#187,#30,.F.);
#154=EDGE_CURVE('',#188,#188,#31,.F.);
#155=EDGE_CURVE('',#189,#189,#32,.F.);
#156=EDGE_CURVE('',#190,#190,#33,.F.);
#157=EDGE_CURVE('',#191,#191,#34,.F.);
#158=EDGE_CURVE('',#192,#192,#35,.F.);
#159=EDGE_CURVE('',#193,#193,#36,.F.);
#160=EDGE_CURVE('',#194,#194,#37,.F.);
#161=EDGE_CURVE('',#195,#195,#38,.T.);
#162=EDGE_CURVE('',#196,#196,#39,.T.);
#163=EDGE_CURVE('',#197,#197,#40,.T.);
#164=EDGE_CURVE('',#198,#198,#41,.T.);
#165=EDGE_CURVE('',#199,#199,#42,.T.);
#166=EDGE_CURVE('',#200,#200,#43,.T.);
#167=EDGE_CURVE('',#201,#201,#44,.T.);
#168=EDGE_CURVE('',#202,#202,#45,.T.);
#169=EDGE_CURVE('',#203,#203,#46,.T.);
#170=EDGE_CURVE('',#204,#204,#47,.T.);
#171=EDGE_CURVE('',#205,#205,#48,.T.);
#172=EDGE_CURVE('',#206,#206,#49,.T.);
#173=EDGE_CURVE('',#207,#207,#50,.T.);
#174=EDGE_CURVE('',#208,#208,#51,.T.);
#175=EDGE_CURVE('',#209,#209,#52,.T.);
#176=EDGE_CURVE('',#210,#210,#53,.T.);
#177=VERTEX_POINT('',#557);
#178=VERTEX_POINT('',#558);
#179=VERTEX_POINT('',#560);
#180=VERTEX_POINT('',#562);
#181=VERTEX_POINT('',#566);
#182=VERTEX_POINT('',#568);
#183=VERTEX_POINT('',#572);
#184=VERTEX_POINT('',#574);
#185=VERTEX_POINT('',#578);
#186=VERTEX_POINT('',#580);
#187=VERTEX_POINT('',#586);
#188=VERTEX_POINT('',#588);
#189=VERTEX_POINT('',#590);
#190=VERTEX_POINT('',#592);
#191=VERTEX_POINT('',#594);
#192=VERTEX_POINT('',#596);
#193=VERTEX_POINT('',#598);
#194=VERTEX_POINT('',#600);
#195=VERTEX_POINT('',#603);
#196=VERTEX_POINT('',#605);
#197=VERTEX_POINT('',#607);
#198=VERTEX_POINT('',#609);
#199=VERTEX_POINT('',#611);
#200=VERTEX_POINT('',#613);
#201=VERTEX_POINT('',#615);
#202=VERTEX_POINT('',#617);
#203=VERTEX_POINT('',#620);
#204=VERTEX_POINT('',#624);
#205=VERTEX_POINT('',#628);
#206=VERTEX_POINT('',#632);
#207=VERTEX_POINT('',#636);
#208=VERTEX_POINT('',#640);
#209=VERTEX_POINT('',#644);
#210=VERTEX_POINT('',#648);
#211=LINE('',#556,#223);
#212=LINE('',#559,#224);
#213=LINE('',#561,#225);
#214=LINE('',#563,#226);
#215=LINE('',#565,#227);
#216=LINE('',#567,#228);
#217=LINE('',#569,#229);
#218=LINE('',#571,#230);
#219=LINE('',#573,#231);
#220=LINE('',#575,#232);
#221=LINE('',#582,#233);
#222=LINE('',#583,#234);
#223=VECTOR('',#446,1.);
#224=VECTOR('',#447,1.);
#225=VECTOR('',#448,1.);
#226=VECTOR('',#449,1.);
#227=VECTOR('',#452,1.);
#228=VECTOR('',#453,1.);
#229=VECTOR('',#454,1.);
#230=VECTOR('',#457,1.);
#231=VECTOR('',#458,1.);
#232=VECTOR('',#459,1.);
#233=VECTOR('',#468,1.);
#234=VECTOR('',#469,1.);
#235=EDGE_LOOP('',(#63,#64,#65,#66));
#236=EDGE_LOOP('',(#67,#68,#69,#70));
#237=EDGE_LOOP('',(#71,#72,#73,#74));
#238=EDGE_LOOP('',(#75));
#239=EDGE_LOOP('',(#76));
#240=EDGE_LOOP('',(#77,#78,#79,#80));
#241=EDGE_LOOP('',(#81));
#242=EDGE_LOOP('',(#82));
#243=EDGE_LOOP('',(#83));
#244=EDGE_LOOP('',(#84));
#245=EDGE_LOOP('',(#85));
#246=EDGE_LOOP('',(#86));
#247=EDGE_LOOP('',(#87));
#248=EDGE_LOOP('',(#88));
#249=EDGE_LOOP('',(#89));
#250=EDGE_LOOP('',(#90,#91,#92,#93));
#251=EDGE_LOOP('',(#94));
#252=EDGE_LOOP('',(#95));
#253=EDGE_LOOP('',(#96));
#254=EDGE_LOOP('',(#97));
#255=EDGE_LOOP('',(#98));
#256=EDGE_LOOP('',(#99));
#257=EDGE_LOOP('',(#100));
#258=EDGE_LOOP('',(#101));
#259=EDGE_LOOP('',(#102));
#260=EDGE_LOOP('',(#103,#104,#105,#106));
#261=EDGE_LOOP('',(#107));
#262=EDGE_LOOP('',(#108));
#263=EDGE_LOOP('',(#109));
#264=EDGE_LOOP('',(#110));
#265=EDGE_LOOP('',(#111));
#266=EDGE_LOOP('',(#112));
#267=EDGE_LOOP('',(#113));
#268=EDGE_LOOP('',(#114));
#269=EDGE_LOOP('',(#115));
#270=EDGE_LOOP('',(#116));
#271=EDGE_LOOP('',(#117));
#272=EDGE_LOOP('',(#118));
#273=EDGE_LOOP('',(#119));
#274=EDGE_LOOP('',(#120));
#275=EDGE_LOOP('',(#121));
#276=EDGE_LOOP('',(#122));
#277=EDGE_LOOP('',(#123));
#278=EDGE_LOOP('',(#124));
#279=EDGE_LOOP('',(#125));
#280=EDGE_LOOP('',(#126));
#281=EDGE_LOOP('',(#127));
#282=EDGE_LOOP('',(#128));
#283=EDGE_LOOP('',(#129));
#284=EDGE_LOOP('',(#130));
#285=EDGE_LOOP('',(#131));
#286=EDGE_LOOP('',(#132));
#287=EDGE_LOOP('',(#133));
#288=EDGE_LOOP('',(#134));
#289=EDGE_LOOP('',(#135));
#290=EDGE_LOOP('',(#136));
#291=EDGE_LOOP('',(#137));
#292=EDGE_LOOP('',(#138));
#293=FACE_BOUND('',#235,.T.);
#294=FACE_BOUND('',#236,.T.);
#295=FACE_BOUND('',#237,.T.);
#296=FACE_BOUND('',#238,.T.);
#297=FACE_BOUND('',#239,.T.);
#298=FACE_BOUND('',#240,.T.);
#299=FACE_BOUND('',#241,.T.);
#300=FACE_BOUND('',#242,.T.);
#301=FACE_BOUND('',#243,.T.);
#302=FACE_BOUND('',#244,.T.);
#303=FACE_BOUND('',#245,.T.);
#304=FACE_BOUND('',#246,.T.);
#305=FACE_BOUND('',#247,.T.);
#306=FACE_BOUND('',#248,.T.);
#307=FACE_BOUND('',#249,.T.);
#308=FACE_BOUND('',#250,.T.);
#309=FACE_BOUND('',#251,.T.);
#310=FACE_BOUND('',#252,.T.);
#311=FACE_BOUND('',#253,.T.);
#312=FACE_BOUND('',#254,.T.);
#313=FACE_BOUND('',#255,.T.);
#314=FACE_BOUND('',#256,.T.);
#315=FACE_BOUND('',#257,.T.);
#316=FACE_BOUND('',#258,.T.);
#317=FACE_BOUND('',#259,.T.);
#318=FACE_BOUND('',#260,.T.);
#319=FACE_BOUND('',#261,.T.);
#320=FACE_BOUND('',#262,.T.);
#321=FACE_BOUND('',#263,.T.);
#322=FACE_BOUND('',#264,.T.);
#323=FACE_BOUND('',#265,.T.);
#324=FACE_BOUND('',#266,.T.);
#325=FACE_BOUND('',#267,.T.);
#326=FACE_BOUND('',#268,.T.);
#327=FACE_BOUND('',#269,.T.);
#328=FACE_BOUND('',#270,.T.);
#329=FACE_BOUND('',#271,.T.);
#330=FACE_BOUND('',#272,.T.);
#331=FACE_BOUND('',#273,.T.);
#332=FACE_BOUND('',#274,.T.);
#333=FACE_BOUND('',#275,.T.);
#334=FACE_BOUND('',#276,.T.);
#335=FACE_BOUND('',#277,.T.);
#336=FACE_BOUND('',#278,.T.);
#337=FACE_BOUND('',#279,.T.);
#338=FACE_BOUND('',#280,.T.);
#339=FACE_BOUND('',#281,.T.);
#340=FACE_BOUND('',#282,.T.);
#341=FACE_BOUND('',#283,.T.);
#342=FACE_BOUND('',#284,.T.);
#343=FACE_BOUND('',#285,.T.);
#344=FACE_BOUND('',#286,.T.);
#345=FACE_BOUND('',#287,.T.);
#346=FACE_BOUND('',#288,.T.);
#347=FACE_BOUND('',#289,.T.);
#348=FACE_BOUND('',#290,.T.);
#349=FACE_BOUND('',#291,.T.);
#350=FACE_BOUND('',#292,.T.);
#351=PLANE('',#393);
#352=PLANE('',#394);
#353=PLANE('',#395);
#354=PLANE('',#399);
#355=PLANE('',#400);
#356=PLANE('',#409);
#357=ADVANCED_FACE('',(#293),#351,.F.);
#358=ADVANCED_FACE('',(#294),#352,.F.);
#359=ADVANCED_FACE('',(#295),#353,.T.);
#360=ADVANCED_FACE('',(#296,#297),#54,.F.);
#361=ADVANCED_FACE('',(#298),#354,.T.);
#362=ADVANCED_FACE('',(#299,#300,#301,#302,#303,#304,#305,#306,#307,#308),
#355,.T.);
#363=ADVANCED_FACE('',(#309,#310,#311,#312,#313,#314,#315,#316,#317,#318),
#356,.F.);
#364=ADVANCED_FACE('',(#319,#320),#55,.F.);
#365=ADVANCED_FACE('',(#321,#322),#20,.F.);
#366=ADVANCED_FACE('',(#323,#324),#56,.F.);
#367=ADVANCED_FACE('',(#325,#326),#21,.F.);
#368=ADVANCED_FACE('',(#327,#328),#57,.F.);
#369=ADVANCED_FACE('',(#329,#330),#22,.F.);
#370=ADVANCED_FACE('',(#331,#332),#58,.F.);
#371=ADVANCED_FACE('',(#333,#334),#23,.F.);
#372=ADVANCED_FACE('',(#335,#336),#59,.F.);
#373=ADVANCED_FACE('',(#337,#338),#24,.F.);
#374=ADVANCED_FACE('',(#339,#340),#60,.F.);
#375=ADVANCED_FACE('',(#341,#342),#25,.F.);
#376=ADVANCED_FACE('',(#343,#344),#61,.F.);
#377=ADVANCED_FACE('',(#345,#346),#26,.F.);
#378=ADVANCED_FACE('',(#347,#348),#62,.F.);
#379=ADVANCED_FACE('',(#349,#350),#27,.F.);
#380=CLOSED_SHELL('',(#357,#358,#359,#360,#361,#362,#363,#364,#365,#366,
#367,#368,#369,#370,#371,#372,#373,#374,#375,#376,#377,#378,#379));
#381=STYLED_ITEM('',(#382),#389);
#382=PRESENTATION_STYLE_ASSIGNMENT((#383));
#383=SURFACE_STYLE_USAGE(.BOTH.,#384);
#384=SURFACE_SIDE_STYLE('',(#385));
#385=SURFACE_STYLE_FILL_AREA(#386);
#386=FILL_AREA_STYLE('',(#387));
#387=FILL_AREA_STYLE_COLOUR('',#388);
#388=COLOUR_RGB('',0.615686274509804,0.811764705882353,0.929411764705882);
#389=MANIFOLD_SOLID_BREP('Part 1',#380);
#390=SHAPE_DEFINITION_REPRESENTATION(#656,#391);
#391=SHAPE_REPRESENTATION('Part 1',(#392),#651);
#392=AXIS2_PLACEMENT_3D('',#554,#442,#443);
#393=AXIS2_PLACEMENT_3D('',#555,#444,#445);
#394=AXIS2_PLACEMENT_3D('',#564,#450,#451);
#395=AXIS2_PLACEMENT_3D('',#570,#455,#456);
#396=AXIS2_PLACEMENT_3D('',#576,#460,#461);
#397=AXIS2_PLACEMENT_3D('',#577,#462,#463);
#398=AXIS2_PLACEMENT_3D('',#579,#464,#465);
#399=AXIS2_PLACEMENT_3D('',#581,#466,#467);
#400=AXIS2_PLACEMENT_3D('',#584,#470,#471);
#401=AXIS2_PLACEMENT_3D('',#585,#472,#473);
#402=AXIS2_PLACEMENT_3D('',#587,#474,#475);
#403=AXIS2_PLACEMENT_3D('',#589,#476,#477);
#404=AXIS2_PLACEMENT_3D('',#591,#478,#479);
#405=AXIS2_PLACEMENT_3D('',#593,#480,#481);
#406=AXIS2_PLACEMENT_3D('',#595,#482,#483);
#407=AXIS2_PLACEMENT_3D('',#597,#484,#485);
#408=AXIS2_PLACEMENT_3D('',#599,#486,#487);
#409=AXIS2_PLACEMENT_3D('',#601,#488,#489);
#410=AXIS2_PLACEMENT_3D('',#602,#490,#491);
#411=AXIS2_PLACEMENT_3D('',#604,#492,#493);
#412=AXIS2_PLACEMENT_3D('',#606,#494,#495);
#413=AXIS2_PLACEMENT_3D('',#608,#496,#497);
#414=AXIS2_PLACEMENT_3D('',#610,#498,#499);
#415=AXIS2_PLACEMENT_3D('',#612,#500,#501);
#416=AXIS2_PLACEMENT_3D('',#614,#502,#503);
#417=AXIS2_PLACEMENT_3D('',#616,#504,#505);
#418=AXIS2_PLACEMENT_3D('',#618,#506,#507);
#419=AXIS2_PLACEMENT_3D('',#619,#508,#509);
#420=AXIS2_PLACEMENT_3D('',#621,#510,#511);
#421=AXIS2_PLACEMENT_3D('',#622,#512,#513);
#422=AXIS2_PLACEMENT_3D('',#623,#514,#515);
#423=AXIS2_PLACEMENT_3D('',#625,#516,#517);
#424=AXIS2_PLACEMENT_3D('',#626,#518,#519);
#425=AXIS2_PLACEMENT_3D('',#627,#520,#521);
#426=AXIS2_PLACEMENT_3D('',#629,#522,#523);
#427=AXIS2_PLACEMENT_3D('',#630,#524,#525);
#428=AXIS2_PLACEMENT_3D('',#631,#526,#527);
#429=AXIS2_PLACEMENT_3D('',#633,#528,#529);
#430=AXIS2_PLACEMENT_3D('',#634,#530,#531);
#431=AXIS2_PLACEMENT_3D('',#635,#532,#533);
#432=AXIS2_PLACEMENT_3D('',#637,#534,#535);
#433=AXIS2_PLACEMENT_3D('',#638,#536,#537);
#434=AXIS2_PLACEMENT_3D('',#639,#538,#539);
#435=AXIS2_PLACEMENT_3D('',#641,#540,#541);
#436=AXIS2_PLACEMENT_3D('',#642,#542,#543);
#437=AXIS2_PLACEMENT_3D('',#643,#544,#545);
#438=AXIS2_PLACEMENT_3D('',#645,#546,#547);
#439=AXIS2_PLACEMENT_3D('',#646,#548,#549);
#440=AXIS2_PLACEMENT_3D('',#647,#550,#551);
#441=AXIS2_PLACEMENT_3D('',#649,#552,#553);
#442=DIRECTION('',(0.,0.,1.));
#443=DIRECTION('',(1.,0.,0.));
#444=DIRECTION('',(1.37950177016048E-16,-1.,0.));
#445=DIRECTION('',(1.,1.37950177016048E-16,0.));
#446=DIRECTION('',(-1.,-1.37950177016048E-16,0.));
#447=DIRECTION('',(0.,0.,-1.));
#448=DIRECTION('',(-1.,-1.37950177016048E-16,0.));
#449=DIRECTION('',(0.,0.,-1.));
#450=DIRECTION('',(1.,0.,0.));
#451=DIRECTION('',(0.,0.,-1.));
#452=DIRECTION('',(0.,-1.,0.));
#453=DIRECTION('',(0.,0.,-1.));
#454=DIRECTION('',(0.,-1.,0.));
#455=DIRECTION('',(1.37950177016048E-16,-1.,0.));
#456=DIRECTION('',(1.,1.37950177016048E-16,0.));
#457=DIRECTION('',(-1.,-1.37950177016048E-16,0.));
#458=DIRECTION('',(0.,0.,-1.));
#459=DIRECTION('',(-1.,-1.37950177016048E-16,0.));
#460=DIRECTION('',(0.,0.,-1.));
#461=DIRECTION('',(-1.,0.,0.));
#462=DIRECTION('',(0.,0.,1.));
#463=DIRECTION('',(1.,0.,0.));
#464=DIRECTION('',(0.,0.,1.));
#465=DIRECTION('',(1.,0.,0.));
#466=DIRECTION('',(1.,0.,0.));
#467=DIRECTION('',(0.,0.,-1.));
#468=DIRECTION('',(0.,-1.,0.));
#469=DIRECTION('',(0.,-1.,0.));
#470=DIRECTION('',(0.,0.,1.));
#471=DIRECTION('',(1.,0.,0.));
#472=DIRECTION('',(0.,0.,1.));
#473=DIRECTION('',(1.,0.,0.));
#474=DIRECTION('',(0.,0.,1.));
#475=DIRECTION('',(1.,0.,0.));
#476=DIRECTION('',(0.,0.,1.));
#477=DIRECTION('',(1.,0.,0.));
#478=DIRECTION('',(0.,0.,1.));
#479=DIRECTION('',(1.,0.,0.));
#480=DIRECTION('',(0.,0.,1.));
#481=DIRECTION('',(1.,0.,0.));
#482=DIRECTION('',(0.,0.,1.));
#483=DIRECTION('',(1.,0.,0.));
#484=DIRECTION('',(0.,0.,1.));
#485=DIRECTION('',(1.,0.,0.));
#486=DIRECTION('',(0.,0.,1.));
#487=DIRECTION('',(1.,0.,0.));
#488=DIRECTION('',(0.,0.,1.));
#489=DIRECTION('',(1.,0.,0.));
#490=DIRECTION('',(0.,0.,1.));
#491=DIRECTION('',(1.,0.,0.));
#492=DIRECTION('',(0.,0.,1.));
#493=DIRECTION('',(1.,0.,0.));
#494=DIRECTION('',(0.,0.,1.));
#495=DIRECTION('',(1.,0.,0.));
#496=DIRECTION('',(0.,0.,1.));
#497=DIRECTION('',(1.,0.,0.));
#498=DIRECTION('',(0.,0.,1.));
#499=DIRECTION('',(1.,0.,0.));
#500=DIRECTION('',(0.,0.,1.));
#501=DIRECTION('',(1.,0.,0.));
#502=DIRECTION('',(0.,0.,1.));
#503=DIRECTION('',(1.,0.,0.));
#504=DIRECTION('',(0.,0.,1.));
#505=DIRECTION('',(1.,0.,0.));
#506=DIRECTION('',(0.,0.,1.));
#507=DIRECTION('',(1.,0.,0.));
#508=DIRECTION('',(0.,0.,1.));
#509=DIRECTION('',(1.,0.,0.));
#510=DIRECTION('',(0.,0.,-1.));
#511=DIRECTION('',(-1.,0.,0.));
#512=DIRECTION('',(0.,0.,1.));
#513=DIRECTION('',(1.,0.,0.));
#514=DIRECTION('',(0.,0.,1.));
#515=DIRECTION('',(1.,0.,0.));
#516=DIRECTION('',(0.,0.,-1.));
#517=DIRECTION('',(-1.,0.,0.));
#518=DIRECTION('',(0.,0.,1.));
#519=DIRECTION('',(1.,0.,0.));
#520=DIRECTION('',(0.,0.,1.));
#521=DIRECTION('',(1.,0.,0.));
#522=DIRECTION('',(0.,0.,-1.));
#523=DIRECTION('',(-1.,0.,0.));
#524=DIRECTION('',(0.,0.,1.));
#525=DIRECTION('',(1.,0.,0.));
#526=DIRECTION('',(0.,0.,1.));
#527=DIRECTION('',(1.,0.,0.));
#528=DIRECTION('',(0.,0.,-1.));
#529=DIRECTION('',(-1.,0.,0.));
#530=DIRECTION('',(0.,0.,1.));
#531=DIRECTION('',(1.,0.,0.));
#532=DIRECTION('',(0.,0.,1.));
#533=DIRECTION('',(1.,0.,0.));
#534=DIRECTION('',(0.,0.,-1.));
#535=DIRECTION('',(-1.,0.,0.));
#536=DIRECTION('',(0.,0.,1.));
#537=DIRECTION('',(1.,0.,0.));
#538=DIRECTION('',(0.,0.,1.));
#539=DIRECTION('',(1.,0.,0.));
#540=DIRECTION('',(0.,0.,-1.));
#541=DIRECTION('',(-1.,0.,0.));
#542=DIRECTION('',(0.,0.,1.));
#543=DIRECTION('',(1.,0.,0.));
#544=DIRECTION('',(0.,0.,1.));
#545=DIRECTION('',(1.,0.,0.));
#546=DIRECTION('',(0.,0.,-1.));
#547=DIRECTION('',(-1.,0.,0.));
#548=DIRECTION('',(0.,0.,1.));
#549=DIRECTION('',(1.,0.,0.));
#550=DIRECTION('',(0.,0.,1.));
#551=DIRECTION('',(1.,0.,0.));
#552=DIRECTION('',(0.,0.,-1.));
#553=DIRECTION('',(-1.,0.,0.));
#554=CARTESIAN_POINT('',(0.,0.,0.));
#555=CARTESIAN_POINT('',(-3.46944695195361E-18,0.02515,0.004));
#556=CARTESIAN_POINT('',(-3.46944695195361E-18,0.02515,0.));
#557=CARTESIAN_POINT('',(0.02515,0.02515,0.));
#558=CARTESIAN_POINT('',(-0.02515,0.02515,0.));
#559=CARTESIAN_POINT('',(-0.02515,0.02515,0.004));
#560=CARTESIAN_POINT('',(-0.02515,0.02515,0.004));
#561=CARTESIAN_POINT('',(-3.46944695195361E-18,0.02515,0.004));
#562=CARTESIAN_POINT('',(0.02515,0.02515,0.004));
#563=CARTESIAN_POINT('',(0.02515,0.02515,0.004));
#564=CARTESIAN_POINT('',(-0.02515,0.,0.004));
#565=CARTESIAN_POINT('',(-0.02515,0.,0.));
#566=CARTESIAN_POINT('',(-0.02515,-0.02515,0.));
#567=CARTESIAN_POINT('',(-0.02515,-0.02515,0.004));
#568=CARTESIAN_POINT('',(-0.02515,-0.02515,0.004));
#569=CARTESIAN_POINT('',(-0.02515,0.,0.004));
#570=CARTESIAN_POINT('',(-3.46944695195361E-18,-0.02515,0.004));
#571=CARTESIAN_POINT('',(-3.46944695195361E-18,-0.02515,0.));
#572=CARTESIAN_POINT('',(0.02515,-0.02515,0.));
#573=CARTESIAN_POINT('',(0.02515,-0.02515,0.004));
#574=CARTESIAN_POINT('',(0.02515,-0.02515,0.004));
#575=CARTESIAN_POINT('',(-3.46944695195361E-18,-0.02515,0.004));
#576=CARTESIAN_POINT('',(0.,3.06161699786838E-19,0.004));
#577=CARTESIAN_POINT('',(0.,3.06161699786838E-19,0.004));
#578=CARTESIAN_POINT('',(0.005,3.06161699786838E-19,0.004));
#579=CARTESIAN_POINT('',(0.,3.06161699786838E-19,0.));
#580=CARTESIAN_POINT('',(0.005,3.06161699786838E-19,0.));
#581=CARTESIAN_POINT('',(0.02515,3.46944695195361E-18,0.004));
#582=CARTESIAN_POINT('',(0.02515,3.46944695195361E-18,0.));
#583=CARTESIAN_POINT('',(0.02515,3.46944695195361E-18,0.004));
#584=CARTESIAN_POINT('',(0.,0.,0.004));
#585=CARTESIAN_POINT('',(0.02115,-0.02115,0.004));
#586=CARTESIAN_POINT('',(0.02225,-0.02115,0.004));
#587=CARTESIAN_POINT('',(-0.02115,-0.02115,0.004));
#588=CARTESIAN_POINT('',(-0.02005,-0.02115,0.004));
#589=CARTESIAN_POINT('',(-0.02115,0.02115,0.004));
#590=CARTESIAN_POINT('',(-0.02005,0.02115,0.004));
#591=CARTESIAN_POINT('',(0.02115,0.02115,0.004));
#592=CARTESIAN_POINT('',(0.02225,0.02115,0.004));
#593=CARTESIAN_POINT('',(-0.0155,-0.0155,0.004));
#594=CARTESIAN_POINT('',(-0.0139,-0.0155,0.004));
#595=CARTESIAN_POINT('',(0.0155,-0.0155,0.004));
#596=CARTESIAN_POINT('',(0.0171,-0.0155,0.004));
#597=CARTESIAN_POINT('',(0.0155,0.0155,0.004));
#598=CARTESIAN_POINT('',(0.0171,0.0155,0.004));
#599=CARTESIAN_POINT('',(-0.0155,0.0155,0.004));
#600=CARTESIAN_POINT('',(-0.0139,0.0155,0.004));
#601=CARTESIAN_POINT('',(0.,0.,0.));
#602=CARTESIAN_POINT('',(0.02115,-0.02115,0.));
#603=CARTESIAN_POINT('',(0.0234,-0.02115,0.));
#604=CARTESIAN_POINT('',(-0.02115,-0.02115,0.));
#605=CARTESIAN_POINT('',(-0.0189,-0.02115,0.));
#606=CARTESIAN_POINT('',(-0.02115,0.02115,0.));
#607=CARTESIAN_POINT('',(-0.0189,0.02115,0.));
#608=CARTESIAN_POINT('',(0.02115,0.02115,0.));
#609=CARTESIAN_POINT('',(0.0234,0.02115,0.));
#610=CARTESIAN_POINT('',(-0.0155,-0.0155,0.));
#611=CARTESIAN_POINT('',(-0.01214,-0.0155,0.));
#612=CARTESIAN_POINT('',(0.0155,-0.0155,0.));
#613=CARTESIAN_POINT('',(0.01886,-0.0155,0.));
#614=CARTESIAN_POINT('',(0.0155,0.0155,0.));
#615=CARTESIAN_POINT('',(0.01886,0.0155,0.));
#616=CARTESIAN_POINT('',(-0.0155,0.0155,0.));
#617=CARTESIAN_POINT('',(-0.01214,0.0155,0.));
#618=CARTESIAN_POINT('',(-0.0155,0.0155,0.));
#619=CARTESIAN_POINT('',(-0.0155,0.0155,0.00176));
#620=CARTESIAN_POINT('',(-0.0139,0.0155,0.00176));
#621=CARTESIAN_POINT('',(-0.0155,0.0155,0.));
#622=CARTESIAN_POINT('',(0.0155,0.0155,0.));
#623=CARTESIAN_POINT('',(0.0155,0.0155,0.00176));
#624=CARTESIAN_POINT('',(0.0171,0.0155,0.00176));
#625=CARTESIAN_POINT('',(0.0155,0.0155,0.));
#626=CARTESIAN_POINT('',(0.0155,-0.0155,0.));
#627=CARTESIAN_POINT('',(0.0155,-0.0155,0.00176));
#628=CARTESIAN_POINT('',(0.0171,-0.0155,0.00176));
#629=CARTESIAN_POINT('',(0.0155,-0.0155,0.));
#630=CARTESIAN_POINT('',(-0.0155,-0.0155,0.));
#631=CARTESIAN_POINT('',(-0.0155,-0.0155,0.00176));
#632=CARTESIAN_POINT('',(-0.0139,-0.0155,0.00176));
#633=CARTESIAN_POINT('',(-0.0155,-0.0155,0.));
#634=CARTESIAN_POINT('',(0.02115,0.02115,0.));
#635=CARTESIAN_POINT('',(0.02115,0.02115,0.00115));
#636=CARTESIAN_POINT('',(0.02225,0.02115,0.00115));
#637=CARTESIAN_POINT('',(0.02115,0.02115,0.));
#638=CARTESIAN_POINT('',(-0.02115,0.02115,0.));
#639=CARTESIAN_POINT('',(-0.02115,0.02115,0.00115));
#640=CARTESIAN_POINT('',(-0.02005,0.02115,0.00115));
#641=CARTESIAN_POINT('',(-0.02115,0.02115,0.));
#642=CARTESIAN_POINT('',(-0.02115,-0.02115,0.));
#643=CARTESIAN_POINT('',(-0.02115,-0.02115,0.00115));
#644=CARTESIAN_POINT('',(-0.02005,-0.02115,0.00115));
#645=CARTESIAN_POINT('',(-0.02115,-0.02115,0.));
#646=CARTESIAN_POINT('',(0.02115,-0.02115,0.));
#647=CARTESIAN_POINT('',(0.02115,-0.02115,0.00115));
#648=CARTESIAN_POINT('',(0.02225,-0.02115,0.00115));
#649=CARTESIAN_POINT('',(0.02115,-0.02115,0.));
#650=MECHANICAL_DESIGN_GEOMETRIC_PRESENTATION_REPRESENTATION('',(#381),
#651);
#651=(
GEOMETRIC_REPRESENTATION_CONTEXT(3)
GLOBAL_UNCERTAINTY_ASSIGNED_CONTEXT((#652))
GLOBAL_UNIT_ASSIGNED_CONTEXT((#655,#654,#653))
REPRESENTATION_CONTEXT('Part 1','TOP_LEVEL_ASSEMBLY_PART')
);
#652=UNCERTAINTY_MEASURE_WITH_UNIT(LENGTH_MEASURE(1.E-8),#655,
'DISTANCE_ACCURACY_VALUE','Maximum Tolerance applied to model');
#653=(
NAMED_UNIT(*)
SI_UNIT($,.STERADIAN.)
SOLID_ANGLE_UNIT()
);
#654=(
NAMED_UNIT(*)
PLANE_ANGLE_UNIT()
SI_UNIT($,.RADIAN.)
);
#655=(
LENGTH_UNIT()
NAMED_UNIT(*)
SI_UNIT($,.METRE.)
);
#656=PRODUCT_DEFINITION_SHAPE('','',#657);
#657=PRODUCT_DEFINITION('','',#659,#658);
#658=PRODUCT_DEFINITION_CONTEXT('',#665,'design');
#659=PRODUCT_DEFINITION_FORMATION_WITH_SPECIFIED_SOURCE('','',#661,
 .NOT_KNOWN.);
#660=PRODUCT_RELATED_PRODUCT_CATEGORY('','',(#661));
#661=PRODUCT('Part 1','Part 1','Part 1',(#663));
#662=PRODUCT_CATEGORY('','');
#663=PRODUCT_CONTEXT('',#665,'mechanical');
#664=APPLICATION_PROTOCOL_DEFINITION('international standard',
'automotive_design',2010,#665);
#665=APPLICATION_CONTEXT(
'core data for automotive mechanical design processes');
ENDSEC;
END-ISO-10303-21;
