ISO-10303-21;
HEADER;
/* Generated by software containing ST-Developer
 * from STEP Tools, Inc. (www.steptools.com) 
 */
/* OPTION: using custom renumber hook */

FILE_DESCRIPTION(
/* description */ ('STEP AP214',
'CAx-IF Rec.Pracs.---User Defined Attributes---1.5---2016-08-15'),
/* implementation_level */ '2;1');

FILE_NAME(
/* name */ 'Base turn - Part 1 (11)',
/* time_stamp */ '2026-05-17T02:39:04Z',
/* author */ (''),
/* organization */ (''),
/* preprocessor_version */ 'ST-DEVELOPER v20',
/* originating_system */ 'ONSHAPE BY PTC INC, 1.215',
/* authorisation */ '  ');

FILE_SCHEMA (('AUTOMOTIVE_DESIGN {1 0 10303 214 3 1 1}'));
ENDSEC;

DATA;
#10=PROPERTY_DEFINITION_REPRESENTATION(#14,#12);
#11=PROPERTY_DEFINITION_REPRESENTATION(#15,#13);
#12=REPRESENTATION('',(#16),#715);
#13=REPRESENTATION('',(#17),#715);
#14=PROPERTY_DEFINITION('pmi validation property','',#720);
#15=PROPERTY_DEFINITION('pmi validation property','',#720);
#16=VALUE_REPRESENTATION_ITEM('number of annotations',COUNT_MEASURE(0.));
#17=VALUE_REPRESENTATION_ITEM('number of views',COUNT_MEASURE(0.));
#18=SHAPE_REPRESENTATION_RELATIONSHIP('','',#497,#19);
#19=ADVANCED_BREP_SHAPE_REPRESENTATION('',(#495),#715);
#20=CYLINDRICAL_SURFACE('',#516,0.0016);
#21=CYLINDRICAL_SURFACE('',#519,0.0016);
#22=CYLINDRICAL_SURFACE('',#522,0.0016);
#23=CYLINDRICAL_SURFACE('',#525,0.0016);
#24=CYLINDRICAL_SURFACE('',#526,0.011);
#25=CYLINDRICAL_SURFACE('',#530,0.0025);
#26=CIRCLE('',#508,0.011);
#27=CIRCLE('',#509,0.0016);
#28=CIRCLE('',#510,0.0016);
#29=CIRCLE('',#511,0.0016);
#30=CIRCLE('',#512,0.0016);
#31=CIRCLE('',#515,0.0016);
#32=CIRCLE('',#518,0.0016);
#33=CIRCLE('',#521,0.0016);
#34=CIRCLE('',#524,0.0016);
#35=CIRCLE('',#527,0.011);
#36=CIRCLE('',#529,0.0025);
#37=CIRCLE('',#531,0.0025);
#38=ORIENTED_EDGE('',*,*,#110,.T.);
#39=ORIENTED_EDGE('',*,*,#111,.F.);
#40=ORIENTED_EDGE('',*,*,#112,.F.);
#41=ORIENTED_EDGE('',*,*,#113,.T.);
#42=ORIENTED_EDGE('',*,*,#114,.T.);
#43=ORIENTED_EDGE('',*,*,#115,.F.);
#44=ORIENTED_EDGE('',*,*,#116,.F.);
#45=ORIENTED_EDGE('',*,*,#111,.T.);
#46=ORIENTED_EDGE('',*,*,#117,.T.);
#47=ORIENTED_EDGE('',*,*,#118,.F.);
#48=ORIENTED_EDGE('',*,*,#119,.F.);
#49=ORIENTED_EDGE('',*,*,#115,.T.);
#50=ORIENTED_EDGE('',*,*,#120,.F.);
#51=ORIENTED_EDGE('',*,*,#121,.F.);
#52=ORIENTED_EDGE('',*,*,#122,.T.);
#53=ORIENTED_EDGE('',*,*,#118,.T.);
#54=ORIENTED_EDGE('',*,*,#123,.F.);
#55=ORIENTED_EDGE('',*,*,#124,.F.);
#56=ORIENTED_EDGE('',*,*,#125,.T.);
#57=ORIENTED_EDGE('',*,*,#121,.T.);
#58=ORIENTED_EDGE('',*,*,#126,.T.);
#59=ORIENTED_EDGE('',*,*,#127,.F.);
#60=ORIENTED_EDGE('',*,*,#128,.F.);
#61=ORIENTED_EDGE('',*,*,#124,.T.);
#62=ORIENTED_EDGE('',*,*,#129,.F.);
#63=ORIENTED_EDGE('',*,*,#130,.F.);
#64=ORIENTED_EDGE('',*,*,#131,.T.);
#65=ORIENTED_EDGE('',*,*,#127,.T.);
#66=ORIENTED_EDGE('',*,*,#132,.F.);
#67=ORIENTED_EDGE('',*,*,#113,.F.);
#68=ORIENTED_EDGE('',*,*,#133,.T.);
#69=ORIENTED_EDGE('',*,*,#130,.T.);
#70=ORIENTED_EDGE('',*,*,#134,.F.);
#71=ORIENTED_EDGE('',*,*,#135,.T.);
#72=ORIENTED_EDGE('',*,*,#136,.T.);
#73=ORIENTED_EDGE('',*,*,#137,.T.);
#74=ORIENTED_EDGE('',*,*,#138,.T.);
#75=ORIENTED_EDGE('',*,*,#112,.T.);
#76=ORIENTED_EDGE('',*,*,#116,.T.);
#77=ORIENTED_EDGE('',*,*,#119,.T.);
#78=ORIENTED_EDGE('',*,*,#122,.F.);
#79=ORIENTED_EDGE('',*,*,#125,.F.);
#80=ORIENTED_EDGE('',*,*,#128,.T.);
#81=ORIENTED_EDGE('',*,*,#131,.F.);
#82=ORIENTED_EDGE('',*,*,#133,.F.);
#83=ORIENTED_EDGE('',*,*,#110,.F.);
#84=ORIENTED_EDGE('',*,*,#132,.T.);
#85=ORIENTED_EDGE('',*,*,#129,.T.);
#86=ORIENTED_EDGE('',*,*,#126,.F.);
#87=ORIENTED_EDGE('',*,*,#123,.T.);
#88=ORIENTED_EDGE('',*,*,#120,.T.);
#89=ORIENTED_EDGE('',*,*,#117,.F.);
#90=ORIENTED_EDGE('',*,*,#114,.F.);
#91=ORIENTED_EDGE('',*,*,#139,.F.);
#92=ORIENTED_EDGE('',*,*,#139,.T.);
#93=ORIENTED_EDGE('',*,*,#138,.F.);
#94=ORIENTED_EDGE('',*,*,#140,.F.);
#95=ORIENTED_EDGE('',*,*,#140,.T.);
#96=ORIENTED_EDGE('',*,*,#137,.F.);
#97=ORIENTED_EDGE('',*,*,#141,.F.);
#98=ORIENTED_EDGE('',*,*,#141,.T.);
#99=ORIENTED_EDGE('',*,*,#136,.F.);
#100=ORIENTED_EDGE('',*,*,#142,.F.);
#101=ORIENTED_EDGE('',*,*,#142,.T.);
#102=ORIENTED_EDGE('',*,*,#135,.F.);
#103=ORIENTED_EDGE('',*,*,#143,.F.);
#104=ORIENTED_EDGE('',*,*,#134,.T.);
#105=ORIENTED_EDGE('',*,*,#144,.F.);
#106=ORIENTED_EDGE('',*,*,#143,.T.);
#107=ORIENTED_EDGE('',*,*,#144,.T.);
#108=ORIENTED_EDGE('',*,*,#145,.F.);
#109=ORIENTED_EDGE('',*,*,#145,.T.);
#110=EDGE_CURVE('',#146,#147,#174,.T.);
#111=EDGE_CURVE('',#148,#147,#175,.T.);
#112=EDGE_CURVE('',#149,#148,#176,.T.);
#113=EDGE_CURVE('',#149,#146,#177,.T.);
#114=EDGE_CURVE('',#147,#150,#178,.T.);
#115=EDGE_CURVE('',#151,#150,#179,.T.);
#116=EDGE_CURVE('',#148,#151,#180,.T.);
#117=EDGE_CURVE('',#150,#152,#181,.T.);
#118=EDGE_CURVE('',#153,#152,#182,.T.);
#119=EDGE_CURVE('',#151,#153,#183,.T.);
#120=EDGE_CURVE('',#154,#152,#184,.T.);
#121=EDGE_CURVE('',#155,#154,#185,.T.);
#122=EDGE_CURVE('',#155,#153,#186,.T.);
#123=EDGE_CURVE('',#156,#154,#187,.T.);
#124=EDGE_CURVE('',#157,#156,#188,.T.);
#125=EDGE_CURVE('',#157,#155,#189,.T.);
#126=EDGE_CURVE('',#156,#158,#190,.T.);
#127=EDGE_CURVE('',#159,#158,#191,.T.);
#128=EDGE_CURVE('',#157,#159,#192,.T.);
#129=EDGE_CURVE('',#160,#158,#193,.T.);
#130=EDGE_CURVE('',#161,#160,#194,.T.);
#131=EDGE_CURVE('',#161,#159,#195,.T.);
#132=EDGE_CURVE('',#146,#160,#196,.T.);
#133=EDGE_CURVE('',#149,#161,#197,.T.);
#134=EDGE_CURVE('',#162,#162,#26,.T.);
#135=EDGE_CURVE('',#163,#163,#27,.T.);
#136=EDGE_CURVE('',#164,#164,#28,.T.);
#137=EDGE_CURVE('',#165,#165,#29,.T.);
#138=EDGE_CURVE('',#166,#166,#30,.T.);
#139=EDGE_CURVE('',#167,#167,#31,.T.);
#140=EDGE_CURVE('',#168,#168,#32,.T.);
#141=EDGE_CURVE('',#169,#169,#33,.T.);
#142=EDGE_CURVE('',#170,#170,#34,.T.);
#143=EDGE_CURVE('',#171,#171,#35,.T.);
#144=EDGE_CURVE('',#172,#172,#36,.T.);
#145=EDGE_CURVE('',#173,#173,#37,.T.);
#146=VERTEX_POINT('',#630);
#147=VERTEX_POINT('',#631);
#148=VERTEX_POINT('',#633);
#149=VERTEX_POINT('',#635);
#150=VERTEX_POINT('',#639);
#151=VERTEX_POINT('',#641);
#152=VERTEX_POINT('',#645);
#153=VERTEX_POINT('',#647);
#154=VERTEX_POINT('',#651);
#155=VERTEX_POINT('',#653);
#156=VERTEX_POINT('',#657);
#157=VERTEX_POINT('',#659);
#158=VERTEX_POINT('',#663);
#159=VERTEX_POINT('',#665);
#160=VERTEX_POINT('',#669);
#161=VERTEX_POINT('',#671);
#162=VERTEX_POINT('',#678);
#163=VERTEX_POINT('',#680);
#164=VERTEX_POINT('',#682);
#165=VERTEX_POINT('',#684);
#166=VERTEX_POINT('',#686);
#167=VERTEX_POINT('',#690);
#168=VERTEX_POINT('',#694);
#169=VERTEX_POINT('',#698);
#170=VERTEX_POINT('',#702);
#171=VERTEX_POINT('',#706);
#172=VERTEX_POINT('',#709);
#173=VERTEX_POINT('',#712);
#174=LINE('',#629,#198);
#175=LINE('',#632,#199);
#176=LINE('',#634,#200);
#177=LINE('',#636,#201);
#178=LINE('',#638,#202);
#179=LINE('',#640,#203);
#180=LINE('',#642,#204);
#181=LINE('',#644,#205);
#182=LINE('',#646,#206);
#183=LINE('',#648,#207);
#184=LINE('',#650,#208);
#185=LINE('',#652,#209);
#186=LINE('',#654,#210);
#187=LINE('',#656,#211);
#188=LINE('',#658,#212);
#189=LINE('',#660,#213);
#190=LINE('',#662,#214);
#191=LINE('',#664,#215);
#192=LINE('',#666,#216);
#193=LINE('',#668,#217);
#194=LINE('',#670,#218);
#195=LINE('',#672,#219);
#196=LINE('',#674,#220);
#197=LINE('',#675,#221);
#198=VECTOR('',#537,1.);
#199=VECTOR('',#538,1.);
#200=VECTOR('',#539,1.);
#201=VECTOR('',#540,1.);
#202=VECTOR('',#543,1.);
#203=VECTOR('',#544,1.);
#204=VECTOR('',#545,1.);
#205=VECTOR('',#548,1.);
#206=VECTOR('',#549,1.);
#207=VECTOR('',#550,1.);
#208=VECTOR('',#553,1.);
#209=VECTOR('',#554,1.);
#210=VECTOR('',#555,1.);
#211=VECTOR('',#558,1.);
#212=VECTOR('',#559,1.);
#213=VECTOR('',#560,1.);
#214=VECTOR('',#563,1.);
#215=VECTOR('',#564,1.);
#216=VECTOR('',#565,1.);
#217=VECTOR('',#568,1.);
#218=VECTOR('',#569,1.);
#219=VECTOR('',#570,1.);
#220=VECTOR('',#573,1.);
#221=VECTOR('',#574,1.);
#222=EDGE_LOOP('',(#38,#39,#40,#41));
#223=EDGE_LOOP('',(#42,#43,#44,#45));
#224=EDGE_LOOP('',(#46,#47,#48,#49));
#225=EDGE_LOOP('',(#50,#51,#52,#53));
#226=EDGE_LOOP('',(#54,#55,#56,#57));
#227=EDGE_LOOP('',(#58,#59,#60,#61));
#228=EDGE_LOOP('',(#62,#63,#64,#65));
#229=EDGE_LOOP('',(#66,#67,#68,#69));
#230=EDGE_LOOP('',(#70));
#231=EDGE_LOOP('',(#71));
#232=EDGE_LOOP('',(#72));
#233=EDGE_LOOP('',(#73));
#234=EDGE_LOOP('',(#74));
#235=EDGE_LOOP('',(#75,#76,#77,#78,#79,#80,#81,#82));
#236=EDGE_LOOP('',(#83,#84,#85,#86,#87,#88,#89,#90));
#237=EDGE_LOOP('',(#91));
#238=EDGE_LOOP('',(#92));
#239=EDGE_LOOP('',(#93));
#240=EDGE_LOOP('',(#94));
#241=EDGE_LOOP('',(#95));
#242=EDGE_LOOP('',(#96));
#243=EDGE_LOOP('',(#97));
#244=EDGE_LOOP('',(#98));
#245=EDGE_LOOP('',(#99));
#246=EDGE_LOOP('',(#100));
#247=EDGE_LOOP('',(#101));
#248=EDGE_LOOP('',(#102));
#249=EDGE_LOOP('',(#103));
#250=EDGE_LOOP('',(#104));
#251=EDGE_LOOP('',(#105));
#252=EDGE_LOOP('',(#106));
#253=EDGE_LOOP('',(#107));
#254=EDGE_LOOP('',(#108));
#255=EDGE_LOOP('',(#109));
#256=FACE_BOUND('',#222,.T.);
#257=FACE_BOUND('',#223,.T.);
#258=FACE_BOUND('',#224,.T.);
#259=FACE_BOUND('',#225,.T.);
#260=FACE_BOUND('',#226,.T.);
#261=FACE_BOUND('',#227,.T.);
#262=FACE_BOUND('',#228,.T.);
#263=FACE_BOUND('',#229,.T.);
#264=FACE_BOUND('',#230,.T.);
#265=FACE_BOUND('',#231,.T.);
#266=FACE_BOUND('',#232,.T.);
#267=FACE_BOUND('',#233,.T.);
#268=FACE_BOUND('',#234,.T.);
#269=FACE_BOUND('',#235,.T.);
#270=FACE_BOUND('',#236,.T.);
#271=FACE_BOUND('',#237,.T.);
#272=FACE_BOUND('',#238,.T.);
#273=FACE_BOUND('',#239,.T.);
#274=FACE_BOUND('',#240,.T.);
#275=FACE_BOUND('',#241,.T.);
#276=FACE_BOUND('',#242,.T.);
#277=FACE_BOUND('',#243,.T.);
#278=FACE_BOUND('',#244,.T.);
#279=FACE_BOUND('',#245,.T.);
#280=FACE_BOUND('',#246,.T.);
#281=FACE_BOUND('',#247,.T.);
#282=FACE_BOUND('',#248,.T.);
#283=FACE_BOUND('',#249,.T.);
#284=FACE_BOUND('',#250,.T.);
#285=FACE_BOUND('',#251,.T.);
#286=FACE_BOUND('',#252,.T.);
#287=FACE_BOUND('',#253,.T.);
#288=FACE_BOUND('',#254,.T.);
#289=FACE_BOUND('',#255,.T.);
#290=PLANE('',#499);
#291=PLANE('',#500);
#292=PLANE('',#501);
#293=PLANE('',#502);
#294=PLANE('',#503);
#295=PLANE('',#504);
#296=PLANE('',#505);
#297=PLANE('',#506);
#298=PLANE('',#507);
#299=PLANE('',#513);
#300=PLANE('',#514);
#301=PLANE('',#517);
#302=PLANE('',#520);
#303=PLANE('',#523);
#304=PLANE('',#528);
#305=PLANE('',#532);
#306=OVER_RIDING_STYLED_ITEM('',(#354),#329,#352);
#307=OVER_RIDING_STYLED_ITEM('',(#355),#330,#352);
#308=OVER_RIDING_STYLED_ITEM('',(#356),#331,#352);
#309=OVER_RIDING_STYLED_ITEM('',(#357),#332,#352);
#310=OVER_RIDING_STYLED_ITEM('',(#358),#333,#352);
#311=OVER_RIDING_STYLED_ITEM('',(#359),#334,#352);
#312=OVER_RIDING_STYLED_ITEM('',(#360),#335,#352);
#313=OVER_RIDING_STYLED_ITEM('',(#361),#336,#352);
#314=OVER_RIDING_STYLED_ITEM('',(#362),#337,#352);
#315=OVER_RIDING_STYLED_ITEM('',(#363),#338,#352);
#316=OVER_RIDING_STYLED_ITEM('',(#364),#339,#352);
#317=OVER_RIDING_STYLED_ITEM('',(#365),#340,#352);
#318=OVER_RIDING_STYLED_ITEM('',(#366),#341,#352);
#319=OVER_RIDING_STYLED_ITEM('',(#367),#342,#352);
#320=OVER_RIDING_STYLED_ITEM('',(#368),#343,#352);
#321=OVER_RIDING_STYLED_ITEM('',(#369),#344,#352);
#322=OVER_RIDING_STYLED_ITEM('',(#370),#345,#352);
#323=OVER_RIDING_STYLED_ITEM('',(#371),#346,#352);
#324=OVER_RIDING_STYLED_ITEM('',(#372),#347,#352);
#325=OVER_RIDING_STYLED_ITEM('',(#373),#348,#352);
#326=OVER_RIDING_STYLED_ITEM('',(#374),#349,#352);
#327=OVER_RIDING_STYLED_ITEM('',(#375),#350,#352);
#328=DRAUGHTING_PRE_DEFINED_COLOUR('black');
#329=ADVANCED_FACE('',(#256),#290,.F.);
#330=ADVANCED_FACE('',(#257),#291,.F.);
#331=ADVANCED_FACE('',(#258),#292,.F.);
#332=ADVANCED_FACE('',(#259),#293,.T.);
#333=ADVANCED_FACE('',(#260),#294,.T.);
#334=ADVANCED_FACE('',(#261),#295,.F.);
#335=ADVANCED_FACE('',(#262),#296,.T.);
#336=ADVANCED_FACE('',(#263),#297,.T.);
#337=ADVANCED_FACE('',(#264,#265,#266,#267,#268,#269),#298,.T.);
#338=ADVANCED_FACE('',(#270),#299,.F.);
#339=ADVANCED_FACE('',(#271),#300,.T.);
#340=ADVANCED_FACE('',(#272,#273),#20,.F.);
#341=ADVANCED_FACE('',(#274),#301,.T.);
#342=ADVANCED_FACE('',(#275,#276),#21,.F.);
#343=ADVANCED_FACE('',(#277),#302,.T.);
#344=ADVANCED_FACE('',(#278,#279),#22,.F.);
#345=ADVANCED_FACE('',(#280),#303,.T.);
#346=ADVANCED_FACE('',(#281,#282),#23,.F.);
#347=ADVANCED_FACE('',(#283,#284),#24,.T.);
#348=ADVANCED_FACE('',(#285,#286),#304,.T.);
#349=ADVANCED_FACE('',(#287,#288),#25,.T.);
#350=ADVANCED_FACE('',(#289),#305,.T.);
#351=CLOSED_SHELL('',(#329,#330,#331,#332,#333,#334,#335,#336,#337,#338,
#339,#340,#341,#342,#343,#344,#345,#346,#347,#348,#349,#350));
#352=STYLED_ITEM('',(#353),#495);
#353=PRESENTATION_STYLE_ASSIGNMENT((#376));
#354=PRESENTATION_STYLE_ASSIGNMENT((#377));
#355=PRESENTATION_STYLE_ASSIGNMENT((#378));
#356=PRESENTATION_STYLE_ASSIGNMENT((#379));
#357=PRESENTATION_STYLE_ASSIGNMENT((#380));
#358=PRESENTATION_STYLE_ASSIGNMENT((#381));
#359=PRESENTATION_STYLE_ASSIGNMENT((#382));
#360=PRESENTATION_STYLE_ASSIGNMENT((#383));
#361=PRESENTATION_STYLE_ASSIGNMENT((#384));
#362=PRESENTATION_STYLE_ASSIGNMENT((#385));
#363=PRESENTATION_STYLE_ASSIGNMENT((#386));
#364=PRESENTATION_STYLE_ASSIGNMENT((#387));
#365=PRESENTATION_STYLE_ASSIGNMENT((#388));
#366=PRESENTATION_STYLE_ASSIGNMENT((#389));
#367=PRESENTATION_STYLE_ASSIGNMENT((#390));
#368=PRESENTATION_STYLE_ASSIGNMENT((#391));
#369=PRESENTATION_STYLE_ASSIGNMENT((#392));
#370=PRESENTATION_STYLE_ASSIGNMENT((#393));
#371=PRESENTATION_STYLE_ASSIGNMENT((#394));
#372=PRESENTATION_STYLE_ASSIGNMENT((#395));
#373=PRESENTATION_STYLE_ASSIGNMENT((#396));
#374=PRESENTATION_STYLE_ASSIGNMENT((#397));
#375=PRESENTATION_STYLE_ASSIGNMENT((#398));
#376=SURFACE_STYLE_USAGE(.BOTH.,#399);
#377=SURFACE_STYLE_USAGE(.BOTH.,#400);
#378=SURFACE_STYLE_USAGE(.BOTH.,#401);
#379=SURFACE_STYLE_USAGE(.BOTH.,#402);
#380=SURFACE_STYLE_USAGE(.BOTH.,#403);
#381=SURFACE_STYLE_USAGE(.BOTH.,#404);
#382=SURFACE_STYLE_USAGE(.BOTH.,#405);
#383=SURFACE_STYLE_USAGE(.BOTH.,#406);
#384=SURFACE_STYLE_USAGE(.BOTH.,#407);
#385=SURFACE_STYLE_USAGE(.BOTH.,#408);
#386=SURFACE_STYLE_USAGE(.BOTH.,#409);
#387=SURFACE_STYLE_USAGE(.BOTH.,#410);
#388=SURFACE_STYLE_USAGE(.BOTH.,#411);
#389=SURFACE_STYLE_USAGE(.BOTH.,#412);
#390=SURFACE_STYLE_USAGE(.BOTH.,#413);
#391=SURFACE_STYLE_USAGE(.BOTH.,#414);
#392=SURFACE_STYLE_USAGE(.BOTH.,#415);
#393=SURFACE_STYLE_USAGE(.BOTH.,#416);
#394=SURFACE_STYLE_USAGE(.BOTH.,#417);
#395=SURFACE_STYLE_USAGE(.BOTH.,#418);
#396=SURFACE_STYLE_USAGE(.BOTH.,#419);
#397=SURFACE_STYLE_USAGE(.BOTH.,#420);
#398=SURFACE_STYLE_USAGE(.BOTH.,#421);
#399=SURFACE_SIDE_STYLE('',(#422));
#400=SURFACE_SIDE_STYLE('',(#423));
#401=SURFACE_SIDE_STYLE('',(#424));
#402=SURFACE_SIDE_STYLE('',(#425));
#403=SURFACE_SIDE_STYLE('',(#426));
#404=SURFACE_SIDE_STYLE('',(#427));
#405=SURFACE_SIDE_STYLE('',(#428));
#406=SURFACE_SIDE_STYLE('',(#429));
#407=SURFACE_SIDE_STYLE('',(#430));
#408=SURFACE_SIDE_STYLE('',(#431));
#409=SURFACE_SIDE_STYLE('',(#432));
#410=SURFACE_SIDE_STYLE('',(#433));
#411=SURFACE_SIDE_STYLE('',(#434));
#412=SURFACE_SIDE_STYLE('',(#435));
#413=SURFACE_SIDE_STYLE('',(#436));
#414=SURFACE_SIDE_STYLE('',(#437));
#415=SURFACE_SIDE_STYLE('',(#438));
#416=SURFACE_SIDE_STYLE('',(#439));
#417=SURFACE_SIDE_STYLE('',(#440));
#418=SURFACE_SIDE_STYLE('',(#441));
#419=SURFACE_SIDE_STYLE('',(#442));
#420=SURFACE_SIDE_STYLE('',(#443));
#421=SURFACE_SIDE_STYLE('',(#444));
#422=SURFACE_STYLE_FILL_AREA(#445);
#423=SURFACE_STYLE_FILL_AREA(#446);
#424=SURFACE_STYLE_FILL_AREA(#447);
#425=SURFACE_STYLE_FILL_AREA(#448);
#426=SURFACE_STYLE_FILL_AREA(#449);
#427=SURFACE_STYLE_FILL_AREA(#450);
#428=SURFACE_STYLE_FILL_AREA(#451);
#429=SURFACE_STYLE_FILL_AREA(#452);
#430=SURFACE_STYLE_FILL_AREA(#453);
#431=SURFACE_STYLE_FILL_AREA(#454);
#432=SURFACE_STYLE_FILL_AREA(#455);
#433=SURFACE_STYLE_FILL_AREA(#456);
#434=SURFACE_STYLE_FILL_AREA(#457);
#435=SURFACE_STYLE_FILL_AREA(#458);
#436=SURFACE_STYLE_FILL_AREA(#459);
#437=SURFACE_STYLE_FILL_AREA(#460);
#438=SURFACE_STYLE_FILL_AREA(#461);
#439=SURFACE_STYLE_FILL_AREA(#462);
#440=SURFACE_STYLE_FILL_AREA(#463);
#441=SURFACE_STYLE_FILL_AREA(#464);
#442=SURFACE_STYLE_FILL_AREA(#465);
#443=SURFACE_STYLE_FILL_AREA(#466);
#444=SURFACE_STYLE_FILL_AREA(#467);
#445=FILL_AREA_STYLE('',(#468));
#446=FILL_AREA_STYLE('',(#469));
#447=FILL_AREA_STYLE('',(#470));
#448=FILL_AREA_STYLE('',(#471));
#449=FILL_AREA_STYLE('',(#472));
#450=FILL_AREA_STYLE('',(#473));
#451=FILL_AREA_STYLE('',(#474));
#452=FILL_AREA_STYLE('',(#475));
#453=FILL_AREA_STYLE('',(#476));
#454=FILL_AREA_STYLE('',(#477));
#455=FILL_AREA_STYLE('',(#478));
#456=FILL_AREA_STYLE('',(#479));
#457=FILL_AREA_STYLE('',(#480));
#458=FILL_AREA_STYLE('',(#481));
#459=FILL_AREA_STYLE('',(#482));
#460=FILL_AREA_STYLE('',(#483));
#461=FILL_AREA_STYLE('',(#484));
#462=FILL_AREA_STYLE('',(#485));
#463=FILL_AREA_STYLE('',(#486));
#464=FILL_AREA_STYLE('',(#487));
#465=FILL_AREA_STYLE('',(#488));
#466=FILL_AREA_STYLE('',(#489));
#467=FILL_AREA_STYLE('',(#490));
#468=FILL_AREA_STYLE_COLOUR('',#491);
#469=FILL_AREA_STYLE_COLOUR('',#328);
#470=FILL_AREA_STYLE_COLOUR('',#328);
#471=FILL_AREA_STYLE_COLOUR('',#328);
#472=FILL_AREA_STYLE_COLOUR('',#328);
#473=FILL_AREA_STYLE_COLOUR('',#328);
#474=FILL_AREA_STYLE_COLOUR('',#328);
#475=FILL_AREA_STYLE_COLOUR('',#328);
#476=FILL_AREA_STYLE_COLOUR('',#328);
#477=FILL_AREA_STYLE_COLOUR('',#492);
#478=FILL_AREA_STYLE_COLOUR('',#492);
#479=FILL_AREA_STYLE_COLOUR('',#492);
#480=FILL_AREA_STYLE_COLOUR('',#492);
#481=FILL_AREA_STYLE_COLOUR('',#492);
#482=FILL_AREA_STYLE_COLOUR('',#492);
#483=FILL_AREA_STYLE_COLOUR('',#492);
#484=FILL_AREA_STYLE_COLOUR('',#492);
#485=FILL_AREA_STYLE_COLOUR('',#492);
#486=FILL_AREA_STYLE_COLOUR('',#492);
#487=FILL_AREA_STYLE_COLOUR('',#493);
#488=FILL_AREA_STYLE_COLOUR('',#493);
#489=FILL_AREA_STYLE_COLOUR('',#494);
#490=FILL_AREA_STYLE_COLOUR('',#494);
#491=COLOUR_RGB('',0.615686274509804,0.811764705882353,0.929411764705882);
#492=COLOUR_RGB('',0.917647058823529,0.917647058823529,0.917647058823529);
#493=COLOUR_RGB('',0.00392156862745098,0.,0.);
#494=COLOUR_RGB('',0.647058823529412,0.647058823529412,0.647058823529412);
#495=MANIFOLD_SOLID_BREP('Part 1',#351);
#496=SHAPE_DEFINITION_REPRESENTATION(#720,#497);
#497=SHAPE_REPRESENTATION('Part 1',(#498),#715);
#498=AXIS2_PLACEMENT_3D('',#627,#533,#534);
#499=AXIS2_PLACEMENT_3D('',#628,#535,#536);
#500=AXIS2_PLACEMENT_3D('',#637,#541,#542);
#501=AXIS2_PLACEMENT_3D('',#643,#546,#547);
#502=AXIS2_PLACEMENT_3D('',#649,#551,#552);
#503=AXIS2_PLACEMENT_3D('',#655,#556,#557);
#504=AXIS2_PLACEMENT_3D('',#661,#561,#562);
#505=AXIS2_PLACEMENT_3D('',#667,#566,#567);
#506=AXIS2_PLACEMENT_3D('',#673,#571,#572);
#507=AXIS2_PLACEMENT_3D('',#676,#575,#576);
#508=AXIS2_PLACEMENT_3D('',#677,#577,#578);
#509=AXIS2_PLACEMENT_3D('',#679,#579,#580);
#510=AXIS2_PLACEMENT_3D('',#681,#581,#582);
#511=AXIS2_PLACEMENT_3D('',#683,#583,#584);
#512=AXIS2_PLACEMENT_3D('',#685,#585,#586);
#513=AXIS2_PLACEMENT_3D('',#687,#587,#588);
#514=AXIS2_PLACEMENT_3D('',#688,#589,#590);
#515=AXIS2_PLACEMENT_3D('',#689,#591,#592);
#516=AXIS2_PLACEMENT_3D('',#691,#593,#594);
#517=AXIS2_PLACEMENT_3D('',#692,#595,#596);
#518=AXIS2_PLACEMENT_3D('',#693,#597,#598);
#519=AXIS2_PLACEMENT_3D('',#695,#599,#600);
#520=AXIS2_PLACEMENT_3D('',#696,#601,#602);
#521=AXIS2_PLACEMENT_3D('',#697,#603,#604);
#522=AXIS2_PLACEMENT_3D('',#699,#605,#606);
#523=AXIS2_PLACEMENT_3D('',#700,#607,#608);
#524=AXIS2_PLACEMENT_3D('',#701,#609,#610);
#525=AXIS2_PLACEMENT_3D('',#703,#611,#612);
#526=AXIS2_PLACEMENT_3D('',#704,#613,#614);
#527=AXIS2_PLACEMENT_3D('',#705,#615,#616);
#528=AXIS2_PLACEMENT_3D('',#707,#617,#618);
#529=AXIS2_PLACEMENT_3D('',#708,#619,#620);
#530=AXIS2_PLACEMENT_3D('',#710,#621,#622);
#531=AXIS2_PLACEMENT_3D('',#711,#623,#624);
#532=AXIS2_PLACEMENT_3D('',#713,#625,#626);
#533=DIRECTION('',(0.,0.,1.));
#534=DIRECTION('',(1.,0.,0.));
#535=DIRECTION('',(0.,-1.,0.));
#536=DIRECTION('',(0.,0.,-1.));
#537=DIRECTION('',(-1.,0.,0.));
#538=DIRECTION('',(0.,0.,-1.));
#539=DIRECTION('',(-1.,0.,0.));
#540=DIRECTION('',(0.,0.,-1.));
#541=DIRECTION('',(0.707106781186548,-0.707106781186548,0.));
#542=DIRECTION('',(0.707106781186548,0.707106781186548,0.));
#543=DIRECTION('',(-0.707106781186548,-0.707106781186548,0.));
#544=DIRECTION('',(0.,0.,-1.));
#545=DIRECTION('',(-0.707106781186548,-0.707106781186548,0.));
#546=DIRECTION('',(1.,0.,0.));
#547=DIRECTION('',(0.,0.,-1.));
#548=DIRECTION('',(0.,-1.,0.));
#549=DIRECTION('',(0.,0.,-1.));
#550=DIRECTION('',(0.,-1.,0.));
#551=DIRECTION('',(-0.707106781186548,-0.707106781186548,0.));
#552=DIRECTION('',(0.707106781186548,-0.707106781186548,0.));
#553=DIRECTION('',(-0.707106781186548,0.707106781186548,0.));
#554=DIRECTION('',(0.,0.,-1.));
#555=DIRECTION('',(-0.707106781186548,0.707106781186548,0.));
#556=DIRECTION('',(0.,-1.,0.));
#557=DIRECTION('',(0.,0.,-1.));
#558=DIRECTION('',(-1.,0.,0.));
#559=DIRECTION('',(0.,0.,-1.));
#560=DIRECTION('',(-1.,0.,0.));
#561=DIRECTION('',(-0.707106781186548,0.707106781186548,0.));
#562=DIRECTION('',(-0.707106781186548,-0.707106781186548,0.));
#563=DIRECTION('',(0.707106781186548,0.707106781186548,0.));
#564=DIRECTION('',(0.,0.,-1.));
#565=DIRECTION('',(0.707106781186548,0.707106781186548,0.));
#566=DIRECTION('',(1.,0.,0.));
#567=DIRECTION('',(0.,0.,-1.));
#568=DIRECTION('',(0.,-1.,0.));
#569=DIRECTION('',(0.,0.,-1.));
#570=DIRECTION('',(0.,-1.,0.));
#571=DIRECTION('',(0.707106781186548,0.707106781186548,0.));
#572=DIRECTION('',(-0.707106781186548,0.707106781186548,0.));
#573=DIRECTION('',(0.707106781186548,-0.707106781186548,0.));
#574=DIRECTION('',(0.707106781186548,-0.707106781186548,0.));
#575=DIRECTION('',(0.,0.,1.));
#576=DIRECTION('',(1.,0.,0.));
#577=DIRECTION('',(0.,0.,1.));
#578=DIRECTION('',(1.,0.,0.));
#579=DIRECTION('',(0.,0.,-1.));
#580=DIRECTION('',(-1.,0.,0.));
#581=DIRECTION('',(0.,0.,-1.));
#582=DIRECTION('',(-1.,0.,0.));
#583=DIRECTION('',(0.,0.,-1.));
#584=DIRECTION('',(-1.,0.,0.));
#585=DIRECTION('',(0.,0.,-1.));
#586=DIRECTION('',(-1.,0.,0.));
#587=DIRECTION('',(0.,0.,1.));
#588=DIRECTION('',(1.,0.,0.));
#589=DIRECTION('',(0.,0.,1.));
#590=DIRECTION('',(1.,0.,0.));
#591=DIRECTION('',(0.,0.,-1.));
#592=DIRECTION('',(-1.,0.,0.));
#593=DIRECTION('',(0.,0.,-1.));
#594=DIRECTION('',(-1.,0.,0.));
#595=DIRECTION('',(0.,0.,1.));
#596=DIRECTION('',(1.,0.,0.));
#597=DIRECTION('',(0.,0.,-1.));
#598=DIRECTION('',(-1.,0.,0.));
#599=DIRECTION('',(0.,0.,-1.));
#600=DIRECTION('',(-1.,0.,0.));
#601=DIRECTION('',(0.,0.,1.));
#602=DIRECTION('',(1.,0.,0.));
#603=DIRECTION('',(0.,0.,-1.));
#604=DIRECTION('',(-1.,0.,0.));
#605=DIRECTION('',(0.,0.,-1.));
#606=DIRECTION('',(-1.,0.,0.));
#607=DIRECTION('',(0.,0.,1.));
#608=DIRECTION('',(1.,0.,0.));
#609=DIRECTION('',(0.,0.,-1.));
#610=DIRECTION('',(-1.,0.,0.));
#611=DIRECTION('',(0.,0.,-1.));
#612=DIRECTION('',(-1.,0.,0.));
#613=DIRECTION('',(0.,0.,-1.));
#614=DIRECTION('',(-1.,0.,0.));
#615=DIRECTION('',(0.,0.,1.));
#616=DIRECTION('',(1.,0.,0.));
#617=DIRECTION('',(0.,0.,1.));
#618=DIRECTION('',(1.,0.,0.));
#619=DIRECTION('',(0.,0.,1.));
#620=DIRECTION('',(1.,0.,0.));
#621=DIRECTION('',(0.,0.,-1.));
#622=DIRECTION('',(-1.,0.,0.));
#623=DIRECTION('',(0.,0.,1.));
#624=DIRECTION('',(1.,0.,0.));
#625=DIRECTION('',(0.,0.,1.));
#626=DIRECTION('',(1.,0.,0.));
#627=CARTESIAN_POINT('',(0.,0.,0.));
#628=CARTESIAN_POINT('',(0.,0.02115,0.026));
#629=CARTESIAN_POINT('',(0.,0.02115,0.));
#630=CARTESIAN_POINT('',(0.01615,0.02115,0.));
#631=CARTESIAN_POINT('',(-0.01615,0.02115,0.));
#632=CARTESIAN_POINT('',(-0.01615,0.02115,0.026));
#633=CARTESIAN_POINT('',(-0.01615,0.02115,0.026));
#634=CARTESIAN_POINT('',(0.,0.02115,0.026));
#635=CARTESIAN_POINT('',(0.01615,0.02115,0.026));
#636=CARTESIAN_POINT('',(0.01615,0.02115,0.026));
#637=CARTESIAN_POINT('',(-0.01865,0.01865,0.026));
#638=CARTESIAN_POINT('',(-0.01865,0.01865,0.));
#639=CARTESIAN_POINT('',(-0.02115,0.01615,0.));
#640=CARTESIAN_POINT('',(-0.02115,0.01615,0.026));
#641=CARTESIAN_POINT('',(-0.02115,0.01615,0.026));
#642=CARTESIAN_POINT('',(-0.01865,0.01865,0.026));
#643=CARTESIAN_POINT('',(-0.02115,0.,0.026));
#644=CARTESIAN_POINT('',(-0.02115,0.,0.));
#645=CARTESIAN_POINT('',(-0.02115,-0.01615,0.));
#646=CARTESIAN_POINT('',(-0.02115,-0.01615,0.026));
#647=CARTESIAN_POINT('',(-0.02115,-0.01615,0.026));
#648=CARTESIAN_POINT('',(-0.02115,0.,0.026));
#649=CARTESIAN_POINT('',(-0.01865,-0.01865,0.026));
#650=CARTESIAN_POINT('',(-0.01865,-0.01865,0.));
#651=CARTESIAN_POINT('',(-0.01615,-0.02115,0.));
#652=CARTESIAN_POINT('',(-0.01615,-0.02115,0.026));
#653=CARTESIAN_POINT('',(-0.01615,-0.02115,0.026));
#654=CARTESIAN_POINT('',(-0.01865,-0.01865,0.026));
#655=CARTESIAN_POINT('',(0.,-0.02115,0.026));
#656=CARTESIAN_POINT('',(0.,-0.02115,0.));
#657=CARTESIAN_POINT('',(0.01615,-0.02115,0.));
#658=CARTESIAN_POINT('',(0.01615,-0.02115,0.026));
#659=CARTESIAN_POINT('',(0.01615,-0.02115,0.026));
#660=CARTESIAN_POINT('',(0.,-0.02115,0.026));
#661=CARTESIAN_POINT('',(0.01865,-0.01865,0.026));
#662=CARTESIAN_POINT('',(0.01865,-0.01865,0.));
#663=CARTESIAN_POINT('',(0.02115,-0.01615,0.));
#664=CARTESIAN_POINT('',(0.02115,-0.01615,0.026));
#665=CARTESIAN_POINT('',(0.02115,-0.01615,0.026));
#666=CARTESIAN_POINT('',(0.01865,-0.01865,0.026));
#667=CARTESIAN_POINT('',(0.02115,0.,0.026));
#668=CARTESIAN_POINT('',(0.02115,0.,0.));
#669=CARTESIAN_POINT('',(0.02115,0.01615,0.));
#670=CARTESIAN_POINT('',(0.02115,0.01615,0.026));
#671=CARTESIAN_POINT('',(0.02115,0.01615,0.026));
#672=CARTESIAN_POINT('',(0.02115,0.,0.026));
#673=CARTESIAN_POINT('',(0.01865,0.01865,0.026));
#674=CARTESIAN_POINT('',(0.01865,0.01865,0.));
#675=CARTESIAN_POINT('',(0.01865,0.01865,0.026));
#676=CARTESIAN_POINT('',(0.,-3.46944695195361E-18,0.026));
#677=CARTESIAN_POINT('',(0.,6.73555739531044E-19,0.026));
#678=CARTESIAN_POINT('',(0.011,6.73555739531044E-19,0.026));
#679=CARTESIAN_POINT('',(-0.0155,-0.0155,0.026));
#680=CARTESIAN_POINT('',(-0.0171,-0.0155,0.026));
#681=CARTESIAN_POINT('',(0.0155,-0.0155,0.026));
#682=CARTESIAN_POINT('',(0.0139,-0.0155,0.026));
#683=CARTESIAN_POINT('',(0.0155,0.0155,0.026));
#684=CARTESIAN_POINT('',(0.0139,0.0155,0.026));
#685=CARTESIAN_POINT('',(-0.0155,0.0155,0.026));
#686=CARTESIAN_POINT('',(-0.0171,0.0155,0.026));
#687=CARTESIAN_POINT('',(0.,-3.46944695195361E-18,0.));
#688=CARTESIAN_POINT('',(-0.0139,0.0155,0.023));
#689=CARTESIAN_POINT('',(-0.0155,0.0155,0.023));
#690=CARTESIAN_POINT('',(-0.0171,0.0155,0.023));
#691=CARTESIAN_POINT('',(-0.0155,0.0155,0.026));
#692=CARTESIAN_POINT('',(0.0171,0.0155,0.023));
#693=CARTESIAN_POINT('',(0.0155,0.0155,0.023));
#694=CARTESIAN_POINT('',(0.0139,0.0155,0.023));
#695=CARTESIAN_POINT('',(0.0155,0.0155,0.026));
#696=CARTESIAN_POINT('',(0.0171,-0.0155,0.023));
#697=CARTESIAN_POINT('',(0.0155,-0.0155,0.023));
#698=CARTESIAN_POINT('',(0.0139,-0.0155,0.023));
#699=CARTESIAN_POINT('',(0.0155,-0.0155,0.026));
#700=CARTESIAN_POINT('',(-0.0139,-0.0155,0.023));
#701=CARTESIAN_POINT('',(-0.0155,-0.0155,0.023));
#702=CARTESIAN_POINT('',(-0.0171,-0.0155,0.023));
#703=CARTESIAN_POINT('',(-0.0155,-0.0155,0.026));
#704=CARTESIAN_POINT('',(0.,6.73555739531044E-19,0.028));
#705=CARTESIAN_POINT('',(0.,6.73555739531044E-19,0.028));
#706=CARTESIAN_POINT('',(0.011,6.73555739531044E-19,0.028));
#707=CARTESIAN_POINT('',(0.,-3.46944695195361E-18,0.028));
#708=CARTESIAN_POINT('',(0.,1.53080849893419E-19,0.028));
#709=CARTESIAN_POINT('',(0.0025,1.53080849893419E-19,0.028));
#710=CARTESIAN_POINT('',(0.,1.53080849893419E-19,0.056));
#711=CARTESIAN_POINT('',(0.,1.53080849893419E-19,0.056));
#712=CARTESIAN_POINT('',(0.0025,1.53080849893419E-19,0.056));
#713=CARTESIAN_POINT('',(0.,-3.46944695195361E-18,0.056));
#714=MECHANICAL_DESIGN_GEOMETRIC_PRESENTATION_REPRESENTATION('',(#352,#306,
#307,#308,#309,#310,#311,#312,#313,#314,#315,#316,#317,#318,#319,#320,#321,
#322,#323,#324,#325,#326,#327),#715);
#715=(
GEOMETRIC_REPRESENTATION_CONTEXT(3)
GLOBAL_UNCERTAINTY_ASSIGNED_CONTEXT((#716))
GLOBAL_UNIT_ASSIGNED_CONTEXT((#719,#718,#717))
REPRESENTATION_CONTEXT('Part 1','TOP_LEVEL_ASSEMBLY_PART')
);
#716=UNCERTAINTY_MEASURE_WITH_UNIT(LENGTH_MEASURE(1.E-8),#719,
'DISTANCE_ACCURACY_VALUE','Maximum Tolerance applied to model');
#717=(
NAMED_UNIT(*)
SI_UNIT($,.STERADIAN.)
SOLID_ANGLE_UNIT()
);
#718=(
NAMED_UNIT(*)
PLANE_ANGLE_UNIT()
SI_UNIT($,.RADIAN.)
);
#719=(
LENGTH_UNIT()
NAMED_UNIT(*)
SI_UNIT($,.METRE.)
);
#720=PRODUCT_DEFINITION_SHAPE('','',#721);
#721=PRODUCT_DEFINITION('','',#723,#722);
#722=PRODUCT_DEFINITION_CONTEXT('',#729,'design');
#723=PRODUCT_DEFINITION_FORMATION_WITH_SPECIFIED_SOURCE('','',#725,
 .NOT_KNOWN.);
#724=PRODUCT_RELATED_PRODUCT_CATEGORY('','',(#725));
#725=PRODUCT('Part 1','Part 1','Part 1',(#727));
#726=PRODUCT_CATEGORY('','');
#727=PRODUCT_CONTEXT('',#729,'mechanical');
#728=APPLICATION_PROTOCOL_DEFINITION('international standard',
'automotive_design',2010,#729);
#729=APPLICATION_CONTEXT(
'core data for automotive mechanical design processes');
ENDSEC;
END-ISO-10303-21;
