ISO-10303-21;
HEADER;
/* Generated by software containing ST-Developer
 * from STEP Tools, Inc. (www.steptools.com) 
 */
/* OPTION: using custom renumber hook */

FILE_DESCRIPTION(
/* description */ ('STEP AP214',
'CAx-IF Rec.Pracs.---User Defined Attributes---1.5---2016-08-15'),
/* implementation_level */ '2;1');

FILE_NAME(
/* name */ 'Base turn - Part 3 (1)',
/* time_stamp */ '2026-05-17T02:39:04Z',
/* author */ (''),
/* organization */ (''),
/* preprocessor_version */ 'ST-DEVELOPER v20',
/* originating_system */ 'ONSHAPE BY PTC INC, 1.215',
/* authorisation */ '  ');

FILE_SCHEMA (('AUTOMOTIVE_DESIGN {1 0 10303 214 3 1 1}'));
ENDSEC;

DATA;
#10=PROPERTY_DEFINITION_REPRESENTATION(#14,#12);
#11=PROPERTY_DEFINITION_REPRESENTATION(#15,#13);
#12=REPRESENTATION('',(#16),#981);
#13=REPRESENTATION('',(#17),#981);
#14=PROPERTY_DEFINITION('pmi validation property','',#986);
#15=PROPERTY_DEFINITION('pmi validation property','',#986);
#16=VALUE_REPRESENTATION_ITEM('number of annotations',COUNT_MEASURE(0.));
#17=VALUE_REPRESENTATION_ITEM('number of views',COUNT_MEASURE(0.));
#18=SHAPE_REPRESENTATION_RELATIONSHIP('','',#571,#19);
#19=ADVANCED_BREP_SHAPE_REPRESENTATION('',(#569),#981);
#20=CONICAL_SURFACE('',#615,0.00336,0.785398163397448);
#21=CONICAL_SURFACE('',#618,0.00336,0.785398163397448);
#22=CONICAL_SURFACE('',#621,0.00336,0.785398163397448);
#23=CONICAL_SURFACE('',#624,0.00336,0.785398163397448);
#24=CONICAL_SURFACE('',#627,0.00336,0.785398163397448);
#25=CONICAL_SURFACE('',#630,0.00336,0.785398163397448);
#26=CONICAL_SURFACE('',#633,0.00336,0.785398163397448);
#27=CONICAL_SURFACE('',#636,0.00336,0.785398163397448);
#28=CONICAL_SURFACE('',#639,0.00336,0.785398163397448);
#29=CONICAL_SURFACE('',#642,0.00336,0.785398163397448);
#30=CONICAL_SURFACE('',#645,0.00336,0.785398163397448);
#31=CONICAL_SURFACE('',#648,0.00336,0.785398163397448);
#32=CONICAL_SURFACE('',#651,0.00336,0.785398163397448);
#33=CONICAL_SURFACE('',#654,0.00336,0.785398163397448);
#34=CONICAL_SURFACE('',#657,0.00336,0.785398163397448);
#35=CONICAL_SURFACE('',#660,0.00336,0.785398163397448);
#36=PLANE('',#579);
#37=PLANE('',#596);
#38=ORIENTED_EDGE('',*,*,#142,.F.);
#39=ORIENTED_EDGE('',*,*,#143,.T.);
#40=ORIENTED_EDGE('',*,*,#144,.T.);
#41=ORIENTED_EDGE('',*,*,#145,.F.);
#42=ORIENTED_EDGE('',*,*,#146,.T.);
#43=ORIENTED_EDGE('',*,*,#147,.T.);
#44=ORIENTED_EDGE('',*,*,#148,.T.);
#45=ORIENTED_EDGE('',*,*,#149,.T.);
#46=ORIENTED_EDGE('',*,*,#150,.T.);
#47=ORIENTED_EDGE('',*,*,#151,.T.);
#48=ORIENTED_EDGE('',*,*,#152,.T.);
#49=ORIENTED_EDGE('',*,*,#153,.T.);
#50=ORIENTED_EDGE('',*,*,#154,.T.);
#51=ORIENTED_EDGE('',*,*,#155,.T.);
#52=ORIENTED_EDGE('',*,*,#156,.T.);
#53=ORIENTED_EDGE('',*,*,#157,.T.);
#54=ORIENTED_EDGE('',*,*,#158,.T.);
#55=ORIENTED_EDGE('',*,*,#159,.T.);
#56=ORIENTED_EDGE('',*,*,#160,.T.);
#57=ORIENTED_EDGE('',*,*,#161,.T.);
#58=ORIENTED_EDGE('',*,*,#142,.T.);
#59=ORIENTED_EDGE('',*,*,#144,.F.);
#60=ORIENTED_EDGE('',*,*,#162,.F.);
#61=ORIENTED_EDGE('',*,*,#163,.F.);
#62=ORIENTED_EDGE('',*,*,#164,.F.);
#63=ORIENTED_EDGE('',*,*,#165,.F.);
#64=ORIENTED_EDGE('',*,*,#166,.F.);
#65=ORIENTED_EDGE('',*,*,#167,.F.);
#66=ORIENTED_EDGE('',*,*,#168,.F.);
#67=ORIENTED_EDGE('',*,*,#169,.F.);
#68=ORIENTED_EDGE('',*,*,#170,.F.);
#69=ORIENTED_EDGE('',*,*,#171,.F.);
#70=ORIENTED_EDGE('',*,*,#172,.F.);
#71=ORIENTED_EDGE('',*,*,#173,.F.);
#72=ORIENTED_EDGE('',*,*,#174,.F.);
#73=ORIENTED_EDGE('',*,*,#175,.F.);
#74=ORIENTED_EDGE('',*,*,#176,.F.);
#75=ORIENTED_EDGE('',*,*,#177,.F.);
#76=ORIENTED_EDGE('',*,*,#143,.F.);
#77=ORIENTED_EDGE('',*,*,#145,.T.);
#78=ORIENTED_EDGE('',*,*,#178,.F.);
#79=ORIENTED_EDGE('',*,*,#177,.T.);
#80=ORIENTED_EDGE('',*,*,#178,.T.);
#81=ORIENTED_EDGE('',*,*,#161,.F.);
#82=ORIENTED_EDGE('',*,*,#179,.F.);
#83=ORIENTED_EDGE('',*,*,#176,.T.);
#84=ORIENTED_EDGE('',*,*,#179,.T.);
#85=ORIENTED_EDGE('',*,*,#160,.F.);
#86=ORIENTED_EDGE('',*,*,#180,.F.);
#87=ORIENTED_EDGE('',*,*,#175,.T.);
#88=ORIENTED_EDGE('',*,*,#180,.T.);
#89=ORIENTED_EDGE('',*,*,#159,.F.);
#90=ORIENTED_EDGE('',*,*,#181,.F.);
#91=ORIENTED_EDGE('',*,*,#174,.T.);
#92=ORIENTED_EDGE('',*,*,#181,.T.);
#93=ORIENTED_EDGE('',*,*,#158,.F.);
#94=ORIENTED_EDGE('',*,*,#182,.F.);
#95=ORIENTED_EDGE('',*,*,#173,.T.);
#96=ORIENTED_EDGE('',*,*,#182,.T.);
#97=ORIENTED_EDGE('',*,*,#157,.F.);
#98=ORIENTED_EDGE('',*,*,#183,.F.);
#99=ORIENTED_EDGE('',*,*,#172,.T.);
#100=ORIENTED_EDGE('',*,*,#183,.T.);
#101=ORIENTED_EDGE('',*,*,#156,.F.);
#102=ORIENTED_EDGE('',*,*,#184,.F.);
#103=ORIENTED_EDGE('',*,*,#171,.T.);
#104=ORIENTED_EDGE('',*,*,#184,.T.);
#105=ORIENTED_EDGE('',*,*,#155,.F.);
#106=ORIENTED_EDGE('',*,*,#185,.F.);
#107=ORIENTED_EDGE('',*,*,#170,.T.);
#108=ORIENTED_EDGE('',*,*,#185,.T.);
#109=ORIENTED_EDGE('',*,*,#154,.F.);
#110=ORIENTED_EDGE('',*,*,#186,.F.);
#111=ORIENTED_EDGE('',*,*,#169,.T.);
#112=ORIENTED_EDGE('',*,*,#186,.T.);
#113=ORIENTED_EDGE('',*,*,#153,.F.);
#114=ORIENTED_EDGE('',*,*,#187,.F.);
#115=ORIENTED_EDGE('',*,*,#168,.T.);
#116=ORIENTED_EDGE('',*,*,#187,.T.);
#117=ORIENTED_EDGE('',*,*,#152,.F.);
#118=ORIENTED_EDGE('',*,*,#188,.F.);
#119=ORIENTED_EDGE('',*,*,#167,.T.);
#120=ORIENTED_EDGE('',*,*,#188,.T.);
#121=ORIENTED_EDGE('',*,*,#151,.F.);
#122=ORIENTED_EDGE('',*,*,#189,.F.);
#123=ORIENTED_EDGE('',*,*,#166,.T.);
#124=ORIENTED_EDGE('',*,*,#189,.T.);
#125=ORIENTED_EDGE('',*,*,#150,.F.);
#126=ORIENTED_EDGE('',*,*,#190,.F.);
#127=ORIENTED_EDGE('',*,*,#165,.T.);
#128=ORIENTED_EDGE('',*,*,#190,.T.);
#129=ORIENTED_EDGE('',*,*,#149,.F.);
#130=ORIENTED_EDGE('',*,*,#191,.F.);
#131=ORIENTED_EDGE('',*,*,#164,.T.);
#132=ORIENTED_EDGE('',*,*,#191,.T.);
#133=ORIENTED_EDGE('',*,*,#148,.F.);
#134=ORIENTED_EDGE('',*,*,#192,.F.);
#135=ORIENTED_EDGE('',*,*,#163,.T.);
#136=ORIENTED_EDGE('',*,*,#192,.T.);
#137=ORIENTED_EDGE('',*,*,#147,.F.);
#138=ORIENTED_EDGE('',*,*,#193,.F.);
#139=ORIENTED_EDGE('',*,*,#162,.T.);
#140=ORIENTED_EDGE('',*,*,#193,.T.);
#141=ORIENTED_EDGE('',*,*,#146,.F.);
#142=EDGE_CURVE('',#194,#194,#246,.T.);
#143=EDGE_CURVE('',#195,#195,#247,.T.);
#144=EDGE_CURVE('',#196,#196,#248,.T.);
#145=EDGE_CURVE('',#197,#197,#249,.T.);
#146=EDGE_CURVE('',#198,#198,#250,.T.);
#147=EDGE_CURVE('',#199,#199,#251,.T.);
#148=EDGE_CURVE('',#200,#200,#252,.T.);
#149=EDGE_CURVE('',#201,#201,#253,.T.);
#150=EDGE_CURVE('',#202,#202,#254,.T.);
#151=EDGE_CURVE('',#203,#203,#255,.T.);
#152=EDGE_CURVE('',#204,#204,#256,.T.);
#153=EDGE_CURVE('',#205,#205,#257,.T.);
#154=EDGE_CURVE('',#206,#206,#258,.T.);
#155=EDGE_CURVE('',#207,#207,#259,.T.);
#156=EDGE_CURVE('',#208,#208,#260,.T.);
#157=EDGE_CURVE('',#209,#209,#261,.T.);
#158=EDGE_CURVE('',#210,#210,#262,.T.);
#159=EDGE_CURVE('',#211,#211,#263,.T.);
#160=EDGE_CURVE('',#212,#212,#264,.T.);
#161=EDGE_CURVE('',#213,#213,#265,.T.);
#162=EDGE_CURVE('',#214,#214,#266,.F.);
#163=EDGE_CURVE('',#215,#215,#267,.F.);
#164=EDGE_CURVE('',#216,#216,#268,.F.);
#165=EDGE_CURVE('',#217,#217,#269,.F.);
#166=EDGE_CURVE('',#218,#218,#270,.F.);
#167=EDGE_CURVE('',#219,#219,#271,.F.);
#168=EDGE_CURVE('',#220,#220,#272,.F.);
#169=EDGE_CURVE('',#221,#221,#273,.F.);
#170=EDGE_CURVE('',#222,#222,#274,.F.);
#171=EDGE_CURVE('',#223,#223,#275,.F.);
#172=EDGE_CURVE('',#224,#224,#276,.F.);
#173=EDGE_CURVE('',#225,#225,#277,.F.);
#174=EDGE_CURVE('',#226,#226,#278,.F.);
#175=EDGE_CURVE('',#227,#227,#279,.F.);
#176=EDGE_CURVE('',#228,#228,#280,.F.);
#177=EDGE_CURVE('',#229,#229,#281,.F.);
#178=EDGE_CURVE('',#230,#230,#282,.T.);
#179=EDGE_CURVE('',#231,#231,#283,.T.);
#180=EDGE_CURVE('',#232,#232,#284,.T.);
#181=EDGE_CURVE('',#233,#233,#285,.T.);
#182=EDGE_CURVE('',#234,#234,#286,.T.);
#183=EDGE_CURVE('',#235,#235,#287,.T.);
#184=EDGE_CURVE('',#236,#236,#288,.T.);
#185=EDGE_CURVE('',#237,#237,#289,.T.);
#186=EDGE_CURVE('',#238,#238,#290,.T.);
#187=EDGE_CURVE('',#239,#239,#291,.T.);
#188=EDGE_CURVE('',#240,#240,#292,.T.);
#189=EDGE_CURVE('',#241,#241,#293,.T.);
#190=EDGE_CURVE('',#242,#242,#294,.T.);
#191=EDGE_CURVE('',#243,#243,#295,.T.);
#192=EDGE_CURVE('',#244,#244,#296,.T.);
#193=EDGE_CURVE('',#245,#245,#297,.T.);
#194=VERTEX_POINT('',#842);
#195=VERTEX_POINT('',#844);
#196=VERTEX_POINT('',#847);
#197=VERTEX_POINT('',#849);
#198=VERTEX_POINT('',#852);
#199=VERTEX_POINT('',#854);
#200=VERTEX_POINT('',#856);
#201=VERTEX_POINT('',#858);
#202=VERTEX_POINT('',#860);
#203=VERTEX_POINT('',#862);
#204=VERTEX_POINT('',#864);
#205=VERTEX_POINT('',#866);
#206=VERTEX_POINT('',#868);
#207=VERTEX_POINT('',#870);
#208=VERTEX_POINT('',#872);
#209=VERTEX_POINT('',#874);
#210=VERTEX_POINT('',#876);
#211=VERTEX_POINT('',#878);
#212=VERTEX_POINT('',#880);
#213=VERTEX_POINT('',#882);
#214=VERTEX_POINT('',#885);
#215=VERTEX_POINT('',#887);
#216=VERTEX_POINT('',#889);
#217=VERTEX_POINT('',#891);
#218=VERTEX_POINT('',#893);
#219=VERTEX_POINT('',#895);
#220=VERTEX_POINT('',#897);
#221=VERTEX_POINT('',#899);
#222=VERTEX_POINT('',#901);
#223=VERTEX_POINT('',#903);
#224=VERTEX_POINT('',#905);
#225=VERTEX_POINT('',#907);
#226=VERTEX_POINT('',#909);
#227=VERTEX_POINT('',#911);
#228=VERTEX_POINT('',#913);
#229=VERTEX_POINT('',#915);
#230=VERTEX_POINT('',#918);
#231=VERTEX_POINT('',#922);
#232=VERTEX_POINT('',#926);
#233=VERTEX_POINT('',#930);
#234=VERTEX_POINT('',#934);
#235=VERTEX_POINT('',#938);
#236=VERTEX_POINT('',#942);
#237=VERTEX_POINT('',#946);
#238=VERTEX_POINT('',#950);
#239=VERTEX_POINT('',#954);
#240=VERTEX_POINT('',#958);
#241=VERTEX_POINT('',#962);
#242=VERTEX_POINT('',#966);
#243=VERTEX_POINT('',#970);
#244=VERTEX_POINT('',#974);
#245=VERTEX_POINT('',#978);
#246=CIRCLE('',#574,0.125);
#247=CIRCLE('',#575,0.125);
#248=CIRCLE('',#577,0.05375);
#249=CIRCLE('',#578,0.05375);
#250=CIRCLE('',#580,0.00336);
#251=CIRCLE('',#581,0.00336);
#252=CIRCLE('',#582,0.00336);
#253=CIRCLE('',#583,0.00336);
#254=CIRCLE('',#584,0.00336);
#255=CIRCLE('',#585,0.00336);
#256=CIRCLE('',#586,0.00336);
#257=CIRCLE('',#587,0.00336);
#258=CIRCLE('',#588,0.00336);
#259=CIRCLE('',#589,0.00336);
#260=CIRCLE('',#590,0.00336);
#261=CIRCLE('',#591,0.00336);
#262=CIRCLE('',#592,0.00336);
#263=CIRCLE('',#593,0.00336);
#264=CIRCLE('',#594,0.00336);
#265=CIRCLE('',#595,0.00336);
#266=CIRCLE('',#597,0.0016);
#267=CIRCLE('',#598,0.0016);
#268=CIRCLE('',#599,0.0016);
#269=CIRCLE('',#600,0.0016);
#270=CIRCLE('',#601,0.0016);
#271=CIRCLE('',#602,0.0016);
#272=CIRCLE('',#603,0.0016);
#273=CIRCLE('',#604,0.0016);
#274=CIRCLE('',#605,0.0016);
#275=CIRCLE('',#606,0.0016);
#276=CIRCLE('',#607,0.0016);
#277=CIRCLE('',#608,0.0016);
#278=CIRCLE('',#609,0.0016);
#279=CIRCLE('',#610,0.0016);
#280=CIRCLE('',#611,0.0016);
#281=CIRCLE('',#612,0.0016);
#282=CIRCLE('',#614,0.0016);
#283=CIRCLE('',#617,0.0016);
#284=CIRCLE('',#620,0.0016);
#285=CIRCLE('',#623,0.0016);
#286=CIRCLE('',#626,0.0016);
#287=CIRCLE('',#629,0.0016);
#288=CIRCLE('',#632,0.0016);
#289=CIRCLE('',#635,0.0016);
#290=CIRCLE('',#638,0.0016);
#291=CIRCLE('',#641,0.0016);
#292=CIRCLE('',#644,0.0016);
#293=CIRCLE('',#647,0.0016);
#294=CIRCLE('',#650,0.0016);
#295=CIRCLE('',#653,0.0016);
#296=CIRCLE('',#656,0.0016);
#297=CIRCLE('',#659,0.0016);
#298=EDGE_LOOP('',(#38));
#299=EDGE_LOOP('',(#39));
#300=EDGE_LOOP('',(#40));
#301=EDGE_LOOP('',(#41));
#302=EDGE_LOOP('',(#42));
#303=EDGE_LOOP('',(#43));
#304=EDGE_LOOP('',(#44));
#305=EDGE_LOOP('',(#45));
#306=EDGE_LOOP('',(#46));
#307=EDGE_LOOP('',(#47));
#308=EDGE_LOOP('',(#48));
#309=EDGE_LOOP('',(#49));
#310=EDGE_LOOP('',(#50));
#311=EDGE_LOOP('',(#51));
#312=EDGE_LOOP('',(#52));
#313=EDGE_LOOP('',(#53));
#314=EDGE_LOOP('',(#54));
#315=EDGE_LOOP('',(#55));
#316=EDGE_LOOP('',(#56));
#317=EDGE_LOOP('',(#57));
#318=EDGE_LOOP('',(#58));
#319=EDGE_LOOP('',(#59));
#320=EDGE_LOOP('',(#60));
#321=EDGE_LOOP('',(#61));
#322=EDGE_LOOP('',(#62));
#323=EDGE_LOOP('',(#63));
#324=EDGE_LOOP('',(#64));
#325=EDGE_LOOP('',(#65));
#326=EDGE_LOOP('',(#66));
#327=EDGE_LOOP('',(#67));
#328=EDGE_LOOP('',(#68));
#329=EDGE_LOOP('',(#69));
#330=EDGE_LOOP('',(#70));
#331=EDGE_LOOP('',(#71));
#332=EDGE_LOOP('',(#72));
#333=EDGE_LOOP('',(#73));
#334=EDGE_LOOP('',(#74));
#335=EDGE_LOOP('',(#75));
#336=EDGE_LOOP('',(#76));
#337=EDGE_LOOP('',(#77));
#338=EDGE_LOOP('',(#78));
#339=EDGE_LOOP('',(#79));
#340=EDGE_LOOP('',(#80));
#341=EDGE_LOOP('',(#81));
#342=EDGE_LOOP('',(#82));
#343=EDGE_LOOP('',(#83));
#344=EDGE_LOOP('',(#84));
#345=EDGE_LOOP('',(#85));
#346=EDGE_LOOP('',(#86));
#347=EDGE_LOOP('',(#87));
#348=EDGE_LOOP('',(#88));
#349=EDGE_LOOP('',(#89));
#350=EDGE_LOOP('',(#90));
#351=EDGE_LOOP('',(#91));
#352=EDGE_LOOP('',(#92));
#353=EDGE_LOOP('',(#93));
#354=EDGE_LOOP('',(#94));
#355=EDGE_LOOP('',(#95));
#356=EDGE_LOOP('',(#96));
#357=EDGE_LOOP('',(#97));
#358=EDGE_LOOP('',(#98));
#359=EDGE_LOOP('',(#99));
#360=EDGE_LOOP('',(#100));
#361=EDGE_LOOP('',(#101));
#362=EDGE_LOOP('',(#102));
#363=EDGE_LOOP('',(#103));
#364=EDGE_LOOP('',(#104));
#365=EDGE_LOOP('',(#105));
#366=EDGE_LOOP('',(#106));
#367=EDGE_LOOP('',(#107));
#368=EDGE_LOOP('',(#108));
#369=EDGE_LOOP('',(#109));
#370=EDGE_LOOP('',(#110));
#371=EDGE_LOOP('',(#111));
#372=EDGE_LOOP('',(#112));
#373=EDGE_LOOP('',(#113));
#374=EDGE_LOOP('',(#114));
#375=EDGE_LOOP('',(#115));
#376=EDGE_LOOP('',(#116));
#377=EDGE_LOOP('',(#117));
#378=EDGE_LOOP('',(#118));
#379=EDGE_LOOP('',(#119));
#380=EDGE_LOOP('',(#120));
#381=EDGE_LOOP('',(#121));
#382=EDGE_LOOP('',(#122));
#383=EDGE_LOOP('',(#123));
#384=EDGE_LOOP('',(#124));
#385=EDGE_LOOP('',(#125));
#386=EDGE_LOOP('',(#126));
#387=EDGE_LOOP('',(#127));
#388=EDGE_LOOP('',(#128));
#389=EDGE_LOOP('',(#129));
#390=EDGE_LOOP('',(#130));
#391=EDGE_LOOP('',(#131));
#392=EDGE_LOOP('',(#132));
#393=EDGE_LOOP('',(#133));
#394=EDGE_LOOP('',(#134));
#395=EDGE_LOOP('',(#135));
#396=EDGE_LOOP('',(#136));
#397=EDGE_LOOP('',(#137));
#398=EDGE_LOOP('',(#138));
#399=EDGE_LOOP('',(#139));
#400=EDGE_LOOP('',(#140));
#401=EDGE_LOOP('',(#141));
#402=FACE_BOUND('',#298,.T.);
#403=FACE_BOUND('',#299,.T.);
#404=FACE_BOUND('',#300,.T.);
#405=FACE_BOUND('',#301,.T.);
#406=FACE_BOUND('',#302,.T.);
#407=FACE_BOUND('',#303,.T.);
#408=FACE_BOUND('',#304,.T.);
#409=FACE_BOUND('',#305,.T.);
#410=FACE_BOUND('',#306,.T.);
#411=FACE_BOUND('',#307,.T.);
#412=FACE_BOUND('',#308,.T.);
#413=FACE_BOUND('',#309,.T.);
#414=FACE_BOUND('',#310,.T.);
#415=FACE_BOUND('',#311,.T.);
#416=FACE_BOUND('',#312,.T.);
#417=FACE_BOUND('',#313,.T.);
#418=FACE_BOUND('',#314,.T.);
#419=FACE_BOUND('',#315,.T.);
#420=FACE_BOUND('',#316,.T.);
#421=FACE_BOUND('',#317,.T.);
#422=FACE_BOUND('',#318,.T.);
#423=FACE_BOUND('',#319,.T.);
#424=FACE_BOUND('',#320,.T.);
#425=FACE_BOUND('',#321,.T.);
#426=FACE_BOUND('',#322,.T.);
#427=FACE_BOUND('',#323,.T.);
#428=FACE_BOUND('',#324,.T.);
#429=FACE_BOUND('',#325,.T.);
#430=FACE_BOUND('',#326,.T.);
#431=FACE_BOUND('',#327,.T.);
#432=FACE_BOUND('',#328,.T.);
#433=FACE_BOUND('',#329,.T.);
#434=FACE_BOUND('',#330,.T.);
#435=FACE_BOUND('',#331,.T.);
#436=FACE_BOUND('',#332,.T.);
#437=FACE_BOUND('',#333,.T.);
#438=FACE_BOUND('',#334,.T.);
#439=FACE_BOUND('',#335,.T.);
#440=FACE_BOUND('',#336,.T.);
#441=FACE_BOUND('',#337,.T.);
#442=FACE_BOUND('',#338,.T.);
#443=FACE_BOUND('',#339,.T.);
#444=FACE_BOUND('',#340,.T.);
#445=FACE_BOUND('',#341,.T.);
#446=FACE_BOUND('',#342,.T.);
#447=FACE_BOUND('',#343,.T.);
#448=FACE_BOUND('',#344,.T.);
#449=FACE_BOUND('',#345,.T.);
#450=FACE_BOUND('',#346,.T.);
#451=FACE_BOUND('',#347,.T.);
#452=FACE_BOUND('',#348,.T.);
#453=FACE_BOUND('',#349,.T.);
#454=FACE_BOUND('',#350,.T.);
#455=FACE_BOUND('',#351,.T.);
#456=FACE_BOUND('',#352,.T.);
#457=FACE_BOUND('',#353,.T.);
#458=FACE_BOUND('',#354,.T.);
#459=FACE_BOUND('',#355,.T.);
#460=FACE_BOUND('',#356,.T.);
#461=FACE_BOUND('',#357,.T.);
#462=FACE_BOUND('',#358,.T.);
#463=FACE_BOUND('',#359,.T.);
#464=FACE_BOUND('',#360,.T.);
#465=FACE_BOUND('',#361,.T.);
#466=FACE_BOUND('',#362,.T.);
#467=FACE_BOUND('',#363,.T.);
#468=FACE_BOUND('',#364,.T.);
#469=FACE_BOUND('',#365,.T.);
#470=FACE_BOUND('',#366,.T.);
#471=FACE_BOUND('',#367,.T.);
#472=FACE_BOUND('',#368,.T.);
#473=FACE_BOUND('',#369,.T.);
#474=FACE_BOUND('',#370,.T.);
#475=FACE_BOUND('',#371,.T.);
#476=FACE_BOUND('',#372,.T.);
#477=FACE_BOUND('',#373,.T.);
#478=FACE_BOUND('',#374,.T.);
#479=FACE_BOUND('',#375,.T.);
#480=FACE_BOUND('',#376,.T.);
#481=FACE_BOUND('',#377,.T.);
#482=FACE_BOUND('',#378,.T.);
#483=FACE_BOUND('',#379,.T.);
#484=FACE_BOUND('',#380,.T.);
#485=FACE_BOUND('',#381,.T.);
#486=FACE_BOUND('',#382,.T.);
#487=FACE_BOUND('',#383,.T.);
#488=FACE_BOUND('',#384,.T.);
#489=FACE_BOUND('',#385,.T.);
#490=FACE_BOUND('',#386,.T.);
#491=FACE_BOUND('',#387,.T.);
#492=FACE_BOUND('',#388,.T.);
#493=FACE_BOUND('',#389,.T.);
#494=FACE_BOUND('',#390,.T.);
#495=FACE_BOUND('',#391,.T.);
#496=FACE_BOUND('',#392,.T.);
#497=FACE_BOUND('',#393,.T.);
#498=FACE_BOUND('',#394,.T.);
#499=FACE_BOUND('',#395,.T.);
#500=FACE_BOUND('',#396,.T.);
#501=FACE_BOUND('',#397,.T.);
#502=FACE_BOUND('',#398,.T.);
#503=FACE_BOUND('',#399,.T.);
#504=FACE_BOUND('',#400,.T.);
#505=FACE_BOUND('',#401,.T.);
#506=CYLINDRICAL_SURFACE('',#573,0.125);
#507=CYLINDRICAL_SURFACE('',#576,0.05375);
#508=CYLINDRICAL_SURFACE('',#613,0.0016);
#509=CYLINDRICAL_SURFACE('',#616,0.0016);
#510=CYLINDRICAL_SURFACE('',#619,0.0016);
#511=CYLINDRICAL_SURFACE('',#622,0.0016);
#512=CYLINDRICAL_SURFACE('',#625,0.0016);
#513=CYLINDRICAL_SURFACE('',#628,0.0016);
#514=CYLINDRICAL_SURFACE('',#631,0.0016);
#515=CYLINDRICAL_SURFACE('',#634,0.0016);
#516=CYLINDRICAL_SURFACE('',#637,0.0016);
#517=CYLINDRICAL_SURFACE('',#640,0.0016);
#518=CYLINDRICAL_SURFACE('',#643,0.0016);
#519=CYLINDRICAL_SURFACE('',#646,0.0016);
#520=CYLINDRICAL_SURFACE('',#649,0.0016);
#521=CYLINDRICAL_SURFACE('',#652,0.0016);
#522=CYLINDRICAL_SURFACE('',#655,0.0016);
#523=CYLINDRICAL_SURFACE('',#658,0.0016);
#524=ADVANCED_FACE('',(#402,#403),#506,.T.);
#525=ADVANCED_FACE('',(#404,#405),#507,.F.);
#526=ADVANCED_FACE('',(#406,#407,#408,#409,#410,#411,#412,#413,#414,#415,
#416,#417,#418,#419,#420,#421,#422,#423),#36,.T.);
#527=ADVANCED_FACE('',(#424,#425,#426,#427,#428,#429,#430,#431,#432,#433,
#434,#435,#436,#437,#438,#439,#440,#441),#37,.F.);
#528=ADVANCED_FACE('',(#442,#443),#508,.F.);
#529=ADVANCED_FACE('',(#444,#445),#20,.F.);
#530=ADVANCED_FACE('',(#446,#447),#509,.F.);
#531=ADVANCED_FACE('',(#448,#449),#21,.F.);
#532=ADVANCED_FACE('',(#450,#451),#510,.F.);
#533=ADVANCED_FACE('',(#452,#453),#22,.F.);
#534=ADVANCED_FACE('',(#454,#455),#511,.F.);
#535=ADVANCED_FACE('',(#456,#457),#23,.F.);
#536=ADVANCED_FACE('',(#458,#459),#512,.F.);
#537=ADVANCED_FACE('',(#460,#461),#24,.F.);
#538=ADVANCED_FACE('',(#462,#463),#513,.F.);
#539=ADVANCED_FACE('',(#464,#465),#25,.F.);
#540=ADVANCED_FACE('',(#466,#467),#514,.F.);
#541=ADVANCED_FACE('',(#468,#469),#26,.F.);
#542=ADVANCED_FACE('',(#470,#471),#515,.F.);
#543=ADVANCED_FACE('',(#472,#473),#27,.F.);
#544=ADVANCED_FACE('',(#474,#475),#516,.F.);
#545=ADVANCED_FACE('',(#476,#477),#28,.F.);
#546=ADVANCED_FACE('',(#478,#479),#517,.F.);
#547=ADVANCED_FACE('',(#480,#481),#29,.F.);
#548=ADVANCED_FACE('',(#482,#483),#518,.F.);
#549=ADVANCED_FACE('',(#484,#485),#30,.F.);
#550=ADVANCED_FACE('',(#486,#487),#519,.F.);
#551=ADVANCED_FACE('',(#488,#489),#31,.F.);
#552=ADVANCED_FACE('',(#490,#491),#520,.F.);
#553=ADVANCED_FACE('',(#492,#493),#32,.F.);
#554=ADVANCED_FACE('',(#494,#495),#521,.F.);
#555=ADVANCED_FACE('',(#496,#497),#33,.F.);
#556=ADVANCED_FACE('',(#498,#499),#522,.F.);
#557=ADVANCED_FACE('',(#500,#501),#34,.F.);
#558=ADVANCED_FACE('',(#502,#503),#523,.F.);
#559=ADVANCED_FACE('',(#504,#505),#35,.F.);
#560=CLOSED_SHELL('',(#524,#525,#526,#527,#528,#529,#530,#531,#532,#533,
#534,#535,#536,#537,#538,#539,#540,#541,#542,#543,#544,#545,#546,#547,#548,
#549,#550,#551,#552,#553,#554,#555,#556,#557,#558,#559));
#561=STYLED_ITEM('',(#562),#569);
#562=PRESENTATION_STYLE_ASSIGNMENT((#563));
#563=SURFACE_STYLE_USAGE(.BOTH.,#564);
#564=SURFACE_SIDE_STYLE('',(#565));
#565=SURFACE_STYLE_FILL_AREA(#566);
#566=FILL_AREA_STYLE('',(#567));
#567=FILL_AREA_STYLE_COLOUR('',#568);
#568=COLOUR_RGB('',0.972549019607843,0.529411764705882,0.00392156862745098);
#569=MANIFOLD_SOLID_BREP('Part 3',#560);
#570=SHAPE_DEFINITION_REPRESENTATION(#986,#571);
#571=SHAPE_REPRESENTATION('Part 3',(#572),#981);
#572=AXIS2_PLACEMENT_3D('',#839,#661,#662);
#573=AXIS2_PLACEMENT_3D('',#840,#663,#664);
#574=AXIS2_PLACEMENT_3D('',#841,#665,#666);
#575=AXIS2_PLACEMENT_3D('',#843,#667,#668);
#576=AXIS2_PLACEMENT_3D('',#845,#669,#670);
#577=AXIS2_PLACEMENT_3D('',#846,#671,#672);
#578=AXIS2_PLACEMENT_3D('',#848,#673,#674);
#579=AXIS2_PLACEMENT_3D('',#850,#675,#676);
#580=AXIS2_PLACEMENT_3D('',#851,#677,#678);
#581=AXIS2_PLACEMENT_3D('',#853,#679,#680);
#582=AXIS2_PLACEMENT_3D('',#855,#681,#682);
#583=AXIS2_PLACEMENT_3D('',#857,#683,#684);
#584=AXIS2_PLACEMENT_3D('',#859,#685,#686);
#585=AXIS2_PLACEMENT_3D('',#861,#687,#688);
#586=AXIS2_PLACEMENT_3D('',#863,#689,#690);
#587=AXIS2_PLACEMENT_3D('',#865,#691,#692);
#588=AXIS2_PLACEMENT_3D('',#867,#693,#694);
#589=AXIS2_PLACEMENT_3D('',#869,#695,#696);
#590=AXIS2_PLACEMENT_3D('',#871,#697,#698);
#591=AXIS2_PLACEMENT_3D('',#873,#699,#700);
#592=AXIS2_PLACEMENT_3D('',#875,#701,#702);
#593=AXIS2_PLACEMENT_3D('',#877,#703,#704);
#594=AXIS2_PLACEMENT_3D('',#879,#705,#706);
#595=AXIS2_PLACEMENT_3D('',#881,#707,#708);
#596=AXIS2_PLACEMENT_3D('',#883,#709,#710);
#597=AXIS2_PLACEMENT_3D('',#884,#711,#712);
#598=AXIS2_PLACEMENT_3D('',#886,#713,#714);
#599=AXIS2_PLACEMENT_3D('',#888,#715,#716);
#600=AXIS2_PLACEMENT_3D('',#890,#717,#718);
#601=AXIS2_PLACEMENT_3D('',#892,#719,#720);
#602=AXIS2_PLACEMENT_3D('',#894,#721,#722);
#603=AXIS2_PLACEMENT_3D('',#896,#723,#724);
#604=AXIS2_PLACEMENT_3D('',#898,#725,#726);
#605=AXIS2_PLACEMENT_3D('',#900,#727,#728);
#606=AXIS2_PLACEMENT_3D('',#902,#729,#730);
#607=AXIS2_PLACEMENT_3D('',#904,#731,#732);
#608=AXIS2_PLACEMENT_3D('',#906,#733,#734);
#609=AXIS2_PLACEMENT_3D('',#908,#735,#736);
#610=AXIS2_PLACEMENT_3D('',#910,#737,#738);
#611=AXIS2_PLACEMENT_3D('',#912,#739,#740);
#612=AXIS2_PLACEMENT_3D('',#914,#741,#742);
#613=AXIS2_PLACEMENT_3D('',#916,#743,#744);
#614=AXIS2_PLACEMENT_3D('',#917,#745,#746);
#615=AXIS2_PLACEMENT_3D('',#919,#747,#748);
#616=AXIS2_PLACEMENT_3D('',#920,#749,#750);
#617=AXIS2_PLACEMENT_3D('',#921,#751,#752);
#618=AXIS2_PLACEMENT_3D('',#923,#753,#754);
#619=AXIS2_PLACEMENT_3D('',#924,#755,#756);
#620=AXIS2_PLACEMENT_3D('',#925,#757,#758);
#621=AXIS2_PLACEMENT_3D('',#927,#759,#760);
#622=AXIS2_PLACEMENT_3D('',#928,#761,#762);
#623=AXIS2_PLACEMENT_3D('',#929,#763,#764);
#624=AXIS2_PLACEMENT_3D('',#931,#765,#766);
#625=AXIS2_PLACEMENT_3D('',#932,#767,#768);
#626=AXIS2_PLACEMENT_3D('',#933,#769,#770);
#627=AXIS2_PLACEMENT_3D('',#935,#771,#772);
#628=AXIS2_PLACEMENT_3D('',#936,#773,#774);
#629=AXIS2_PLACEMENT_3D('',#937,#775,#776);
#630=AXIS2_PLACEMENT_3D('',#939,#777,#778);
#631=AXIS2_PLACEMENT_3D('',#940,#779,#780);
#632=AXIS2_PLACEMENT_3D('',#941,#781,#782);
#633=AXIS2_PLACEMENT_3D('',#943,#783,#784);
#634=AXIS2_PLACEMENT_3D('',#944,#785,#786);
#635=AXIS2_PLACEMENT_3D('',#945,#787,#788);
#636=AXIS2_PLACEMENT_3D('',#947,#789,#790);
#637=AXIS2_PLACEMENT_3D('',#948,#791,#792);
#638=AXIS2_PLACEMENT_3D('',#949,#793,#794);
#639=AXIS2_PLACEMENT_3D('',#951,#795,#796);
#640=AXIS2_PLACEMENT_3D('',#952,#797,#798);
#641=AXIS2_PLACEMENT_3D('',#953,#799,#800);
#642=AXIS2_PLACEMENT_3D('',#955,#801,#802);
#643=AXIS2_PLACEMENT_3D('',#956,#803,#804);
#644=AXIS2_PLACEMENT_3D('',#957,#805,#806);
#645=AXIS2_PLACEMENT_3D('',#959,#807,#808);
#646=AXIS2_PLACEMENT_3D('',#960,#809,#810);
#647=AXIS2_PLACEMENT_3D('',#961,#811,#812);
#648=AXIS2_PLACEMENT_3D('',#963,#813,#814);
#649=AXIS2_PLACEMENT_3D('',#964,#815,#816);
#650=AXIS2_PLACEMENT_3D('',#965,#817,#818);
#651=AXIS2_PLACEMENT_3D('',#967,#819,#820);
#652=AXIS2_PLACEMENT_3D('',#968,#821,#822);
#653=AXIS2_PLACEMENT_3D('',#969,#823,#824);
#654=AXIS2_PLACEMENT_3D('',#971,#825,#826);
#655=AXIS2_PLACEMENT_3D('',#972,#827,#828);
#656=AXIS2_PLACEMENT_3D('',#973,#829,#830);
#657=AXIS2_PLACEMENT_3D('',#975,#831,#832);
#658=AXIS2_PLACEMENT_3D('',#976,#833,#834);
#659=AXIS2_PLACEMENT_3D('',#977,#835,#836);
#660=AXIS2_PLACEMENT_3D('',#979,#837,#838);
#661=DIRECTION('',(0.,0.,1.));
#662=DIRECTION('',(1.,0.,0.));
#663=DIRECTION('',(0.,0.,-1.));
#664=DIRECTION('',(-1.,0.,0.));
#665=DIRECTION('',(0.,0.,1.));
#666=DIRECTION('',(1.,0.,0.));
#667=DIRECTION('',(0.,0.,1.));
#668=DIRECTION('',(1.,0.,0.));
#669=DIRECTION('',(0.,0.,-1.));
#670=DIRECTION('',(-1.,0.,0.));
#671=DIRECTION('',(0.,0.,1.));
#672=DIRECTION('',(1.,0.,0.));
#673=DIRECTION('',(0.,0.,1.));
#674=DIRECTION('',(1.,0.,0.));
#675=DIRECTION('',(0.,0.,1.));
#676=DIRECTION('',(1.,0.,0.));
#677=DIRECTION('',(0.,0.,-1.));
#678=DIRECTION('',(-1.,0.,0.));
#679=DIRECTION('',(0.,0.,-1.));
#680=DIRECTION('',(-1.,0.,0.));
#681=DIRECTION('',(0.,0.,-1.));
#682=DIRECTION('',(-1.,0.,0.));
#683=DIRECTION('',(0.,0.,-1.));
#684=DIRECTION('',(-1.,0.,0.));
#685=DIRECTION('',(0.,0.,-1.));
#686=DIRECTION('',(-1.,0.,0.));
#687=DIRECTION('',(0.,0.,-1.));
#688=DIRECTION('',(-1.,0.,0.));
#689=DIRECTION('',(0.,0.,-1.));
#690=DIRECTION('',(-1.,0.,0.));
#691=DIRECTION('',(0.,0.,-1.));
#692=DIRECTION('',(-1.,0.,0.));
#693=DIRECTION('',(0.,0.,-1.));
#694=DIRECTION('',(-1.,0.,0.));
#695=DIRECTION('',(0.,0.,-1.));
#696=DIRECTION('',(-1.,0.,0.));
#697=DIRECTION('',(0.,0.,-1.));
#698=DIRECTION('',(-1.,0.,0.));
#699=DIRECTION('',(0.,0.,-1.));
#700=DIRECTION('',(-1.,0.,0.));
#701=DIRECTION('',(0.,0.,-1.));
#702=DIRECTION('',(-1.,0.,0.));
#703=DIRECTION('',(0.,0.,-1.));
#704=DIRECTION('',(-1.,0.,0.));
#705=DIRECTION('',(0.,0.,-1.));
#706=DIRECTION('',(-1.,0.,0.));
#707=DIRECTION('',(0.,0.,-1.));
#708=DIRECTION('',(-1.,0.,0.));
#709=DIRECTION('',(0.,0.,1.));
#710=DIRECTION('',(1.,0.,0.));
#711=DIRECTION('',(0.,0.,1.));
#712=DIRECTION('',(1.,0.,0.));
#713=DIRECTION('',(0.,0.,1.));
#714=DIRECTION('',(1.,0.,0.));
#715=DIRECTION('',(0.,0.,1.));
#716=DIRECTION('',(1.,0.,0.));
#717=DIRECTION('',(0.,0.,1.));
#718=DIRECTION('',(1.,0.,0.));
#719=DIRECTION('',(0.,0.,1.));
#720=DIRECTION('',(1.,0.,0.));
#721=DIRECTION('',(0.,0.,1.));
#722=DIRECTION('',(1.,0.,0.));
#723=DIRECTION('',(0.,0.,1.));
#724=DIRECTION('',(1.,0.,0.));
#725=DIRECTION('',(0.,0.,1.));
#726=DIRECTION('',(1.,0.,0.));
#727=DIRECTION('',(0.,0.,1.));
#728=DIRECTION('',(1.,0.,0.));
#729=DIRECTION('',(0.,0.,1.));
#730=DIRECTION('',(1.,0.,0.));
#731=DIRECTION('',(0.,0.,1.));
#732=DIRECTION('',(1.,0.,0.));
#733=DIRECTION('',(0.,0.,1.));
#734=DIRECTION('',(1.,0.,0.));
#735=DIRECTION('',(0.,0.,1.));
#736=DIRECTION('',(1.,0.,0.));
#737=DIRECTION('',(0.,0.,1.));
#738=DIRECTION('',(1.,0.,0.));
#739=DIRECTION('',(0.,0.,1.));
#740=DIRECTION('',(1.,0.,0.));
#741=DIRECTION('',(0.,0.,1.));
#742=DIRECTION('',(1.,0.,0.));
#743=DIRECTION('',(0.,0.,-1.));
#744=DIRECTION('',(-1.,0.,0.));
#745=DIRECTION('',(0.,0.,-1.));
#746=DIRECTION('',(-1.,0.,0.));
#747=DIRECTION('',(0.,0.,1.));
#748=DIRECTION('',(1.,0.,0.));
#749=DIRECTION('',(0.,0.,-1.));
#750=DIRECTION('',(-1.,0.,0.));
#751=DIRECTION('',(0.,0.,-1.));
#752=DIRECTION('',(-1.,0.,0.));
#753=DIRECTION('',(0.,0.,1.));
#754=DIRECTION('',(1.,0.,0.));
#755=DIRECTION('',(0.,0.,-1.));
#756=DIRECTION('',(-1.,0.,0.));
#757=DIRECTION('',(0.,0.,-1.));
#758=DIRECTION('',(-1.,0.,0.));
#759=DIRECTION('',(0.,0.,1.));
#760=DIRECTION('',(1.,0.,0.));
#761=DIRECTION('',(0.,0.,-1.));
#762=DIRECTION('',(-1.,0.,0.));
#763=DIRECTION('',(0.,0.,-1.));
#764=DIRECTION('',(-1.,0.,0.));
#765=DIRECTION('',(0.,0.,1.));
#766=DIRECTION('',(1.,0.,0.));
#767=DIRECTION('',(0.,0.,-1.));
#768=DIRECTION('',(-1.,0.,0.));
#769=DIRECTION('',(0.,0.,-1.));
#770=DIRECTION('',(-1.,0.,0.));
#771=DIRECTION('',(0.,0.,1.));
#772=DIRECTION('',(1.,0.,0.));
#773=DIRECTION('',(0.,0.,-1.));
#774=DIRECTION('',(-1.,0.,0.));
#775=DIRECTION('',(0.,0.,-1.));
#776=DIRECTION('',(-1.,0.,0.));
#777=DIRECTION('',(0.,0.,1.));
#778=DIRECTION('',(1.,0.,0.));
#779=DIRECTION('',(0.,0.,-1.));
#780=DIRECTION('',(-1.,0.,0.));
#781=DIRECTION('',(0.,0.,-1.));
#782=DIRECTION('',(-1.,0.,0.));
#783=DIRECTION('',(0.,0.,1.));
#784=DIRECTION('',(1.,0.,0.));
#785=DIRECTION('',(0.,0.,-1.));
#786=DIRECTION('',(-1.,0.,0.));
#787=DIRECTION('',(0.,0.,-1.));
#788=DIRECTION('',(-1.,0.,0.));
#789=DIRECTION('',(0.,0.,1.));
#790=DIRECTION('',(1.,0.,0.));
#791=DIRECTION('',(0.,0.,-1.));
#792=DIRECTION('',(-1.,0.,0.));
#793=DIRECTION('',(0.,0.,-1.));
#794=DIRECTION('',(-1.,0.,0.));
#795=DIRECTION('',(0.,0.,1.));
#796=DIRECTION('',(1.,0.,0.));
#797=DIRECTION('',(0.,0.,-1.));
#798=DIRECTION('',(-1.,0.,0.));
#799=DIRECTION('',(0.,0.,-1.));
#800=DIRECTION('',(-1.,0.,0.));
#801=DIRECTION('',(0.,0.,1.));
#802=DIRECTION('',(1.,0.,0.));
#803=DIRECTION('',(0.,0.,-1.));
#804=DIRECTION('',(-1.,0.,0.));
#805=DIRECTION('',(0.,0.,-1.));
#806=DIRECTION('',(-1.,0.,0.));
#807=DIRECTION('',(0.,0.,1.));
#808=DIRECTION('',(1.,0.,0.));
#809=DIRECTION('',(0.,0.,-1.));
#810=DIRECTION('',(-1.,0.,0.));
#811=DIRECTION('',(0.,0.,-1.));
#812=DIRECTION('',(-1.,0.,0.));
#813=DIRECTION('',(0.,0.,1.));
#814=DIRECTION('',(1.,0.,0.));
#815=DIRECTION('',(0.,0.,-1.));
#816=DIRECTION('',(-1.,0.,0.));
#817=DIRECTION('',(0.,0.,-1.));
#818=DIRECTION('',(-1.,0.,0.));
#819=DIRECTION('',(0.,0.,1.));
#820=DIRECTION('',(1.,0.,0.));
#821=DIRECTION('',(0.,0.,-1.));
#822=DIRECTION('',(-1.,0.,0.));
#823=DIRECTION('',(0.,0.,-1.));
#824=DIRECTION('',(-1.,0.,0.));
#825=DIRECTION('',(0.,0.,1.));
#826=DIRECTION('',(1.,0.,0.));
#827=DIRECTION('',(0.,0.,-1.));
#828=DIRECTION('',(-1.,0.,0.));
#829=DIRECTION('',(0.,0.,-1.));
#830=DIRECTION('',(-1.,0.,0.));
#831=DIRECTION('',(0.,0.,1.));
#832=DIRECTION('',(1.,0.,0.));
#833=DIRECTION('',(0.,0.,-1.));
#834=DIRECTION('',(-1.,0.,0.));
#835=DIRECTION('',(0.,0.,-1.));
#836=DIRECTION('',(-1.,0.,0.));
#837=DIRECTION('',(0.,0.,1.));
#838=DIRECTION('',(1.,0.,0.));
#839=CARTESIAN_POINT('',(0.,0.,0.));
#840=CARTESIAN_POINT('',(0.,7.34788079488412E-18,0.07875));
#841=CARTESIAN_POINT('',(0.,7.34788079488412E-18,0.07875));
#842=CARTESIAN_POINT('',(0.125,7.34788079488412E-18,0.07875));
#843=CARTESIAN_POINT('',(0.,7.34788079488412E-18,0.075));
#844=CARTESIAN_POINT('',(0.125,7.34788079488412E-18,0.075));
#845=CARTESIAN_POINT('',(0.,2.98507657292167E-18,0.07875));
#846=CARTESIAN_POINT('',(0.,2.98507657292167E-18,0.07875));
#847=CARTESIAN_POINT('',(0.05375,2.98507657292167E-18,0.07875));
#848=CARTESIAN_POINT('',(0.,2.98507657292167E-18,0.075));
#849=CARTESIAN_POINT('',(0.05375,2.98507657292167E-18,0.075));
#850=CARTESIAN_POINT('',(0.,0.,0.07875));
#851=CARTESIAN_POINT('',(0.0864,-0.0197453792062857,0.07875));
#852=CARTESIAN_POINT('',(0.08304,-0.0197453792062857,0.07875));
#853=CARTESIAN_POINT('',(0.0864,0.0197453792062844,0.07875));
#854=CARTESIAN_POINT('',(0.08304,0.0197453792062844,0.07875));
#855=CARTESIAN_POINT('',(0.0864,0.0592361376188547,0.07875));
#856=CARTESIAN_POINT('',(0.08304,0.0592361376188547,0.07875));
#857=CARTESIAN_POINT('',(-0.0978,-0.0394907584125713,0.07875));
#858=CARTESIAN_POINT('',(-0.10116,-0.0394907584125713,0.07875));
#859=CARTESIAN_POINT('',(0.0864,-0.059236137618856,0.07875));
#860=CARTESIAN_POINT('',(0.08304,-0.059236137618856,0.07875));
#861=CARTESIAN_POINT('',(-0.0864,-0.059236137618856,0.07875));
#862=CARTESIAN_POINT('',(-0.08976,-0.059236137618856,0.07875));
#863=CARTESIAN_POINT('',(-0.0864,-0.0197453792062857,0.07875));
#864=CARTESIAN_POINT('',(-0.08976,-0.0197453792062857,0.07875));
#865=CARTESIAN_POINT('',(-0.0864,0.0197453792062844,0.07875));
#866=CARTESIAN_POINT('',(-0.08976,0.0197453792062844,0.07875));
#867=CARTESIAN_POINT('',(-0.0522,0.0789815168251392,0.07875));
#868=CARTESIAN_POINT('',(-0.05556,0.0789815168251392,0.07875));
#869=CARTESIAN_POINT('',(0.0522,0.0789815168251393,0.07875));
#870=CARTESIAN_POINT('',(0.04884,0.0789815168251393,0.07875));
#871=CARTESIAN_POINT('',(0.0522,-0.0789815168251416,0.07875));
#872=CARTESIAN_POINT('',(0.04884,-0.0789815168251416,0.07875));
#873=CARTESIAN_POINT('',(-0.0522,-0.0789815168251416,0.07875));
#874=CARTESIAN_POINT('',(-0.05556,-0.0789815168251416,0.07875));
#875=CARTESIAN_POINT('',(0.0978,-0.0394907584125714,0.07875));
#876=CARTESIAN_POINT('',(0.09444,-0.0394907584125714,0.07875));
#877=CARTESIAN_POINT('',(0.0978,0.0394907584125695,0.07875));
#878=CARTESIAN_POINT('',(0.09444,0.0394907584125695,0.07875));
#879=CARTESIAN_POINT('',(-0.0978,0.0394907584125691,0.07875));
#880=CARTESIAN_POINT('',(-0.10116,0.0394907584125691,0.07875));
#881=CARTESIAN_POINT('',(-0.0864,0.0592361376188547,0.07875));
#882=CARTESIAN_POINT('',(-0.08976,0.0592361376188547,0.07875));
#883=CARTESIAN_POINT('',(0.,0.,0.075));
#884=CARTESIAN_POINT('',(0.0864,-0.0197453792062857,0.075));
#885=CARTESIAN_POINT('',(0.088,-0.0197453792062857,0.075));
#886=CARTESIAN_POINT('',(0.0864,0.0197453792062844,0.075));
#887=CARTESIAN_POINT('',(0.088,0.0197453792062844,0.075));
#888=CARTESIAN_POINT('',(0.0864,0.0592361376188547,0.075));
#889=CARTESIAN_POINT('',(0.088,0.0592361376188547,0.075));
#890=CARTESIAN_POINT('',(-0.0978,-0.0394907584125713,0.075));
#891=CARTESIAN_POINT('',(-0.0962,-0.0394907584125713,0.075));
#892=CARTESIAN_POINT('',(0.0864,-0.059236137618856,0.075));
#893=CARTESIAN_POINT('',(0.088,-0.059236137618856,0.075));
#894=CARTESIAN_POINT('',(-0.0864,-0.059236137618856,0.075));
#895=CARTESIAN_POINT('',(-0.0848,-0.059236137618856,0.075));
#896=CARTESIAN_POINT('',(-0.0864,-0.0197453792062857,0.075));
#897=CARTESIAN_POINT('',(-0.0848,-0.0197453792062857,0.075));
#898=CARTESIAN_POINT('',(-0.0864,0.0197453792062844,0.075));
#899=CARTESIAN_POINT('',(-0.0848,0.0197453792062844,0.075));
#900=CARTESIAN_POINT('',(-0.0522,0.0789815168251392,0.075));
#901=CARTESIAN_POINT('',(-0.0506,0.0789815168251392,0.075));
#902=CARTESIAN_POINT('',(0.0522,0.0789815168251393,0.075));
#903=CARTESIAN_POINT('',(0.0538,0.0789815168251393,0.075));
#904=CARTESIAN_POINT('',(0.0522,-0.0789815168251416,0.075));
#905=CARTESIAN_POINT('',(0.0538,-0.0789815168251416,0.075));
#906=CARTESIAN_POINT('',(-0.0522,-0.0789815168251416,0.075));
#907=CARTESIAN_POINT('',(-0.0506,-0.0789815168251416,0.075));
#908=CARTESIAN_POINT('',(0.0978,-0.0394907584125714,0.075));
#909=CARTESIAN_POINT('',(0.0994,-0.0394907584125714,0.075));
#910=CARTESIAN_POINT('',(0.0978,0.0394907584125695,0.075));
#911=CARTESIAN_POINT('',(0.0994,0.0394907584125695,0.075));
#912=CARTESIAN_POINT('',(-0.0978,0.0394907584125691,0.075));
#913=CARTESIAN_POINT('',(-0.0962,0.0394907584125691,0.075));
#914=CARTESIAN_POINT('',(-0.0864,0.0592361376188547,0.075));
#915=CARTESIAN_POINT('',(-0.0848,0.0592361376188547,0.075));
#916=CARTESIAN_POINT('',(-0.0864,0.0592361376188547,0.07875));
#917=CARTESIAN_POINT('',(-0.0864,0.0592361376188547,0.07699));
#918=CARTESIAN_POINT('',(-0.088,0.0592361376188547,0.07699));
#919=CARTESIAN_POINT('',(-0.0864,0.0592361376188547,0.07875));
#920=CARTESIAN_POINT('',(-0.0978,0.0394907584125691,0.07875));
#921=CARTESIAN_POINT('',(-0.0978,0.0394907584125691,0.07699));
#922=CARTESIAN_POINT('',(-0.0994,0.0394907584125691,0.07699));
#923=CARTESIAN_POINT('',(-0.0978,0.0394907584125691,0.07875));
#924=CARTESIAN_POINT('',(0.0978,0.0394907584125695,0.07875));
#925=CARTESIAN_POINT('',(0.0978,0.0394907584125695,0.07699));
#926=CARTESIAN_POINT('',(0.0962,0.0394907584125695,0.07699));
#927=CARTESIAN_POINT('',(0.0978,0.0394907584125695,0.07875));
#928=CARTESIAN_POINT('',(0.0978,-0.0394907584125714,0.07875));
#929=CARTESIAN_POINT('',(0.0978,-0.0394907584125714,0.07699));
#930=CARTESIAN_POINT('',(0.0962,-0.0394907584125714,0.07699));
#931=CARTESIAN_POINT('',(0.0978,-0.0394907584125714,0.07875));
#932=CARTESIAN_POINT('',(-0.0522,-0.0789815168251416,0.07875));
#933=CARTESIAN_POINT('',(-0.0522,-0.0789815168251416,0.07699));
#934=CARTESIAN_POINT('',(-0.0538,-0.0789815168251416,0.07699));
#935=CARTESIAN_POINT('',(-0.0522,-0.0789815168251416,0.07875));
#936=CARTESIAN_POINT('',(0.0522,-0.0789815168251416,0.07875));
#937=CARTESIAN_POINT('',(0.0522,-0.0789815168251416,0.07699));
#938=CARTESIAN_POINT('',(0.0506,-0.0789815168251416,0.07699));
#939=CARTESIAN_POINT('',(0.0522,-0.0789815168251416,0.07875));
#940=CARTESIAN_POINT('',(0.0522,0.0789815168251393,0.07875));
#941=CARTESIAN_POINT('',(0.0522,0.0789815168251393,0.07699));
#942=CARTESIAN_POINT('',(0.0506,0.0789815168251393,0.07699));
#943=CARTESIAN_POINT('',(0.0522,0.0789815168251393,0.07875));
#944=CARTESIAN_POINT('',(-0.0522,0.0789815168251392,0.07875));
#945=CARTESIAN_POINT('',(-0.0522,0.0789815168251392,0.07699));
#946=CARTESIAN_POINT('',(-0.0538,0.0789815168251392,0.07699));
#947=CARTESIAN_POINT('',(-0.0522,0.0789815168251392,0.07875));
#948=CARTESIAN_POINT('',(-0.0864,0.0197453792062844,0.07875));
#949=CARTESIAN_POINT('',(-0.0864,0.0197453792062844,0.07699));
#950=CARTESIAN_POINT('',(-0.088,0.0197453792062844,0.07699));
#951=CARTESIAN_POINT('',(-0.0864,0.0197453792062844,0.07875));
#952=CARTESIAN_POINT('',(-0.0864,-0.0197453792062857,0.07875));
#953=CARTESIAN_POINT('',(-0.0864,-0.0197453792062857,0.07699));
#954=CARTESIAN_POINT('',(-0.088,-0.0197453792062857,0.07699));
#955=CARTESIAN_POINT('',(-0.0864,-0.0197453792062857,0.07875));
#956=CARTESIAN_POINT('',(-0.0864,-0.059236137618856,0.07875));
#957=CARTESIAN_POINT('',(-0.0864,-0.059236137618856,0.07699));
#958=CARTESIAN_POINT('',(-0.088,-0.059236137618856,0.07699));
#959=CARTESIAN_POINT('',(-0.0864,-0.059236137618856,0.07875));
#960=CARTESIAN_POINT('',(0.0864,-0.059236137618856,0.07875));
#961=CARTESIAN_POINT('',(0.0864,-0.059236137618856,0.07699));
#962=CARTESIAN_POINT('',(0.0848,-0.059236137618856,0.07699));
#963=CARTESIAN_POINT('',(0.0864,-0.059236137618856,0.07875));
#964=CARTESIAN_POINT('',(-0.0978,-0.0394907584125713,0.07875));
#965=CARTESIAN_POINT('',(-0.0978,-0.0394907584125713,0.07699));
#966=CARTESIAN_POINT('',(-0.0994,-0.0394907584125713,0.07699));
#967=CARTESIAN_POINT('',(-0.0978,-0.0394907584125713,0.07875));
#968=CARTESIAN_POINT('',(0.0864,0.0592361376188547,0.07875));
#969=CARTESIAN_POINT('',(0.0864,0.0592361376188547,0.07699));
#970=CARTESIAN_POINT('',(0.0848,0.0592361376188547,0.07699));
#971=CARTESIAN_POINT('',(0.0864,0.0592361376188547,0.07875));
#972=CARTESIAN_POINT('',(0.0864,0.0197453792062844,0.07875));
#973=CARTESIAN_POINT('',(0.0864,0.0197453792062844,0.07699));
#974=CARTESIAN_POINT('',(0.0848,0.0197453792062844,0.07699));
#975=CARTESIAN_POINT('',(0.0864,0.0197453792062844,0.07875));
#976=CARTESIAN_POINT('',(0.0864,-0.0197453792062857,0.07875));
#977=CARTESIAN_POINT('',(0.0864,-0.0197453792062857,0.07699));
#978=CARTESIAN_POINT('',(0.0848,-0.0197453792062857,0.07699));
#979=CARTESIAN_POINT('',(0.0864,-0.0197453792062857,0.07875));
#980=MECHANICAL_DESIGN_GEOMETRIC_PRESENTATION_REPRESENTATION('',(#561),
#981);
#981=(
GEOMETRIC_REPRESENTATION_CONTEXT(3)
GLOBAL_UNCERTAINTY_ASSIGNED_CONTEXT((#982))
GLOBAL_UNIT_ASSIGNED_CONTEXT((#985,#984,#983))
REPRESENTATION_CONTEXT('Part 3','TOP_LEVEL_ASSEMBLY_PART')
);
#982=UNCERTAINTY_MEASURE_WITH_UNIT(LENGTH_MEASURE(1.E-8),#985,
'DISTANCE_ACCURACY_VALUE','Maximum Tolerance applied to model');
#983=(
NAMED_UNIT(*)
SI_UNIT($,.STERADIAN.)
SOLID_ANGLE_UNIT()
);
#984=(
NAMED_UNIT(*)
PLANE_ANGLE_UNIT()
SI_UNIT($,.RADIAN.)
);
#985=(
LENGTH_UNIT()
NAMED_UNIT(*)
SI_UNIT($,.METRE.)
);
#986=PRODUCT_DEFINITION_SHAPE('','',#987);
#987=PRODUCT_DEFINITION('','',#989,#988);
#988=PRODUCT_DEFINITION_CONTEXT('',#995,'design');
#989=PRODUCT_DEFINITION_FORMATION_WITH_SPECIFIED_SOURCE('','',#991,
 .NOT_KNOWN.);
#990=PRODUCT_RELATED_PRODUCT_CATEGORY('','',(#991));
#991=PRODUCT('Part 3','Part 3','Part 3',(#993));
#992=PRODUCT_CATEGORY('','');
#993=PRODUCT_CONTEXT('',#995,'mechanical');
#994=APPLICATION_PROTOCOL_DEFINITION('international standard',
'automotive_design',2010,#995);
#995=APPLICATION_CONTEXT(
'core data for automotive mechanical design processes');
ENDSEC;
END-ISO-10303-21;
