ISO-10303-21;
HEADER;
/* Generated by software containing ST-Developer
 * from STEP Tools, Inc. (www.steptools.com) 
 */
/* OPTION: using custom renumber hook */

FILE_DESCRIPTION(
/* description */ ('STEP AP214',
'CAx-IF Rec.Pracs.---User Defined Attributes---1.5---2016-08-15'),
/* implementation_level */ '2;1');

FILE_NAME(
/* name */ 'Base turn - Part 1 (8)',
/* time_stamp */ '2026-05-17T02:39:04Z',
/* author */ (''),
/* organization */ (''),
/* preprocessor_version */ 'ST-DEVELOPER v20',
/* originating_system */ 'ONSHAPE BY PTC INC, 1.215',
/* authorisation */ '  ');

FILE_SCHEMA (('AUTOMOTIVE_DESIGN {1 0 10303 214 3 1 1}'));
ENDSEC;

DATA;
#10=PROPERTY_DEFINITION_REPRESENTATION(#14,#12);
#11=PROPERTY_DEFINITION_REPRESENTATION(#15,#13);
#12=REPRESENTATION('',(#16),#923);
#13=REPRESENTATION('',(#17),#923);
#14=PROPERTY_DEFINITION('pmi validation property','',#928);
#15=PROPERTY_DEFINITION('pmi validation property','',#928);
#16=VALUE_REPRESENTATION_ITEM('number of annotations',COUNT_MEASURE(0.));
#17=VALUE_REPRESENTATION_ITEM('number of views',COUNT_MEASURE(0.));
#18=SHAPE_REPRESENTATION_RELATIONSHIP('','',#550,#19);
#19=ADVANCED_BREP_SHAPE_REPRESENTATION('',(#548),#923);
#20=LINE('',#796,#56);
#21=LINE('',#800,#57);
#22=LINE('',#804,#58);
#23=LINE('',#808,#59);
#24=LINE('',#812,#60);
#25=LINE('',#816,#61);
#26=LINE('',#820,#62);
#27=LINE('',#824,#63);
#28=LINE('',#828,#64);
#29=LINE('',#842,#65);
#30=LINE('',#846,#66);
#31=LINE('',#847,#67);
#32=LINE('',#851,#68);
#33=LINE('',#852,#69);
#34=LINE('',#856,#70);
#35=LINE('',#863,#71);
#36=LINE('',#865,#72);
#37=LINE('',#867,#73);
#38=LINE('',#869,#74);
#39=LINE('',#871,#75);
#40=LINE('',#875,#76);
#41=LINE('',#877,#77);
#42=LINE('',#882,#78);
#43=LINE('',#884,#79);
#44=LINE('',#886,#80);
#45=LINE('',#888,#81);
#46=LINE('',#890,#82);
#47=LINE('',#894,#83);
#48=LINE('',#896,#84);
#49=LINE('',#901,#85);
#50=LINE('',#903,#86);
#51=LINE('',#905,#87);
#52=LINE('',#909,#88);
#53=LINE('',#911,#89);
#54=LINE('',#913,#90);
#55=LINE('',#917,#91);
#56=VECTOR('',#639,1.);
#57=VECTOR('',#642,1.);
#58=VECTOR('',#645,1.);
#59=VECTOR('',#648,1.);
#60=VECTOR('',#651,1.);
#61=VECTOR('',#654,1.);
#62=VECTOR('',#657,1.);
#63=VECTOR('',#660,1.);
#64=VECTOR('',#663,1.);
#65=VECTOR('',#682,1.);
#66=VECTOR('',#685,1.);
#67=VECTOR('',#686,1.);
#68=VECTOR('',#689,1.);
#69=VECTOR('',#690,1.);
#70=VECTOR('',#693,1.);
#71=VECTOR('',#702,1.);
#72=VECTOR('',#703,1.);
#73=VECTOR('',#706,1.);
#74=VECTOR('',#707,1.);
#75=VECTOR('',#710,1.);
#76=VECTOR('',#715,1.);
#77=VECTOR('',#716,1.);
#78=VECTOR('',#725,1.);
#79=VECTOR('',#726,1.);
#80=VECTOR('',#729,1.);
#81=VECTOR('',#730,1.);
#82=VECTOR('',#733,1.);
#83=VECTOR('',#738,1.);
#84=VECTOR('',#739,1.);
#85=VECTOR('',#748,1.);
#86=VECTOR('',#749,1.);
#87=VECTOR('',#752,1.);
#88=VECTOR('',#757,1.);
#89=VECTOR('',#758,1.);
#90=VECTOR('',#761,1.);
#91=VECTOR('',#766,1.);
#92=PLANE('',#558);
#93=PLANE('',#585);
#94=PLANE('',#587);
#95=PLANE('',#588);
#96=PLANE('',#591);
#97=PLANE('',#594);
#98=PLANE('',#595);
#99=PLANE('',#596);
#100=PLANE('',#599);
#101=PLANE('',#602);
#102=PLANE('',#603);
#103=PLANE('',#606);
#104=PLANE('',#609);
#105=PLANE('',#610);
#106=ORIENTED_EDGE('',*,*,#244,.T.);
#107=ORIENTED_EDGE('',*,*,#245,.F.);
#108=ORIENTED_EDGE('',*,*,#246,.T.);
#109=ORIENTED_EDGE('',*,*,#247,.F.);
#110=ORIENTED_EDGE('',*,*,#248,.F.);
#111=ORIENTED_EDGE('',*,*,#249,.F.);
#112=ORIENTED_EDGE('',*,*,#250,.F.);
#113=ORIENTED_EDGE('',*,*,#251,.F.);
#114=ORIENTED_EDGE('',*,*,#252,.T.);
#115=ORIENTED_EDGE('',*,*,#253,.T.);
#116=ORIENTED_EDGE('',*,*,#254,.T.);
#117=ORIENTED_EDGE('',*,*,#255,.F.);
#118=ORIENTED_EDGE('',*,*,#256,.F.);
#119=ORIENTED_EDGE('',*,*,#257,.F.);
#120=ORIENTED_EDGE('',*,*,#258,.T.);
#121=ORIENTED_EDGE('',*,*,#259,.T.);
#122=ORIENTED_EDGE('',*,*,#260,.T.);
#123=ORIENTED_EDGE('',*,*,#261,.F.);
#124=ORIENTED_EDGE('',*,*,#262,.F.);
#125=ORIENTED_EDGE('',*,*,#263,.F.);
#126=ORIENTED_EDGE('',*,*,#264,.T.);
#127=ORIENTED_EDGE('',*,*,#265,.T.);
#128=ORIENTED_EDGE('',*,*,#266,.T.);
#129=ORIENTED_EDGE('',*,*,#267,.F.);
#130=ORIENTED_EDGE('',*,*,#268,.F.);
#131=ORIENTED_EDGE('',*,*,#269,.F.);
#132=ORIENTED_EDGE('',*,*,#251,.T.);
#133=ORIENTED_EDGE('',*,*,#270,.F.);
#134=ORIENTED_EDGE('',*,*,#250,.T.);
#135=ORIENTED_EDGE('',*,*,#271,.F.);
#136=ORIENTED_EDGE('',*,*,#249,.T.);
#137=ORIENTED_EDGE('',*,*,#272,.F.);
#138=ORIENTED_EDGE('',*,*,#248,.T.);
#139=ORIENTED_EDGE('',*,*,#273,.F.);
#140=ORIENTED_EDGE('',*,*,#252,.F.);
#141=ORIENTED_EDGE('',*,*,#274,.F.);
#142=ORIENTED_EDGE('',*,*,#275,.F.);
#143=ORIENTED_EDGE('',*,*,#276,.T.);
#144=ORIENTED_EDGE('',*,*,#264,.F.);
#145=ORIENTED_EDGE('',*,*,#277,.F.);
#146=ORIENTED_EDGE('',*,*,#278,.F.);
#147=ORIENTED_EDGE('',*,*,#279,.T.);
#148=ORIENTED_EDGE('',*,*,#258,.F.);
#149=ORIENTED_EDGE('',*,*,#280,.F.);
#150=ORIENTED_EDGE('',*,*,#281,.F.);
#151=ORIENTED_EDGE('',*,*,#282,.T.);
#152=ORIENTED_EDGE('',*,*,#283,.T.);
#153=ORIENTED_EDGE('',*,*,#245,.T.);
#154=ORIENTED_EDGE('',*,*,#247,.T.);
#155=ORIENTED_EDGE('',*,*,#284,.T.);
#156=ORIENTED_EDGE('',*,*,#273,.T.);
#157=ORIENTED_EDGE('',*,*,#272,.T.);
#158=ORIENTED_EDGE('',*,*,#271,.T.);
#159=ORIENTED_EDGE('',*,*,#270,.T.);
#160=ORIENTED_EDGE('',*,*,#283,.F.);
#161=ORIENTED_EDGE('',*,*,#265,.F.);
#162=ORIENTED_EDGE('',*,*,#276,.F.);
#163=ORIENTED_EDGE('',*,*,#285,.T.);
#164=ORIENTED_EDGE('',*,*,#286,.T.);
#165=ORIENTED_EDGE('',*,*,#269,.T.);
#166=ORIENTED_EDGE('',*,*,#287,.F.);
#167=ORIENTED_EDGE('',*,*,#288,.F.);
#168=ORIENTED_EDGE('',*,*,#274,.T.);
#169=ORIENTED_EDGE('',*,*,#268,.T.);
#170=ORIENTED_EDGE('',*,*,#289,.F.);
#171=ORIENTED_EDGE('',*,*,#290,.F.);
#172=ORIENTED_EDGE('',*,*,#287,.T.);
#173=ORIENTED_EDGE('',*,*,#267,.T.);
#174=ORIENTED_EDGE('',*,*,#291,.F.);
#175=ORIENTED_EDGE('',*,*,#292,.F.);
#176=ORIENTED_EDGE('',*,*,#289,.T.);
#177=ORIENTED_EDGE('',*,*,#266,.F.);
#178=ORIENTED_EDGE('',*,*,#286,.F.);
#179=ORIENTED_EDGE('',*,*,#293,.T.);
#180=ORIENTED_EDGE('',*,*,#291,.T.);
#181=ORIENTED_EDGE('',*,*,#244,.F.);
#182=ORIENTED_EDGE('',*,*,#285,.F.);
#183=ORIENTED_EDGE('',*,*,#275,.T.);
#184=ORIENTED_EDGE('',*,*,#288,.T.);
#185=ORIENTED_EDGE('',*,*,#290,.T.);
#186=ORIENTED_EDGE('',*,*,#292,.T.);
#187=ORIENTED_EDGE('',*,*,#293,.F.);
#188=ORIENTED_EDGE('',*,*,#259,.F.);
#189=ORIENTED_EDGE('',*,*,#279,.F.);
#190=ORIENTED_EDGE('',*,*,#294,.T.);
#191=ORIENTED_EDGE('',*,*,#295,.T.);
#192=ORIENTED_EDGE('',*,*,#263,.T.);
#193=ORIENTED_EDGE('',*,*,#296,.F.);
#194=ORIENTED_EDGE('',*,*,#297,.F.);
#195=ORIENTED_EDGE('',*,*,#277,.T.);
#196=ORIENTED_EDGE('',*,*,#262,.T.);
#197=ORIENTED_EDGE('',*,*,#298,.F.);
#198=ORIENTED_EDGE('',*,*,#299,.F.);
#199=ORIENTED_EDGE('',*,*,#296,.T.);
#200=ORIENTED_EDGE('',*,*,#261,.T.);
#201=ORIENTED_EDGE('',*,*,#300,.F.);
#202=ORIENTED_EDGE('',*,*,#301,.F.);
#203=ORIENTED_EDGE('',*,*,#298,.T.);
#204=ORIENTED_EDGE('',*,*,#260,.F.);
#205=ORIENTED_EDGE('',*,*,#295,.F.);
#206=ORIENTED_EDGE('',*,*,#302,.T.);
#207=ORIENTED_EDGE('',*,*,#300,.T.);
#208=ORIENTED_EDGE('',*,*,#246,.F.);
#209=ORIENTED_EDGE('',*,*,#294,.F.);
#210=ORIENTED_EDGE('',*,*,#278,.T.);
#211=ORIENTED_EDGE('',*,*,#297,.T.);
#212=ORIENTED_EDGE('',*,*,#299,.T.);
#213=ORIENTED_EDGE('',*,*,#301,.T.);
#214=ORIENTED_EDGE('',*,*,#302,.F.);
#215=ORIENTED_EDGE('',*,*,#257,.T.);
#216=ORIENTED_EDGE('',*,*,#303,.F.);
#217=ORIENTED_EDGE('',*,*,#304,.F.);
#218=ORIENTED_EDGE('',*,*,#280,.T.);
#219=ORIENTED_EDGE('',*,*,#256,.T.);
#220=ORIENTED_EDGE('',*,*,#305,.F.);
#221=ORIENTED_EDGE('',*,*,#306,.F.);
#222=ORIENTED_EDGE('',*,*,#303,.T.);
#223=ORIENTED_EDGE('',*,*,#255,.T.);
#224=ORIENTED_EDGE('',*,*,#307,.F.);
#225=ORIENTED_EDGE('',*,*,#308,.F.);
#226=ORIENTED_EDGE('',*,*,#305,.T.);
#227=ORIENTED_EDGE('',*,*,#254,.F.);
#228=ORIENTED_EDGE('',*,*,#309,.F.);
#229=ORIENTED_EDGE('',*,*,#310,.T.);
#230=ORIENTED_EDGE('',*,*,#307,.T.);
#231=ORIENTED_EDGE('',*,*,#253,.F.);
#232=ORIENTED_EDGE('',*,*,#282,.F.);
#233=ORIENTED_EDGE('',*,*,#311,.T.);
#234=ORIENTED_EDGE('',*,*,#309,.T.);
#235=ORIENTED_EDGE('',*,*,#312,.F.);
#236=ORIENTED_EDGE('',*,*,#281,.T.);
#237=ORIENTED_EDGE('',*,*,#304,.T.);
#238=ORIENTED_EDGE('',*,*,#306,.T.);
#239=ORIENTED_EDGE('',*,*,#308,.T.);
#240=ORIENTED_EDGE('',*,*,#310,.F.);
#241=ORIENTED_EDGE('',*,*,#311,.F.);
#242=ORIENTED_EDGE('',*,*,#312,.T.);
#243=ORIENTED_EDGE('',*,*,#284,.F.);
#244=EDGE_CURVE('',#313,#313,#364,.T.);
#245=EDGE_CURVE('',#314,#314,#365,.T.);
#246=EDGE_CURVE('',#315,#315,#366,.T.);
#247=EDGE_CURVE('',#316,#316,#367,.T.);
#248=EDGE_CURVE('',#317,#317,#368,.T.);
#249=EDGE_CURVE('',#318,#318,#369,.T.);
#250=EDGE_CURVE('',#319,#319,#370,.T.);
#251=EDGE_CURVE('',#320,#320,#371,.T.);
#252=EDGE_CURVE('',#321,#322,#372,.T.);
#253=EDGE_CURVE('',#322,#323,#20,.T.);
#254=EDGE_CURVE('',#323,#324,#373,.T.);
#255=EDGE_CURVE('',#325,#324,#21,.T.);
#256=EDGE_CURVE('',#326,#325,#374,.T.);
#257=EDGE_CURVE('',#327,#326,#22,.T.);
#258=EDGE_CURVE('',#327,#328,#375,.T.);
#259=EDGE_CURVE('',#328,#329,#23,.T.);
#260=EDGE_CURVE('',#329,#330,#376,.T.);
#261=EDGE_CURVE('',#331,#330,#24,.T.);
#262=EDGE_CURVE('',#332,#331,#377,.T.);
#263=EDGE_CURVE('',#333,#332,#25,.T.);
#264=EDGE_CURVE('',#333,#334,#378,.T.);
#265=EDGE_CURVE('',#334,#335,#26,.T.);
#266=EDGE_CURVE('',#335,#336,#379,.T.);
#267=EDGE_CURVE('',#337,#336,#27,.T.);
#268=EDGE_CURVE('',#338,#337,#380,.T.);
#269=EDGE_CURVE('',#321,#338,#28,.T.);
#270=EDGE_CURVE('',#339,#339,#381,.T.);
#271=EDGE_CURVE('',#340,#340,#382,.T.);
#272=EDGE_CURVE('',#341,#341,#383,.T.);
#273=EDGE_CURVE('',#342,#342,#384,.T.);
#274=EDGE_CURVE('',#343,#321,#29,.T.);
#275=EDGE_CURVE('',#344,#343,#385,.T.);
#276=EDGE_CURVE('',#344,#334,#30,.T.);
#277=EDGE_CURVE('',#345,#333,#31,.T.);
#278=EDGE_CURVE('',#346,#345,#386,.T.);
#279=EDGE_CURVE('',#346,#328,#32,.T.);
#280=EDGE_CURVE('',#347,#327,#33,.T.);
#281=EDGE_CURVE('',#348,#347,#387,.T.);
#282=EDGE_CURVE('',#348,#322,#34,.T.);
#283=EDGE_CURVE('',#349,#349,#388,.T.);
#284=EDGE_CURVE('',#350,#350,#389,.T.);
#285=EDGE_CURVE('',#344,#351,#35,.T.);
#286=EDGE_CURVE('',#351,#335,#36,.T.);
#287=EDGE_CURVE('',#352,#338,#37,.T.);
#288=EDGE_CURVE('',#343,#352,#38,.T.);
#289=EDGE_CURVE('',#353,#337,#39,.T.);
#290=EDGE_CURVE('',#352,#353,#390,.T.);
#291=EDGE_CURVE('',#354,#336,#40,.T.);
#292=EDGE_CURVE('',#353,#354,#41,.T.);
#293=EDGE_CURVE('',#351,#354,#391,.T.);
#294=EDGE_CURVE('',#346,#355,#42,.T.);
#295=EDGE_CURVE('',#355,#329,#43,.T.);
#296=EDGE_CURVE('',#356,#332,#44,.T.);
#297=EDGE_CURVE('',#345,#356,#45,.T.);
#298=EDGE_CURVE('',#357,#331,#46,.T.);
#299=EDGE_CURVE('',#356,#357,#392,.T.);
#300=EDGE_CURVE('',#358,#330,#47,.T.);
#301=EDGE_CURVE('',#357,#358,#48,.T.);
#302=EDGE_CURVE('',#355,#358,#393,.T.);
#303=EDGE_CURVE('',#359,#326,#49,.T.);
#304=EDGE_CURVE('',#347,#359,#50,.T.);
#305=EDGE_CURVE('',#360,#325,#51,.T.);
#306=EDGE_CURVE('',#359,#360,#394,.T.);
#307=EDGE_CURVE('',#361,#324,#52,.T.);
#308=EDGE_CURVE('',#360,#361,#53,.T.);
#309=EDGE_CURVE('',#362,#323,#54,.T.);
#310=EDGE_CURVE('',#362,#361,#395,.T.);
#311=EDGE_CURVE('',#348,#362,#55,.T.);
#312=EDGE_CURVE('',#363,#363,#396,.T.);
#313=VERTEX_POINT('',#776);
#314=VERTEX_POINT('',#778);
#315=VERTEX_POINT('',#781);
#316=VERTEX_POINT('',#783);
#317=VERTEX_POINT('',#786);
#318=VERTEX_POINT('',#788);
#319=VERTEX_POINT('',#790);
#320=VERTEX_POINT('',#792);
#321=VERTEX_POINT('',#794);
#322=VERTEX_POINT('',#795);
#323=VERTEX_POINT('',#797);
#324=VERTEX_POINT('',#799);
#325=VERTEX_POINT('',#801);
#326=VERTEX_POINT('',#803);
#327=VERTEX_POINT('',#805);
#328=VERTEX_POINT('',#807);
#329=VERTEX_POINT('',#809);
#330=VERTEX_POINT('',#811);
#331=VERTEX_POINT('',#813);
#332=VERTEX_POINT('',#815);
#333=VERTEX_POINT('',#817);
#334=VERTEX_POINT('',#819);
#335=VERTEX_POINT('',#821);
#336=VERTEX_POINT('',#823);
#337=VERTEX_POINT('',#825);
#338=VERTEX_POINT('',#827);
#339=VERTEX_POINT('',#831);
#340=VERTEX_POINT('',#834);
#341=VERTEX_POINT('',#837);
#342=VERTEX_POINT('',#840);
#343=VERTEX_POINT('',#843);
#344=VERTEX_POINT('',#845);
#345=VERTEX_POINT('',#848);
#346=VERTEX_POINT('',#850);
#347=VERTEX_POINT('',#853);
#348=VERTEX_POINT('',#855);
#349=VERTEX_POINT('',#858);
#350=VERTEX_POINT('',#861);
#351=VERTEX_POINT('',#864);
#352=VERTEX_POINT('',#868);
#353=VERTEX_POINT('',#872);
#354=VERTEX_POINT('',#876);
#355=VERTEX_POINT('',#883);
#356=VERTEX_POINT('',#887);
#357=VERTEX_POINT('',#891);
#358=VERTEX_POINT('',#895);
#359=VERTEX_POINT('',#902);
#360=VERTEX_POINT('',#906);
#361=VERTEX_POINT('',#910);
#362=VERTEX_POINT('',#914);
#363=VERTEX_POINT('',#920);
#364=CIRCLE('',#553,0.0015);
#365=CIRCLE('',#554,0.0015);
#366=CIRCLE('',#556,0.0015);
#367=CIRCLE('',#557,0.0015);
#368=CIRCLE('',#559,0.01575);
#369=CIRCLE('',#560,0.003);
#370=CIRCLE('',#561,0.003);
#371=CIRCLE('',#562,0.003);
#372=CIRCLE('',#563,0.04);
#373=CIRCLE('',#564,0.005);
#374=CIRCLE('',#565,0.005);
#375=CIRCLE('',#566,0.04);
#376=CIRCLE('',#567,0.005);
#377=CIRCLE('',#568,0.005);
#378=CIRCLE('',#569,0.04);
#379=CIRCLE('',#570,0.005);
#380=CIRCLE('',#571,0.005);
#381=CIRCLE('',#573,0.003);
#382=CIRCLE('',#575,0.003);
#383=CIRCLE('',#577,0.003);
#384=CIRCLE('',#579,0.01575);
#385=CIRCLE('',#581,0.04);
#386=CIRCLE('',#582,0.04);
#387=CIRCLE('',#583,0.04);
#388=CIRCLE('',#584,0.04);
#389=CIRCLE('',#586,0.0015);
#390=CIRCLE('',#590,0.005);
#391=CIRCLE('',#593,0.005);
#392=CIRCLE('',#598,0.005);
#393=CIRCLE('',#601,0.005);
#394=CIRCLE('',#605,0.005);
#395=CIRCLE('',#608,0.005);
#396=CIRCLE('',#611,0.0015);
#397=EDGE_LOOP('',(#106));
#398=EDGE_LOOP('',(#107));
#399=EDGE_LOOP('',(#108));
#400=EDGE_LOOP('',(#109));
#401=EDGE_LOOP('',(#110));
#402=EDGE_LOOP('',(#111));
#403=EDGE_LOOP('',(#112));
#404=EDGE_LOOP('',(#113));
#405=EDGE_LOOP('',(#114,#115,#116,#117,#118,#119,#120,#121,#122,#123,#124,
#125,#126,#127,#128,#129,#130,#131));
#406=EDGE_LOOP('',(#132));
#407=EDGE_LOOP('',(#133));
#408=EDGE_LOOP('',(#134));
#409=EDGE_LOOP('',(#135));
#410=EDGE_LOOP('',(#136));
#411=EDGE_LOOP('',(#137));
#412=EDGE_LOOP('',(#138));
#413=EDGE_LOOP('',(#139));
#414=EDGE_LOOP('',(#140,#141,#142,#143,#144,#145,#146,#147,#148,#149,#150,
#151));
#415=EDGE_LOOP('',(#152));
#416=EDGE_LOOP('',(#153));
#417=EDGE_LOOP('',(#154));
#418=EDGE_LOOP('',(#155));
#419=EDGE_LOOP('',(#156));
#420=EDGE_LOOP('',(#157));
#421=EDGE_LOOP('',(#158));
#422=EDGE_LOOP('',(#159));
#423=EDGE_LOOP('',(#160));
#424=EDGE_LOOP('',(#161,#162,#163,#164));
#425=EDGE_LOOP('',(#165,#166,#167,#168));
#426=EDGE_LOOP('',(#169,#170,#171,#172));
#427=EDGE_LOOP('',(#173,#174,#175,#176));
#428=EDGE_LOOP('',(#177,#178,#179,#180));
#429=EDGE_LOOP('',(#181));
#430=EDGE_LOOP('',(#182,#183,#184,#185,#186,#187));
#431=EDGE_LOOP('',(#188,#189,#190,#191));
#432=EDGE_LOOP('',(#192,#193,#194,#195));
#433=EDGE_LOOP('',(#196,#197,#198,#199));
#434=EDGE_LOOP('',(#200,#201,#202,#203));
#435=EDGE_LOOP('',(#204,#205,#206,#207));
#436=EDGE_LOOP('',(#208));
#437=EDGE_LOOP('',(#209,#210,#211,#212,#213,#214));
#438=EDGE_LOOP('',(#215,#216,#217,#218));
#439=EDGE_LOOP('',(#219,#220,#221,#222));
#440=EDGE_LOOP('',(#223,#224,#225,#226));
#441=EDGE_LOOP('',(#227,#228,#229,#230));
#442=EDGE_LOOP('',(#231,#232,#233,#234));
#443=EDGE_LOOP('',(#235));
#444=EDGE_LOOP('',(#236,#237,#238,#239,#240,#241));
#445=EDGE_LOOP('',(#242));
#446=EDGE_LOOP('',(#243));
#447=FACE_BOUND('',#397,.T.);
#448=FACE_BOUND('',#398,.T.);
#449=FACE_BOUND('',#399,.T.);
#450=FACE_BOUND('',#400,.T.);
#451=FACE_BOUND('',#401,.T.);
#452=FACE_BOUND('',#402,.T.);
#453=FACE_BOUND('',#403,.T.);
#454=FACE_BOUND('',#404,.T.);
#455=FACE_BOUND('',#405,.T.);
#456=FACE_BOUND('',#406,.T.);
#457=FACE_BOUND('',#407,.T.);
#458=FACE_BOUND('',#408,.T.);
#459=FACE_BOUND('',#409,.T.);
#460=FACE_BOUND('',#410,.T.);
#461=FACE_BOUND('',#411,.T.);
#462=FACE_BOUND('',#412,.T.);
#463=FACE_BOUND('',#413,.T.);
#464=FACE_BOUND('',#414,.T.);
#465=FACE_BOUND('',#415,.T.);
#466=FACE_BOUND('',#416,.T.);
#467=FACE_BOUND('',#417,.T.);
#468=FACE_BOUND('',#418,.T.);
#469=FACE_BOUND('',#419,.T.);
#470=FACE_BOUND('',#420,.T.);
#471=FACE_BOUND('',#421,.T.);
#472=FACE_BOUND('',#422,.T.);
#473=FACE_BOUND('',#423,.T.);
#474=FACE_BOUND('',#424,.T.);
#475=FACE_BOUND('',#425,.T.);
#476=FACE_BOUND('',#426,.T.);
#477=FACE_BOUND('',#427,.T.);
#478=FACE_BOUND('',#428,.T.);
#479=FACE_BOUND('',#429,.T.);
#480=FACE_BOUND('',#430,.T.);
#481=FACE_BOUND('',#431,.T.);
#482=FACE_BOUND('',#432,.T.);
#483=FACE_BOUND('',#433,.T.);
#484=FACE_BOUND('',#434,.T.);
#485=FACE_BOUND('',#435,.T.);
#486=FACE_BOUND('',#436,.T.);
#487=FACE_BOUND('',#437,.T.);
#488=FACE_BOUND('',#438,.T.);
#489=FACE_BOUND('',#439,.T.);
#490=FACE_BOUND('',#440,.T.);
#491=FACE_BOUND('',#441,.T.);
#492=FACE_BOUND('',#442,.T.);
#493=FACE_BOUND('',#443,.T.);
#494=FACE_BOUND('',#444,.T.);
#495=FACE_BOUND('',#445,.T.);
#496=FACE_BOUND('',#446,.T.);
#497=CYLINDRICAL_SURFACE('',#552,0.0015);
#498=CYLINDRICAL_SURFACE('',#555,0.0015);
#499=CYLINDRICAL_SURFACE('',#572,0.003);
#500=CYLINDRICAL_SURFACE('',#574,0.003);
#501=CYLINDRICAL_SURFACE('',#576,0.003);
#502=CYLINDRICAL_SURFACE('',#578,0.01575);
#503=CYLINDRICAL_SURFACE('',#580,0.04);
#504=CYLINDRICAL_SURFACE('',#589,0.005);
#505=CYLINDRICAL_SURFACE('',#592,0.005);
#506=CYLINDRICAL_SURFACE('',#597,0.005);
#507=CYLINDRICAL_SURFACE('',#600,0.005);
#508=CYLINDRICAL_SURFACE('',#604,0.005);
#509=CYLINDRICAL_SURFACE('',#607,0.005);
#510=CYLINDRICAL_SURFACE('',#612,0.0015);
#511=ADVANCED_FACE('',(#447,#448),#497,.F.);
#512=ADVANCED_FACE('',(#449,#450),#498,.F.);
#513=ADVANCED_FACE('',(#451,#452,#453,#454,#455),#92,.T.);
#514=ADVANCED_FACE('',(#456,#457),#499,.F.);
#515=ADVANCED_FACE('',(#458,#459),#500,.F.);
#516=ADVANCED_FACE('',(#460,#461),#501,.F.);
#517=ADVANCED_FACE('',(#462,#463),#502,.F.);
#518=ADVANCED_FACE('',(#464,#465),#503,.T.);
#519=ADVANCED_FACE('',(#466,#467,#468,#469,#470,#471,#472,#473),#93,.F.);
#520=ADVANCED_FACE('',(#474),#94,.T.);
#521=ADVANCED_FACE('',(#475),#95,.F.);
#522=ADVANCED_FACE('',(#476),#504,.T.);
#523=ADVANCED_FACE('',(#477),#96,.F.);
#524=ADVANCED_FACE('',(#478),#505,.T.);
#525=ADVANCED_FACE('',(#479,#480),#97,.T.);
#526=ADVANCED_FACE('',(#481),#98,.T.);
#527=ADVANCED_FACE('',(#482),#99,.F.);
#528=ADVANCED_FACE('',(#483),#506,.T.);
#529=ADVANCED_FACE('',(#484),#100,.F.);
#530=ADVANCED_FACE('',(#485),#507,.T.);
#531=ADVANCED_FACE('',(#486,#487),#101,.T.);
#532=ADVANCED_FACE('',(#488),#102,.F.);
#533=ADVANCED_FACE('',(#489),#508,.T.);
#534=ADVANCED_FACE('',(#490),#103,.F.);
#535=ADVANCED_FACE('',(#491),#509,.T.);
#536=ADVANCED_FACE('',(#492),#104,.T.);
#537=ADVANCED_FACE('',(#493,#494),#105,.T.);
#538=ADVANCED_FACE('',(#495,#496),#510,.F.);
#539=CLOSED_SHELL('',(#511,#512,#513,#514,#515,#516,#517,#518,#519,#520,
#521,#522,#523,#524,#525,#526,#527,#528,#529,#530,#531,#532,#533,#534,#535,
#536,#537,#538));
#540=STYLED_ITEM('',(#541),#548);
#541=PRESENTATION_STYLE_ASSIGNMENT((#542));
#542=SURFACE_STYLE_USAGE(.BOTH.,#543);
#543=SURFACE_SIDE_STYLE('',(#544));
#544=SURFACE_STYLE_FILL_AREA(#545);
#545=FILL_AREA_STYLE('',(#546));
#546=FILL_AREA_STYLE_COLOUR('',#547);
#547=COLOUR_RGB('',0.615686274509804,0.811764705882353,0.929411764705882);
#548=MANIFOLD_SOLID_BREP('Part 1',#539);
#549=SHAPE_DEFINITION_REPRESENTATION(#928,#550);
#550=SHAPE_REPRESENTATION('Part 1',(#551),#923);
#551=AXIS2_PLACEMENT_3D('',#773,#613,#614);
#552=AXIS2_PLACEMENT_3D('',#774,#615,#616);
#553=AXIS2_PLACEMENT_3D('',#775,#617,#618);
#554=AXIS2_PLACEMENT_3D('',#777,#619,#620);
#555=AXIS2_PLACEMENT_3D('',#779,#621,#622);
#556=AXIS2_PLACEMENT_3D('',#780,#623,#624);
#557=AXIS2_PLACEMENT_3D('',#782,#625,#626);
#558=AXIS2_PLACEMENT_3D('',#784,#627,#628);
#559=AXIS2_PLACEMENT_3D('',#785,#629,#630);
#560=AXIS2_PLACEMENT_3D('',#787,#631,#632);
#561=AXIS2_PLACEMENT_3D('',#789,#633,#634);
#562=AXIS2_PLACEMENT_3D('',#791,#635,#636);
#563=AXIS2_PLACEMENT_3D('',#793,#637,#638);
#564=AXIS2_PLACEMENT_3D('',#798,#640,#641);
#565=AXIS2_PLACEMENT_3D('',#802,#643,#644);
#566=AXIS2_PLACEMENT_3D('',#806,#646,#647);
#567=AXIS2_PLACEMENT_3D('',#810,#649,#650);
#568=AXIS2_PLACEMENT_3D('',#814,#652,#653);
#569=AXIS2_PLACEMENT_3D('',#818,#655,#656);
#570=AXIS2_PLACEMENT_3D('',#822,#658,#659);
#571=AXIS2_PLACEMENT_3D('',#826,#661,#662);
#572=AXIS2_PLACEMENT_3D('',#829,#664,#665);
#573=AXIS2_PLACEMENT_3D('',#830,#666,#667);
#574=AXIS2_PLACEMENT_3D('',#832,#668,#669);
#575=AXIS2_PLACEMENT_3D('',#833,#670,#671);
#576=AXIS2_PLACEMENT_3D('',#835,#672,#673);
#577=AXIS2_PLACEMENT_3D('',#836,#674,#675);
#578=AXIS2_PLACEMENT_3D('',#838,#676,#677);
#579=AXIS2_PLACEMENT_3D('',#839,#678,#679);
#580=AXIS2_PLACEMENT_3D('',#841,#680,#681);
#581=AXIS2_PLACEMENT_3D('',#844,#683,#684);
#582=AXIS2_PLACEMENT_3D('',#849,#687,#688);
#583=AXIS2_PLACEMENT_3D('',#854,#691,#692);
#584=AXIS2_PLACEMENT_3D('',#857,#694,#695);
#585=AXIS2_PLACEMENT_3D('',#859,#696,#697);
#586=AXIS2_PLACEMENT_3D('',#860,#698,#699);
#587=AXIS2_PLACEMENT_3D('',#862,#700,#701);
#588=AXIS2_PLACEMENT_3D('',#866,#704,#705);
#589=AXIS2_PLACEMENT_3D('',#870,#708,#709);
#590=AXIS2_PLACEMENT_3D('',#873,#711,#712);
#591=AXIS2_PLACEMENT_3D('',#874,#713,#714);
#592=AXIS2_PLACEMENT_3D('',#878,#717,#718);
#593=AXIS2_PLACEMENT_3D('',#879,#719,#720);
#594=AXIS2_PLACEMENT_3D('',#880,#721,#722);
#595=AXIS2_PLACEMENT_3D('',#881,#723,#724);
#596=AXIS2_PLACEMENT_3D('',#885,#727,#728);
#597=AXIS2_PLACEMENT_3D('',#889,#731,#732);
#598=AXIS2_PLACEMENT_3D('',#892,#734,#735);
#599=AXIS2_PLACEMENT_3D('',#893,#736,#737);
#600=AXIS2_PLACEMENT_3D('',#897,#740,#741);
#601=AXIS2_PLACEMENT_3D('',#898,#742,#743);
#602=AXIS2_PLACEMENT_3D('',#899,#744,#745);
#603=AXIS2_PLACEMENT_3D('',#900,#746,#747);
#604=AXIS2_PLACEMENT_3D('',#904,#750,#751);
#605=AXIS2_PLACEMENT_3D('',#907,#753,#754);
#606=AXIS2_PLACEMENT_3D('',#908,#755,#756);
#607=AXIS2_PLACEMENT_3D('',#912,#759,#760);
#608=AXIS2_PLACEMENT_3D('',#915,#762,#763);
#609=AXIS2_PLACEMENT_3D('',#916,#764,#765);
#610=AXIS2_PLACEMENT_3D('',#918,#767,#768);
#611=AXIS2_PLACEMENT_3D('',#919,#769,#770);
#612=AXIS2_PLACEMENT_3D('',#921,#771,#772);
#613=DIRECTION('',(0.,0.,1.));
#614=DIRECTION('',(1.,0.,0.));
#615=DIRECTION('',(0.,-1.,0.));
#616=DIRECTION('',(-0.866025403784438,0.,0.5));
#617=DIRECTION('',(0.,-1.,0.));
#618=DIRECTION('',(-0.866025403784438,0.,0.5));
#619=DIRECTION('',(0.,-1.,0.));
#620=DIRECTION('',(-0.866025403784438,0.,0.5));
#621=DIRECTION('',(0.,-1.,0.));
#622=DIRECTION('',(0.866025403784439,0.,0.5));
#623=DIRECTION('',(0.,-1.,0.));
#624=DIRECTION('',(0.866025403784439,0.,0.5));
#625=DIRECTION('',(0.,-1.,0.));
#626=DIRECTION('',(0.866025403784439,0.,0.5));
#627=DIRECTION('',(0.,-1.,0.));
#628=DIRECTION('',(1.,0.,0.));
#629=DIRECTION('',(0.,-1.,0.));
#630=DIRECTION('',(0.,0.,-1.));
#631=DIRECTION('',(0.,-1.,0.));
#632=DIRECTION('',(0.,0.,-1.));
#633=DIRECTION('',(0.,-1.,0.));
#634=DIRECTION('',(0.,0.,-1.));
#635=DIRECTION('',(0.,-1.,0.));
#636=DIRECTION('',(0.,0.,-1.));
#637=DIRECTION('',(0.,-1.,0.));
#638=DIRECTION('',(0.,0.,-1.));
#639=DIRECTION('',(-0.641958857453462,0.,-0.766739085567604));
#640=DIRECTION('',(0.,1.,0.));
#641=DIRECTION('',(0.,0.,-1.));
#642=DIRECTION('',(1.,0.,0.));
#643=DIRECTION('',(0.,-1.,0.));
#644=DIRECTION('',(0.,0.,-1.));
#645=DIRECTION('',(0.641958857453462,0.,-0.766739085567604));
#646=DIRECTION('',(0.,-1.,0.));
#647=DIRECTION('',(0.,0.,-1.));
#648=DIRECTION('',(0.984994954902727,0.,-0.17258313595533));
#649=DIRECTION('',(0.,1.,0.));
#650=DIRECTION('',(0.,0.,-1.));
#651=DIRECTION('',(-0.5,0.,0.866025403784439));
#652=DIRECTION('',(0.,-1.,0.));
#653=DIRECTION('',(0.,0.,-1.));
#654=DIRECTION('',(0.343036097449264,0.,0.939322221522933));
#655=DIRECTION('',(0.,-1.,0.));
#656=DIRECTION('',(0.,0.,-1.));
#657=DIRECTION('',(-0.343036097449264,0.,0.939322221522933));
#658=DIRECTION('',(0.,1.,0.));
#659=DIRECTION('',(0.,0.,-1.));
#660=DIRECTION('',(-0.5,0.,-0.866025403784439));
#661=DIRECTION('',(0.,-1.,0.));
#662=DIRECTION('',(0.,0.,-1.));
#663=DIRECTION('',(-0.984994954902726,0.,-0.17258313595533));
#664=DIRECTION('',(0.,1.,0.));
#665=DIRECTION('',(0.,0.,1.));
#666=DIRECTION('',(0.,-1.,0.));
#667=DIRECTION('',(0.,0.,-1.));
#668=DIRECTION('',(0.,1.,0.));
#669=DIRECTION('',(0.,0.,1.));
#670=DIRECTION('',(0.,-1.,0.));
#671=DIRECTION('',(0.,0.,-1.));
#672=DIRECTION('',(0.,1.,0.));
#673=DIRECTION('',(0.,0.,1.));
#674=DIRECTION('',(0.,-1.,0.));
#675=DIRECTION('',(0.,0.,-1.));
#676=DIRECTION('',(0.,1.,0.));
#677=DIRECTION('',(0.,0.,1.));
#678=DIRECTION('',(0.,-1.,0.));
#679=DIRECTION('',(0.,0.,-1.));
#680=DIRECTION('',(0.,1.,0.));
#681=DIRECTION('',(0.,0.,1.));
#682=DIRECTION('',(0.,1.,0.));
#683=DIRECTION('',(0.,-1.,0.));
#684=DIRECTION('',(0.,0.,-1.));
#685=DIRECTION('',(0.,1.,0.));
#686=DIRECTION('',(0.,1.,0.));
#687=DIRECTION('',(0.,-1.,0.));
#688=DIRECTION('',(0.,0.,-1.));
#689=DIRECTION('',(0.,1.,0.));
#690=DIRECTION('',(0.,1.,0.));
#691=DIRECTION('',(0.,-1.,0.));
#692=DIRECTION('',(0.,0.,-1.));
#693=DIRECTION('',(0.,1.,0.));
#694=DIRECTION('',(0.,-1.,0.));
#695=DIRECTION('',(0.,0.,-1.));
#696=DIRECTION('',(0.,-1.,0.));
#697=DIRECTION('',(1.,0.,0.));
#698=DIRECTION('',(0.,-1.,0.));
#699=DIRECTION('',(0.,0.,-1.));
#700=DIRECTION('',(-0.939322221522933,0.,-0.343036097449264));
#701=DIRECTION('',(-0.343036097449264,0.,0.939322221522933));
#702=DIRECTION('',(-0.343036097449264,0.,0.939322221522933));
#703=DIRECTION('',(0.,1.,0.));
#704=DIRECTION('',(0.17258313595533,0.,-0.984994954902727));
#705=DIRECTION('',(-0.984994954902727,0.,-0.17258313595533));
#706=DIRECTION('',(0.,1.,0.));
#707=DIRECTION('',(-0.984994954902726,0.,-0.17258313595533));
#708=DIRECTION('',(0.,1.,0.));
#709=DIRECTION('',(0.,0.,1.));
#710=DIRECTION('',(0.,1.,0.));
#711=DIRECTION('',(0.,-1.,0.));
#712=DIRECTION('',(0.,0.,-1.));
#713=DIRECTION('',(0.866025403784439,0.,-0.5));
#714=DIRECTION('',(-0.5,0.,-0.866025403784439));
#715=DIRECTION('',(0.,1.,0.));
#716=DIRECTION('',(-0.5,0.,-0.866025403784439));
#717=DIRECTION('',(0.,1.,0.));
#718=DIRECTION('',(0.,0.,1.));
#719=DIRECTION('',(0.,1.,0.));
#720=DIRECTION('',(0.,0.,-1.));
#721=DIRECTION('',(0.,-1.,0.));
#722=DIRECTION('',(1.,0.,0.));
#723=DIRECTION('',(0.17258313595533,0.,0.984994954902726));
#724=DIRECTION('',(0.984994954902726,0.,-0.17258313595533));
#725=DIRECTION('',(0.984994954902727,0.,-0.17258313595533));
#726=DIRECTION('',(0.,1.,0.));
#727=DIRECTION('',(-0.939322221522933,0.,0.343036097449264));
#728=DIRECTION('',(0.343036097449264,0.,0.939322221522933));
#729=DIRECTION('',(0.,1.,0.));
#730=DIRECTION('',(0.343036097449264,0.,0.939322221522933));
#731=DIRECTION('',(0.,1.,0.));
#732=DIRECTION('',(0.,0.,1.));
#733=DIRECTION('',(0.,1.,0.));
#734=DIRECTION('',(0.,-1.,0.));
#735=DIRECTION('',(0.,0.,-1.));
#736=DIRECTION('',(-0.866025403784439,0.,-0.5));
#737=DIRECTION('',(-0.5,0.,0.866025403784439));
#738=DIRECTION('',(0.,1.,0.));
#739=DIRECTION('',(-0.5,0.,0.866025403784439));
#740=DIRECTION('',(0.,1.,0.));
#741=DIRECTION('',(0.,0.,1.));
#742=DIRECTION('',(0.,1.,0.));
#743=DIRECTION('',(0.,0.,-1.));
#744=DIRECTION('',(0.,-1.,0.));
#745=DIRECTION('',(1.,0.,0.));
#746=DIRECTION('',(0.766739085567604,0.,0.641958857453462));
#747=DIRECTION('',(0.641958857453462,0.,-0.766739085567604));
#748=DIRECTION('',(0.,1.,0.));
#749=DIRECTION('',(0.641958857453462,0.,-0.766739085567604));
#750=DIRECTION('',(0.,1.,0.));
#751=DIRECTION('',(0.,0.,1.));
#752=DIRECTION('',(0.,1.,0.));
#753=DIRECTION('',(0.,-1.,0.));
#754=DIRECTION('',(0.,0.,-1.));
#755=DIRECTION('',(0.,0.,1.));
#756=DIRECTION('',(1.,0.,0.));
#757=DIRECTION('',(0.,1.,0.));
#758=DIRECTION('',(1.,0.,0.));
#759=DIRECTION('',(0.,1.,0.));
#760=DIRECTION('',(0.,0.,1.));
#761=DIRECTION('',(0.,1.,0.));
#762=DIRECTION('',(0.,1.,0.));
#763=DIRECTION('',(0.,0.,-1.));
#764=DIRECTION('',(0.766739085567604,0.,-0.641958857453462));
#765=DIRECTION('',(-0.641958857453462,0.,-0.766739085567604));
#766=DIRECTION('',(-0.641958857453462,0.,-0.766739085567604));
#767=DIRECTION('',(0.,-1.,0.));
#768=DIRECTION('',(1.,0.,0.));
#769=DIRECTION('',(0.,-1.,0.));
#770=DIRECTION('',(0.,0.,-1.));
#771=DIRECTION('',(0.,-1.,0.));
#772=DIRECTION('',(0.,0.,-1.));
#773=CARTESIAN_POINT('',(0.,0.,0.));
#774=CARTESIAN_POINT('',(0.0270632938682637,0.002,-0.015625));
#775=CARTESIAN_POINT('',(0.0270632938682637,-0.018,-0.015625));
#776=CARTESIAN_POINT('',(0.025764255762587,-0.018,-0.014875));
#777=CARTESIAN_POINT('',(0.0270632938682637,0.,-0.015625));
#778=CARTESIAN_POINT('',(0.025764255762587,0.,-0.014875));
#779=CARTESIAN_POINT('',(-0.0270632938682637,0.002,-0.015625));
#780=CARTESIAN_POINT('',(-0.0270632938682637,-0.018,-0.015625));
#781=CARTESIAN_POINT('',(-0.025764255762587,-0.018,-0.014875));
#782=CARTESIAN_POINT('',(-0.0270632938682637,0.,-0.015625));
#783=CARTESIAN_POINT('',(-0.025764255762587,0.,-0.014875));
#784=CARTESIAN_POINT('',(-6.93889390390723E-18,-0.005,-0.002125));
#785=CARTESIAN_POINT('',(0.,-0.005,9.64409354328541E-19));
#786=CARTESIAN_POINT('',(0.,-0.005,-0.01575));
#787=CARTESIAN_POINT('',(0.0246817240078565,-0.005,0.01425));
#788=CARTESIAN_POINT('',(0.0246817240078565,-0.005,0.01125));
#789=CARTESIAN_POINT('',(-2.05998412772246E-18,-0.005,-0.0285));
#790=CARTESIAN_POINT('',(-2.05998412772246E-18,-0.005,-0.0315));
#791=CARTESIAN_POINT('',(-0.0246817240078565,-0.005,0.01425));
#792=CARTESIAN_POINT('',(-0.0246817240078565,-0.005,0.01125));
#793=CARTESIAN_POINT('',(0.,-0.005,2.4492935982947E-18));
#794=CARTESIAN_POINT('',(0.04,-0.005,7.80625564189563E-18));
#795=CARTESIAN_POINT('',(0.02,-0.005,0.0346410161513775));
#796=CARTESIAN_POINT('',(0.015666847713919,-0.005,0.0294656109320551));
#797=CARTESIAN_POINT('',(0.011333695427838,-0.005,0.0242902057127327));
#798=CARTESIAN_POINT('',(0.0075,-0.005,0.0275));
#799=CARTESIAN_POINT('',(0.0075,-0.005,0.0225));
#800=CARTESIAN_POINT('',(-0.00375,-0.005,0.0225));
#801=CARTESIAN_POINT('',(-0.0075,-0.005,0.0225));
#802=CARTESIAN_POINT('',(-0.0075,-0.005,0.0275));
#803=CARTESIAN_POINT('',(-0.011333695427838,-0.005,0.0242902057127327));
#804=CARTESIAN_POINT('',(-0.015666847713919,-0.005,0.0294656109320551));
#805=CARTESIAN_POINT('',(-0.02,-0.005,0.0346410161513775));
#806=CARTESIAN_POINT('',(0.,-0.005,2.4492935982947E-18));
#807=CARTESIAN_POINT('',(-0.04,-0.005,-2.60208521396521E-18));
#808=CARTESIAN_POINT('',(-0.0333513914621477,-0.005,-0.00116491734855154));
#809=CARTESIAN_POINT('',(-0.0267027829242955,-0.005,-0.00232983469710309));
#810=CARTESIAN_POINT('',(-0.0275656986040721,-0.005,-0.00725480947161668));
#811=CARTESIAN_POINT('',(-0.0232355715851498,-0.005,-0.0047548094716167));
#812=CARTESIAN_POINT('',(-0.0176105715851499,-0.005,-0.0144975952641916));
#813=CARTESIAN_POINT('',(-0.0157355715851499,-0.005,-0.0177451905283833));
#814=CARTESIAN_POINT('',(-0.0200656986040721,-0.005,-0.0202451905283833));
#815=CARTESIAN_POINT('',(-0.0153690874964574,-0.005,-0.0219603710156296));
#816=CARTESIAN_POINT('',(-0.0176845437482287,-0.005,-0.0283006935835036));
#817=CARTESIAN_POINT('',(-0.02,-0.005,-0.0346410161513775));
#818=CARTESIAN_POINT('',(0.,-0.005,2.4492935982947E-18));
#819=CARTESIAN_POINT('',(0.02,-0.005,-0.0346410161513775));
#820=CARTESIAN_POINT('',(0.0176845437482287,-0.005,-0.0283006935835036));
#821=CARTESIAN_POINT('',(0.0153690874964574,-0.005,-0.0219603710156296));
#822=CARTESIAN_POINT('',(0.0200656986040721,-0.005,-0.0202451905283833));
#823=CARTESIAN_POINT('',(0.0157355715851499,-0.005,-0.0177451905283833));
#824=CARTESIAN_POINT('',(0.0213605715851499,-0.005,-0.00800240473580835));
#825=CARTESIAN_POINT('',(0.0232355715851499,-0.005,-0.00475480947161671));
#826=CARTESIAN_POINT('',(0.0275656986040721,-0.005,-0.00725480947161669));
#827=CARTESIAN_POINT('',(0.0267027829242955,-0.005,-0.00232983469710309));
#828=CARTESIAN_POINT('',(0.0333513914621477,-0.005,-0.00116491734855153));
#829=CARTESIAN_POINT('',(-0.0246817240078565,-0.005,0.01425));
#830=CARTESIAN_POINT('',(-0.0246817240078565,0.,0.01425));
#831=CARTESIAN_POINT('',(-0.0246817240078565,0.,0.01125));
#832=CARTESIAN_POINT('',(-2.05998412772246E-18,-0.005,-0.0285));
#833=CARTESIAN_POINT('',(-2.05998412772246E-18,0.,-0.0285));
#834=CARTESIAN_POINT('',(-2.05998412772246E-18,0.,-0.0315));
#835=CARTESIAN_POINT('',(0.0246817240078565,-0.005,0.01425));
#836=CARTESIAN_POINT('',(0.0246817240078565,0.,0.01425));
#837=CARTESIAN_POINT('',(0.0246817240078565,0.,0.01125));
#838=CARTESIAN_POINT('',(0.,-0.005,9.64409354328541E-19));
#839=CARTESIAN_POINT('',(0.,0.,9.64409354328541E-19));
#840=CARTESIAN_POINT('',(0.,0.,-0.01575));
#841=CARTESIAN_POINT('',(0.,-0.005,2.4492935982947E-18));
#842=CARTESIAN_POINT('',(0.04,-0.018,2.4492935982947E-18));
#843=CARTESIAN_POINT('',(0.04,-0.018,2.4492935982947E-18));
#844=CARTESIAN_POINT('',(0.,-0.018,2.4492935982947E-18));
#845=CARTESIAN_POINT('',(0.02,-0.018,-0.0346410161513775));
#846=CARTESIAN_POINT('',(0.02,-0.018,-0.0346410161513775));
#847=CARTESIAN_POINT('',(-0.02,-0.018,-0.0346410161513775));
#848=CARTESIAN_POINT('',(-0.02,-0.018,-0.0346410161513775));
#849=CARTESIAN_POINT('',(0.,-0.018,2.4492935982947E-18));
#850=CARTESIAN_POINT('',(-0.04,-0.018,7.34788079488412E-18));
#851=CARTESIAN_POINT('',(-0.04,-0.018,7.34788079488412E-18));
#852=CARTESIAN_POINT('',(-0.02,-0.018,0.0346410161513775));
#853=CARTESIAN_POINT('',(-0.02,-0.018,0.0346410161513775));
#854=CARTESIAN_POINT('',(0.,-0.018,2.4492935982947E-18));
#855=CARTESIAN_POINT('',(0.02,-0.018,0.0346410161513775));
#856=CARTESIAN_POINT('',(0.02,-0.018,0.0346410161513775));
#857=CARTESIAN_POINT('',(0.,0.,2.4492935982947E-18));
#858=CARTESIAN_POINT('',(0.,0.,-0.04));
#859=CARTESIAN_POINT('',(-6.93889390390723E-18,0.,-0.002125));
#860=CARTESIAN_POINT('',(0.,0.,0.03125));
#861=CARTESIAN_POINT('',(0.,0.,0.02975));
#862=CARTESIAN_POINT('',(0.0176845437482287,-0.018,-0.0283006935835036));
#863=CARTESIAN_POINT('',(0.0176845437482287,-0.018,-0.0283006935835036));
#864=CARTESIAN_POINT('',(0.0153690874964574,-0.018,-0.0219603710156296));
#865=CARTESIAN_POINT('',(0.0153690874964574,-0.018,-0.0219603710156296));
#866=CARTESIAN_POINT('',(0.0333513914621477,-0.018,-0.00116491734855153));
#867=CARTESIAN_POINT('',(0.0267027829242955,-0.018,-0.00232983469710309));
#868=CARTESIAN_POINT('',(0.0267027829242955,-0.018,-0.00232983469710309));
#869=CARTESIAN_POINT('',(0.0333513914621477,-0.018,-0.00116491734855153));
#870=CARTESIAN_POINT('',(0.0275656986040721,-0.018,-0.00725480947161669));
#871=CARTESIAN_POINT('',(0.0232355715851499,-0.018,-0.00475480947161671));
#872=CARTESIAN_POINT('',(0.0232355715851499,-0.018,-0.00475480947161671));
#873=CARTESIAN_POINT('',(0.0275656986040721,-0.018,-0.00725480947161669));
#874=CARTESIAN_POINT('',(0.0213605715851499,-0.018,-0.00800240473580835));
#875=CARTESIAN_POINT('',(0.0157355715851499,-0.018,-0.0177451905283833));
#876=CARTESIAN_POINT('',(0.0157355715851499,-0.018,-0.0177451905283833));
#877=CARTESIAN_POINT('',(0.0213605715851499,-0.018,-0.00800240473580835));
#878=CARTESIAN_POINT('',(0.0200656986040721,-0.018,-0.0202451905283833));
#879=CARTESIAN_POINT('',(0.0200656986040721,-0.018,-0.0202451905283833));
#880=CARTESIAN_POINT('',(0.,-0.018,0.));
#881=CARTESIAN_POINT('',(-0.0333513914621477,-0.018,-0.00116491734855154));
#882=CARTESIAN_POINT('',(-0.0333513914621477,-0.018,-0.00116491734855154));
#883=CARTESIAN_POINT('',(-0.0267027829242955,-0.018,-0.00232983469710309));
#884=CARTESIAN_POINT('',(-0.0267027829242955,-0.018,-0.00232983469710309));
#885=CARTESIAN_POINT('',(-0.0176845437482287,-0.018,-0.0283006935835036));
#886=CARTESIAN_POINT('',(-0.0153690874964574,-0.018,-0.0219603710156296));
#887=CARTESIAN_POINT('',(-0.0153690874964574,-0.018,-0.0219603710156296));
#888=CARTESIAN_POINT('',(-0.0176845437482287,-0.018,-0.0283006935835036));
#889=CARTESIAN_POINT('',(-0.0200656986040721,-0.018,-0.0202451905283833));
#890=CARTESIAN_POINT('',(-0.0157355715851499,-0.018,-0.0177451905283833));
#891=CARTESIAN_POINT('',(-0.0157355715851499,-0.018,-0.0177451905283833));
#892=CARTESIAN_POINT('',(-0.0200656986040721,-0.018,-0.0202451905283833));
#893=CARTESIAN_POINT('',(-0.0176105715851499,-0.018,-0.0144975952641916));
#894=CARTESIAN_POINT('',(-0.0232355715851498,-0.018,-0.0047548094716167));
#895=CARTESIAN_POINT('',(-0.0232355715851498,-0.018,-0.0047548094716167));
#896=CARTESIAN_POINT('',(-0.0176105715851499,-0.018,-0.0144975952641916));
#897=CARTESIAN_POINT('',(-0.0275656986040721,-0.018,-0.00725480947161668));
#898=CARTESIAN_POINT('',(-0.0275656986040721,-0.018,-0.00725480947161668));
#899=CARTESIAN_POINT('',(0.,-0.018,0.));
#900=CARTESIAN_POINT('',(-0.015666847713919,-0.018,0.0294656109320551));
#901=CARTESIAN_POINT('',(-0.011333695427838,-0.018,0.0242902057127327));
#902=CARTESIAN_POINT('',(-0.011333695427838,-0.018,0.0242902057127327));
#903=CARTESIAN_POINT('',(-0.015666847713919,-0.018,0.0294656109320551));
#904=CARTESIAN_POINT('',(-0.0075,-0.018,0.0275));
#905=CARTESIAN_POINT('',(-0.0075,-0.018,0.0225));
#906=CARTESIAN_POINT('',(-0.0075,-0.018,0.0225));
#907=CARTESIAN_POINT('',(-0.0075,-0.018,0.0275));
#908=CARTESIAN_POINT('',(-0.00375,-0.018,0.0225));
#909=CARTESIAN_POINT('',(0.0075,-0.018,0.0225));
#910=CARTESIAN_POINT('',(0.0075,-0.018,0.0225));
#911=CARTESIAN_POINT('',(-0.00375,-0.018,0.0225));
#912=CARTESIAN_POINT('',(0.0075,-0.018,0.0275));
#913=CARTESIAN_POINT('',(0.011333695427838,-0.018,0.0242902057127327));
#914=CARTESIAN_POINT('',(0.011333695427838,-0.018,0.0242902057127327));
#915=CARTESIAN_POINT('',(0.0075,-0.018,0.0275));
#916=CARTESIAN_POINT('',(0.015666847713919,-0.018,0.0294656109320551));
#917=CARTESIAN_POINT('',(0.015666847713919,-0.018,0.0294656109320551));
#918=CARTESIAN_POINT('',(0.,-0.018,0.));
#919=CARTESIAN_POINT('',(0.,-0.018,0.03125));
#920=CARTESIAN_POINT('',(0.,-0.018,0.02975));
#921=CARTESIAN_POINT('',(0.,0.002,0.03125));
#922=MECHANICAL_DESIGN_GEOMETRIC_PRESENTATION_REPRESENTATION('',(#540),
#923);
#923=(
GEOMETRIC_REPRESENTATION_CONTEXT(3)
GLOBAL_UNCERTAINTY_ASSIGNED_CONTEXT((#924))
GLOBAL_UNIT_ASSIGNED_CONTEXT((#927,#926,#925))
REPRESENTATION_CONTEXT('Part 1','TOP_LEVEL_ASSEMBLY_PART')
);
#924=UNCERTAINTY_MEASURE_WITH_UNIT(LENGTH_MEASURE(1.E-8),#927,
'DISTANCE_ACCURACY_VALUE','Maximum Tolerance applied to model');
#925=(
NAMED_UNIT(*)
SI_UNIT($,.STERADIAN.)
SOLID_ANGLE_UNIT()
);
#926=(
NAMED_UNIT(*)
PLANE_ANGLE_UNIT()
SI_UNIT($,.RADIAN.)
);
#927=(
LENGTH_UNIT()
NAMED_UNIT(*)
SI_UNIT($,.METRE.)
);
#928=PRODUCT_DEFINITION_SHAPE('','',#929);
#929=PRODUCT_DEFINITION('','',#931,#930);
#930=PRODUCT_DEFINITION_CONTEXT('',#937,'design');
#931=PRODUCT_DEFINITION_FORMATION_WITH_SPECIFIED_SOURCE('','',#933,
 .NOT_KNOWN.);
#932=PRODUCT_RELATED_PRODUCT_CATEGORY('','',(#933));
#933=PRODUCT('Part 1','Part 1','Part 1',(#935));
#934=PRODUCT_CATEGORY('','');
#935=PRODUCT_CONTEXT('',#937,'mechanical');
#936=APPLICATION_PROTOCOL_DEFINITION('international standard',
'automotive_design',2010,#937);
#937=APPLICATION_CONTEXT(
'core data for automotive mechanical design processes');
ENDSEC;
END-ISO-10303-21;
