ISO-10303-21;
HEADER;
/* Generated by software containing ST-Developer
 * from STEP Tools, Inc. (www.steptools.com) 
 */
/* OPTION: using custom renumber hook */

FILE_DESCRIPTION(
/* description */ ('STEP AP214',
'CAx-IF Rec.Pracs.---User Defined Attributes---1.5---2016-08-15'),
/* implementation_level */ '2;1');

FILE_NAME(
/* name */ 'Base turn - Part 2',
/* time_stamp */ '2026-05-17T02:39:04Z',
/* author */ (''),
/* organization */ (''),
/* preprocessor_version */ 'ST-DEVELOPER v20',
/* originating_system */ 'ONSHAPE BY PTC INC, 1.215',
/* authorisation */ '  ');

FILE_SCHEMA (('AUTOMOTIVE_DESIGN {1 0 10303 214 3 1 1}'));
ENDSEC;

DATA;
#10=PROPERTY_DEFINITION_REPRESENTATION(#14,#12);
#11=PROPERTY_DEFINITION_REPRESENTATION(#15,#13);
#12=REPRESENTATION('',(#16),#797);
#13=REPRESENTATION('',(#17),#797);
#14=PROPERTY_DEFINITION('pmi validation property','',#802);
#15=PROPERTY_DEFINITION('pmi validation property','',#802);
#16=VALUE_REPRESENTATION_ITEM('number of annotations',COUNT_MEASURE(0.));
#17=VALUE_REPRESENTATION_ITEM('number of views',COUNT_MEASURE(0.));
#18=SHAPE_REPRESENTATION_RELATIONSHIP('','',#497,#19);
#19=ADVANCED_BREP_SHAPE_REPRESENTATION('',(#495),#797);
#20=VERTEX_LOOP('',#259);
#21=VERTEX_LOOP('',#261);
#22=VERTEX_LOOP('',#263);
#23=VERTEX_LOOP('',#265);
#24=CONICAL_SURFACE('',#528,0.0011,1.02974425867666);
#25=CONICAL_SURFACE('',#531,0.0011,1.02974425867666);
#26=CONICAL_SURFACE('',#534,0.0011,1.02974425867666);
#27=CONICAL_SURFACE('',#537,0.0011,1.02974425867666);
#28=CYLINDRICAL_SURFACE('',#524,0.005);
#29=CYLINDRICAL_SURFACE('',#525,0.02515);
#30=CYLINDRICAL_SURFACE('',#526,0.0011);
#31=CYLINDRICAL_SURFACE('',#529,0.0011);
#32=CYLINDRICAL_SURFACE('',#532,0.0011);
#33=CYLINDRICAL_SURFACE('',#535,0.0011);
#34=CIRCLE('',#501,0.0011);
#35=CIRCLE('',#502,0.0011);
#36=CIRCLE('',#503,0.0011);
#37=CIRCLE('',#504,0.0011);
#38=CIRCLE('',#514,0.02515);
#39=CIRCLE('',#515,0.005);
#40=CIRCLE('',#518,0.02515);
#41=CIRCLE('',#519,0.005);
#42=CIRCLE('',#527,0.0011);
#43=CIRCLE('',#530,0.0011);
#44=CIRCLE('',#533,0.0011);
#45=CIRCLE('',#536,0.0011);
#46=ORIENTED_EDGE('',*,*,#162,.T.);
#47=ORIENTED_EDGE('',*,*,#163,.T.);
#48=ORIENTED_EDGE('',*,*,#164,.F.);
#49=ORIENTED_EDGE('',*,*,#165,.T.);
#50=ORIENTED_EDGE('',*,*,#166,.F.);
#51=ORIENTED_EDGE('',*,*,#167,.F.);
#52=ORIENTED_EDGE('',*,*,#168,.F.);
#53=ORIENTED_EDGE('',*,*,#169,.F.);
#54=ORIENTED_EDGE('',*,*,#170,.F.);
#55=ORIENTED_EDGE('',*,*,#171,.F.);
#56=ORIENTED_EDGE('',*,*,#172,.F.);
#57=ORIENTED_EDGE('',*,*,#173,.F.);
#58=ORIENTED_EDGE('',*,*,#166,.T.);
#59=ORIENTED_EDGE('',*,*,#174,.T.);
#60=ORIENTED_EDGE('',*,*,#175,.T.);
#61=ORIENTED_EDGE('',*,*,#176,.T.);
#62=ORIENTED_EDGE('',*,*,#177,.T.);
#63=ORIENTED_EDGE('',*,*,#178,.T.);
#64=ORIENTED_EDGE('',*,*,#179,.T.);
#65=ORIENTED_EDGE('',*,*,#180,.T.);
#66=ORIENTED_EDGE('',*,*,#181,.T.);
#67=ORIENTED_EDGE('',*,*,#182,.T.);
#68=ORIENTED_EDGE('',*,*,#183,.F.);
#69=ORIENTED_EDGE('',*,*,#184,.F.);
#70=ORIENTED_EDGE('',*,*,#185,.F.);
#71=ORIENTED_EDGE('',*,*,#186,.F.);
#72=ORIENTED_EDGE('',*,*,#187,.T.);
#73=ORIENTED_EDGE('',*,*,#182,.F.);
#74=ORIENTED_EDGE('',*,*,#188,.F.);
#75=ORIENTED_EDGE('',*,*,#189,.T.);
#76=ORIENTED_EDGE('',*,*,#174,.F.);
#77=ORIENTED_EDGE('',*,*,#165,.F.);
#78=ORIENTED_EDGE('',*,*,#190,.F.);
#79=ORIENTED_EDGE('',*,*,#191,.T.);
#80=ORIENTED_EDGE('',*,*,#175,.F.);
#81=ORIENTED_EDGE('',*,*,#189,.F.);
#82=ORIENTED_EDGE('',*,*,#192,.F.);
#83=ORIENTED_EDGE('',*,*,#193,.T.);
#84=ORIENTED_EDGE('',*,*,#176,.F.);
#85=ORIENTED_EDGE('',*,*,#191,.F.);
#86=ORIENTED_EDGE('',*,*,#194,.F.);
#87=ORIENTED_EDGE('',*,*,#195,.T.);
#88=ORIENTED_EDGE('',*,*,#177,.F.);
#89=ORIENTED_EDGE('',*,*,#193,.F.);
#90=ORIENTED_EDGE('',*,*,#196,.F.);
#91=ORIENTED_EDGE('',*,*,#197,.T.);
#92=ORIENTED_EDGE('',*,*,#178,.F.);
#93=ORIENTED_EDGE('',*,*,#195,.F.);
#94=ORIENTED_EDGE('',*,*,#198,.F.);
#95=ORIENTED_EDGE('',*,*,#199,.T.);
#96=ORIENTED_EDGE('',*,*,#179,.F.);
#97=ORIENTED_EDGE('',*,*,#197,.F.);
#98=ORIENTED_EDGE('',*,*,#200,.F.);
#99=ORIENTED_EDGE('',*,*,#167,.T.);
#100=ORIENTED_EDGE('',*,*,#180,.F.);
#101=ORIENTED_EDGE('',*,*,#199,.F.);
#102=ORIENTED_EDGE('',*,*,#201,.F.);
#103=ORIENTED_EDGE('',*,*,#202,.T.);
#104=ORIENTED_EDGE('',*,*,#203,.T.);
#105=ORIENTED_EDGE('',*,*,#204,.F.);
#106=ORIENTED_EDGE('',*,*,#187,.F.);
#107=ORIENTED_EDGE('',*,*,#205,.T.);
#108=ORIENTED_EDGE('',*,*,#206,.T.);
#109=ORIENTED_EDGE('',*,*,#183,.T.);
#110=ORIENTED_EDGE('',*,*,#207,.F.);
#111=ORIENTED_EDGE('',*,*,#206,.F.);
#112=ORIENTED_EDGE('',*,*,#208,.T.);
#113=ORIENTED_EDGE('',*,*,#209,.T.);
#114=ORIENTED_EDGE('',*,*,#184,.T.);
#115=ORIENTED_EDGE('',*,*,#209,.F.);
#116=ORIENTED_EDGE('',*,*,#210,.T.);
#117=ORIENTED_EDGE('',*,*,#185,.T.);
#118=ORIENTED_EDGE('',*,*,#181,.F.);
#119=ORIENTED_EDGE('',*,*,#211,.F.);
#120=ORIENTED_EDGE('',*,*,#212,.T.);
#121=ORIENTED_EDGE('',*,*,#202,.F.);
#122=ORIENTED_EDGE('',*,*,#213,.F.);
#123=ORIENTED_EDGE('',*,*,#163,.F.);
#124=ORIENTED_EDGE('',*,*,#169,.T.);
#125=ORIENTED_EDGE('',*,*,#214,.T.);
#126=ORIENTED_EDGE('',*,*,#204,.T.);
#127=ORIENTED_EDGE('',*,*,#215,.F.);
#128=ORIENTED_EDGE('',*,*,#215,.T.);
#129=ORIENTED_EDGE('',*,*,#203,.F.);
#130=ORIENTED_EDGE('',*,*,#212,.F.);
#131=ORIENTED_EDGE('',*,*,#162,.F.);
#132=ORIENTED_EDGE('',*,*,#164,.T.);
#133=ORIENTED_EDGE('',*,*,#213,.T.);
#134=ORIENTED_EDGE('',*,*,#201,.T.);
#135=ORIENTED_EDGE('',*,*,#214,.F.);
#136=ORIENTED_EDGE('',*,*,#168,.T.);
#137=ORIENTED_EDGE('',*,*,#200,.T.);
#138=ORIENTED_EDGE('',*,*,#198,.T.);
#139=ORIENTED_EDGE('',*,*,#196,.T.);
#140=ORIENTED_EDGE('',*,*,#194,.T.);
#141=ORIENTED_EDGE('',*,*,#192,.T.);
#142=ORIENTED_EDGE('',*,*,#190,.T.);
#143=ORIENTED_EDGE('',*,*,#188,.T.);
#144=ORIENTED_EDGE('',*,*,#207,.T.);
#145=ORIENTED_EDGE('',*,*,#211,.T.);
#146=ORIENTED_EDGE('',*,*,#205,.F.);
#147=ORIENTED_EDGE('',*,*,#186,.T.);
#148=ORIENTED_EDGE('',*,*,#210,.F.);
#149=ORIENTED_EDGE('',*,*,#208,.F.);
#150=ORIENTED_EDGE('',*,*,#216,.T.);
#151=ORIENTED_EDGE('',*,*,#173,.T.);
#152=ORIENTED_EDGE('',*,*,#216,.F.);
#153=ORIENTED_EDGE('',*,*,#217,.T.);
#154=ORIENTED_EDGE('',*,*,#172,.T.);
#155=ORIENTED_EDGE('',*,*,#217,.F.);
#156=ORIENTED_EDGE('',*,*,#218,.T.);
#157=ORIENTED_EDGE('',*,*,#171,.T.);
#158=ORIENTED_EDGE('',*,*,#218,.F.);
#159=ORIENTED_EDGE('',*,*,#219,.T.);
#160=ORIENTED_EDGE('',*,*,#170,.T.);
#161=ORIENTED_EDGE('',*,*,#219,.F.);
#162=EDGE_CURVE('',#220,#221,#266,.T.);
#163=EDGE_CURVE('',#221,#222,#267,.T.);
#164=EDGE_CURVE('',#223,#222,#268,.T.);
#165=EDGE_CURVE('',#223,#224,#269,.T.);
#166=EDGE_CURVE('',#225,#224,#270,.T.);
#167=EDGE_CURVE('',#226,#225,#271,.T.);
#168=EDGE_CURVE('',#227,#226,#272,.T.);
#169=EDGE_CURVE('',#220,#227,#273,.T.);
#170=EDGE_CURVE('',#228,#228,#34,.F.);
#171=EDGE_CURVE('',#229,#229,#35,.F.);
#172=EDGE_CURVE('',#230,#230,#36,.F.);
#173=EDGE_CURVE('',#231,#231,#37,.F.);
#174=EDGE_CURVE('',#224,#232,#274,.T.);
#175=EDGE_CURVE('',#232,#233,#275,.T.);
#176=EDGE_CURVE('',#233,#234,#276,.T.);
#177=EDGE_CURVE('',#234,#235,#277,.T.);
#178=EDGE_CURVE('',#235,#236,#278,.T.);
#179=EDGE_CURVE('',#236,#237,#279,.T.);
#180=EDGE_CURVE('',#237,#225,#280,.T.);
#181=EDGE_CURVE('',#238,#239,#281,.T.);
#182=EDGE_CURVE('',#239,#240,#282,.T.);
#183=EDGE_CURVE('',#241,#240,#283,.T.);
#184=EDGE_CURVE('',#238,#241,#284,.T.);
#185=EDGE_CURVE('',#242,#239,#285,.T.);
#186=EDGE_CURVE('',#243,#242,#286,.T.);
#187=EDGE_CURVE('',#243,#240,#287,.T.);
#188=EDGE_CURVE('',#244,#223,#288,.T.);
#189=EDGE_CURVE('',#244,#232,#289,.T.);
#190=EDGE_CURVE('',#245,#244,#290,.T.);
#191=EDGE_CURVE('',#245,#233,#291,.T.);
#192=EDGE_CURVE('',#246,#245,#292,.T.);
#193=EDGE_CURVE('',#246,#234,#293,.T.);
#194=EDGE_CURVE('',#247,#246,#294,.T.);
#195=EDGE_CURVE('',#247,#235,#295,.T.);
#196=EDGE_CURVE('',#248,#247,#296,.T.);
#197=EDGE_CURVE('',#248,#236,#297,.T.);
#198=EDGE_CURVE('',#249,#248,#298,.T.);
#199=EDGE_CURVE('',#249,#237,#299,.T.);
#200=EDGE_CURVE('',#226,#249,#300,.T.);
#201=EDGE_CURVE('',#250,#251,#301,.T.);
#202=EDGE_CURVE('',#250,#252,#302,.T.);
#203=EDGE_CURVE('',#252,#253,#303,.T.);
#204=EDGE_CURVE('',#251,#253,#304,.T.);
#205=EDGE_CURVE('',#243,#254,#38,.F.);
#206=EDGE_CURVE('',#254,#241,#305,.T.);
#207=EDGE_CURVE('',#255,#255,#39,.F.);
#208=EDGE_CURVE('',#254,#256,#306,.T.);
#209=EDGE_CURVE('',#256,#238,#307,.T.);
#210=EDGE_CURVE('',#256,#242,#40,.T.);
#211=EDGE_CURVE('',#257,#257,#41,.T.);
#212=EDGE_CURVE('',#221,#252,#308,.T.);
#213=EDGE_CURVE('',#222,#250,#309,.T.);
#214=EDGE_CURVE('',#227,#251,#310,.T.);
#215=EDGE_CURVE('',#220,#253,#311,.T.);
#216=EDGE_CURVE('',#258,#258,#42,.T.);
#217=EDGE_CURVE('',#260,#260,#43,.T.);
#218=EDGE_CURVE('',#262,#262,#44,.T.);
#219=EDGE_CURVE('',#264,#264,#45,.T.);
#220=VERTEX_POINT('',#667);
#221=VERTEX_POINT('',#668);
#222=VERTEX_POINT('',#670);
#223=VERTEX_POINT('',#672);
#224=VERTEX_POINT('',#674);
#225=VERTEX_POINT('',#676);
#226=VERTEX_POINT('',#678);
#227=VERTEX_POINT('',#680);
#228=VERTEX_POINT('',#684);
#229=VERTEX_POINT('',#686);
#230=VERTEX_POINT('',#688);
#231=VERTEX_POINT('',#690);
#232=VERTEX_POINT('',#692);
#233=VERTEX_POINT('',#694);
#234=VERTEX_POINT('',#696);
#235=VERTEX_POINT('',#698);
#236=VERTEX_POINT('',#700);
#237=VERTEX_POINT('',#702);
#238=VERTEX_POINT('',#705);
#239=VERTEX_POINT('',#706);
#240=VERTEX_POINT('',#708);
#241=VERTEX_POINT('',#710);
#242=VERTEX_POINT('',#714);
#243=VERTEX_POINT('',#716);
#244=VERTEX_POINT('',#720);
#245=VERTEX_POINT('',#724);
#246=VERTEX_POINT('',#728);
#247=VERTEX_POINT('',#732);
#248=VERTEX_POINT('',#736);
#249=VERTEX_POINT('',#740);
#250=VERTEX_POINT('',#746);
#251=VERTEX_POINT('',#747);
#252=VERTEX_POINT('',#749);
#253=VERTEX_POINT('',#751);
#254=VERTEX_POINT('',#754);
#255=VERTEX_POINT('',#757);
#256=VERTEX_POINT('',#760);
#257=VERTEX_POINT('',#765);
#258=VERTEX_POINT('',#778);
#259=VERTEX_POINT('',#780);
#260=VERTEX_POINT('',#783);
#261=VERTEX_POINT('',#785);
#262=VERTEX_POINT('',#788);
#263=VERTEX_POINT('',#790);
#264=VERTEX_POINT('',#793);
#265=VERTEX_POINT('',#795);
#266=LINE('',#666,#312);
#267=LINE('',#669,#313);
#268=LINE('',#671,#314);
#269=LINE('',#673,#315);
#270=LINE('',#675,#316);
#271=LINE('',#677,#317);
#272=LINE('',#679,#318);
#273=LINE('',#681,#319);
#274=LINE('',#691,#320);
#275=LINE('',#693,#321);
#276=LINE('',#695,#322);
#277=LINE('',#697,#323);
#278=LINE('',#699,#324);
#279=LINE('',#701,#325);
#280=LINE('',#703,#326);
#281=LINE('',#704,#327);
#282=LINE('',#707,#328);
#283=LINE('',#709,#329);
#284=LINE('',#711,#330);
#285=LINE('',#713,#331);
#286=LINE('',#715,#332);
#287=LINE('',#717,#333);
#288=LINE('',#719,#334);
#289=LINE('',#721,#335);
#290=LINE('',#723,#336);
#291=LINE('',#725,#337);
#292=LINE('',#727,#338);
#293=LINE('',#729,#339);
#294=LINE('',#731,#340);
#295=LINE('',#733,#341);
#296=LINE('',#735,#342);
#297=LINE('',#737,#343);
#298=LINE('',#739,#344);
#299=LINE('',#741,#345);
#300=LINE('',#743,#346);
#301=LINE('',#745,#347);
#302=LINE('',#748,#348);
#303=LINE('',#750,#349);
#304=LINE('',#752,#350);
#305=LINE('',#755,#351);
#306=LINE('',#759,#352);
#307=LINE('',#761,#353);
#308=LINE('',#767,#354);
#309=LINE('',#768,#355);
#310=LINE('',#770,#356);
#311=LINE('',#771,#357);
#312=VECTOR('',#542,1.);
#313=VECTOR('',#543,1.);
#314=VECTOR('',#544,1.);
#315=VECTOR('',#545,1.);
#316=VECTOR('',#546,1.);
#317=VECTOR('',#547,1.);
#318=VECTOR('',#548,1.);
#319=VECTOR('',#549,1.);
#320=VECTOR('',#560,1.);
#321=VECTOR('',#561,1.);
#322=VECTOR('',#562,1.);
#323=VECTOR('',#563,1.);
#324=VECTOR('',#564,1.);
#325=VECTOR('',#565,1.);
#326=VECTOR('',#566,1.);
#327=VECTOR('',#567,1.);
#328=VECTOR('',#568,1.);
#329=VECTOR('',#569,1.);
#330=VECTOR('',#570,1.);
#331=VECTOR('',#573,1.);
#332=VECTOR('',#574,1.);
#333=VECTOR('',#575,1.);
#334=VECTOR('',#578,1.);
#335=VECTOR('',#579,1.);
#336=VECTOR('',#582,1.);
#337=VECTOR('',#583,1.);
#338=VECTOR('',#586,1.);
#339=VECTOR('',#587,1.);
#340=VECTOR('',#590,1.);
#341=VECTOR('',#591,1.);
#342=VECTOR('',#594,1.);
#343=VECTOR('',#595,1.);
#344=VECTOR('',#598,1.);
#345=VECTOR('',#599,1.);
#346=VECTOR('',#602,1.);
#347=VECTOR('',#605,1.);
#348=VECTOR('',#606,1.);
#349=VECTOR('',#607,1.);
#350=VECTOR('',#608,1.);
#351=VECTOR('',#611,1.);
#352=VECTOR('',#616,1.);
#353=VECTOR('',#617,1.);
#354=VECTOR('',#626,1.);
#355=VECTOR('',#627,1.);
#356=VECTOR('',#630,1.);
#357=VECTOR('',#631,1.);
#358=EDGE_LOOP('',(#46,#47,#48,#49,#50,#51,#52,#53));
#359=EDGE_LOOP('',(#54));
#360=EDGE_LOOP('',(#55));
#361=EDGE_LOOP('',(#56));
#362=EDGE_LOOP('',(#57));
#363=EDGE_LOOP('',(#58,#59,#60,#61,#62,#63,#64,#65));
#364=EDGE_LOOP('',(#66,#67,#68,#69));
#365=EDGE_LOOP('',(#70,#71,#72,#73));
#366=EDGE_LOOP('',(#74,#75,#76,#77));
#367=EDGE_LOOP('',(#78,#79,#80,#81));
#368=EDGE_LOOP('',(#82,#83,#84,#85));
#369=EDGE_LOOP('',(#86,#87,#88,#89));
#370=EDGE_LOOP('',(#90,#91,#92,#93));
#371=EDGE_LOOP('',(#94,#95,#96,#97));
#372=EDGE_LOOP('',(#98,#99,#100,#101));
#373=EDGE_LOOP('',(#102,#103,#104,#105));
#374=EDGE_LOOP('',(#106,#107,#108,#109));
#375=EDGE_LOOP('',(#110));
#376=EDGE_LOOP('',(#111,#112,#113,#114));
#377=EDGE_LOOP('',(#115,#116,#117,#118));
#378=EDGE_LOOP('',(#119));
#379=EDGE_LOOP('',(#120,#121,#122,#123));
#380=EDGE_LOOP('',(#124,#125,#126,#127));
#381=EDGE_LOOP('',(#128,#129,#130,#131));
#382=EDGE_LOOP('',(#132,#133,#134,#135,#136,#137,#138,#139,#140,#141,#142,
#143));
#383=EDGE_LOOP('',(#144));
#384=EDGE_LOOP('',(#145));
#385=EDGE_LOOP('',(#146,#147,#148,#149));
#386=EDGE_LOOP('',(#150));
#387=EDGE_LOOP('',(#151));
#388=EDGE_LOOP('',(#152));
#389=EDGE_LOOP('',(#153));
#390=EDGE_LOOP('',(#154));
#391=EDGE_LOOP('',(#155));
#392=EDGE_LOOP('',(#156));
#393=EDGE_LOOP('',(#157));
#394=EDGE_LOOP('',(#158));
#395=EDGE_LOOP('',(#159));
#396=EDGE_LOOP('',(#160));
#397=EDGE_LOOP('',(#161));
#398=FACE_BOUND('',#358,.T.);
#399=FACE_BOUND('',#359,.T.);
#400=FACE_BOUND('',#360,.T.);
#401=FACE_BOUND('',#361,.T.);
#402=FACE_BOUND('',#362,.T.);
#403=FACE_BOUND('',#363,.T.);
#404=FACE_BOUND('',#364,.T.);
#405=FACE_BOUND('',#365,.T.);
#406=FACE_BOUND('',#366,.T.);
#407=FACE_BOUND('',#367,.T.);
#408=FACE_BOUND('',#368,.T.);
#409=FACE_BOUND('',#369,.T.);
#410=FACE_BOUND('',#370,.T.);
#411=FACE_BOUND('',#371,.T.);
#412=FACE_BOUND('',#372,.T.);
#413=FACE_BOUND('',#373,.T.);
#414=FACE_BOUND('',#374,.T.);
#415=FACE_BOUND('',#375,.T.);
#416=FACE_BOUND('',#376,.T.);
#417=FACE_BOUND('',#377,.T.);
#418=FACE_BOUND('',#378,.T.);
#419=FACE_BOUND('',#379,.T.);
#420=FACE_BOUND('',#380,.T.);
#421=FACE_BOUND('',#381,.T.);
#422=FACE_BOUND('',#382,.T.);
#423=FACE_BOUND('',#383,.T.);
#424=FACE_BOUND('',#384,.T.);
#425=FACE_BOUND('',#385,.T.);
#426=FACE_BOUND('',#386,.T.);
#427=FACE_BOUND('',#387,.T.);
#428=FACE_BOUND('',#20,.T.);
#429=FACE_BOUND('',#388,.T.);
#430=FACE_BOUND('',#389,.T.);
#431=FACE_BOUND('',#390,.T.);
#432=FACE_BOUND('',#21,.T.);
#433=FACE_BOUND('',#391,.T.);
#434=FACE_BOUND('',#392,.T.);
#435=FACE_BOUND('',#393,.T.);
#436=FACE_BOUND('',#22,.T.);
#437=FACE_BOUND('',#394,.T.);
#438=FACE_BOUND('',#395,.T.);
#439=FACE_BOUND('',#396,.T.);
#440=FACE_BOUND('',#23,.T.);
#441=FACE_BOUND('',#397,.T.);
#442=PLANE('',#499);
#443=PLANE('',#500);
#444=PLANE('',#505);
#445=PLANE('',#506);
#446=PLANE('',#507);
#447=PLANE('',#508);
#448=PLANE('',#509);
#449=PLANE('',#510);
#450=PLANE('',#511);
#451=PLANE('',#512);
#452=PLANE('',#513);
#453=PLANE('',#516);
#454=PLANE('',#517);
#455=PLANE('',#520);
#456=PLANE('',#521);
#457=PLANE('',#522);
#458=PLANE('',#523);
#459=ADVANCED_FACE('',(#398),#442,.T.);
#460=ADVANCED_FACE('',(#399,#400,#401,#402,#403,#404),#443,.F.);
#461=ADVANCED_FACE('',(#405),#444,.T.);
#462=ADVANCED_FACE('',(#406),#445,.T.);
#463=ADVANCED_FACE('',(#407),#446,.T.);
#464=ADVANCED_FACE('',(#408),#447,.T.);
#465=ADVANCED_FACE('',(#409),#448,.T.);
#466=ADVANCED_FACE('',(#410),#449,.T.);
#467=ADVANCED_FACE('',(#411),#450,.T.);
#468=ADVANCED_FACE('',(#412),#451,.T.);
#469=ADVANCED_FACE('',(#413,#414,#415),#452,.F.);
#470=ADVANCED_FACE('',(#416),#453,.F.);
#471=ADVANCED_FACE('',(#417,#418),#454,.T.);
#472=ADVANCED_FACE('',(#419),#455,.T.);
#473=ADVANCED_FACE('',(#420),#456,.F.);
#474=ADVANCED_FACE('',(#421),#457,.T.);
#475=ADVANCED_FACE('',(#422),#458,.F.);
#476=ADVANCED_FACE('',(#423,#424),#28,.F.);
#477=ADVANCED_FACE('',(#425),#29,.T.);
#478=ADVANCED_FACE('',(#426,#427),#30,.F.);
#479=ADVANCED_FACE('',(#428,#429),#24,.F.);
#480=ADVANCED_FACE('',(#430,#431),#31,.F.);
#481=ADVANCED_FACE('',(#432,#433),#25,.F.);
#482=ADVANCED_FACE('',(#434,#435),#32,.F.);
#483=ADVANCED_FACE('',(#436,#437),#26,.F.);
#484=ADVANCED_FACE('',(#438,#439),#33,.F.);
#485=ADVANCED_FACE('',(#440,#441),#27,.F.);
#486=CLOSED_SHELL('',(#459,#460,#461,#462,#463,#464,#465,#466,#467,#468,
#469,#470,#471,#472,#473,#474,#475,#476,#477,#478,#479,#480,#481,#482,#483,
#484,#485));
#487=STYLED_ITEM('',(#488),#495);
#488=PRESENTATION_STYLE_ASSIGNMENT((#489));
#489=SURFACE_STYLE_USAGE(.BOTH.,#490);
#490=SURFACE_SIDE_STYLE('',(#491));
#491=SURFACE_STYLE_FILL_AREA(#492);
#492=FILL_AREA_STYLE('',(#493));
#493=FILL_AREA_STYLE_COLOUR('',#494);
#494=COLOUR_RGB('',0.647058823529412,0.647058823529412,0.647058823529412);
#495=MANIFOLD_SOLID_BREP('Part 2',#486);
#496=SHAPE_DEFINITION_REPRESENTATION(#802,#497);
#497=SHAPE_REPRESENTATION('Part 2',(#498),#797);
#498=AXIS2_PLACEMENT_3D('',#664,#538,#539);
#499=AXIS2_PLACEMENT_3D('',#665,#540,#541);
#500=AXIS2_PLACEMENT_3D('',#682,#550,#551);
#501=AXIS2_PLACEMENT_3D('',#683,#552,#553);
#502=AXIS2_PLACEMENT_3D('',#685,#554,#555);
#503=AXIS2_PLACEMENT_3D('',#687,#556,#557);
#504=AXIS2_PLACEMENT_3D('',#689,#558,#559);
#505=AXIS2_PLACEMENT_3D('',#712,#571,#572);
#506=AXIS2_PLACEMENT_3D('',#718,#576,#577);
#507=AXIS2_PLACEMENT_3D('',#722,#580,#581);
#508=AXIS2_PLACEMENT_3D('',#726,#584,#585);
#509=AXIS2_PLACEMENT_3D('',#730,#588,#589);
#510=AXIS2_PLACEMENT_3D('',#734,#592,#593);
#511=AXIS2_PLACEMENT_3D('',#738,#596,#597);
#512=AXIS2_PLACEMENT_3D('',#742,#600,#601);
#513=AXIS2_PLACEMENT_3D('',#744,#603,#604);
#514=AXIS2_PLACEMENT_3D('',#753,#609,#610);
#515=AXIS2_PLACEMENT_3D('',#756,#612,#613);
#516=AXIS2_PLACEMENT_3D('',#758,#614,#615);
#517=AXIS2_PLACEMENT_3D('',#762,#618,#619);
#518=AXIS2_PLACEMENT_3D('',#763,#620,#621);
#519=AXIS2_PLACEMENT_3D('',#764,#622,#623);
#520=AXIS2_PLACEMENT_3D('',#766,#624,#625);
#521=AXIS2_PLACEMENT_3D('',#769,#628,#629);
#522=AXIS2_PLACEMENT_3D('',#772,#632,#633);
#523=AXIS2_PLACEMENT_3D('',#773,#634,#635);
#524=AXIS2_PLACEMENT_3D('',#774,#636,#637);
#525=AXIS2_PLACEMENT_3D('',#775,#638,#639);
#526=AXIS2_PLACEMENT_3D('',#776,#640,#641);
#527=AXIS2_PLACEMENT_3D('',#777,#642,#643);
#528=AXIS2_PLACEMENT_3D('',#779,#644,#645);
#529=AXIS2_PLACEMENT_3D('',#781,#646,#647);
#530=AXIS2_PLACEMENT_3D('',#782,#648,#649);
#531=AXIS2_PLACEMENT_3D('',#784,#650,#651);
#532=AXIS2_PLACEMENT_3D('',#786,#652,#653);
#533=AXIS2_PLACEMENT_3D('',#787,#654,#655);
#534=AXIS2_PLACEMENT_3D('',#789,#656,#657);
#535=AXIS2_PLACEMENT_3D('',#791,#658,#659);
#536=AXIS2_PLACEMENT_3D('',#792,#660,#661);
#537=AXIS2_PLACEMENT_3D('',#794,#662,#663);
#538=DIRECTION('',(0.,0.,1.));
#539=DIRECTION('',(1.,0.,0.));
#540=DIRECTION('',(1.,0.,0.));
#541=DIRECTION('',(0.,0.,-1.));
#542=DIRECTION('',(0.,-1.,0.));
#543=DIRECTION('',(0.,2.16840434497101E-16,1.));
#544=DIRECTION('',(0.,1.,0.));
#545=DIRECTION('',(0.,0.,-1.));
#546=DIRECTION('',(0.,-1.,0.));
#547=DIRECTION('',(0.,0.,-1.));
#548=DIRECTION('',(0.,1.,0.));
#549=DIRECTION('',(0.,2.16840434497101E-16,1.));
#550=DIRECTION('',(0.,0.,1.));
#551=DIRECTION('',(1.,0.,0.));
#552=DIRECTION('',(0.,0.,1.));
#553=DIRECTION('',(1.,0.,0.));
#554=DIRECTION('',(0.,0.,1.));
#555=DIRECTION('',(1.,0.,0.));
#556=DIRECTION('',(0.,0.,1.));
#557=DIRECTION('',(1.,0.,0.));
#558=DIRECTION('',(0.,0.,1.));
#559=DIRECTION('',(1.,0.,0.));
#560=DIRECTION('',(0.707106781186548,-0.707106781186548,0.));
#561=DIRECTION('',(1.,0.,0.));
#562=DIRECTION('',(0.707106781186548,0.707106781186548,0.));
#563=DIRECTION('',(0.,1.,0.));
#564=DIRECTION('',(-0.707106781186548,0.707106781186548,0.));
#565=DIRECTION('',(-1.,0.,0.));
#566=DIRECTION('',(-0.707106781186548,-0.707106781186548,0.));
#567=DIRECTION('',(0.,-1.,0.));
#568=DIRECTION('',(-1.,-1.37950177016048E-16,0.));
#569=DIRECTION('',(0.,-1.,0.));
#570=DIRECTION('',(-1.,-1.37950177016048E-16,0.));
#571=DIRECTION('',(1.37950177016048E-16,-1.,0.));
#572=DIRECTION('',(1.,1.37950177016048E-16,0.));
#573=DIRECTION('',(0.,0.,-1.));
#574=DIRECTION('',(1.,0.,0.));
#575=DIRECTION('',(0.,0.,-1.));
#576=DIRECTION('',(0.707106781186548,0.707106781186548,0.));
#577=DIRECTION('',(-0.707106781186548,0.707106781186548,0.));
#578=DIRECTION('',(-0.707106781186548,0.707106781186548,0.));
#579=DIRECTION('',(0.,0.,-1.));
#580=DIRECTION('',(0.,1.,0.));
#581=DIRECTION('',(0.,0.,1.));
#582=DIRECTION('',(-1.,0.,0.));
#583=DIRECTION('',(0.,0.,-1.));
#584=DIRECTION('',(-0.707106781186548,0.707106781186548,0.));
#585=DIRECTION('',(-0.707106781186548,-0.707106781186548,0.));
#586=DIRECTION('',(-0.707106781186548,-0.707106781186548,0.));
#587=DIRECTION('',(0.,0.,-1.));
#588=DIRECTION('',(-1.,0.,0.));
#589=DIRECTION('',(0.,0.,1.));
#590=DIRECTION('',(0.,-1.,0.));
#591=DIRECTION('',(0.,0.,-1.));
#592=DIRECTION('',(-0.707106781186548,-0.707106781186548,0.));
#593=DIRECTION('',(0.707106781186548,-0.707106781186548,0.));
#594=DIRECTION('',(0.707106781186548,-0.707106781186548,0.));
#595=DIRECTION('',(0.,0.,-1.));
#596=DIRECTION('',(0.,-1.,0.));
#597=DIRECTION('',(0.,0.,-1.));
#598=DIRECTION('',(1.,0.,0.));
#599=DIRECTION('',(0.,0.,-1.));
#600=DIRECTION('',(0.707106781186548,-0.707106781186548,0.));
#601=DIRECTION('',(0.707106781186548,0.707106781186548,0.));
#602=DIRECTION('',(0.707106781186548,0.707106781186548,0.));
#603=DIRECTION('',(1.,0.,0.));
#604=DIRECTION('',(0.,0.,-1.));
#605=DIRECTION('',(0.,1.,0.));
#606=DIRECTION('',(0.,-2.16840434497101E-16,-1.));
#607=DIRECTION('',(0.,1.,0.));
#608=DIRECTION('',(0.,-2.16840434497101E-16,-1.));
#609=DIRECTION('',(1.,0.,0.));
#610=DIRECTION('',(0.,0.,-1.));
#611=DIRECTION('',(0.,0.,-1.));
#612=DIRECTION('',(1.,0.,0.));
#613=DIRECTION('',(0.,0.,-1.));
#614=DIRECTION('',(1.37950177016048E-16,-1.,0.));
#615=DIRECTION('',(1.,1.37950177016048E-16,0.));
#616=DIRECTION('',(1.,0.,0.));
#617=DIRECTION('',(0.,0.,-1.));
#618=DIRECTION('',(1.,0.,0.));
#619=DIRECTION('',(0.,0.,-1.));
#620=DIRECTION('',(1.,0.,0.));
#621=DIRECTION('',(0.,0.,-1.));
#622=DIRECTION('',(1.,0.,0.));
#623=DIRECTION('',(0.,0.,-1.));
#624=DIRECTION('',(0.,1.,-2.16840434497101E-16));
#625=DIRECTION('',(0.,2.16840434497101E-16,1.));
#626=DIRECTION('',(-1.,0.,0.));
#627=DIRECTION('',(-1.,0.,0.));
#628=DIRECTION('',(0.,1.,-2.16840434497101E-16));
#629=DIRECTION('',(0.,2.16840434497101E-16,1.));
#630=DIRECTION('',(-1.,0.,0.));
#631=DIRECTION('',(-1.,0.,0.));
#632=DIRECTION('',(0.,0.,1.));
#633=DIRECTION('',(1.,0.,0.));
#634=DIRECTION('',(0.,0.,1.));
#635=DIRECTION('',(1.,0.,0.));
#636=DIRECTION('',(1.,0.,0.));
#637=DIRECTION('',(0.,0.,-1.));
#638=DIRECTION('',(1.,0.,0.));
#639=DIRECTION('',(0.,0.,-1.));
#640=DIRECTION('',(0.,0.,1.));
#641=DIRECTION('',(1.,0.,0.));
#642=DIRECTION('',(0.,0.,1.));
#643=DIRECTION('',(1.,0.,0.));
#644=DIRECTION('',(0.,0.,-1.));
#645=DIRECTION('',(-1.,0.,0.));
#646=DIRECTION('',(0.,0.,1.));
#647=DIRECTION('',(1.,0.,0.));
#648=DIRECTION('',(0.,0.,1.));
#649=DIRECTION('',(1.,0.,0.));
#650=DIRECTION('',(0.,0.,-1.));
#651=DIRECTION('',(-1.,0.,0.));
#652=DIRECTION('',(0.,0.,1.));
#653=DIRECTION('',(1.,0.,0.));
#654=DIRECTION('',(0.,0.,1.));
#655=DIRECTION('',(1.,0.,0.));
#656=DIRECTION('',(0.,0.,-1.));
#657=DIRECTION('',(-1.,0.,0.));
#658=DIRECTION('',(0.,0.,1.));
#659=DIRECTION('',(1.,0.,0.));
#660=DIRECTION('',(0.,0.,1.));
#661=DIRECTION('',(1.,0.,0.));
#662=DIRECTION('',(0.,0.,-1.));
#663=DIRECTION('',(-1.,0.,0.));
#664=CARTESIAN_POINT('',(0.,0.,0.));
#665=CARTESIAN_POINT('',(-0.02155,0.,0.030002));
#666=CARTESIAN_POINT('',(-0.02155,0.,0.026));
#667=CARTESIAN_POINT('',(-0.02155,0.005,0.026));
#668=CARTESIAN_POINT('',(-0.02155,-0.005,0.026));
#669=CARTESIAN_POINT('',(-0.02155,-0.005,0.030002));
#670=CARTESIAN_POINT('',(-0.02155,-0.005,0.03));
#671=CARTESIAN_POINT('',(-0.02155,0.,0.03));
#672=CARTESIAN_POINT('',(-0.02155,-0.0163156854249492,0.03));
#673=CARTESIAN_POINT('',(-0.02155,-0.0163156854249492,0.030002));
#674=CARTESIAN_POINT('',(-0.02155,-0.0163156854249492,0.004));
#675=CARTESIAN_POINT('',(-0.02155,0.,0.004));
#676=CARTESIAN_POINT('',(-0.02155,0.0163156854249492,0.004));
#677=CARTESIAN_POINT('',(-0.02155,0.0163156854249492,0.030002));
#678=CARTESIAN_POINT('',(-0.02155,0.0163156854249492,0.03));
#679=CARTESIAN_POINT('',(-0.02155,0.,0.03));
#680=CARTESIAN_POINT('',(-0.02155,0.005,0.03));
#681=CARTESIAN_POINT('',(-0.02155,0.005,0.030002));
#682=CARTESIAN_POINT('',(-3.46944695195361E-18,0.,0.004));
#683=CARTESIAN_POINT('',(0.02115,-0.02115,0.004));
#684=CARTESIAN_POINT('',(0.02225,-0.02115,0.004));
#685=CARTESIAN_POINT('',(-0.02115,-0.02115,0.004));
#686=CARTESIAN_POINT('',(-0.02005,-0.02115,0.004));
#687=CARTESIAN_POINT('',(-0.02115,0.02115,0.004));
#688=CARTESIAN_POINT('',(-0.02005,0.02115,0.004));
#689=CARTESIAN_POINT('',(0.02115,0.02115,0.004));
#690=CARTESIAN_POINT('',(0.02225,0.02115,0.004));
#691=CARTESIAN_POINT('',(-0.0189328427124746,-0.0189328427124746,0.004));
#692=CARTESIAN_POINT('',(-0.0163156854249492,-0.02155,0.004));
#693=CARTESIAN_POINT('',(6.93889390390723E-18,-0.02155,0.004));
#694=CARTESIAN_POINT('',(0.0163156854249492,-0.02155,0.004));
#695=CARTESIAN_POINT('',(0.0189328427124746,-0.0189328427124746,0.004));
#696=CARTESIAN_POINT('',(0.02155,-0.0163156854249492,0.004));
#697=CARTESIAN_POINT('',(0.02155,3.46944695195361E-18,0.004));
#698=CARTESIAN_POINT('',(0.02155,0.0163156854249492,0.004));
#699=CARTESIAN_POINT('',(0.0189328427124746,0.0189328427124746,0.004));
#700=CARTESIAN_POINT('',(0.0163156854249492,0.02155,0.004));
#701=CARTESIAN_POINT('',(-3.46944695195361E-18,0.02155,0.004));
#702=CARTESIAN_POINT('',(-0.0163156854249492,0.02155,0.004));
#703=CARTESIAN_POINT('',(-0.0189328427124746,0.0189328427124746,0.004));
#704=CARTESIAN_POINT('',(0.02515,3.46944695195361E-18,0.004));
#705=CARTESIAN_POINT('',(0.02515,0.02515,0.004));
#706=CARTESIAN_POINT('',(0.02515,-0.02515,0.004));
#707=CARTESIAN_POINT('',(-3.46944695195361E-18,-0.02515,0.004));
#708=CARTESIAN_POINT('',(-0.02515,-0.02515,0.004));
#709=CARTESIAN_POINT('',(-0.02515,0.,0.004));
#710=CARTESIAN_POINT('',(-0.02515,0.02515,0.004));
#711=CARTESIAN_POINT('',(-3.46944695195361E-18,0.02515,0.004));
#712=CARTESIAN_POINT('',(-3.46944695195361E-18,-0.02515,0.030002));
#713=CARTESIAN_POINT('',(0.02515,-0.02515,0.030002));
#714=CARTESIAN_POINT('',(0.02515,-0.02515,0.035));
#715=CARTESIAN_POINT('',(-0.025152,-0.02515,0.035));
#716=CARTESIAN_POINT('',(-0.02515,-0.02515,0.035));
#717=CARTESIAN_POINT('',(-0.02515,-0.02515,0.030002));
#718=CARTESIAN_POINT('',(-0.0189328427124746,-0.0189328427124746,0.030002));
#719=CARTESIAN_POINT('',(-0.0189328427124746,-0.0189328427124746,0.03));
#720=CARTESIAN_POINT('',(-0.0163156854249492,-0.02155,0.03));
#721=CARTESIAN_POINT('',(-0.0163156854249492,-0.02155,0.030002));
#722=CARTESIAN_POINT('',(6.93889390390723E-18,-0.02155,0.030002));
#723=CARTESIAN_POINT('',(6.93889390390723E-18,-0.02155,0.03));
#724=CARTESIAN_POINT('',(0.0163156854249492,-0.02155,0.03));
#725=CARTESIAN_POINT('',(0.0163156854249492,-0.02155,0.030002));
#726=CARTESIAN_POINT('',(0.0189328427124746,-0.0189328427124746,0.030002));
#727=CARTESIAN_POINT('',(0.0189328427124746,-0.0189328427124746,0.03));
#728=CARTESIAN_POINT('',(0.02155,-0.0163156854249492,0.03));
#729=CARTESIAN_POINT('',(0.02155,-0.0163156854249492,0.030002));
#730=CARTESIAN_POINT('',(0.02155,3.46944695195361E-18,0.030002));
#731=CARTESIAN_POINT('',(0.02155,3.46944695195361E-18,0.03));
#732=CARTESIAN_POINT('',(0.02155,0.0163156854249492,0.03));
#733=CARTESIAN_POINT('',(0.02155,0.0163156854249492,0.030002));
#734=CARTESIAN_POINT('',(0.0189328427124746,0.0189328427124746,0.030002));
#735=CARTESIAN_POINT('',(0.0189328427124746,0.0189328427124746,0.03));
#736=CARTESIAN_POINT('',(0.0163156854249492,0.02155,0.03));
#737=CARTESIAN_POINT('',(0.0163156854249492,0.02155,0.030002));
#738=CARTESIAN_POINT('',(-3.46944695195361E-18,0.02155,0.030002));
#739=CARTESIAN_POINT('',(-3.46944695195361E-18,0.02155,0.03));
#740=CARTESIAN_POINT('',(-0.0163156854249492,0.02155,0.03));
#741=CARTESIAN_POINT('',(-0.0163156854249492,0.02155,0.030002));
#742=CARTESIAN_POINT('',(-0.0189328427124746,0.0189328427124746,0.030002));
#743=CARTESIAN_POINT('',(-0.0189328427124746,0.0189328427124746,0.03));
#744=CARTESIAN_POINT('',(-0.02515,0.,0.030002));
#745=CARTESIAN_POINT('',(-0.02515,3.46944695195361E-18,0.03));
#746=CARTESIAN_POINT('',(-0.02515,-0.005,0.03));
#747=CARTESIAN_POINT('',(-0.02515,0.005,0.03));
#748=CARTESIAN_POINT('',(-0.02515,-0.005,0.028));
#749=CARTESIAN_POINT('',(-0.02515,-0.005,0.026));
#750=CARTESIAN_POINT('',(-0.02515,0.,0.026));
#751=CARTESIAN_POINT('',(-0.02515,0.005,0.026));
#752=CARTESIAN_POINT('',(-0.02515,0.005,0.028));
#753=CARTESIAN_POINT('',(-0.02515,3.46944695195361E-18,0.035));
#754=CARTESIAN_POINT('',(-0.02515,0.02515,0.035));
#755=CARTESIAN_POINT('',(-0.02515,0.02515,0.030002));
#756=CARTESIAN_POINT('',(-0.02515,-8.67361737988404E-19,0.047575));
#757=CARTESIAN_POINT('',(-0.02515,-8.67361737988404E-19,0.042575));
#758=CARTESIAN_POINT('',(-3.46944695195361E-18,0.02515,0.030002));
#759=CARTESIAN_POINT('',(-0.025152,0.02515,0.035));
#760=CARTESIAN_POINT('',(0.02515,0.02515,0.035));
#761=CARTESIAN_POINT('',(0.02515,0.02515,0.030002));
#762=CARTESIAN_POINT('',(0.02515,3.46944695195361E-18,0.030002));
#763=CARTESIAN_POINT('',(0.02515,3.46944695195361E-18,0.035));
#764=CARTESIAN_POINT('',(0.02515,-8.67361737988404E-19,0.047575));
#765=CARTESIAN_POINT('',(0.02515,-8.67361737988404E-19,0.042575));
#766=CARTESIAN_POINT('',(-0.000150000000000004,-0.005,0.028));
#767=CARTESIAN_POINT('',(-0.000150000000000004,-0.005,0.026));
#768=CARTESIAN_POINT('',(-0.000150000000000004,-0.005,0.03));
#769=CARTESIAN_POINT('',(-0.000150000000000004,0.005,0.028));
#770=CARTESIAN_POINT('',(-0.000150000000000004,0.005,0.03));
#771=CARTESIAN_POINT('',(-0.000150000000000004,0.005,0.026));
#772=CARTESIAN_POINT('',(-0.000150000000000004,0.,0.026));
#773=CARTESIAN_POINT('',(-0.025152,3.46944695195361E-18,0.03));
#774=CARTESIAN_POINT('',(-0.025152,-8.67361737988404E-19,0.047575));
#775=CARTESIAN_POINT('',(-0.025152,3.46944695195361E-18,0.035));
#776=CARTESIAN_POINT('',(0.02115,0.02115,0.));
#777=CARTESIAN_POINT('',(0.02115,0.02115,0.03));
#778=CARTESIAN_POINT('',(0.02225,0.02115,0.03));
#779=CARTESIAN_POINT('',(0.02115,0.02115,0.03));
#780=CARTESIAN_POINT('',(0.02115,0.02115,0.0306609466809303));
#781=CARTESIAN_POINT('',(-0.02115,0.02115,0.));
#782=CARTESIAN_POINT('',(-0.02115,0.02115,0.03));
#783=CARTESIAN_POINT('',(-0.02005,0.02115,0.03));
#784=CARTESIAN_POINT('',(-0.02115,0.02115,0.03));
#785=CARTESIAN_POINT('',(-0.02115,0.02115,0.0306609466809303));
#786=CARTESIAN_POINT('',(-0.02115,-0.02115,0.));
#787=CARTESIAN_POINT('',(-0.02115,-0.02115,0.03));
#788=CARTESIAN_POINT('',(-0.02005,-0.02115,0.03));
#789=CARTESIAN_POINT('',(-0.02115,-0.02115,0.03));
#790=CARTESIAN_POINT('',(-0.02115,-0.02115,0.0306609466809303));
#791=CARTESIAN_POINT('',(0.02115,-0.02115,0.));
#792=CARTESIAN_POINT('',(0.02115,-0.02115,0.03));
#793=CARTESIAN_POINT('',(0.02225,-0.02115,0.03));
#794=CARTESIAN_POINT('',(0.02115,-0.02115,0.03));
#795=CARTESIAN_POINT('',(0.02115,-0.02115,0.0306609466809303));
#796=MECHANICAL_DESIGN_GEOMETRIC_PRESENTATION_REPRESENTATION('',(#487),
#797);
#797=(
GEOMETRIC_REPRESENTATION_CONTEXT(3)
GLOBAL_UNCERTAINTY_ASSIGNED_CONTEXT((#798))
GLOBAL_UNIT_ASSIGNED_CONTEXT((#801,#800,#799))
REPRESENTATION_CONTEXT('Part 2','TOP_LEVEL_ASSEMBLY_PART')
);
#798=UNCERTAINTY_MEASURE_WITH_UNIT(LENGTH_MEASURE(1.E-8),#801,
'DISTANCE_ACCURACY_VALUE','Maximum Tolerance applied to model');
#799=(
NAMED_UNIT(*)
SI_UNIT($,.STERADIAN.)
SOLID_ANGLE_UNIT()
);
#800=(
NAMED_UNIT(*)
PLANE_ANGLE_UNIT()
SI_UNIT($,.RADIAN.)
);
#801=(
LENGTH_UNIT()
NAMED_UNIT(*)
SI_UNIT($,.METRE.)
);
#802=PRODUCT_DEFINITION_SHAPE('','',#803);
#803=PRODUCT_DEFINITION('','',#805,#804);
#804=PRODUCT_DEFINITION_CONTEXT('',#811,'design');
#805=PRODUCT_DEFINITION_FORMATION_WITH_SPECIFIED_SOURCE('','',#807,
 .NOT_KNOWN.);
#806=PRODUCT_RELATED_PRODUCT_CATEGORY('','',(#807));
#807=PRODUCT('Part 2','Part 2','Part 2',(#809));
#808=PRODUCT_CATEGORY('','');
#809=PRODUCT_CONTEXT('',#811,'mechanical');
#810=APPLICATION_PROTOCOL_DEFINITION('international standard',
'automotive_design',2010,#811);
#811=APPLICATION_CONTEXT(
'core data for automotive mechanical design processes');
ENDSEC;
END-ISO-10303-21;
