ISO-10303-21;
HEADER;
/* Generated by software containing ST-Developer
 * from STEP Tools, Inc. (www.steptools.com) 
 */
/* OPTION: using custom renumber hook */

FILE_DESCRIPTION(
/* description */ ('STEP AP214',
'CAx-IF Rec.Pracs.---User Defined Attributes---1.5---2016-08-15'),
/* implementation_level */ '2;1');

FILE_NAME(
/* name */ 'Base turn - Part 2 (5)',
/* time_stamp */ '2026-05-17T02:39:04Z',
/* author */ (''),
/* organization */ (''),
/* preprocessor_version */ 'ST-DEVELOPER v20',
/* originating_system */ 'ONSHAPE BY PTC INC, 1.215',
/* authorisation */ '  ');

FILE_SCHEMA (('AUTOMOTIVE_DESIGN {1 0 10303 214 3 1 1}'));
ENDSEC;

DATA;
#10=PROPERTY_DEFINITION_REPRESENTATION(#14,#12);
#11=PROPERTY_DEFINITION_REPRESENTATION(#15,#13);
#12=REPRESENTATION('',(#16),#879);
#13=REPRESENTATION('',(#17),#879);
#14=PROPERTY_DEFINITION('pmi validation property','',#884);
#15=PROPERTY_DEFINITION('pmi validation property','',#884);
#16=VALUE_REPRESENTATION_ITEM('number of annotations',COUNT_MEASURE(0.));
#17=VALUE_REPRESENTATION_ITEM('number of views',COUNT_MEASURE(0.));
#18=SHAPE_REPRESENTATION_RELATIONSHIP('','',#545,#19);
#19=ADVANCED_BREP_SHAPE_REPRESENTATION('',(#543),#879);
#20=CYLINDRICAL_SURFACE('',#559,0.0032);
#21=CYLINDRICAL_SURFACE('',#562,0.0032);
#22=CYLINDRICAL_SURFACE('',#567,0.0016);
#23=CYLINDRICAL_SURFACE('',#570,0.0016);
#24=CYLINDRICAL_SURFACE('',#578,0.0016);
#25=CYLINDRICAL_SURFACE('',#581,0.0016);
#26=CYLINDRICAL_SURFACE('',#591,0.005);
#27=VERTEX_LOOP('',#268);
#28=VERTEX_LOOP('',#270);
#29=VERTEX_LOOP('',#278);
#30=VERTEX_LOOP('',#280);
#31=VERTEX_LOOP('',#284);
#32=VERTEX_LOOP('',#286);
#33=CONICAL_SURFACE('',#557,0.0032,1.02974425867665);
#34=CONICAL_SURFACE('',#560,0.0032,1.02974425867665);
#35=CONICAL_SURFACE('',#569,0.0016,1.02974425867665);
#36=CONICAL_SURFACE('',#572,0.0016,1.02974425867665);
#37=CONICAL_SURFACE('',#580,0.0016,1.02974425867665);
#38=CONICAL_SURFACE('',#583,0.0016,1.02974425867665);
#39=CIRCLE('',#551,0.0032);
#40=CIRCLE('',#552,0.0032);
#41=CIRCLE('',#558,0.0032);
#42=CIRCLE('',#561,0.0032);
#43=CIRCLE('',#564,0.0016);
#44=CIRCLE('',#565,0.0016);
#45=CIRCLE('',#568,0.0016);
#46=CIRCLE('',#571,0.0016);
#47=CIRCLE('',#576,0.0016);
#48=CIRCLE('',#577,0.0016);
#49=CIRCLE('',#579,0.0016);
#50=CIRCLE('',#582,0.0016);
#51=CIRCLE('',#588,0.005);
#52=CIRCLE('',#590,0.005);
#53=ORIENTED_EDGE('',*,*,#177,.T.);
#54=ORIENTED_EDGE('',*,*,#178,.T.);
#55=ORIENTED_EDGE('',*,*,#179,.F.);
#56=ORIENTED_EDGE('',*,*,#180,.T.);
#57=ORIENTED_EDGE('',*,*,#181,.F.);
#58=ORIENTED_EDGE('',*,*,#182,.F.);
#59=ORIENTED_EDGE('',*,*,#183,.T.);
#60=ORIENTED_EDGE('',*,*,#184,.T.);
#61=ORIENTED_EDGE('',*,*,#185,.F.);
#62=ORIENTED_EDGE('',*,*,#177,.F.);
#63=ORIENTED_EDGE('',*,*,#186,.T.);
#64=ORIENTED_EDGE('',*,*,#187,.T.);
#65=ORIENTED_EDGE('',*,*,#188,.T.);
#66=ORIENTED_EDGE('',*,*,#189,.F.);
#67=ORIENTED_EDGE('',*,*,#190,.T.);
#68=ORIENTED_EDGE('',*,*,#191,.T.);
#69=ORIENTED_EDGE('',*,*,#192,.T.);
#70=ORIENTED_EDGE('',*,*,#193,.T.);
#71=ORIENTED_EDGE('',*,*,#194,.T.);
#72=ORIENTED_EDGE('',*,*,#195,.T.);
#73=ORIENTED_EDGE('',*,*,#196,.F.);
#74=ORIENTED_EDGE('',*,*,#197,.F.);
#75=ORIENTED_EDGE('',*,*,#198,.F.);
#76=ORIENTED_EDGE('',*,*,#199,.T.);
#77=ORIENTED_EDGE('',*,*,#200,.T.);
#78=ORIENTED_EDGE('',*,*,#194,.F.);
#79=ORIENTED_EDGE('',*,*,#184,.F.);
#80=ORIENTED_EDGE('',*,*,#201,.F.);
#81=ORIENTED_EDGE('',*,*,#202,.T.);
#82=ORIENTED_EDGE('',*,*,#203,.F.);
#83=ORIENTED_EDGE('',*,*,#204,.T.);
#84=ORIENTED_EDGE('',*,*,#196,.T.);
#85=ORIENTED_EDGE('',*,*,#205,.F.);
#86=ORIENTED_EDGE('',*,*,#206,.T.);
#87=ORIENTED_EDGE('',*,*,#207,.F.);
#88=ORIENTED_EDGE('',*,*,#189,.T.);
#89=ORIENTED_EDGE('',*,*,#208,.T.);
#90=ORIENTED_EDGE('',*,*,#209,.F.);
#91=ORIENTED_EDGE('',*,*,#210,.F.);
#92=ORIENTED_EDGE('',*,*,#205,.T.);
#93=ORIENTED_EDGE('',*,*,#195,.F.);
#94=ORIENTED_EDGE('',*,*,#200,.F.);
#95=ORIENTED_EDGE('',*,*,#211,.F.);
#96=ORIENTED_EDGE('',*,*,#208,.F.);
#97=ORIENTED_EDGE('',*,*,#188,.F.);
#98=ORIENTED_EDGE('',*,*,#212,.F.);
#99=ORIENTED_EDGE('',*,*,#213,.F.);
#100=ORIENTED_EDGE('',*,*,#213,.T.);
#101=ORIENTED_EDGE('',*,*,#193,.F.);
#102=ORIENTED_EDGE('',*,*,#214,.F.);
#103=ORIENTED_EDGE('',*,*,#214,.T.);
#104=ORIENTED_EDGE('',*,*,#192,.F.);
#105=ORIENTED_EDGE('',*,*,#215,.F.);
#106=ORIENTED_EDGE('',*,*,#216,.F.);
#107=ORIENTED_EDGE('',*,*,#210,.T.);
#108=ORIENTED_EDGE('',*,*,#217,.F.);
#109=ORIENTED_EDGE('',*,*,#181,.T.);
#110=ORIENTED_EDGE('',*,*,#206,.F.);
#111=ORIENTED_EDGE('',*,*,#212,.T.);
#112=ORIENTED_EDGE('',*,*,#187,.F.);
#113=ORIENTED_EDGE('',*,*,#218,.F.);
#114=ORIENTED_EDGE('',*,*,#219,.F.);
#115=ORIENTED_EDGE('',*,*,#220,.F.);
#116=ORIENTED_EDGE('',*,*,#221,.T.);
#117=ORIENTED_EDGE('',*,*,#182,.T.);
#118=ORIENTED_EDGE('',*,*,#217,.T.);
#119=ORIENTED_EDGE('',*,*,#222,.T.);
#120=ORIENTED_EDGE('',*,*,#216,.T.);
#121=ORIENTED_EDGE('',*,*,#222,.F.);
#122=ORIENTED_EDGE('',*,*,#223,.T.);
#123=ORIENTED_EDGE('',*,*,#215,.T.);
#124=ORIENTED_EDGE('',*,*,#223,.F.);
#125=ORIENTED_EDGE('',*,*,#224,.T.);
#126=ORIENTED_EDGE('',*,*,#202,.F.);
#127=ORIENTED_EDGE('',*,*,#225,.F.);
#128=ORIENTED_EDGE('',*,*,#220,.T.);
#129=ORIENTED_EDGE('',*,*,#226,.T.);
#130=ORIENTED_EDGE('',*,*,#218,.T.);
#131=ORIENTED_EDGE('',*,*,#186,.F.);
#132=ORIENTED_EDGE('',*,*,#180,.F.);
#133=ORIENTED_EDGE('',*,*,#227,.T.);
#134=ORIENTED_EDGE('',*,*,#198,.T.);
#135=ORIENTED_EDGE('',*,*,#197,.T.);
#136=ORIENTED_EDGE('',*,*,#204,.F.);
#137=ORIENTED_EDGE('',*,*,#228,.T.);
#138=ORIENTED_EDGE('',*,*,#229,.T.);
#139=ORIENTED_EDGE('',*,*,#226,.F.);
#140=ORIENTED_EDGE('',*,*,#203,.T.);
#141=ORIENTED_EDGE('',*,*,#224,.F.);
#142=ORIENTED_EDGE('',*,*,#219,.T.);
#143=ORIENTED_EDGE('',*,*,#230,.F.);
#144=ORIENTED_EDGE('',*,*,#229,.F.);
#145=ORIENTED_EDGE('',*,*,#230,.T.);
#146=ORIENTED_EDGE('',*,*,#231,.F.);
#147=ORIENTED_EDGE('',*,*,#228,.F.);
#148=ORIENTED_EDGE('',*,*,#231,.T.);
#149=ORIENTED_EDGE('',*,*,#185,.T.);
#150=ORIENTED_EDGE('',*,*,#232,.T.);
#151=ORIENTED_EDGE('',*,*,#233,.F.);
#152=ORIENTED_EDGE('',*,*,#178,.F.);
#153=ORIENTED_EDGE('',*,*,#207,.T.);
#154=ORIENTED_EDGE('',*,*,#234,.T.);
#155=ORIENTED_EDGE('',*,*,#235,.F.);
#156=ORIENTED_EDGE('',*,*,#190,.F.);
#157=ORIENTED_EDGE('',*,*,#235,.T.);
#158=ORIENTED_EDGE('',*,*,#236,.T.);
#159=ORIENTED_EDGE('',*,*,#232,.F.);
#160=ORIENTED_EDGE('',*,*,#191,.F.);
#161=ORIENTED_EDGE('',*,*,#237,.T.);
#162=ORIENTED_EDGE('',*,*,#227,.F.);
#163=ORIENTED_EDGE('',*,*,#179,.T.);
#164=ORIENTED_EDGE('',*,*,#233,.T.);
#165=ORIENTED_EDGE('',*,*,#236,.F.);
#166=ORIENTED_EDGE('',*,*,#234,.F.);
#167=ORIENTED_EDGE('',*,*,#209,.T.);
#168=ORIENTED_EDGE('',*,*,#211,.T.);
#169=ORIENTED_EDGE('',*,*,#199,.F.);
#170=ORIENTED_EDGE('',*,*,#238,.F.);
#171=ORIENTED_EDGE('',*,*,#221,.F.);
#172=ORIENTED_EDGE('',*,*,#225,.T.);
#173=ORIENTED_EDGE('',*,*,#201,.T.);
#174=ORIENTED_EDGE('',*,*,#183,.F.);
#175=ORIENTED_EDGE('',*,*,#238,.T.);
#176=ORIENTED_EDGE('',*,*,#237,.F.);
#177=EDGE_CURVE('',#239,#240,#291,.T.);
#178=EDGE_CURVE('',#240,#241,#292,.T.);
#179=EDGE_CURVE('',#242,#241,#293,.T.);
#180=EDGE_CURVE('',#242,#239,#294,.T.);
#181=EDGE_CURVE('',#243,#244,#295,.T.);
#182=EDGE_CURVE('',#245,#243,#296,.T.);
#183=EDGE_CURVE('',#245,#246,#297,.T.);
#184=EDGE_CURVE('',#246,#244,#298,.T.);
#185=EDGE_CURVE('',#240,#247,#299,.T.);
#186=EDGE_CURVE('',#239,#248,#300,.T.);
#187=EDGE_CURVE('',#248,#249,#301,.T.);
#188=EDGE_CURVE('',#249,#250,#302,.T.);
#189=EDGE_CURVE('',#251,#250,#303,.T.);
#190=EDGE_CURVE('',#251,#252,#304,.T.);
#191=EDGE_CURVE('',#252,#247,#305,.T.);
#192=EDGE_CURVE('',#253,#253,#39,.T.);
#193=EDGE_CURVE('',#254,#254,#40,.T.);
#194=EDGE_CURVE('',#255,#256,#306,.T.);
#195=EDGE_CURVE('',#256,#257,#307,.T.);
#196=EDGE_CURVE('',#258,#257,#308,.T.);
#197=EDGE_CURVE('',#255,#258,#309,.T.);
#198=EDGE_CURVE('',#259,#255,#310,.T.);
#199=EDGE_CURVE('',#259,#260,#311,.T.);
#200=EDGE_CURVE('',#260,#256,#312,.T.);
#201=EDGE_CURVE('',#261,#246,#313,.T.);
#202=EDGE_CURVE('',#261,#262,#314,.T.);
#203=EDGE_CURVE('',#263,#262,#315,.T.);
#204=EDGE_CURVE('',#263,#258,#316,.T.);
#205=EDGE_CURVE('',#264,#257,#317,.T.);
#206=EDGE_CURVE('',#264,#244,#318,.T.);
#207=EDGE_CURVE('',#251,#265,#319,.T.);
#208=EDGE_CURVE('',#250,#266,#320,.T.);
#209=EDGE_CURVE('',#265,#266,#321,.T.);
#210=EDGE_CURVE('',#264,#267,#322,.T.);
#211=EDGE_CURVE('',#266,#260,#323,.T.);
#212=EDGE_CURVE('',#267,#249,#324,.T.);
#213=EDGE_CURVE('',#269,#269,#41,.T.);
#214=EDGE_CURVE('',#271,#271,#42,.T.);
#215=EDGE_CURVE('',#272,#272,#43,.F.);
#216=EDGE_CURVE('',#273,#273,#44,.F.);
#217=EDGE_CURVE('',#243,#267,#325,.T.);
#218=EDGE_CURVE('',#274,#248,#326,.T.);
#219=EDGE_CURVE('',#275,#274,#327,.T.);
#220=EDGE_CURVE('',#276,#275,#328,.T.);
#221=EDGE_CURVE('',#276,#245,#329,.T.);
#222=EDGE_CURVE('',#277,#277,#45,.T.);
#223=EDGE_CURVE('',#279,#279,#46,.T.);
#224=EDGE_CURVE('',#275,#262,#330,.T.);
#225=EDGE_CURVE('',#276,#261,#331,.T.);
#226=EDGE_CURVE('',#263,#274,#332,.T.);
#227=EDGE_CURVE('',#242,#259,#333,.T.);
#228=EDGE_CURVE('',#281,#281,#47,.F.);
#229=EDGE_CURVE('',#282,#282,#48,.F.);
#230=EDGE_CURVE('',#283,#283,#49,.T.);
#231=EDGE_CURVE('',#285,#285,#50,.T.);
#232=EDGE_CURVE('',#247,#287,#334,.T.);
#233=EDGE_CURVE('',#241,#287,#335,.T.);
#234=EDGE_CURVE('',#265,#288,#336,.T.);
#235=EDGE_CURVE('',#252,#288,#337,.T.);
#236=EDGE_CURVE('',#288,#287,#338,.T.);
#237=EDGE_CURVE('',#289,#289,#51,.T.);
#238=EDGE_CURVE('',#290,#290,#52,.T.);
#239=VERTEX_POINT('',#735);
#240=VERTEX_POINT('',#736);
#241=VERTEX_POINT('',#738);
#242=VERTEX_POINT('',#740);
#243=VERTEX_POINT('',#744);
#244=VERTEX_POINT('',#745);
#245=VERTEX_POINT('',#747);
#246=VERTEX_POINT('',#749);
#247=VERTEX_POINT('',#753);
#248=VERTEX_POINT('',#755);
#249=VERTEX_POINT('',#757);
#250=VERTEX_POINT('',#759);
#251=VERTEX_POINT('',#761);
#252=VERTEX_POINT('',#763);
#253=VERTEX_POINT('',#767);
#254=VERTEX_POINT('',#769);
#255=VERTEX_POINT('',#771);
#256=VERTEX_POINT('',#772);
#257=VERTEX_POINT('',#774);
#258=VERTEX_POINT('',#776);
#259=VERTEX_POINT('',#780);
#260=VERTEX_POINT('',#782);
#261=VERTEX_POINT('',#786);
#262=VERTEX_POINT('',#788);
#263=VERTEX_POINT('',#790);
#264=VERTEX_POINT('',#793);
#265=VERTEX_POINT('',#797);
#266=VERTEX_POINT('',#799);
#267=VERTEX_POINT('',#803);
#268=VERTEX_POINT('',#807);
#269=VERTEX_POINT('',#809);
#270=VERTEX_POINT('',#812);
#271=VERTEX_POINT('',#814);
#272=VERTEX_POINT('',#818);
#273=VERTEX_POINT('',#820);
#274=VERTEX_POINT('',#824);
#275=VERTEX_POINT('',#826);
#276=VERTEX_POINT('',#828);
#277=VERTEX_POINT('',#832);
#278=VERTEX_POINT('',#834);
#279=VERTEX_POINT('',#837);
#280=VERTEX_POINT('',#839);
#281=VERTEX_POINT('',#848);
#282=VERTEX_POINT('',#850);
#283=VERTEX_POINT('',#853);
#284=VERTEX_POINT('',#855);
#285=VERTEX_POINT('',#858);
#286=VERTEX_POINT('',#860);
#287=VERTEX_POINT('',#863);
#288=VERTEX_POINT('',#867);
#289=VERTEX_POINT('',#873);
#290=VERTEX_POINT('',#876);
#291=LINE('',#734,#339);
#292=LINE('',#737,#340);
#293=LINE('',#739,#341);
#294=LINE('',#741,#342);
#295=LINE('',#743,#343);
#296=LINE('',#746,#344);
#297=LINE('',#748,#345);
#298=LINE('',#750,#346);
#299=LINE('',#752,#347);
#300=LINE('',#754,#348);
#301=LINE('',#756,#349);
#302=LINE('',#758,#350);
#303=LINE('',#760,#351);
#304=LINE('',#762,#352);
#305=LINE('',#764,#353);
#306=LINE('',#770,#354);
#307=LINE('',#773,#355);
#308=LINE('',#775,#356);
#309=LINE('',#777,#357);
#310=LINE('',#779,#358);
#311=LINE('',#781,#359);
#312=LINE('',#783,#360);
#313=LINE('',#785,#361);
#314=LINE('',#787,#362);
#315=LINE('',#789,#363);
#316=LINE('',#791,#364);
#317=LINE('',#792,#365);
#318=LINE('',#794,#366);
#319=LINE('',#796,#367);
#320=LINE('',#798,#368);
#321=LINE('',#800,#369);
#322=LINE('',#802,#370);
#323=LINE('',#804,#371);
#324=LINE('',#805,#372);
#325=LINE('',#821,#373);
#326=LINE('',#823,#374);
#327=LINE('',#825,#375);
#328=LINE('',#827,#376);
#329=LINE('',#829,#377);
#330=LINE('',#841,#378);
#331=LINE('',#842,#379);
#332=LINE('',#844,#380);
#333=LINE('',#845,#381);
#334=LINE('',#862,#382);
#335=LINE('',#864,#383);
#336=LINE('',#866,#384);
#337=LINE('',#868,#385);
#338=LINE('',#870,#386);
#339=VECTOR('',#596,1.);
#340=VECTOR('',#597,1.);
#341=VECTOR('',#598,1.);
#342=VECTOR('',#599,1.);
#343=VECTOR('',#602,1.);
#344=VECTOR('',#603,1.);
#345=VECTOR('',#604,1.);
#346=VECTOR('',#605,1.);
#347=VECTOR('',#608,1.);
#348=VECTOR('',#609,1.);
#349=VECTOR('',#610,1.);
#350=VECTOR('',#611,1.);
#351=VECTOR('',#612,1.);
#352=VECTOR('',#613,1.);
#353=VECTOR('',#614,1.);
#354=VECTOR('',#621,1.);
#355=VECTOR('',#622,1.);
#356=VECTOR('',#623,1.);
#357=VECTOR('',#624,1.);
#358=VECTOR('',#627,1.);
#359=VECTOR('',#628,1.);
#360=VECTOR('',#629,1.);
#361=VECTOR('',#632,1.);
#362=VECTOR('',#633,1.);
#363=VECTOR('',#634,1.);
#364=VECTOR('',#635,1.);
#365=VECTOR('',#636,1.);
#366=VECTOR('',#637,1.);
#367=VECTOR('',#640,1.);
#368=VECTOR('',#641,1.);
#369=VECTOR('',#642,1.);
#370=VECTOR('',#645,1.);
#371=VECTOR('',#646,1.);
#372=VECTOR('',#647,1.);
#373=VECTOR('',#666,1.);
#374=VECTOR('',#669,1.);
#375=VECTOR('',#670,1.);
#376=VECTOR('',#671,1.);
#377=VECTOR('',#672,1.);
#378=VECTOR('',#687,1.);
#379=VECTOR('',#688,1.);
#380=VECTOR('',#691,1.);
#381=VECTOR('',#692,1.);
#382=VECTOR('',#713,1.);
#383=VECTOR('',#714,1.);
#384=VECTOR('',#717,1.);
#385=VECTOR('',#718,1.);
#386=VECTOR('',#721,1.);
#387=EDGE_LOOP('',(#53,#54,#55,#56));
#388=EDGE_LOOP('',(#57,#58,#59,#60));
#389=EDGE_LOOP('',(#61,#62,#63,#64,#65,#66,#67,#68));
#390=EDGE_LOOP('',(#69));
#391=EDGE_LOOP('',(#70));
#392=EDGE_LOOP('',(#71,#72,#73,#74));
#393=EDGE_LOOP('',(#75,#76,#77,#78));
#394=EDGE_LOOP('',(#79,#80,#81,#82,#83,#84,#85,#86));
#395=EDGE_LOOP('',(#87,#88,#89,#90));
#396=EDGE_LOOP('',(#91,#92,#93,#94,#95,#96,#97,#98));
#397=EDGE_LOOP('',(#99));
#398=EDGE_LOOP('',(#100));
#399=EDGE_LOOP('',(#101));
#400=EDGE_LOOP('',(#102));
#401=EDGE_LOOP('',(#103));
#402=EDGE_LOOP('',(#104));
#403=EDGE_LOOP('',(#105));
#404=EDGE_LOOP('',(#106));
#405=EDGE_LOOP('',(#107,#108,#109,#110));
#406=EDGE_LOOP('',(#111,#112,#113,#114,#115,#116,#117,#118));
#407=EDGE_LOOP('',(#119));
#408=EDGE_LOOP('',(#120));
#409=EDGE_LOOP('',(#121));
#410=EDGE_LOOP('',(#122));
#411=EDGE_LOOP('',(#123));
#412=EDGE_LOOP('',(#124));
#413=EDGE_LOOP('',(#125,#126,#127,#128));
#414=EDGE_LOOP('',(#129,#130,#131,#132,#133,#134,#135,#136));
#415=EDGE_LOOP('',(#137));
#416=EDGE_LOOP('',(#138));
#417=EDGE_LOOP('',(#139,#140,#141,#142));
#418=EDGE_LOOP('',(#143));
#419=EDGE_LOOP('',(#144));
#420=EDGE_LOOP('',(#145));
#421=EDGE_LOOP('',(#146));
#422=EDGE_LOOP('',(#147));
#423=EDGE_LOOP('',(#148));
#424=EDGE_LOOP('',(#149,#150,#151,#152));
#425=EDGE_LOOP('',(#153,#154,#155,#156));
#426=EDGE_LOOP('',(#157,#158,#159,#160));
#427=EDGE_LOOP('',(#161));
#428=EDGE_LOOP('',(#162,#163,#164,#165,#166,#167,#168,#169));
#429=EDGE_LOOP('',(#170));
#430=EDGE_LOOP('',(#171,#172,#173,#174));
#431=EDGE_LOOP('',(#175));
#432=EDGE_LOOP('',(#176));
#433=FACE_BOUND('',#387,.T.);
#434=FACE_BOUND('',#388,.T.);
#435=FACE_BOUND('',#389,.T.);
#436=FACE_BOUND('',#390,.T.);
#437=FACE_BOUND('',#391,.T.);
#438=FACE_BOUND('',#392,.T.);
#439=FACE_BOUND('',#393,.T.);
#440=FACE_BOUND('',#394,.T.);
#441=FACE_BOUND('',#395,.T.);
#442=FACE_BOUND('',#396,.T.);
#443=FACE_BOUND('',#27,.T.);
#444=FACE_BOUND('',#397,.T.);
#445=FACE_BOUND('',#398,.T.);
#446=FACE_BOUND('',#399,.T.);
#447=FACE_BOUND('',#28,.T.);
#448=FACE_BOUND('',#400,.T.);
#449=FACE_BOUND('',#401,.T.);
#450=FACE_BOUND('',#402,.T.);
#451=FACE_BOUND('',#403,.T.);
#452=FACE_BOUND('',#404,.T.);
#453=FACE_BOUND('',#405,.T.);
#454=FACE_BOUND('',#406,.T.);
#455=FACE_BOUND('',#407,.T.);
#456=FACE_BOUND('',#408,.T.);
#457=FACE_BOUND('',#29,.T.);
#458=FACE_BOUND('',#409,.T.);
#459=FACE_BOUND('',#410,.T.);
#460=FACE_BOUND('',#411,.T.);
#461=FACE_BOUND('',#30,.T.);
#462=FACE_BOUND('',#412,.T.);
#463=FACE_BOUND('',#413,.T.);
#464=FACE_BOUND('',#414,.T.);
#465=FACE_BOUND('',#415,.T.);
#466=FACE_BOUND('',#416,.T.);
#467=FACE_BOUND('',#417,.T.);
#468=FACE_BOUND('',#418,.T.);
#469=FACE_BOUND('',#419,.T.);
#470=FACE_BOUND('',#31,.T.);
#471=FACE_BOUND('',#420,.T.);
#472=FACE_BOUND('',#421,.T.);
#473=FACE_BOUND('',#422,.T.);
#474=FACE_BOUND('',#32,.T.);
#475=FACE_BOUND('',#423,.T.);
#476=FACE_BOUND('',#424,.T.);
#477=FACE_BOUND('',#425,.T.);
#478=FACE_BOUND('',#426,.T.);
#479=FACE_BOUND('',#427,.T.);
#480=FACE_BOUND('',#428,.T.);
#481=FACE_BOUND('',#429,.T.);
#482=FACE_BOUND('',#430,.T.);
#483=FACE_BOUND('',#431,.T.);
#484=FACE_BOUND('',#432,.T.);
#485=PLANE('',#547);
#486=PLANE('',#548);
#487=PLANE('',#549);
#488=PLANE('',#550);
#489=PLANE('',#553);
#490=PLANE('',#554);
#491=PLANE('',#555);
#492=PLANE('',#556);
#493=PLANE('',#563);
#494=PLANE('',#566);
#495=PLANE('',#573);
#496=PLANE('',#574);
#497=PLANE('',#575);
#498=PLANE('',#584);
#499=PLANE('',#585);
#500=PLANE('',#586);
#501=PLANE('',#587);
#502=PLANE('',#589);
#503=ADVANCED_FACE('',(#433),#485,.T.);
#504=ADVANCED_FACE('',(#434),#486,.F.);
#505=ADVANCED_FACE('',(#435),#487,.T.);
#506=ADVANCED_FACE('',(#436,#437,#438),#488,.T.);
#507=ADVANCED_FACE('',(#439),#489,.T.);
#508=ADVANCED_FACE('',(#440),#490,.F.);
#509=ADVANCED_FACE('',(#441),#491,.T.);
#510=ADVANCED_FACE('',(#442),#492,.T.);
#511=ADVANCED_FACE('',(#443,#444),#33,.F.);
#512=ADVANCED_FACE('',(#445,#446),#20,.F.);
#513=ADVANCED_FACE('',(#447,#448),#34,.F.);
#514=ADVANCED_FACE('',(#449,#450),#21,.F.);
#515=ADVANCED_FACE('',(#451,#452,#453),#493,.F.);
#516=ADVANCED_FACE('',(#454),#494,.T.);
#517=ADVANCED_FACE('',(#455,#456),#22,.F.);
#518=ADVANCED_FACE('',(#457,#458),#35,.F.);
#519=ADVANCED_FACE('',(#459,#460),#23,.F.);
#520=ADVANCED_FACE('',(#461,#462),#36,.F.);
#521=ADVANCED_FACE('',(#463),#495,.F.);
#522=ADVANCED_FACE('',(#464),#496,.T.);
#523=ADVANCED_FACE('',(#465,#466,#467),#497,.F.);
#524=ADVANCED_FACE('',(#468,#469),#24,.F.);
#525=ADVANCED_FACE('',(#470,#471),#37,.F.);
#526=ADVANCED_FACE('',(#472,#473),#25,.F.);
#527=ADVANCED_FACE('',(#474,#475),#38,.F.);
#528=ADVANCED_FACE('',(#476),#498,.T.);
#529=ADVANCED_FACE('',(#477),#499,.F.);
#530=ADVANCED_FACE('',(#478),#500,.F.);
#531=ADVANCED_FACE('',(#479,#480),#501,.F.);
#532=ADVANCED_FACE('',(#481,#482),#502,.T.);
#533=ADVANCED_FACE('',(#483,#484),#26,.F.);
#534=CLOSED_SHELL('',(#503,#504,#505,#506,#507,#508,#509,#510,#511,#512,
#513,#514,#515,#516,#517,#518,#519,#520,#521,#522,#523,#524,#525,#526,#527,
#528,#529,#530,#531,#532,#533));
#535=STYLED_ITEM('',(#536),#543);
#536=PRESENTATION_STYLE_ASSIGNMENT((#537));
#537=SURFACE_STYLE_USAGE(.BOTH.,#538);
#538=SURFACE_SIDE_STYLE('',(#539));
#539=SURFACE_STYLE_FILL_AREA(#540);
#540=FILL_AREA_STYLE('',(#541));
#541=FILL_AREA_STYLE_COLOUR('',#542);
#542=COLOUR_RGB('',0.615686274509804,0.811764705882353,0.929411764705882);
#543=MANIFOLD_SOLID_BREP('Part 2',#534);
#544=SHAPE_DEFINITION_REPRESENTATION(#884,#545);
#545=SHAPE_REPRESENTATION('Part 2',(#546),#879);
#546=AXIS2_PLACEMENT_3D('',#732,#592,#593);
#547=AXIS2_PLACEMENT_3D('',#733,#594,#595);
#548=AXIS2_PLACEMENT_3D('',#742,#600,#601);
#549=AXIS2_PLACEMENT_3D('',#751,#606,#607);
#550=AXIS2_PLACEMENT_3D('',#765,#615,#616);
#551=AXIS2_PLACEMENT_3D('',#766,#617,#618);
#552=AXIS2_PLACEMENT_3D('',#768,#619,#620);
#553=AXIS2_PLACEMENT_3D('',#778,#625,#626);
#554=AXIS2_PLACEMENT_3D('',#784,#630,#631);
#555=AXIS2_PLACEMENT_3D('',#795,#638,#639);
#556=AXIS2_PLACEMENT_3D('',#801,#643,#644);
#557=AXIS2_PLACEMENT_3D('',#806,#648,#649);
#558=AXIS2_PLACEMENT_3D('',#808,#650,#651);
#559=AXIS2_PLACEMENT_3D('',#810,#652,#653);
#560=AXIS2_PLACEMENT_3D('',#811,#654,#655);
#561=AXIS2_PLACEMENT_3D('',#813,#656,#657);
#562=AXIS2_PLACEMENT_3D('',#815,#658,#659);
#563=AXIS2_PLACEMENT_3D('',#816,#660,#661);
#564=AXIS2_PLACEMENT_3D('',#817,#662,#663);
#565=AXIS2_PLACEMENT_3D('',#819,#664,#665);
#566=AXIS2_PLACEMENT_3D('',#822,#667,#668);
#567=AXIS2_PLACEMENT_3D('',#830,#673,#674);
#568=AXIS2_PLACEMENT_3D('',#831,#675,#676);
#569=AXIS2_PLACEMENT_3D('',#833,#677,#678);
#570=AXIS2_PLACEMENT_3D('',#835,#679,#680);
#571=AXIS2_PLACEMENT_3D('',#836,#681,#682);
#572=AXIS2_PLACEMENT_3D('',#838,#683,#684);
#573=AXIS2_PLACEMENT_3D('',#840,#685,#686);
#574=AXIS2_PLACEMENT_3D('',#843,#689,#690);
#575=AXIS2_PLACEMENT_3D('',#846,#693,#694);
#576=AXIS2_PLACEMENT_3D('',#847,#695,#696);
#577=AXIS2_PLACEMENT_3D('',#849,#697,#698);
#578=AXIS2_PLACEMENT_3D('',#851,#699,#700);
#579=AXIS2_PLACEMENT_3D('',#852,#701,#702);
#580=AXIS2_PLACEMENT_3D('',#854,#703,#704);
#581=AXIS2_PLACEMENT_3D('',#856,#705,#706);
#582=AXIS2_PLACEMENT_3D('',#857,#707,#708);
#583=AXIS2_PLACEMENT_3D('',#859,#709,#710);
#584=AXIS2_PLACEMENT_3D('',#861,#711,#712);
#585=AXIS2_PLACEMENT_3D('',#865,#715,#716);
#586=AXIS2_PLACEMENT_3D('',#869,#719,#720);
#587=AXIS2_PLACEMENT_3D('',#871,#722,#723);
#588=AXIS2_PLACEMENT_3D('',#872,#724,#725);
#589=AXIS2_PLACEMENT_3D('',#874,#726,#727);
#590=AXIS2_PLACEMENT_3D('',#875,#728,#729);
#591=AXIS2_PLACEMENT_3D('',#877,#730,#731);
#592=DIRECTION('',(0.,0.,1.));
#593=DIRECTION('',(1.,0.,0.));
#594=DIRECTION('',(0.,0.,1.));
#595=DIRECTION('',(1.,0.,0.));
#596=DIRECTION('',(-1.,0.,0.));
#597=DIRECTION('',(3.8533320703642E-32,-1.,-1.11876442718284E-16));
#598=DIRECTION('',(-1.,0.,0.));
#599=DIRECTION('',(0.,1.,0.));
#600=DIRECTION('',(1.,-3.8533320703642E-32,6.888549504684E-16));
#601=DIRECTION('',(-3.8533320703642E-32,1.,1.11876442718284E-16));
#602=DIRECTION('',(-6.888549504684E-16,2.38040957252392E-16,1.));
#603=DIRECTION('',(0.,1.,0.));
#604=DIRECTION('',(-6.888549504684E-16,-1.11876442718284E-16,1.));
#605=DIRECTION('',(-3.8533320703642E-32,1.,1.11876442718284E-16));
#606=DIRECTION('',(-3.8533320703642E-32,1.,1.11876442718284E-16));
#607=DIRECTION('',(6.888549504684E-16,1.11876442718284E-16,-1.));
#608=DIRECTION('',(1.75224593533011E-16,1.11876442718284E-16,-1.));
#609=DIRECTION('',(0.,0.,-1.));
#610=DIRECTION('',(-1.,0.,0.));
#611=DIRECTION('',(-6.888549504684E-16,-1.11876442718284E-16,1.));
#612=DIRECTION('',(-1.,0.,0.));
#613=DIRECTION('',(1.75224593533011E-16,1.11876442718284E-16,-1.));
#614=DIRECTION('',(1.,3.8533320703642E-32,4.31097084644625E-48));
#615=DIRECTION('',(-3.8533320703642E-32,1.,1.11876442718284E-16));
#616=DIRECTION('',(6.888549504684E-16,1.11876442718284E-16,-1.));
#617=DIRECTION('',(0.,-1.,0.));
#618=DIRECTION('',(0.,0.,-1.));
#619=DIRECTION('',(0.,-1.,0.));
#620=DIRECTION('',(0.,0.,-1.));
#621=DIRECTION('',(-1.,3.8533320703642E-32,-6.888549504684E-16));
#622=DIRECTION('',(-6.888549504684E-16,-1.11876442718284E-16,1.));
#623=DIRECTION('',(-1.,3.8533320703642E-32,-6.888549504684E-16));
#624=DIRECTION('',(-6.888549504684E-16,-1.11876442718284E-16,1.));
#625=DIRECTION('',(6.888549504684E-16,1.11876442718284E-16,-1.));
#626=DIRECTION('',(1.,-3.8533320703642E-32,6.888549504684E-16));
#627=DIRECTION('',(-3.8533320703642E-32,1.,1.11876442718284E-16));
#628=DIRECTION('',(-1.,3.8533320703642E-32,-6.888549504684E-16));
#629=DIRECTION('',(0.,1.,1.11876442718284E-16));
#630=DIRECTION('',(6.888549504684E-16,1.11876442718284E-16,-1.));
#631=DIRECTION('',(1.,-3.8533320703642E-32,6.888549504684E-16));
#632=DIRECTION('',(-1.,3.8533320703642E-32,-6.888549504684E-16));
#633=DIRECTION('',(3.8533320703642E-32,1.,1.11876442718284E-16));
#634=DIRECTION('',(1.,3.85333207036421E-32,-6.888549504684E-16));
#635=DIRECTION('',(-3.8533320703642E-32,-1.,-1.11876442718284E-16));
#636=DIRECTION('',(3.8533320703642E-32,-1.,-1.11876442718284E-16));
#637=DIRECTION('',(-1.,3.85333207036421E-32,-6.888549504684E-16));
#638=DIRECTION('',(0.,0.,1.));
#639=DIRECTION('',(1.,0.,0.));
#640=DIRECTION('',(3.8533320703642E-32,-1.,-1.11876442718284E-16));
#641=DIRECTION('',(-7.7066641407284E-32,-1.,0.));
#642=DIRECTION('',(-1.,0.,0.));
#643=DIRECTION('',(1.,-7.7066641407284E-32,6.888549504684E-16));
#644=DIRECTION('',(6.888549504684E-16,0.,-1.));
#645=DIRECTION('',(6.888549504684E-16,-2.38040957252392E-16,-1.));
#646=DIRECTION('',(-6.888549504684E-16,-1.11876442718284E-16,1.));
#647=DIRECTION('',(3.8533320703642E-32,-1.,0.));
#648=DIRECTION('',(0.,1.,0.));
#649=DIRECTION('',(0.,0.,1.));
#650=DIRECTION('',(0.,-1.,0.));
#651=DIRECTION('',(0.,0.,-1.));
#652=DIRECTION('',(0.,-1.,0.));
#653=DIRECTION('',(0.,0.,-1.));
#654=DIRECTION('',(0.,1.,0.));
#655=DIRECTION('',(0.,0.,1.));
#656=DIRECTION('',(0.,-1.,0.));
#657=DIRECTION('',(0.,0.,-1.));
#658=DIRECTION('',(0.,-1.,0.));
#659=DIRECTION('',(0.,0.,-1.));
#660=DIRECTION('',(-2.02509012521189E-31,-1.,2.38040957252392E-16));
#661=DIRECTION('',(1.,-2.02509012521189E-31,4.82054391927805E-47));
#662=DIRECTION('',(-2.02509012521189E-31,-1.,2.38040957252392E-16));
#663=DIRECTION('',(0.,-2.38040957252392E-16,-1.));
#664=DIRECTION('',(-2.02509012521189E-31,-1.,2.38040957252392E-16));
#665=DIRECTION('',(0.,-2.38040957252392E-16,-1.));
#666=DIRECTION('',(1.,0.,0.));
#667=DIRECTION('',(0.,0.,-1.));
#668=DIRECTION('',(1.,0.,0.));
#669=DIRECTION('',(-3.8533320703642E-32,-1.,0.));
#670=DIRECTION('',(-1.,0.,0.));
#671=DIRECTION('',(0.,1.,0.));
#672=DIRECTION('',(-1.,0.,0.));
#673=DIRECTION('',(3.8533320703642E-32,-1.,-1.11876442718284E-16));
#674=DIRECTION('',(0.,1.11876442718284E-16,-1.));
#675=DIRECTION('',(3.8533320703642E-32,-1.,-1.11876442718284E-16));
#676=DIRECTION('',(0.,1.11876442718284E-16,-1.));
#677=DIRECTION('',(-3.8533320703642E-32,1.,1.11876442718284E-16));
#678=DIRECTION('',(0.,-1.11876442718284E-16,1.));
#679=DIRECTION('',(3.8533320703642E-32,-1.,-1.11876442718284E-16));
#680=DIRECTION('',(0.,1.11876442718284E-16,-1.));
#681=DIRECTION('',(3.8533320703642E-32,-1.,-1.11876442718284E-16));
#682=DIRECTION('',(0.,1.11876442718284E-16,-1.));
#683=DIRECTION('',(-3.8533320703642E-32,1.,1.11876442718284E-16));
#684=DIRECTION('',(0.,-1.11876442718284E-16,1.));
#685=DIRECTION('',(-1.,-3.8533320703642E-32,6.888549504684E-16));
#686=DIRECTION('',(3.8533320703642E-32,1.,1.11876442718284E-16));
#687=DIRECTION('',(6.888549504684E-16,2.38040957252392E-16,1.));
#688=DIRECTION('',(6.888549504684E-16,-1.11876442718284E-16,1.));
#689=DIRECTION('',(-1.,-7.7066641407284E-32,6.888549504684E-16));
#690=DIRECTION('',(-6.888549504684E-16,0.,-1.));
#691=DIRECTION('',(-6.888549504684E-16,-2.38040957252392E-16,-1.));
#692=DIRECTION('',(6.888549504684E-16,-1.11876442718284E-16,1.));
#693=DIRECTION('',(2.02509012521189E-31,-1.,2.38040957252392E-16));
#694=DIRECTION('',(-1.,-2.02509012521189E-31,4.82054391927805E-47));
#695=DIRECTION('',(-2.02509012521189E-31,1.,-2.38040957252392E-16));
#696=DIRECTION('',(0.,-2.38040957252392E-16,-1.));
#697=DIRECTION('',(-2.02509012521189E-31,1.,-2.38040957252392E-16));
#698=DIRECTION('',(0.,-2.38040957252392E-16,-1.));
#699=DIRECTION('',(-3.8533320703642E-32,-1.,-1.11876442718284E-16));
#700=DIRECTION('',(0.,1.11876442718284E-16,-1.));
#701=DIRECTION('',(3.8533320703642E-32,1.,1.11876442718284E-16));
#702=DIRECTION('',(0.,1.11876442718284E-16,-1.));
#703=DIRECTION('',(3.8533320703642E-32,1.,1.11876442718284E-16));
#704=DIRECTION('',(0.,-1.11876442718284E-16,1.));
#705=DIRECTION('',(-3.8533320703642E-32,-1.,-1.11876442718284E-16));
#706=DIRECTION('',(0.,1.11876442718284E-16,-1.));
#707=DIRECTION('',(3.8533320703642E-32,1.,1.11876442718284E-16));
#708=DIRECTION('',(0.,1.11876442718284E-16,-1.));
#709=DIRECTION('',(3.8533320703642E-32,1.,1.11876442718284E-16));
#710=DIRECTION('',(0.,-1.11876442718284E-16,1.));
#711=DIRECTION('',(-1.,-1.89298165024116E-32,-1.75224593533011E-16));
#712=DIRECTION('',(-1.75224593533011E-16,0.,1.));
#713=DIRECTION('',(3.8533320703642E-32,-1.,-1.11876442718284E-16));
#714=DIRECTION('',(1.75224593533011E-16,1.11876442718284E-16,-1.));
#715=DIRECTION('',(-1.,-1.89298165024116E-32,-1.75224593533011E-16));
#716=DIRECTION('',(-1.75224593533011E-16,0.,1.));
#717=DIRECTION('',(1.75224593533011E-16,1.11876442718284E-16,-1.));
#718=DIRECTION('',(3.8533320703642E-32,-1.,-1.11876442718284E-16));
#719=DIRECTION('',(-5.68528783724093E-64,1.11876442718284E-16,-1.));
#720=DIRECTION('',(0.,1.,1.11876442718284E-16));
#721=DIRECTION('',(1.,3.8533320703642E-32,4.31097084644625E-48));
#722=DIRECTION('',(3.8533320703642E-32,-1.,-1.11876442718284E-16));
#723=DIRECTION('',(1.,3.8533320703642E-32,4.31097084644625E-48));
#724=DIRECTION('',(3.8533320703642E-32,-1.,-1.11876442718284E-16));
#725=DIRECTION('',(0.,1.11876442718284E-16,-1.));
#726=DIRECTION('',(3.8533320703642E-32,-1.,-1.11876442718284E-16));
#727=DIRECTION('',(1.,3.8533320703642E-32,4.31097084644625E-48));
#728=DIRECTION('',(3.8533320703642E-32,-1.,-1.11876442718284E-16));
#729=DIRECTION('',(0.,1.11876442718284E-16,-1.));
#730=DIRECTION('',(3.8533320703642E-32,-1.,-1.11876442718284E-16));
#731=DIRECTION('',(0.,1.11876442718284E-16,-1.));
#732=CARTESIAN_POINT('',(0.,0.,0.));
#733=CARTESIAN_POINT('',(0.010002,0.0193,-0.04));
#734=CARTESIAN_POINT('',(0.010002,0.0277,-0.04));
#735=CARTESIAN_POINT('',(0.01,0.0277,-0.04));
#736=CARTESIAN_POINT('',(0.004,0.0277,-0.04));
#737=CARTESIAN_POINT('',(0.004,0.027702,-0.04));
#738=CARTESIAN_POINT('',(0.004,-0.014,-0.04));
#739=CARTESIAN_POINT('',(0.010002,-0.014,-0.04));
#740=CARTESIAN_POINT('',(0.01,-0.014,-0.04));
#741=CARTESIAN_POINT('',(0.01,0.0193,-0.04));
#742=CARTESIAN_POINT('',(-0.015,0.0313364164131053,-0.02));
#743=CARTESIAN_POINT('',(-0.015,0.0427,-0.02));
#744=CARTESIAN_POINT('',(-0.015,0.0427,-0.05915));
#745=CARTESIAN_POINT('',(-0.015,0.0427,0.00915));
#746=CARTESIAN_POINT('',(-0.015,0.01935,-0.05915));
#747=CARTESIAN_POINT('',(-0.015,-0.018,-0.05915));
#748=CARTESIAN_POINT('',(-0.015,-0.018,4.99999999999843E-5));
#749=CARTESIAN_POINT('',(-0.015,-0.018,0.00915));
#750=CARTESIAN_POINT('',(-0.015,0.01935,0.00915));
#751=CARTESIAN_POINT('',(0.010002,0.0277,0.00815));
#752=CARTESIAN_POINT('',(0.004,0.0277,-0.0507));
#753=CARTESIAN_POINT('',(0.004,0.0277,-0.05565));
#754=CARTESIAN_POINT('',(0.01,0.0277,-0.04815));
#755=CARTESIAN_POINT('',(0.01,0.0277,-0.05915));
#756=CARTESIAN_POINT('',(0.010002,0.0277,-0.05915));
#757=CARTESIAN_POINT('',(-0.01,0.0277,-0.05915));
#758=CARTESIAN_POINT('',(-0.01,0.0277,-0.040002));
#759=CARTESIAN_POINT('',(-0.01,0.0277,-0.04));
#760=CARTESIAN_POINT('',(0.010002,0.0277,-0.04));
#761=CARTESIAN_POINT('',(-0.004,0.0277,-0.04));
#762=CARTESIAN_POINT('',(-0.004,0.0277,-0.0507));
#763=CARTESIAN_POINT('',(-0.004,0.0277,-0.05565));
#764=CARTESIAN_POINT('',(-6.43506455750821E-34,0.0277,-0.05565));
#765=CARTESIAN_POINT('',(0.010002,0.0277,0.00815));
#766=CARTESIAN_POINT('',(0.005,0.0277,0.00475));
#767=CARTESIAN_POINT('',(0.005,0.0277,0.00155));
#768=CARTESIAN_POINT('',(-0.005,0.0277,0.00475));
#769=CARTESIAN_POINT('',(-0.005,0.0277,0.00155));
#770=CARTESIAN_POINT('',(0.010002,0.0277,0.));
#771=CARTESIAN_POINT('',(0.01,0.0277,-6.93889390390723E-18));
#772=CARTESIAN_POINT('',(-0.01,0.0277,-6.93889390390723E-18));
#773=CARTESIAN_POINT('',(-0.01,0.0277,-0.040002));
#774=CARTESIAN_POINT('',(-0.01,0.0277,0.00915));
#775=CARTESIAN_POINT('',(0.010002,0.0277,0.00915));
#776=CARTESIAN_POINT('',(0.01,0.0277,0.00915));
#777=CARTESIAN_POINT('',(0.01,0.0277,0.00815));
#778=CARTESIAN_POINT('',(0.010002,0.0193,0.));
#779=CARTESIAN_POINT('',(0.01,0.0193,0.));
#780=CARTESIAN_POINT('',(0.01,-0.014,-1.6575387787226E-17));
#781=CARTESIAN_POINT('',(0.010002,-0.014,-2.79691106795709E-18));
#782=CARTESIAN_POINT('',(-0.01,-0.014,-1.6575387787226E-17));
#783=CARTESIAN_POINT('',(-0.01,0.0193,-1.37784767192689E-17));
#784=CARTESIAN_POINT('',(0.010002,0.01935,0.00915));
#785=CARTESIAN_POINT('',(0.010002,-0.018,0.00915));
#786=CARTESIAN_POINT('',(0.015,-0.018,0.00915));
#787=CARTESIAN_POINT('',(0.015,0.01935,0.00915));
#788=CARTESIAN_POINT('',(0.015,0.0427,0.00915));
#789=CARTESIAN_POINT('',(-0.010002,0.0427,0.00915));
#790=CARTESIAN_POINT('',(0.01,0.0427,0.00915));
#791=CARTESIAN_POINT('',(0.01,0.0452,0.00915));
#792=CARTESIAN_POINT('',(-0.01,0.0452,0.00915));
#793=CARTESIAN_POINT('',(-0.01,0.0427,0.00915));
#794=CARTESIAN_POINT('',(0.010002,0.0427,0.00915));
#795=CARTESIAN_POINT('',(0.010002,0.0193,-0.04));
#796=CARTESIAN_POINT('',(-0.004,0.027702,-0.04));
#797=CARTESIAN_POINT('',(-0.004,-0.014,-0.04));
#798=CARTESIAN_POINT('',(-0.01,0.0193,-0.04));
#799=CARTESIAN_POINT('',(-0.01,-0.014,-0.04));
#800=CARTESIAN_POINT('',(0.010002,-0.014,-0.04));
#801=CARTESIAN_POINT('',(-0.01,0.0193,-0.040002));
#802=CARTESIAN_POINT('',(-0.01,0.0427,-0.040002));
#803=CARTESIAN_POINT('',(-0.01,0.0427,-0.05915));
#804=CARTESIAN_POINT('',(-0.01,-0.014,-0.040002));
#805=CARTESIAN_POINT('',(-0.01,0.0452,-0.05915));
#806=CARTESIAN_POINT('',(-0.005,0.0227,0.00475));
#807=CARTESIAN_POINT('',(-0.005,0.0207772460191118,0.00475));
#808=CARTESIAN_POINT('',(-0.005,0.0227,0.00475));
#809=CARTESIAN_POINT('',(-0.005,0.0227,0.00155));
#810=CARTESIAN_POINT('',(-0.005,0.0277,0.00475));
#811=CARTESIAN_POINT('',(0.005,0.0227,0.00475));
#812=CARTESIAN_POINT('',(0.005,0.0207772460191118,0.00475));
#813=CARTESIAN_POINT('',(0.005,0.0227,0.00475));
#814=CARTESIAN_POINT('',(0.005,0.0227,0.00155));
#815=CARTESIAN_POINT('',(0.005,0.0277,0.00475));
#816=CARTESIAN_POINT('',(-0.017875,0.0427,-0.025));
#817=CARTESIAN_POINT('',(-0.0125,0.0427,0.00164999999999998));
#818=CARTESIAN_POINT('',(-0.0125,0.0427,4.9999999999975E-5));
#819=CARTESIAN_POINT('',(-0.0125,0.0427,-0.05165));
#820=CARTESIAN_POINT('',(-0.0125,0.0427,-0.05325));
#821=CARTESIAN_POINT('',(-0.017875,0.0427,-0.05915));
#822=CARTESIAN_POINT('',(-0.007875,0.0281,-0.05915));
#823=CARTESIAN_POINT('',(0.01,0.0452,-0.05915));
#824=CARTESIAN_POINT('',(0.01,0.0427,-0.05915));
#825=CARTESIAN_POINT('',(0.017875,0.0427,-0.05915));
#826=CARTESIAN_POINT('',(0.015,0.0427,-0.05915));
#827=CARTESIAN_POINT('',(0.015,0.01935,-0.05915));
#828=CARTESIAN_POINT('',(0.015,-0.018,-0.05915));
#829=CARTESIAN_POINT('',(0.010002,-0.018,-0.05915));
#830=CARTESIAN_POINT('',(-0.0125,0.0452,-0.05165));
#831=CARTESIAN_POINT('',(-0.0125,0.0402,-0.05165));
#832=CARTESIAN_POINT('',(-0.0125,0.0402,-0.05325));
#833=CARTESIAN_POINT('',(-0.0125,0.0402,-0.05165));
#834=CARTESIAN_POINT('',(-0.0125,0.0392386230095559,-0.05165));
#835=CARTESIAN_POINT('',(-0.0125,0.0452,0.00164999999999998));
#836=CARTESIAN_POINT('',(-0.0125,0.0402,0.00164999999999998));
#837=CARTESIAN_POINT('',(-0.0125,0.0402,4.9999999999975E-5));
#838=CARTESIAN_POINT('',(-0.0125,0.0402,0.00164999999999998));
#839=CARTESIAN_POINT('',(-0.0125,0.0392386230095559,0.00164999999999998));
#840=CARTESIAN_POINT('',(0.015,0.0313364164131053,-0.02));
#841=CARTESIAN_POINT('',(0.015,0.0427,-0.02));
#842=CARTESIAN_POINT('',(0.015,-0.018,4.99999999999843E-5));
#843=CARTESIAN_POINT('',(0.01,0.0193,-0.040002));
#844=CARTESIAN_POINT('',(0.01,0.0427,-0.040002));
#845=CARTESIAN_POINT('',(0.01,-0.014,-0.040002));
#846=CARTESIAN_POINT('',(0.017875,0.0427,-0.025));
#847=CARTESIAN_POINT('',(0.0125,0.0427,0.00164999999999998));
#848=CARTESIAN_POINT('',(0.0125,0.0427,4.9999999999975E-5));
#849=CARTESIAN_POINT('',(0.0125,0.0427,-0.05165));
#850=CARTESIAN_POINT('',(0.0125,0.0427,-0.05325));
#851=CARTESIAN_POINT('',(0.0125,0.0452,-0.05165));
#852=CARTESIAN_POINT('',(0.0125,0.0402,-0.05165));
#853=CARTESIAN_POINT('',(0.0125,0.0402,-0.05325));
#854=CARTESIAN_POINT('',(0.0125,0.0402,-0.05165));
#855=CARTESIAN_POINT('',(0.0125,0.0392386230095559,-0.05165));
#856=CARTESIAN_POINT('',(0.0125,0.0452,0.00164999999999998));
#857=CARTESIAN_POINT('',(0.0125,0.0402,0.00164999999999998));
#858=CARTESIAN_POINT('',(0.0125,0.0402,4.9999999999975E-5));
#859=CARTESIAN_POINT('',(0.0125,0.0402,0.00164999999999998));
#860=CARTESIAN_POINT('',(0.0125,0.0392386230095559,0.00164999999999998));
#861=CARTESIAN_POINT('',(0.004,0.027702,-0.0507));
#862=CARTESIAN_POINT('',(0.004,0.027702,-0.05565));
#863=CARTESIAN_POINT('',(0.004,-0.014,-0.05565));
#864=CARTESIAN_POINT('',(0.004,-0.014,-0.0507));
#865=CARTESIAN_POINT('',(-0.004,0.027702,-0.0507));
#866=CARTESIAN_POINT('',(-0.004,-0.014,-0.0507));
#867=CARTESIAN_POINT('',(-0.004,-0.014,-0.05565));
#868=CARTESIAN_POINT('',(-0.004,0.027702,-0.05565));
#869=CARTESIAN_POINT('',(-6.43583522392229E-34,0.027702,-0.05565));
#870=CARTESIAN_POINT('',(9.6333301759105E-34,-0.014,-0.05565));
#871=CARTESIAN_POINT('',(5.39466489850988E-34,-0.014,-0.025));
#872=CARTESIAN_POINT('',(-1.54133282814568E-34,-0.014,-0.025));
#873=CARTESIAN_POINT('',(-1.54133282814568E-34,-0.014,-0.03));
#874=CARTESIAN_POINT('',(6.93599772665556E-34,-0.018,-0.025));
#875=CARTESIAN_POINT('',(1.02986859801633E-96,-0.018,-0.025));
#876=CARTESIAN_POINT('',(1.02986859801633E-96,-0.018,-0.03));
#877=CARTESIAN_POINT('',(-9.6333301759105E-34,0.007,-0.025));
#878=MECHANICAL_DESIGN_GEOMETRIC_PRESENTATION_REPRESENTATION('',(#535),
#879);
#879=(
GEOMETRIC_REPRESENTATION_CONTEXT(3)
GLOBAL_UNCERTAINTY_ASSIGNED_CONTEXT((#880))
GLOBAL_UNIT_ASSIGNED_CONTEXT((#883,#882,#881))
REPRESENTATION_CONTEXT('Part 2','TOP_LEVEL_ASSEMBLY_PART')
);
#880=UNCERTAINTY_MEASURE_WITH_UNIT(LENGTH_MEASURE(1.E-8),#883,
'DISTANCE_ACCURACY_VALUE','Maximum Tolerance applied to model');
#881=(
NAMED_UNIT(*)
SI_UNIT($,.STERADIAN.)
SOLID_ANGLE_UNIT()
);
#882=(
NAMED_UNIT(*)
PLANE_ANGLE_UNIT()
SI_UNIT($,.RADIAN.)
);
#883=(
LENGTH_UNIT()
NAMED_UNIT(*)
SI_UNIT($,.METRE.)
);
#884=PRODUCT_DEFINITION_SHAPE('','',#885);
#885=PRODUCT_DEFINITION('','',#887,#886);
#886=PRODUCT_DEFINITION_CONTEXT('',#893,'design');
#887=PRODUCT_DEFINITION_FORMATION_WITH_SPECIFIED_SOURCE('','',#889,
 .NOT_KNOWN.);
#888=PRODUCT_RELATED_PRODUCT_CATEGORY('','',(#889));
#889=PRODUCT('Part 2','Part 2','Part 2',(#891));
#890=PRODUCT_CATEGORY('','');
#891=PRODUCT_CONTEXT('',#893,'mechanical');
#892=APPLICATION_PROTOCOL_DEFINITION('international standard',
'automotive_design',2010,#893);
#893=APPLICATION_CONTEXT(
'core data for automotive mechanical design processes');
ENDSEC;
END-ISO-10303-21;
