ISO-10303-21;
HEADER;
/* Generated by software containing ST-Developer
 * from STEP Tools, Inc. (www.steptools.com) 
 */
/* OPTION: using custom renumber hook */

FILE_DESCRIPTION(
/* description */ ('STEP AP214',
'CAx-IF Rec.Pracs.---User Defined Attributes---1.5---2016-08-15'),
/* implementation_level */ '2;1');

FILE_NAME(
/* name */ 'Base turn - Part 1 (9)',
/* time_stamp */ '2026-05-17T02:39:04Z',
/* author */ (''),
/* organization */ (''),
/* preprocessor_version */ 'ST-DEVELOPER v20',
/* originating_system */ 'ONSHAPE BY PTC INC, 1.215',
/* authorisation */ '  ');

FILE_SCHEMA (('AUTOMOTIVE_DESIGN {1 0 10303 214 3 1 1}'));
ENDSEC;

DATA;
#10=PROPERTY_DEFINITION_REPRESENTATION(#14,#12);
#11=PROPERTY_DEFINITION_REPRESENTATION(#15,#13);
#12=REPRESENTATION('',(#16),#579);
#13=REPRESENTATION('',(#17),#579);
#14=PROPERTY_DEFINITION('pmi validation property','',#584);
#15=PROPERTY_DEFINITION('pmi validation property','',#584);
#16=VALUE_REPRESENTATION_ITEM('number of annotations',COUNT_MEASURE(0.));
#17=VALUE_REPRESENTATION_ITEM('number of views',COUNT_MEASURE(0.));
#18=SHAPE_REPRESENTATION_RELATIONSHIP('','',#341,#19);
#19=ADVANCED_BREP_SHAPE_REPRESENTATION('',(#339),#579);
#20=CONICAL_SURFACE('',#374,0.00336,0.785398163397448);
#21=CONICAL_SURFACE('',#377,0.00336,0.785398163397448);
#22=CONICAL_SURFACE('',#380,0.00336,0.785398163397448);
#23=CONICAL_SURFACE('',#383,0.00336,0.785398163397448);
#24=PLANE('',#348);
#25=PLANE('',#349);
#26=PLANE('',#359);
#27=PLANE('',#360);
#28=PLANE('',#365);
#29=PLANE('',#366);
#30=PLANE('',#367);
#31=LINE('',#495,#45);
#32=LINE('',#499,#46);
#33=LINE('',#509,#47);
#34=LINE('',#511,#48);
#35=LINE('',#513,#49);
#36=LINE('',#515,#50);
#37=LINE('',#517,#51);
#38=LINE('',#519,#52);
#39=LINE('',#521,#53);
#40=LINE('',#523,#54);
#41=LINE('',#525,#55);
#42=LINE('',#527,#56);
#43=LINE('',#542,#57);
#44=LINE('',#554,#58);
#45=VECTOR('',#392,1.);
#46=VECTOR('',#395,1.);
#47=VECTOR('',#400,1.);
#48=VECTOR('',#401,1.);
#49=VECTOR('',#402,1.);
#50=VECTOR('',#403,1.);
#51=VECTOR('',#404,1.);
#52=VECTOR('',#407,1.);
#53=VECTOR('',#408,1.);
#54=VECTOR('',#409,1.);
#55=VECTOR('',#410,1.);
#56=VECTOR('',#411,1.);
#57=VECTOR('',#432,1.);
#58=VECTOR('',#447,1.);
#59=B_SPLINE_CURVE_WITH_KNOTS('',3,(#487,#488,#489,#490,#491),
 .UNSPECIFIED.,.F.,.F.,(4,1,4),(5.6248803937808E-7,0.00146242572431538,
0.00292428896059138),.UNSPECIFIED.);
#60=B_SPLINE_CURVE_WITH_KNOTS('',3,(#503,#504,#505,#506,#507),
 .UNSPECIFIED.,.F.,.F.,(4,1,4),(5.62488039382562E-7,0.00146242572431536,
0.00292428896059135),.UNSPECIFIED.);
#61=ORIENTED_EDGE('',*,*,#137,.T.);
#62=ORIENTED_EDGE('',*,*,#138,.T.);
#63=ORIENTED_EDGE('',*,*,#139,.T.);
#64=ORIENTED_EDGE('',*,*,#140,.T.);
#65=ORIENTED_EDGE('',*,*,#141,.F.);
#66=ORIENTED_EDGE('',*,*,#142,.F.);
#67=ORIENTED_EDGE('',*,*,#143,.T.);
#68=ORIENTED_EDGE('',*,*,#144,.T.);
#69=ORIENTED_EDGE('',*,*,#145,.T.);
#70=ORIENTED_EDGE('',*,*,#146,.T.);
#71=ORIENTED_EDGE('',*,*,#147,.T.);
#72=ORIENTED_EDGE('',*,*,#148,.T.);
#73=ORIENTED_EDGE('',*,*,#149,.F.);
#74=ORIENTED_EDGE('',*,*,#140,.F.);
#75=ORIENTED_EDGE('',*,*,#150,.F.);
#76=ORIENTED_EDGE('',*,*,#142,.T.);
#77=ORIENTED_EDGE('',*,*,#151,.T.);
#78=ORIENTED_EDGE('',*,*,#152,.F.);
#79=ORIENTED_EDGE('',*,*,#153,.F.);
#80=ORIENTED_EDGE('',*,*,#154,.F.);
#81=ORIENTED_EDGE('',*,*,#155,.F.);
#82=ORIENTED_EDGE('',*,*,#156,.T.);
#83=ORIENTED_EDGE('',*,*,#157,.F.);
#84=ORIENTED_EDGE('',*,*,#158,.T.);
#85=ORIENTED_EDGE('',*,*,#159,.T.);
#86=ORIENTED_EDGE('',*,*,#148,.F.);
#87=ORIENTED_EDGE('',*,*,#160,.F.);
#88=ORIENTED_EDGE('',*,*,#152,.T.);
#89=ORIENTED_EDGE('',*,*,#161,.F.);
#90=ORIENTED_EDGE('',*,*,#153,.T.);
#91=ORIENTED_EDGE('',*,*,#160,.T.);
#92=ORIENTED_EDGE('',*,*,#147,.F.);
#93=ORIENTED_EDGE('',*,*,#162,.F.);
#94=ORIENTED_EDGE('',*,*,#163,.F.);
#95=ORIENTED_EDGE('',*,*,#164,.F.);
#96=ORIENTED_EDGE('',*,*,#165,.F.);
#97=ORIENTED_EDGE('',*,*,#157,.T.);
#98=ORIENTED_EDGE('',*,*,#159,.F.);
#99=ORIENTED_EDGE('',*,*,#151,.F.);
#100=ORIENTED_EDGE('',*,*,#141,.T.);
#101=ORIENTED_EDGE('',*,*,#149,.T.);
#102=ORIENTED_EDGE('',*,*,#155,.T.);
#103=ORIENTED_EDGE('',*,*,#158,.F.);
#104=ORIENTED_EDGE('',*,*,#161,.T.);
#105=ORIENTED_EDGE('',*,*,#146,.F.);
#106=ORIENTED_EDGE('',*,*,#166,.F.);
#107=ORIENTED_EDGE('',*,*,#154,.T.);
#108=ORIENTED_EDGE('',*,*,#167,.T.);
#109=ORIENTED_EDGE('',*,*,#168,.T.);
#110=ORIENTED_EDGE('',*,*,#156,.F.);
#111=ORIENTED_EDGE('',*,*,#139,.F.);
#112=ORIENTED_EDGE('',*,*,#169,.T.);
#113=ORIENTED_EDGE('',*,*,#137,.F.);
#114=ORIENTED_EDGE('',*,*,#170,.T.);
#115=ORIENTED_EDGE('',*,*,#143,.F.);
#116=ORIENTED_EDGE('',*,*,#150,.T.);
#117=ORIENTED_EDGE('',*,*,#166,.T.);
#118=ORIENTED_EDGE('',*,*,#145,.F.);
#119=ORIENTED_EDGE('',*,*,#171,.F.);
#120=ORIENTED_EDGE('',*,*,#164,.T.);
#121=ORIENTED_EDGE('',*,*,#171,.T.);
#122=ORIENTED_EDGE('',*,*,#168,.F.);
#123=ORIENTED_EDGE('',*,*,#172,.F.);
#124=ORIENTED_EDGE('',*,*,#163,.T.);
#125=ORIENTED_EDGE('',*,*,#172,.T.);
#126=ORIENTED_EDGE('',*,*,#167,.F.);
#127=ORIENTED_EDGE('',*,*,#173,.F.);
#128=ORIENTED_EDGE('',*,*,#165,.T.);
#129=ORIENTED_EDGE('',*,*,#173,.T.);
#130=ORIENTED_EDGE('',*,*,#170,.F.);
#131=ORIENTED_EDGE('',*,*,#144,.F.);
#132=ORIENTED_EDGE('',*,*,#174,.F.);
#133=ORIENTED_EDGE('',*,*,#162,.T.);
#134=ORIENTED_EDGE('',*,*,#174,.T.);
#135=ORIENTED_EDGE('',*,*,#169,.F.);
#136=ORIENTED_EDGE('',*,*,#138,.F.);
#137=EDGE_CURVE('',#175,#176,#205,.T.);
#138=EDGE_CURVE('',#176,#177,#59,.T.);
#139=EDGE_CURVE('',#177,#178,#206,.T.);
#140=EDGE_CURVE('',#178,#179,#31,.T.);
#141=EDGE_CURVE('',#180,#179,#207,.T.);
#142=EDGE_CURVE('',#181,#180,#32,.T.);
#143=EDGE_CURVE('',#181,#182,#208,.T.);
#144=EDGE_CURVE('',#182,#175,#60,.T.);
#145=EDGE_CURVE('',#178,#183,#33,.T.);
#146=EDGE_CURVE('',#183,#184,#34,.T.);
#147=EDGE_CURVE('',#184,#185,#35,.T.);
#148=EDGE_CURVE('',#185,#186,#36,.T.);
#149=EDGE_CURVE('',#179,#186,#37,.T.);
#150=EDGE_CURVE('',#181,#187,#38,.T.);
#151=EDGE_CURVE('',#180,#188,#39,.T.);
#152=EDGE_CURVE('',#189,#188,#40,.T.);
#153=EDGE_CURVE('',#190,#189,#41,.T.);
#154=EDGE_CURVE('',#187,#190,#42,.T.);
#155=EDGE_CURVE('',#191,#191,#209,.T.);
#156=EDGE_CURVE('',#192,#192,#210,.T.);
#157=EDGE_CURVE('',#193,#193,#211,.T.);
#158=EDGE_CURVE('',#194,#194,#212,.T.);
#159=EDGE_CURVE('',#188,#186,#213,.T.);
#160=EDGE_CURVE('',#189,#185,#214,.T.);
#161=EDGE_CURVE('',#190,#184,#43,.T.);
#162=EDGE_CURVE('',#195,#195,#215,.F.);
#163=EDGE_CURVE('',#196,#196,#216,.F.);
#164=EDGE_CURVE('',#197,#197,#217,.F.);
#165=EDGE_CURVE('',#198,#198,#218,.F.);
#166=EDGE_CURVE('',#187,#183,#44,.T.);
#167=EDGE_CURVE('',#199,#199,#219,.T.);
#168=EDGE_CURVE('',#200,#200,#220,.T.);
#169=EDGE_CURVE('',#177,#176,#221,.T.);
#170=EDGE_CURVE('',#175,#182,#222,.T.);
#171=EDGE_CURVE('',#201,#201,#223,.T.);
#172=EDGE_CURVE('',#202,#202,#224,.T.);
#173=EDGE_CURVE('',#203,#203,#225,.T.);
#174=EDGE_CURVE('',#204,#204,#226,.T.);
#175=VERTEX_POINT('',#485);
#176=VERTEX_POINT('',#486);
#177=VERTEX_POINT('',#492);
#178=VERTEX_POINT('',#494);
#179=VERTEX_POINT('',#496);
#180=VERTEX_POINT('',#498);
#181=VERTEX_POINT('',#500);
#182=VERTEX_POINT('',#502);
#183=VERTEX_POINT('',#510);
#184=VERTEX_POINT('',#512);
#185=VERTEX_POINT('',#514);
#186=VERTEX_POINT('',#516);
#187=VERTEX_POINT('',#520);
#188=VERTEX_POINT('',#522);
#189=VERTEX_POINT('',#524);
#190=VERTEX_POINT('',#526);
#191=VERTEX_POINT('',#530);
#192=VERTEX_POINT('',#532);
#193=VERTEX_POINT('',#535);
#194=VERTEX_POINT('',#537);
#195=VERTEX_POINT('',#545);
#196=VERTEX_POINT('',#547);
#197=VERTEX_POINT('',#549);
#198=VERTEX_POINT('',#551);
#199=VERTEX_POINT('',#557);
#200=VERTEX_POINT('',#559);
#201=VERTEX_POINT('',#564);
#202=VERTEX_POINT('',#568);
#203=VERTEX_POINT('',#572);
#204=VERTEX_POINT('',#576);
#205=CIRCLE('',#344,0.025);
#206=CIRCLE('',#345,0.025);
#207=CIRCLE('',#346,0.025);
#208=CIRCLE('',#347,0.025);
#209=CIRCLE('',#351,0.005);
#210=CIRCLE('',#352,0.005);
#211=CIRCLE('',#354,0.005);
#212=CIRCLE('',#355,0.005);
#213=CIRCLE('',#357,0.025);
#214=CIRCLE('',#358,0.025);
#215=CIRCLE('',#361,0.0016);
#216=CIRCLE('',#362,0.0016);
#217=CIRCLE('',#363,0.0016);
#218=CIRCLE('',#364,0.0016);
#219=CIRCLE('',#368,0.00336);
#220=CIRCLE('',#369,0.00336);
#221=CIRCLE('',#370,0.00336);
#222=CIRCLE('',#371,0.00336);
#223=CIRCLE('',#373,0.0016);
#224=CIRCLE('',#376,0.0016);
#225=CIRCLE('',#379,0.0016);
#226=CIRCLE('',#382,0.0016);
#227=EDGE_LOOP('',(#61,#62,#63,#64,#65,#66,#67,#68));
#228=EDGE_LOOP('',(#69,#70,#71,#72,#73,#74));
#229=EDGE_LOOP('',(#75,#76,#77,#78,#79,#80));
#230=EDGE_LOOP('',(#81));
#231=EDGE_LOOP('',(#82));
#232=EDGE_LOOP('',(#83));
#233=EDGE_LOOP('',(#84));
#234=EDGE_LOOP('',(#85,#86,#87,#88));
#235=EDGE_LOOP('',(#89,#90,#91,#92));
#236=EDGE_LOOP('',(#93));
#237=EDGE_LOOP('',(#94));
#238=EDGE_LOOP('',(#95));
#239=EDGE_LOOP('',(#96));
#240=EDGE_LOOP('',(#97));
#241=EDGE_LOOP('',(#98,#99,#100,#101));
#242=EDGE_LOOP('',(#102));
#243=EDGE_LOOP('',(#103));
#244=EDGE_LOOP('',(#104,#105,#106,#107));
#245=EDGE_LOOP('',(#108));
#246=EDGE_LOOP('',(#109));
#247=EDGE_LOOP('',(#110));
#248=EDGE_LOOP('',(#111,#112,#113,#114,#115,#116,#117,#118));
#249=EDGE_LOOP('',(#119));
#250=EDGE_LOOP('',(#120));
#251=EDGE_LOOP('',(#121));
#252=EDGE_LOOP('',(#122));
#253=EDGE_LOOP('',(#123));
#254=EDGE_LOOP('',(#124));
#255=EDGE_LOOP('',(#125));
#256=EDGE_LOOP('',(#126));
#257=EDGE_LOOP('',(#127));
#258=EDGE_LOOP('',(#128));
#259=EDGE_LOOP('',(#129));
#260=EDGE_LOOP('',(#130,#131));
#261=EDGE_LOOP('',(#132));
#262=EDGE_LOOP('',(#133));
#263=EDGE_LOOP('',(#134));
#264=EDGE_LOOP('',(#135,#136));
#265=FACE_BOUND('',#227,.T.);
#266=FACE_BOUND('',#228,.T.);
#267=FACE_BOUND('',#229,.T.);
#268=FACE_BOUND('',#230,.T.);
#269=FACE_BOUND('',#231,.T.);
#270=FACE_BOUND('',#232,.T.);
#271=FACE_BOUND('',#233,.T.);
#272=FACE_BOUND('',#234,.T.);
#273=FACE_BOUND('',#235,.T.);
#274=FACE_BOUND('',#236,.T.);
#275=FACE_BOUND('',#237,.T.);
#276=FACE_BOUND('',#238,.T.);
#277=FACE_BOUND('',#239,.T.);
#278=FACE_BOUND('',#240,.T.);
#279=FACE_BOUND('',#241,.T.);
#280=FACE_BOUND('',#242,.T.);
#281=FACE_BOUND('',#243,.T.);
#282=FACE_BOUND('',#244,.T.);
#283=FACE_BOUND('',#245,.T.);
#284=FACE_BOUND('',#246,.T.);
#285=FACE_BOUND('',#247,.T.);
#286=FACE_BOUND('',#248,.T.);
#287=FACE_BOUND('',#249,.T.);
#288=FACE_BOUND('',#250,.T.);
#289=FACE_BOUND('',#251,.T.);
#290=FACE_BOUND('',#252,.T.);
#291=FACE_BOUND('',#253,.T.);
#292=FACE_BOUND('',#254,.T.);
#293=FACE_BOUND('',#255,.T.);
#294=FACE_BOUND('',#256,.T.);
#295=FACE_BOUND('',#257,.T.);
#296=FACE_BOUND('',#258,.T.);
#297=FACE_BOUND('',#259,.T.);
#298=FACE_BOUND('',#260,.T.);
#299=FACE_BOUND('',#261,.T.);
#300=FACE_BOUND('',#262,.T.);
#301=FACE_BOUND('',#263,.T.);
#302=FACE_BOUND('',#264,.T.);
#303=CYLINDRICAL_SURFACE('',#343,0.025);
#304=CYLINDRICAL_SURFACE('',#350,0.005);
#305=CYLINDRICAL_SURFACE('',#353,0.005);
#306=CYLINDRICAL_SURFACE('',#356,0.025);
#307=CYLINDRICAL_SURFACE('',#372,0.0016);
#308=CYLINDRICAL_SURFACE('',#375,0.0016);
#309=CYLINDRICAL_SURFACE('',#378,0.0016);
#310=CYLINDRICAL_SURFACE('',#381,0.0016);
#311=ADVANCED_FACE('',(#265),#303,.T.);
#312=ADVANCED_FACE('',(#266),#24,.T.);
#313=ADVANCED_FACE('',(#267),#25,.F.);
#314=ADVANCED_FACE('',(#268,#269),#304,.F.);
#315=ADVANCED_FACE('',(#270,#271),#305,.F.);
#316=ADVANCED_FACE('',(#272),#306,.T.);
#317=ADVANCED_FACE('',(#273),#26,.T.);
#318=ADVANCED_FACE('',(#274,#275,#276,#277,#278,#279,#280),#27,.F.);
#319=ADVANCED_FACE('',(#281),#28,.F.);
#320=ADVANCED_FACE('',(#282),#29,.F.);
#321=ADVANCED_FACE('',(#283,#284,#285,#286),#30,.T.);
#322=ADVANCED_FACE('',(#287,#288),#307,.F.);
#323=ADVANCED_FACE('',(#289,#290),#20,.F.);
#324=ADVANCED_FACE('',(#291,#292),#308,.F.);
#325=ADVANCED_FACE('',(#293,#294),#21,.F.);
#326=ADVANCED_FACE('',(#295,#296),#309,.F.);
#327=ADVANCED_FACE('',(#297,#298),#22,.F.);
#328=ADVANCED_FACE('',(#299,#300),#310,.F.);
#329=ADVANCED_FACE('',(#301,#302),#23,.F.);
#330=CLOSED_SHELL('',(#311,#312,#313,#314,#315,#316,#317,#318,#319,#320,
#321,#322,#323,#324,#325,#326,#327,#328,#329));
#331=STYLED_ITEM('',(#332),#339);
#332=PRESENTATION_STYLE_ASSIGNMENT((#333));
#333=SURFACE_STYLE_USAGE(.BOTH.,#334);
#334=SURFACE_SIDE_STYLE('',(#335));
#335=SURFACE_STYLE_FILL_AREA(#336);
#336=FILL_AREA_STYLE('',(#337));
#337=FILL_AREA_STYLE_COLOUR('',#338);
#338=COLOUR_RGB('',0.615686274509804,0.811764705882353,0.929411764705882);
#339=MANIFOLD_SOLID_BREP('Part 1',#330);
#340=SHAPE_DEFINITION_REPRESENTATION(#584,#341);
#341=SHAPE_REPRESENTATION('Part 1',(#342),#579);
#342=AXIS2_PLACEMENT_3D('',#482,#384,#385);
#343=AXIS2_PLACEMENT_3D('',#483,#386,#387);
#344=AXIS2_PLACEMENT_3D('',#484,#388,#389);
#345=AXIS2_PLACEMENT_3D('',#493,#390,#391);
#346=AXIS2_PLACEMENT_3D('',#497,#393,#394);
#347=AXIS2_PLACEMENT_3D('',#501,#396,#397);
#348=AXIS2_PLACEMENT_3D('',#508,#398,#399);
#349=AXIS2_PLACEMENT_3D('',#518,#405,#406);
#350=AXIS2_PLACEMENT_3D('',#528,#412,#413);
#351=AXIS2_PLACEMENT_3D('',#529,#414,#415);
#352=AXIS2_PLACEMENT_3D('',#531,#416,#417);
#353=AXIS2_PLACEMENT_3D('',#533,#418,#419);
#354=AXIS2_PLACEMENT_3D('',#534,#420,#421);
#355=AXIS2_PLACEMENT_3D('',#536,#422,#423);
#356=AXIS2_PLACEMENT_3D('',#538,#424,#425);
#357=AXIS2_PLACEMENT_3D('',#539,#426,#427);
#358=AXIS2_PLACEMENT_3D('',#540,#428,#429);
#359=AXIS2_PLACEMENT_3D('',#541,#430,#431);
#360=AXIS2_PLACEMENT_3D('',#543,#433,#434);
#361=AXIS2_PLACEMENT_3D('',#544,#435,#436);
#362=AXIS2_PLACEMENT_3D('',#546,#437,#438);
#363=AXIS2_PLACEMENT_3D('',#548,#439,#440);
#364=AXIS2_PLACEMENT_3D('',#550,#441,#442);
#365=AXIS2_PLACEMENT_3D('',#552,#443,#444);
#366=AXIS2_PLACEMENT_3D('',#553,#445,#446);
#367=AXIS2_PLACEMENT_3D('',#555,#448,#449);
#368=AXIS2_PLACEMENT_3D('',#556,#450,#451);
#369=AXIS2_PLACEMENT_3D('',#558,#452,#453);
#370=AXIS2_PLACEMENT_3D('',#560,#454,#455);
#371=AXIS2_PLACEMENT_3D('',#561,#456,#457);
#372=AXIS2_PLACEMENT_3D('',#562,#458,#459);
#373=AXIS2_PLACEMENT_3D('',#563,#460,#461);
#374=AXIS2_PLACEMENT_3D('',#565,#462,#463);
#375=AXIS2_PLACEMENT_3D('',#566,#464,#465);
#376=AXIS2_PLACEMENT_3D('',#567,#466,#467);
#377=AXIS2_PLACEMENT_3D('',#569,#468,#469);
#378=AXIS2_PLACEMENT_3D('',#570,#470,#471);
#379=AXIS2_PLACEMENT_3D('',#571,#472,#473);
#380=AXIS2_PLACEMENT_3D('',#573,#474,#475);
#381=AXIS2_PLACEMENT_3D('',#574,#476,#477);
#382=AXIS2_PLACEMENT_3D('',#575,#478,#479);
#383=AXIS2_PLACEMENT_3D('',#577,#480,#481);
#384=DIRECTION('',(0.,0.,1.));
#385=DIRECTION('',(1.,0.,0.));
#386=DIRECTION('',(0.,1.,0.));
#387=DIRECTION('',(0.,0.,1.));
#388=DIRECTION('',(0.,1.,0.));
#389=DIRECTION('',(0.,0.,-1.));
#390=DIRECTION('',(0.,1.,0.));
#391=DIRECTION('',(0.,0.,-1.));
#392=DIRECTION('',(0.,1.,0.));
#393=DIRECTION('',(0.,1.,0.));
#394=DIRECTION('',(0.,0.,-1.));
#395=DIRECTION('',(0.,1.,0.));
#396=DIRECTION('',(0.,1.,0.));
#397=DIRECTION('',(0.,0.,-1.));
#398=DIRECTION('',(0.,0.,-1.));
#399=DIRECTION('',(-1.,0.,0.));
#400=DIRECTION('',(-1.,0.,0.));
#401=DIRECTION('',(0.,-1.,0.));
#402=DIRECTION('',(-1.,0.,0.));
#403=DIRECTION('',(0.,1.,0.));
#404=DIRECTION('',(-1.,0.,0.));
#405=DIRECTION('',(0.,0.,-1.));
#406=DIRECTION('',(-1.,0.,0.));
#407=DIRECTION('',(-1.,0.,0.));
#408=DIRECTION('',(-1.,0.,0.));
#409=DIRECTION('',(0.,1.,0.));
#410=DIRECTION('',(-1.,0.,0.));
#411=DIRECTION('',(0.,-1.,0.));
#412=DIRECTION('',(0.,1.,0.));
#413=DIRECTION('',(0.,0.,1.));
#414=DIRECTION('',(0.,-1.,0.));
#415=DIRECTION('',(0.,0.,-1.));
#416=DIRECTION('',(0.,-1.,0.));
#417=DIRECTION('',(0.,0.,-1.));
#418=DIRECTION('',(0.,1.,0.));
#419=DIRECTION('',(0.,0.,1.));
#420=DIRECTION('',(0.,-1.,0.));
#421=DIRECTION('',(0.,0.,-1.));
#422=DIRECTION('',(0.,-1.,0.));
#423=DIRECTION('',(0.,0.,-1.));
#424=DIRECTION('',(0.,1.,0.));
#425=DIRECTION('',(0.,0.,1.));
#426=DIRECTION('',(0.,-1.,0.));
#427=DIRECTION('',(0.,0.,-1.));
#428=DIRECTION('',(0.,-1.,0.));
#429=DIRECTION('',(0.,0.,-1.));
#430=DIRECTION('',(0.,-1.,0.));
#431=DIRECTION('',(1.,0.,0.));
#432=DIRECTION('',(1.38777878078145E-16,0.,-1.));
#433=DIRECTION('',(0.,-1.,0.));
#434=DIRECTION('',(1.,0.,0.));
#435=DIRECTION('',(0.,-1.,0.));
#436=DIRECTION('',(0.,0.,-1.));
#437=DIRECTION('',(0.,-1.,0.));
#438=DIRECTION('',(0.,0.,-1.));
#439=DIRECTION('',(0.,-1.,0.));
#440=DIRECTION('',(0.,0.,-1.));
#441=DIRECTION('',(0.,-1.,0.));
#442=DIRECTION('',(0.,0.,-1.));
#443=DIRECTION('',(0.,-1.,0.));
#444=DIRECTION('',(1.,0.,0.));
#445=DIRECTION('',(-1.,0.,-1.38777878078145E-16));
#446=DIRECTION('',(-1.38777878078145E-16,0.,1.));
#447=DIRECTION('',(1.38777878078145E-16,0.,-1.));
#448=DIRECTION('',(0.,-1.,0.));
#449=DIRECTION('',(1.,0.,0.));
#450=DIRECTION('',(0.,1.,0.));
#451=DIRECTION('',(0.,0.,1.));
#452=DIRECTION('',(0.,1.,0.));
#453=DIRECTION('',(0.,0.,1.));
#454=DIRECTION('',(0.,1.,0.));
#455=DIRECTION('',(0.,0.,1.));
#456=DIRECTION('',(0.,1.,0.));
#457=DIRECTION('',(0.,0.,1.));
#458=DIRECTION('',(0.,1.,0.));
#459=DIRECTION('',(0.,0.,1.));
#460=DIRECTION('',(0.,1.,0.));
#461=DIRECTION('',(0.,0.,1.));
#462=DIRECTION('',(0.,-1.,0.));
#463=DIRECTION('',(0.,0.,-1.));
#464=DIRECTION('',(0.,1.,0.));
#465=DIRECTION('',(0.,0.,1.));
#466=DIRECTION('',(0.,1.,0.));
#467=DIRECTION('',(0.,0.,1.));
#468=DIRECTION('',(0.,-1.,0.));
#469=DIRECTION('',(0.,0.,-1.));
#470=DIRECTION('',(0.,1.,0.));
#471=DIRECTION('',(0.,0.,1.));
#472=DIRECTION('',(0.,1.,0.));
#473=DIRECTION('',(0.,0.,1.));
#474=DIRECTION('',(0.,-1.,0.));
#475=DIRECTION('',(0.,0.,-1.));
#476=DIRECTION('',(0.,1.,0.));
#477=DIRECTION('',(0.,0.,1.));
#478=DIRECTION('',(0.,1.,0.));
#479=DIRECTION('',(0.,0.,1.));
#480=DIRECTION('',(0.,-1.,0.));
#481=DIRECTION('',(0.,0.,-1.));
#482=CARTESIAN_POINT('',(0.,0.,0.));
#483=CARTESIAN_POINT('',(0.0625,-0.021,3.265531974911E-18));
#484=CARTESIAN_POINT('',(0.0625,-0.011,3.265531974911E-18));
#485=CARTESIAN_POINT('',(0.0811627106970753,-0.011,0.0166343989803441));
#486=CARTESIAN_POINT('',(0.0811627106970753,-0.011,-0.0166343989803441));
#487=CARTESIAN_POINT('',(0.0811627106970753,-0.011,-0.0166343989803441));
#488=CARTESIAN_POINT('',(0.0808547332921558,-0.0108267637151551,-0.0169799295412041));
#489=CARTESIAN_POINT('',(0.0801881250711989,-0.0106126185666783,-0.0176878896255063));
#490=CARTESIAN_POINT('',(0.0794799403647015,-0.0108267582886525,-0.0183547236449842));
#491=CARTESIAN_POINT('',(0.0791343989803441,-0.011,-0.0186627106970753));
#492=CARTESIAN_POINT('',(0.0791343989803441,-0.011,-0.0186627106970753));
#493=CARTESIAN_POINT('',(0.0625,-0.011,3.265531974911E-18));
#494=CARTESIAN_POINT('',(0.0625,-0.011,-0.025));
#495=CARTESIAN_POINT('',(0.0625,-0.021,-0.025));
#496=CARTESIAN_POINT('',(0.0625,0.,-0.025));
#497=CARTESIAN_POINT('',(0.0625,0.,3.265531974911E-18));
#498=CARTESIAN_POINT('',(0.0625,0.,0.025));
#499=CARTESIAN_POINT('',(0.0625,-0.021,0.025));
#500=CARTESIAN_POINT('',(0.0625,-0.011,0.025));
#501=CARTESIAN_POINT('',(0.0625,-0.011,3.265531974911E-18));
#502=CARTESIAN_POINT('',(0.0791343989803441,-0.011,0.0186627106970753));
#503=CARTESIAN_POINT('',(0.0791343989803441,-0.011,0.0186627106970753));
#504=CARTESIAN_POINT('',(0.0794799295412041,-0.0108267637151551,0.0183547332921558));
#505=CARTESIAN_POINT('',(0.0801878896255062,-0.0106126185666783,0.0176881250711989));
#506=CARTESIAN_POINT('',(0.0808547236449842,-0.0108267582886526,0.0169799403647014));
#507=CARTESIAN_POINT('',(0.0811627106970753,-0.011,0.0166343989803441));
#508=CARTESIAN_POINT('',(0.,-0.021,-0.025));
#509=CARTESIAN_POINT('',(0.,-0.011,-0.025));
#510=CARTESIAN_POINT('',(0.0265,-0.011,-0.025));
#511=CARTESIAN_POINT('',(0.0265,-0.011,-0.025));
#512=CARTESIAN_POINT('',(0.0265,-0.021,-0.025));
#513=CARTESIAN_POINT('',(0.,-0.021,-0.025));
#514=CARTESIAN_POINT('',(-0.0625,-0.021,-0.025));
#515=CARTESIAN_POINT('',(-0.0625,-0.021,-0.025));
#516=CARTESIAN_POINT('',(-0.0625,0.,-0.025));
#517=CARTESIAN_POINT('',(0.,0.,-0.025));
#518=CARTESIAN_POINT('',(0.,-0.021,0.025));
#519=CARTESIAN_POINT('',(0.,-0.011,0.025));
#520=CARTESIAN_POINT('',(0.0265,-0.011,0.025));
#521=CARTESIAN_POINT('',(0.,0.,0.025));
#522=CARTESIAN_POINT('',(-0.0625,0.,0.025));
#523=CARTESIAN_POINT('',(-0.0625,-0.021,0.025));
#524=CARTESIAN_POINT('',(-0.0625,-0.021,0.025));
#525=CARTESIAN_POINT('',(0.,-0.021,0.025));
#526=CARTESIAN_POINT('',(0.0265,-0.021,0.025));
#527=CARTESIAN_POINT('',(0.0265,-0.011,0.025));
#528=CARTESIAN_POINT('',(0.0625,-0.021,3.06161699786838E-19));
#529=CARTESIAN_POINT('',(0.0625,0.,3.06161699786838E-19));
#530=CARTESIAN_POINT('',(0.0625,0.,-0.005));
#531=CARTESIAN_POINT('',(0.0625,-0.011,3.06161699786838E-19));
#532=CARTESIAN_POINT('',(0.0625,-0.011,-0.005));
#533=CARTESIAN_POINT('',(-0.0625,-0.021,3.06161699786838E-19));
#534=CARTESIAN_POINT('',(-0.0625,0.,3.06161699786838E-19));
#535=CARTESIAN_POINT('',(-0.0625,0.,-0.005));
#536=CARTESIAN_POINT('',(-0.0625,-0.019,3.06161699786838E-19));
#537=CARTESIAN_POINT('',(-0.0625,-0.019,-0.005));
#538=CARTESIAN_POINT('',(-0.0625,-0.021,3.265531974911E-18));
#539=CARTESIAN_POINT('',(-0.0625,0.,3.265531974911E-18));
#540=CARTESIAN_POINT('',(-0.0625,-0.021,3.265531974911E-18));
#541=CARTESIAN_POINT('',(0.,-0.021,0.));
#542=CARTESIAN_POINT('',(0.0265,-0.021,0.));
#543=CARTESIAN_POINT('',(0.,0.,0.));
#544=CARTESIAN_POINT('',(0.078,0.,-0.0155));
#545=CARTESIAN_POINT('',(0.078,0.,-0.0171));
#546=CARTESIAN_POINT('',(0.047,0.,-0.0155));
#547=CARTESIAN_POINT('',(0.047,0.,-0.0171));
#548=CARTESIAN_POINT('',(0.047,0.,0.0155));
#549=CARTESIAN_POINT('',(0.047,0.,0.0139));
#550=CARTESIAN_POINT('',(0.078,0.,0.0155));
#551=CARTESIAN_POINT('',(0.078,0.,0.0139));
#552=CARTESIAN_POINT('',(0.,-0.019,0.));
#553=CARTESIAN_POINT('',(0.0265,-0.011,0.));
#554=CARTESIAN_POINT('',(0.0265,-0.011,0.));
#555=CARTESIAN_POINT('',(0.,-0.011,0.));
#556=CARTESIAN_POINT('',(0.047,-0.011,-0.0155));
#557=CARTESIAN_POINT('',(0.047,-0.011,-0.01214));
#558=CARTESIAN_POINT('',(0.047,-0.011,0.0155));
#559=CARTESIAN_POINT('',(0.047,-0.011,0.01886));
#560=CARTESIAN_POINT('',(0.078,-0.011,-0.0155));
#561=CARTESIAN_POINT('',(0.078,-0.011,0.0155));
#562=CARTESIAN_POINT('',(0.047,-0.011,0.0155));
#563=CARTESIAN_POINT('',(0.047,-0.00924,0.0155));
#564=CARTESIAN_POINT('',(0.047,-0.00924,0.0171));
#565=CARTESIAN_POINT('',(0.047,-0.011,0.0155));
#566=CARTESIAN_POINT('',(0.047,-0.011,-0.0155));
#567=CARTESIAN_POINT('',(0.047,-0.00924,-0.0155));
#568=CARTESIAN_POINT('',(0.047,-0.00924,-0.0139));
#569=CARTESIAN_POINT('',(0.047,-0.011,-0.0155));
#570=CARTESIAN_POINT('',(0.078,-0.011,0.0155));
#571=CARTESIAN_POINT('',(0.078,-0.00924,0.0155));
#572=CARTESIAN_POINT('',(0.078,-0.00924,0.0171));
#573=CARTESIAN_POINT('',(0.078,-0.011,0.0155));
#574=CARTESIAN_POINT('',(0.078,-0.011,-0.0155));
#575=CARTESIAN_POINT('',(0.078,-0.00924,-0.0155));
#576=CARTESIAN_POINT('',(0.078,-0.00924,-0.0139));
#577=CARTESIAN_POINT('',(0.078,-0.011,-0.0155));
#578=MECHANICAL_DESIGN_GEOMETRIC_PRESENTATION_REPRESENTATION('',(#331),
#579);
#579=(
GEOMETRIC_REPRESENTATION_CONTEXT(3)
GLOBAL_UNCERTAINTY_ASSIGNED_CONTEXT((#580))
GLOBAL_UNIT_ASSIGNED_CONTEXT((#583,#582,#581))
REPRESENTATION_CONTEXT('Part 1','TOP_LEVEL_ASSEMBLY_PART')
);
#580=UNCERTAINTY_MEASURE_WITH_UNIT(LENGTH_MEASURE(2.E-5),#583,
'DISTANCE_ACCURACY_VALUE','Maximum Tolerance applied to model');
#581=(
NAMED_UNIT(*)
SI_UNIT($,.STERADIAN.)
SOLID_ANGLE_UNIT()
);
#582=(
NAMED_UNIT(*)
PLANE_ANGLE_UNIT()
SI_UNIT($,.RADIAN.)
);
#583=(
LENGTH_UNIT()
NAMED_UNIT(*)
SI_UNIT($,.METRE.)
);
#584=PRODUCT_DEFINITION_SHAPE('','',#585);
#585=PRODUCT_DEFINITION('','',#587,#586);
#586=PRODUCT_DEFINITION_CONTEXT('',#593,'design');
#587=PRODUCT_DEFINITION_FORMATION_WITH_SPECIFIED_SOURCE('','',#589,
 .NOT_KNOWN.);
#588=PRODUCT_RELATED_PRODUCT_CATEGORY('','',(#589));
#589=PRODUCT('Part 1','Part 1','Part 1',(#591));
#590=PRODUCT_CATEGORY('','');
#591=PRODUCT_CONTEXT('',#593,'mechanical');
#592=APPLICATION_PROTOCOL_DEFINITION('international standard',
'automotive_design',2010,#593);
#593=APPLICATION_CONTEXT(
'core data for automotive mechanical design processes');
ENDSEC;
END-ISO-10303-21;
