ISO-10303-21;
HEADER;
/* Generated by software containing ST-Developer
 * from STEP Tools, Inc. (www.steptools.com) 
 */
/* OPTION: using custom renumber hook */

FILE_DESCRIPTION(
/* description */ ('STEP AP214',
'CAx-IF Rec.Pracs.---User Defined Attributes---1.5---2016-08-15'),
/* implementation_level */ '2;1');

FILE_NAME(
/* name */ 'Base turn - Bearing 25x37x7mm',
/* time_stamp */ '2026-05-17T02:39:02Z',
/* author */ (''),
/* organization */ (''),
/* preprocessor_version */ 'ST-DEVELOPER v20',
/* originating_system */ 'ONSHAPE BY PTC INC, 1.215',
/* authorisation */ '  ');

FILE_SCHEMA (('AUTOMOTIVE_DESIGN {1 0 10303 214 3 1 1}'));
ENDSEC;

DATA;
#10=PROPERTY_DEFINITION_REPRESENTATION(#14,#12);
#11=PROPERTY_DEFINITION_REPRESENTATION(#15,#13);
#12=REPRESENTATION('',(#16),#365);
#13=REPRESENTATION('',(#17),#365);
#14=PROPERTY_DEFINITION('pmi validation property','',#370);
#15=PROPERTY_DEFINITION('pmi validation property','',#370);
#16=VALUE_REPRESENTATION_ITEM('number of annotations',COUNT_MEASURE(0.));
#17=VALUE_REPRESENTATION_ITEM('number of views',COUNT_MEASURE(0.));
#18=SHAPE_REPRESENTATION_RELATIONSHIP('','',#215,#19);
#19=ADVANCED_BREP_SHAPE_REPRESENTATION('',(#213),#365);
#20=CONICAL_SURFACE('',#245,0.0125,0.785398163397459);
#21=CONICAL_SURFACE('',#246,0.0127,0.785398163397459);
#22=CONICAL_SURFACE('',#247,0.0183,0.785398163397446);
#23=CONICAL_SURFACE('',#248,0.0185,0.785398163397446);
#24=OVER_RIDING_STYLED_ITEM('',(#200),#192,#198);
#25=CYLINDRICAL_SURFACE('',#223,0.0125);
#26=CYLINDRICAL_SURFACE('',#226,0.0185);
#27=CYLINDRICAL_SURFACE('',#235,0.014);
#28=CYLINDRICAL_SURFACE('',#237,0.017);
#29=CYLINDRICAL_SURFACE('',#240,0.014);
#30=CYLINDRICAL_SURFACE('',#242,0.017);
#31=ORIENTED_EDGE('',*,*,#63,.T.);
#32=ORIENTED_EDGE('',*,*,#64,.T.);
#33=ORIENTED_EDGE('',*,*,#65,.T.);
#34=ORIENTED_EDGE('',*,*,#66,.T.);
#35=ORIENTED_EDGE('',*,*,#67,.T.);
#36=ORIENTED_EDGE('',*,*,#68,.T.);
#37=ORIENTED_EDGE('',*,*,#69,.T.);
#38=ORIENTED_EDGE('',*,*,#70,.T.);
#39=ORIENTED_EDGE('',*,*,#71,.T.);
#40=ORIENTED_EDGE('',*,*,#72,.F.);
#41=ORIENTED_EDGE('',*,*,#73,.T.);
#42=ORIENTED_EDGE('',*,*,#74,.F.);
#43=ORIENTED_EDGE('',*,*,#75,.T.);
#44=ORIENTED_EDGE('',*,*,#66,.F.);
#45=ORIENTED_EDGE('',*,*,#76,.F.);
#46=ORIENTED_EDGE('',*,*,#72,.T.);
#47=ORIENTED_EDGE('',*,*,#75,.F.);
#48=ORIENTED_EDGE('',*,*,#76,.T.);
#49=ORIENTED_EDGE('',*,*,#77,.T.);
#50=ORIENTED_EDGE('',*,*,#64,.F.);
#51=ORIENTED_EDGE('',*,*,#78,.F.);
#52=ORIENTED_EDGE('',*,*,#74,.T.);
#53=ORIENTED_EDGE('',*,*,#77,.F.);
#54=ORIENTED_EDGE('',*,*,#78,.T.);
#55=ORIENTED_EDGE('',*,*,#65,.F.);
#56=ORIENTED_EDGE('',*,*,#67,.F.);
#57=ORIENTED_EDGE('',*,*,#68,.F.);
#58=ORIENTED_EDGE('',*,*,#63,.F.);
#59=ORIENTED_EDGE('',*,*,#69,.F.);
#60=ORIENTED_EDGE('',*,*,#71,.F.);
#61=ORIENTED_EDGE('',*,*,#73,.F.);
#62=ORIENTED_EDGE('',*,*,#70,.F.);
#63=EDGE_CURVE('',#79,#79,#95,.T.);
#64=EDGE_CURVE('',#80,#80,#96,.T.);
#65=EDGE_CURVE('',#81,#81,#97,.F.);
#66=EDGE_CURVE('',#82,#82,#98,.T.);
#67=EDGE_CURVE('',#83,#83,#99,.T.);
#68=EDGE_CURVE('',#84,#84,#100,.F.);
#69=EDGE_CURVE('',#85,#85,#101,.F.);
#70=EDGE_CURVE('',#86,#86,#102,.T.);
#71=EDGE_CURVE('',#87,#87,#103,.T.);
#72=EDGE_CURVE('',#88,#88,#104,.T.);
#73=EDGE_CURVE('',#89,#89,#105,.F.);
#74=EDGE_CURVE('',#90,#90,#106,.T.);
#75=EDGE_CURVE('',#91,#91,#107,.T.);
#76=EDGE_CURVE('',#92,#92,#108,.T.);
#77=EDGE_CURVE('',#93,#93,#109,.T.);
#78=EDGE_CURVE('',#94,#94,#110,.T.);
#79=VERTEX_POINT('',#318);
#80=VERTEX_POINT('',#320);
#81=VERTEX_POINT('',#323);
#82=VERTEX_POINT('',#325);
#83=VERTEX_POINT('',#328);
#84=VERTEX_POINT('',#330);
#85=VERTEX_POINT('',#333);
#86=VERTEX_POINT('',#335);
#87=VERTEX_POINT('',#338);
#88=VERTEX_POINT('',#340);
#89=VERTEX_POINT('',#343);
#90=VERTEX_POINT('',#345);
#91=VERTEX_POINT('',#348);
#92=VERTEX_POINT('',#351);
#93=VERTEX_POINT('',#355);
#94=VERTEX_POINT('',#358);
#95=CIRCLE('',#218,0.0127);
#96=CIRCLE('',#219,0.014);
#97=CIRCLE('',#221,0.0127);
#98=CIRCLE('',#222,0.014);
#99=CIRCLE('',#224,0.0125);
#100=CIRCLE('',#225,0.0125);
#101=CIRCLE('',#227,0.0185);
#102=CIRCLE('',#228,0.0185);
#103=CIRCLE('',#230,0.0183);
#104=CIRCLE('',#231,0.017);
#105=CIRCLE('',#233,0.0183);
#106=CIRCLE('',#234,0.017);
#107=CIRCLE('',#236,0.014);
#108=CIRCLE('',#238,0.017);
#109=CIRCLE('',#241,0.014);
#110=CIRCLE('',#243,0.017);
#111=EDGE_LOOP('',(#31));
#112=EDGE_LOOP('',(#32));
#113=EDGE_LOOP('',(#33));
#114=EDGE_LOOP('',(#34));
#115=EDGE_LOOP('',(#35));
#116=EDGE_LOOP('',(#36));
#117=EDGE_LOOP('',(#37));
#118=EDGE_LOOP('',(#38));
#119=EDGE_LOOP('',(#39));
#120=EDGE_LOOP('',(#40));
#121=EDGE_LOOP('',(#41));
#122=EDGE_LOOP('',(#42));
#123=EDGE_LOOP('',(#43));
#124=EDGE_LOOP('',(#44));
#125=EDGE_LOOP('',(#45));
#126=EDGE_LOOP('',(#46));
#127=EDGE_LOOP('',(#47));
#128=EDGE_LOOP('',(#48));
#129=EDGE_LOOP('',(#49));
#130=EDGE_LOOP('',(#50));
#131=EDGE_LOOP('',(#51));
#132=EDGE_LOOP('',(#52));
#133=EDGE_LOOP('',(#53));
#134=EDGE_LOOP('',(#54));
#135=EDGE_LOOP('',(#55));
#136=EDGE_LOOP('',(#56));
#137=EDGE_LOOP('',(#57));
#138=EDGE_LOOP('',(#58));
#139=EDGE_LOOP('',(#59));
#140=EDGE_LOOP('',(#60));
#141=EDGE_LOOP('',(#61));
#142=EDGE_LOOP('',(#62));
#143=FACE_BOUND('',#111,.T.);
#144=FACE_BOUND('',#112,.T.);
#145=FACE_BOUND('',#113,.T.);
#146=FACE_BOUND('',#114,.T.);
#147=FACE_BOUND('',#115,.T.);
#148=FACE_BOUND('',#116,.T.);
#149=FACE_BOUND('',#117,.T.);
#150=FACE_BOUND('',#118,.T.);
#151=FACE_BOUND('',#119,.T.);
#152=FACE_BOUND('',#120,.T.);
#153=FACE_BOUND('',#121,.T.);
#154=FACE_BOUND('',#122,.T.);
#155=FACE_BOUND('',#123,.T.);
#156=FACE_BOUND('',#124,.T.);
#157=FACE_BOUND('',#125,.T.);
#158=FACE_BOUND('',#126,.T.);
#159=FACE_BOUND('',#127,.T.);
#160=FACE_BOUND('',#128,.T.);
#161=FACE_BOUND('',#129,.T.);
#162=FACE_BOUND('',#130,.T.);
#163=FACE_BOUND('',#131,.T.);
#164=FACE_BOUND('',#132,.T.);
#165=FACE_BOUND('',#133,.T.);
#166=FACE_BOUND('',#134,.T.);
#167=FACE_BOUND('',#135,.T.);
#168=FACE_BOUND('',#136,.T.);
#169=FACE_BOUND('',#137,.T.);
#170=FACE_BOUND('',#138,.T.);
#171=FACE_BOUND('',#139,.T.);
#172=FACE_BOUND('',#140,.T.);
#173=FACE_BOUND('',#141,.T.);
#174=FACE_BOUND('',#142,.T.);
#175=PLANE('',#217);
#176=PLANE('',#220);
#177=PLANE('',#229);
#178=PLANE('',#232);
#179=PLANE('',#239);
#180=PLANE('',#244);
#181=ADVANCED_FACE('',(#143,#144),#175,.F.);
#182=ADVANCED_FACE('',(#145,#146),#176,.T.);
#183=ADVANCED_FACE('',(#147,#148),#25,.F.);
#184=ADVANCED_FACE('',(#149,#150),#26,.T.);
#185=ADVANCED_FACE('',(#151,#152),#177,.T.);
#186=ADVANCED_FACE('',(#153,#154),#178,.F.);
#187=ADVANCED_FACE('',(#155,#156),#27,.T.);
#188=ADVANCED_FACE('',(#157,#158),#28,.F.);
#189=ADVANCED_FACE('',(#159,#160),#179,.T.);
#190=ADVANCED_FACE('',(#161,#162),#29,.T.);
#191=ADVANCED_FACE('',(#163,#164),#30,.F.);
#192=ADVANCED_FACE('',(#165,#166),#180,.T.);
#193=ADVANCED_FACE('',(#167,#168),#20,.F.);
#194=ADVANCED_FACE('',(#169,#170),#21,.F.);
#195=ADVANCED_FACE('',(#171,#172),#22,.T.);
#196=ADVANCED_FACE('',(#173,#174),#23,.T.);
#197=CLOSED_SHELL('',(#181,#182,#183,#184,#185,#186,#187,#188,#189,#190,
#191,#192,#193,#194,#195,#196));
#198=STYLED_ITEM('',(#199),#213);
#199=PRESENTATION_STYLE_ASSIGNMENT((#201));
#200=PRESENTATION_STYLE_ASSIGNMENT((#202));
#201=SURFACE_STYLE_USAGE(.BOTH.,#203);
#202=SURFACE_STYLE_USAGE(.BOTH.,#204);
#203=SURFACE_SIDE_STYLE('',(#205));
#204=SURFACE_SIDE_STYLE('',(#206));
#205=SURFACE_STYLE_FILL_AREA(#207);
#206=SURFACE_STYLE_FILL_AREA(#208);
#207=FILL_AREA_STYLE('',(#209));
#208=FILL_AREA_STYLE('',(#210));
#209=FILL_AREA_STYLE_COLOUR('',#211);
#210=FILL_AREA_STYLE_COLOUR('',#212);
#211=COLOUR_RGB('',0.615686274509804,0.811764705882353,0.929411764705882);
#212=COLOUR_RGB('',0.501960784313726,0.501960784313726,0.501960784313726);
#213=MANIFOLD_SOLID_BREP('Bearing 25x37x7mm',#197);
#214=SHAPE_DEFINITION_REPRESENTATION(#370,#215);
#215=SHAPE_REPRESENTATION('Bearing 25x37x7mm',(#216),#365);
#216=AXIS2_PLACEMENT_3D('',#315,#249,#250);
#217=AXIS2_PLACEMENT_3D('',#316,#251,#252);
#218=AXIS2_PLACEMENT_3D('',#317,#253,#254);
#219=AXIS2_PLACEMENT_3D('',#319,#255,#256);
#220=AXIS2_PLACEMENT_3D('',#321,#257,#258);
#221=AXIS2_PLACEMENT_3D('',#322,#259,#260);
#222=AXIS2_PLACEMENT_3D('',#324,#261,#262);
#223=AXIS2_PLACEMENT_3D('',#326,#263,#264);
#224=AXIS2_PLACEMENT_3D('',#327,#265,#266);
#225=AXIS2_PLACEMENT_3D('',#329,#267,#268);
#226=AXIS2_PLACEMENT_3D('',#331,#269,#270);
#227=AXIS2_PLACEMENT_3D('',#332,#271,#272);
#228=AXIS2_PLACEMENT_3D('',#334,#273,#274);
#229=AXIS2_PLACEMENT_3D('',#336,#275,#276);
#230=AXIS2_PLACEMENT_3D('',#337,#277,#278);
#231=AXIS2_PLACEMENT_3D('',#339,#279,#280);
#232=AXIS2_PLACEMENT_3D('',#341,#281,#282);
#233=AXIS2_PLACEMENT_3D('',#342,#283,#284);
#234=AXIS2_PLACEMENT_3D('',#344,#285,#286);
#235=AXIS2_PLACEMENT_3D('',#346,#287,#288);
#236=AXIS2_PLACEMENT_3D('',#347,#289,#290);
#237=AXIS2_PLACEMENT_3D('',#349,#291,#292);
#238=AXIS2_PLACEMENT_3D('',#350,#293,#294);
#239=AXIS2_PLACEMENT_3D('',#352,#295,#296);
#240=AXIS2_PLACEMENT_3D('',#353,#297,#298);
#241=AXIS2_PLACEMENT_3D('',#354,#299,#300);
#242=AXIS2_PLACEMENT_3D('',#356,#301,#302);
#243=AXIS2_PLACEMENT_3D('',#357,#303,#304);
#244=AXIS2_PLACEMENT_3D('',#359,#305,#306);
#245=AXIS2_PLACEMENT_3D('',#360,#307,#308);
#246=AXIS2_PLACEMENT_3D('',#361,#309,#310);
#247=AXIS2_PLACEMENT_3D('',#362,#311,#312);
#248=AXIS2_PLACEMENT_3D('',#363,#313,#314);
#249=DIRECTION('',(0.,0.,1.));
#250=DIRECTION('',(1.,0.,0.));
#251=DIRECTION('',(0.,0.,1.));
#252=DIRECTION('',(1.,0.,0.));
#253=DIRECTION('',(0.,0.,1.));
#254=DIRECTION('',(1.,0.,0.));
#255=DIRECTION('',(0.,0.,-1.));
#256=DIRECTION('',(-1.,0.,0.));
#257=DIRECTION('',(0.,0.,1.));
#258=DIRECTION('',(1.,0.,0.));
#259=DIRECTION('',(0.,0.,1.));
#260=DIRECTION('',(1.,0.,0.));
#261=DIRECTION('',(0.,0.,1.));
#262=DIRECTION('',(1.,0.,0.));
#263=DIRECTION('',(0.,0.,-1.));
#264=DIRECTION('',(-1.,0.,0.));
#265=DIRECTION('',(0.,0.,1.));
#266=DIRECTION('',(1.,0.,0.));
#267=DIRECTION('',(0.,0.,1.));
#268=DIRECTION('',(1.,0.,0.));
#269=DIRECTION('',(0.,0.,-1.));
#270=DIRECTION('',(-1.,0.,0.));
#271=DIRECTION('',(0.,0.,1.));
#272=DIRECTION('',(1.,0.,0.));
#273=DIRECTION('',(0.,0.,1.));
#274=DIRECTION('',(1.,0.,0.));
#275=DIRECTION('',(0.,0.,1.));
#276=DIRECTION('',(1.,0.,0.));
#277=DIRECTION('',(0.,0.,1.));
#278=DIRECTION('',(1.,0.,0.));
#279=DIRECTION('',(0.,0.,1.));
#280=DIRECTION('',(1.,0.,0.));
#281=DIRECTION('',(0.,0.,1.));
#282=DIRECTION('',(1.,0.,0.));
#283=DIRECTION('',(0.,0.,1.));
#284=DIRECTION('',(1.,0.,0.));
#285=DIRECTION('',(0.,0.,-1.));
#286=DIRECTION('',(-1.,0.,0.));
#287=DIRECTION('',(0.,0.,1.));
#288=DIRECTION('',(1.,0.,0.));
#289=DIRECTION('',(0.,0.,1.));
#290=DIRECTION('',(1.,0.,0.));
#291=DIRECTION('',(0.,0.,1.));
#292=DIRECTION('',(1.,0.,0.));
#293=DIRECTION('',(0.,0.,1.));
#294=DIRECTION('',(1.,0.,0.));
#295=DIRECTION('',(0.,0.,1.));
#296=DIRECTION('',(1.,0.,0.));
#297=DIRECTION('',(0.,0.,-1.));
#298=DIRECTION('',(-1.,0.,0.));
#299=DIRECTION('',(0.,0.,-1.));
#300=DIRECTION('',(-1.,0.,0.));
#301=DIRECTION('',(0.,0.,-1.));
#302=DIRECTION('',(-1.,0.,0.));
#303=DIRECTION('',(0.,0.,-1.));
#304=DIRECTION('',(-1.,0.,0.));
#305=DIRECTION('',(0.,0.,-1.));
#306=DIRECTION('',(1.,0.,0.));
#307=DIRECTION('',(0.,0.,1.));
#308=DIRECTION('',(1.,0.,0.));
#309=DIRECTION('',(0.,0.,-1.));
#310=DIRECTION('',(-1.,0.,0.));
#311=DIRECTION('',(0.,0.,-1.));
#312=DIRECTION('',(-1.,0.,0.));
#313=DIRECTION('',(0.,0.,1.));
#314=DIRECTION('',(1.,0.,0.));
#315=CARTESIAN_POINT('',(0.,0.,0.));
#316=CARTESIAN_POINT('',(-0.0289805214852095,0.0104269925504923,0.));
#317=CARTESIAN_POINT('',(-0.0289805214852095,0.0104269925504923,0.));
#318=CARTESIAN_POINT('',(-0.0162805214852095,0.0104269925504923,0.));
#319=CARTESIAN_POINT('',(-0.0289805214852095,0.0104269925504923,0.));
#320=CARTESIAN_POINT('',(-0.0429805214852094,0.0104269925504923,0.));
#321=CARTESIAN_POINT('',(-0.0289805214852095,0.0104269925504923,0.007));
#322=CARTESIAN_POINT('',(-0.0289805214852095,0.0104269925504923,0.007));
#323=CARTESIAN_POINT('',(-0.0162805214852095,0.0104269925504923,0.007));
#324=CARTESIAN_POINT('',(-0.0289805214852095,0.0104269925504923,0.007));
#325=CARTESIAN_POINT('',(-0.0149805214852095,0.0104269925504923,0.007));
#326=CARTESIAN_POINT('',(-0.0289805214852095,0.0104269925504923,0.007));
#327=CARTESIAN_POINT('',(-0.0289805214852095,0.0104269925504923,0.0068));
#328=CARTESIAN_POINT('',(-0.0164805214852095,0.0104269925504923,0.0068));
#329=CARTESIAN_POINT('',(-0.0289805214852095,0.0104269925504923,0.0002));
#330=CARTESIAN_POINT('',(-0.0164805214852095,0.0104269925504923,0.0002));
#331=CARTESIAN_POINT('',(-0.0289805214852095,0.0104269925504923,0.007));
#332=CARTESIAN_POINT('',(-0.0289805214852095,0.0104269925504923,0.0068));
#333=CARTESIAN_POINT('',(-0.0104805214852095,0.0104269925504923,0.0068));
#334=CARTESIAN_POINT('',(-0.0289805214852095,0.0104269925504923,0.0002));
#335=CARTESIAN_POINT('',(-0.0104805214852095,0.0104269925504923,0.0002));
#336=CARTESIAN_POINT('',(-0.0289805214852095,0.0104269925504923,0.007));
#337=CARTESIAN_POINT('',(-0.0289805214852095,0.0104269925504923,0.007));
#338=CARTESIAN_POINT('',(-0.0106805214852095,0.0104269925504923,0.007));
#339=CARTESIAN_POINT('',(-0.0289805214852095,0.0104269925504923,0.007));
#340=CARTESIAN_POINT('',(-0.0119805214852094,0.0104269925504923,0.007));
#341=CARTESIAN_POINT('',(-0.0289805214852095,0.0104269925504923,0.));
#342=CARTESIAN_POINT('',(-0.0289805214852095,0.0104269925504923,0.));
#343=CARTESIAN_POINT('',(-0.0106805214852095,0.0104269925504923,0.));
#344=CARTESIAN_POINT('',(-0.0289805214852095,0.0104269925504923,0.));
#345=CARTESIAN_POINT('',(-0.0459805214852095,0.0104269925504923,0.));
#346=CARTESIAN_POINT('',(-0.0289805214852095,0.0104269925504923,0.0068));
#347=CARTESIAN_POINT('',(-0.0289805214852095,0.0104269925504923,0.0068));
#348=CARTESIAN_POINT('',(-0.0149805214852095,0.0104269925504923,0.0068));
#349=CARTESIAN_POINT('',(-0.0289805214852095,0.0104269925504923,0.0068));
#350=CARTESIAN_POINT('',(-0.0289805214852095,0.0104269925504923,0.0068));
#351=CARTESIAN_POINT('',(-0.0119805214852094,0.0104269925504923,0.0068));
#352=CARTESIAN_POINT('',(-0.0289805214852095,0.0104269925504923,0.0068));
#353=CARTESIAN_POINT('',(-0.0289805214852095,0.0104269925504923,0.0002));
#354=CARTESIAN_POINT('',(-0.0289805214852095,0.0104269925504923,0.0002));
#355=CARTESIAN_POINT('',(-0.0429805214852094,0.0104269925504923,0.0002));
#356=CARTESIAN_POINT('',(-0.0289805214852095,0.0104269925504923,0.0002));
#357=CARTESIAN_POINT('',(-0.0289805214852095,0.0104269925504923,0.0002));
#358=CARTESIAN_POINT('',(-0.0459805214852095,0.0104269925504923,0.0002));
#359=CARTESIAN_POINT('',(-0.0289805214852095,0.0104269925504923,0.0002));
#360=CARTESIAN_POINT('',(-0.0289805214852095,0.0104269925504923,0.0068));
#361=CARTESIAN_POINT('',(-0.0289805214852095,0.0104269925504923,0.));
#362=CARTESIAN_POINT('',(-0.0289805214852095,0.0104269925504923,0.007));
#363=CARTESIAN_POINT('',(-0.0289805214852095,0.0104269925504923,0.0002));
#364=MECHANICAL_DESIGN_GEOMETRIC_PRESENTATION_REPRESENTATION('',(#198,#24),
#365);
#365=(
GEOMETRIC_REPRESENTATION_CONTEXT(3)
GLOBAL_UNCERTAINTY_ASSIGNED_CONTEXT((#366))
GLOBAL_UNIT_ASSIGNED_CONTEXT((#369,#368,#367))
REPRESENTATION_CONTEXT('Bearing 25x37x7mm','TOP_LEVEL_ASSEMBLY_PART')
);
#366=UNCERTAINTY_MEASURE_WITH_UNIT(LENGTH_MEASURE(1.E-8),#369,
'DISTANCE_ACCURACY_VALUE','Maximum Tolerance applied to model');
#367=(
NAMED_UNIT(*)
SI_UNIT($,.STERADIAN.)
SOLID_ANGLE_UNIT()
);
#368=(
NAMED_UNIT(*)
PLANE_ANGLE_UNIT()
SI_UNIT($,.RADIAN.)
);
#369=(
LENGTH_UNIT()
NAMED_UNIT(*)
SI_UNIT($,.METRE.)
);
#370=PRODUCT_DEFINITION_SHAPE('','',#371);
#371=PRODUCT_DEFINITION('','',#373,#372);
#372=PRODUCT_DEFINITION_CONTEXT('',#379,'design');
#373=PRODUCT_DEFINITION_FORMATION_WITH_SPECIFIED_SOURCE('','',#375,
 .NOT_KNOWN.);
#374=PRODUCT_RELATED_PRODUCT_CATEGORY('','',(#375));
#375=PRODUCT('Bearing 25x37x7mm','Bearing 25x37x7mm',
'Bearing 25x37x7mm',(#377));
#376=PRODUCT_CATEGORY('','');
#377=PRODUCT_CONTEXT('',#379,'mechanical');
#378=APPLICATION_PROTOCOL_DEFINITION('international standard',
'automotive_design',2010,#379);
#379=APPLICATION_CONTEXT(
'core data for automotive mechanical design processes');
ENDSEC;
END-ISO-10303-21;
