ISO-10303-21;
HEADER;
/* Generated by software containing ST-Developer
 * from STEP Tools, Inc. (www.steptools.com) 
 */
/* OPTION: using custom renumber hook */

FILE_DESCRIPTION(
/* description */ ('STEP AP214',
'CAx-IF Rec.Pracs.---User Defined Attributes---1.5---2016-08-15'),
/* implementation_level */ '2;1');

FILE_NAME(
/* name */ 'Base turn - Part 3',
/* time_stamp */ '2026-05-17T02:39:04Z',
/* author */ (''),
/* organization */ (''),
/* preprocessor_version */ 'ST-DEVELOPER v20',
/* originating_system */ 'ONSHAPE BY PTC INC, 1.215',
/* authorisation */ '  ');

FILE_SCHEMA (('AUTOMOTIVE_DESIGN {1 0 10303 214 3 1 1}'));
ENDSEC;

DATA;
#10=PROPERTY_DEFINITION_REPRESENTATION(#14,#12);
#11=PROPERTY_DEFINITION_REPRESENTATION(#15,#13);
#12=REPRESENTATION('',(#16),#535);
#13=REPRESENTATION('',(#17),#535);
#14=PROPERTY_DEFINITION('pmi validation property','',#540);
#15=PROPERTY_DEFINITION('pmi validation property','',#540);
#16=VALUE_REPRESENTATION_ITEM('number of annotations',COUNT_MEASURE(0.));
#17=VALUE_REPRESENTATION_ITEM('number of views',COUNT_MEASURE(0.));
#18=SHAPE_REPRESENTATION_RELATIONSHIP('','',#329,#19);
#19=ADVANCED_BREP_SHAPE_REPRESENTATION('',(#327),#535);
#20=CONICAL_SURFACE('',#354,0.00336,0.785398163397448);
#21=CONICAL_SURFACE('',#357,0.00336,0.785398163397448);
#22=CONICAL_SURFACE('',#360,0.00336,0.785398163397448);
#23=CONICAL_SURFACE('',#363,0.00336,0.785398163397448);
#24=CIRCLE('',#336,0.005);
#25=CIRCLE('',#337,0.005);
#26=CIRCLE('',#339,0.005);
#27=CIRCLE('',#340,0.0016);
#28=CIRCLE('',#341,0.0016);
#29=CIRCLE('',#342,0.0016);
#30=CIRCLE('',#343,0.0016);
#31=CIRCLE('',#346,0.005);
#32=CIRCLE('',#347,0.00336);
#33=CIRCLE('',#348,0.00336);
#34=CIRCLE('',#349,0.00336);
#35=CIRCLE('',#350,0.00336);
#36=CIRCLE('',#353,0.0016);
#37=CIRCLE('',#356,0.0016);
#38=CIRCLE('',#359,0.0016);
#39=CIRCLE('',#362,0.0016);
#40=CYLINDRICAL_SURFACE('',#335,0.005);
#41=CYLINDRICAL_SURFACE('',#352,0.0016);
#42=CYLINDRICAL_SURFACE('',#355,0.0016);
#43=CYLINDRICAL_SURFACE('',#358,0.0016);
#44=CYLINDRICAL_SURFACE('',#361,0.0016);
#45=CYLINDRICAL_SURFACE('',#364,0.005);
#46=ORIENTED_EDGE('',*,*,#114,.F.);
#47=ORIENTED_EDGE('',*,*,#115,.T.);
#48=ORIENTED_EDGE('',*,*,#116,.T.);
#49=ORIENTED_EDGE('',*,*,#117,.F.);
#50=ORIENTED_EDGE('',*,*,#118,.F.);
#51=ORIENTED_EDGE('',*,*,#119,.F.);
#52=ORIENTED_EDGE('',*,*,#115,.F.);
#53=ORIENTED_EDGE('',*,*,#120,.T.);
#54=ORIENTED_EDGE('',*,*,#121,.T.);
#55=ORIENTED_EDGE('',*,*,#122,.F.);
#56=ORIENTED_EDGE('',*,*,#123,.T.);
#57=ORIENTED_EDGE('',*,*,#124,.T.);
#58=ORIENTED_EDGE('',*,*,#125,.T.);
#59=ORIENTED_EDGE('',*,*,#126,.T.);
#60=ORIENTED_EDGE('',*,*,#127,.F.);
#61=ORIENTED_EDGE('',*,*,#121,.F.);
#62=ORIENTED_EDGE('',*,*,#128,.F.);
#63=ORIENTED_EDGE('',*,*,#118,.T.);
#64=ORIENTED_EDGE('',*,*,#129,.T.);
#65=ORIENTED_EDGE('',*,*,#125,.F.);
#66=ORIENTED_EDGE('',*,*,#130,.T.);
#67=ORIENTED_EDGE('',*,*,#131,.F.);
#68=ORIENTED_EDGE('',*,*,#132,.F.);
#69=ORIENTED_EDGE('',*,*,#133,.F.);
#70=ORIENTED_EDGE('',*,*,#134,.F.);
#71=ORIENTED_EDGE('',*,*,#135,.F.);
#72=ORIENTED_EDGE('',*,*,#136,.F.);
#73=ORIENTED_EDGE('',*,*,#137,.T.);
#74=ORIENTED_EDGE('',*,*,#126,.F.);
#75=ORIENTED_EDGE('',*,*,#129,.F.);
#76=ORIENTED_EDGE('',*,*,#117,.T.);
#77=ORIENTED_EDGE('',*,*,#116,.F.);
#78=ORIENTED_EDGE('',*,*,#122,.T.);
#79=ORIENTED_EDGE('',*,*,#127,.T.);
#80=ORIENTED_EDGE('',*,*,#137,.F.);
#81=ORIENTED_EDGE('',*,*,#130,.F.);
#82=ORIENTED_EDGE('',*,*,#138,.T.);
#83=ORIENTED_EDGE('',*,*,#139,.T.);
#84=ORIENTED_EDGE('',*,*,#140,.T.);
#85=ORIENTED_EDGE('',*,*,#141,.T.);
#86=ORIENTED_EDGE('',*,*,#142,.T.);
#87=ORIENTED_EDGE('',*,*,#128,.T.);
#88=ORIENTED_EDGE('',*,*,#124,.F.);
#89=ORIENTED_EDGE('',*,*,#143,.F.);
#90=ORIENTED_EDGE('',*,*,#119,.T.);
#91=ORIENTED_EDGE('',*,*,#131,.T.);
#92=ORIENTED_EDGE('',*,*,#114,.T.);
#93=ORIENTED_EDGE('',*,*,#143,.T.);
#94=ORIENTED_EDGE('',*,*,#123,.F.);
#95=ORIENTED_EDGE('',*,*,#120,.F.);
#96=ORIENTED_EDGE('',*,*,#144,.F.);
#97=ORIENTED_EDGE('',*,*,#136,.T.);
#98=ORIENTED_EDGE('',*,*,#144,.T.);
#99=ORIENTED_EDGE('',*,*,#142,.F.);
#100=ORIENTED_EDGE('',*,*,#145,.F.);
#101=ORIENTED_EDGE('',*,*,#135,.T.);
#102=ORIENTED_EDGE('',*,*,#145,.T.);
#103=ORIENTED_EDGE('',*,*,#141,.F.);
#104=ORIENTED_EDGE('',*,*,#146,.F.);
#105=ORIENTED_EDGE('',*,*,#134,.T.);
#106=ORIENTED_EDGE('',*,*,#146,.T.);
#107=ORIENTED_EDGE('',*,*,#140,.F.);
#108=ORIENTED_EDGE('',*,*,#147,.F.);
#109=ORIENTED_EDGE('',*,*,#133,.T.);
#110=ORIENTED_EDGE('',*,*,#147,.T.);
#111=ORIENTED_EDGE('',*,*,#139,.F.);
#112=ORIENTED_EDGE('',*,*,#132,.T.);
#113=ORIENTED_EDGE('',*,*,#138,.F.);
#114=EDGE_CURVE('',#148,#149,#176,.T.);
#115=EDGE_CURVE('',#148,#150,#177,.T.);
#116=EDGE_CURVE('',#150,#151,#178,.T.);
#117=EDGE_CURVE('',#152,#151,#179,.T.);
#118=EDGE_CURVE('',#153,#152,#180,.T.);
#119=EDGE_CURVE('',#149,#153,#181,.T.);
#120=EDGE_CURVE('',#148,#154,#182,.T.);
#121=EDGE_CURVE('',#154,#155,#183,.T.);
#122=EDGE_CURVE('',#150,#155,#184,.T.);
#123=EDGE_CURVE('',#154,#156,#185,.T.);
#124=EDGE_CURVE('',#156,#157,#186,.T.);
#125=EDGE_CURVE('',#157,#158,#187,.T.);
#126=EDGE_CURVE('',#158,#159,#188,.T.);
#127=EDGE_CURVE('',#155,#159,#189,.T.);
#128=EDGE_CURVE('',#153,#157,#190,.T.);
#129=EDGE_CURVE('',#152,#158,#191,.T.);
#130=EDGE_CURVE('',#160,#160,#24,.T.);
#131=EDGE_CURVE('',#161,#161,#25,.T.);
#132=EDGE_CURVE('',#162,#162,#26,.T.);
#133=EDGE_CURVE('',#163,#163,#27,.F.);
#134=EDGE_CURVE('',#164,#164,#28,.F.);
#135=EDGE_CURVE('',#165,#165,#29,.F.);
#136=EDGE_CURVE('',#166,#166,#30,.F.);
#137=EDGE_CURVE('',#151,#159,#192,.T.);
#138=EDGE_CURVE('',#167,#167,#31,.T.);
#139=EDGE_CURVE('',#168,#168,#32,.T.);
#140=EDGE_CURVE('',#169,#169,#33,.T.);
#141=EDGE_CURVE('',#170,#170,#34,.T.);
#142=EDGE_CURVE('',#171,#171,#35,.T.);
#143=EDGE_CURVE('',#149,#156,#193,.T.);
#144=EDGE_CURVE('',#172,#172,#36,.T.);
#145=EDGE_CURVE('',#173,#173,#37,.T.);
#146=EDGE_CURVE('',#174,#174,#38,.T.);
#147=EDGE_CURVE('',#175,#175,#39,.T.);
#148=VERTEX_POINT('',#456);
#149=VERTEX_POINT('',#457);
#150=VERTEX_POINT('',#459);
#151=VERTEX_POINT('',#461);
#152=VERTEX_POINT('',#463);
#153=VERTEX_POINT('',#465);
#154=VERTEX_POINT('',#469);
#155=VERTEX_POINT('',#471);
#156=VERTEX_POINT('',#475);
#157=VERTEX_POINT('',#477);
#158=VERTEX_POINT('',#479);
#159=VERTEX_POINT('',#481);
#160=VERTEX_POINT('',#488);
#161=VERTEX_POINT('',#490);
#162=VERTEX_POINT('',#493);
#163=VERTEX_POINT('',#495);
#164=VERTEX_POINT('',#497);
#165=VERTEX_POINT('',#499);
#166=VERTEX_POINT('',#501);
#167=VERTEX_POINT('',#506);
#168=VERTEX_POINT('',#508);
#169=VERTEX_POINT('',#510);
#170=VERTEX_POINT('',#512);
#171=VERTEX_POINT('',#514);
#172=VERTEX_POINT('',#519);
#173=VERTEX_POINT('',#523);
#174=VERTEX_POINT('',#527);
#175=VERTEX_POINT('',#531);
#176=LINE('',#455,#194);
#177=LINE('',#458,#195);
#178=LINE('',#460,#196);
#179=LINE('',#462,#197);
#180=LINE('',#464,#198);
#181=LINE('',#466,#199);
#182=LINE('',#468,#200);
#183=LINE('',#470,#201);
#184=LINE('',#472,#202);
#185=LINE('',#474,#203);
#186=LINE('',#476,#204);
#187=LINE('',#478,#205);
#188=LINE('',#480,#206);
#189=LINE('',#482,#207);
#190=LINE('',#484,#208);
#191=LINE('',#485,#209);
#192=LINE('',#502,#210);
#193=LINE('',#515,#211);
#194=VECTOR('',#369,1.);
#195=VECTOR('',#370,1.);
#196=VECTOR('',#371,1.);
#197=VECTOR('',#372,1.);
#198=VECTOR('',#373,1.);
#199=VECTOR('',#374,1.);
#200=VECTOR('',#377,1.);
#201=VECTOR('',#378,1.);
#202=VECTOR('',#379,1.);
#203=VECTOR('',#382,1.);
#204=VECTOR('',#383,1.);
#205=VECTOR('',#384,1.);
#206=VECTOR('',#385,1.);
#207=VECTOR('',#386,1.);
#208=VECTOR('',#389,1.);
#209=VECTOR('',#390,1.);
#210=VECTOR('',#409,1.);
#211=VECTOR('',#424,1.);
#212=EDGE_LOOP('',(#46,#47,#48,#49,#50,#51));
#213=EDGE_LOOP('',(#52,#53,#54,#55));
#214=EDGE_LOOP('',(#56,#57,#58,#59,#60,#61));
#215=EDGE_LOOP('',(#62,#63,#64,#65));
#216=EDGE_LOOP('',(#66));
#217=EDGE_LOOP('',(#67));
#218=EDGE_LOOP('',(#68));
#219=EDGE_LOOP('',(#69));
#220=EDGE_LOOP('',(#70));
#221=EDGE_LOOP('',(#71));
#222=EDGE_LOOP('',(#72));
#223=EDGE_LOOP('',(#73,#74,#75,#76));
#224=EDGE_LOOP('',(#77,#78,#79,#80));
#225=EDGE_LOOP('',(#81));
#226=EDGE_LOOP('',(#82));
#227=EDGE_LOOP('',(#83));
#228=EDGE_LOOP('',(#84));
#229=EDGE_LOOP('',(#85));
#230=EDGE_LOOP('',(#86));
#231=EDGE_LOOP('',(#87,#88,#89,#90));
#232=EDGE_LOOP('',(#91));
#233=EDGE_LOOP('',(#92,#93,#94,#95));
#234=EDGE_LOOP('',(#96));
#235=EDGE_LOOP('',(#97));
#236=EDGE_LOOP('',(#98));
#237=EDGE_LOOP('',(#99));
#238=EDGE_LOOP('',(#100));
#239=EDGE_LOOP('',(#101));
#240=EDGE_LOOP('',(#102));
#241=EDGE_LOOP('',(#103));
#242=EDGE_LOOP('',(#104));
#243=EDGE_LOOP('',(#105));
#244=EDGE_LOOP('',(#106));
#245=EDGE_LOOP('',(#107));
#246=EDGE_LOOP('',(#108));
#247=EDGE_LOOP('',(#109));
#248=EDGE_LOOP('',(#110));
#249=EDGE_LOOP('',(#111));
#250=EDGE_LOOP('',(#112));
#251=EDGE_LOOP('',(#113));
#252=FACE_BOUND('',#212,.T.);
#253=FACE_BOUND('',#213,.T.);
#254=FACE_BOUND('',#214,.T.);
#255=FACE_BOUND('',#215,.T.);
#256=FACE_BOUND('',#216,.T.);
#257=FACE_BOUND('',#217,.T.);
#258=FACE_BOUND('',#218,.T.);
#259=FACE_BOUND('',#219,.T.);
#260=FACE_BOUND('',#220,.T.);
#261=FACE_BOUND('',#221,.T.);
#262=FACE_BOUND('',#222,.T.);
#263=FACE_BOUND('',#223,.T.);
#264=FACE_BOUND('',#224,.T.);
#265=FACE_BOUND('',#225,.T.);
#266=FACE_BOUND('',#226,.T.);
#267=FACE_BOUND('',#227,.T.);
#268=FACE_BOUND('',#228,.T.);
#269=FACE_BOUND('',#229,.T.);
#270=FACE_BOUND('',#230,.T.);
#271=FACE_BOUND('',#231,.T.);
#272=FACE_BOUND('',#232,.T.);
#273=FACE_BOUND('',#233,.T.);
#274=FACE_BOUND('',#234,.T.);
#275=FACE_BOUND('',#235,.T.);
#276=FACE_BOUND('',#236,.T.);
#277=FACE_BOUND('',#237,.T.);
#278=FACE_BOUND('',#238,.T.);
#279=FACE_BOUND('',#239,.T.);
#280=FACE_BOUND('',#240,.T.);
#281=FACE_BOUND('',#241,.T.);
#282=FACE_BOUND('',#242,.T.);
#283=FACE_BOUND('',#243,.T.);
#284=FACE_BOUND('',#244,.T.);
#285=FACE_BOUND('',#245,.T.);
#286=FACE_BOUND('',#246,.T.);
#287=FACE_BOUND('',#247,.T.);
#288=FACE_BOUND('',#248,.T.);
#289=FACE_BOUND('',#249,.T.);
#290=FACE_BOUND('',#250,.T.);
#291=FACE_BOUND('',#251,.T.);
#292=PLANE('',#331);
#293=PLANE('',#332);
#294=PLANE('',#333);
#295=PLANE('',#334);
#296=PLANE('',#338);
#297=PLANE('',#344);
#298=PLANE('',#345);
#299=PLANE('',#351);
#300=ADVANCED_FACE('',(#252),#292,.F.);
#301=ADVANCED_FACE('',(#253),#293,.T.);
#302=ADVANCED_FACE('',(#254),#294,.T.);
#303=ADVANCED_FACE('',(#255),#295,.F.);
#304=ADVANCED_FACE('',(#256,#257),#40,.F.);
#305=ADVANCED_FACE('',(#258,#259,#260,#261,#262,#263),#296,.F.);
#306=ADVANCED_FACE('',(#264,#265),#297,.T.);
#307=ADVANCED_FACE('',(#266,#267,#268,#269,#270,#271),#298,.F.);
#308=ADVANCED_FACE('',(#272,#273),#299,.T.);
#309=ADVANCED_FACE('',(#274,#275),#41,.F.);
#310=ADVANCED_FACE('',(#276,#277),#20,.F.);
#311=ADVANCED_FACE('',(#278,#279),#42,.F.);
#312=ADVANCED_FACE('',(#280,#281),#21,.F.);
#313=ADVANCED_FACE('',(#282,#283),#43,.F.);
#314=ADVANCED_FACE('',(#284,#285),#22,.F.);
#315=ADVANCED_FACE('',(#286,#287),#44,.F.);
#316=ADVANCED_FACE('',(#288,#289),#23,.F.);
#317=ADVANCED_FACE('',(#290,#291),#45,.F.);
#318=CLOSED_SHELL('',(#300,#301,#302,#303,#304,#305,#306,#307,#308,#309,
#310,#311,#312,#313,#314,#315,#316,#317));
#319=STYLED_ITEM('',(#320),#327);
#320=PRESENTATION_STYLE_ASSIGNMENT((#321));
#321=SURFACE_STYLE_USAGE(.BOTH.,#322);
#322=SURFACE_SIDE_STYLE('',(#323));
#323=SURFACE_STYLE_FILL_AREA(#324);
#324=FILL_AREA_STYLE('',(#325));
#325=FILL_AREA_STYLE_COLOUR('',#326);
#326=COLOUR_RGB('',0.231372549019608,0.380392156862745,0.705882352941177);
#327=MANIFOLD_SOLID_BREP('Part 3',#318);
#328=SHAPE_DEFINITION_REPRESENTATION(#540,#329);
#329=SHAPE_REPRESENTATION('Part 3',(#330),#535);
#330=AXIS2_PLACEMENT_3D('',#453,#365,#366);
#331=AXIS2_PLACEMENT_3D('',#454,#367,#368);
#332=AXIS2_PLACEMENT_3D('',#467,#375,#376);
#333=AXIS2_PLACEMENT_3D('',#473,#380,#381);
#334=AXIS2_PLACEMENT_3D('',#483,#387,#388);
#335=AXIS2_PLACEMENT_3D('',#486,#391,#392);
#336=AXIS2_PLACEMENT_3D('',#487,#393,#394);
#337=AXIS2_PLACEMENT_3D('',#489,#395,#396);
#338=AXIS2_PLACEMENT_3D('',#491,#397,#398);
#339=AXIS2_PLACEMENT_3D('',#492,#399,#400);
#340=AXIS2_PLACEMENT_3D('',#494,#401,#402);
#341=AXIS2_PLACEMENT_3D('',#496,#403,#404);
#342=AXIS2_PLACEMENT_3D('',#498,#405,#406);
#343=AXIS2_PLACEMENT_3D('',#500,#407,#408);
#344=AXIS2_PLACEMENT_3D('',#503,#410,#411);
#345=AXIS2_PLACEMENT_3D('',#504,#412,#413);
#346=AXIS2_PLACEMENT_3D('',#505,#414,#415);
#347=AXIS2_PLACEMENT_3D('',#507,#416,#417);
#348=AXIS2_PLACEMENT_3D('',#509,#418,#419);
#349=AXIS2_PLACEMENT_3D('',#511,#420,#421);
#350=AXIS2_PLACEMENT_3D('',#513,#422,#423);
#351=AXIS2_PLACEMENT_3D('',#516,#425,#426);
#352=AXIS2_PLACEMENT_3D('',#517,#427,#428);
#353=AXIS2_PLACEMENT_3D('',#518,#429,#430);
#354=AXIS2_PLACEMENT_3D('',#520,#431,#432);
#355=AXIS2_PLACEMENT_3D('',#521,#433,#434);
#356=AXIS2_PLACEMENT_3D('',#522,#435,#436);
#357=AXIS2_PLACEMENT_3D('',#524,#437,#438);
#358=AXIS2_PLACEMENT_3D('',#525,#439,#440);
#359=AXIS2_PLACEMENT_3D('',#526,#441,#442);
#360=AXIS2_PLACEMENT_3D('',#528,#443,#444);
#361=AXIS2_PLACEMENT_3D('',#529,#445,#446);
#362=AXIS2_PLACEMENT_3D('',#530,#447,#448);
#363=AXIS2_PLACEMENT_3D('',#532,#449,#450);
#364=AXIS2_PLACEMENT_3D('',#533,#451,#452);
#365=DIRECTION('',(0.,0.,1.));
#366=DIRECTION('',(1.,0.,0.));
#367=DIRECTION('',(-1.,0.,0.));
#368=DIRECTION('',(0.,0.,1.));
#369=DIRECTION('',(0.,-1.,0.));
#370=DIRECTION('',(0.,0.,1.));
#371=DIRECTION('',(0.,-1.,0.));
#372=DIRECTION('',(0.,0.,1.));
#373=DIRECTION('',(0.,-1.,0.));
#374=DIRECTION('',(0.,0.,-1.));
#375=DIRECTION('',(-1.37950177016048E-16,1.,0.));
#376=DIRECTION('',(-1.,-1.37950177016048E-16,0.));
#377=DIRECTION('',(-1.,-1.37950177016048E-16,0.));
#378=DIRECTION('',(0.,0.,1.));
#379=DIRECTION('',(-1.,-1.37950177016048E-16,0.));
#380=DIRECTION('',(-1.,0.,0.));
#381=DIRECTION('',(0.,0.,1.));
#382=DIRECTION('',(0.,-1.,0.));
#383=DIRECTION('',(0.,0.,-1.));
#384=DIRECTION('',(0.,-1.,0.));
#385=DIRECTION('',(0.,0.,1.));
#386=DIRECTION('',(0.,-1.,0.));
#387=DIRECTION('',(0.,0.,1.));
#388=DIRECTION('',(1.,0.,0.));
#389=DIRECTION('',(-1.,0.,0.));
#390=DIRECTION('',(-1.,-1.37950177016048E-16,0.));
#391=DIRECTION('',(0.,0.,1.));
#392=DIRECTION('',(1.,0.,0.));
#393=DIRECTION('',(0.,0.,1.));
#394=DIRECTION('',(1.,0.,0.));
#395=DIRECTION('',(0.,0.,1.));
#396=DIRECTION('',(1.,0.,0.));
#397=DIRECTION('',(-1.37950177016048E-16,1.,0.));
#398=DIRECTION('',(-1.,-1.37950177016048E-16,0.));
#399=DIRECTION('',(1.37950177016048E-16,-1.,0.));
#400=DIRECTION('',(1.,1.37950177016048E-16,0.));
#401=DIRECTION('',(-1.37950177016048E-16,1.,0.));
#402=DIRECTION('',(-1.,-1.37950177016048E-16,0.));
#403=DIRECTION('',(-1.37950177016048E-16,1.,0.));
#404=DIRECTION('',(-1.,-1.37950177016048E-16,0.));
#405=DIRECTION('',(-1.37950177016048E-16,1.,0.));
#406=DIRECTION('',(-1.,-1.37950177016048E-16,0.));
#407=DIRECTION('',(-1.37950177016048E-16,1.,0.));
#408=DIRECTION('',(-1.,-1.37950177016048E-16,0.));
#409=DIRECTION('',(-1.,-1.37950177016048E-16,0.));
#410=DIRECTION('',(0.,0.,1.));
#411=DIRECTION('',(1.,0.,0.));
#412=DIRECTION('',(0.,-1.,0.));
#413=DIRECTION('',(0.,0.,-1.));
#414=DIRECTION('',(0.,-1.,0.));
#415=DIRECTION('',(0.,0.,-1.));
#416=DIRECTION('',(1.37950177016048E-16,-1.,0.));
#417=DIRECTION('',(1.,1.37950177016048E-16,0.));
#418=DIRECTION('',(1.37950177016048E-16,-1.,0.));
#419=DIRECTION('',(1.,1.37950177016048E-16,0.));
#420=DIRECTION('',(1.37950177016048E-16,-1.,0.));
#421=DIRECTION('',(1.,1.37950177016048E-16,0.));
#422=DIRECTION('',(1.37950177016048E-16,-1.,0.));
#423=DIRECTION('',(1.,1.37950177016048E-16,0.));
#424=DIRECTION('',(-1.,0.,0.));
#425=DIRECTION('',(0.,0.,-1.));
#426=DIRECTION('',(1.,0.,0.));
#427=DIRECTION('',(1.37950177016048E-16,-1.,0.));
#428=DIRECTION('',(1.,1.37950177016048E-16,0.));
#429=DIRECTION('',(1.37950177016048E-16,-1.,0.));
#430=DIRECTION('',(1.,1.37950177016048E-16,0.));
#431=DIRECTION('',(-1.37950177016048E-16,1.,0.));
#432=DIRECTION('',(-1.,-1.37950177016048E-16,0.));
#433=DIRECTION('',(1.37950177016048E-16,-1.,0.));
#434=DIRECTION('',(1.,1.37950177016048E-16,0.));
#435=DIRECTION('',(1.37950177016048E-16,-1.,0.));
#436=DIRECTION('',(1.,1.37950177016048E-16,0.));
#437=DIRECTION('',(-1.37950177016048E-16,1.,0.));
#438=DIRECTION('',(-1.,-1.37950177016048E-16,0.));
#439=DIRECTION('',(1.37950177016048E-16,-1.,0.));
#440=DIRECTION('',(1.,1.37950177016048E-16,0.));
#441=DIRECTION('',(1.37950177016048E-16,-1.,0.));
#442=DIRECTION('',(1.,1.37950177016048E-16,0.));
#443=DIRECTION('',(-1.37950177016048E-16,1.,0.));
#444=DIRECTION('',(-1.,-1.37950177016048E-16,0.));
#445=DIRECTION('',(1.37950177016048E-16,-1.,0.));
#446=DIRECTION('',(1.,1.37950177016048E-16,0.));
#447=DIRECTION('',(1.37950177016048E-16,-1.,0.));
#448=DIRECTION('',(1.,1.37950177016048E-16,0.));
#449=DIRECTION('',(-1.37950177016048E-16,1.,0.));
#450=DIRECTION('',(-1.,-1.37950177016048E-16,0.));
#451=DIRECTION('',(1.37950177016048E-16,-1.,0.));
#452=DIRECTION('',(1.,1.37950177016048E-16,0.));
#453=CARTESIAN_POINT('',(0.,0.,0.));
#454=CARTESIAN_POINT('',(0.02515,3.46944695195361E-18,-0.175));
#455=CARTESIAN_POINT('',(0.02515,3.46944695195361E-18,-0.1));
#456=CARTESIAN_POINT('',(0.02515,0.02515,-0.1));
#457=CARTESIAN_POINT('',(0.02515,-0.01515,-0.1));
#458=CARTESIAN_POINT('',(0.02515,0.02515,-0.175));
#459=CARTESIAN_POINT('',(0.02515,0.02515,0.));
#460=CARTESIAN_POINT('',(0.02515,3.46944695195361E-18,0.));
#461=CARTESIAN_POINT('',(0.02515,-0.02515,0.));
#462=CARTESIAN_POINT('',(0.02515,-0.02515,-0.175));
#463=CARTESIAN_POINT('',(0.02515,-0.02515,-0.175));
#464=CARTESIAN_POINT('',(0.02515,3.46944695195361E-18,-0.175));
#465=CARTESIAN_POINT('',(0.02515,-0.01515,-0.175));
#466=CARTESIAN_POINT('',(0.02515,-0.01515,-0.1));
#467=CARTESIAN_POINT('',(-3.46944695195361E-18,0.02515,-0.175));
#468=CARTESIAN_POINT('',(-3.46944695195361E-18,0.02515,-0.1));
#469=CARTESIAN_POINT('',(-0.02515,0.02515,-0.1));
#470=CARTESIAN_POINT('',(-0.02515,0.02515,-0.175));
#471=CARTESIAN_POINT('',(-0.02515,0.02515,0.));
#472=CARTESIAN_POINT('',(-3.46944695195361E-18,0.02515,0.));
#473=CARTESIAN_POINT('',(-0.02515,0.,-0.175));
#474=CARTESIAN_POINT('',(-0.02515,0.,-0.1));
#475=CARTESIAN_POINT('',(-0.02515,-0.01515,-0.1));
#476=CARTESIAN_POINT('',(-0.02515,-0.01515,-0.1));
#477=CARTESIAN_POINT('',(-0.02515,-0.01515,-0.175));
#478=CARTESIAN_POINT('',(-0.02515,0.,-0.175));
#479=CARTESIAN_POINT('',(-0.02515,-0.02515,-0.175));
#480=CARTESIAN_POINT('',(-0.02515,-0.02515,-0.175));
#481=CARTESIAN_POINT('',(-0.02515,-0.02515,0.));
#482=CARTESIAN_POINT('',(-0.02515,0.,0.));
#483=CARTESIAN_POINT('',(0.,0.,-0.175));
#484=CARTESIAN_POINT('',(0.,-0.01515,-0.175));
#485=CARTESIAN_POINT('',(-3.46944695195361E-18,-0.02515,-0.175));
#486=CARTESIAN_POINT('',(0.,3.06161699786838E-19,-0.175));
#487=CARTESIAN_POINT('',(0.,3.06161699786838E-19,0.));
#488=CARTESIAN_POINT('',(0.005,3.06161699786838E-19,0.));
#489=CARTESIAN_POINT('',(0.,3.06161699786838E-19,-0.1));
#490=CARTESIAN_POINT('',(0.005,3.06161699786838E-19,-0.1));
#491=CARTESIAN_POINT('',(-3.46944695195361E-18,-0.02515,-0.175));
#492=CARTESIAN_POINT('',(7.80625564189563E-18,-0.02515,-0.152));
#493=CARTESIAN_POINT('',(0.00500000000000001,-0.02515,-0.152));
#494=CARTESIAN_POINT('',(-0.0155,-0.02515,-0.1675));
#495=CARTESIAN_POINT('',(-0.0171,-0.02515,-0.1675));
#496=CARTESIAN_POINT('',(0.0155,-0.02515,-0.1675));
#497=CARTESIAN_POINT('',(0.0139,-0.02515,-0.1675));
#498=CARTESIAN_POINT('',(0.0155,-0.02515,-0.1365));
#499=CARTESIAN_POINT('',(0.0139,-0.02515,-0.1365));
#500=CARTESIAN_POINT('',(-0.0155,-0.02515,-0.1365));
#501=CARTESIAN_POINT('',(-0.0171,-0.02515,-0.1365));
#502=CARTESIAN_POINT('',(-3.46944695195361E-18,-0.02515,0.));
#503=CARTESIAN_POINT('',(0.,0.,0.));
#504=CARTESIAN_POINT('',(0.,-0.01515,-0.1));
#505=CARTESIAN_POINT('',(6.42675387173515E-18,-0.01515,-0.152));
#506=CARTESIAN_POINT('',(6.42675387173515E-18,-0.01515,-0.157));
#507=CARTESIAN_POINT('',(-0.0155,-0.01515,-0.1675));
#508=CARTESIAN_POINT('',(-0.01214,-0.01515,-0.1675));
#509=CARTESIAN_POINT('',(0.0155,-0.01515,-0.1675));
#510=CARTESIAN_POINT('',(0.01886,-0.01515,-0.1675));
#511=CARTESIAN_POINT('',(0.0155,-0.01515,-0.1365));
#512=CARTESIAN_POINT('',(0.01886,-0.01515,-0.1365));
#513=CARTESIAN_POINT('',(-0.0155,-0.01515,-0.1365));
#514=CARTESIAN_POINT('',(-0.01214,-0.01515,-0.1365));
#515=CARTESIAN_POINT('',(0.,-0.01515,-0.1));
#516=CARTESIAN_POINT('',(-3.46944695195361E-18,0.,-0.1));
#517=CARTESIAN_POINT('',(-0.0155,-0.01515,-0.1365));
#518=CARTESIAN_POINT('',(-0.0155,-0.01691,-0.1365));
#519=CARTESIAN_POINT('',(-0.0139,-0.01691,-0.1365));
#520=CARTESIAN_POINT('',(-0.0155,-0.01515,-0.1365));
#521=CARTESIAN_POINT('',(0.0155,-0.01515,-0.1365));
#522=CARTESIAN_POINT('',(0.0155,-0.01691,-0.1365));
#523=CARTESIAN_POINT('',(0.0171,-0.01691,-0.1365));
#524=CARTESIAN_POINT('',(0.0155,-0.01515,-0.1365));
#525=CARTESIAN_POINT('',(0.0155,-0.01515,-0.1675));
#526=CARTESIAN_POINT('',(0.0155,-0.01691,-0.1675));
#527=CARTESIAN_POINT('',(0.0171,-0.01691,-0.1675));
#528=CARTESIAN_POINT('',(0.0155,-0.01515,-0.1675));
#529=CARTESIAN_POINT('',(-0.0155,-0.01515,-0.1675));
#530=CARTESIAN_POINT('',(-0.0155,-0.01691,-0.1675));
#531=CARTESIAN_POINT('',(-0.0139,-0.01691,-0.1675));
#532=CARTESIAN_POINT('',(-0.0155,-0.01515,-0.1675));
#533=CARTESIAN_POINT('',(4.35750121649442E-18,-0.000150000000000004,-0.152));
#534=MECHANICAL_DESIGN_GEOMETRIC_PRESENTATION_REPRESENTATION('',(#319),
#535);
#535=(
GEOMETRIC_REPRESENTATION_CONTEXT(3)
GLOBAL_UNCERTAINTY_ASSIGNED_CONTEXT((#536))
GLOBAL_UNIT_ASSIGNED_CONTEXT((#539,#538,#537))
REPRESENTATION_CONTEXT('Part 3','TOP_LEVEL_ASSEMBLY_PART')
);
#536=UNCERTAINTY_MEASURE_WITH_UNIT(LENGTH_MEASURE(1.E-8),#539,
'DISTANCE_ACCURACY_VALUE','Maximum Tolerance applied to model');
#537=(
NAMED_UNIT(*)
SI_UNIT($,.STERADIAN.)
SOLID_ANGLE_UNIT()
);
#538=(
NAMED_UNIT(*)
PLANE_ANGLE_UNIT()
SI_UNIT($,.RADIAN.)
);
#539=(
LENGTH_UNIT()
NAMED_UNIT(*)
SI_UNIT($,.METRE.)
);
#540=PRODUCT_DEFINITION_SHAPE('','',#541);
#541=PRODUCT_DEFINITION('','',#543,#542);
#542=PRODUCT_DEFINITION_CONTEXT('',#549,'design');
#543=PRODUCT_DEFINITION_FORMATION_WITH_SPECIFIED_SOURCE('','',#545,
 .NOT_KNOWN.);
#544=PRODUCT_RELATED_PRODUCT_CATEGORY('','',(#545));
#545=PRODUCT('Part 3','Part 3','Part 3',(#547));
#546=PRODUCT_CATEGORY('','');
#547=PRODUCT_CONTEXT('',#549,'mechanical');
#548=APPLICATION_PROTOCOL_DEFINITION('international standard',
'automotive_design',2010,#549);
#549=APPLICATION_CONTEXT(
'core data for automotive mechanical design processes');
ENDSEC;
END-ISO-10303-21;
