ISO-10303-21;
HEADER;
/* Generated by software containing ST-Developer
 * from STEP Tools, Inc. (www.steptools.com) 
 */
/* OPTION: using custom renumber hook */

FILE_DESCRIPTION(
/* description */ ('STEP AP214',
'CAx-IF Rec.Pracs.---User Defined Attributes---1.5---2016-08-15'),
/* implementation_level */ '2;1');

FILE_NAME(
/* name */ 'Base turn - Part 3 (2)',
/* time_stamp */ '2026-05-17T02:39:04Z',
/* author */ (''),
/* organization */ (''),
/* preprocessor_version */ 'ST-DEVELOPER v20',
/* originating_system */ 'ONSHAPE BY PTC INC, 1.215',
/* authorisation */ '  ');

FILE_SCHEMA (('AUTOMOTIVE_DESIGN {1 0 10303 214 3 1 1}'));
ENDSEC;

DATA;
#10=PROPERTY_DEFINITION_REPRESENTATION(#14,#12);
#11=PROPERTY_DEFINITION_REPRESENTATION(#15,#13);
#12=REPRESENTATION('',(#16),#1799);
#13=REPRESENTATION('',(#17),#1799);
#14=PROPERTY_DEFINITION('pmi validation property','',#1804);
#15=PROPERTY_DEFINITION('pmi validation property','',#1804);
#16=VALUE_REPRESENTATION_ITEM('number of annotations',COUNT_MEASURE(0.));
#17=VALUE_REPRESENTATION_ITEM('number of views',COUNT_MEASURE(0.));
#18=SHAPE_REPRESENTATION_RELATIONSHIP('','',#1131,#19);
#19=ADVANCED_BREP_SHAPE_REPRESENTATION('',(#1129),#1799);
#20=CYLINDRICAL_SURFACE('',#1157,0.0016);
#21=CYLINDRICAL_SURFACE('',#1158,0.0016);
#22=CYLINDRICAL_SURFACE('',#1177,0.0015);
#23=CYLINDRICAL_SURFACE('',#1184,0.0015);
#24=CYLINDRICAL_SURFACE('',#1191,0.0016);
#25=CYLINDRICAL_SURFACE('',#1192,0.0016);
#26=CYLINDRICAL_SURFACE('',#1201,0.0015);
#27=CYLINDRICAL_SURFACE('',#1208,0.0015);
#28=CYLINDRICAL_SURFACE('',#1209,0.0045);
#29=CIRCLE('',#1137,0.0015);
#30=CIRCLE('',#1138,0.0015);
#31=CIRCLE('',#1141,0.0015);
#32=CIRCLE('',#1146,0.0045);
#33=CIRCLE('',#1147,0.0016);
#34=CIRCLE('',#1148,0.0016);
#35=CIRCLE('',#1149,0.0016);
#36=CIRCLE('',#1150,0.0016);
#37=CIRCLE('',#1152,0.0045);
#38=CIRCLE('',#1153,0.0016);
#39=CIRCLE('',#1154,0.0016);
#40=CIRCLE('',#1155,0.0016);
#41=CIRCLE('',#1156,0.0016);
#42=CIRCLE('',#1162,0.0015);
#43=CIRCLE('',#1163,0.0015);
#44=CIRCLE('',#1180,0.0015);
#45=CIRCLE('',#1189,0.0015);
#46=CIRCLE('',#1204,0.0015);
#47=ORIENTED_EDGE('',*,*,#339,.T.);
#48=ORIENTED_EDGE('',*,*,#340,.T.);
#49=ORIENTED_EDGE('',*,*,#341,.F.);
#50=ORIENTED_EDGE('',*,*,#342,.F.);
#51=ORIENTED_EDGE('',*,*,#343,.F.);
#52=ORIENTED_EDGE('',*,*,#344,.T.);
#53=ORIENTED_EDGE('',*,*,#345,.T.);
#54=ORIENTED_EDGE('',*,*,#346,.F.);
#55=ORIENTED_EDGE('',*,*,#345,.F.);
#56=ORIENTED_EDGE('',*,*,#347,.F.);
#57=ORIENTED_EDGE('',*,*,#348,.F.);
#58=ORIENTED_EDGE('',*,*,#349,.T.);
#59=ORIENTED_EDGE('',*,*,#350,.T.);
#60=ORIENTED_EDGE('',*,*,#351,.F.);
#61=ORIENTED_EDGE('',*,*,#352,.T.);
#62=ORIENTED_EDGE('',*,*,#353,.F.);
#63=ORIENTED_EDGE('',*,*,#354,.T.);
#64=ORIENTED_EDGE('',*,*,#355,.F.);
#65=ORIENTED_EDGE('',*,*,#356,.F.);
#66=ORIENTED_EDGE('',*,*,#357,.T.);
#67=ORIENTED_EDGE('',*,*,#358,.T.);
#68=ORIENTED_EDGE('',*,*,#359,.T.);
#69=ORIENTED_EDGE('',*,*,#360,.T.);
#70=ORIENTED_EDGE('',*,*,#361,.T.);
#71=ORIENTED_EDGE('',*,*,#362,.F.);
#72=ORIENTED_EDGE('',*,*,#363,.F.);
#73=ORIENTED_EDGE('',*,*,#364,.F.);
#74=ORIENTED_EDGE('',*,*,#365,.F.);
#75=ORIENTED_EDGE('',*,*,#366,.F.);
#76=ORIENTED_EDGE('',*,*,#367,.F.);
#77=ORIENTED_EDGE('',*,*,#353,.T.);
#78=ORIENTED_EDGE('',*,*,#368,.F.);
#79=ORIENTED_EDGE('',*,*,#369,.F.);
#80=ORIENTED_EDGE('',*,*,#370,.T.);
#81=ORIENTED_EDGE('',*,*,#371,.T.);
#82=ORIENTED_EDGE('',*,*,#372,.F.);
#83=ORIENTED_EDGE('',*,*,#373,.F.);
#84=ORIENTED_EDGE('',*,*,#366,.T.);
#85=ORIENTED_EDGE('',*,*,#374,.F.);
#86=ORIENTED_EDGE('',*,*,#375,.T.);
#87=ORIENTED_EDGE('',*,*,#376,.T.);
#88=ORIENTED_EDGE('',*,*,#377,.F.);
#89=ORIENTED_EDGE('',*,*,#376,.F.);
#90=ORIENTED_EDGE('',*,*,#378,.T.);
#91=ORIENTED_EDGE('',*,*,#355,.T.);
#92=ORIENTED_EDGE('',*,*,#379,.F.);
#93=ORIENTED_EDGE('',*,*,#380,.T.);
#94=ORIENTED_EDGE('',*,*,#381,.F.);
#95=ORIENTED_EDGE('',*,*,#382,.F.);
#96=ORIENTED_EDGE('',*,*,#383,.F.);
#97=ORIENTED_EDGE('',*,*,#384,.F.);
#98=ORIENTED_EDGE('',*,*,#385,.T.);
#99=ORIENTED_EDGE('',*,*,#386,.T.);
#100=ORIENTED_EDGE('',*,*,#343,.T.);
#101=ORIENTED_EDGE('',*,*,#387,.T.);
#102=ORIENTED_EDGE('',*,*,#388,.T.);
#103=ORIENTED_EDGE('',*,*,#389,.F.);
#104=ORIENTED_EDGE('',*,*,#390,.T.);
#105=ORIENTED_EDGE('',*,*,#391,.T.);
#106=ORIENTED_EDGE('',*,*,#392,.F.);
#107=ORIENTED_EDGE('',*,*,#393,.F.);
#108=ORIENTED_EDGE('',*,*,#394,.T.);
#109=ORIENTED_EDGE('',*,*,#395,.T.);
#110=ORIENTED_EDGE('',*,*,#396,.T.);
#111=ORIENTED_EDGE('',*,*,#397,.F.);
#112=ORIENTED_EDGE('',*,*,#398,.F.);
#113=ORIENTED_EDGE('',*,*,#361,.F.);
#114=ORIENTED_EDGE('',*,*,#399,.T.);
#115=ORIENTED_EDGE('',*,*,#400,.T.);
#116=ORIENTED_EDGE('',*,*,#401,.F.);
#117=ORIENTED_EDGE('',*,*,#402,.T.);
#118=ORIENTED_EDGE('',*,*,#403,.T.);
#119=ORIENTED_EDGE('',*,*,#393,.T.);
#120=ORIENTED_EDGE('',*,*,#398,.T.);
#121=ORIENTED_EDGE('',*,*,#392,.T.);
#122=ORIENTED_EDGE('',*,*,#397,.T.);
#123=ORIENTED_EDGE('',*,*,#401,.T.);
#124=ORIENTED_EDGE('',*,*,#404,.F.);
#125=ORIENTED_EDGE('',*,*,#350,.F.);
#126=ORIENTED_EDGE('',*,*,#362,.T.);
#127=ORIENTED_EDGE('',*,*,#405,.T.);
#128=ORIENTED_EDGE('',*,*,#406,.T.);
#129=ORIENTED_EDGE('',*,*,#407,.F.);
#130=ORIENTED_EDGE('',*,*,#388,.F.);
#131=ORIENTED_EDGE('',*,*,#408,.F.);
#132=ORIENTED_EDGE('',*,*,#409,.T.);
#133=ORIENTED_EDGE('',*,*,#410,.T.);
#134=ORIENTED_EDGE('',*,*,#404,.T.);
#135=ORIENTED_EDGE('',*,*,#400,.F.);
#136=ORIENTED_EDGE('',*,*,#411,.F.);
#137=ORIENTED_EDGE('',*,*,#412,.F.);
#138=ORIENTED_EDGE('',*,*,#413,.F.);
#139=ORIENTED_EDGE('',*,*,#414,.F.);
#140=ORIENTED_EDGE('',*,*,#415,.T.);
#141=ORIENTED_EDGE('',*,*,#416,.F.);
#142=ORIENTED_EDGE('',*,*,#417,.F.);
#143=ORIENTED_EDGE('',*,*,#418,.T.);
#144=ORIENTED_EDGE('',*,*,#419,.T.);
#145=ORIENTED_EDGE('',*,*,#391,.F.);
#146=ORIENTED_EDGE('',*,*,#420,.T.);
#147=ORIENTED_EDGE('',*,*,#421,.T.);
#148=ORIENTED_EDGE('',*,*,#405,.F.);
#149=ORIENTED_EDGE('',*,*,#390,.F.);
#150=ORIENTED_EDGE('',*,*,#422,.T.);
#151=ORIENTED_EDGE('',*,*,#423,.T.);
#152=ORIENTED_EDGE('',*,*,#420,.F.);
#153=ORIENTED_EDGE('',*,*,#424,.T.);
#154=ORIENTED_EDGE('',*,*,#381,.T.);
#155=ORIENTED_EDGE('',*,*,#425,.F.);
#156=ORIENTED_EDGE('',*,*,#341,.T.);
#157=ORIENTED_EDGE('',*,*,#426,.T.);
#158=ORIENTED_EDGE('',*,*,#427,.F.);
#159=ORIENTED_EDGE('',*,*,#428,.F.);
#160=ORIENTED_EDGE('',*,*,#406,.F.);
#161=ORIENTED_EDGE('',*,*,#429,.T.);
#162=ORIENTED_EDGE('',*,*,#430,.T.);
#163=ORIENTED_EDGE('',*,*,#431,.F.);
#164=ORIENTED_EDGE('',*,*,#339,.F.);
#165=ORIENTED_EDGE('',*,*,#386,.F.);
#166=ORIENTED_EDGE('',*,*,#432,.T.);
#167=ORIENTED_EDGE('',*,*,#347,.T.);
#168=ORIENTED_EDGE('',*,*,#344,.F.);
#169=ORIENTED_EDGE('',*,*,#421,.F.);
#170=ORIENTED_EDGE('',*,*,#433,.T.);
#171=ORIENTED_EDGE('',*,*,#382,.T.);
#172=ORIENTED_EDGE('',*,*,#424,.F.);
#173=ORIENTED_EDGE('',*,*,#434,.T.);
#174=ORIENTED_EDGE('',*,*,#348,.T.);
#175=ORIENTED_EDGE('',*,*,#432,.F.);
#176=ORIENTED_EDGE('',*,*,#385,.F.);
#177=ORIENTED_EDGE('',*,*,#435,.T.);
#178=ORIENTED_EDGE('',*,*,#416,.T.);
#179=ORIENTED_EDGE('',*,*,#436,.F.);
#180=ORIENTED_EDGE('',*,*,#430,.F.);
#181=ORIENTED_EDGE('',*,*,#423,.F.);
#182=ORIENTED_EDGE('',*,*,#437,.T.);
#183=ORIENTED_EDGE('',*,*,#438,.F.);
#184=ORIENTED_EDGE('',*,*,#439,.F.);
#185=ORIENTED_EDGE('',*,*,#440,.T.);
#186=ORIENTED_EDGE('',*,*,#372,.T.);
#187=ORIENTED_EDGE('',*,*,#383,.T.);
#188=ORIENTED_EDGE('',*,*,#433,.F.);
#189=ORIENTED_EDGE('',*,*,#441,.T.);
#190=ORIENTED_EDGE('',*,*,#440,.F.);
#191=ORIENTED_EDGE('',*,*,#442,.F.);
#192=ORIENTED_EDGE('',*,*,#374,.T.);
#193=ORIENTED_EDGE('',*,*,#377,.T.);
#194=ORIENTED_EDGE('',*,*,#379,.T.);
#195=ORIENTED_EDGE('',*,*,#354,.F.);
#196=ORIENTED_EDGE('',*,*,#367,.T.);
#197=ORIENTED_EDGE('',*,*,#373,.T.);
#198=ORIENTED_EDGE('',*,*,#441,.F.);
#199=ORIENTED_EDGE('',*,*,#443,.T.);
#200=ORIENTED_EDGE('',*,*,#363,.T.);
#201=ORIENTED_EDGE('',*,*,#349,.F.);
#202=ORIENTED_EDGE('',*,*,#434,.F.);
#203=ORIENTED_EDGE('',*,*,#384,.T.);
#204=ORIENTED_EDGE('',*,*,#371,.F.);
#205=ORIENTED_EDGE('',*,*,#370,.F.);
#206=ORIENTED_EDGE('',*,*,#368,.T.);
#207=ORIENTED_EDGE('',*,*,#364,.T.);
#208=ORIENTED_EDGE('',*,*,#443,.F.);
#209=ORIENTED_EDGE('',*,*,#352,.F.);
#210=ORIENTED_EDGE('',*,*,#369,.T.);
#211=ORIENTED_EDGE('',*,*,#444,.T.);
#212=ORIENTED_EDGE('',*,*,#380,.F.);
#213=ORIENTED_EDGE('',*,*,#346,.T.);
#214=ORIENTED_EDGE('',*,*,#351,.T.);
#215=ORIENTED_EDGE('',*,*,#410,.F.);
#216=ORIENTED_EDGE('',*,*,#445,.F.);
#217=ORIENTED_EDGE('',*,*,#446,.F.);
#218=ORIENTED_EDGE('',*,*,#447,.T.);
#219=ORIENTED_EDGE('',*,*,#448,.F.);
#220=ORIENTED_EDGE('',*,*,#449,.T.);
#221=ORIENTED_EDGE('',*,*,#425,.T.);
#222=ORIENTED_EDGE('',*,*,#444,.F.);
#223=ORIENTED_EDGE('',*,*,#342,.T.);
#224=ORIENTED_EDGE('',*,*,#449,.F.);
#225=ORIENTED_EDGE('',*,*,#450,.F.);
#226=ORIENTED_EDGE('',*,*,#417,.T.);
#227=ORIENTED_EDGE('',*,*,#435,.F.);
#228=ORIENTED_EDGE('',*,*,#429,.F.);
#229=ORIENTED_EDGE('',*,*,#451,.T.);
#230=ORIENTED_EDGE('',*,*,#418,.F.);
#231=ORIENTED_EDGE('',*,*,#450,.T.);
#232=ORIENTED_EDGE('',*,*,#448,.T.);
#233=ORIENTED_EDGE('',*,*,#447,.F.);
#234=ORIENTED_EDGE('',*,*,#445,.T.);
#235=ORIENTED_EDGE('',*,*,#409,.F.);
#236=ORIENTED_EDGE('',*,*,#451,.F.);
#237=ORIENTED_EDGE('',*,*,#446,.T.);
#238=ORIENTED_EDGE('',*,*,#408,.T.);
#239=ORIENTED_EDGE('',*,*,#452,.T.);
#240=ORIENTED_EDGE('',*,*,#453,.T.);
#241=ORIENTED_EDGE('',*,*,#454,.F.);
#242=ORIENTED_EDGE('',*,*,#455,.F.);
#243=ORIENTED_EDGE('',*,*,#454,.T.);
#244=ORIENTED_EDGE('',*,*,#456,.T.);
#245=ORIENTED_EDGE('',*,*,#457,.F.);
#246=ORIENTED_EDGE('',*,*,#458,.F.);
#247=ORIENTED_EDGE('',*,*,#459,.T.);
#248=ORIENTED_EDGE('',*,*,#460,.T.);
#249=ORIENTED_EDGE('',*,*,#461,.T.);
#250=ORIENTED_EDGE('',*,*,#462,.T.);
#251=ORIENTED_EDGE('',*,*,#357,.F.);
#252=ORIENTED_EDGE('',*,*,#463,.T.);
#253=ORIENTED_EDGE('',*,*,#464,.T.);
#254=ORIENTED_EDGE('',*,*,#465,.F.);
#255=ORIENTED_EDGE('',*,*,#461,.F.);
#256=ORIENTED_EDGE('',*,*,#466,.T.);
#257=ORIENTED_EDGE('',*,*,#439,.T.);
#258=ORIENTED_EDGE('',*,*,#467,.F.);
#259=ORIENTED_EDGE('',*,*,#468,.F.);
#260=ORIENTED_EDGE('',*,*,#452,.F.);
#261=ORIENTED_EDGE('',*,*,#469,.F.);
#262=ORIENTED_EDGE('',*,*,#470,.F.);
#263=ORIENTED_EDGE('',*,*,#471,.T.);
#264=ORIENTED_EDGE('',*,*,#438,.T.);
#265=ORIENTED_EDGE('',*,*,#472,.T.);
#266=ORIENTED_EDGE('',*,*,#427,.T.);
#267=ORIENTED_EDGE('',*,*,#395,.F.);
#268=ORIENTED_EDGE('',*,*,#403,.F.);
#269=ORIENTED_EDGE('',*,*,#394,.F.);
#270=ORIENTED_EDGE('',*,*,#402,.F.);
#271=ORIENTED_EDGE('',*,*,#399,.F.);
#272=ORIENTED_EDGE('',*,*,#360,.F.);
#273=ORIENTED_EDGE('',*,*,#457,.T.);
#274=ORIENTED_EDGE('',*,*,#411,.T.);
#275=ORIENTED_EDGE('',*,*,#389,.T.);
#276=ORIENTED_EDGE('',*,*,#407,.T.);
#277=ORIENTED_EDGE('',*,*,#473,.F.);
#278=ORIENTED_EDGE('',*,*,#422,.F.);
#279=ORIENTED_EDGE('',*,*,#474,.F.);
#280=ORIENTED_EDGE('',*,*,#470,.T.);
#281=ORIENTED_EDGE('',*,*,#475,.T.);
#282=ORIENTED_EDGE('',*,*,#459,.F.);
#283=ORIENTED_EDGE('',*,*,#473,.T.);
#284=ORIENTED_EDGE('',*,*,#428,.T.);
#285=ORIENTED_EDGE('',*,*,#472,.F.);
#286=ORIENTED_EDGE('',*,*,#437,.F.);
#287=ORIENTED_EDGE('',*,*,#469,.T.);
#288=ORIENTED_EDGE('',*,*,#455,.T.);
#289=ORIENTED_EDGE('',*,*,#460,.F.);
#290=ORIENTED_EDGE('',*,*,#475,.F.);
#291=ORIENTED_EDGE('',*,*,#375,.F.);
#292=ORIENTED_EDGE('',*,*,#442,.T.);
#293=ORIENTED_EDGE('',*,*,#466,.F.);
#294=ORIENTED_EDGE('',*,*,#463,.F.);
#295=ORIENTED_EDGE('',*,*,#356,.T.);
#296=ORIENTED_EDGE('',*,*,#378,.F.);
#297=ORIENTED_EDGE('',*,*,#476,.F.);
#298=ORIENTED_EDGE('',*,*,#467,.T.);
#299=ORIENTED_EDGE('',*,*,#471,.F.);
#300=ORIENTED_EDGE('',*,*,#474,.T.);
#301=ORIENTED_EDGE('',*,*,#458,.T.);
#302=ORIENTED_EDGE('',*,*,#359,.F.);
#303=ORIENTED_EDGE('',*,*,#465,.T.);
#304=ORIENTED_EDGE('',*,*,#476,.T.);
#305=ORIENTED_EDGE('',*,*,#358,.F.);
#306=ORIENTED_EDGE('',*,*,#462,.F.);
#307=ORIENTED_EDGE('',*,*,#365,.T.);
#308=ORIENTED_EDGE('',*,*,#464,.F.);
#309=ORIENTED_EDGE('',*,*,#477,.F.);
#310=ORIENTED_EDGE('',*,*,#478,.T.);
#311=ORIENTED_EDGE('',*,*,#412,.T.);
#312=ORIENTED_EDGE('',*,*,#456,.F.);
#313=ORIENTED_EDGE('',*,*,#453,.F.);
#314=ORIENTED_EDGE('',*,*,#468,.T.);
#315=ORIENTED_EDGE('',*,*,#479,.T.);
#316=ORIENTED_EDGE('',*,*,#480,.F.);
#317=ORIENTED_EDGE('',*,*,#477,.T.);
#318=ORIENTED_EDGE('',*,*,#426,.F.);
#319=ORIENTED_EDGE('',*,*,#481,.F.);
#320=ORIENTED_EDGE('',*,*,#482,.T.);
#321=ORIENTED_EDGE('',*,*,#340,.F.);
#322=ORIENTED_EDGE('',*,*,#431,.T.);
#323=ORIENTED_EDGE('',*,*,#436,.T.);
#324=ORIENTED_EDGE('',*,*,#415,.F.);
#325=ORIENTED_EDGE('',*,*,#483,.T.);
#326=ORIENTED_EDGE('',*,*,#481,.T.);
#327=ORIENTED_EDGE('',*,*,#484,.F.);
#328=ORIENTED_EDGE('',*,*,#482,.F.);
#329=ORIENTED_EDGE('',*,*,#483,.F.);
#330=ORIENTED_EDGE('',*,*,#414,.T.);
#331=ORIENTED_EDGE('',*,*,#480,.T.);
#332=ORIENTED_EDGE('',*,*,#484,.T.);
#333=ORIENTED_EDGE('',*,*,#413,.T.);
#334=ORIENTED_EDGE('',*,*,#478,.F.);
#335=ORIENTED_EDGE('',*,*,#479,.F.);
#336=ORIENTED_EDGE('',*,*,#419,.F.);
#337=ORIENTED_EDGE('',*,*,#387,.F.);
#338=ORIENTED_EDGE('',*,*,#396,.F.);
#339=EDGE_CURVE('',#485,#486,#583,.T.);
#340=EDGE_CURVE('',#486,#487,#584,.T.);
#341=EDGE_CURVE('',#488,#487,#585,.T.);
#342=EDGE_CURVE('',#485,#488,#586,.T.);
#343=EDGE_CURVE('',#489,#490,#587,.T.);
#344=EDGE_CURVE('',#489,#491,#588,.T.);
#345=EDGE_CURVE('',#491,#492,#589,.T.);
#346=EDGE_CURVE('',#490,#492,#590,.T.);
#347=EDGE_CURVE('',#493,#491,#591,.T.);
#348=EDGE_CURVE('',#494,#493,#592,.T.);
#349=EDGE_CURVE('',#494,#495,#593,.T.);
#350=EDGE_CURVE('',#495,#496,#594,.T.);
#351=EDGE_CURVE('',#492,#496,#595,.T.);
#352=EDGE_CURVE('',#497,#497,#29,.T.);
#353=EDGE_CURVE('',#498,#499,#596,.T.);
#354=EDGE_CURVE('',#498,#500,#597,.T.);
#355=EDGE_CURVE('',#501,#500,#598,.T.);
#356=EDGE_CURVE('',#502,#501,#599,.T.);
#357=EDGE_CURVE('',#502,#503,#600,.T.);
#358=EDGE_CURVE('',#503,#504,#601,.T.);
#359=EDGE_CURVE('',#504,#505,#602,.T.);
#360=EDGE_CURVE('',#505,#506,#603,.T.);
#361=EDGE_CURVE('',#506,#507,#604,.T.);
#362=EDGE_CURVE('',#495,#507,#605,.T.);
#363=EDGE_CURVE('',#508,#495,#606,.T.);
#364=EDGE_CURVE('',#499,#508,#607,.T.);
#365=EDGE_CURVE('',#509,#509,#30,.T.);
#366=EDGE_CURVE('',#510,#511,#608,.T.);
#367=EDGE_CURVE('',#498,#510,#609,.T.);
#368=EDGE_CURVE('',#511,#499,#610,.T.);
#369=EDGE_CURVE('',#512,#512,#31,.T.);
#370=EDGE_CURVE('',#511,#513,#611,.T.);
#371=EDGE_CURVE('',#513,#514,#612,.T.);
#372=EDGE_CURVE('',#515,#514,#613,.T.);
#373=EDGE_CURVE('',#510,#515,#614,.T.);
#374=EDGE_CURVE('',#516,#517,#615,.T.);
#375=EDGE_CURVE('',#516,#518,#616,.T.);
#376=EDGE_CURVE('',#518,#519,#617,.T.);
#377=EDGE_CURVE('',#517,#519,#618,.T.);
#378=EDGE_CURVE('',#518,#501,#619,.T.);
#379=EDGE_CURVE('',#519,#500,#620,.T.);
#380=EDGE_CURVE('',#490,#520,#621,.T.);
#381=EDGE_CURVE('',#521,#520,#622,.T.);
#382=EDGE_CURVE('',#522,#521,#623,.T.);
#383=EDGE_CURVE('',#514,#522,#624,.T.);
#384=EDGE_CURVE('',#523,#514,#625,.T.);
#385=EDGE_CURVE('',#523,#524,#626,.T.);
#386=EDGE_CURVE('',#524,#489,#627,.T.);
#387=EDGE_CURVE('',#525,#525,#32,.F.);
#388=EDGE_CURVE('',#526,#527,#628,.T.);
#389=EDGE_CURVE('',#528,#527,#629,.T.);
#390=EDGE_CURVE('',#528,#529,#630,.T.);
#391=EDGE_CURVE('',#529,#526,#631,.T.);
#392=EDGE_CURVE('',#530,#530,#33,.F.);
#393=EDGE_CURVE('',#531,#531,#34,.F.);
#394=EDGE_CURVE('',#532,#532,#35,.F.);
#395=EDGE_CURVE('',#533,#533,#36,.F.);
#396=EDGE_CURVE('',#534,#534,#37,.F.);
#397=EDGE_CURVE('',#535,#535,#38,.T.);
#398=EDGE_CURVE('',#536,#536,#39,.T.);
#399=EDGE_CURVE('',#506,#537,#632,.T.);
#400=EDGE_CURVE('',#537,#538,#633,.T.);
#401=EDGE_CURVE('',#507,#538,#634,.T.);
#402=EDGE_CURVE('',#539,#539,#40,.T.);
#403=EDGE_CURVE('',#540,#540,#41,.T.);
#404=EDGE_CURVE('',#496,#538,#635,.T.);
#405=EDGE_CURVE('',#526,#541,#636,.T.);
#406=EDGE_CURVE('',#541,#542,#637,.T.);
#407=EDGE_CURVE('',#527,#542,#638,.T.);
#408=EDGE_CURVE('',#543,#543,#42,.T.);
#409=EDGE_CURVE('',#544,#545,#639,.T.);
#410=EDGE_CURVE('',#545,#496,#640,.T.);
#411=EDGE_CURVE('',#546,#537,#641,.T.);
#412=EDGE_CURVE('',#547,#546,#642,.T.);
#413=EDGE_CURVE('',#548,#547,#643,.T.);
#414=EDGE_CURVE('',#549,#548,#644,.T.);
#415=EDGE_CURVE('',#549,#550,#645,.T.);
#416=EDGE_CURVE('',#551,#550,#646,.T.);
#417=EDGE_CURVE('',#552,#551,#647,.T.);
#418=EDGE_CURVE('',#552,#544,#648,.T.);
#419=EDGE_CURVE('',#553,#553,#43,.T.);
#420=EDGE_CURVE('',#529,#554,#649,.T.);
#421=EDGE_CURVE('',#554,#541,#650,.T.);
#422=EDGE_CURVE('',#528,#555,#651,.T.);
#423=EDGE_CURVE('',#555,#554,#652,.T.);
#424=EDGE_CURVE('',#541,#521,#653,.T.);
#425=EDGE_CURVE('',#488,#520,#654,.T.);
#426=EDGE_CURVE('',#487,#556,#655,.T.);
#427=EDGE_CURVE('',#557,#556,#656,.T.);
#428=EDGE_CURVE('',#542,#557,#657,.T.);
#429=EDGE_CURVE('',#485,#558,#658,.T.);
#430=EDGE_CURVE('',#558,#559,#659,.T.);
#431=EDGE_CURVE('',#486,#559,#660,.T.);
#432=EDGE_CURVE('',#524,#493,#661,.T.);
#433=EDGE_CURVE('',#554,#522,#662,.T.);
#434=EDGE_CURVE('',#523,#494,#663,.T.);
#435=EDGE_CURVE('',#558,#551,#664,.T.);
#436=EDGE_CURVE('',#559,#550,#665,.T.);
#437=EDGE_CURVE('',#555,#560,#666,.T.);
#438=EDGE_CURVE('',#561,#560,#667,.T.);
#439=EDGE_CURVE('',#562,#561,#668,.T.);
#440=EDGE_CURVE('',#562,#515,#669,.T.);
#441=EDGE_CURVE('',#517,#515,#670,.T.);
#442=EDGE_CURVE('',#516,#562,#671,.T.);
#443=EDGE_CURVE('',#513,#508,#672,.T.);
#444=EDGE_CURVE('',#563,#520,#673,.T.);
#445=EDGE_CURVE('',#563,#545,#674,.T.);
#446=EDGE_CURVE('',#564,#564,#44,.F.);
#447=EDGE_CURVE('',#563,#565,#675,.T.);
#448=EDGE_CURVE('',#566,#565,#676,.T.);
#449=EDGE_CURVE('',#566,#488,#677,.T.);
#450=EDGE_CURVE('',#552,#566,#678,.T.);
#451=EDGE_CURVE('',#565,#544,#679,.T.);
#452=EDGE_CURVE('',#567,#568,#680,.T.);
#453=EDGE_CURVE('',#568,#569,#681,.T.);
#454=EDGE_CURVE('',#570,#569,#682,.T.);
#455=EDGE_CURVE('',#567,#570,#683,.T.);
#456=EDGE_CURVE('',#569,#546,#684,.T.);
#457=EDGE_CURVE('',#505,#546,#685,.T.);
#458=EDGE_CURVE('',#571,#505,#686,.T.);
#459=EDGE_CURVE('',#571,#572,#687,.T.);
#460=EDGE_CURVE('',#572,#570,#688,.T.);
#461=EDGE_CURVE('',#573,#574,#689,.T.);
#462=EDGE_CURVE('',#574,#503,#690,.T.);
#463=EDGE_CURVE('',#502,#573,#691,.T.);
#464=EDGE_CURVE('',#575,#575,#45,.T.);
#465=EDGE_CURVE('',#574,#576,#692,.T.);
#466=EDGE_CURVE('',#573,#562,#693,.T.);
#467=EDGE_CURVE('',#576,#561,#694,.T.);
#468=EDGE_CURVE('',#568,#556,#695,.T.);
#469=EDGE_CURVE('',#577,#567,#696,.T.);
#470=EDGE_CURVE('',#578,#577,#697,.T.);
#471=EDGE_CURVE('',#578,#561,#698,.T.);
#472=EDGE_CURVE('',#560,#557,#699,.T.);
#473=EDGE_CURVE('',#555,#542,#700,.T.);
#474=EDGE_CURVE('',#578,#571,#701,.T.);
#475=EDGE_CURVE('',#577,#572,#702,.T.);
#476=EDGE_CURVE('',#576,#504,#703,.T.);
#477=EDGE_CURVE('',#579,#556,#704,.T.);
#478=EDGE_CURVE('',#579,#547,#705,.T.);
#479=EDGE_CURVE('',#580,#580,#46,.F.);
#480=EDGE_CURVE('',#579,#581,#706,.T.);
#481=EDGE_CURVE('',#582,#487,#707,.T.);
#482=EDGE_CURVE('',#582,#581,#708,.T.);
#483=EDGE_CURVE('',#549,#582,#709,.T.);
#484=EDGE_CURVE('',#581,#548,#710,.T.);
#485=VERTEX_POINT('',#1497);
#486=VERTEX_POINT('',#1498);
#487=VERTEX_POINT('',#1500);
#488=VERTEX_POINT('',#1502);
#489=VERTEX_POINT('',#1506);
#490=VERTEX_POINT('',#1507);
#491=VERTEX_POINT('',#1509);
#492=VERTEX_POINT('',#1511);
#493=VERTEX_POINT('',#1515);
#494=VERTEX_POINT('',#1517);
#495=VERTEX_POINT('',#1519);
#496=VERTEX_POINT('',#1521);
#497=VERTEX_POINT('',#1525);
#498=VERTEX_POINT('',#1527);
#499=VERTEX_POINT('',#1528);
#500=VERTEX_POINT('',#1530);
#501=VERTEX_POINT('',#1532);
#502=VERTEX_POINT('',#1534);
#503=VERTEX_POINT('',#1536);
#504=VERTEX_POINT('',#1538);
#505=VERTEX_POINT('',#1540);
#506=VERTEX_POINT('',#1542);
#507=VERTEX_POINT('',#1544);
#508=VERTEX_POINT('',#1547);
#509=VERTEX_POINT('',#1550);
#510=VERTEX_POINT('',#1553);
#511=VERTEX_POINT('',#1554);
#512=VERTEX_POINT('',#1559);
#513=VERTEX_POINT('',#1561);
#514=VERTEX_POINT('',#1563);
#515=VERTEX_POINT('',#1565);
#516=VERTEX_POINT('',#1569);
#517=VERTEX_POINT('',#1570);
#518=VERTEX_POINT('',#1572);
#519=VERTEX_POINT('',#1574);
#520=VERTEX_POINT('',#1581);
#521=VERTEX_POINT('',#1583);
#522=VERTEX_POINT('',#1585);
#523=VERTEX_POINT('',#1588);
#524=VERTEX_POINT('',#1590);
#525=VERTEX_POINT('',#1594);
#526=VERTEX_POINT('',#1596);
#527=VERTEX_POINT('',#1597);
#528=VERTEX_POINT('',#1599);
#529=VERTEX_POINT('',#1601);
#530=VERTEX_POINT('',#1604);
#531=VERTEX_POINT('',#1606);
#532=VERTEX_POINT('',#1608);
#533=VERTEX_POINT('',#1610);
#534=VERTEX_POINT('',#1613);
#535=VERTEX_POINT('',#1615);
#536=VERTEX_POINT('',#1617);
#537=VERTEX_POINT('',#1619);
#538=VERTEX_POINT('',#1621);
#539=VERTEX_POINT('',#1624);
#540=VERTEX_POINT('',#1626);
#541=VERTEX_POINT('',#1633);
#542=VERTEX_POINT('',#1635);
#543=VERTEX_POINT('',#1639);
#544=VERTEX_POINT('',#1641);
#545=VERTEX_POINT('',#1642);
#546=VERTEX_POINT('',#1645);
#547=VERTEX_POINT('',#1647);
#548=VERTEX_POINT('',#1649);
#549=VERTEX_POINT('',#1651);
#550=VERTEX_POINT('',#1653);
#551=VERTEX_POINT('',#1655);
#552=VERTEX_POINT('',#1657);
#553=VERTEX_POINT('',#1660);
#554=VERTEX_POINT('',#1663);
#555=VERTEX_POINT('',#1667);
#556=VERTEX_POINT('',#1673);
#557=VERTEX_POINT('',#1675);
#558=VERTEX_POINT('',#1679);
#559=VERTEX_POINT('',#1681);
#560=VERTEX_POINT('',#1694);
#561=VERTEX_POINT('',#1696);
#562=VERTEX_POINT('',#1698);
#563=VERTEX_POINT('',#1710);
#564=VERTEX_POINT('',#1714);
#565=VERTEX_POINT('',#1716);
#566=VERTEX_POINT('',#1718);
#567=VERTEX_POINT('',#1728);
#568=VERTEX_POINT('',#1729);
#569=VERTEX_POINT('',#1731);
#570=VERTEX_POINT('',#1733);
#571=VERTEX_POINT('',#1739);
#572=VERTEX_POINT('',#1741);
#573=VERTEX_POINT('',#1745);
#574=VERTEX_POINT('',#1746);
#575=VERTEX_POINT('',#1751);
#576=VERTEX_POINT('',#1753);
#577=VERTEX_POINT('',#1759);
#578=VERTEX_POINT('',#1761);
#579=VERTEX_POINT('',#1781);
#580=VERTEX_POINT('',#1785);
#581=VERTEX_POINT('',#1787);
#582=VERTEX_POINT('',#1789);
#583=LINE('',#1496,#711);
#584=LINE('',#1499,#712);
#585=LINE('',#1501,#713);
#586=LINE('',#1503,#714);
#587=LINE('',#1505,#715);
#588=LINE('',#1508,#716);
#589=LINE('',#1510,#717);
#590=LINE('',#1512,#718);
#591=LINE('',#1514,#719);
#592=LINE('',#1516,#720);
#593=LINE('',#1518,#721);
#594=LINE('',#1520,#722);
#595=LINE('',#1522,#723);
#596=LINE('',#1526,#724);
#597=LINE('',#1529,#725);
#598=LINE('',#1531,#726);
#599=LINE('',#1533,#727);
#600=LINE('',#1535,#728);
#601=LINE('',#1537,#729);
#602=LINE('',#1539,#730);
#603=LINE('',#1541,#731);
#604=LINE('',#1543,#732);
#605=LINE('',#1545,#733);
#606=LINE('',#1546,#734);
#607=LINE('',#1548,#735);
#608=LINE('',#1552,#736);
#609=LINE('',#1555,#737);
#610=LINE('',#1556,#738);
#611=LINE('',#1560,#739);
#612=LINE('',#1562,#740);
#613=LINE('',#1564,#741);
#614=LINE('',#1566,#742);
#615=LINE('',#1568,#743);
#616=LINE('',#1571,#744);
#617=LINE('',#1573,#745);
#618=LINE('',#1575,#746);
#619=LINE('',#1577,#747);
#620=LINE('',#1578,#748);
#621=LINE('',#1580,#749);
#622=LINE('',#1582,#750);
#623=LINE('',#1584,#751);
#624=LINE('',#1586,#752);
#625=LINE('',#1587,#753);
#626=LINE('',#1589,#754);
#627=LINE('',#1591,#755);
#628=LINE('',#1595,#756);
#629=LINE('',#1598,#757);
#630=LINE('',#1600,#758);
#631=LINE('',#1602,#759);
#632=LINE('',#1618,#760);
#633=LINE('',#1620,#761);
#634=LINE('',#1622,#762);
#635=LINE('',#1630,#763);
#636=LINE('',#1632,#764);
#637=LINE('',#1634,#765);
#638=LINE('',#1636,#766);
#639=LINE('',#1640,#767);
#640=LINE('',#1643,#768);
#641=LINE('',#1644,#769);
#642=LINE('',#1646,#770);
#643=LINE('',#1648,#771);
#644=LINE('',#1650,#772);
#645=LINE('',#1652,#773);
#646=LINE('',#1654,#774);
#647=LINE('',#1656,#775);
#648=LINE('',#1658,#776);
#649=LINE('',#1662,#777);
#650=LINE('',#1664,#778);
#651=LINE('',#1666,#779);
#652=LINE('',#1668,#780);
#653=LINE('',#1670,#781);
#654=LINE('',#1671,#782);
#655=LINE('',#1672,#783);
#656=LINE('',#1674,#784);
#657=LINE('',#1676,#785);
#658=LINE('',#1678,#786);
#659=LINE('',#1680,#787);
#660=LINE('',#1682,#788);
#661=LINE('',#1684,#789);
#662=LINE('',#1686,#790);
#663=LINE('',#1688,#791);
#664=LINE('',#1690,#792);
#665=LINE('',#1691,#793);
#666=LINE('',#1693,#794);
#667=LINE('',#1695,#795);
#668=LINE('',#1697,#796);
#669=LINE('',#1699,#797);
#670=LINE('',#1701,#798);
#671=LINE('',#1702,#799);
#672=LINE('',#1705,#800);
#673=LINE('',#1709,#801);
#674=LINE('',#1711,#802);
#675=LINE('',#1715,#803);
#676=LINE('',#1717,#804);
#677=LINE('',#1719,#805);
#678=LINE('',#1721,#806);
#679=LINE('',#1723,#807);
#680=LINE('',#1727,#808);
#681=LINE('',#1730,#809);
#682=LINE('',#1732,#810);
#683=LINE('',#1734,#811);
#684=LINE('',#1736,#812);
#685=LINE('',#1737,#813);
#686=LINE('',#1738,#814);
#687=LINE('',#1740,#815);
#688=LINE('',#1742,#816);
#689=LINE('',#1744,#817);
#690=LINE('',#1747,#818);
#691=LINE('',#1748,#819);
#692=LINE('',#1752,#820);
#693=LINE('',#1754,#821);
#694=LINE('',#1755,#822);
#695=LINE('',#1757,#823);
#696=LINE('',#1758,#824);
#697=LINE('',#1760,#825);
#698=LINE('',#1762,#826);
#699=LINE('',#1763,#827);
#700=LINE('',#1768,#828);
#701=LINE('',#1770,#829);
#702=LINE('',#1771,#830);
#703=LINE('',#1776,#831);
#704=LINE('',#1780,#832);
#705=LINE('',#1782,#833);
#706=LINE('',#1786,#834);
#707=LINE('',#1788,#835);
#708=LINE('',#1790,#836);
#709=LINE('',#1792,#837);
#710=LINE('',#1794,#838);
#711=VECTOR('',#1214,1.);
#712=VECTOR('',#1215,1.);
#713=VECTOR('',#1216,1.);
#714=VECTOR('',#1217,1.);
#715=VECTOR('',#1220,1.);
#716=VECTOR('',#1221,1.);
#717=VECTOR('',#1222,1.);
#718=VECTOR('',#1223,1.);
#719=VECTOR('',#1226,1.);
#720=VECTOR('',#1227,1.);
#721=VECTOR('',#1228,1.);
#722=VECTOR('',#1229,1.);
#723=VECTOR('',#1230,1.);
#724=VECTOR('',#1235,1.);
#725=VECTOR('',#1236,1.);
#726=VECTOR('',#1237,1.);
#727=VECTOR('',#1238,1.);
#728=VECTOR('',#1239,1.);
#729=VECTOR('',#1240,1.);
#730=VECTOR('',#1241,1.);
#731=VECTOR('',#1242,1.);
#732=VECTOR('',#1243,1.);
#733=VECTOR('',#1244,1.);
#734=VECTOR('',#1245,1.);
#735=VECTOR('',#1246,1.);
#736=VECTOR('',#1251,1.);
#737=VECTOR('',#1252,1.);
#738=VECTOR('',#1253,1.);
#739=VECTOR('',#1258,1.);
#740=VECTOR('',#1259,1.);
#741=VECTOR('',#1260,1.);
#742=VECTOR('',#1261,1.);
#743=VECTOR('',#1264,1.);
#744=VECTOR('',#1265,1.);
#745=VECTOR('',#1266,1.);
#746=VECTOR('',#1267,1.);
#747=VECTOR('',#1270,1.);
#748=VECTOR('',#1271,1.);
#749=VECTOR('',#1274,1.);
#750=VECTOR('',#1275,1.);
#751=VECTOR('',#1276,1.);
#752=VECTOR('',#1277,1.);
#753=VECTOR('',#1278,1.);
#754=VECTOR('',#1279,1.);
#755=VECTOR('',#1280,1.);
#756=VECTOR('',#1285,1.);
#757=VECTOR('',#1286,1.);
#758=VECTOR('',#1287,1.);
#759=VECTOR('',#1288,1.);
#760=VECTOR('',#1305,1.);
#761=VECTOR('',#1306,1.);
#762=VECTOR('',#1307,1.);
#763=VECTOR('',#1318,1.);
#764=VECTOR('',#1321,1.);
#765=VECTOR('',#1322,1.);
#766=VECTOR('',#1323,1.);
#767=VECTOR('',#1328,1.);
#768=VECTOR('',#1329,1.);
#769=VECTOR('',#1330,1.);
#770=VECTOR('',#1331,1.);
#771=VECTOR('',#1332,1.);
#772=VECTOR('',#1333,1.);
#773=VECTOR('',#1334,1.);
#774=VECTOR('',#1335,1.);
#775=VECTOR('',#1336,1.);
#776=VECTOR('',#1337,1.);
#777=VECTOR('',#1342,1.);
#778=VECTOR('',#1343,1.);
#779=VECTOR('',#1346,1.);
#780=VECTOR('',#1347,1.);
#781=VECTOR('',#1350,1.);
#782=VECTOR('',#1351,1.);
#783=VECTOR('',#1352,1.);
#784=VECTOR('',#1353,1.);
#785=VECTOR('',#1354,1.);
#786=VECTOR('',#1357,1.);
#787=VECTOR('',#1358,1.);
#788=VECTOR('',#1359,1.);
#789=VECTOR('',#1362,1.);
#790=VECTOR('',#1365,1.);
#791=VECTOR('',#1368,1.);
#792=VECTOR('',#1371,1.);
#793=VECTOR('',#1372,1.);
#794=VECTOR('',#1375,1.);
#795=VECTOR('',#1376,1.);
#796=VECTOR('',#1377,1.);
#797=VECTOR('',#1378,1.);
#798=VECTOR('',#1381,1.);
#799=VECTOR('',#1382,1.);
#800=VECTOR('',#1387,1.);
#801=VECTOR('',#1394,1.);
#802=VECTOR('',#1395,1.);
#803=VECTOR('',#1400,1.);
#804=VECTOR('',#1401,1.);
#805=VECTOR('',#1402,1.);
#806=VECTOR('',#1405,1.);
#807=VECTOR('',#1408,1.);
#808=VECTOR('',#1415,1.);
#809=VECTOR('',#1416,1.);
#810=VECTOR('',#1417,1.);
#811=VECTOR('',#1418,1.);
#812=VECTOR('',#1421,1.);
#813=VECTOR('',#1422,1.);
#814=VECTOR('',#1423,1.);
#815=VECTOR('',#1424,1.);
#816=VECTOR('',#1425,1.);
#817=VECTOR('',#1428,1.);
#818=VECTOR('',#1429,1.);
#819=VECTOR('',#1430,1.);
#820=VECTOR('',#1435,1.);
#821=VECTOR('',#1436,1.);
#822=VECTOR('',#1437,1.);
#823=VECTOR('',#1440,1.);
#824=VECTOR('',#1441,1.);
#825=VECTOR('',#1442,1.);
#826=VECTOR('',#1443,1.);
#827=VECTOR('',#1444,1.);
#828=VECTOR('',#1453,1.);
#829=VECTOR('',#1456,1.);
#830=VECTOR('',#1457,1.);
#831=VECTOR('',#1466,1.);
#832=VECTOR('',#1473,1.);
#833=VECTOR('',#1474,1.);
#834=VECTOR('',#1479,1.);
#835=VECTOR('',#1480,1.);
#836=VECTOR('',#1481,1.);
#837=VECTOR('',#1484,1.);
#838=VECTOR('',#1487,1.);
#839=EDGE_LOOP('',(#47,#48,#49,#50));
#840=EDGE_LOOP('',(#51,#52,#53,#54));
#841=EDGE_LOOP('',(#55,#56,#57,#58,#59,#60));
#842=EDGE_LOOP('',(#61));
#843=EDGE_LOOP('',(#62,#63,#64,#65,#66,#67,#68,#69,#70,#71,#72,#73));
#844=EDGE_LOOP('',(#74));
#845=EDGE_LOOP('',(#75,#76,#77,#78));
#846=EDGE_LOOP('',(#79));
#847=EDGE_LOOP('',(#80,#81,#82,#83,#84));
#848=EDGE_LOOP('',(#85,#86,#87,#88));
#849=EDGE_LOOP('',(#89,#90,#91,#92));
#850=EDGE_LOOP('',(#93,#94,#95,#96,#97,#98,#99,#100));
#851=EDGE_LOOP('',(#101));
#852=EDGE_LOOP('',(#102,#103,#104,#105));
#853=EDGE_LOOP('',(#106));
#854=EDGE_LOOP('',(#107));
#855=EDGE_LOOP('',(#108));
#856=EDGE_LOOP('',(#109));
#857=EDGE_LOOP('',(#110));
#858=EDGE_LOOP('',(#111));
#859=EDGE_LOOP('',(#112));
#860=EDGE_LOOP('',(#113,#114,#115,#116));
#861=EDGE_LOOP('',(#117));
#862=EDGE_LOOP('',(#118));
#863=EDGE_LOOP('',(#119));
#864=EDGE_LOOP('',(#120));
#865=EDGE_LOOP('',(#121));
#866=EDGE_LOOP('',(#122));
#867=EDGE_LOOP('',(#123,#124,#125,#126));
#868=EDGE_LOOP('',(#127,#128,#129,#130));
#869=EDGE_LOOP('',(#131));
#870=EDGE_LOOP('',(#132,#133,#134,#135,#136,#137,#138,#139,#140,#141,#142,
#143));
#871=EDGE_LOOP('',(#144));
#872=EDGE_LOOP('',(#145,#146,#147,#148));
#873=EDGE_LOOP('',(#149,#150,#151,#152));
#874=EDGE_LOOP('',(#153,#154,#155,#156,#157,#158,#159,#160));
#875=EDGE_LOOP('',(#161,#162,#163,#164));
#876=EDGE_LOOP('',(#165,#166,#167,#168));
#877=EDGE_LOOP('',(#169,#170,#171,#172));
#878=EDGE_LOOP('',(#173,#174,#175,#176));
#879=EDGE_LOOP('',(#177,#178,#179,#180));
#880=EDGE_LOOP('',(#181,#182,#183,#184,#185,#186,#187,#188));
#881=EDGE_LOOP('',(#189,#190,#191,#192));
#882=EDGE_LOOP('',(#193,#194,#195,#196,#197,#198));
#883=EDGE_LOOP('',(#199,#200,#201,#202,#203,#204));
#884=EDGE_LOOP('',(#205,#206,#207,#208));
#885=EDGE_LOOP('',(#209));
#886=EDGE_LOOP('',(#210));
#887=EDGE_LOOP('',(#211,#212,#213,#214,#215,#216));
#888=EDGE_LOOP('',(#217));
#889=EDGE_LOOP('',(#218,#219,#220,#221,#222));
#890=EDGE_LOOP('',(#223,#224,#225,#226,#227,#228));
#891=EDGE_LOOP('',(#229,#230,#231,#232));
#892=EDGE_LOOP('',(#233,#234,#235,#236));
#893=EDGE_LOOP('',(#237));
#894=EDGE_LOOP('',(#238));
#895=EDGE_LOOP('',(#239,#240,#241,#242));
#896=EDGE_LOOP('',(#243,#244,#245,#246,#247,#248));
#897=EDGE_LOOP('',(#249,#250,#251,#252));
#898=EDGE_LOOP('',(#253));
#899=EDGE_LOOP('',(#254,#255,#256,#257,#258));
#900=EDGE_LOOP('',(#259,#260,#261,#262,#263,#264,#265,#266));
#901=EDGE_LOOP('',(#267));
#902=EDGE_LOOP('',(#268));
#903=EDGE_LOOP('',(#269));
#904=EDGE_LOOP('',(#270));
#905=EDGE_LOOP('',(#271,#272,#273,#274));
#906=EDGE_LOOP('',(#275,#276,#277,#278));
#907=EDGE_LOOP('',(#279,#280,#281,#282));
#908=EDGE_LOOP('',(#283,#284,#285,#286));
#909=EDGE_LOOP('',(#287,#288,#289,#290));
#910=EDGE_LOOP('',(#291,#292,#293,#294,#295,#296));
#911=EDGE_LOOP('',(#297,#298,#299,#300,#301,#302));
#912=EDGE_LOOP('',(#303,#304,#305,#306));
#913=EDGE_LOOP('',(#307));
#914=EDGE_LOOP('',(#308));
#915=EDGE_LOOP('',(#309,#310,#311,#312,#313,#314));
#916=EDGE_LOOP('',(#315));
#917=EDGE_LOOP('',(#316,#317,#318,#319,#320));
#918=EDGE_LOOP('',(#321,#322,#323,#324,#325,#326));
#919=EDGE_LOOP('',(#327,#328,#329,#330));
#920=EDGE_LOOP('',(#331,#332,#333,#334));
#921=EDGE_LOOP('',(#335));
#922=EDGE_LOOP('',(#336));
#923=EDGE_LOOP('',(#337));
#924=EDGE_LOOP('',(#338));
#925=FACE_BOUND('',#839,.T.);
#926=FACE_BOUND('',#840,.T.);
#927=FACE_BOUND('',#841,.T.);
#928=FACE_BOUND('',#842,.T.);
#929=FACE_BOUND('',#843,.T.);
#930=FACE_BOUND('',#844,.T.);
#931=FACE_BOUND('',#845,.T.);
#932=FACE_BOUND('',#846,.T.);
#933=FACE_BOUND('',#847,.T.);
#934=FACE_BOUND('',#848,.T.);
#935=FACE_BOUND('',#849,.T.);
#936=FACE_BOUND('',#850,.T.);
#937=FACE_BOUND('',#851,.T.);
#938=FACE_BOUND('',#852,.T.);
#939=FACE_BOUND('',#853,.T.);
#940=FACE_BOUND('',#854,.T.);
#941=FACE_BOUND('',#855,.T.);
#942=FACE_BOUND('',#856,.T.);
#943=FACE_BOUND('',#857,.T.);
#944=FACE_BOUND('',#858,.T.);
#945=FACE_BOUND('',#859,.T.);
#946=FACE_BOUND('',#860,.T.);
#947=FACE_BOUND('',#861,.T.);
#948=FACE_BOUND('',#862,.T.);
#949=FACE_BOUND('',#863,.T.);
#950=FACE_BOUND('',#864,.T.);
#951=FACE_BOUND('',#865,.T.);
#952=FACE_BOUND('',#866,.T.);
#953=FACE_BOUND('',#867,.T.);
#954=FACE_BOUND('',#868,.T.);
#955=FACE_BOUND('',#869,.T.);
#956=FACE_BOUND('',#870,.T.);
#957=FACE_BOUND('',#871,.T.);
#958=FACE_BOUND('',#872,.T.);
#959=FACE_BOUND('',#873,.T.);
#960=FACE_BOUND('',#874,.T.);
#961=FACE_BOUND('',#875,.T.);
#962=FACE_BOUND('',#876,.T.);
#963=FACE_BOUND('',#877,.T.);
#964=FACE_BOUND('',#878,.T.);
#965=FACE_BOUND('',#879,.T.);
#966=FACE_BOUND('',#880,.T.);
#967=FACE_BOUND('',#881,.T.);
#968=FACE_BOUND('',#882,.T.);
#969=FACE_BOUND('',#883,.T.);
#970=FACE_BOUND('',#884,.T.);
#971=FACE_BOUND('',#885,.T.);
#972=FACE_BOUND('',#886,.T.);
#973=FACE_BOUND('',#887,.T.);
#974=FACE_BOUND('',#888,.T.);
#975=FACE_BOUND('',#889,.T.);
#976=FACE_BOUND('',#890,.T.);
#977=FACE_BOUND('',#891,.T.);
#978=FACE_BOUND('',#892,.T.);
#979=FACE_BOUND('',#893,.T.);
#980=FACE_BOUND('',#894,.T.);
#981=FACE_BOUND('',#895,.T.);
#982=FACE_BOUND('',#896,.T.);
#983=FACE_BOUND('',#897,.T.);
#984=FACE_BOUND('',#898,.T.);
#985=FACE_BOUND('',#899,.T.);
#986=FACE_BOUND('',#900,.T.);
#987=FACE_BOUND('',#901,.T.);
#988=FACE_BOUND('',#902,.T.);
#989=FACE_BOUND('',#903,.T.);
#990=FACE_BOUND('',#904,.T.);
#991=FACE_BOUND('',#905,.T.);
#992=FACE_BOUND('',#906,.T.);
#993=FACE_BOUND('',#907,.T.);
#994=FACE_BOUND('',#908,.T.);
#995=FACE_BOUND('',#909,.T.);
#996=FACE_BOUND('',#910,.T.);
#997=FACE_BOUND('',#911,.T.);
#998=FACE_BOUND('',#912,.T.);
#999=FACE_BOUND('',#913,.T.);
#1000=FACE_BOUND('',#914,.T.);
#1001=FACE_BOUND('',#915,.T.);
#1002=FACE_BOUND('',#916,.T.);
#1003=FACE_BOUND('',#917,.T.);
#1004=FACE_BOUND('',#918,.T.);
#1005=FACE_BOUND('',#919,.T.);
#1006=FACE_BOUND('',#920,.T.);
#1007=FACE_BOUND('',#921,.T.);
#1008=FACE_BOUND('',#922,.T.);
#1009=FACE_BOUND('',#923,.T.);
#1010=FACE_BOUND('',#924,.T.);
#1011=PLANE('',#1133);
#1012=PLANE('',#1134);
#1013=PLANE('',#1135);
#1014=PLANE('',#1136);
#1015=PLANE('',#1139);
#1016=PLANE('',#1140);
#1017=PLANE('',#1142);
#1018=PLANE('',#1143);
#1019=PLANE('',#1144);
#1020=PLANE('',#1145);
#1021=PLANE('',#1151);
#1022=PLANE('',#1159);
#1023=PLANE('',#1160);
#1024=PLANE('',#1161);
#1025=PLANE('',#1164);
#1026=PLANE('',#1165);
#1027=PLANE('',#1166);
#1028=PLANE('',#1167);
#1029=PLANE('',#1168);
#1030=PLANE('',#1169);
#1031=PLANE('',#1170);
#1032=PLANE('',#1171);
#1033=PLANE('',#1172);
#1034=PLANE('',#1173);
#1035=PLANE('',#1174);
#1036=PLANE('',#1175);
#1037=PLANE('',#1176);
#1038=PLANE('',#1178);
#1039=PLANE('',#1179);
#1040=PLANE('',#1181);
#1041=PLANE('',#1182);
#1042=PLANE('',#1183);
#1043=PLANE('',#1185);
#1044=PLANE('',#1186);
#1045=PLANE('',#1187);
#1046=PLANE('',#1188);
#1047=PLANE('',#1190);
#1048=PLANE('',#1193);
#1049=PLANE('',#1194);
#1050=PLANE('',#1195);
#1051=PLANE('',#1196);
#1052=PLANE('',#1197);
#1053=PLANE('',#1198);
#1054=PLANE('',#1199);
#1055=PLANE('',#1200);
#1056=PLANE('',#1202);
#1057=PLANE('',#1203);
#1058=PLANE('',#1205);
#1059=PLANE('',#1206);
#1060=PLANE('',#1207);
#1061=ADVANCED_FACE('',(#925),#1011,.T.);
#1062=ADVANCED_FACE('',(#926),#1012,.T.);
#1063=ADVANCED_FACE('',(#927),#1013,.T.);
#1064=ADVANCED_FACE('',(#928,#929,#930),#1014,.T.);
#1065=ADVANCED_FACE('',(#931),#1015,.T.);
#1066=ADVANCED_FACE('',(#932,#933),#1016,.F.);
#1067=ADVANCED_FACE('',(#934),#1017,.T.);
#1068=ADVANCED_FACE('',(#935),#1018,.T.);
#1069=ADVANCED_FACE('',(#936),#1019,.T.);
#1070=ADVANCED_FACE('',(#937,#938,#939,#940,#941,#942),#1020,.T.);
#1071=ADVANCED_FACE('',(#943,#944,#945,#946,#947,#948),#1021,.T.);
#1072=ADVANCED_FACE('',(#949,#950),#20,.F.);
#1073=ADVANCED_FACE('',(#951,#952),#21,.F.);
#1074=ADVANCED_FACE('',(#953),#1022,.T.);
#1075=ADVANCED_FACE('',(#954),#1023,.T.);
#1076=ADVANCED_FACE('',(#955,#956,#957),#1024,.T.);
#1077=ADVANCED_FACE('',(#958),#1025,.T.);
#1078=ADVANCED_FACE('',(#959),#1026,.T.);
#1079=ADVANCED_FACE('',(#960),#1027,.T.);
#1080=ADVANCED_FACE('',(#961),#1028,.T.);
#1081=ADVANCED_FACE('',(#962),#1029,.T.);
#1082=ADVANCED_FACE('',(#963),#1030,.T.);
#1083=ADVANCED_FACE('',(#964),#1031,.T.);
#1084=ADVANCED_FACE('',(#965),#1032,.T.);
#1085=ADVANCED_FACE('',(#966),#1033,.T.);
#1086=ADVANCED_FACE('',(#967),#1034,.T.);
#1087=ADVANCED_FACE('',(#968),#1035,.F.);
#1088=ADVANCED_FACE('',(#969),#1036,.T.);
#1089=ADVANCED_FACE('',(#970),#1037,.T.);
#1090=ADVANCED_FACE('',(#971,#972),#22,.F.);
#1091=ADVANCED_FACE('',(#973),#1038,.F.);
#1092=ADVANCED_FACE('',(#974,#975),#1039,.T.);
#1093=ADVANCED_FACE('',(#976),#1040,.T.);
#1094=ADVANCED_FACE('',(#977),#1041,.T.);
#1095=ADVANCED_FACE('',(#978),#1042,.F.);
#1096=ADVANCED_FACE('',(#979,#980),#23,.F.);
#1097=ADVANCED_FACE('',(#981),#1043,.T.);
#1098=ADVANCED_FACE('',(#982),#1044,.T.);
#1099=ADVANCED_FACE('',(#983),#1045,.T.);
#1100=ADVANCED_FACE('',(#984,#985),#1046,.F.);
#1101=ADVANCED_FACE('',(#986),#1047,.T.);
#1102=ADVANCED_FACE('',(#987,#988),#24,.F.);
#1103=ADVANCED_FACE('',(#989,#990),#25,.F.);
#1104=ADVANCED_FACE('',(#991),#1048,.T.);
#1105=ADVANCED_FACE('',(#992),#1049,.T.);
#1106=ADVANCED_FACE('',(#993),#1050,.T.);
#1107=ADVANCED_FACE('',(#994),#1051,.T.);
#1108=ADVANCED_FACE('',(#995),#1052,.T.);
#1109=ADVANCED_FACE('',(#996),#1053,.F.);
#1110=ADVANCED_FACE('',(#997),#1054,.T.);
#1111=ADVANCED_FACE('',(#998),#1055,.T.);
#1112=ADVANCED_FACE('',(#999,#1000),#26,.F.);
#1113=ADVANCED_FACE('',(#1001),#1056,.F.);
#1114=ADVANCED_FACE('',(#1002,#1003),#1057,.T.);
#1115=ADVANCED_FACE('',(#1004),#1058,.T.);
#1116=ADVANCED_FACE('',(#1005),#1059,.T.);
#1117=ADVANCED_FACE('',(#1006),#1060,.F.);
#1118=ADVANCED_FACE('',(#1007,#1008),#27,.F.);
#1119=ADVANCED_FACE('',(#1009,#1010),#28,.F.);
#1120=CLOSED_SHELL('',(#1061,#1062,#1063,#1064,#1065,#1066,#1067,#1068,
#1069,#1070,#1071,#1072,#1073,#1074,#1075,#1076,#1077,#1078,#1079,#1080,
#1081,#1082,#1083,#1084,#1085,#1086,#1087,#1088,#1089,#1090,#1091,#1092,
#1093,#1094,#1095,#1096,#1097,#1098,#1099,#1100,#1101,#1102,#1103,#1104,
#1105,#1106,#1107,#1108,#1109,#1110,#1111,#1112,#1113,#1114,#1115,#1116,
#1117,#1118,#1119));
#1121=STYLED_ITEM('',(#1122),#1129);
#1122=PRESENTATION_STYLE_ASSIGNMENT((#1123));
#1123=SURFACE_STYLE_USAGE(.BOTH.,#1124);
#1124=SURFACE_SIDE_STYLE('',(#1125));
#1125=SURFACE_STYLE_FILL_AREA(#1126);
#1126=FILL_AREA_STYLE('',(#1127));
#1127=FILL_AREA_STYLE_COLOUR('',#1128);
#1128=COLOUR_RGB('',0.615686274509804,0.811764705882353,0.929411764705882);
#1129=MANIFOLD_SOLID_BREP('Part 3',#1120);
#1130=SHAPE_DEFINITION_REPRESENTATION(#1804,#1131);
#1131=SHAPE_REPRESENTATION('Part 3',(#1132),#1799);
#1132=AXIS2_PLACEMENT_3D('',#1494,#1210,#1211);
#1133=AXIS2_PLACEMENT_3D('',#1495,#1212,#1213);
#1134=AXIS2_PLACEMENT_3D('',#1504,#1218,#1219);
#1135=AXIS2_PLACEMENT_3D('',#1513,#1224,#1225);
#1136=AXIS2_PLACEMENT_3D('',#1523,#1231,#1232);
#1137=AXIS2_PLACEMENT_3D('',#1524,#1233,#1234);
#1138=AXIS2_PLACEMENT_3D('',#1549,#1247,#1248);
#1139=AXIS2_PLACEMENT_3D('',#1551,#1249,#1250);
#1140=AXIS2_PLACEMENT_3D('',#1557,#1254,#1255);
#1141=AXIS2_PLACEMENT_3D('',#1558,#1256,#1257);
#1142=AXIS2_PLACEMENT_3D('',#1567,#1262,#1263);
#1143=AXIS2_PLACEMENT_3D('',#1576,#1268,#1269);
#1144=AXIS2_PLACEMENT_3D('',#1579,#1272,#1273);
#1145=AXIS2_PLACEMENT_3D('',#1592,#1281,#1282);
#1146=AXIS2_PLACEMENT_3D('',#1593,#1283,#1284);
#1147=AXIS2_PLACEMENT_3D('',#1603,#1289,#1290);
#1148=AXIS2_PLACEMENT_3D('',#1605,#1291,#1292);
#1149=AXIS2_PLACEMENT_3D('',#1607,#1293,#1294);
#1150=AXIS2_PLACEMENT_3D('',#1609,#1295,#1296);
#1151=AXIS2_PLACEMENT_3D('',#1611,#1297,#1298);
#1152=AXIS2_PLACEMENT_3D('',#1612,#1299,#1300);
#1153=AXIS2_PLACEMENT_3D('',#1614,#1301,#1302);
#1154=AXIS2_PLACEMENT_3D('',#1616,#1303,#1304);
#1155=AXIS2_PLACEMENT_3D('',#1623,#1308,#1309);
#1156=AXIS2_PLACEMENT_3D('',#1625,#1310,#1311);
#1157=AXIS2_PLACEMENT_3D('',#1627,#1312,#1313);
#1158=AXIS2_PLACEMENT_3D('',#1628,#1314,#1315);
#1159=AXIS2_PLACEMENT_3D('',#1629,#1316,#1317);
#1160=AXIS2_PLACEMENT_3D('',#1631,#1319,#1320);
#1161=AXIS2_PLACEMENT_3D('',#1637,#1324,#1325);
#1162=AXIS2_PLACEMENT_3D('',#1638,#1326,#1327);
#1163=AXIS2_PLACEMENT_3D('',#1659,#1338,#1339);
#1164=AXIS2_PLACEMENT_3D('',#1661,#1340,#1341);
#1165=AXIS2_PLACEMENT_3D('',#1665,#1344,#1345);
#1166=AXIS2_PLACEMENT_3D('',#1669,#1348,#1349);
#1167=AXIS2_PLACEMENT_3D('',#1677,#1355,#1356);
#1168=AXIS2_PLACEMENT_3D('',#1683,#1360,#1361);
#1169=AXIS2_PLACEMENT_3D('',#1685,#1363,#1364);
#1170=AXIS2_PLACEMENT_3D('',#1687,#1366,#1367);
#1171=AXIS2_PLACEMENT_3D('',#1689,#1369,#1370);
#1172=AXIS2_PLACEMENT_3D('',#1692,#1373,#1374);
#1173=AXIS2_PLACEMENT_3D('',#1700,#1379,#1380);
#1174=AXIS2_PLACEMENT_3D('',#1703,#1383,#1384);
#1175=AXIS2_PLACEMENT_3D('',#1704,#1385,#1386);
#1176=AXIS2_PLACEMENT_3D('',#1706,#1388,#1389);
#1177=AXIS2_PLACEMENT_3D('',#1707,#1390,#1391);
#1178=AXIS2_PLACEMENT_3D('',#1708,#1392,#1393);
#1179=AXIS2_PLACEMENT_3D('',#1712,#1396,#1397);
#1180=AXIS2_PLACEMENT_3D('',#1713,#1398,#1399);
#1181=AXIS2_PLACEMENT_3D('',#1720,#1403,#1404);
#1182=AXIS2_PLACEMENT_3D('',#1722,#1406,#1407);
#1183=AXIS2_PLACEMENT_3D('',#1724,#1409,#1410);
#1184=AXIS2_PLACEMENT_3D('',#1725,#1411,#1412);
#1185=AXIS2_PLACEMENT_3D('',#1726,#1413,#1414);
#1186=AXIS2_PLACEMENT_3D('',#1735,#1419,#1420);
#1187=AXIS2_PLACEMENT_3D('',#1743,#1426,#1427);
#1188=AXIS2_PLACEMENT_3D('',#1749,#1431,#1432);
#1189=AXIS2_PLACEMENT_3D('',#1750,#1433,#1434);
#1190=AXIS2_PLACEMENT_3D('',#1756,#1438,#1439);
#1191=AXIS2_PLACEMENT_3D('',#1764,#1445,#1446);
#1192=AXIS2_PLACEMENT_3D('',#1765,#1447,#1448);
#1193=AXIS2_PLACEMENT_3D('',#1766,#1449,#1450);
#1194=AXIS2_PLACEMENT_3D('',#1767,#1451,#1452);
#1195=AXIS2_PLACEMENT_3D('',#1769,#1454,#1455);
#1196=AXIS2_PLACEMENT_3D('',#1772,#1458,#1459);
#1197=AXIS2_PLACEMENT_3D('',#1773,#1460,#1461);
#1198=AXIS2_PLACEMENT_3D('',#1774,#1462,#1463);
#1199=AXIS2_PLACEMENT_3D('',#1775,#1464,#1465);
#1200=AXIS2_PLACEMENT_3D('',#1777,#1467,#1468);
#1201=AXIS2_PLACEMENT_3D('',#1778,#1469,#1470);
#1202=AXIS2_PLACEMENT_3D('',#1779,#1471,#1472);
#1203=AXIS2_PLACEMENT_3D('',#1783,#1475,#1476);
#1204=AXIS2_PLACEMENT_3D('',#1784,#1477,#1478);
#1205=AXIS2_PLACEMENT_3D('',#1791,#1482,#1483);
#1206=AXIS2_PLACEMENT_3D('',#1793,#1485,#1486);
#1207=AXIS2_PLACEMENT_3D('',#1795,#1488,#1489);
#1208=AXIS2_PLACEMENT_3D('',#1796,#1490,#1491);
#1209=AXIS2_PLACEMENT_3D('',#1797,#1492,#1493);
#1210=DIRECTION('',(0.,0.,1.));
#1211=DIRECTION('',(1.,0.,0.));
#1212=DIRECTION('',(0.,1.,-5.30877374493806E-47));
#1213=DIRECTION('',(0.,5.30877374493806E-47,1.));
#1214=DIRECTION('',(-1.,-3.8533320703642E-32,6.888549504684E-16));
#1215=DIRECTION('',(-1.3777099009368E-15,-4.47505770873134E-16,1.));
#1216=DIRECTION('',(-1.,-3.8533320703642E-32,6.888549504684E-16));
#1217=DIRECTION('',(1.3777099009368E-15,-4.47505770873134E-16,1.));
#1218=DIRECTION('',(5.96565886628306E-16,0.5,0.866025403784439));
#1219=DIRECTION('',(0.,-0.866025403784439,0.5));
#1220=DIRECTION('',(-1.,-3.8533320703642E-32,6.888549504684E-16));
#1221=DIRECTION('',(-0.447213595499958,0.774596669241484,-0.447213595499958));
#1222=DIRECTION('',(-1.,-3.8533320703642E-32,6.888549504684E-16));
#1223=DIRECTION('',(-6.888549504684E-16,0.866025403784439,-0.5));
#1224=DIRECTION('',(0.,1.,-5.30877374493806E-47));
#1225=DIRECTION('',(0.,5.30877374493806E-47,1.));
#1226=DIRECTION('',(6.888549504684E-16,-1.11876442718284E-16,1.));
#1227=DIRECTION('',(1.,0.,0.));
#1228=DIRECTION('',(0.,5.30877374493806E-47,1.));
#1229=DIRECTION('',(6.888549504684E-16,-1.11876442718284E-16,1.));
#1230=DIRECTION('',(-1.3777099009368E-15,-5.30877374493806E-47,-1.));
#1231=DIRECTION('',(0.,-1.11876442718284E-16,1.));
#1232=DIRECTION('',(0.,-1.,-1.11876442718284E-16));
#1233=DIRECTION('',(0.,1.11876442718284E-16,-1.));
#1234=DIRECTION('',(0.,-1.,-1.11876442718284E-16));
#1235=DIRECTION('',(1.,0.,0.));
#1236=DIRECTION('',(0.,-1.,5.30877374493806E-47));
#1237=DIRECTION('',(1.,0.,0.));
#1238=DIRECTION('',(0.,-1.,5.30877374493806E-47));
#1239=DIRECTION('',(-1.,0.,0.));
#1240=DIRECTION('',(-0.5,-0.866025403784439,-9.68878414790681E-17));
#1241=DIRECTION('',(0.,-1.,5.30877374493806E-47));
#1242=DIRECTION('',(0.,-1.,-1.11876442718284E-16));
#1243=DIRECTION('',(1.,0.,0.));
#1244=DIRECTION('',(0.,-1.,-1.11876442718284E-16));
#1245=DIRECTION('',(0.,-1.,5.30877374493806E-47));
#1246=DIRECTION('',(0.5,-0.866025403784439,-9.68878414790681E-17));
#1247=DIRECTION('',(0.,-1.11876442718284E-16,1.));
#1248=DIRECTION('',(0.,-1.,-1.11876442718284E-16));
#1249=DIRECTION('',(0.,1.,-5.30877374493806E-47));
#1250=DIRECTION('',(1.,0.,0.));
#1251=DIRECTION('',(1.,0.,0.));
#1252=DIRECTION('',(0.,-5.30877374493806E-47,-1.));
#1253=DIRECTION('',(0.,-1.11876442718284E-16,1.));
#1254=DIRECTION('',(0.,5.30877374493806E-47,1.));
#1255=DIRECTION('',(0.,-1.,5.30877374493806E-47));
#1256=DIRECTION('',(0.,-5.30877374493806E-47,-1.));
#1257=DIRECTION('',(0.,-1.,5.30877374493806E-47));
#1258=DIRECTION('',(0.5,-0.866025403784439,4.59753292606021E-47));
#1259=DIRECTION('',(0.,-1.,5.30877374493806E-47));
#1260=DIRECTION('',(1.,0.,0.));
#1261=DIRECTION('',(0.,-1.,5.30877374493806E-47));
#1262=DIRECTION('',(0.,0.5,-0.866025403784439));
#1263=DIRECTION('',(0.,0.866025403784439,0.5));
#1264=DIRECTION('',(1.,0.,0.));
#1265=DIRECTION('',(0.,0.866025403784439,0.5));
#1266=DIRECTION('',(1.,0.,0.));
#1267=DIRECTION('',(0.,0.866025403784439,0.5));
#1268=DIRECTION('',(0.,1.,-5.30877374493806E-47));
#1269=DIRECTION('',(0.,5.30877374493806E-47,1.));
#1270=DIRECTION('',(0.,5.30877374493806E-47,1.));
#1271=DIRECTION('',(0.,5.30877374493806E-47,1.));
#1272=DIRECTION('',(0.,1.,-5.30877374493806E-47));
#1273=DIRECTION('',(0.,5.30877374493806E-47,1.));
#1274=DIRECTION('',(1.3777099009368E-15,-4.47505770873134E-16,1.));
#1275=DIRECTION('',(-1.,-3.8533320703642E-32,6.888549504684E-16));
#1276=DIRECTION('',(6.888549504684E-16,-1.11876442718284E-16,1.));
#1277=DIRECTION('',(1.,0.,0.));
#1278=DIRECTION('',(0.,-5.30877374493806E-47,-1.));
#1279=DIRECTION('',(1.,0.,0.));
#1280=DIRECTION('',(6.888549504684E-16,-1.11876442718284E-16,1.));
#1281=DIRECTION('',(2.02509012521189E-31,-1.,2.38040957252392E-16));
#1282=DIRECTION('',(-1.,-2.02509012521189E-31,4.82054391927805E-47));
#1283=DIRECTION('',(2.02509012521189E-31,-1.,2.38040957252392E-16));
#1284=DIRECTION('',(0.,-2.38040957252392E-16,-1.));
#1285=DIRECTION('',(-1.,-3.8533320703642E-32,6.888549504684E-16));
#1286=DIRECTION('',(-6.888549504684E-16,-1.11876442718284E-16,1.));
#1287=DIRECTION('',(1.,0.,0.));
#1288=DIRECTION('',(6.888549504684E-16,-1.11876442718284E-16,1.));
#1289=DIRECTION('',(-2.02509012521189E-31,1.,-2.38040957252392E-16));
#1290=DIRECTION('',(0.,-2.38040957252392E-16,-1.));
#1291=DIRECTION('',(-2.02509012521189E-31,1.,-2.38040957252392E-16));
#1292=DIRECTION('',(0.,-2.38040957252392E-16,-1.));
#1293=DIRECTION('',(-2.02509012521189E-31,-1.,2.38040957252392E-16));
#1294=DIRECTION('',(0.,-2.38040957252392E-16,-1.));
#1295=DIRECTION('',(-2.02509012521189E-31,-1.,2.38040957252392E-16));
#1296=DIRECTION('',(0.,-2.38040957252392E-16,-1.));
#1297=DIRECTION('',(3.8533320703642E-32,1.,1.11876442718284E-16));
#1298=DIRECTION('',(1.,-3.8533320703642E-32,-4.31097084644625E-48));
#1299=DIRECTION('',(3.8533320703642E-32,1.,1.11876442718284E-16));
#1300=DIRECTION('',(0.,-1.11876442718284E-16,1.));
#1301=DIRECTION('',(3.8533320703642E-32,1.,1.11876442718284E-16));
#1302=DIRECTION('',(0.,1.11876442718284E-16,-1.));
#1303=DIRECTION('',(3.8533320703642E-32,1.,1.11876442718284E-16));
#1304=DIRECTION('',(0.,1.11876442718284E-16,-1.));
#1305=DIRECTION('',(-6.888549504684E-16,-1.11876442718284E-16,1.));
#1306=DIRECTION('',(1.,3.8533320703642E-32,-6.888549504684E-16));
#1307=DIRECTION('',(6.888549504684E-16,-1.11876442718284E-16,1.));
#1308=DIRECTION('',(3.8533320703642E-32,-1.,-1.11876442718284E-16));
#1309=DIRECTION('',(0.,1.11876442718284E-16,-1.));
#1310=DIRECTION('',(3.8533320703642E-32,-1.,-1.11876442718284E-16));
#1311=DIRECTION('',(0.,1.11876442718284E-16,-1.));
#1312=DIRECTION('',(-3.8533320703642E-32,-1.,-1.11876442718284E-16));
#1313=DIRECTION('',(0.,1.11876442718284E-16,-1.));
#1314=DIRECTION('',(-3.8533320703642E-32,-1.,-1.11876442718284E-16));
#1315=DIRECTION('',(0.,1.11876442718284E-16,-1.));
#1316=DIRECTION('',(-1.,-7.7066641407284E-32,6.888549504684E-16));
#1317=DIRECTION('',(-6.888549504684E-16,0.,-1.));
#1318=DIRECTION('',(4.64469209339238E-47,-1.,-1.11876442718283E-16));
#1319=DIRECTION('',(6.888549504684E-16,-2.23752885436567E-16,1.));
#1320=DIRECTION('',(-1.,0.,6.888549504684E-16));
#1321=DIRECTION('',(1.11876442718284E-16,1.,2.23752885436567E-16));
#1322=DIRECTION('',(-1.,-3.8533320703642E-32,6.888549504684E-16));
#1323=DIRECTION('',(-1.11876442718284E-16,1.,2.23752885436567E-16));
#1324=DIRECTION('',(-6.888549504684E-16,1.11876442718283E-16,-1.));
#1325=DIRECTION('',(1.,0.,-6.888549504684E-16));
#1326=DIRECTION('',(-1.3777099009368E-15,3.35629328154851E-16,-1.));
#1327=DIRECTION('',(-1.54133282814568E-31,-1.,-3.35629328154851E-16));
#1328=DIRECTION('',(0.5,-0.866025403784439,-9.79518474905605E-16));
#1329=DIRECTION('',(-3.08266565629136E-31,-1.,-4.47505770873134E-16));
#1330=DIRECTION('',(-4.64469209339238E-47,-1.,-1.11876442718283E-16));
#1331=DIRECTION('',(3.08266565629136E-31,-1.,-4.47505770873134E-16));
#1332=DIRECTION('',(-0.5,-0.866025403784439,-9.79518474905605E-16));
#1333=DIRECTION('',(-1.,3.08266565629136E-31,-1.3777099009368E-15));
#1334=DIRECTION('',(3.08266565629136E-31,-1.,-4.47505770873134E-16));
#1335=DIRECTION('',(-1.,-3.8533320703642E-32,6.888549504684E-16));
#1336=DIRECTION('',(-3.08266565629136E-31,-1.,-4.47505770873134E-16));
#1337=DIRECTION('',(1.,3.08266565629136E-31,-1.3777099009368E-15));
#1338=DIRECTION('',(-1.3777099009368E-15,-3.35629328154851E-16,1.));
#1339=DIRECTION('',(1.54133282814568E-31,-1.,-3.35629328154851E-16));
#1340=DIRECTION('',(1.,-1.11876442718283E-16,-6.888549504684E-16));
#1341=DIRECTION('',(6.888549504684E-16,0.,1.));
#1342=DIRECTION('',(1.11876442718283E-16,1.,2.65438687246903E-47));
#1343=DIRECTION('',(6.888549504684E-16,-1.11876442718284E-16,1.));
#1344=DIRECTION('',(0.,5.30877374493806E-47,-1.));
#1345=DIRECTION('',(0.,1.,5.30877374493806E-47));
#1346=DIRECTION('',(-1.11876442718283E-16,1.,2.65438687246903E-47));
#1347=DIRECTION('',(1.,0.,0.));
#1348=DIRECTION('',(5.84643483619967E-16,0.528845944515683,0.848717837075029));
#1349=DIRECTION('',(0.,-0.848717837075029,0.528845944515683));
#1350=DIRECTION('',(-0.46749699198447,0.750262037538183,-0.467496991984469));
#1351=DIRECTION('',(1.,3.08266565629136E-31,-1.3777099009368E-15));
#1352=DIRECTION('',(-1.,3.08266565629136E-31,-1.3777099009368E-15));
#1353=DIRECTION('',(1.,-3.8533320703642E-32,6.888549504684E-16));
#1354=DIRECTION('',(0.46749699198447,0.750262037538183,-0.467496991984469));
#1355=DIRECTION('',(5.96565886628306E-16,0.5,0.866025403784439));
#1356=DIRECTION('',(0.,-0.866025403784439,0.5));
#1357=DIRECTION('',(-6.888549504684E-16,0.866025403784439,-0.5));
#1358=DIRECTION('',(-1.,-3.8533320703642E-32,6.888549504684E-16));
#1359=DIRECTION('',(6.888549504684E-16,0.866025403784439,-0.5));
#1360=DIRECTION('',(0.866025403784439,0.5,-5.40627665269164E-16));
#1361=DIRECTION('',(0.5,-0.866025403784439,0.));
#1362=DIRECTION('',(-0.447213595499958,0.774596669241484,0.447213595499958));
#1363=DIRECTION('',(0.848717837075029,0.528845944515683,-5.25478080601561E-16));
#1364=DIRECTION('',(0.528845944515683,-0.848717837075029,0.));
#1365=DIRECTION('',(-0.467496991984469,0.750262037538183,0.46749699198447));
#1366=DIRECTION('',(0.,0.5,-0.866025403784439));
#1367=DIRECTION('',(0.,0.866025403784439,0.5));
#1368=DIRECTION('',(0.,0.866025403784439,0.5));
#1369=DIRECTION('',(0.,1.,-5.30877374493806E-47));
#1370=DIRECTION('',(0.,5.30877374493806E-47,1.));
#1371=DIRECTION('',(-1.3777099009368E-15,-5.30877374493806E-47,-1.));
#1372=DIRECTION('',(1.3777099009368E-15,-5.30877374493806E-47,-1.));
#1373=DIRECTION('',(0.,0.528845944515683,-0.848717837075029));
#1374=DIRECTION('',(0.,0.848717837075029,0.528845944515683));
#1375=DIRECTION('',(0.467496991984469,0.750262037538183,0.46749699198447));
#1376=DIRECTION('',(-1.,0.,0.));
#1377=DIRECTION('',(-1.,0.,0.));
#1378=DIRECTION('',(1.,0.,0.));
#1379=DIRECTION('',(0.,1.,-5.30877374493806E-47));
#1380=DIRECTION('',(0.,5.30877374493806E-47,1.));
#1381=DIRECTION('',(0.,-5.30877374493806E-47,-1.));
#1382=DIRECTION('',(0.,-5.30877374493806E-47,-1.));
#1383=DIRECTION('',(1.,0.,0.));
#1384=DIRECTION('',(0.,0.,1.));
#1385=DIRECTION('',(1.,0.,0.));
#1386=DIRECTION('',(0.,0.,1.));
#1387=DIRECTION('',(0.,-1.11876442718284E-16,1.));
#1388=DIRECTION('',(0.866025403784439,0.5,5.59382213591418E-17));
#1389=DIRECTION('',(0.5,-0.866025403784439,0.));
#1390=DIRECTION('',(0.,-1.11876442718284E-16,1.));
#1391=DIRECTION('',(0.,-1.,-1.11876442718284E-16));
#1392=DIRECTION('',(-1.,-3.08266565629136E-31,1.3777099009368E-15));
#1393=DIRECTION('',(-1.3777099009368E-15,0.,-1.));
#1394=DIRECTION('',(-3.08266565629136E-31,-1.,-4.47505770873134E-16));
#1395=DIRECTION('',(-1.3777099009368E-15,3.35629328154851E-16,-1.));
#1396=DIRECTION('',(1.3777099009368E-15,-4.47505770873134E-16,1.));
#1397=DIRECTION('',(-1.,0.,1.3777099009368E-15));
#1398=DIRECTION('',(-1.3777099009368E-15,4.47505770873134E-16,-1.));
#1399=DIRECTION('',(-1.,0.,1.3777099009368E-15));
#1400=DIRECTION('',(-0.5,0.866025403784439,1.07640631638467E-15));
#1401=DIRECTION('',(1.,3.08266565629136E-31,-1.3777099009368E-15));
#1402=DIRECTION('',(-3.08266565629136E-31,-1.,-4.47505770873134E-16));
#1403=DIRECTION('',(-1.,-3.08266565629136E-31,1.3777099009368E-15));
#1404=DIRECTION('',(-1.3777099009368E-15,0.,-1.));
#1405=DIRECTION('',(1.3777099009368E-15,-4.47505770873134E-16,1.));
#1406=DIRECTION('',(3.08266565629136E-31,1.,4.47505770873134E-16));
#1407=DIRECTION('',(1.,3.08266565629136E-31,-1.3777099009368E-15));
#1408=DIRECTION('',(-1.3777099009368E-15,3.35629328154851E-16,-1.));
#1409=DIRECTION('',(-0.866025403784439,-0.5,1.02531710917919E-15));
#1410=DIRECTION('',(-0.5,0.866025403784439,0.));
#1411=DIRECTION('',(-1.3777099009368E-15,3.35629328154851E-16,-1.));
#1412=DIRECTION('',(1.,0.,-1.3777099009368E-15));
#1413=DIRECTION('',(-5.96565886628306E-16,0.5,0.866025403784439));
#1414=DIRECTION('',(0.,-0.866025403784439,0.5));
#1415=DIRECTION('',(1.,-3.8533320703642E-32,6.888549504684E-16));
#1416=DIRECTION('',(6.888549504684E-16,0.866025403784439,-0.5));
#1417=DIRECTION('',(1.,-3.8533320703642E-32,6.888549504684E-16));
#1418=DIRECTION('',(0.447213595499958,0.774596669241484,-0.447213595499958));
#1419=DIRECTION('',(0.,1.,-5.30877374493806E-47));
#1420=DIRECTION('',(0.,5.30877374493806E-47,1.));
#1421=DIRECTION('',(1.3777099009368E-15,-5.30877374493806E-47,-1.));
#1422=DIRECTION('',(-6.888549504684E-16,-1.11876442718284E-16,1.));
#1423=DIRECTION('',(0.,5.30877374493806E-47,1.));
#1424=DIRECTION('',(-1.,0.,0.));
#1425=DIRECTION('',(-6.888549504684E-16,-1.11876442718284E-16,1.));
#1426=DIRECTION('',(0.,1.,-5.30877374493806E-47));
#1427=DIRECTION('',(-1.,0.,0.));
#1428=DIRECTION('',(-1.,0.,0.));
#1429=DIRECTION('',(0.,-1.11876442718284E-16,1.));
#1430=DIRECTION('',(0.,-5.30877374493806E-47,-1.));
#1431=DIRECTION('',(0.,5.30877374493806E-47,1.));
#1432=DIRECTION('',(0.,-1.,5.30877374493806E-47));
#1433=DIRECTION('',(0.,5.30877374493806E-47,1.));
#1434=DIRECTION('',(0.,-1.,5.30877374493806E-47));
#1435=DIRECTION('',(-0.5,-0.866025403784439,4.59753292606021E-47));
#1436=DIRECTION('',(0.,-1.,5.30877374493806E-47));
#1437=DIRECTION('',(0.,-1.,5.30877374493806E-47));
#1438=DIRECTION('',(0.,1.,-5.30877374493806E-47));
#1439=DIRECTION('',(0.,5.30877374493806E-47,1.));
#1440=DIRECTION('',(-1.3777099009368E-15,-4.47505770873134E-16,1.));
#1441=DIRECTION('',(-6.888549504684E-16,-1.11876442718284E-16,1.));
#1442=DIRECTION('',(-1.,0.,0.));
#1443=DIRECTION('',(0.,-5.30877374493806E-47,-1.));
#1444=DIRECTION('',(-6.888549504684E-16,-1.11876442718284E-16,1.));
#1445=DIRECTION('',(3.8533320703642E-32,-1.,-1.11876442718284E-16));
#1446=DIRECTION('',(0.,1.11876442718284E-16,-1.));
#1447=DIRECTION('',(3.8533320703642E-32,-1.,-1.11876442718284E-16));
#1448=DIRECTION('',(0.,1.11876442718284E-16,-1.));
#1449=DIRECTION('',(1.,-7.7066641407284E-32,6.888549504684E-16));
#1450=DIRECTION('',(6.888549504684E-16,0.,-1.));
#1451=DIRECTION('',(-1.,-1.11876442718283E-16,-6.888549504684E-16));
#1452=DIRECTION('',(-6.888549504684E-16,0.,1.));
#1453=DIRECTION('',(-6.888549504684E-16,-1.11876442718284E-16,1.));
#1454=DIRECTION('',(0.,0.5,-0.866025403784439));
#1455=DIRECTION('',(0.,0.866025403784439,0.5));
#1456=DIRECTION('',(0.,0.866025403784439,0.5));
#1457=DIRECTION('',(0.447213595499958,0.774596669241484,0.447213595499958));
#1458=DIRECTION('',(-0.848717837075029,0.528845944515683,-5.25478080601561E-16));
#1459=DIRECTION('',(-0.528845944515683,-0.848717837075029,0.));
#1460=DIRECTION('',(-0.866025403784439,0.5,-5.40627665269164E-16));
#1461=DIRECTION('',(-0.5,-0.866025403784439,0.));
#1462=DIRECTION('',(-1.,0.,0.));
#1463=DIRECTION('',(0.,0.,1.));
#1464=DIRECTION('',(-1.,0.,0.));
#1465=DIRECTION('',(0.,0.,1.));
#1466=DIRECTION('',(0.,-1.11876442718284E-16,1.));
#1467=DIRECTION('',(-0.866025403784439,0.5,5.59382213591418E-17));
#1468=DIRECTION('',(-0.5,-0.866025403784439,0.));
#1469=DIRECTION('',(0.,-1.11876442718284E-16,1.));
#1470=DIRECTION('',(0.,-1.,-1.11876442718284E-16));
#1471=DIRECTION('',(1.,-3.08266565629136E-31,1.3777099009368E-15));
#1472=DIRECTION('',(1.3777099009368E-15,0.,-1.));
#1473=DIRECTION('',(3.08266565629136E-31,-1.,-4.47505770873134E-16));
#1474=DIRECTION('',(1.3777099009368E-15,3.35629328154851E-16,-1.));
#1475=DIRECTION('',(-1.3777099009368E-15,-4.47505770873134E-16,1.));
#1476=DIRECTION('',(1.,0.,1.3777099009368E-15));
#1477=DIRECTION('',(-1.3777099009368E-15,-4.47505770873134E-16,1.));
#1478=DIRECTION('',(1.,0.,1.3777099009368E-15));
#1479=DIRECTION('',(0.5,0.866025403784439,1.07640631638467E-15));
#1480=DIRECTION('',(3.08266565629136E-31,-1.,-4.47505770873134E-16));
#1481=DIRECTION('',(-1.,3.08266565629136E-31,-1.3777099009368E-15));
#1482=DIRECTION('',(1.,-3.08266565629136E-31,1.3777099009368E-15));
#1483=DIRECTION('',(1.3777099009368E-15,0.,-1.));
#1484=DIRECTION('',(-1.3777099009368E-15,-4.47505770873134E-16,1.));
#1485=DIRECTION('',(-3.08266565629136E-31,1.,4.47505770873134E-16));
#1486=DIRECTION('',(-1.,3.08266565629136E-31,-1.3777099009368E-15));
#1487=DIRECTION('',(1.3777099009368E-15,3.35629328154851E-16,-1.));
#1488=DIRECTION('',(0.866025403784439,-0.5,1.02531710917919E-15));
#1489=DIRECTION('',(0.5,0.866025403784439,0.));
#1490=DIRECTION('',(1.3777099009368E-15,3.35629328154851E-16,-1.));
#1491=DIRECTION('',(-1.,0.,-1.3777099009368E-15));
#1492=DIRECTION('',(-1.1568634986656E-24,1.,1.11876441318898E-16));
#1493=DIRECTION('',(0.,-1.11876441318898E-16,1.));
#1494=CARTESIAN_POINT('',(0.,0.,0.));
#1495=CARTESIAN_POINT('',(0.0101367513459481,0.0501747665331214,-0.061357944221869));
#1496=CARTESIAN_POINT('',(0.0298867513459481,0.0501747665331214,0.011107944221869));
#1497=CARTESIAN_POINT('',(0.0158867513459482,0.0501747665331214,0.011107944221869));
#1498=CARTESIAN_POINT('',(-0.01575,0.0501747665331214,0.011107944221869));
#1499=CARTESIAN_POINT('',(-0.01575,0.0501747665331214,0.0103789721109345));
#1500=CARTESIAN_POINT('',(-0.01575,0.0501747665331214,0.011607944221869));
#1501=CARTESIAN_POINT('',(0.0298867513459481,0.0501747665331214,0.011607944221869));
#1502=CARTESIAN_POINT('',(0.0158867513459482,0.0501747665331214,0.011607944221869));
#1503=CARTESIAN_POINT('',(0.0158867513459482,0.0501747665331214,0.0103789721109345));
#1504=CARTESIAN_POINT('',(0.0298867513459481,0.0514373832665607,0.0103789721109345));
#1505=CARTESIAN_POINT('',(0.0298867513459481,0.0501747665331214,0.011107944221869));
#1506=CARTESIAN_POINT('',(0.0278446955678172,0.0501747665331214,0.011107944221869));
#1507=CARTESIAN_POINT('',(0.0258867513459482,0.0501747665331214,0.011107944221869));
#1508=CARTESIAN_POINT('',(0.0124099290346958,0.0769085663714514,-0.00432682231125241));
#1509=CARTESIAN_POINT('',(0.0263867513459482,0.0527,0.00965));
#1510=CARTESIAN_POINT('',(0.0298867513459481,0.0527,0.00965));
#1511=CARTESIAN_POINT('',(0.0258867513459482,0.0527,0.00965));
#1512=CARTESIAN_POINT('',(0.0258867513459482,0.0514373832665607,0.0103789721109345));
#1513=CARTESIAN_POINT('',(0.0101367513459481,0.0527,-0.0594));
#1514=CARTESIAN_POINT('',(0.0263867513459481,0.0527,-0.06315));
#1515=CARTESIAN_POINT('',(0.0263867513459481,0.0527,-0.05965));
#1516=CARTESIAN_POINT('',(0.0101367513459481,0.0527,-0.05965));
#1517=CARTESIAN_POINT('',(0.0258867513459481,0.0527,-0.05965));
#1518=CARTESIAN_POINT('',(0.0258867513459481,0.0527,-0.0594));
#1519=CARTESIAN_POINT('',(0.0258867513459481,0.0527,-0.05915));
#1520=CARTESIAN_POINT('',(0.0258867513459481,0.0527,-0.06315));
#1521=CARTESIAN_POINT('',(0.0258867513459482,0.0527,0.00915));
#1522=CARTESIAN_POINT('',(0.0258867513459481,0.0527,-0.0594));
#1523=CARTESIAN_POINT('',(0.0101367513459481,0.0452,-0.05915));
#1524=CARTESIAN_POINT('',(0.0198867513459482,0.0577,-0.05915));
#1525=CARTESIAN_POINT('',(0.0198867513459482,0.0562,-0.05915));
#1526=CARTESIAN_POINT('',(0.0183867513459482,0.0626747665331214,-0.05915));
#1527=CARTESIAN_POINT('',(0.0158867513459482,0.0626747665331214,-0.05915));
#1528=CARTESIAN_POINT('',(0.0230145685488949,0.0626747665331214,-0.05915));
#1529=CARTESIAN_POINT('',(0.0158867513459482,0.0626747665331214,-0.05915));
#1530=CARTESIAN_POINT('',(0.0158867513459482,0.0527,-0.05915));
#1531=CARTESIAN_POINT('',(0.0101367513459481,0.0527,-0.05915));
#1532=CARTESIAN_POINT('',(-0.01575,0.0527,-0.05915));
#1533=CARTESIAN_POINT('',(-0.01575,0.0626747665331214,-0.05915));
#1534=CARTESIAN_POINT('',(-0.01575,0.0626747665331214,-0.05915));
#1535=CARTESIAN_POINT('',(-0.01825,0.0626747665331214,-0.05915));
#1536=CARTESIAN_POINT('',(-0.0228778172029468,0.0626747665331214,-0.05915));
#1537=CARTESIAN_POINT('',(-0.0243139086014734,0.0601873832665607,-0.05915));
#1538=CARTESIAN_POINT('',(-0.02575,0.0577,-0.05915));
#1539=CARTESIAN_POINT('',(-0.02575,0.0626747665331214,-0.05915));
#1540=CARTESIAN_POINT('',(-0.02575,0.0527,-0.05915));
#1541=CARTESIAN_POINT('',(-0.02575,0.0452,-0.05915));
#1542=CARTESIAN_POINT('',(-0.02575,0.0452,-0.05915));
#1543=CARTESIAN_POINT('',(-0.00986524865405186,0.0452,-0.05915));
#1544=CARTESIAN_POINT('',(0.0258867513459482,0.0452,-0.05915));
#1545=CARTESIAN_POINT('',(0.0258867513459481,0.0452,-0.05915));
#1546=CARTESIAN_POINT('',(0.0258867513459481,0.0626747665331214,-0.05915));
#1547=CARTESIAN_POINT('',(0.0258867513459481,0.0577,-0.05915));
#1548=CARTESIAN_POINT('',(0.0244506599474216,0.0601873832665607,-0.05915));
#1549=CARTESIAN_POINT('',(-0.01975,0.0577,-0.05915));
#1550=CARTESIAN_POINT('',(-0.01975,0.0562,-0.05915));
#1551=CARTESIAN_POINT('',(0.00129734778390859,0.0626747665331214,-0.025));
#1552=CARTESIAN_POINT('',(0.0101367513459481,0.0626747665331214,-0.061607944221869));
#1553=CARTESIAN_POINT('',(0.0158867513459482,0.0626747665331214,-0.061607944221869));
#1554=CARTESIAN_POINT('',(0.0230145685488949,0.0626747665331214,-0.061607944221869));
#1555=CARTESIAN_POINT('',(0.0158867513459482,0.0626747665331214,-0.0603789721109345));
#1556=CARTESIAN_POINT('',(0.0230145685488949,0.0626747665331214,-0.08415));
#1557=CARTESIAN_POINT('',(0.0101367513459481,0.0626747665331214,-0.061607944221869));
#1558=CARTESIAN_POINT('',(0.0198867513459482,0.0577,-0.061607944221869));
#1559=CARTESIAN_POINT('',(0.0198867513459482,0.0562,-0.061607944221869));
#1560=CARTESIAN_POINT('',(0.0197951142481582,0.0682510249546435,-0.061607944221869));
#1561=CARTESIAN_POINT('',(0.0258867513459481,0.0577,-0.061607944221869));
#1562=CARTESIAN_POINT('',(0.0258867513459481,0.0626747665331214,-0.061607944221869));
#1563=CARTESIAN_POINT('',(0.0258867513459481,0.0501747665331214,-0.061607944221869));
#1564=CARTESIAN_POINT('',(0.0101367513459481,0.0501747665331214,-0.061607944221869));
#1565=CARTESIAN_POINT('',(0.0158867513459482,0.0501747665331214,-0.061607944221869));
#1566=CARTESIAN_POINT('',(0.0158867513459482,0.0626747665331214,-0.061607944221869));
#1567=CARTESIAN_POINT('',(0.0101367513459481,0.0514373832665607,-0.0603789721109345));
#1568=CARTESIAN_POINT('',(0.0101367513459481,0.0501747665331214,-0.061107944221869));
#1569=CARTESIAN_POINT('',(-0.01575,0.0501747665331214,-0.061107944221869));
#1570=CARTESIAN_POINT('',(0.0158867513459482,0.0501747665331214,-0.061107944221869));
#1571=CARTESIAN_POINT('',(-0.01575,0.0514373832665607,-0.0603789721109345));
#1572=CARTESIAN_POINT('',(-0.01575,0.0527,-0.05965));
#1573=CARTESIAN_POINT('',(0.0101367513459481,0.0527,-0.05965));
#1574=CARTESIAN_POINT('',(0.0158867513459482,0.0527,-0.05965));
#1575=CARTESIAN_POINT('',(0.0158867513459482,0.0514373832665607,-0.0603789721109345));
#1576=CARTESIAN_POINT('',(0.0101367513459481,0.0527,-0.0594));
#1577=CARTESIAN_POINT('',(-0.01575,0.0527,-0.0594));
#1578=CARTESIAN_POINT('',(0.0158867513459482,0.0527,-0.0594));
#1579=CARTESIAN_POINT('',(0.0101367513459481,0.0501747665331214,-0.061357944221869));
#1580=CARTESIAN_POINT('',(0.0258867513459482,0.0501747665331214,0.0103789721109344));
#1581=CARTESIAN_POINT('',(0.0258867513459482,0.0501747665331214,0.011607944221869));
#1582=CARTESIAN_POINT('',(0.0298867513459481,0.0501747665331214,0.011607944221869));
#1583=CARTESIAN_POINT('',(0.0283446955678172,0.0501747665331214,0.011607944221869));
#1584=CARTESIAN_POINT('',(0.0283446955678172,0.0501747665331214,-0.06315));
#1585=CARTESIAN_POINT('',(0.0283446955678171,0.0501747665331214,-0.061607944221869));
#1586=CARTESIAN_POINT('',(0.0101367513459481,0.0501747665331214,-0.061607944221869));
#1587=CARTESIAN_POINT('',(0.0258867513459481,0.0501747665331214,-0.0603789721109345));
#1588=CARTESIAN_POINT('',(0.0258867513459481,0.0501747665331214,-0.061107944221869));
#1589=CARTESIAN_POINT('',(0.0101367513459481,0.0501747665331214,-0.061107944221869));
#1590=CARTESIAN_POINT('',(0.0278446955678171,0.0501747665331214,-0.061107944221869));
#1591=CARTESIAN_POINT('',(0.0278446955678171,0.0501747665331214,-0.06315));
#1592=CARTESIAN_POINT('',(0.0180117513459482,0.0427,-0.025));
#1593=CARTESIAN_POINT('',(-2.7755575610423E-17,0.0427,-0.02975));
#1594=CARTESIAN_POINT('',(-2.7755575610423E-17,0.0427,-0.03425));
#1595=CARTESIAN_POINT('',(0.0303867513459482,0.0427,0.01315));
#1596=CARTESIAN_POINT('',(0.0298867513459482,0.0427,0.01315));
#1597=CARTESIAN_POINT('',(-0.02975,0.0427,0.01315));
#1598=CARTESIAN_POINT('',(-0.02975,0.0427,-0.06365));
#1599=CARTESIAN_POINT('',(-0.02975,0.0427,-0.06315));
#1600=CARTESIAN_POINT('',(0.0101367513459481,0.0427,-0.06315));
#1601=CARTESIAN_POINT('',(0.0298867513459481,0.0427,-0.06315));
#1602=CARTESIAN_POINT('',(0.0298867513459481,0.0427,-0.06365));
#1603=CARTESIAN_POINT('',(0.0126367513459482,0.0427,0.00164999999999998));
#1604=CARTESIAN_POINT('',(0.0126367513459482,0.0427,4.9999999999975E-5));
#1605=CARTESIAN_POINT('',(0.0126367513459482,0.0427,-0.05165));
#1606=CARTESIAN_POINT('',(0.0126367513459482,0.0427,-0.05325));
#1607=CARTESIAN_POINT('',(-0.0125,0.0427,0.00164999999999998));
#1608=CARTESIAN_POINT('',(-0.0125,0.0427,4.9999999999975E-5));
#1609=CARTESIAN_POINT('',(-0.0125,0.0427,-0.05165));
#1610=CARTESIAN_POINT('',(-0.0125,0.0427,-0.05325));
#1611=CARTESIAN_POINT('',(0.00263675134594815,0.0452,-0.02));
#1612=CARTESIAN_POINT('',(-2.77555756133152E-17,0.0452,-0.02975));
#1613=CARTESIAN_POINT('',(-2.77555756133152E-17,0.0452,-0.02525));
#1614=CARTESIAN_POINT('',(0.0126367513459482,0.0452,0.00164999999999998));
#1615=CARTESIAN_POINT('',(0.0126367513459482,0.0452,4.9999999999975E-5));
#1616=CARTESIAN_POINT('',(0.0126367513459482,0.0452,-0.05165));
#1617=CARTESIAN_POINT('',(0.0126367513459482,0.0452,-0.05325));
#1618=CARTESIAN_POINT('',(-0.02575,0.0452,0.00815));
#1619=CARTESIAN_POINT('',(-0.02575,0.0452,0.00915));
#1620=CARTESIAN_POINT('',(-0.00986524865405184,0.0452,0.00915));
#1621=CARTESIAN_POINT('',(0.0258867513459482,0.0452,0.00915));
#1622=CARTESIAN_POINT('',(0.0258867513459482,0.0452,0.00815));
#1623=CARTESIAN_POINT('',(-0.0125,0.0452,0.00164999999999998));
#1624=CARTESIAN_POINT('',(-0.0125,0.0452,4.9999999999975E-5));
#1625=CARTESIAN_POINT('',(-0.0125,0.0452,-0.05165));
#1626=CARTESIAN_POINT('',(-0.0125,0.0452,-0.05325));
#1627=CARTESIAN_POINT('',(0.0126367513459482,0.0452,-0.05165));
#1628=CARTESIAN_POINT('',(0.0126367513459482,0.0452,0.00164999999999998));
#1629=CARTESIAN_POINT('',(0.0258867513459481,0.0452,-0.06365));
#1630=CARTESIAN_POINT('',(0.0258867513459482,0.0452,0.00915));
#1631=CARTESIAN_POINT('',(0.0303867513459482,0.0452,0.01315));
#1632=CARTESIAN_POINT('',(0.0298867513459482,0.0452,0.01315));
#1633=CARTESIAN_POINT('',(0.0298867513459482,0.0477,0.01315));
#1634=CARTESIAN_POINT('',(0.0303867513459482,0.0477,0.01315));
#1635=CARTESIAN_POINT('',(-0.02975,0.0477,0.01315));
#1636=CARTESIAN_POINT('',(-0.02975,0.0452,0.01315));
#1637=CARTESIAN_POINT('',(0.0303867513459481,0.0452,0.00915));
#1638=CARTESIAN_POINT('',(0.0198867513459482,0.0577,0.00915));
#1639=CARTESIAN_POINT('',(0.0198867513459482,0.0562,0.00915));
#1640=CARTESIAN_POINT('',(0.0244506599474216,0.0601873832665607,0.00915));
#1641=CARTESIAN_POINT('',(0.023014568548895,0.0626747665331214,0.00915));
#1642=CARTESIAN_POINT('',(0.0258867513459482,0.0577,0.00915));
#1643=CARTESIAN_POINT('',(0.0258867513459482,0.0626747665331214,0.00915));
#1644=CARTESIAN_POINT('',(-0.02575,0.0452,0.00915));
#1645=CARTESIAN_POINT('',(-0.02575,0.0527,0.00915));
#1646=CARTESIAN_POINT('',(-0.02575,0.0626747665331214,0.00915));
#1647=CARTESIAN_POINT('',(-0.02575,0.0577,0.00915));
#1648=CARTESIAN_POINT('',(-0.0243139086014734,0.0601873832665607,0.00915));
#1649=CARTESIAN_POINT('',(-0.0228778172029469,0.0626747665331214,0.00915));
#1650=CARTESIAN_POINT('',(-0.01825,0.0626747665331214,0.00915));
#1651=CARTESIAN_POINT('',(-0.01575,0.0626747665331214,0.00915));
#1652=CARTESIAN_POINT('',(-0.01575,0.0626747665331214,0.00915));
#1653=CARTESIAN_POINT('',(-0.01575,0.0527,0.00915));
#1654=CARTESIAN_POINT('',(0.0298867513459481,0.0527,0.00915));
#1655=CARTESIAN_POINT('',(0.0158867513459482,0.0527,0.00915));
#1656=CARTESIAN_POINT('',(0.0158867513459482,0.0626747665331214,0.00915));
#1657=CARTESIAN_POINT('',(0.0158867513459482,0.0626747665331214,0.00915));
#1658=CARTESIAN_POINT('',(0.0183867513459482,0.0626747665331214,0.00915));
#1659=CARTESIAN_POINT('',(-0.01975,0.0577,0.00915));
#1660=CARTESIAN_POINT('',(-0.01975,0.0562,0.00915));
#1661=CARTESIAN_POINT('',(0.0298867513459481,0.0452,-0.06365));
#1662=CARTESIAN_POINT('',(0.0298867513459481,0.0452,-0.06315));
#1663=CARTESIAN_POINT('',(0.0298867513459481,0.0477,-0.06315));
#1664=CARTESIAN_POINT('',(0.0298867513459481,0.0477,-0.06365));
#1665=CARTESIAN_POINT('',(0.0101367513459481,0.0452,-0.06315));
#1666=CARTESIAN_POINT('',(-0.02975,0.0452,-0.06315));
#1667=CARTESIAN_POINT('',(-0.02975,0.0477,-0.06315));
#1668=CARTESIAN_POINT('',(0.0101367513459481,0.0477,-0.06315));
#1669=CARTESIAN_POINT('',(0.0298867513459481,0.0489373832665607,0.0123789721109345));
#1670=CARTESIAN_POINT('',(0.0126086069700991,0.0754288111507978,-0.00412814437584907));
#1671=CARTESIAN_POINT('',(0.0101367513459481,0.0501747665331214,0.011607944221869));
#1672=CARTESIAN_POINT('',(-0.01,0.0501747665331214,0.011607944221869));
#1673=CARTESIAN_POINT('',(-0.02575,0.0501747665331214,0.011607944221869));
#1674=CARTESIAN_POINT('',(-0.02975,0.0501747665331214,0.011607944221869));
#1675=CARTESIAN_POINT('',(-0.0282079442218691,0.0501747665331214,0.011607944221869));
#1676=CARTESIAN_POINT('',(-0.012471855624151,0.0754288111507978,-0.00412814437584907));
#1677=CARTESIAN_POINT('',(0.0298867513459481,0.0514373832665607,0.0103789721109345));
#1678=CARTESIAN_POINT('',(0.0158867513459482,0.0514373832665607,0.0103789721109345));
#1679=CARTESIAN_POINT('',(0.0158867513459482,0.0527,0.00965));
#1680=CARTESIAN_POINT('',(0.0298867513459481,0.0527,0.00965));
#1681=CARTESIAN_POINT('',(-0.01575,0.0527,0.00965));
#1682=CARTESIAN_POINT('',(-0.01575,0.0514373832665607,0.0103789721109345));
#1683=CARTESIAN_POINT('',(0.0271157234568826,0.0514373832665607,-0.06315));
#1684=CARTESIAN_POINT('',(0.0237199290346957,0.0573190717378474,-0.0569831776887476));
#1685=CARTESIAN_POINT('',(0.0291157234568827,0.0489373832665607,-0.06315));
#1686=CARTESIAN_POINT('',(0.0249678038615456,0.0555941675036784,-0.0582310525155974));
#1687=CARTESIAN_POINT('',(0.0101367513459481,0.0514373832665607,-0.0603789721109345));
#1688=CARTESIAN_POINT('',(0.0258867513459481,0.0514373832665607,-0.0603789721109345));
#1689=CARTESIAN_POINT('',(0.0101367513459481,0.0527,-0.0594));
#1690=CARTESIAN_POINT('',(0.0158867513459481,0.0527,-0.0594));
#1691=CARTESIAN_POINT('',(-0.01575,0.0527,-0.0594));
#1692=CARTESIAN_POINT('',(0.0101367513459481,0.0489373832665607,-0.0623789721109345));
#1693=CARTESIAN_POINT('',(-0.0248310525155974,0.0555941675036784,-0.0582310525155974));
#1694=CARTESIAN_POINT('',(-0.028207944221869,0.0501747665331214,-0.061607944221869));
#1695=CARTESIAN_POINT('',(-0.01,0.0501747665331214,-0.061607944221869));
#1696=CARTESIAN_POINT('',(-0.02575,0.0501747665331214,-0.061607944221869));
#1697=CARTESIAN_POINT('',(-0.01,0.0501747665331214,-0.061607944221869));
#1698=CARTESIAN_POINT('',(-0.01575,0.0501747665331214,-0.061607944221869));
#1699=CARTESIAN_POINT('',(0.0101367513459481,0.0501747665331214,-0.061607944221869));
#1700=CARTESIAN_POINT('',(0.0101367513459481,0.0501747665331214,-0.061357944221869));
#1701=CARTESIAN_POINT('',(0.0158867513459482,0.0501747665331214,-0.0603789721109345));
#1702=CARTESIAN_POINT('',(-0.01575,0.0501747665331214,-0.0603789721109345));
#1703=CARTESIAN_POINT('',(0.0158867513459482,0.0626747665331214,-0.0603789721109345));
#1704=CARTESIAN_POINT('',(0.0258867513459481,0.0626747665331214,-0.0603789721109345));
#1705=CARTESIAN_POINT('',(0.0258867513459481,0.0577,-0.08415));
#1706=CARTESIAN_POINT('',(0.0244506599474216,0.0601873832665607,-0.08415));
#1707=CARTESIAN_POINT('',(0.0198867513459482,0.0577,-0.08415));
#1708=CARTESIAN_POINT('',(0.0258867513459482,0.0626747665331214,0.0103789721109344));
#1709=CARTESIAN_POINT('',(0.0258867513459482,0.0626747665331214,0.0116079442218689));
#1710=CARTESIAN_POINT('',(0.0258867513459482,0.0577,0.0116079442218689));
#1711=CARTESIAN_POINT('',(0.0258867513459482,0.0577,0.03415));
#1712=CARTESIAN_POINT('',(0.0101367513459481,0.0626747665331214,0.011607944221869));
#1713=CARTESIAN_POINT('',(0.0198867513459482,0.0577,0.0116079442218689));
#1714=CARTESIAN_POINT('',(0.0183867513459482,0.0577,0.0116079442218689));
#1715=CARTESIAN_POINT('',(0.0197951142481583,0.0682510249546435,0.011607944221869));
#1716=CARTESIAN_POINT('',(0.023014568548895,0.0626747665331214,0.0116079442218689));
#1717=CARTESIAN_POINT('',(0.0101367513459481,0.0626747665331214,0.011607944221869));
#1718=CARTESIAN_POINT('',(0.0158867513459482,0.0626747665331214,0.011607944221869));
#1719=CARTESIAN_POINT('',(0.0158867513459482,0.0626747665331214,0.011607944221869));
#1720=CARTESIAN_POINT('',(0.0158867513459482,0.0626747665331214,0.0103789721109345));
#1721=CARTESIAN_POINT('',(0.0158867513459482,0.0626747665331214,0.0103789721109345));
#1722=CARTESIAN_POINT('',(0.00129734778390859,0.0626747665331214,-0.025));
#1723=CARTESIAN_POINT('',(0.0230145685488951,0.0626747665331214,0.03415));
#1724=CARTESIAN_POINT('',(0.0244506599474217,0.0601873832665607,0.03415));
#1725=CARTESIAN_POINT('',(0.0198867513459482,0.0577,0.03415));
#1726=CARTESIAN_POINT('',(-0.02975,0.0514373832665607,0.0103789721109345));
#1727=CARTESIAN_POINT('',(-0.02975,0.0501747665331214,0.011107944221869));
#1728=CARTESIAN_POINT('',(-0.0277079442218691,0.0501747665331214,0.011107944221869));
#1729=CARTESIAN_POINT('',(-0.02575,0.0501747665331214,0.011107944221869));
#1730=CARTESIAN_POINT('',(-0.02575,0.0514373832665607,0.0103789721109345));
#1731=CARTESIAN_POINT('',(-0.02575,0.0527,0.00965));
#1732=CARTESIAN_POINT('',(-0.02975,0.0527,0.00965));
#1733=CARTESIAN_POINT('',(-0.02625,0.0527,0.00965));
#1734=CARTESIAN_POINT('',(-0.0122731776887476,0.0769085663714514,-0.00432682231125241));
#1735=CARTESIAN_POINT('',(-0.01,0.0527,-0.0594));
#1736=CARTESIAN_POINT('',(-0.02575,0.0527,-0.0594));
#1737=CARTESIAN_POINT('',(-0.02575,0.0527,-0.06315));
#1738=CARTESIAN_POINT('',(-0.02575,0.0527,-0.0594));
#1739=CARTESIAN_POINT('',(-0.02575,0.0527,-0.05965));
#1740=CARTESIAN_POINT('',(-0.01,0.0527,-0.05965));
#1741=CARTESIAN_POINT('',(-0.02625,0.0527,-0.05965));
#1742=CARTESIAN_POINT('',(-0.02625,0.0527,-0.06315));
#1743=CARTESIAN_POINT('',(-0.00116059643796045,0.0626747665331214,-0.025));
#1744=CARTESIAN_POINT('',(-0.01,0.0626747665331214,-0.061607944221869));
#1745=CARTESIAN_POINT('',(-0.01575,0.0626747665331214,-0.061607944221869));
#1746=CARTESIAN_POINT('',(-0.0228778172029468,0.0626747665331214,-0.061607944221869));
#1747=CARTESIAN_POINT('',(-0.0228778172029468,0.0626747665331214,-0.08415));
#1748=CARTESIAN_POINT('',(-0.01575,0.0626747665331214,-0.0603789721109345));
#1749=CARTESIAN_POINT('',(-0.01,0.0626747665331214,-0.061607944221869));
#1750=CARTESIAN_POINT('',(-0.01975,0.0577,-0.061607944221869));
#1751=CARTESIAN_POINT('',(-0.01975,0.0562,-0.061607944221869));
#1752=CARTESIAN_POINT('',(-0.0196583629022101,0.0682510249546435,-0.061607944221869));
#1753=CARTESIAN_POINT('',(-0.02575,0.0577,-0.061607944221869));
#1754=CARTESIAN_POINT('',(-0.01575,0.0626747665331214,-0.061607944221869));
#1755=CARTESIAN_POINT('',(-0.02575,0.0626747665331214,-0.061607944221869));
#1756=CARTESIAN_POINT('',(-0.01,0.0501747665331214,-0.061357944221869));
#1757=CARTESIAN_POINT('',(-0.02575,0.0501747665331214,0.0103789721109344));
#1758=CARTESIAN_POINT('',(-0.027707944221869,0.0501747665331214,-0.06315));
#1759=CARTESIAN_POINT('',(-0.027707944221869,0.0501747665331214,-0.061107944221869));
#1760=CARTESIAN_POINT('',(-0.01,0.0501747665331214,-0.061107944221869));
#1761=CARTESIAN_POINT('',(-0.02575,0.0501747665331214,-0.061107944221869));
#1762=CARTESIAN_POINT('',(-0.02575,0.0501747665331214,-0.0603789721109345));
#1763=CARTESIAN_POINT('',(-0.028207944221869,0.0501747665331214,-0.06315));
#1764=CARTESIAN_POINT('',(-0.0125,0.0452,-0.05165));
#1765=CARTESIAN_POINT('',(-0.0125,0.0452,0.00164999999999998));
#1766=CARTESIAN_POINT('',(-0.02575,0.0452,-0.06365));
#1767=CARTESIAN_POINT('',(-0.02975,0.0452,-0.06365));
#1768=CARTESIAN_POINT('',(-0.02975,0.0477,-0.06365));
#1769=CARTESIAN_POINT('',(-0.01,0.0514373832665607,-0.0603789721109345));
#1770=CARTESIAN_POINT('',(-0.02575,0.0514373832665607,-0.0603789721109345));
#1771=CARTESIAN_POINT('',(-0.0235831776887476,0.0573190717378474,-0.0569831776887476));
#1772=CARTESIAN_POINT('',(-0.0289789721109345,0.0489373832665607,-0.06315));
#1773=CARTESIAN_POINT('',(-0.0269789721109345,0.0514373832665607,-0.06315));
#1774=CARTESIAN_POINT('',(-0.01575,0.0626747665331214,-0.0603789721109345));
#1775=CARTESIAN_POINT('',(-0.02575,0.0626747665331214,-0.0603789721109345));
#1776=CARTESIAN_POINT('',(-0.02575,0.0577,-0.08415));
#1777=CARTESIAN_POINT('',(-0.0243139086014734,0.0601873832665607,-0.08415));
#1778=CARTESIAN_POINT('',(-0.01975,0.0577,-0.08415));
#1779=CARTESIAN_POINT('',(-0.02575,0.0626747665331214,0.0103789721109344));
#1780=CARTESIAN_POINT('',(-0.02575,0.0626747665331214,0.0116079442218689));
#1781=CARTESIAN_POINT('',(-0.02575,0.0577,0.0116079442218689));
#1782=CARTESIAN_POINT('',(-0.02575,0.0577,0.03415));
#1783=CARTESIAN_POINT('',(-0.01,0.0626747665331214,0.011607944221869));
#1784=CARTESIAN_POINT('',(-0.01975,0.0577,0.0116079442218689));
#1785=CARTESIAN_POINT('',(-0.01825,0.0577,0.0116079442218689));
#1786=CARTESIAN_POINT('',(-0.0196583629022101,0.0682510249546435,0.011607944221869));
#1787=CARTESIAN_POINT('',(-0.0228778172029469,0.0626747665331214,0.0116079442218689));
#1788=CARTESIAN_POINT('',(-0.01575,0.0626747665331214,0.011607944221869));
#1789=CARTESIAN_POINT('',(-0.01575,0.0626747665331214,0.011607944221869));
#1790=CARTESIAN_POINT('',(-0.01,0.0626747665331214,0.011607944221869));
#1791=CARTESIAN_POINT('',(-0.01575,0.0626747665331214,0.0103789721109345));
#1792=CARTESIAN_POINT('',(-0.01575,0.0626747665331214,0.0103789721109345));
#1793=CARTESIAN_POINT('',(-0.00116059643796045,0.0626747665331214,-0.025));
#1794=CARTESIAN_POINT('',(-0.0228778172029469,0.0626747665331214,0.03415));
#1795=CARTESIAN_POINT('',(-0.0243139086014735,0.0601873832665607,0.03415));
#1796=CARTESIAN_POINT('',(-0.01975,0.0577,0.03415));
#1797=CARTESIAN_POINT('',(-2.77555755855504E-17,0.0212,-0.02975));
#1798=MECHANICAL_DESIGN_GEOMETRIC_PRESENTATION_REPRESENTATION('',(#1121),
#1799);
#1799=(
GEOMETRIC_REPRESENTATION_CONTEXT(3)
GLOBAL_UNCERTAINTY_ASSIGNED_CONTEXT((#1800))
GLOBAL_UNIT_ASSIGNED_CONTEXT((#1803,#1802,#1801))
REPRESENTATION_CONTEXT('Part 3','TOP_LEVEL_ASSEMBLY_PART')
);
#1800=UNCERTAINTY_MEASURE_WITH_UNIT(LENGTH_MEASURE(1.E-8),#1803,
'DISTANCE_ACCURACY_VALUE','Maximum Tolerance applied to model');
#1801=(
NAMED_UNIT(*)
SI_UNIT($,.STERADIAN.)
SOLID_ANGLE_UNIT()
);
#1802=(
NAMED_UNIT(*)
PLANE_ANGLE_UNIT()
SI_UNIT($,.RADIAN.)
);
#1803=(
LENGTH_UNIT()
NAMED_UNIT(*)
SI_UNIT($,.METRE.)
);
#1804=PRODUCT_DEFINITION_SHAPE('','',#1805);
#1805=PRODUCT_DEFINITION('','',#1807,#1806);
#1806=PRODUCT_DEFINITION_CONTEXT('',#1813,'design');
#1807=PRODUCT_DEFINITION_FORMATION_WITH_SPECIFIED_SOURCE('','',#1809,
 .NOT_KNOWN.);
#1808=PRODUCT_RELATED_PRODUCT_CATEGORY('','',(#1809));
#1809=PRODUCT('Part 3','Part 3','Part 3',(#1811));
#1810=PRODUCT_CATEGORY('','');
#1811=PRODUCT_CONTEXT('',#1813,'mechanical');
#1812=APPLICATION_PROTOCOL_DEFINITION('international standard',
'automotive_design',2010,#1813);
#1813=APPLICATION_CONTEXT(
'core data for automotive mechanical design processes');
ENDSEC;
END-ISO-10303-21;
