ISO-10303-21;
HEADER;
/* Generated by software containing ST-Developer
 * from STEP Tools, Inc. (www.steptools.com) 
 */
/* OPTION: using custom renumber hook */

FILE_DESCRIPTION(
/* description */ ('STEP AP214',
'CAx-IF Rec.Pracs.---User Defined Attributes---1.5---2016-08-15'),
/* implementation_level */ '2;1');

FILE_NAME(
/* name */ 'Base turn - Circular Servo Horn',
/* time_stamp */ '2026-05-17T02:39:02Z',
/* author */ (''),
/* organization */ (''),
/* preprocessor_version */ 'ST-DEVELOPER v20',
/* originating_system */ 'ONSHAPE BY PTC INC, 1.215',
/* authorisation */ '  ');

FILE_SCHEMA (('AUTOMOTIVE_DESIGN {1 0 10303 214 3 1 1}'));
ENDSEC;

DATA;
#10=PROPERTY_DEFINITION_REPRESENTATION(#14,#12);
#11=PROPERTY_DEFINITION_REPRESENTATION(#15,#13);
#12=REPRESENTATION('',(#16),#1265);
#13=REPRESENTATION('',(#17),#1265);
#14=PROPERTY_DEFINITION('pmi validation property','',#1270);
#15=PROPERTY_DEFINITION('pmi validation property','',#1270);
#16=VALUE_REPRESENTATION_ITEM('number of annotations',COUNT_MEASURE(0.));
#17=VALUE_REPRESENTATION_ITEM('number of views',COUNT_MEASURE(0.));
#18=SHAPE_REPRESENTATION_RELATIONSHIP('','',#722,#19);
#19=ADVANCED_BREP_SHAPE_REPRESENTATION('',(#720),#1265);
#20=TOROIDAL_SURFACE('',#808,0.00095,0.0002);
#21=TOROIDAL_SURFACE('',#809,0.00095,0.0002);
#22=TOROIDAL_SURFACE('',#810,0.00095,0.0002);
#23=TOROIDAL_SURFACE('',#811,0.00095,0.0002);
#24=TOROIDAL_SURFACE('',#812,0.00095,0.0002);
#25=TOROIDAL_SURFACE('',#813,0.00095,0.0002);
#26=TOROIDAL_SURFACE('',#814,0.00095,0.0002);
#27=TOROIDAL_SURFACE('',#815,0.00095,0.0002);
#28=TOROIDAL_SURFACE('',#816,0.00095,0.0002);
#29=TOROIDAL_SURFACE('',#817,0.00095,0.0002);
#30=TOROIDAL_SURFACE('',#818,0.00095,0.0002);
#31=TOROIDAL_SURFACE('',#819,0.00095,0.0002);
#32=TOROIDAL_SURFACE('',#820,0.0103,0.0002);
#33=TOROIDAL_SURFACE('',#821,0.0025,0.0002);
#34=TOROIDAL_SURFACE('',#822,0.0017,0.0002);
#35=TOROIDAL_SURFACE('',#823,0.0029,0.0002);
#36=TOROIDAL_SURFACE('',#824,0.0041,0.0002);
#37=TOROIDAL_SURFACE('',#825,0.00095,0.0002);
#38=TOROIDAL_SURFACE('',#826,0.00095,0.0002);
#39=TOROIDAL_SURFACE('',#827,0.00095,0.0002);
#40=TOROIDAL_SURFACE('',#828,0.00095,0.0002);
#41=TOROIDAL_SURFACE('',#829,0.00095,0.0002);
#42=TOROIDAL_SURFACE('',#830,0.00095,0.0002);
#43=TOROIDAL_SURFACE('',#831,0.0103,0.0002);
#44=TOROIDAL_SURFACE('',#832,0.00095,0.0002);
#45=TOROIDAL_SURFACE('',#833,0.00095,0.0002);
#46=TOROIDAL_SURFACE('',#834,0.00095,0.0002);
#47=TOROIDAL_SURFACE('',#835,0.00095,0.0002);
#48=TOROIDAL_SURFACE('',#836,0.00095,0.0002);
#49=TOROIDAL_SURFACE('',#837,0.00095,0.0002);
#50=TOROIDAL_SURFACE('',#838,0.0045,0.0002);
#51=CYLINDRICAL_SURFACE('',#760,0.0105);
#52=CYLINDRICAL_SURFACE('',#763,0.00075);
#53=CYLINDRICAL_SURFACE('',#766,0.00075);
#54=CYLINDRICAL_SURFACE('',#769,0.00075);
#55=CYLINDRICAL_SURFACE('',#772,0.00075);
#56=CYLINDRICAL_SURFACE('',#775,0.00075);
#57=CYLINDRICAL_SURFACE('',#778,0.00075);
#58=CYLINDRICAL_SURFACE('',#781,0.00075);
#59=CYLINDRICAL_SURFACE('',#784,0.00075);
#60=CYLINDRICAL_SURFACE('',#787,0.00075);
#61=CYLINDRICAL_SURFACE('',#790,0.00075);
#62=CYLINDRICAL_SURFACE('',#793,0.00075);
#63=CYLINDRICAL_SURFACE('',#796,0.00075);
#64=CYLINDRICAL_SURFACE('',#799,0.0043);
#65=CYLINDRICAL_SURFACE('',#802,0.0027);
#66=CYLINDRICAL_SURFACE('',#805,0.0015);
#67=CYLINDRICAL_SURFACE('',#839,0.0045);
#68=ORIENTED_EDGE('',*,*,#198,.T.);
#69=ORIENTED_EDGE('',*,*,#199,.T.);
#70=ORIENTED_EDGE('',*,*,#200,.T.);
#71=ORIENTED_EDGE('',*,*,#201,.T.);
#72=ORIENTED_EDGE('',*,*,#202,.T.);
#73=ORIENTED_EDGE('',*,*,#203,.T.);
#74=ORIENTED_EDGE('',*,*,#204,.T.);
#75=ORIENTED_EDGE('',*,*,#205,.T.);
#76=ORIENTED_EDGE('',*,*,#206,.T.);
#77=ORIENTED_EDGE('',*,*,#207,.T.);
#78=ORIENTED_EDGE('',*,*,#208,.T.);
#79=ORIENTED_EDGE('',*,*,#209,.T.);
#80=ORIENTED_EDGE('',*,*,#210,.T.);
#81=ORIENTED_EDGE('',*,*,#211,.T.);
#82=ORIENTED_EDGE('',*,*,#212,.T.);
#83=ORIENTED_EDGE('',*,*,#213,.T.);
#84=ORIENTED_EDGE('',*,*,#214,.T.);
#85=ORIENTED_EDGE('',*,*,#215,.T.);
#86=ORIENTED_EDGE('',*,*,#216,.T.);
#87=ORIENTED_EDGE('',*,*,#217,.T.);
#88=ORIENTED_EDGE('',*,*,#218,.T.);
#89=ORIENTED_EDGE('',*,*,#219,.T.);
#90=ORIENTED_EDGE('',*,*,#220,.T.);
#91=ORIENTED_EDGE('',*,*,#221,.T.);
#92=ORIENTED_EDGE('',*,*,#222,.T.);
#93=ORIENTED_EDGE('',*,*,#223,.T.);
#94=ORIENTED_EDGE('',*,*,#224,.T.);
#95=ORIENTED_EDGE('',*,*,#225,.T.);
#96=ORIENTED_EDGE('',*,*,#226,.T.);
#97=ORIENTED_EDGE('',*,*,#227,.T.);
#98=ORIENTED_EDGE('',*,*,#228,.T.);
#99=ORIENTED_EDGE('',*,*,#229,.T.);
#100=ORIENTED_EDGE('',*,*,#230,.T.);
#101=ORIENTED_EDGE('',*,*,#231,.T.);
#102=ORIENTED_EDGE('',*,*,#232,.T.);
#103=ORIENTED_EDGE('',*,*,#233,.T.);
#104=ORIENTED_EDGE('',*,*,#234,.T.);
#105=ORIENTED_EDGE('',*,*,#235,.T.);
#106=ORIENTED_EDGE('',*,*,#236,.T.);
#107=ORIENTED_EDGE('',*,*,#237,.T.);
#108=ORIENTED_EDGE('',*,*,#238,.T.);
#109=ORIENTED_EDGE('',*,*,#239,.T.);
#110=ORIENTED_EDGE('',*,*,#240,.T.);
#111=ORIENTED_EDGE('',*,*,#241,.T.);
#112=ORIENTED_EDGE('',*,*,#242,.T.);
#113=ORIENTED_EDGE('',*,*,#243,.T.);
#114=ORIENTED_EDGE('',*,*,#244,.T.);
#115=ORIENTED_EDGE('',*,*,#245,.T.);
#116=ORIENTED_EDGE('',*,*,#246,.T.);
#117=ORIENTED_EDGE('',*,*,#247,.T.);
#118=ORIENTED_EDGE('',*,*,#248,.T.);
#119=ORIENTED_EDGE('',*,*,#249,.T.);
#120=ORIENTED_EDGE('',*,*,#250,.T.);
#121=ORIENTED_EDGE('',*,*,#251,.T.);
#122=ORIENTED_EDGE('',*,*,#252,.T.);
#123=ORIENTED_EDGE('',*,*,#253,.T.);
#124=ORIENTED_EDGE('',*,*,#254,.T.);
#125=ORIENTED_EDGE('',*,*,#255,.T.);
#126=ORIENTED_EDGE('',*,*,#256,.T.);
#127=ORIENTED_EDGE('',*,*,#257,.T.);
#128=ORIENTED_EDGE('',*,*,#258,.T.);
#129=ORIENTED_EDGE('',*,*,#259,.T.);
#130=ORIENTED_EDGE('',*,*,#260,.T.);
#131=ORIENTED_EDGE('',*,*,#261,.T.);
#132=ORIENTED_EDGE('',*,*,#215,.F.);
#133=ORIENTED_EDGE('',*,*,#254,.F.);
#134=ORIENTED_EDGE('',*,*,#214,.F.);
#135=ORIENTED_EDGE('',*,*,#252,.F.);
#136=ORIENTED_EDGE('',*,*,#213,.F.);
#137=ORIENTED_EDGE('',*,*,#250,.F.);
#138=ORIENTED_EDGE('',*,*,#212,.F.);
#139=ORIENTED_EDGE('',*,*,#248,.F.);
#140=ORIENTED_EDGE('',*,*,#211,.F.);
#141=ORIENTED_EDGE('',*,*,#246,.F.);
#142=ORIENTED_EDGE('',*,*,#210,.F.);
#143=ORIENTED_EDGE('',*,*,#244,.F.);
#144=ORIENTED_EDGE('',*,*,#209,.F.);
#145=ORIENTED_EDGE('',*,*,#242,.F.);
#146=ORIENTED_EDGE('',*,*,#208,.F.);
#147=ORIENTED_EDGE('',*,*,#240,.F.);
#148=ORIENTED_EDGE('',*,*,#207,.F.);
#149=ORIENTED_EDGE('',*,*,#238,.F.);
#150=ORIENTED_EDGE('',*,*,#206,.F.);
#151=ORIENTED_EDGE('',*,*,#236,.F.);
#152=ORIENTED_EDGE('',*,*,#205,.F.);
#153=ORIENTED_EDGE('',*,*,#234,.F.);
#154=ORIENTED_EDGE('',*,*,#204,.F.);
#155=ORIENTED_EDGE('',*,*,#232,.F.);
#156=ORIENTED_EDGE('',*,*,#230,.F.);
#157=ORIENTED_EDGE('',*,*,#203,.F.);
#158=ORIENTED_EDGE('',*,*,#258,.F.);
#159=ORIENTED_EDGE('',*,*,#199,.F.);
#160=ORIENTED_EDGE('',*,*,#260,.F.);
#161=ORIENTED_EDGE('',*,*,#198,.F.);
#162=ORIENTED_EDGE('',*,*,#259,.F.);
#163=ORIENTED_EDGE('',*,*,#201,.F.);
#164=ORIENTED_EDGE('',*,*,#200,.F.);
#165=ORIENTED_EDGE('',*,*,#257,.F.);
#166=ORIENTED_EDGE('',*,*,#255,.F.);
#167=ORIENTED_EDGE('',*,*,#229,.F.);
#168=ORIENTED_EDGE('',*,*,#251,.F.);
#169=ORIENTED_EDGE('',*,*,#228,.F.);
#170=ORIENTED_EDGE('',*,*,#247,.F.);
#171=ORIENTED_EDGE('',*,*,#227,.F.);
#172=ORIENTED_EDGE('',*,*,#243,.F.);
#173=ORIENTED_EDGE('',*,*,#226,.F.);
#174=ORIENTED_EDGE('',*,*,#239,.F.);
#175=ORIENTED_EDGE('',*,*,#225,.F.);
#176=ORIENTED_EDGE('',*,*,#235,.F.);
#177=ORIENTED_EDGE('',*,*,#224,.F.);
#178=ORIENTED_EDGE('',*,*,#223,.F.);
#179=ORIENTED_EDGE('',*,*,#231,.F.);
#180=ORIENTED_EDGE('',*,*,#233,.F.);
#181=ORIENTED_EDGE('',*,*,#222,.F.);
#182=ORIENTED_EDGE('',*,*,#237,.F.);
#183=ORIENTED_EDGE('',*,*,#221,.F.);
#184=ORIENTED_EDGE('',*,*,#241,.F.);
#185=ORIENTED_EDGE('',*,*,#220,.F.);
#186=ORIENTED_EDGE('',*,*,#245,.F.);
#187=ORIENTED_EDGE('',*,*,#219,.F.);
#188=ORIENTED_EDGE('',*,*,#249,.F.);
#189=ORIENTED_EDGE('',*,*,#218,.F.);
#190=ORIENTED_EDGE('',*,*,#253,.F.);
#191=ORIENTED_EDGE('',*,*,#217,.F.);
#192=ORIENTED_EDGE('',*,*,#216,.F.);
#193=ORIENTED_EDGE('',*,*,#256,.F.);
#194=ORIENTED_EDGE('',*,*,#262,.T.);
#195=ORIENTED_EDGE('',*,*,#202,.F.);
#196=ORIENTED_EDGE('',*,*,#261,.F.);
#197=ORIENTED_EDGE('',*,*,#262,.F.);
#198=EDGE_CURVE('',#263,#263,#328,.T.);
#199=EDGE_CURVE('',#264,#264,#329,.T.);
#200=EDGE_CURVE('',#265,#265,#330,.T.);
#201=EDGE_CURVE('',#266,#266,#331,.T.);
#202=EDGE_CURVE('',#267,#267,#332,.T.);
#203=EDGE_CURVE('',#268,#268,#333,.T.);
#204=EDGE_CURVE('',#269,#269,#334,.T.);
#205=EDGE_CURVE('',#270,#270,#335,.T.);
#206=EDGE_CURVE('',#271,#271,#336,.T.);
#207=EDGE_CURVE('',#272,#272,#337,.T.);
#208=EDGE_CURVE('',#273,#273,#338,.T.);
#209=EDGE_CURVE('',#274,#274,#339,.T.);
#210=EDGE_CURVE('',#275,#275,#340,.T.);
#211=EDGE_CURVE('',#276,#276,#341,.T.);
#212=EDGE_CURVE('',#277,#277,#342,.T.);
#213=EDGE_CURVE('',#278,#278,#343,.T.);
#214=EDGE_CURVE('',#279,#279,#344,.T.);
#215=EDGE_CURVE('',#280,#280,#345,.T.);
#216=EDGE_CURVE('',#281,#281,#346,.T.);
#217=EDGE_CURVE('',#282,#282,#347,.T.);
#218=EDGE_CURVE('',#283,#283,#348,.T.);
#219=EDGE_CURVE('',#284,#284,#349,.T.);
#220=EDGE_CURVE('',#285,#285,#350,.T.);
#221=EDGE_CURVE('',#286,#286,#351,.T.);
#222=EDGE_CURVE('',#287,#287,#352,.T.);
#223=EDGE_CURVE('',#288,#288,#353,.T.);
#224=EDGE_CURVE('',#289,#289,#354,.T.);
#225=EDGE_CURVE('',#290,#290,#355,.T.);
#226=EDGE_CURVE('',#291,#291,#356,.T.);
#227=EDGE_CURVE('',#292,#292,#357,.T.);
#228=EDGE_CURVE('',#293,#293,#358,.T.);
#229=EDGE_CURVE('',#294,#294,#359,.T.);
#230=EDGE_CURVE('',#295,#295,#360,.T.);
#231=EDGE_CURVE('',#296,#296,#361,.T.);
#232=EDGE_CURVE('',#297,#297,#362,.T.);
#233=EDGE_CURVE('',#298,#298,#363,.T.);
#234=EDGE_CURVE('',#299,#299,#364,.T.);
#235=EDGE_CURVE('',#300,#300,#365,.T.);
#236=EDGE_CURVE('',#301,#301,#366,.T.);
#237=EDGE_CURVE('',#302,#302,#367,.T.);
#238=EDGE_CURVE('',#303,#303,#368,.T.);
#239=EDGE_CURVE('',#304,#304,#369,.T.);
#240=EDGE_CURVE('',#305,#305,#370,.T.);
#241=EDGE_CURVE('',#306,#306,#371,.T.);
#242=EDGE_CURVE('',#307,#307,#372,.T.);
#243=EDGE_CURVE('',#308,#308,#373,.T.);
#244=EDGE_CURVE('',#309,#309,#374,.T.);
#245=EDGE_CURVE('',#310,#310,#375,.T.);
#246=EDGE_CURVE('',#311,#311,#376,.T.);
#247=EDGE_CURVE('',#312,#312,#377,.T.);
#248=EDGE_CURVE('',#313,#313,#378,.T.);
#249=EDGE_CURVE('',#314,#314,#379,.T.);
#250=EDGE_CURVE('',#315,#315,#380,.T.);
#251=EDGE_CURVE('',#316,#316,#381,.T.);
#252=EDGE_CURVE('',#317,#317,#382,.T.);
#253=EDGE_CURVE('',#318,#318,#383,.T.);
#254=EDGE_CURVE('',#319,#319,#384,.T.);
#255=EDGE_CURVE('',#320,#320,#385,.T.);
#256=EDGE_CURVE('',#321,#321,#386,.T.);
#257=EDGE_CURVE('',#322,#322,#387,.T.);
#258=EDGE_CURVE('',#323,#323,#388,.T.);
#259=EDGE_CURVE('',#324,#324,#389,.T.);
#260=EDGE_CURVE('',#325,#325,#390,.T.);
#261=EDGE_CURVE('',#326,#326,#391,.T.);
#262=EDGE_CURVE('',#327,#327,#392,.T.);
#263=VERTEX_POINT('',#1083);
#264=VERTEX_POINT('',#1085);
#265=VERTEX_POINT('',#1088);
#266=VERTEX_POINT('',#1090);
#267=VERTEX_POINT('',#1093);
#268=VERTEX_POINT('',#1095);
#269=VERTEX_POINT('',#1097);
#270=VERTEX_POINT('',#1099);
#271=VERTEX_POINT('',#1101);
#272=VERTEX_POINT('',#1103);
#273=VERTEX_POINT('',#1105);
#274=VERTEX_POINT('',#1107);
#275=VERTEX_POINT('',#1109);
#276=VERTEX_POINT('',#1111);
#277=VERTEX_POINT('',#1113);
#278=VERTEX_POINT('',#1115);
#279=VERTEX_POINT('',#1117);
#280=VERTEX_POINT('',#1119);
#281=VERTEX_POINT('',#1122);
#282=VERTEX_POINT('',#1124);
#283=VERTEX_POINT('',#1126);
#284=VERTEX_POINT('',#1128);
#285=VERTEX_POINT('',#1130);
#286=VERTEX_POINT('',#1132);
#287=VERTEX_POINT('',#1134);
#288=VERTEX_POINT('',#1136);
#289=VERTEX_POINT('',#1138);
#290=VERTEX_POINT('',#1140);
#291=VERTEX_POINT('',#1142);
#292=VERTEX_POINT('',#1144);
#293=VERTEX_POINT('',#1146);
#294=VERTEX_POINT('',#1148);
#295=VERTEX_POINT('',#1151);
#296=VERTEX_POINT('',#1153);
#297=VERTEX_POINT('',#1156);
#298=VERTEX_POINT('',#1158);
#299=VERTEX_POINT('',#1161);
#300=VERTEX_POINT('',#1163);
#301=VERTEX_POINT('',#1166);
#302=VERTEX_POINT('',#1168);
#303=VERTEX_POINT('',#1171);
#304=VERTEX_POINT('',#1173);
#305=VERTEX_POINT('',#1176);
#306=VERTEX_POINT('',#1178);
#307=VERTEX_POINT('',#1181);
#308=VERTEX_POINT('',#1183);
#309=VERTEX_POINT('',#1186);
#310=VERTEX_POINT('',#1188);
#311=VERTEX_POINT('',#1191);
#312=VERTEX_POINT('',#1193);
#313=VERTEX_POINT('',#1196);
#314=VERTEX_POINT('',#1198);
#315=VERTEX_POINT('',#1201);
#316=VERTEX_POINT('',#1203);
#317=VERTEX_POINT('',#1206);
#318=VERTEX_POINT('',#1208);
#319=VERTEX_POINT('',#1211);
#320=VERTEX_POINT('',#1213);
#321=VERTEX_POINT('',#1216);
#322=VERTEX_POINT('',#1218);
#323=VERTEX_POINT('',#1221);
#324=VERTEX_POINT('',#1223);
#325=VERTEX_POINT('',#1226);
#326=VERTEX_POINT('',#1228);
#327=VERTEX_POINT('',#1262);
#328=CIRCLE('',#725,0.0017);
#329=CIRCLE('',#726,0.0025);
#330=CIRCLE('',#728,0.0041);
#331=CIRCLE('',#729,0.0029);
#332=CIRCLE('',#731,0.0045);
#333=CIRCLE('',#732,0.0103);
#334=CIRCLE('',#733,0.00095);
#335=CIRCLE('',#734,0.00095);
#336=CIRCLE('',#735,0.00095);
#337=CIRCLE('',#736,0.00095);
#338=CIRCLE('',#737,0.00095);
#339=CIRCLE('',#738,0.00095);
#340=CIRCLE('',#739,0.00095);
#341=CIRCLE('',#740,0.00095);
#342=CIRCLE('',#741,0.00095);
#343=CIRCLE('',#742,0.00095);
#344=CIRCLE('',#743,0.00095);
#345=CIRCLE('',#744,0.00095);
#346=CIRCLE('',#746,0.0045);
#347=CIRCLE('',#747,0.00095);
#348=CIRCLE('',#748,0.00095);
#349=CIRCLE('',#749,0.00095);
#350=CIRCLE('',#750,0.00095);
#351=CIRCLE('',#751,0.00095);
#352=CIRCLE('',#752,0.00095);
#353=CIRCLE('',#753,0.0103);
#354=CIRCLE('',#754,0.00095);
#355=CIRCLE('',#755,0.00095);
#356=CIRCLE('',#756,0.00095);
#357=CIRCLE('',#757,0.00095);
#358=CIRCLE('',#758,0.00095);
#359=CIRCLE('',#759,0.00095);
#360=CIRCLE('',#761,0.0105);
#361=CIRCLE('',#762,0.0105);
#362=CIRCLE('',#764,0.00075);
#363=CIRCLE('',#765,0.00075);
#364=CIRCLE('',#767,0.00075);
#365=CIRCLE('',#768,0.00075);
#366=CIRCLE('',#770,0.00075);
#367=CIRCLE('',#771,0.00075);
#368=CIRCLE('',#773,0.00075);
#369=CIRCLE('',#774,0.00075);
#370=CIRCLE('',#776,0.00075);
#371=CIRCLE('',#777,0.00075);
#372=CIRCLE('',#779,0.00075);
#373=CIRCLE('',#780,0.00075);
#374=CIRCLE('',#782,0.00075);
#375=CIRCLE('',#783,0.00075);
#376=CIRCLE('',#785,0.00075);
#377=CIRCLE('',#786,0.00075);
#378=CIRCLE('',#788,0.00075);
#379=CIRCLE('',#789,0.00075);
#380=CIRCLE('',#791,0.00075);
#381=CIRCLE('',#792,0.00075);
#382=CIRCLE('',#794,0.00075);
#383=CIRCLE('',#795,0.00075);
#384=CIRCLE('',#797,0.00075);
#385=CIRCLE('',#798,0.00075);
#386=CIRCLE('',#800,0.0043);
#387=CIRCLE('',#801,0.0043);
#388=CIRCLE('',#803,0.0027);
#389=CIRCLE('',#804,0.0027);
#390=CIRCLE('',#806,0.0015);
#391=CIRCLE('',#807,0.0015);
#392=CIRCLE('',#840,0.0045);
#393=EDGE_LOOP('',(#68));
#394=EDGE_LOOP('',(#69));
#395=EDGE_LOOP('',(#70));
#396=EDGE_LOOP('',(#71));
#397=EDGE_LOOP('',(#72));
#398=EDGE_LOOP('',(#73));
#399=EDGE_LOOP('',(#74));
#400=EDGE_LOOP('',(#75));
#401=EDGE_LOOP('',(#76));
#402=EDGE_LOOP('',(#77));
#403=EDGE_LOOP('',(#78));
#404=EDGE_LOOP('',(#79));
#405=EDGE_LOOP('',(#80));
#406=EDGE_LOOP('',(#81));
#407=EDGE_LOOP('',(#82));
#408=EDGE_LOOP('',(#83));
#409=EDGE_LOOP('',(#84));
#410=EDGE_LOOP('',(#85));
#411=EDGE_LOOP('',(#86));
#412=EDGE_LOOP('',(#87));
#413=EDGE_LOOP('',(#88));
#414=EDGE_LOOP('',(#89));
#415=EDGE_LOOP('',(#90));
#416=EDGE_LOOP('',(#91));
#417=EDGE_LOOP('',(#92));
#418=EDGE_LOOP('',(#93));
#419=EDGE_LOOP('',(#94));
#420=EDGE_LOOP('',(#95));
#421=EDGE_LOOP('',(#96));
#422=EDGE_LOOP('',(#97));
#423=EDGE_LOOP('',(#98));
#424=EDGE_LOOP('',(#99));
#425=EDGE_LOOP('',(#100));
#426=EDGE_LOOP('',(#101));
#427=EDGE_LOOP('',(#102));
#428=EDGE_LOOP('',(#103));
#429=EDGE_LOOP('',(#104));
#430=EDGE_LOOP('',(#105));
#431=EDGE_LOOP('',(#106));
#432=EDGE_LOOP('',(#107));
#433=EDGE_LOOP('',(#108));
#434=EDGE_LOOP('',(#109));
#435=EDGE_LOOP('',(#110));
#436=EDGE_LOOP('',(#111));
#437=EDGE_LOOP('',(#112));
#438=EDGE_LOOP('',(#113));
#439=EDGE_LOOP('',(#114));
#440=EDGE_LOOP('',(#115));
#441=EDGE_LOOP('',(#116));
#442=EDGE_LOOP('',(#117));
#443=EDGE_LOOP('',(#118));
#444=EDGE_LOOP('',(#119));
#445=EDGE_LOOP('',(#120));
#446=EDGE_LOOP('',(#121));
#447=EDGE_LOOP('',(#122));
#448=EDGE_LOOP('',(#123));
#449=EDGE_LOOP('',(#124));
#450=EDGE_LOOP('',(#125));
#451=EDGE_LOOP('',(#126));
#452=EDGE_LOOP('',(#127));
#453=EDGE_LOOP('',(#128));
#454=EDGE_LOOP('',(#129));
#455=EDGE_LOOP('',(#130));
#456=EDGE_LOOP('',(#131));
#457=EDGE_LOOP('',(#132));
#458=EDGE_LOOP('',(#133));
#459=EDGE_LOOP('',(#134));
#460=EDGE_LOOP('',(#135));
#461=EDGE_LOOP('',(#136));
#462=EDGE_LOOP('',(#137));
#463=EDGE_LOOP('',(#138));
#464=EDGE_LOOP('',(#139));
#465=EDGE_LOOP('',(#140));
#466=EDGE_LOOP('',(#141));
#467=EDGE_LOOP('',(#142));
#468=EDGE_LOOP('',(#143));
#469=EDGE_LOOP('',(#144));
#470=EDGE_LOOP('',(#145));
#471=EDGE_LOOP('',(#146));
#472=EDGE_LOOP('',(#147));
#473=EDGE_LOOP('',(#148));
#474=EDGE_LOOP('',(#149));
#475=EDGE_LOOP('',(#150));
#476=EDGE_LOOP('',(#151));
#477=EDGE_LOOP('',(#152));
#478=EDGE_LOOP('',(#153));
#479=EDGE_LOOP('',(#154));
#480=EDGE_LOOP('',(#155));
#481=EDGE_LOOP('',(#156));
#482=EDGE_LOOP('',(#157));
#483=EDGE_LOOP('',(#158));
#484=EDGE_LOOP('',(#159));
#485=EDGE_LOOP('',(#160));
#486=EDGE_LOOP('',(#161));
#487=EDGE_LOOP('',(#162));
#488=EDGE_LOOP('',(#163));
#489=EDGE_LOOP('',(#164));
#490=EDGE_LOOP('',(#165));
#491=EDGE_LOOP('',(#166));
#492=EDGE_LOOP('',(#167));
#493=EDGE_LOOP('',(#168));
#494=EDGE_LOOP('',(#169));
#495=EDGE_LOOP('',(#170));
#496=EDGE_LOOP('',(#171));
#497=EDGE_LOOP('',(#172));
#498=EDGE_LOOP('',(#173));
#499=EDGE_LOOP('',(#174));
#500=EDGE_LOOP('',(#175));
#501=EDGE_LOOP('',(#176));
#502=EDGE_LOOP('',(#177));
#503=EDGE_LOOP('',(#178));
#504=EDGE_LOOP('',(#179));
#505=EDGE_LOOP('',(#180));
#506=EDGE_LOOP('',(#181));
#507=EDGE_LOOP('',(#182));
#508=EDGE_LOOP('',(#183));
#509=EDGE_LOOP('',(#184));
#510=EDGE_LOOP('',(#185));
#511=EDGE_LOOP('',(#186));
#512=EDGE_LOOP('',(#187));
#513=EDGE_LOOP('',(#188));
#514=EDGE_LOOP('',(#189));
#515=EDGE_LOOP('',(#190));
#516=EDGE_LOOP('',(#191));
#517=EDGE_LOOP('',(#192));
#518=EDGE_LOOP('',(#193));
#519=EDGE_LOOP('',(#194));
#520=EDGE_LOOP('',(#195));
#521=EDGE_LOOP('',(#196));
#522=EDGE_LOOP('',(#197));
#523=FACE_BOUND('',#393,.T.);
#524=FACE_BOUND('',#394,.T.);
#525=FACE_BOUND('',#395,.T.);
#526=FACE_BOUND('',#396,.T.);
#527=FACE_BOUND('',#397,.T.);
#528=FACE_BOUND('',#398,.T.);
#529=FACE_BOUND('',#399,.T.);
#530=FACE_BOUND('',#400,.T.);
#531=FACE_BOUND('',#401,.T.);
#532=FACE_BOUND('',#402,.T.);
#533=FACE_BOUND('',#403,.T.);
#534=FACE_BOUND('',#404,.T.);
#535=FACE_BOUND('',#405,.T.);
#536=FACE_BOUND('',#406,.T.);
#537=FACE_BOUND('',#407,.T.);
#538=FACE_BOUND('',#408,.T.);
#539=FACE_BOUND('',#409,.T.);
#540=FACE_BOUND('',#410,.T.);
#541=FACE_BOUND('',#411,.T.);
#542=FACE_BOUND('',#412,.T.);
#543=FACE_BOUND('',#413,.T.);
#544=FACE_BOUND('',#414,.T.);
#545=FACE_BOUND('',#415,.T.);
#546=FACE_BOUND('',#416,.T.);
#547=FACE_BOUND('',#417,.T.);
#548=FACE_BOUND('',#418,.T.);
#549=FACE_BOUND('',#419,.T.);
#550=FACE_BOUND('',#420,.T.);
#551=FACE_BOUND('',#421,.T.);
#552=FACE_BOUND('',#422,.T.);
#553=FACE_BOUND('',#423,.T.);
#554=FACE_BOUND('',#424,.T.);
#555=FACE_BOUND('',#425,.T.);
#556=FACE_BOUND('',#426,.T.);
#557=FACE_BOUND('',#427,.T.);
#558=FACE_BOUND('',#428,.T.);
#559=FACE_BOUND('',#429,.T.);
#560=FACE_BOUND('',#430,.T.);
#561=FACE_BOUND('',#431,.T.);
#562=FACE_BOUND('',#432,.T.);
#563=FACE_BOUND('',#433,.T.);
#564=FACE_BOUND('',#434,.T.);
#565=FACE_BOUND('',#435,.T.);
#566=FACE_BOUND('',#436,.T.);
#567=FACE_BOUND('',#437,.T.);
#568=FACE_BOUND('',#438,.T.);
#569=FACE_BOUND('',#439,.T.);
#570=FACE_BOUND('',#440,.T.);
#571=FACE_BOUND('',#441,.T.);
#572=FACE_BOUND('',#442,.T.);
#573=FACE_BOUND('',#443,.T.);
#574=FACE_BOUND('',#444,.T.);
#575=FACE_BOUND('',#445,.T.);
#576=FACE_BOUND('',#446,.T.);
#577=FACE_BOUND('',#447,.T.);
#578=FACE_BOUND('',#448,.T.);
#579=FACE_BOUND('',#449,.T.);
#580=FACE_BOUND('',#450,.T.);
#581=FACE_BOUND('',#451,.T.);
#582=FACE_BOUND('',#452,.T.);
#583=FACE_BOUND('',#453,.T.);
#584=FACE_BOUND('',#454,.T.);
#585=FACE_BOUND('',#455,.T.);
#586=FACE_BOUND('',#456,.T.);
#587=FACE_BOUND('',#457,.T.);
#588=FACE_BOUND('',#458,.T.);
#589=FACE_BOUND('',#459,.T.);
#590=FACE_BOUND('',#460,.T.);
#591=FACE_BOUND('',#461,.T.);
#592=FACE_BOUND('',#462,.T.);
#593=FACE_BOUND('',#463,.T.);
#594=FACE_BOUND('',#464,.T.);
#595=FACE_BOUND('',#465,.T.);
#596=FACE_BOUND('',#466,.T.);
#597=FACE_BOUND('',#467,.T.);
#598=FACE_BOUND('',#468,.T.);
#599=FACE_BOUND('',#469,.T.);
#600=FACE_BOUND('',#470,.T.);
#601=FACE_BOUND('',#471,.T.);
#602=FACE_BOUND('',#472,.T.);
#603=FACE_BOUND('',#473,.T.);
#604=FACE_BOUND('',#474,.T.);
#605=FACE_BOUND('',#475,.T.);
#606=FACE_BOUND('',#476,.T.);
#607=FACE_BOUND('',#477,.T.);
#608=FACE_BOUND('',#478,.T.);
#609=FACE_BOUND('',#479,.T.);
#610=FACE_BOUND('',#480,.T.);
#611=FACE_BOUND('',#481,.T.);
#612=FACE_BOUND('',#482,.T.);
#613=FACE_BOUND('',#483,.T.);
#614=FACE_BOUND('',#484,.T.);
#615=FACE_BOUND('',#485,.T.);
#616=FACE_BOUND('',#486,.T.);
#617=FACE_BOUND('',#487,.T.);
#618=FACE_BOUND('',#488,.T.);
#619=FACE_BOUND('',#489,.T.);
#620=FACE_BOUND('',#490,.T.);
#621=FACE_BOUND('',#491,.T.);
#622=FACE_BOUND('',#492,.T.);
#623=FACE_BOUND('',#493,.T.);
#624=FACE_BOUND('',#494,.T.);
#625=FACE_BOUND('',#495,.T.);
#626=FACE_BOUND('',#496,.T.);
#627=FACE_BOUND('',#497,.T.);
#628=FACE_BOUND('',#498,.T.);
#629=FACE_BOUND('',#499,.T.);
#630=FACE_BOUND('',#500,.T.);
#631=FACE_BOUND('',#501,.T.);
#632=FACE_BOUND('',#502,.T.);
#633=FACE_BOUND('',#503,.T.);
#634=FACE_BOUND('',#504,.T.);
#635=FACE_BOUND('',#505,.T.);
#636=FACE_BOUND('',#506,.T.);
#637=FACE_BOUND('',#507,.T.);
#638=FACE_BOUND('',#508,.T.);
#639=FACE_BOUND('',#509,.T.);
#640=FACE_BOUND('',#510,.T.);
#641=FACE_BOUND('',#511,.T.);
#642=FACE_BOUND('',#512,.T.);
#643=FACE_BOUND('',#513,.T.);
#644=FACE_BOUND('',#514,.T.);
#645=FACE_BOUND('',#515,.T.);
#646=FACE_BOUND('',#516,.T.);
#647=FACE_BOUND('',#517,.T.);
#648=FACE_BOUND('',#518,.T.);
#649=FACE_BOUND('',#519,.T.);
#650=FACE_BOUND('',#520,.T.);
#651=FACE_BOUND('',#521,.T.);
#652=FACE_BOUND('',#522,.T.);
#653=PLANE('',#724);
#654=PLANE('',#727);
#655=PLANE('',#730);
#656=PLANE('',#745);
#657=PLANE('',#841);
#658=ADVANCED_FACE('',(#523,#524),#653,.T.);
#659=ADVANCED_FACE('',(#525,#526),#654,.T.);
#660=ADVANCED_FACE('',(#527,#528,#529,#530,#531,#532,#533,#534,#535,#536,
#537,#538,#539,#540),#655,.F.);
#661=ADVANCED_FACE('',(#541,#542,#543,#544,#545,#546,#547,#548,#549,#550,
#551,#552,#553,#554),#656,.T.);
#662=ADVANCED_FACE('',(#555,#556),#51,.T.);
#663=ADVANCED_FACE('',(#557,#558),#52,.F.);
#664=ADVANCED_FACE('',(#559,#560),#53,.F.);
#665=ADVANCED_FACE('',(#561,#562),#54,.F.);
#666=ADVANCED_FACE('',(#563,#564),#55,.F.);
#667=ADVANCED_FACE('',(#565,#566),#56,.F.);
#668=ADVANCED_FACE('',(#567,#568),#57,.F.);
#669=ADVANCED_FACE('',(#569,#570),#58,.F.);
#670=ADVANCED_FACE('',(#571,#572),#59,.F.);
#671=ADVANCED_FACE('',(#573,#574),#60,.F.);
#672=ADVANCED_FACE('',(#575,#576),#61,.F.);
#673=ADVANCED_FACE('',(#577,#578),#62,.F.);
#674=ADVANCED_FACE('',(#579,#580),#63,.F.);
#675=ADVANCED_FACE('',(#581,#582),#64,.T.);
#676=ADVANCED_FACE('',(#583,#584),#65,.F.);
#677=ADVANCED_FACE('',(#585,#586),#66,.F.);
#678=ADVANCED_FACE('',(#587,#588),#20,.T.);
#679=ADVANCED_FACE('',(#589,#590),#21,.T.);
#680=ADVANCED_FACE('',(#591,#592),#22,.T.);
#681=ADVANCED_FACE('',(#593,#594),#23,.T.);
#682=ADVANCED_FACE('',(#595,#596),#24,.T.);
#683=ADVANCED_FACE('',(#597,#598),#25,.T.);
#684=ADVANCED_FACE('',(#599,#600),#26,.T.);
#685=ADVANCED_FACE('',(#601,#602),#27,.T.);
#686=ADVANCED_FACE('',(#603,#604),#28,.T.);
#687=ADVANCED_FACE('',(#605,#606),#29,.T.);
#688=ADVANCED_FACE('',(#607,#608),#30,.T.);
#689=ADVANCED_FACE('',(#609,#610),#31,.T.);
#690=ADVANCED_FACE('',(#611,#612),#32,.T.);
#691=ADVANCED_FACE('',(#613,#614),#33,.F.);
#692=ADVANCED_FACE('',(#615,#616),#34,.T.);
#693=ADVANCED_FACE('',(#617,#618),#35,.T.);
#694=ADVANCED_FACE('',(#619,#620),#36,.T.);
#695=ADVANCED_FACE('',(#621,#622),#37,.T.);
#696=ADVANCED_FACE('',(#623,#624),#38,.T.);
#697=ADVANCED_FACE('',(#625,#626),#39,.T.);
#698=ADVANCED_FACE('',(#627,#628),#40,.T.);
#699=ADVANCED_FACE('',(#629,#630),#41,.T.);
#700=ADVANCED_FACE('',(#631,#632),#42,.T.);
#701=ADVANCED_FACE('',(#633,#634),#43,.T.);
#702=ADVANCED_FACE('',(#635,#636),#44,.T.);
#703=ADVANCED_FACE('',(#637,#638),#45,.T.);
#704=ADVANCED_FACE('',(#639,#640),#46,.T.);
#705=ADVANCED_FACE('',(#641,#642),#47,.T.);
#706=ADVANCED_FACE('',(#643,#644),#48,.T.);
#707=ADVANCED_FACE('',(#645,#646),#49,.T.);
#708=ADVANCED_FACE('',(#647,#648),#50,.F.);
#709=ADVANCED_FACE('',(#649,#650),#67,.F.);
#710=ADVANCED_FACE('',(#651,#652),#657,.F.);
#711=CLOSED_SHELL('',(#658,#659,#660,#661,#662,#663,#664,#665,#666,#667,
#668,#669,#670,#671,#672,#673,#674,#675,#676,#677,#678,#679,#680,#681,#682,
#683,#684,#685,#686,#687,#688,#689,#690,#691,#692,#693,#694,#695,#696,#697,
#698,#699,#700,#701,#702,#703,#704,#705,#706,#707,#708,#709,#710));
#712=STYLED_ITEM('',(#713),#720);
#713=PRESENTATION_STYLE_ASSIGNMENT((#714));
#714=SURFACE_STYLE_USAGE(.BOTH.,#715);
#715=SURFACE_SIDE_STYLE('',(#716));
#716=SURFACE_STYLE_FILL_AREA(#717);
#717=FILL_AREA_STYLE('',(#718));
#718=FILL_AREA_STYLE_COLOUR('',#719);
#719=COLOUR_RGB('',0.792156862745098,0.819607843137255,0.933333333333333);
#720=MANIFOLD_SOLID_BREP('Circular Servo Horn',#711);
#721=SHAPE_DEFINITION_REPRESENTATION(#1270,#722);
#722=SHAPE_REPRESENTATION('Circular Servo Horn',(#723),#1265);
#723=AXIS2_PLACEMENT_3D('',#1080,#842,#843);
#724=AXIS2_PLACEMENT_3D('',#1081,#844,#845);
#725=AXIS2_PLACEMENT_3D('',#1082,#846,#847);
#726=AXIS2_PLACEMENT_3D('',#1084,#848,#849);
#727=AXIS2_PLACEMENT_3D('',#1086,#850,#851);
#728=AXIS2_PLACEMENT_3D('',#1087,#852,#853);
#729=AXIS2_PLACEMENT_3D('',#1089,#854,#855);
#730=AXIS2_PLACEMENT_3D('',#1091,#856,#857);
#731=AXIS2_PLACEMENT_3D('',#1092,#858,#859);
#732=AXIS2_PLACEMENT_3D('',#1094,#860,#861);
#733=AXIS2_PLACEMENT_3D('',#1096,#862,#863);
#734=AXIS2_PLACEMENT_3D('',#1098,#864,#865);
#735=AXIS2_PLACEMENT_3D('',#1100,#866,#867);
#736=AXIS2_PLACEMENT_3D('',#1102,#868,#869);
#737=AXIS2_PLACEMENT_3D('',#1104,#870,#871);
#738=AXIS2_PLACEMENT_3D('',#1106,#872,#873);
#739=AXIS2_PLACEMENT_3D('',#1108,#874,#875);
#740=AXIS2_PLACEMENT_3D('',#1110,#876,#877);
#741=AXIS2_PLACEMENT_3D('',#1112,#878,#879);
#742=AXIS2_PLACEMENT_3D('',#1114,#880,#881);
#743=AXIS2_PLACEMENT_3D('',#1116,#882,#883);
#744=AXIS2_PLACEMENT_3D('',#1118,#884,#885);
#745=AXIS2_PLACEMENT_3D('',#1120,#886,#887);
#746=AXIS2_PLACEMENT_3D('',#1121,#888,#889);
#747=AXIS2_PLACEMENT_3D('',#1123,#890,#891);
#748=AXIS2_PLACEMENT_3D('',#1125,#892,#893);
#749=AXIS2_PLACEMENT_3D('',#1127,#894,#895);
#750=AXIS2_PLACEMENT_3D('',#1129,#896,#897);
#751=AXIS2_PLACEMENT_3D('',#1131,#898,#899);
#752=AXIS2_PLACEMENT_3D('',#1133,#900,#901);
#753=AXIS2_PLACEMENT_3D('',#1135,#902,#903);
#754=AXIS2_PLACEMENT_3D('',#1137,#904,#905);
#755=AXIS2_PLACEMENT_3D('',#1139,#906,#907);
#756=AXIS2_PLACEMENT_3D('',#1141,#908,#909);
#757=AXIS2_PLACEMENT_3D('',#1143,#910,#911);
#758=AXIS2_PLACEMENT_3D('',#1145,#912,#913);
#759=AXIS2_PLACEMENT_3D('',#1147,#914,#915);
#760=AXIS2_PLACEMENT_3D('',#1149,#916,#917);
#761=AXIS2_PLACEMENT_3D('',#1150,#918,#919);
#762=AXIS2_PLACEMENT_3D('',#1152,#920,#921);
#763=AXIS2_PLACEMENT_3D('',#1154,#922,#923);
#764=AXIS2_PLACEMENT_3D('',#1155,#924,#925);
#765=AXIS2_PLACEMENT_3D('',#1157,#926,#927);
#766=AXIS2_PLACEMENT_3D('',#1159,#928,#929);
#767=AXIS2_PLACEMENT_3D('',#1160,#930,#931);
#768=AXIS2_PLACEMENT_3D('',#1162,#932,#933);
#769=AXIS2_PLACEMENT_3D('',#1164,#934,#935);
#770=AXIS2_PLACEMENT_3D('',#1165,#936,#937);
#771=AXIS2_PLACEMENT_3D('',#1167,#938,#939);
#772=AXIS2_PLACEMENT_3D('',#1169,#940,#941);
#773=AXIS2_PLACEMENT_3D('',#1170,#942,#943);
#774=AXIS2_PLACEMENT_3D('',#1172,#944,#945);
#775=AXIS2_PLACEMENT_3D('',#1174,#946,#947);
#776=AXIS2_PLACEMENT_3D('',#1175,#948,#949);
#777=AXIS2_PLACEMENT_3D('',#1177,#950,#951);
#778=AXIS2_PLACEMENT_3D('',#1179,#952,#953);
#779=AXIS2_PLACEMENT_3D('',#1180,#954,#955);
#780=AXIS2_PLACEMENT_3D('',#1182,#956,#957);
#781=AXIS2_PLACEMENT_3D('',#1184,#958,#959);
#782=AXIS2_PLACEMENT_3D('',#1185,#960,#961);
#783=AXIS2_PLACEMENT_3D('',#1187,#962,#963);
#784=AXIS2_PLACEMENT_3D('',#1189,#964,#965);
#785=AXIS2_PLACEMENT_3D('',#1190,#966,#967);
#786=AXIS2_PLACEMENT_3D('',#1192,#968,#969);
#787=AXIS2_PLACEMENT_3D('',#1194,#970,#971);
#788=AXIS2_PLACEMENT_3D('',#1195,#972,#973);
#789=AXIS2_PLACEMENT_3D('',#1197,#974,#975);
#790=AXIS2_PLACEMENT_3D('',#1199,#976,#977);
#791=AXIS2_PLACEMENT_3D('',#1200,#978,#979);
#792=AXIS2_PLACEMENT_3D('',#1202,#980,#981);
#793=AXIS2_PLACEMENT_3D('',#1204,#982,#983);
#794=AXIS2_PLACEMENT_3D('',#1205,#984,#985);
#795=AXIS2_PLACEMENT_3D('',#1207,#986,#987);
#796=AXIS2_PLACEMENT_3D('',#1209,#988,#989);
#797=AXIS2_PLACEMENT_3D('',#1210,#990,#991);
#798=AXIS2_PLACEMENT_3D('',#1212,#992,#993);
#799=AXIS2_PLACEMENT_3D('',#1214,#994,#995);
#800=AXIS2_PLACEMENT_3D('',#1215,#996,#997);
#801=AXIS2_PLACEMENT_3D('',#1217,#998,#999);
#802=AXIS2_PLACEMENT_3D('',#1219,#1000,#1001);
#803=AXIS2_PLACEMENT_3D('',#1220,#1002,#1003);
#804=AXIS2_PLACEMENT_3D('',#1222,#1004,#1005);
#805=AXIS2_PLACEMENT_3D('',#1224,#1006,#1007);
#806=AXIS2_PLACEMENT_3D('',#1225,#1008,#1009);
#807=AXIS2_PLACEMENT_3D('',#1227,#1010,#1011);
#808=AXIS2_PLACEMENT_3D('',#1229,#1012,#1013);
#809=AXIS2_PLACEMENT_3D('',#1230,#1014,#1015);
#810=AXIS2_PLACEMENT_3D('',#1231,#1016,#1017);
#811=AXIS2_PLACEMENT_3D('',#1232,#1018,#1019);
#812=AXIS2_PLACEMENT_3D('',#1233,#1020,#1021);
#813=AXIS2_PLACEMENT_3D('',#1234,#1022,#1023);
#814=AXIS2_PLACEMENT_3D('',#1235,#1024,#1025);
#815=AXIS2_PLACEMENT_3D('',#1236,#1026,#1027);
#816=AXIS2_PLACEMENT_3D('',#1237,#1028,#1029);
#817=AXIS2_PLACEMENT_3D('',#1238,#1030,#1031);
#818=AXIS2_PLACEMENT_3D('',#1239,#1032,#1033);
#819=AXIS2_PLACEMENT_3D('',#1240,#1034,#1035);
#820=AXIS2_PLACEMENT_3D('',#1241,#1036,#1037);
#821=AXIS2_PLACEMENT_3D('',#1242,#1038,#1039);
#822=AXIS2_PLACEMENT_3D('',#1243,#1040,#1041);
#823=AXIS2_PLACEMENT_3D('',#1244,#1042,#1043);
#824=AXIS2_PLACEMENT_3D('',#1245,#1044,#1045);
#825=AXIS2_PLACEMENT_3D('',#1246,#1046,#1047);
#826=AXIS2_PLACEMENT_3D('',#1247,#1048,#1049);
#827=AXIS2_PLACEMENT_3D('',#1248,#1050,#1051);
#828=AXIS2_PLACEMENT_3D('',#1249,#1052,#1053);
#829=AXIS2_PLACEMENT_3D('',#1250,#1054,#1055);
#830=AXIS2_PLACEMENT_3D('',#1251,#1056,#1057);
#831=AXIS2_PLACEMENT_3D('',#1252,#1058,#1059);
#832=AXIS2_PLACEMENT_3D('',#1253,#1060,#1061);
#833=AXIS2_PLACEMENT_3D('',#1254,#1062,#1063);
#834=AXIS2_PLACEMENT_3D('',#1255,#1064,#1065);
#835=AXIS2_PLACEMENT_3D('',#1256,#1066,#1067);
#836=AXIS2_PLACEMENT_3D('',#1257,#1068,#1069);
#837=AXIS2_PLACEMENT_3D('',#1258,#1070,#1071);
#838=AXIS2_PLACEMENT_3D('',#1259,#1072,#1073);
#839=AXIS2_PLACEMENT_3D('',#1260,#1074,#1075);
#840=AXIS2_PLACEMENT_3D('',#1261,#1076,#1077);
#841=AXIS2_PLACEMENT_3D('',#1263,#1078,#1079);
#842=DIRECTION('',(0.,0.,1.));
#843=DIRECTION('',(1.,0.,0.));
#844=DIRECTION('',(0.,0.,1.));
#845=DIRECTION('',(1.,0.,0.));
#846=DIRECTION('',(0.,0.,-1.));
#847=DIRECTION('',(1.,0.,0.));
#848=DIRECTION('',(0.,0.,1.));
#849=DIRECTION('',(1.,0.,0.));
#850=DIRECTION('',(0.,0.,1.));
#851=DIRECTION('',(1.,0.,0.));
#852=DIRECTION('',(0.,0.,1.));
#853=DIRECTION('',(1.,0.,0.));
#854=DIRECTION('',(0.,0.,-1.));
#855=DIRECTION('',(1.,0.,0.));
#856=DIRECTION('',(0.,0.,1.));
#857=DIRECTION('',(1.,0.,0.));
#858=DIRECTION('',(0.,0.,1.));
#859=DIRECTION('',(1.,0.,0.));
#860=DIRECTION('',(0.,0.,-1.));
#861=DIRECTION('',(1.,0.,0.));
#862=DIRECTION('',(0.,0.,1.));
#863=DIRECTION('',(1.,0.,0.));
#864=DIRECTION('',(0.,0.,1.));
#865=DIRECTION('',(1.,0.,0.));
#866=DIRECTION('',(0.,0.,1.));
#867=DIRECTION('',(1.,0.,0.));
#868=DIRECTION('',(0.,0.,1.));
#869=DIRECTION('',(1.,0.,0.));
#870=DIRECTION('',(0.,0.,1.));
#871=DIRECTION('',(1.,0.,0.));
#872=DIRECTION('',(0.,0.,1.));
#873=DIRECTION('',(1.,0.,0.));
#874=DIRECTION('',(0.,0.,1.));
#875=DIRECTION('',(1.,0.,0.));
#876=DIRECTION('',(0.,0.,1.));
#877=DIRECTION('',(1.,0.,0.));
#878=DIRECTION('',(0.,0.,1.));
#879=DIRECTION('',(1.,0.,0.));
#880=DIRECTION('',(0.,0.,1.));
#881=DIRECTION('',(1.,0.,0.));
#882=DIRECTION('',(0.,0.,1.));
#883=DIRECTION('',(1.,0.,0.));
#884=DIRECTION('',(0.,0.,1.));
#885=DIRECTION('',(1.,0.,0.));
#886=DIRECTION('',(0.,0.,1.));
#887=DIRECTION('',(1.,0.,0.));
#888=DIRECTION('',(0.,0.,-1.));
#889=DIRECTION('',(1.,0.,0.));
#890=DIRECTION('',(0.,0.,-1.));
#891=DIRECTION('',(1.,0.,0.));
#892=DIRECTION('',(0.,0.,-1.));
#893=DIRECTION('',(1.,0.,0.));
#894=DIRECTION('',(0.,0.,-1.));
#895=DIRECTION('',(1.,0.,0.));
#896=DIRECTION('',(0.,0.,-1.));
#897=DIRECTION('',(1.,0.,0.));
#898=DIRECTION('',(0.,0.,-1.));
#899=DIRECTION('',(1.,0.,0.));
#900=DIRECTION('',(0.,0.,-1.));
#901=DIRECTION('',(1.,0.,0.));
#902=DIRECTION('',(0.,0.,1.));
#903=DIRECTION('',(1.,0.,0.));
#904=DIRECTION('',(0.,0.,-1.));
#905=DIRECTION('',(1.,0.,0.));
#906=DIRECTION('',(0.,0.,-1.));
#907=DIRECTION('',(1.,0.,0.));
#908=DIRECTION('',(0.,0.,-1.));
#909=DIRECTION('',(1.,0.,0.));
#910=DIRECTION('',(0.,0.,-1.));
#911=DIRECTION('',(1.,0.,0.));
#912=DIRECTION('',(0.,0.,-1.));
#913=DIRECTION('',(1.,0.,0.));
#914=DIRECTION('',(0.,0.,-1.));
#915=DIRECTION('',(1.,0.,0.));
#916=DIRECTION('',(0.,0.,-1.));
#917=DIRECTION('',(-1.,0.,0.));
#918=DIRECTION('',(0.,0.,1.));
#919=DIRECTION('',(1.,0.,0.));
#920=DIRECTION('',(0.,0.,-1.));
#921=DIRECTION('',(1.,0.,0.));
#922=DIRECTION('',(0.,0.,-1.));
#923=DIRECTION('',(-1.,0.,0.));
#924=DIRECTION('',(0.,0.,-1.));
#925=DIRECTION('',(1.,0.,0.));
#926=DIRECTION('',(0.,0.,1.));
#927=DIRECTION('',(1.,0.,0.));
#928=DIRECTION('',(0.,0.,-1.));
#929=DIRECTION('',(-1.,0.,0.));
#930=DIRECTION('',(0.,0.,-1.));
#931=DIRECTION('',(1.,0.,0.));
#932=DIRECTION('',(0.,0.,1.));
#933=DIRECTION('',(1.,0.,0.));
#934=DIRECTION('',(0.,0.,-1.));
#935=DIRECTION('',(-1.,0.,0.));
#936=DIRECTION('',(0.,0.,-1.));
#937=DIRECTION('',(1.,0.,0.));
#938=DIRECTION('',(0.,0.,1.));
#939=DIRECTION('',(1.,0.,0.));
#940=DIRECTION('',(0.,0.,-1.));
#941=DIRECTION('',(-1.,0.,0.));
#942=DIRECTION('',(0.,0.,-1.));
#943=DIRECTION('',(1.,0.,0.));
#944=DIRECTION('',(0.,0.,1.));
#945=DIRECTION('',(1.,0.,0.));
#946=DIRECTION('',(0.,0.,-1.));
#947=DIRECTION('',(-1.,0.,0.));
#948=DIRECTION('',(0.,0.,-1.));
#949=DIRECTION('',(1.,0.,0.));
#950=DIRECTION('',(0.,0.,1.));
#951=DIRECTION('',(1.,0.,0.));
#952=DIRECTION('',(0.,0.,-1.));
#953=DIRECTION('',(-1.,0.,0.));
#954=DIRECTION('',(0.,0.,-1.));
#955=DIRECTION('',(1.,0.,0.));
#956=DIRECTION('',(0.,0.,1.));
#957=DIRECTION('',(1.,0.,0.));
#958=DIRECTION('',(0.,0.,-1.));
#959=DIRECTION('',(-1.,0.,0.));
#960=DIRECTION('',(0.,0.,-1.));
#961=DIRECTION('',(1.,0.,0.));
#962=DIRECTION('',(0.,0.,1.));
#963=DIRECTION('',(1.,0.,0.));
#964=DIRECTION('',(0.,0.,-1.));
#965=DIRECTION('',(-1.,0.,0.));
#966=DIRECTION('',(0.,0.,-1.));
#967=DIRECTION('',(1.,0.,0.));
#968=DIRECTION('',(0.,0.,1.));
#969=DIRECTION('',(1.,0.,0.));
#970=DIRECTION('',(0.,0.,-1.));
#971=DIRECTION('',(-1.,0.,0.));
#972=DIRECTION('',(0.,0.,-1.));
#973=DIRECTION('',(1.,0.,0.));
#974=DIRECTION('',(0.,0.,1.));
#975=DIRECTION('',(1.,0.,0.));
#976=DIRECTION('',(0.,0.,-1.));
#977=DIRECTION('',(-1.,0.,0.));
#978=DIRECTION('',(0.,0.,-1.));
#979=DIRECTION('',(1.,0.,0.));
#980=DIRECTION('',(0.,0.,1.));
#981=DIRECTION('',(1.,0.,0.));
#982=DIRECTION('',(0.,0.,-1.));
#983=DIRECTION('',(-1.,0.,0.));
#984=DIRECTION('',(0.,0.,-1.));
#985=DIRECTION('',(1.,0.,0.));
#986=DIRECTION('',(0.,0.,1.));
#987=DIRECTION('',(1.,0.,0.));
#988=DIRECTION('',(0.,0.,-1.));
#989=DIRECTION('',(-1.,0.,0.));
#990=DIRECTION('',(0.,0.,-1.));
#991=DIRECTION('',(1.,0.,0.));
#992=DIRECTION('',(0.,0.,1.));
#993=DIRECTION('',(1.,0.,0.));
#994=DIRECTION('',(0.,0.,-1.));
#995=DIRECTION('',(-1.,0.,0.));
#996=DIRECTION('',(0.,0.,1.));
#997=DIRECTION('',(1.,0.,0.));
#998=DIRECTION('',(0.,0.,-1.));
#999=DIRECTION('',(1.,0.,0.));
#1000=DIRECTION('',(0.,0.,-1.));
#1001=DIRECTION('',(-1.,0.,0.));
#1002=DIRECTION('',(0.,0.,-1.));
#1003=DIRECTION('',(1.,0.,0.));
#1004=DIRECTION('',(0.,0.,1.));
#1005=DIRECTION('',(1.,0.,0.));
#1006=DIRECTION('',(0.,0.,1.));
#1007=DIRECTION('',(1.,0.,0.));
#1008=DIRECTION('',(0.,0.,1.));
#1009=DIRECTION('',(1.,0.,0.));
#1010=DIRECTION('',(0.,0.,-1.));
#1011=DIRECTION('',(1.,0.,0.));
#1012=DIRECTION('',(0.,0.,1.));
#1013=DIRECTION('',(1.,0.,0.));
#1014=DIRECTION('',(0.,0.,1.));
#1015=DIRECTION('',(1.,0.,0.));
#1016=DIRECTION('',(0.,0.,1.));
#1017=DIRECTION('',(1.,0.,0.));
#1018=DIRECTION('',(0.,0.,1.));
#1019=DIRECTION('',(1.,0.,0.));
#1020=DIRECTION('',(0.,0.,1.));
#1021=DIRECTION('',(1.,0.,0.));
#1022=DIRECTION('',(0.,0.,1.));
#1023=DIRECTION('',(1.,0.,0.));
#1024=DIRECTION('',(0.,0.,1.));
#1025=DIRECTION('',(1.,0.,0.));
#1026=DIRECTION('',(0.,0.,1.));
#1027=DIRECTION('',(1.,0.,0.));
#1028=DIRECTION('',(0.,0.,1.));
#1029=DIRECTION('',(1.,0.,0.));
#1030=DIRECTION('',(0.,0.,1.));
#1031=DIRECTION('',(1.,0.,0.));
#1032=DIRECTION('',(0.,0.,1.));
#1033=DIRECTION('',(1.,0.,0.));
#1034=DIRECTION('',(0.,0.,1.));
#1035=DIRECTION('',(1.,0.,0.));
#1036=DIRECTION('',(0.,0.,1.));
#1037=DIRECTION('',(1.,0.,0.));
#1038=DIRECTION('',(0.,0.,1.));
#1039=DIRECTION('',(1.,0.,0.));
#1040=DIRECTION('',(0.,0.,1.));
#1041=DIRECTION('',(1.,0.,0.));
#1042=DIRECTION('',(0.,0.,1.));
#1043=DIRECTION('',(1.,0.,0.));
#1044=DIRECTION('',(0.,0.,1.));
#1045=DIRECTION('',(1.,0.,0.));
#1046=DIRECTION('',(0.,0.,1.));
#1047=DIRECTION('',(1.,0.,0.));
#1048=DIRECTION('',(0.,0.,1.));
#1049=DIRECTION('',(1.,0.,0.));
#1050=DIRECTION('',(0.,0.,1.));
#1051=DIRECTION('',(1.,0.,0.));
#1052=DIRECTION('',(0.,0.,1.));
#1053=DIRECTION('',(1.,0.,0.));
#1054=DIRECTION('',(0.,0.,1.));
#1055=DIRECTION('',(1.,0.,0.));
#1056=DIRECTION('',(0.,0.,1.));
#1057=DIRECTION('',(1.,0.,0.));
#1058=DIRECTION('',(0.,0.,1.));
#1059=DIRECTION('',(1.,0.,0.));
#1060=DIRECTION('',(0.,0.,1.));
#1061=DIRECTION('',(1.,0.,0.));
#1062=DIRECTION('',(0.,0.,1.));
#1063=DIRECTION('',(1.,0.,0.));
#1064=DIRECTION('',(0.,0.,1.));
#1065=DIRECTION('',(1.,0.,0.));
#1066=DIRECTION('',(0.,0.,1.));
#1067=DIRECTION('',(1.,0.,0.));
#1068=DIRECTION('',(0.,0.,1.));
#1069=DIRECTION('',(1.,0.,0.));
#1070=DIRECTION('',(0.,0.,1.));
#1071=DIRECTION('',(1.,0.,0.));
#1072=DIRECTION('',(0.,0.,1.));
#1073=DIRECTION('',(1.,0.,0.));
#1074=DIRECTION('',(0.,0.,-1.));
#1075=DIRECTION('',(-1.,0.,0.));
#1076=DIRECTION('',(0.,0.,1.));
#1077=DIRECTION('',(1.,0.,0.));
#1078=DIRECTION('',(0.,0.,1.));
#1079=DIRECTION('',(1.,0.,0.));
#1080=CARTESIAN_POINT('',(0.,0.,0.));
#1081=CARTESIAN_POINT('',(0.,0.,0.0025));
#1082=CARTESIAN_POINT('',(0.,0.,0.0025));
#1083=CARTESIAN_POINT('',(0.0017,0.,0.0025));
#1084=CARTESIAN_POINT('',(0.,0.,0.0025));
#1085=CARTESIAN_POINT('',(0.0025,0.,0.0025));
#1086=CARTESIAN_POINT('',(0.,0.,0.0055));
#1087=CARTESIAN_POINT('',(0.,0.,0.0055));
#1088=CARTESIAN_POINT('',(0.0041,0.,0.0055));
#1089=CARTESIAN_POINT('',(0.,0.,0.0055));
#1090=CARTESIAN_POINT('',(0.0029,0.,0.0055));
#1091=CARTESIAN_POINT('',(0.,0.,0.));
#1092=CARTESIAN_POINT('',(0.,0.,0.));
#1093=CARTESIAN_POINT('',(0.0045,0.,0.));
#1094=CARTESIAN_POINT('',(0.,0.,0.));
#1095=CARTESIAN_POINT('',(0.0103,0.,0.));
#1096=CARTESIAN_POINT('',(0.0035,0.007,0.));
#1097=CARTESIAN_POINT('',(0.00445,0.007,0.));
#1098=CARTESIAN_POINT('',(0.,0.007,0.));
#1099=CARTESIAN_POINT('',(0.00095,0.007,0.));
#1100=CARTESIAN_POINT('',(-0.0035,0.007,0.));
#1101=CARTESIAN_POINT('',(-0.00255,0.007,0.));
#1102=CARTESIAN_POINT('',(-0.007,1.46676177175256E-20,0.));
#1103=CARTESIAN_POINT('',(-0.00605,1.46676177175256E-20,0.));
#1104=CARTESIAN_POINT('',(-0.007,0.0035,0.));
#1105=CARTESIAN_POINT('',(-0.00605,0.0035,0.));
#1106=CARTESIAN_POINT('',(-0.007,-0.0035,0.));
#1107=CARTESIAN_POINT('',(-0.00605,-0.0035,0.));
#1108=CARTESIAN_POINT('',(0.,-0.007,0.));
#1109=CARTESIAN_POINT('',(0.00095,-0.007,0.));
#1110=CARTESIAN_POINT('',(-0.0035,-0.007,0.));
#1111=CARTESIAN_POINT('',(-0.00255,-0.007,0.));
#1112=CARTESIAN_POINT('',(0.0035,-0.007,0.));
#1113=CARTESIAN_POINT('',(0.00445,-0.007,0.));
#1114=CARTESIAN_POINT('',(0.007,1.72917313652382E-18,0.));
#1115=CARTESIAN_POINT('',(0.00795,1.72917313652382E-18,0.));
#1116=CARTESIAN_POINT('',(0.007,0.0035,0.));
#1117=CARTESIAN_POINT('',(0.00795,0.0035,0.));
#1118=CARTESIAN_POINT('',(0.007,-0.0035,0.));
#1119=CARTESIAN_POINT('',(0.00795,-0.0035,0.));
#1120=CARTESIAN_POINT('',(0.,0.,0.0025));
#1121=CARTESIAN_POINT('',(0.,0.,0.0025));
#1122=CARTESIAN_POINT('',(0.0045,0.,0.0025));
#1123=CARTESIAN_POINT('',(0.007,0.0035,0.0025));
#1124=CARTESIAN_POINT('',(0.00795,0.0035,0.0025));
#1125=CARTESIAN_POINT('',(0.0035,-0.007,0.0025));
#1126=CARTESIAN_POINT('',(0.00445,-0.007,0.0025));
#1127=CARTESIAN_POINT('',(0.,-0.007,0.0025));
#1128=CARTESIAN_POINT('',(0.00095,-0.007,0.0025));
#1129=CARTESIAN_POINT('',(-0.007,0.0035,0.0025));
#1130=CARTESIAN_POINT('',(-0.00605,0.0035,0.0025));
#1131=CARTESIAN_POINT('',(-0.0035,0.007,0.0025));
#1132=CARTESIAN_POINT('',(-0.00255,0.007,0.0025));
#1133=CARTESIAN_POINT('',(0.0035,0.007,0.0025));
#1134=CARTESIAN_POINT('',(0.00445,0.007,0.0025));
#1135=CARTESIAN_POINT('',(0.,0.,0.0025));
#1136=CARTESIAN_POINT('',(0.0103,0.,0.0025));
#1137=CARTESIAN_POINT('',(0.,0.007,0.0025));
#1138=CARTESIAN_POINT('',(0.00095,0.007,0.0025));
#1139=CARTESIAN_POINT('',(-0.007,1.46676177175256E-20,0.0025));
#1140=CARTESIAN_POINT('',(-0.00605,1.46676177175256E-20,0.0025));
#1141=CARTESIAN_POINT('',(-0.007,-0.0035,0.0025));
#1142=CARTESIAN_POINT('',(-0.00605,-0.0035,0.0025));
#1143=CARTESIAN_POINT('',(-0.0035,-0.007,0.0025));
#1144=CARTESIAN_POINT('',(-0.00255,-0.007,0.0025));
#1145=CARTESIAN_POINT('',(0.007,1.72917313652382E-18,0.0025));
#1146=CARTESIAN_POINT('',(0.00795,1.72917313652382E-18,0.0025));
#1147=CARTESIAN_POINT('',(0.007,-0.0035,0.0025));
#1148=CARTESIAN_POINT('',(0.00795,-0.0035,0.0025));
#1149=CARTESIAN_POINT('',(0.,0.,0.0025));
#1150=CARTESIAN_POINT('',(0.,0.,0.0002));
#1151=CARTESIAN_POINT('',(0.0105,0.,0.0002));
#1152=CARTESIAN_POINT('',(0.,0.,0.0023));
#1153=CARTESIAN_POINT('',(0.0105,0.,0.0023));
#1154=CARTESIAN_POINT('',(0.0035,0.007,0.0025));
#1155=CARTESIAN_POINT('',(0.0035,0.007,0.0002));
#1156=CARTESIAN_POINT('',(0.00425,0.007,0.0002));
#1157=CARTESIAN_POINT('',(0.0035,0.007,0.0023));
#1158=CARTESIAN_POINT('',(0.00425,0.007,0.0023));
#1159=CARTESIAN_POINT('',(0.,0.007,0.0025));
#1160=CARTESIAN_POINT('',(0.,0.007,0.0002));
#1161=CARTESIAN_POINT('',(0.00075,0.007,0.0002));
#1162=CARTESIAN_POINT('',(0.,0.007,0.0023));
#1163=CARTESIAN_POINT('',(0.00075,0.007,0.0023));
#1164=CARTESIAN_POINT('',(-0.0035,0.007,0.0025));
#1165=CARTESIAN_POINT('',(-0.0035,0.007,0.0002));
#1166=CARTESIAN_POINT('',(-0.00275,0.007,0.0002));
#1167=CARTESIAN_POINT('',(-0.0035,0.007,0.0023));
#1168=CARTESIAN_POINT('',(-0.00275,0.007,0.0023));
#1169=CARTESIAN_POINT('',(-0.007,1.46676177175256E-20,0.0025));
#1170=CARTESIAN_POINT('',(-0.007,1.46676177175256E-20,0.0002));
#1171=CARTESIAN_POINT('',(-0.00625,1.46676177175256E-20,0.0002));
#1172=CARTESIAN_POINT('',(-0.007,1.46676177175256E-20,0.0023));
#1173=CARTESIAN_POINT('',(-0.00625,1.46676177175256E-20,0.0023));
#1174=CARTESIAN_POINT('',(-0.007,0.0035,0.0025));
#1175=CARTESIAN_POINT('',(-0.007,0.0035,0.0002));
#1176=CARTESIAN_POINT('',(-0.00625,0.0035,0.0002));
#1177=CARTESIAN_POINT('',(-0.007,0.0035,0.0023));
#1178=CARTESIAN_POINT('',(-0.00625,0.0035,0.0023));
#1179=CARTESIAN_POINT('',(-0.007,-0.0035,0.0025));
#1180=CARTESIAN_POINT('',(-0.007,-0.0035,0.0002));
#1181=CARTESIAN_POINT('',(-0.00625,-0.0035,0.0002));
#1182=CARTESIAN_POINT('',(-0.007,-0.0035,0.0023));
#1183=CARTESIAN_POINT('',(-0.00625,-0.0035,0.0023));
#1184=CARTESIAN_POINT('',(0.,-0.007,0.0025));
#1185=CARTESIAN_POINT('',(0.,-0.007,0.0002));
#1186=CARTESIAN_POINT('',(0.00075,-0.007,0.0002));
#1187=CARTESIAN_POINT('',(0.,-0.007,0.0023));
#1188=CARTESIAN_POINT('',(0.00075,-0.007,0.0023));
#1189=CARTESIAN_POINT('',(-0.0035,-0.007,0.0025));
#1190=CARTESIAN_POINT('',(-0.0035,-0.007,0.0002));
#1191=CARTESIAN_POINT('',(-0.00275,-0.007,0.0002));
#1192=CARTESIAN_POINT('',(-0.0035,-0.007,0.0023));
#1193=CARTESIAN_POINT('',(-0.00275,-0.007,0.0023));
#1194=CARTESIAN_POINT('',(0.0035,-0.007,0.0025));
#1195=CARTESIAN_POINT('',(0.0035,-0.007,0.0002));
#1196=CARTESIAN_POINT('',(0.00425,-0.007,0.0002));
#1197=CARTESIAN_POINT('',(0.0035,-0.007,0.0023));
#1198=CARTESIAN_POINT('',(0.00425,-0.007,0.0023));
#1199=CARTESIAN_POINT('',(0.007,1.72917313652382E-18,0.0025));
#1200=CARTESIAN_POINT('',(0.007,1.72917313652382E-18,0.0002));
#1201=CARTESIAN_POINT('',(0.00775,1.72917313652382E-18,0.0002));
#1202=CARTESIAN_POINT('',(0.007,1.72917313652382E-18,0.0023));
#1203=CARTESIAN_POINT('',(0.00775,1.72917313652382E-18,0.0023));
#1204=CARTESIAN_POINT('',(0.007,0.0035,0.0025));
#1205=CARTESIAN_POINT('',(0.007,0.0035,0.0002));
#1206=CARTESIAN_POINT('',(0.00775,0.0035,0.0002));
#1207=CARTESIAN_POINT('',(0.007,0.0035,0.0023));
#1208=CARTESIAN_POINT('',(0.00775,0.0035,0.0023));
#1209=CARTESIAN_POINT('',(0.007,-0.0035,0.0025));
#1210=CARTESIAN_POINT('',(0.007,-0.0035,0.0002));
#1211=CARTESIAN_POINT('',(0.00775,-0.0035,0.0002));
#1212=CARTESIAN_POINT('',(0.007,-0.0035,0.0023));
#1213=CARTESIAN_POINT('',(0.00775,-0.0035,0.0023));
#1214=CARTESIAN_POINT('',(0.,0.,0.0055));
#1215=CARTESIAN_POINT('',(0.,0.,0.0027));
#1216=CARTESIAN_POINT('',(0.0043,0.,0.0027));
#1217=CARTESIAN_POINT('',(0.,0.,0.0053));
#1218=CARTESIAN_POINT('',(0.0043,0.,0.0053));
#1219=CARTESIAN_POINT('',(0.,0.,0.0055));
#1220=CARTESIAN_POINT('',(0.,0.,0.0027));
#1221=CARTESIAN_POINT('',(0.0027,0.,0.0027));
#1222=CARTESIAN_POINT('',(0.,0.,0.0053));
#1223=CARTESIAN_POINT('',(0.0027,0.,0.0053));
#1224=CARTESIAN_POINT('',(0.,0.,0.));
#1225=CARTESIAN_POINT('',(0.,0.,0.0023));
#1226=CARTESIAN_POINT('',(0.0015,0.,0.0023));
#1227=CARTESIAN_POINT('',(0.,0.,0.001));
#1228=CARTESIAN_POINT('',(0.0015,0.,0.001));
#1229=CARTESIAN_POINT('',(0.007,-0.0035,0.0002));
#1230=CARTESIAN_POINT('',(0.007,0.0035,0.0002));
#1231=CARTESIAN_POINT('',(0.007,1.72917313652382E-18,0.0002));
#1232=CARTESIAN_POINT('',(0.0035,-0.007,0.0002));
#1233=CARTESIAN_POINT('',(-0.0035,-0.007,0.0002));
#1234=CARTESIAN_POINT('',(0.,-0.007,0.0002));
#1235=CARTESIAN_POINT('',(-0.007,-0.0035,0.0002));
#1236=CARTESIAN_POINT('',(-0.007,0.0035,0.0002));
#1237=CARTESIAN_POINT('',(-0.007,1.46676177175256E-20,0.0002));
#1238=CARTESIAN_POINT('',(-0.0035,0.007,0.0002));
#1239=CARTESIAN_POINT('',(0.,0.007,0.0002));
#1240=CARTESIAN_POINT('',(0.0035,0.007,0.0002));
#1241=CARTESIAN_POINT('',(0.,0.,0.0002));
#1242=CARTESIAN_POINT('',(0.,0.,0.0027));
#1243=CARTESIAN_POINT('',(0.,0.,0.0023));
#1244=CARTESIAN_POINT('',(0.,0.,0.0053));
#1245=CARTESIAN_POINT('',(0.,0.,0.0053));
#1246=CARTESIAN_POINT('',(0.007,-0.0035,0.0023));
#1247=CARTESIAN_POINT('',(0.007,1.72917313652382E-18,0.0023));
#1248=CARTESIAN_POINT('',(-0.0035,-0.007,0.0023));
#1249=CARTESIAN_POINT('',(-0.007,-0.0035,0.0023));
#1250=CARTESIAN_POINT('',(-0.007,1.46676177175256E-20,0.0023));
#1251=CARTESIAN_POINT('',(0.,0.007,0.0023));
#1252=CARTESIAN_POINT('',(0.,0.,0.0023));
#1253=CARTESIAN_POINT('',(0.0035,0.007,0.0023));
#1254=CARTESIAN_POINT('',(-0.0035,0.007,0.0023));
#1255=CARTESIAN_POINT('',(-0.007,0.0035,0.0023));
#1256=CARTESIAN_POINT('',(0.,-0.007,0.0023));
#1257=CARTESIAN_POINT('',(0.0035,-0.007,0.0023));
#1258=CARTESIAN_POINT('',(0.007,0.0035,0.0023));
#1259=CARTESIAN_POINT('',(0.,0.,0.0027));
#1260=CARTESIAN_POINT('',(0.,0.,0.001));
#1261=CARTESIAN_POINT('',(0.,0.,0.001));
#1262=CARTESIAN_POINT('',(0.0045,0.,0.001));
#1263=CARTESIAN_POINT('',(0.,0.,0.001));
#1264=MECHANICAL_DESIGN_GEOMETRIC_PRESENTATION_REPRESENTATION('',(#712),
#1265);
#1265=(
GEOMETRIC_REPRESENTATION_CONTEXT(3)
GLOBAL_UNCERTAINTY_ASSIGNED_CONTEXT((#1266))
GLOBAL_UNIT_ASSIGNED_CONTEXT((#1269,#1268,#1267))
REPRESENTATION_CONTEXT('Circular Servo Horn','TOP_LEVEL_ASSEMBLY_PART')
);
#1266=UNCERTAINTY_MEASURE_WITH_UNIT(LENGTH_MEASURE(1.E-8),#1269,
'DISTANCE_ACCURACY_VALUE','Maximum Tolerance applied to model');
#1267=(
NAMED_UNIT(*)
SI_UNIT($,.STERADIAN.)
SOLID_ANGLE_UNIT()
);
#1268=(
NAMED_UNIT(*)
PLANE_ANGLE_UNIT()
SI_UNIT($,.RADIAN.)
);
#1269=(
LENGTH_UNIT()
NAMED_UNIT(*)
SI_UNIT($,.METRE.)
);
#1270=PRODUCT_DEFINITION_SHAPE('','',#1271);
#1271=PRODUCT_DEFINITION('','',#1273,#1272);
#1272=PRODUCT_DEFINITION_CONTEXT('',#1279,'design');
#1273=PRODUCT_DEFINITION_FORMATION_WITH_SPECIFIED_SOURCE('','',#1275,
 .NOT_KNOWN.);
#1274=PRODUCT_RELATED_PRODUCT_CATEGORY('','',(#1275));
#1275=PRODUCT('Circular Servo Horn','Circular Servo Horn',
'Circular Servo Horn',(#1277));
#1276=PRODUCT_CATEGORY('','');
#1277=PRODUCT_CONTEXT('',#1279,'mechanical');
#1278=APPLICATION_PROTOCOL_DEFINITION('international standard',
'automotive_design',2010,#1279);
#1279=APPLICATION_CONTEXT(
'core data for automotive mechanical design processes');
ENDSEC;
END-ISO-10303-21;
