ISO-10303-21;
HEADER;
/* Generated by software containing ST-Developer
 * from STEP Tools, Inc. (www.steptools.com) 
 */
/* OPTION: using custom renumber hook */

FILE_DESCRIPTION(
/* description */ ('STEP AP214',
'CAx-IF Rec.Pracs.---User Defined Attributes---1.5---2016-08-15'),
/* implementation_level */ '2;1');

FILE_NAME(
/* name */ 'Base turn - Part 2 (1)',
/* time_stamp */ '2026-05-17T02:39:04Z',
/* author */ (''),
/* organization */ (''),
/* preprocessor_version */ 'ST-DEVELOPER v20',
/* originating_system */ 'ONSHAPE BY PTC INC, 1.215',
/* authorisation */ '  ');

FILE_SCHEMA (('AUTOMOTIVE_DESIGN {1 0 10303 214 3 1 1}'));
ENDSEC;

DATA;
#10=PROPERTY_DEFINITION_REPRESENTATION(#14,#12);
#11=PROPERTY_DEFINITION_REPRESENTATION(#15,#13);
#12=REPRESENTATION('',(#16),#387);
#13=REPRESENTATION('',(#17),#387);
#14=PROPERTY_DEFINITION('pmi validation property','',#392);
#15=PROPERTY_DEFINITION('pmi validation property','',#392);
#16=VALUE_REPRESENTATION_ITEM('number of annotations',COUNT_MEASURE(0.));
#17=VALUE_REPRESENTATION_ITEM('number of views',COUNT_MEASURE(0.));
#18=SHAPE_REPRESENTATION_RELATIONSHIP('','',#230,#19);
#19=ADVANCED_BREP_SHAPE_REPRESENTATION('',(#228),#387);
#20=CONICAL_SURFACE('',#255,0.00336,0.785398163397448);
#21=CONICAL_SURFACE('',#258,0.00336,0.785398163397448);
#22=CONICAL_SURFACE('',#261,0.00336,0.785398163397448);
#23=PLANE('',#244);
#24=PLANE('',#249);
#25=PLANE('',#264);
#26=ORIENTED_EDGE('',*,*,#64,.T.);
#27=ORIENTED_EDGE('',*,*,#65,.F.);
#28=ORIENTED_EDGE('',*,*,#66,.T.);
#29=ORIENTED_EDGE('',*,*,#67,.F.);
#30=ORIENTED_EDGE('',*,*,#68,.T.);
#31=ORIENTED_EDGE('',*,*,#69,.F.);
#32=ORIENTED_EDGE('',*,*,#70,.F.);
#33=ORIENTED_EDGE('',*,*,#71,.T.);
#34=ORIENTED_EDGE('',*,*,#72,.F.);
#35=ORIENTED_EDGE('',*,*,#73,.T.);
#36=ORIENTED_EDGE('',*,*,#74,.T.);
#37=ORIENTED_EDGE('',*,*,#75,.T.);
#38=ORIENTED_EDGE('',*,*,#70,.T.);
#39=ORIENTED_EDGE('',*,*,#68,.F.);
#40=ORIENTED_EDGE('',*,*,#66,.F.);
#41=ORIENTED_EDGE('',*,*,#64,.F.);
#42=ORIENTED_EDGE('',*,*,#76,.F.);
#43=ORIENTED_EDGE('',*,*,#77,.F.);
#44=ORIENTED_EDGE('',*,*,#78,.F.);
#45=ORIENTED_EDGE('',*,*,#71,.F.);
#46=ORIENTED_EDGE('',*,*,#69,.T.);
#47=ORIENTED_EDGE('',*,*,#67,.T.);
#48=ORIENTED_EDGE('',*,*,#65,.T.);
#49=ORIENTED_EDGE('',*,*,#79,.F.);
#50=ORIENTED_EDGE('',*,*,#78,.T.);
#51=ORIENTED_EDGE('',*,*,#79,.T.);
#52=ORIENTED_EDGE('',*,*,#75,.F.);
#53=ORIENTED_EDGE('',*,*,#80,.F.);
#54=ORIENTED_EDGE('',*,*,#77,.T.);
#55=ORIENTED_EDGE('',*,*,#80,.T.);
#56=ORIENTED_EDGE('',*,*,#74,.F.);
#57=ORIENTED_EDGE('',*,*,#81,.F.);
#58=ORIENTED_EDGE('',*,*,#76,.T.);
#59=ORIENTED_EDGE('',*,*,#81,.T.);
#60=ORIENTED_EDGE('',*,*,#73,.F.);
#61=ORIENTED_EDGE('',*,*,#82,.T.);
#62=ORIENTED_EDGE('',*,*,#72,.T.);
#63=ORIENTED_EDGE('',*,*,#82,.F.);
#64=EDGE_CURVE('',#83,#83,#102,.T.);
#65=EDGE_CURVE('',#84,#84,#103,.T.);
#66=EDGE_CURVE('',#85,#85,#104,.T.);
#67=EDGE_CURVE('',#86,#86,#105,.T.);
#68=EDGE_CURVE('',#87,#87,#106,.T.);
#69=EDGE_CURVE('',#88,#88,#107,.T.);
#70=EDGE_CURVE('',#89,#89,#108,.T.);
#71=EDGE_CURVE('',#90,#90,#109,.T.);
#72=EDGE_CURVE('',#91,#91,#110,.T.);
#73=EDGE_CURVE('',#92,#92,#111,.T.);
#74=EDGE_CURVE('',#93,#93,#112,.T.);
#75=EDGE_CURVE('',#94,#94,#113,.T.);
#76=EDGE_CURVE('',#95,#95,#114,.F.);
#77=EDGE_CURVE('',#96,#96,#115,.F.);
#78=EDGE_CURVE('',#97,#97,#116,.F.);
#79=EDGE_CURVE('',#98,#98,#117,.T.);
#80=EDGE_CURVE('',#99,#99,#118,.T.);
#81=EDGE_CURVE('',#100,#100,#119,.T.);
#82=EDGE_CURVE('',#101,#101,#120,.T.);
#83=VERTEX_POINT('',#336);
#84=VERTEX_POINT('',#338);
#85=VERTEX_POINT('',#341);
#86=VERTEX_POINT('',#343);
#87=VERTEX_POINT('',#346);
#88=VERTEX_POINT('',#348);
#89=VERTEX_POINT('',#351);
#90=VERTEX_POINT('',#353);
#91=VERTEX_POINT('',#356);
#92=VERTEX_POINT('',#358);
#93=VERTEX_POINT('',#360);
#94=VERTEX_POINT('',#362);
#95=VERTEX_POINT('',#365);
#96=VERTEX_POINT('',#367);
#97=VERTEX_POINT('',#369);
#98=VERTEX_POINT('',#372);
#99=VERTEX_POINT('',#376);
#100=VERTEX_POINT('',#380);
#101=VERTEX_POINT('',#384);
#102=CIRCLE('',#233,0.003);
#103=CIRCLE('',#234,0.003);
#104=CIRCLE('',#236,0.003);
#105=CIRCLE('',#237,0.003);
#106=CIRCLE('',#239,0.003);
#107=CIRCLE('',#240,0.003);
#108=CIRCLE('',#242,0.04);
#109=CIRCLE('',#243,0.04);
#110=CIRCLE('',#245,0.0125);
#111=CIRCLE('',#246,0.00336);
#112=CIRCLE('',#247,0.00336);
#113=CIRCLE('',#248,0.00336);
#114=CIRCLE('',#250,0.0016);
#115=CIRCLE('',#251,0.0016);
#116=CIRCLE('',#252,0.0016);
#117=CIRCLE('',#254,0.0016);
#118=CIRCLE('',#257,0.0016);
#119=CIRCLE('',#260,0.0016);
#120=CIRCLE('',#263,0.0125);
#121=EDGE_LOOP('',(#26));
#122=EDGE_LOOP('',(#27));
#123=EDGE_LOOP('',(#28));
#124=EDGE_LOOP('',(#29));
#125=EDGE_LOOP('',(#30));
#126=EDGE_LOOP('',(#31));
#127=EDGE_LOOP('',(#32));
#128=EDGE_LOOP('',(#33));
#129=EDGE_LOOP('',(#34));
#130=EDGE_LOOP('',(#35));
#131=EDGE_LOOP('',(#36));
#132=EDGE_LOOP('',(#37));
#133=EDGE_LOOP('',(#38));
#134=EDGE_LOOP('',(#39));
#135=EDGE_LOOP('',(#40));
#136=EDGE_LOOP('',(#41));
#137=EDGE_LOOP('',(#42));
#138=EDGE_LOOP('',(#43));
#139=EDGE_LOOP('',(#44));
#140=EDGE_LOOP('',(#45));
#141=EDGE_LOOP('',(#46));
#142=EDGE_LOOP('',(#47));
#143=EDGE_LOOP('',(#48));
#144=EDGE_LOOP('',(#49));
#145=EDGE_LOOP('',(#50));
#146=EDGE_LOOP('',(#51));
#147=EDGE_LOOP('',(#52));
#148=EDGE_LOOP('',(#53));
#149=EDGE_LOOP('',(#54));
#150=EDGE_LOOP('',(#55));
#151=EDGE_LOOP('',(#56));
#152=EDGE_LOOP('',(#57));
#153=EDGE_LOOP('',(#58));
#154=EDGE_LOOP('',(#59));
#155=EDGE_LOOP('',(#60));
#156=EDGE_LOOP('',(#61));
#157=EDGE_LOOP('',(#62));
#158=EDGE_LOOP('',(#63));
#159=FACE_BOUND('',#121,.T.);
#160=FACE_BOUND('',#122,.T.);
#161=FACE_BOUND('',#123,.T.);
#162=FACE_BOUND('',#124,.T.);
#163=FACE_BOUND('',#125,.T.);
#164=FACE_BOUND('',#126,.T.);
#165=FACE_BOUND('',#127,.T.);
#166=FACE_BOUND('',#128,.T.);
#167=FACE_BOUND('',#129,.T.);
#168=FACE_BOUND('',#130,.T.);
#169=FACE_BOUND('',#131,.T.);
#170=FACE_BOUND('',#132,.T.);
#171=FACE_BOUND('',#133,.T.);
#172=FACE_BOUND('',#134,.T.);
#173=FACE_BOUND('',#135,.T.);
#174=FACE_BOUND('',#136,.T.);
#175=FACE_BOUND('',#137,.T.);
#176=FACE_BOUND('',#138,.T.);
#177=FACE_BOUND('',#139,.T.);
#178=FACE_BOUND('',#140,.T.);
#179=FACE_BOUND('',#141,.T.);
#180=FACE_BOUND('',#142,.T.);
#181=FACE_BOUND('',#143,.T.);
#182=FACE_BOUND('',#144,.T.);
#183=FACE_BOUND('',#145,.T.);
#184=FACE_BOUND('',#146,.T.);
#185=FACE_BOUND('',#147,.T.);
#186=FACE_BOUND('',#148,.T.);
#187=FACE_BOUND('',#149,.T.);
#188=FACE_BOUND('',#150,.T.);
#189=FACE_BOUND('',#151,.T.);
#190=FACE_BOUND('',#152,.T.);
#191=FACE_BOUND('',#153,.T.);
#192=FACE_BOUND('',#154,.T.);
#193=FACE_BOUND('',#155,.T.);
#194=FACE_BOUND('',#156,.T.);
#195=FACE_BOUND('',#157,.T.);
#196=FACE_BOUND('',#158,.T.);
#197=CYLINDRICAL_SURFACE('',#232,0.003);
#198=CYLINDRICAL_SURFACE('',#235,0.003);
#199=CYLINDRICAL_SURFACE('',#238,0.003);
#200=CYLINDRICAL_SURFACE('',#241,0.04);
#201=CYLINDRICAL_SURFACE('',#253,0.0016);
#202=CYLINDRICAL_SURFACE('',#256,0.0016);
#203=CYLINDRICAL_SURFACE('',#259,0.0016);
#204=CYLINDRICAL_SURFACE('',#262,0.0125);
#205=ADVANCED_FACE('',(#159,#160),#197,.F.);
#206=ADVANCED_FACE('',(#161,#162),#198,.F.);
#207=ADVANCED_FACE('',(#163,#164),#199,.F.);
#208=ADVANCED_FACE('',(#165,#166),#200,.T.);
#209=ADVANCED_FACE('',(#167,#168,#169,#170,#171,#172,#173,#174),#23,.T.);
#210=ADVANCED_FACE('',(#175,#176,#177,#178,#179,#180,#181),#24,.F.);
#211=ADVANCED_FACE('',(#182,#183),#201,.F.);
#212=ADVANCED_FACE('',(#184,#185),#20,.F.);
#213=ADVANCED_FACE('',(#186,#187),#202,.F.);
#214=ADVANCED_FACE('',(#188,#189),#21,.F.);
#215=ADVANCED_FACE('',(#190,#191),#203,.F.);
#216=ADVANCED_FACE('',(#192,#193),#22,.F.);
#217=ADVANCED_FACE('',(#194,#195),#204,.T.);
#218=ADVANCED_FACE('',(#196),#25,.F.);
#219=CLOSED_SHELL('',(#205,#206,#207,#208,#209,#210,#211,#212,#213,#214,
#215,#216,#217,#218));
#220=STYLED_ITEM('',(#221),#228);
#221=PRESENTATION_STYLE_ASSIGNMENT((#222));
#222=SURFACE_STYLE_USAGE(.BOTH.,#223);
#223=SURFACE_SIDE_STYLE('',(#224));
#224=SURFACE_STYLE_FILL_AREA(#225);
#225=FILL_AREA_STYLE('',(#226));
#226=FILL_AREA_STYLE_COLOUR('',#227);
#227=COLOUR_RGB('',0.647058823529412,0.647058823529412,0.647058823529412);
#228=MANIFOLD_SOLID_BREP('Part 2',#219);
#229=SHAPE_DEFINITION_REPRESENTATION(#392,#230);
#230=SHAPE_REPRESENTATION('Part 2',(#231),#387);
#231=AXIS2_PLACEMENT_3D('',#333,#265,#266);
#232=AXIS2_PLACEMENT_3D('',#334,#267,#268);
#233=AXIS2_PLACEMENT_3D('',#335,#269,#270);
#234=AXIS2_PLACEMENT_3D('',#337,#271,#272);
#235=AXIS2_PLACEMENT_3D('',#339,#273,#274);
#236=AXIS2_PLACEMENT_3D('',#340,#275,#276);
#237=AXIS2_PLACEMENT_3D('',#342,#277,#278);
#238=AXIS2_PLACEMENT_3D('',#344,#279,#280);
#239=AXIS2_PLACEMENT_3D('',#345,#281,#282);
#240=AXIS2_PLACEMENT_3D('',#347,#283,#284);
#241=AXIS2_PLACEMENT_3D('',#349,#285,#286);
#242=AXIS2_PLACEMENT_3D('',#350,#287,#288);
#243=AXIS2_PLACEMENT_3D('',#352,#289,#290);
#244=AXIS2_PLACEMENT_3D('',#354,#291,#292);
#245=AXIS2_PLACEMENT_3D('',#355,#293,#294);
#246=AXIS2_PLACEMENT_3D('',#357,#295,#296);
#247=AXIS2_PLACEMENT_3D('',#359,#297,#298);
#248=AXIS2_PLACEMENT_3D('',#361,#299,#300);
#249=AXIS2_PLACEMENT_3D('',#363,#301,#302);
#250=AXIS2_PLACEMENT_3D('',#364,#303,#304);
#251=AXIS2_PLACEMENT_3D('',#366,#305,#306);
#252=AXIS2_PLACEMENT_3D('',#368,#307,#308);
#253=AXIS2_PLACEMENT_3D('',#370,#309,#310);
#254=AXIS2_PLACEMENT_3D('',#371,#311,#312);
#255=AXIS2_PLACEMENT_3D('',#373,#313,#314);
#256=AXIS2_PLACEMENT_3D('',#374,#315,#316);
#257=AXIS2_PLACEMENT_3D('',#375,#317,#318);
#258=AXIS2_PLACEMENT_3D('',#377,#319,#320);
#259=AXIS2_PLACEMENT_3D('',#378,#321,#322);
#260=AXIS2_PLACEMENT_3D('',#379,#323,#324);
#261=AXIS2_PLACEMENT_3D('',#381,#325,#326);
#262=AXIS2_PLACEMENT_3D('',#382,#327,#328);
#263=AXIS2_PLACEMENT_3D('',#383,#329,#330);
#264=AXIS2_PLACEMENT_3D('',#385,#331,#332);
#265=DIRECTION('',(0.,0.,1.));
#266=DIRECTION('',(1.,0.,0.));
#267=DIRECTION('',(0.,1.,0.));
#268=DIRECTION('',(0.,0.,1.));
#269=DIRECTION('',(0.,-1.,0.));
#270=DIRECTION('',(0.,0.,-1.));
#271=DIRECTION('',(0.,-1.,0.));
#272=DIRECTION('',(0.,0.,-1.));
#273=DIRECTION('',(0.,1.,0.));
#274=DIRECTION('',(0.,0.,1.));
#275=DIRECTION('',(0.,-1.,0.));
#276=DIRECTION('',(0.,0.,-1.));
#277=DIRECTION('',(0.,-1.,0.));
#278=DIRECTION('',(0.,0.,-1.));
#279=DIRECTION('',(0.,1.,0.));
#280=DIRECTION('',(0.,0.,1.));
#281=DIRECTION('',(0.,-1.,0.));
#282=DIRECTION('',(0.,0.,-1.));
#283=DIRECTION('',(0.,-1.,0.));
#284=DIRECTION('',(0.,0.,-1.));
#285=DIRECTION('',(0.,1.,0.));
#286=DIRECTION('',(0.,0.,1.));
#287=DIRECTION('',(0.,-1.,0.));
#288=DIRECTION('',(0.,0.,-1.));
#289=DIRECTION('',(0.,-1.,0.));
#290=DIRECTION('',(0.,0.,-1.));
#291=DIRECTION('',(0.,-1.,0.));
#292=DIRECTION('',(1.,0.,0.));
#293=DIRECTION('',(0.,-1.,0.));
#294=DIRECTION('',(0.,0.,-1.));
#295=DIRECTION('',(0.,1.,0.));
#296=DIRECTION('',(0.,0.,1.));
#297=DIRECTION('',(0.,1.,0.));
#298=DIRECTION('',(0.,0.,1.));
#299=DIRECTION('',(0.,1.,0.));
#300=DIRECTION('',(0.,0.,1.));
#301=DIRECTION('',(0.,-1.,0.));
#302=DIRECTION('',(1.,0.,0.));
#303=DIRECTION('',(0.,-1.,0.));
#304=DIRECTION('',(0.,0.,-1.));
#305=DIRECTION('',(0.,-1.,0.));
#306=DIRECTION('',(0.,0.,-1.));
#307=DIRECTION('',(0.,-1.,0.));
#308=DIRECTION('',(0.,0.,-1.));
#309=DIRECTION('',(0.,1.,0.));
#310=DIRECTION('',(0.,0.,1.));
#311=DIRECTION('',(0.,1.,0.));
#312=DIRECTION('',(0.,0.,1.));
#313=DIRECTION('',(0.,-1.,0.));
#314=DIRECTION('',(0.,0.,-1.));
#315=DIRECTION('',(0.,1.,0.));
#316=DIRECTION('',(0.,0.,1.));
#317=DIRECTION('',(0.,1.,0.));
#318=DIRECTION('',(0.,0.,1.));
#319=DIRECTION('',(0.,-1.,0.));
#320=DIRECTION('',(0.,0.,-1.));
#321=DIRECTION('',(0.,1.,0.));
#322=DIRECTION('',(0.,0.,1.));
#323=DIRECTION('',(0.,1.,0.));
#324=DIRECTION('',(0.,0.,1.));
#325=DIRECTION('',(0.,-1.,0.));
#326=DIRECTION('',(0.,0.,-1.));
#327=DIRECTION('',(0.,1.,0.));
#328=DIRECTION('',(0.,0.,1.));
#329=DIRECTION('',(0.,1.,0.));
#330=DIRECTION('',(0.,0.,1.));
#331=DIRECTION('',(0.,1.,0.));
#332=DIRECTION('',(-1.,0.,0.));
#333=CARTESIAN_POINT('',(0.,0.,0.));
#334=CARTESIAN_POINT('',(0.135,-0.023,-0.0285));
#335=CARTESIAN_POINT('',(0.135,-0.023,-0.0285));
#336=CARTESIAN_POINT('',(0.135,-0.023,-0.0315));
#337=CARTESIAN_POINT('',(0.135,-0.018,-0.0285));
#338=CARTESIAN_POINT('',(0.135,-0.018,-0.0315));
#339=CARTESIAN_POINT('',(0.159681724007856,-0.023,0.01425));
#340=CARTESIAN_POINT('',(0.159681724007856,-0.023,0.01425));
#341=CARTESIAN_POINT('',(0.159681724007856,-0.023,0.01125));
#342=CARTESIAN_POINT('',(0.159681724007856,-0.018,0.01425));
#343=CARTESIAN_POINT('',(0.159681724007856,-0.018,0.01125));
#344=CARTESIAN_POINT('',(0.110318275992143,-0.023,0.01425));
#345=CARTESIAN_POINT('',(0.110318275992143,-0.023,0.01425));
#346=CARTESIAN_POINT('',(0.110318275992143,-0.023,0.01125));
#347=CARTESIAN_POINT('',(0.110318275992143,-0.018,0.01425));
#348=CARTESIAN_POINT('',(0.110318275992143,-0.018,0.01125));
#349=CARTESIAN_POINT('',(0.135,-0.023,2.4492935982947E-18));
#350=CARTESIAN_POINT('',(0.135,-0.023,2.4492935982947E-18));
#351=CARTESIAN_POINT('',(0.135,-0.023,-0.04));
#352=CARTESIAN_POINT('',(0.135,-0.018,2.4492935982947E-18));
#353=CARTESIAN_POINT('',(0.135,-0.018,-0.04));
#354=CARTESIAN_POINT('',(0.135,-0.023,0.));
#355=CARTESIAN_POINT('',(0.135,-0.023,4.58682146248641E-17));
#356=CARTESIAN_POINT('',(0.135,-0.023,-0.0125));
#357=CARTESIAN_POINT('',(0.107936706131736,-0.023,-0.015625));
#358=CARTESIAN_POINT('',(0.107936706131736,-0.023,-0.012265));
#359=CARTESIAN_POINT('',(0.162063293868264,-0.023,-0.015625));
#360=CARTESIAN_POINT('',(0.162063293868264,-0.023,-0.012265));
#361=CARTESIAN_POINT('',(0.135,-0.023,0.03125));
#362=CARTESIAN_POINT('',(0.135,-0.023,0.03461));
#363=CARTESIAN_POINT('',(0.135,-0.018,0.));
#364=CARTESIAN_POINT('',(0.107936706131736,-0.018,-0.015625));
#365=CARTESIAN_POINT('',(0.107936706131736,-0.018,-0.017225));
#366=CARTESIAN_POINT('',(0.162063293868264,-0.018,-0.015625));
#367=CARTESIAN_POINT('',(0.162063293868264,-0.018,-0.017225));
#368=CARTESIAN_POINT('',(0.135,-0.018,0.03125));
#369=CARTESIAN_POINT('',(0.135,-0.018,0.02965));
#370=CARTESIAN_POINT('',(0.135,-0.023,0.03125));
#371=CARTESIAN_POINT('',(0.135,-0.02124,0.03125));
#372=CARTESIAN_POINT('',(0.135,-0.02124,0.03285));
#373=CARTESIAN_POINT('',(0.135,-0.023,0.03125));
#374=CARTESIAN_POINT('',(0.162063293868264,-0.023,-0.015625));
#375=CARTESIAN_POINT('',(0.162063293868264,-0.02124,-0.015625));
#376=CARTESIAN_POINT('',(0.162063293868264,-0.02124,-0.014025));
#377=CARTESIAN_POINT('',(0.162063293868264,-0.023,-0.015625));
#378=CARTESIAN_POINT('',(0.107936706131736,-0.023,-0.015625));
#379=CARTESIAN_POINT('',(0.107936706131736,-0.02124,-0.015625));
#380=CARTESIAN_POINT('',(0.107936706131736,-0.02124,-0.014025));
#381=CARTESIAN_POINT('',(0.107936706131736,-0.023,-0.015625));
#382=CARTESIAN_POINT('',(0.135,-0.030002,4.58682146248641E-17));
#383=CARTESIAN_POINT('',(0.135,-0.03,4.58682146248641E-17));
#384=CARTESIAN_POINT('',(0.135,-0.03,0.0125));
#385=CARTESIAN_POINT('',(0.135,-0.03,0.));
#386=MECHANICAL_DESIGN_GEOMETRIC_PRESENTATION_REPRESENTATION('',(#220),
#387);
#387=(
GEOMETRIC_REPRESENTATION_CONTEXT(3)
GLOBAL_UNCERTAINTY_ASSIGNED_CONTEXT((#388))
GLOBAL_UNIT_ASSIGNED_CONTEXT((#391,#390,#389))
REPRESENTATION_CONTEXT('Part 2','TOP_LEVEL_ASSEMBLY_PART')
);
#388=UNCERTAINTY_MEASURE_WITH_UNIT(LENGTH_MEASURE(1.E-8),#391,
'DISTANCE_ACCURACY_VALUE','Maximum Tolerance applied to model');
#389=(
NAMED_UNIT(*)
SI_UNIT($,.STERADIAN.)
SOLID_ANGLE_UNIT()
);
#390=(
NAMED_UNIT(*)
PLANE_ANGLE_UNIT()
SI_UNIT($,.RADIAN.)
);
#391=(
LENGTH_UNIT()
NAMED_UNIT(*)
SI_UNIT($,.METRE.)
);
#392=PRODUCT_DEFINITION_SHAPE('','',#393);
#393=PRODUCT_DEFINITION('','',#395,#394);
#394=PRODUCT_DEFINITION_CONTEXT('',#401,'design');
#395=PRODUCT_DEFINITION_FORMATION_WITH_SPECIFIED_SOURCE('','',#397,
 .NOT_KNOWN.);
#396=PRODUCT_RELATED_PRODUCT_CATEGORY('','',(#397));
#397=PRODUCT('Part 2','Part 2','Part 2',(#399));
#398=PRODUCT_CATEGORY('','');
#399=PRODUCT_CONTEXT('',#401,'mechanical');
#400=APPLICATION_PROTOCOL_DEFINITION('international standard',
'automotive_design',2010,#401);
#401=APPLICATION_CONTEXT(
'core data for automotive mechanical design processes');
ENDSEC;
END-ISO-10303-21;
