ISO-10303-21;
HEADER;
/* Generated by software containing ST-Developer
 * from STEP Tools, Inc. (www.steptools.com) 
 */
/* OPTION: using custom renumber hook */

FILE_DESCRIPTION(
/* description */ ('STEP AP214',
'CAx-IF Rec.Pracs.---User Defined Attributes---1.5---2016-08-15'),
/* implementation_level */ '2;1');

FILE_NAME(
/* name */ 'Base turn - Part 4',
/* time_stamp */ '2026-05-17T02:39:04Z',
/* author */ (''),
/* organization */ (''),
/* preprocessor_version */ 'ST-DEVELOPER v20',
/* originating_system */ 'ONSHAPE BY PTC INC, 1.215',
/* authorisation */ '  ');

FILE_SCHEMA (('AUTOMOTIVE_DESIGN {1 0 10303 214 3 1 1}'));
ENDSEC;

DATA;
#10=PROPERTY_DEFINITION_REPRESENTATION(#14,#12);
#11=PROPERTY_DEFINITION_REPRESENTATION(#15,#13);
#12=REPRESENTATION('',(#16),#467);
#13=REPRESENTATION('',(#17),#467);
#14=PROPERTY_DEFINITION('pmi validation property','',#472);
#15=PROPERTY_DEFINITION('pmi validation property','',#472);
#16=VALUE_REPRESENTATION_ITEM('number of annotations',COUNT_MEASURE(0.));
#17=VALUE_REPRESENTATION_ITEM('number of views',COUNT_MEASURE(0.));
#18=SHAPE_REPRESENTATION_RELATIONSHIP('','',#268,#19);
#19=ADVANCED_BREP_SHAPE_REPRESENTATION('',(#266),#467);
#20=CONICAL_SURFACE('',#297,0.00336,0.785398163397448);
#21=CONICAL_SURFACE('',#300,0.00336,0.785398163397448);
#22=CONICAL_SURFACE('',#303,0.00336,0.785398163397448);
#23=CONICAL_SURFACE('',#306,0.00336,0.785398163397448);
#24=CONICAL_SURFACE('',#309,0.00336,0.785398163397448);
#25=CONICAL_SURFACE('',#312,0.00336,0.785398163397448);
#26=PLANE('',#273);
#27=PLANE('',#281);
#28=ORIENTED_EDGE('',*,*,#82,.F.);
#29=ORIENTED_EDGE('',*,*,#83,.T.);
#30=ORIENTED_EDGE('',*,*,#84,.F.);
#31=ORIENTED_EDGE('',*,*,#85,.F.);
#32=ORIENTED_EDGE('',*,*,#86,.F.);
#33=ORIENTED_EDGE('',*,*,#87,.F.);
#34=ORIENTED_EDGE('',*,*,#88,.F.);
#35=ORIENTED_EDGE('',*,*,#89,.F.);
#36=ORIENTED_EDGE('',*,*,#82,.T.);
#37=ORIENTED_EDGE('',*,*,#90,.T.);
#38=ORIENTED_EDGE('',*,*,#83,.F.);
#39=ORIENTED_EDGE('',*,*,#91,.T.);
#40=ORIENTED_EDGE('',*,*,#92,.T.);
#41=ORIENTED_EDGE('',*,*,#93,.T.);
#42=ORIENTED_EDGE('',*,*,#94,.T.);
#43=ORIENTED_EDGE('',*,*,#95,.T.);
#44=ORIENTED_EDGE('',*,*,#96,.T.);
#45=ORIENTED_EDGE('',*,*,#97,.T.);
#46=ORIENTED_EDGE('',*,*,#98,.T.);
#47=ORIENTED_EDGE('',*,*,#99,.T.);
#48=ORIENTED_EDGE('',*,*,#100,.T.);
#49=ORIENTED_EDGE('',*,*,#101,.T.);
#50=ORIENTED_EDGE('',*,*,#102,.T.);
#51=ORIENTED_EDGE('',*,*,#90,.F.);
#52=ORIENTED_EDGE('',*,*,#97,.F.);
#53=ORIENTED_EDGE('',*,*,#95,.F.);
#54=ORIENTED_EDGE('',*,*,#93,.F.);
#55=ORIENTED_EDGE('',*,*,#91,.F.);
#56=ORIENTED_EDGE('',*,*,#101,.F.);
#57=ORIENTED_EDGE('',*,*,#99,.F.);
#58=ORIENTED_EDGE('',*,*,#103,.F.);
#59=ORIENTED_EDGE('',*,*,#89,.T.);
#60=ORIENTED_EDGE('',*,*,#103,.T.);
#61=ORIENTED_EDGE('',*,*,#94,.F.);
#62=ORIENTED_EDGE('',*,*,#104,.F.);
#63=ORIENTED_EDGE('',*,*,#88,.T.);
#64=ORIENTED_EDGE('',*,*,#104,.T.);
#65=ORIENTED_EDGE('',*,*,#100,.F.);
#66=ORIENTED_EDGE('',*,*,#105,.F.);
#67=ORIENTED_EDGE('',*,*,#87,.T.);
#68=ORIENTED_EDGE('',*,*,#105,.T.);
#69=ORIENTED_EDGE('',*,*,#98,.F.);
#70=ORIENTED_EDGE('',*,*,#106,.F.);
#71=ORIENTED_EDGE('',*,*,#86,.T.);
#72=ORIENTED_EDGE('',*,*,#106,.T.);
#73=ORIENTED_EDGE('',*,*,#96,.F.);
#74=ORIENTED_EDGE('',*,*,#107,.F.);
#75=ORIENTED_EDGE('',*,*,#85,.T.);
#76=ORIENTED_EDGE('',*,*,#107,.T.);
#77=ORIENTED_EDGE('',*,*,#102,.F.);
#78=ORIENTED_EDGE('',*,*,#108,.F.);
#79=ORIENTED_EDGE('',*,*,#84,.T.);
#80=ORIENTED_EDGE('',*,*,#108,.T.);
#81=ORIENTED_EDGE('',*,*,#92,.F.);
#82=EDGE_CURVE('',#109,#109,#130,.T.);
#83=EDGE_CURVE('',#110,#110,#131,.T.);
#84=EDGE_CURVE('',#111,#111,#132,.F.);
#85=EDGE_CURVE('',#112,#112,#133,.F.);
#86=EDGE_CURVE('',#113,#113,#134,.F.);
#87=EDGE_CURVE('',#114,#114,#135,.F.);
#88=EDGE_CURVE('',#115,#115,#136,.F.);
#89=EDGE_CURVE('',#116,#116,#137,.F.);
#90=EDGE_CURVE('',#117,#117,#138,.F.);
#91=EDGE_CURVE('',#118,#119,#139,.T.);
#92=EDGE_CURVE('',#119,#119,#140,.T.);
#93=EDGE_CURVE('',#119,#120,#141,.T.);
#94=EDGE_CURVE('',#120,#120,#142,.T.);
#95=EDGE_CURVE('',#120,#121,#143,.T.);
#96=EDGE_CURVE('',#121,#121,#144,.T.);
#97=EDGE_CURVE('',#121,#122,#145,.T.);
#98=EDGE_CURVE('',#122,#122,#146,.T.);
#99=EDGE_CURVE('',#122,#123,#147,.T.);
#100=EDGE_CURVE('',#123,#123,#148,.T.);
#101=EDGE_CURVE('',#123,#118,#149,.T.);
#102=EDGE_CURVE('',#118,#118,#150,.T.);
#103=EDGE_CURVE('',#124,#124,#151,.T.);
#104=EDGE_CURVE('',#125,#125,#152,.T.);
#105=EDGE_CURVE('',#126,#126,#153,.T.);
#106=EDGE_CURVE('',#127,#127,#154,.T.);
#107=EDGE_CURVE('',#128,#128,#155,.T.);
#108=EDGE_CURVE('',#129,#129,#156,.T.);
#109=VERTEX_POINT('',#404);
#110=VERTEX_POINT('',#406);
#111=VERTEX_POINT('',#409);
#112=VERTEX_POINT('',#411);
#113=VERTEX_POINT('',#413);
#114=VERTEX_POINT('',#415);
#115=VERTEX_POINT('',#417);
#116=VERTEX_POINT('',#419);
#117=VERTEX_POINT('',#421);
#118=VERTEX_POINT('',#424);
#119=VERTEX_POINT('',#425);
#120=VERTEX_POINT('',#428);
#121=VERTEX_POINT('',#431);
#122=VERTEX_POINT('',#434);
#123=VERTEX_POINT('',#437);
#124=VERTEX_POINT('',#444);
#125=VERTEX_POINT('',#448);
#126=VERTEX_POINT('',#452);
#127=VERTEX_POINT('',#456);
#128=VERTEX_POINT('',#460);
#129=VERTEX_POINT('',#464);
#130=CIRCLE('',#271,0.041);
#131=CIRCLE('',#272,0.041);
#132=CIRCLE('',#274,0.0016);
#133=CIRCLE('',#275,0.0016);
#134=CIRCLE('',#276,0.0016);
#135=CIRCLE('',#277,0.0016);
#136=CIRCLE('',#278,0.0016);
#137=CIRCLE('',#279,0.0016);
#138=CIRCLE('',#280,0.05011);
#139=CIRCLE('',#282,0.05011);
#140=CIRCLE('',#283,0.00336);
#141=CIRCLE('',#284,0.05011);
#142=CIRCLE('',#285,0.00336);
#143=CIRCLE('',#286,0.05011);
#144=CIRCLE('',#287,0.00336);
#145=CIRCLE('',#288,0.05011);
#146=CIRCLE('',#289,0.00336);
#147=CIRCLE('',#290,0.05011);
#148=CIRCLE('',#291,0.00336);
#149=CIRCLE('',#292,0.05011);
#150=CIRCLE('',#293,0.00336);
#151=CIRCLE('',#296,0.0016);
#152=CIRCLE('',#299,0.0016);
#153=CIRCLE('',#302,0.0016);
#154=CIRCLE('',#305,0.0016);
#155=CIRCLE('',#308,0.0016);
#156=CIRCLE('',#311,0.0016);
#157=EDGE_LOOP('',(#28));
#158=EDGE_LOOP('',(#29));
#159=EDGE_LOOP('',(#30));
#160=EDGE_LOOP('',(#31));
#161=EDGE_LOOP('',(#32));
#162=EDGE_LOOP('',(#33));
#163=EDGE_LOOP('',(#34));
#164=EDGE_LOOP('',(#35));
#165=EDGE_LOOP('',(#36));
#166=EDGE_LOOP('',(#37));
#167=EDGE_LOOP('',(#38));
#168=EDGE_LOOP('',(#39,#40,#41,#42,#43,#44,#45,#46,#47,#48,#49,#50));
#169=EDGE_LOOP('',(#51));
#170=EDGE_LOOP('',(#52,#53,#54,#55,#56,#57));
#171=EDGE_LOOP('',(#58));
#172=EDGE_LOOP('',(#59));
#173=EDGE_LOOP('',(#60));
#174=EDGE_LOOP('',(#61));
#175=EDGE_LOOP('',(#62));
#176=EDGE_LOOP('',(#63));
#177=EDGE_LOOP('',(#64));
#178=EDGE_LOOP('',(#65));
#179=EDGE_LOOP('',(#66));
#180=EDGE_LOOP('',(#67));
#181=EDGE_LOOP('',(#68));
#182=EDGE_LOOP('',(#69));
#183=EDGE_LOOP('',(#70));
#184=EDGE_LOOP('',(#71));
#185=EDGE_LOOP('',(#72));
#186=EDGE_LOOP('',(#73));
#187=EDGE_LOOP('',(#74));
#188=EDGE_LOOP('',(#75));
#189=EDGE_LOOP('',(#76));
#190=EDGE_LOOP('',(#77));
#191=EDGE_LOOP('',(#78));
#192=EDGE_LOOP('',(#79));
#193=EDGE_LOOP('',(#80));
#194=EDGE_LOOP('',(#81));
#195=FACE_BOUND('',#157,.T.);
#196=FACE_BOUND('',#158,.T.);
#197=FACE_BOUND('',#159,.T.);
#198=FACE_BOUND('',#160,.T.);
#199=FACE_BOUND('',#161,.T.);
#200=FACE_BOUND('',#162,.T.);
#201=FACE_BOUND('',#163,.T.);
#202=FACE_BOUND('',#164,.T.);
#203=FACE_BOUND('',#165,.T.);
#204=FACE_BOUND('',#166,.T.);
#205=FACE_BOUND('',#167,.T.);
#206=FACE_BOUND('',#168,.T.);
#207=FACE_BOUND('',#169,.T.);
#208=FACE_BOUND('',#170,.T.);
#209=FACE_BOUND('',#171,.T.);
#210=FACE_BOUND('',#172,.T.);
#211=FACE_BOUND('',#173,.T.);
#212=FACE_BOUND('',#174,.T.);
#213=FACE_BOUND('',#175,.T.);
#214=FACE_BOUND('',#176,.T.);
#215=FACE_BOUND('',#177,.T.);
#216=FACE_BOUND('',#178,.T.);
#217=FACE_BOUND('',#179,.T.);
#218=FACE_BOUND('',#180,.T.);
#219=FACE_BOUND('',#181,.T.);
#220=FACE_BOUND('',#182,.T.);
#221=FACE_BOUND('',#183,.T.);
#222=FACE_BOUND('',#184,.T.);
#223=FACE_BOUND('',#185,.T.);
#224=FACE_BOUND('',#186,.T.);
#225=FACE_BOUND('',#187,.T.);
#226=FACE_BOUND('',#188,.T.);
#227=FACE_BOUND('',#189,.T.);
#228=FACE_BOUND('',#190,.T.);
#229=FACE_BOUND('',#191,.T.);
#230=FACE_BOUND('',#192,.T.);
#231=FACE_BOUND('',#193,.T.);
#232=FACE_BOUND('',#194,.T.);
#233=CYLINDRICAL_SURFACE('',#270,0.041);
#234=CYLINDRICAL_SURFACE('',#294,0.05011);
#235=CYLINDRICAL_SURFACE('',#295,0.0016);
#236=CYLINDRICAL_SURFACE('',#298,0.0016);
#237=CYLINDRICAL_SURFACE('',#301,0.0016);
#238=CYLINDRICAL_SURFACE('',#304,0.0016);
#239=CYLINDRICAL_SURFACE('',#307,0.0016);
#240=CYLINDRICAL_SURFACE('',#310,0.0016);
#241=ADVANCED_FACE('',(#195,#196),#233,.F.);
#242=ADVANCED_FACE('',(#197,#198,#199,#200,#201,#202,#203,#204),#26,.F.);
#243=ADVANCED_FACE('',(#205,#206),#27,.T.);
#244=ADVANCED_FACE('',(#207,#208),#234,.T.);
#245=ADVANCED_FACE('',(#209,#210),#235,.F.);
#246=ADVANCED_FACE('',(#211,#212),#20,.F.);
#247=ADVANCED_FACE('',(#213,#214),#236,.F.);
#248=ADVANCED_FACE('',(#215,#216),#21,.F.);
#249=ADVANCED_FACE('',(#217,#218),#237,.F.);
#250=ADVANCED_FACE('',(#219,#220),#22,.F.);
#251=ADVANCED_FACE('',(#221,#222),#238,.F.);
#252=ADVANCED_FACE('',(#223,#224),#23,.F.);
#253=ADVANCED_FACE('',(#225,#226),#239,.F.);
#254=ADVANCED_FACE('',(#227,#228),#24,.F.);
#255=ADVANCED_FACE('',(#229,#230),#240,.F.);
#256=ADVANCED_FACE('',(#231,#232),#25,.F.);
#257=CLOSED_SHELL('',(#241,#242,#243,#244,#245,#246,#247,#248,#249,#250,
#251,#252,#253,#254,#255,#256));
#258=STYLED_ITEM('',(#259),#266);
#259=PRESENTATION_STYLE_ASSIGNMENT((#260));
#260=SURFACE_STYLE_USAGE(.BOTH.,#261);
#261=SURFACE_SIDE_STYLE('',(#262));
#262=SURFACE_STYLE_FILL_AREA(#263);
#263=FILL_AREA_STYLE('',(#264));
#264=FILL_AREA_STYLE_COLOUR('',#265);
#265=COLOUR_RGB('',0.231372549019608,0.380392156862745,0.705882352941177);
#266=MANIFOLD_SOLID_BREP('Part 4',#257);
#267=SHAPE_DEFINITION_REPRESENTATION(#472,#268);
#268=SHAPE_REPRESENTATION('Part 4',(#269),#467);
#269=AXIS2_PLACEMENT_3D('',#401,#313,#314);
#270=AXIS2_PLACEMENT_3D('',#402,#315,#316);
#271=AXIS2_PLACEMENT_3D('',#403,#317,#318);
#272=AXIS2_PLACEMENT_3D('',#405,#319,#320);
#273=AXIS2_PLACEMENT_3D('',#407,#321,#322);
#274=AXIS2_PLACEMENT_3D('',#408,#323,#324);
#275=AXIS2_PLACEMENT_3D('',#410,#325,#326);
#276=AXIS2_PLACEMENT_3D('',#412,#327,#328);
#277=AXIS2_PLACEMENT_3D('',#414,#329,#330);
#278=AXIS2_PLACEMENT_3D('',#416,#331,#332);
#279=AXIS2_PLACEMENT_3D('',#418,#333,#334);
#280=AXIS2_PLACEMENT_3D('',#420,#335,#336);
#281=AXIS2_PLACEMENT_3D('',#422,#337,#338);
#282=AXIS2_PLACEMENT_3D('',#423,#339,#340);
#283=AXIS2_PLACEMENT_3D('',#426,#341,#342);
#284=AXIS2_PLACEMENT_3D('',#427,#343,#344);
#285=AXIS2_PLACEMENT_3D('',#429,#345,#346);
#286=AXIS2_PLACEMENT_3D('',#430,#347,#348);
#287=AXIS2_PLACEMENT_3D('',#432,#349,#350);
#288=AXIS2_PLACEMENT_3D('',#433,#351,#352);
#289=AXIS2_PLACEMENT_3D('',#435,#353,#354);
#290=AXIS2_PLACEMENT_3D('',#436,#355,#356);
#291=AXIS2_PLACEMENT_3D('',#438,#357,#358);
#292=AXIS2_PLACEMENT_3D('',#439,#359,#360);
#293=AXIS2_PLACEMENT_3D('',#440,#361,#362);
#294=AXIS2_PLACEMENT_3D('',#441,#363,#364);
#295=AXIS2_PLACEMENT_3D('',#442,#365,#366);
#296=AXIS2_PLACEMENT_3D('',#443,#367,#368);
#297=AXIS2_PLACEMENT_3D('',#445,#369,#370);
#298=AXIS2_PLACEMENT_3D('',#446,#371,#372);
#299=AXIS2_PLACEMENT_3D('',#447,#373,#374);
#300=AXIS2_PLACEMENT_3D('',#449,#375,#376);
#301=AXIS2_PLACEMENT_3D('',#450,#377,#378);
#302=AXIS2_PLACEMENT_3D('',#451,#379,#380);
#303=AXIS2_PLACEMENT_3D('',#453,#381,#382);
#304=AXIS2_PLACEMENT_3D('',#454,#383,#384);
#305=AXIS2_PLACEMENT_3D('',#455,#385,#386);
#306=AXIS2_PLACEMENT_3D('',#457,#387,#388);
#307=AXIS2_PLACEMENT_3D('',#458,#389,#390);
#308=AXIS2_PLACEMENT_3D('',#459,#391,#392);
#309=AXIS2_PLACEMENT_3D('',#461,#393,#394);
#310=AXIS2_PLACEMENT_3D('',#462,#395,#396);
#311=AXIS2_PLACEMENT_3D('',#463,#397,#398);
#312=AXIS2_PLACEMENT_3D('',#465,#399,#400);
#313=DIRECTION('',(0.,0.,1.));
#314=DIRECTION('',(1.,0.,0.));
#315=DIRECTION('',(0.,-6.12323399573677E-17,1.));
#316=DIRECTION('',(0.,-1.,-6.12323399573677E-17));
#317=DIRECTION('',(0.,6.12323399573677E-17,-1.));
#318=DIRECTION('',(0.,1.,6.12323399573677E-17));
#319=DIRECTION('',(-2.30585074515868E-15,5.29979110053443E-16,-0.999999999999984));
#320=DIRECTION('',(-1.,0.,2.30585074515871E-15));
#321=DIRECTION('',(0.,6.12323399573677E-17,-1.));
#322=DIRECTION('',(1.,0.,0.));
#323=DIRECTION('',(0.,6.12323399573677E-17,-1.));
#324=DIRECTION('',(0.,1.,6.12323399573677E-17));
#325=DIRECTION('',(0.,6.12323399573677E-17,-1.));
#326=DIRECTION('',(0.,1.,6.12323399573677E-17));
#327=DIRECTION('',(0.,6.12323399573677E-17,-1.));
#328=DIRECTION('',(0.,1.,6.12323399573677E-17));
#329=DIRECTION('',(0.,6.12323399573677E-17,-1.));
#330=DIRECTION('',(0.,1.,6.12323399573677E-17));
#331=DIRECTION('',(0.,6.12323399573677E-17,-1.));
#332=DIRECTION('',(0.,1.,6.12323399573677E-17));
#333=DIRECTION('',(0.,6.12323399573677E-17,-1.));
#334=DIRECTION('',(0.,1.,6.12323399573677E-17));
#335=DIRECTION('',(0.,6.12323399573677E-17,-1.));
#336=DIRECTION('',(0.,1.,6.12323399573677E-17));
#337=DIRECTION('',(-2.30585074515868E-15,5.29979110053443E-16,-0.999999999999984));
#338=DIRECTION('',(-0.890079480457879,-0.455805351512951,1.4296299772561E-15));
#339=DIRECTION('',(-2.30585074515871E-15,5.29979110053451E-16,-1.));
#340=DIRECTION('',(-1.,0.,2.30585074515871E-15));
#341=DIRECTION('',(2.30585074515871E-15,-5.29979110053451E-16,1.));
#342=DIRECTION('',(1.,0.,-2.30585074515871E-15));
#343=DIRECTION('',(-2.30585074515871E-15,5.29979110053451E-16,-1.));
#344=DIRECTION('',(-1.,0.,2.30585074515871E-15));
#345=DIRECTION('',(2.30585074515871E-15,-5.29979110053451E-16,1.));
#346=DIRECTION('',(1.,0.,-2.30585074515871E-15));
#347=DIRECTION('',(-2.30585074515871E-15,5.29979110053451E-16,-1.));
#348=DIRECTION('',(-1.,0.,2.30585074515871E-15));
#349=DIRECTION('',(2.30585074515871E-15,-5.29979110053451E-16,1.));
#350=DIRECTION('',(1.,0.,-2.30585074515871E-15));
#351=DIRECTION('',(-2.30585074515871E-15,5.29979110053451E-16,-1.));
#352=DIRECTION('',(-1.,0.,2.30585074515871E-15));
#353=DIRECTION('',(2.30585074515871E-15,-5.29979110053451E-16,1.));
#354=DIRECTION('',(1.,0.,-2.30585074515871E-15));
#355=DIRECTION('',(-2.30585074515871E-15,5.29979110053451E-16,-1.));
#356=DIRECTION('',(-1.,0.,2.30585074515871E-15));
#357=DIRECTION('',(2.30585074515871E-15,-5.29979110053451E-16,1.));
#358=DIRECTION('',(1.,0.,-2.30585074515871E-15));
#359=DIRECTION('',(-2.30585074515871E-15,5.29979110053451E-16,-1.));
#360=DIRECTION('',(-1.,0.,2.30585074515871E-15));
#361=DIRECTION('',(2.30585074515871E-15,-5.29979110053451E-16,1.));
#362=DIRECTION('',(1.,0.,-2.30585074515871E-15));
#363=DIRECTION('',(-2.30585074515871E-15,5.29979110053451E-16,-1.));
#364=DIRECTION('',(-1.,0.,2.30585074515871E-15));
#365=DIRECTION('',(2.30585074515871E-15,-5.29979110053451E-16,1.));
#366=DIRECTION('',(1.,0.,-2.30585074515871E-15));
#367=DIRECTION('',(2.30585074515871E-15,-5.29979110053451E-16,1.));
#368=DIRECTION('',(1.,0.,-2.30585074515871E-15));
#369=DIRECTION('',(-2.30585074515871E-15,5.29979110053451E-16,-1.));
#370=DIRECTION('',(-1.,0.,2.30585074515871E-15));
#371=DIRECTION('',(2.30585074515871E-15,-5.29979110053451E-16,1.));
#372=DIRECTION('',(1.,0.,-2.30585074515871E-15));
#373=DIRECTION('',(2.30585074515871E-15,-5.29979110053451E-16,1.));
#374=DIRECTION('',(1.,0.,-2.30585074515871E-15));
#375=DIRECTION('',(-2.30585074515871E-15,5.29979110053451E-16,-1.));
#376=DIRECTION('',(-1.,0.,2.30585074515871E-15));
#377=DIRECTION('',(2.30585074515871E-15,-5.29979110053451E-16,1.));
#378=DIRECTION('',(1.,0.,-2.30585074515871E-15));
#379=DIRECTION('',(2.30585074515871E-15,-5.29979110053451E-16,1.));
#380=DIRECTION('',(1.,0.,-2.30585074515871E-15));
#381=DIRECTION('',(-2.30585074515871E-15,5.29979110053451E-16,-1.));
#382=DIRECTION('',(-1.,0.,2.30585074515871E-15));
#383=DIRECTION('',(2.30585074515871E-15,-5.29979110053451E-16,1.));
#384=DIRECTION('',(1.,0.,-2.30585074515871E-15));
#385=DIRECTION('',(2.30585074515871E-15,-5.29979110053451E-16,1.));
#386=DIRECTION('',(1.,0.,-2.30585074515871E-15));
#387=DIRECTION('',(-2.30585074515871E-15,5.29979110053451E-16,-1.));
#388=DIRECTION('',(-1.,0.,2.30585074515871E-15));
#389=DIRECTION('',(2.30585074515871E-15,-5.29979110053451E-16,1.));
#390=DIRECTION('',(1.,0.,-2.30585074515871E-15));
#391=DIRECTION('',(2.30585074515871E-15,-5.29979110053451E-16,1.));
#392=DIRECTION('',(1.,0.,-2.30585074515871E-15));
#393=DIRECTION('',(-2.30585074515871E-15,5.29979110053451E-16,-1.));
#394=DIRECTION('',(-1.,0.,2.30585074515871E-15));
#395=DIRECTION('',(2.30585074515871E-15,-5.29979110053451E-16,1.));
#396=DIRECTION('',(1.,0.,-2.30585074515871E-15));
#397=DIRECTION('',(2.30585074515871E-15,-5.29979110053451E-16,1.));
#398=DIRECTION('',(1.,0.,-2.30585074515871E-15));
#399=DIRECTION('',(-2.30585074515871E-15,5.29979110053451E-16,-1.));
#400=DIRECTION('',(-1.,0.,2.30585074515871E-15));
#401=CARTESIAN_POINT('',(0.,0.,0.));
#402=CARTESIAN_POINT('',(2.10677343055469E-16,-3.60609210763104E-16,-0.0330019999999991));
#403=CARTESIAN_POINT('',(2.10677343055469E-16,-3.60822483003176E-16,-0.029519));
#404=CARTESIAN_POINT('',(2.10677343055469E-16,0.0409999999999996,-0.029519));
#405=CARTESIAN_POINT('',(2.10677343055469E-16,-3.60609333227785E-16,-0.0329999999999991));
#406=CARTESIAN_POINT('',(-0.0409999999999998,-3.60609333227785E-16,-0.032999999999999));
#407=CARTESIAN_POINT('',(0.,1.80751744320154E-18,-0.029519));
#408=CARTESIAN_POINT('',(0.023375,-0.0404866876269225,-0.029519));
#409=CARTESIAN_POINT('',(0.023375,-0.0388866876269225,-0.029519));
#410=CARTESIAN_POINT('',(0.04675,2.59107183335332E-17,-0.029519));
#411=CARTESIAN_POINT('',(0.04675,0.00160000000000003,-0.029519));
#412=CARTESIAN_POINT('',(-0.04675,-8.78375118600277E-18,-0.029519));
#413=CARTESIAN_POINT('',(-0.04675,0.00159999999999999,-0.029519));
#414=CARTESIAN_POINT('',(-0.023375,0.0404866876269225,-0.029519));
#415=CARTESIAN_POINT('',(-0.023375,0.0420866876269225,-0.029519));
#416=CARTESIAN_POINT('',(0.023375,0.0404866876269225,-0.029519));
#417=CARTESIAN_POINT('',(0.023375,0.0420866876269225,-0.029519));
#418=CARTESIAN_POINT('',(-0.023375,-0.0404866876269225,-0.029519));
#419=CARTESIAN_POINT('',(-0.023375,-0.0388866876269225,-0.029519));
#420=CARTESIAN_POINT('',(2.09254589657205E-16,-3.55728446381364E-16,-0.029519));
#421=CARTESIAN_POINT('',(2.09254589657205E-16,0.0501099999999996,-0.029519));
#422=CARTESIAN_POINT('',(2.08166817117217E-16,-3.60822483003176E-16,-0.0329999999999991));
#423=CARTESIAN_POINT('',(2.01227923213309E-16,-3.53883589099268E-16,-0.0329999999999991));
#424=CARTESIAN_POINT('',(0.05011,-3.53883589099268E-16,-0.0329999999999993));
#425=CARTESIAN_POINT('',(0.025055,-0.0433965329836385,-0.0329999999999992));
#426=CARTESIAN_POINT('',(0.023375,-0.0404866876269225,-0.0329999999999992));
#427=CARTESIAN_POINT('',(2.01227923213309E-16,-3.53883589099268E-16,-0.0329999999999991));
#428=CARTESIAN_POINT('',(-0.025055,-0.0433965329836384,-0.0329999999999991));
#429=CARTESIAN_POINT('',(-0.023375,-0.0404866876269225,-0.0329999999999991));
#430=CARTESIAN_POINT('',(2.01227923213309E-16,-3.53883589099268E-16,-0.0329999999999991));
#431=CARTESIAN_POINT('',(-0.05011,1.79965964887416E-17,-0.032999999999999));
#432=CARTESIAN_POINT('',(-0.04675,-6.93889390390723E-18,-0.032999999999999));
#433=CARTESIAN_POINT('',(2.01227923213309E-16,-3.53883589099268E-16,-0.0329999999999991));
#434=CARTESIAN_POINT('',(-0.025055,0.0433965329836378,-0.0329999999999991));
#435=CARTESIAN_POINT('',(-0.023375,0.0404866876269225,-0.0329999999999991));
#436=CARTESIAN_POINT('',(2.01227923213309E-16,-3.53883589099268E-16,-0.0329999999999991));
#437=CARTESIAN_POINT('',(0.025055,0.043396532983638,-0.0329999999999991));
#438=CARTESIAN_POINT('',(0.023375,0.0404866876269225,-0.0329999999999991));
#439=CARTESIAN_POINT('',(2.01227923213309E-16,-3.53883589099268E-16,-0.0329999999999991));
#440=CARTESIAN_POINT('',(0.04675,2.77555756156289E-17,-0.0329999999999993));
#441=CARTESIAN_POINT('',(2.09259201358695E-16,-3.55729506339585E-16,-0.029517));
#442=CARTESIAN_POINT('',(-0.023375,-0.0404866876269225,-0.0329999999999991));
#443=CARTESIAN_POINT('',(-0.023375,-0.0404866876269225,-0.0312399999999991));
#444=CARTESIAN_POINT('',(-0.021775,-0.0404866876269225,-0.0312399999999991));
#445=CARTESIAN_POINT('',(-0.023375,-0.0404866876269225,-0.0329999999999991));
#446=CARTESIAN_POINT('',(0.023375,0.0404866876269225,-0.0329999999999991));
#447=CARTESIAN_POINT('',(0.023375,0.0404866876269225,-0.0312399999999992));
#448=CARTESIAN_POINT('',(0.024975,0.0404866876269225,-0.0312399999999992));
#449=CARTESIAN_POINT('',(0.023375,0.0404866876269225,-0.0329999999999991));
#450=CARTESIAN_POINT('',(-0.023375,0.0404866876269225,-0.0329999999999991));
#451=CARTESIAN_POINT('',(-0.023375,0.0404866876269225,-0.031239999999999));
#452=CARTESIAN_POINT('',(-0.021775,0.0404866876269225,-0.0312399999999991));
#453=CARTESIAN_POINT('',(-0.023375,0.0404866876269225,-0.0329999999999991));
#454=CARTESIAN_POINT('',(-0.04675,-6.93889390390723E-18,-0.032999999999999));
#455=CARTESIAN_POINT('',(-0.04675,-6.93889390390723E-18,-0.031239999999999));
#456=CARTESIAN_POINT('',(-0.04515,-6.93889390390723E-18,-0.031239999999999));
#457=CARTESIAN_POINT('',(-0.04675,-6.93889390390723E-18,-0.032999999999999));
#458=CARTESIAN_POINT('',(0.04675,2.77555756156289E-17,-0.0329999999999993));
#459=CARTESIAN_POINT('',(0.04675,2.77555756156289E-17,-0.0312399999999992));
#460=CARTESIAN_POINT('',(0.04835,2.77555756156289E-17,-0.0312399999999993));
#461=CARTESIAN_POINT('',(0.04675,2.77555756156289E-17,-0.0329999999999993));
#462=CARTESIAN_POINT('',(0.023375,-0.0404866876269225,-0.0329999999999992));
#463=CARTESIAN_POINT('',(0.023375,-0.0404866876269225,-0.0312399999999992));
#464=CARTESIAN_POINT('',(0.024975,-0.0404866876269225,-0.0312399999999992));
#465=CARTESIAN_POINT('',(0.023375,-0.0404866876269225,-0.0329999999999992));
#466=MECHANICAL_DESIGN_GEOMETRIC_PRESENTATION_REPRESENTATION('',(#258),
#467);
#467=(
GEOMETRIC_REPRESENTATION_CONTEXT(3)
GLOBAL_UNCERTAINTY_ASSIGNED_CONTEXT((#468))
GLOBAL_UNIT_ASSIGNED_CONTEXT((#471,#470,#469))
REPRESENTATION_CONTEXT('Part 4','TOP_LEVEL_ASSEMBLY_PART')
);
#468=UNCERTAINTY_MEASURE_WITH_UNIT(LENGTH_MEASURE(1.E-8),#471,
'DISTANCE_ACCURACY_VALUE','Maximum Tolerance applied to model');
#469=(
NAMED_UNIT(*)
SI_UNIT($,.STERADIAN.)
SOLID_ANGLE_UNIT()
);
#470=(
NAMED_UNIT(*)
PLANE_ANGLE_UNIT()
SI_UNIT($,.RADIAN.)
);
#471=(
LENGTH_UNIT()
NAMED_UNIT(*)
SI_UNIT($,.METRE.)
);
#472=PRODUCT_DEFINITION_SHAPE('','',#473);
#473=PRODUCT_DEFINITION('','',#475,#474);
#474=PRODUCT_DEFINITION_CONTEXT('',#481,'design');
#475=PRODUCT_DEFINITION_FORMATION_WITH_SPECIFIED_SOURCE('','',#477,
 .NOT_KNOWN.);
#476=PRODUCT_RELATED_PRODUCT_CATEGORY('','',(#477));
#477=PRODUCT('Part 4','Part 4','Part 4',(#479));
#478=PRODUCT_CATEGORY('','');
#479=PRODUCT_CONTEXT('',#481,'mechanical');
#480=APPLICATION_PROTOCOL_DEFINITION('international standard',
'automotive_design',2010,#481);
#481=APPLICATION_CONTEXT(
'core data for automotive mechanical design processes');
ENDSEC;
END-ISO-10303-21;
