ISO-10303-21;
HEADER;
/* Generated by software containing ST-Developer
 * from STEP Tools, Inc. (www.steptools.com) 
 */
/* OPTION: using custom renumber hook */

FILE_DESCRIPTION(
/* description */ ('STEP AP214',
'CAx-IF Rec.Pracs.---User Defined Attributes---1.5---2016-08-15'),
/* implementation_level */ '2;1');

FILE_NAME(
/* name */ 'Base turn - Part 2 (3)',
/* time_stamp */ '2026-05-17T02:39:04Z',
/* author */ (''),
/* organization */ (''),
/* preprocessor_version */ 'ST-DEVELOPER v20',
/* originating_system */ 'ONSHAPE BY PTC INC, 1.215',
/* authorisation */ '  ');

FILE_SCHEMA (('AUTOMOTIVE_DESIGN {1 0 10303 214 3 1 1}'));
ENDSEC;

DATA;
#10=PROPERTY_DEFINITION_REPRESENTATION(#14,#12);
#11=PROPERTY_DEFINITION_REPRESENTATION(#15,#13);
#12=REPRESENTATION('',(#16),#569);
#13=REPRESENTATION('',(#17),#569);
#14=PROPERTY_DEFINITION('pmi validation property','',#574);
#15=PROPERTY_DEFINITION('pmi validation property','',#574);
#16=VALUE_REPRESENTATION_ITEM('number of annotations',COUNT_MEASURE(0.));
#17=VALUE_REPRESENTATION_ITEM('number of views',COUNT_MEASURE(0.));
#18=SHAPE_REPRESENTATION_RELATIONSHIP('','',#336,#19);
#19=ADVANCED_BREP_SHAPE_REPRESENTATION('',(#334),#569);
#20=CONICAL_SURFACE('',#358,0.00336,0.785398163397449);
#21=CONICAL_SURFACE('',#361,0.00336,0.785398163397449);
#22=CONICAL_SURFACE('',#364,0.00336,0.785398163397449);
#23=CONICAL_SURFACE('',#367,0.00336,0.785398163397449);
#24=CYLINDRICAL_SURFACE('',#352,0.005);
#25=CYLINDRICAL_SURFACE('',#354,0.0267171981758254);
#26=CYLINDRICAL_SURFACE('',#356,0.0016);
#27=CYLINDRICAL_SURFACE('',#359,0.0016);
#28=CYLINDRICAL_SURFACE('',#362,0.0016);
#29=CYLINDRICAL_SURFACE('',#365,0.0016);
#30=CYLINDRICAL_SURFACE('',#372,0.05051);
#31=CYLINDRICAL_SURFACE('',#375,0.05301);
#32=CYLINDRICAL_SURFACE('',#380,0.0185);
#33=LINE('',#497,#43);
#34=LINE('',#500,#44);
#35=LINE('',#504,#45);
#36=LINE('',#516,#46);
#37=LINE('',#519,#47);
#38=LINE('',#521,#48);
#39=LINE('',#526,#49);
#40=LINE('',#527,#50);
#41=LINE('',#529,#51);
#42=LINE('',#531,#52);
#43=VECTOR('',#397,1.);
#44=VECTOR('',#398,1.);
#45=VECTOR('',#401,1.);
#46=VECTOR('',#414,1.);
#47=VECTOR('',#415,1.);
#48=VECTOR('',#416,1.);
#49=VECTOR('',#423,1.);
#50=VECTOR('',#424,1.);
#51=VECTOR('',#427,1.);
#52=VECTOR('',#430,1.);
#53=ORIENTED_EDGE('',*,*,#119,.T.);
#54=ORIENTED_EDGE('',*,*,#120,.T.);
#55=ORIENTED_EDGE('',*,*,#121,.T.);
#56=ORIENTED_EDGE('',*,*,#122,.T.);
#57=ORIENTED_EDGE('',*,*,#123,.F.);
#58=ORIENTED_EDGE('',*,*,#124,.F.);
#59=ORIENTED_EDGE('',*,*,#125,.T.);
#60=ORIENTED_EDGE('',*,*,#126,.T.);
#61=ORIENTED_EDGE('',*,*,#127,.F.);
#62=ORIENTED_EDGE('',*,*,#128,.F.);
#63=ORIENTED_EDGE('',*,*,#129,.F.);
#64=ORIENTED_EDGE('',*,*,#130,.F.);
#65=ORIENTED_EDGE('',*,*,#131,.F.);
#66=ORIENTED_EDGE('',*,*,#132,.T.);
#67=ORIENTED_EDGE('',*,*,#133,.F.);
#68=ORIENTED_EDGE('',*,*,#134,.T.);
#69=ORIENTED_EDGE('',*,*,#135,.T.);
#70=ORIENTED_EDGE('',*,*,#136,.F.);
#71=ORIENTED_EDGE('',*,*,#123,.T.);
#72=ORIENTED_EDGE('',*,*,#132,.F.);
#73=ORIENTED_EDGE('',*,*,#125,.F.);
#74=ORIENTED_EDGE('',*,*,#137,.F.);
#75=ORIENTED_EDGE('',*,*,#133,.T.);
#76=ORIENTED_EDGE('',*,*,#138,.T.);
#77=ORIENTED_EDGE('',*,*,#126,.F.);
#78=ORIENTED_EDGE('',*,*,#138,.F.);
#79=ORIENTED_EDGE('',*,*,#136,.T.);
#80=ORIENTED_EDGE('',*,*,#139,.T.);
#81=ORIENTED_EDGE('',*,*,#140,.T.);
#82=ORIENTED_EDGE('',*,*,#127,.T.);
#83=ORIENTED_EDGE('',*,*,#139,.F.);
#84=ORIENTED_EDGE('',*,*,#135,.F.);
#85=ORIENTED_EDGE('',*,*,#141,.F.);
#86=ORIENTED_EDGE('',*,*,#131,.T.);
#87=ORIENTED_EDGE('',*,*,#141,.T.);
#88=ORIENTED_EDGE('',*,*,#122,.F.);
#89=ORIENTED_EDGE('',*,*,#142,.F.);
#90=ORIENTED_EDGE('',*,*,#130,.T.);
#91=ORIENTED_EDGE('',*,*,#142,.T.);
#92=ORIENTED_EDGE('',*,*,#121,.F.);
#93=ORIENTED_EDGE('',*,*,#143,.F.);
#94=ORIENTED_EDGE('',*,*,#129,.T.);
#95=ORIENTED_EDGE('',*,*,#143,.T.);
#96=ORIENTED_EDGE('',*,*,#120,.F.);
#97=ORIENTED_EDGE('',*,*,#144,.F.);
#98=ORIENTED_EDGE('',*,*,#128,.T.);
#99=ORIENTED_EDGE('',*,*,#144,.T.);
#100=ORIENTED_EDGE('',*,*,#119,.F.);
#101=ORIENTED_EDGE('',*,*,#140,.F.);
#102=ORIENTED_EDGE('',*,*,#145,.F.);
#103=ORIENTED_EDGE('',*,*,#137,.T.);
#104=ORIENTED_EDGE('',*,*,#124,.T.);
#105=ORIENTED_EDGE('',*,*,#134,.F.);
#106=ORIENTED_EDGE('',*,*,#146,.F.);
#107=ORIENTED_EDGE('',*,*,#147,.T.);
#108=ORIENTED_EDGE('',*,*,#148,.F.);
#109=ORIENTED_EDGE('',*,*,#149,.F.);
#110=ORIENTED_EDGE('',*,*,#146,.T.);
#111=ORIENTED_EDGE('',*,*,#145,.T.);
#112=ORIENTED_EDGE('',*,*,#147,.F.);
#113=ORIENTED_EDGE('',*,*,#149,.T.);
#114=ORIENTED_EDGE('',*,*,#150,.T.);
#115=ORIENTED_EDGE('',*,*,#150,.F.);
#116=ORIENTED_EDGE('',*,*,#151,.T.);
#117=ORIENTED_EDGE('',*,*,#151,.F.);
#118=ORIENTED_EDGE('',*,*,#148,.T.);
#119=EDGE_CURVE('',#152,#152,#179,.T.);
#120=EDGE_CURVE('',#153,#153,#180,.T.);
#121=EDGE_CURVE('',#154,#154,#181,.T.);
#122=EDGE_CURVE('',#155,#155,#182,.T.);
#123=EDGE_CURVE('',#156,#156,#183,.T.);
#124=EDGE_CURVE('',#157,#158,#33,.T.);
#125=EDGE_CURVE('',#157,#159,#34,.T.);
#126=EDGE_CURVE('',#159,#160,#184,.T.);
#127=EDGE_CURVE('',#158,#160,#35,.T.);
#128=EDGE_CURVE('',#161,#161,#185,.F.);
#129=EDGE_CURVE('',#162,#162,#186,.F.);
#130=EDGE_CURVE('',#163,#163,#187,.F.);
#131=EDGE_CURVE('',#164,#164,#188,.F.);
#132=EDGE_CURVE('',#165,#165,#189,.T.);
#133=EDGE_CURVE('',#166,#167,#36,.T.);
#134=EDGE_CURVE('',#166,#168,#37,.T.);
#135=EDGE_CURVE('',#168,#169,#38,.T.);
#136=EDGE_CURVE('',#167,#169,#190,.T.);
#137=EDGE_CURVE('',#166,#157,#39,.T.);
#138=EDGE_CURVE('',#167,#159,#40,.T.);
#139=EDGE_CURVE('',#169,#160,#41,.T.);
#140=EDGE_CURVE('',#168,#158,#42,.T.);
#141=EDGE_CURVE('',#170,#170,#191,.T.);
#142=EDGE_CURVE('',#171,#171,#192,.T.);
#143=EDGE_CURVE('',#172,#172,#193,.T.);
#144=EDGE_CURVE('',#173,#173,#194,.T.);
#145=EDGE_CURVE('',#166,#168,#195,.F.);
#146=EDGE_CURVE('',#168,#166,#196,.F.);
#147=EDGE_CURVE('',#174,#174,#197,.T.);
#148=EDGE_CURVE('',#175,#175,#198,.T.);
#149=EDGE_CURVE('',#176,#176,#199,.T.);
#150=EDGE_CURVE('',#177,#177,#200,.T.);
#151=EDGE_CURVE('',#178,#178,#201,.T.);
#152=VERTEX_POINT('',#488);
#153=VERTEX_POINT('',#490);
#154=VERTEX_POINT('',#492);
#155=VERTEX_POINT('',#494);
#156=VERTEX_POINT('',#496);
#157=VERTEX_POINT('',#498);
#158=VERTEX_POINT('',#499);
#159=VERTEX_POINT('',#501);
#160=VERTEX_POINT('',#503);
#161=VERTEX_POINT('',#507);
#162=VERTEX_POINT('',#509);
#163=VERTEX_POINT('',#511);
#164=VERTEX_POINT('',#513);
#165=VERTEX_POINT('',#515);
#166=VERTEX_POINT('',#517);
#167=VERTEX_POINT('',#518);
#168=VERTEX_POINT('',#520);
#169=VERTEX_POINT('',#522);
#170=VERTEX_POINT('',#534);
#171=VERTEX_POINT('',#538);
#172=VERTEX_POINT('',#542);
#173=VERTEX_POINT('',#546);
#174=VERTEX_POINT('',#554);
#175=VERTEX_POINT('',#556);
#176=VERTEX_POINT('',#559);
#177=VERTEX_POINT('',#563);
#178=VERTEX_POINT('',#566);
#179=CIRCLE('',#339,0.00336);
#180=CIRCLE('',#340,0.00336);
#181=CIRCLE('',#341,0.00336);
#182=CIRCLE('',#342,0.00336);
#183=CIRCLE('',#343,0.005);
#184=CIRCLE('',#344,0.0267171981758254);
#185=CIRCLE('',#346,0.0016);
#186=CIRCLE('',#347,0.0016);
#187=CIRCLE('',#348,0.0016);
#188=CIRCLE('',#349,0.0016);
#189=CIRCLE('',#350,0.005);
#190=CIRCLE('',#351,0.0267171981758254);
#191=CIRCLE('',#357,0.0016);
#192=CIRCLE('',#360,0.0016);
#193=CIRCLE('',#363,0.0016);
#194=CIRCLE('',#366,0.0016);
#195=CIRCLE('',#369,0.05301);
#196=CIRCLE('',#371,0.05301);
#197=CIRCLE('',#373,0.05051);
#198=CIRCLE('',#374,0.05051);
#199=CIRCLE('',#376,0.05301);
#200=CIRCLE('',#379,0.0185);
#201=CIRCLE('',#381,0.0185);
#202=EDGE_LOOP('',(#53));
#203=EDGE_LOOP('',(#54));
#204=EDGE_LOOP('',(#55));
#205=EDGE_LOOP('',(#56));
#206=EDGE_LOOP('',(#57));
#207=EDGE_LOOP('',(#58,#59,#60,#61));
#208=EDGE_LOOP('',(#62));
#209=EDGE_LOOP('',(#63));
#210=EDGE_LOOP('',(#64));
#211=EDGE_LOOP('',(#65));
#212=EDGE_LOOP('',(#66));
#213=EDGE_LOOP('',(#67,#68,#69,#70));
#214=EDGE_LOOP('',(#71));
#215=EDGE_LOOP('',(#72));
#216=EDGE_LOOP('',(#73,#74,#75,#76));
#217=EDGE_LOOP('',(#77,#78,#79,#80));
#218=EDGE_LOOP('',(#81,#82,#83,#84));
#219=EDGE_LOOP('',(#85));
#220=EDGE_LOOP('',(#86));
#221=EDGE_LOOP('',(#87));
#222=EDGE_LOOP('',(#88));
#223=EDGE_LOOP('',(#89));
#224=EDGE_LOOP('',(#90));
#225=EDGE_LOOP('',(#91));
#226=EDGE_LOOP('',(#92));
#227=EDGE_LOOP('',(#93));
#228=EDGE_LOOP('',(#94));
#229=EDGE_LOOP('',(#95));
#230=EDGE_LOOP('',(#96));
#231=EDGE_LOOP('',(#97));
#232=EDGE_LOOP('',(#98));
#233=EDGE_LOOP('',(#99));
#234=EDGE_LOOP('',(#100));
#235=EDGE_LOOP('',(#101,#102,#103,#104));
#236=EDGE_LOOP('',(#105,#106));
#237=EDGE_LOOP('',(#107));
#238=EDGE_LOOP('',(#108));
#239=EDGE_LOOP('',(#109));
#240=EDGE_LOOP('',(#110,#111));
#241=EDGE_LOOP('',(#112));
#242=EDGE_LOOP('',(#113));
#243=EDGE_LOOP('',(#114));
#244=EDGE_LOOP('',(#115));
#245=EDGE_LOOP('',(#116));
#246=EDGE_LOOP('',(#117));
#247=EDGE_LOOP('',(#118));
#248=FACE_BOUND('',#202,.T.);
#249=FACE_BOUND('',#203,.T.);
#250=FACE_BOUND('',#204,.T.);
#251=FACE_BOUND('',#205,.T.);
#252=FACE_BOUND('',#206,.T.);
#253=FACE_BOUND('',#207,.T.);
#254=FACE_BOUND('',#208,.T.);
#255=FACE_BOUND('',#209,.T.);
#256=FACE_BOUND('',#210,.T.);
#257=FACE_BOUND('',#211,.T.);
#258=FACE_BOUND('',#212,.T.);
#259=FACE_BOUND('',#213,.T.);
#260=FACE_BOUND('',#214,.T.);
#261=FACE_BOUND('',#215,.T.);
#262=FACE_BOUND('',#216,.T.);
#263=FACE_BOUND('',#217,.T.);
#264=FACE_BOUND('',#218,.T.);
#265=FACE_BOUND('',#219,.T.);
#266=FACE_BOUND('',#220,.T.);
#267=FACE_BOUND('',#221,.T.);
#268=FACE_BOUND('',#222,.T.);
#269=FACE_BOUND('',#223,.T.);
#270=FACE_BOUND('',#224,.T.);
#271=FACE_BOUND('',#225,.T.);
#272=FACE_BOUND('',#226,.T.);
#273=FACE_BOUND('',#227,.T.);
#274=FACE_BOUND('',#228,.T.);
#275=FACE_BOUND('',#229,.T.);
#276=FACE_BOUND('',#230,.T.);
#277=FACE_BOUND('',#231,.T.);
#278=FACE_BOUND('',#232,.T.);
#279=FACE_BOUND('',#233,.T.);
#280=FACE_BOUND('',#234,.T.);
#281=FACE_BOUND('',#235,.T.);
#282=FACE_BOUND('',#236,.T.);
#283=FACE_BOUND('',#237,.T.);
#284=FACE_BOUND('',#238,.T.);
#285=FACE_BOUND('',#239,.T.);
#286=FACE_BOUND('',#240,.T.);
#287=FACE_BOUND('',#241,.T.);
#288=FACE_BOUND('',#242,.T.);
#289=FACE_BOUND('',#243,.T.);
#290=FACE_BOUND('',#244,.T.);
#291=FACE_BOUND('',#245,.T.);
#292=FACE_BOUND('',#246,.T.);
#293=FACE_BOUND('',#247,.T.);
#294=PLANE('',#338);
#295=PLANE('',#345);
#296=PLANE('',#353);
#297=PLANE('',#355);
#298=PLANE('',#368);
#299=PLANE('',#370);
#300=PLANE('',#377);
#301=PLANE('',#378);
#302=PLANE('',#382);
#303=ADVANCED_FACE('',(#248,#249,#250,#251,#252,#253),#294,.T.);
#304=ADVANCED_FACE('',(#254,#255,#256,#257,#258,#259),#295,.F.);
#305=ADVANCED_FACE('',(#260,#261),#24,.F.);
#306=ADVANCED_FACE('',(#262),#296,.T.);
#307=ADVANCED_FACE('',(#263),#25,.T.);
#308=ADVANCED_FACE('',(#264),#297,.F.);
#309=ADVANCED_FACE('',(#265,#266),#26,.F.);
#310=ADVANCED_FACE('',(#267,#268),#20,.F.);
#311=ADVANCED_FACE('',(#269,#270),#27,.F.);
#312=ADVANCED_FACE('',(#271,#272),#21,.F.);
#313=ADVANCED_FACE('',(#273,#274),#28,.F.);
#314=ADVANCED_FACE('',(#275,#276),#22,.F.);
#315=ADVANCED_FACE('',(#277,#278),#29,.F.);
#316=ADVANCED_FACE('',(#279,#280),#23,.F.);
#317=ADVANCED_FACE('',(#281),#298,.T.);
#318=ADVANCED_FACE('',(#282),#299,.T.);
#319=ADVANCED_FACE('',(#283,#284),#30,.F.);
#320=ADVANCED_FACE('',(#285,#286),#31,.T.);
#321=ADVANCED_FACE('',(#287,#288),#300,.T.);
#322=ADVANCED_FACE('',(#289),#301,.T.);
#323=ADVANCED_FACE('',(#290,#291),#32,.F.);
#324=ADVANCED_FACE('',(#292,#293),#302,.F.);
#325=CLOSED_SHELL('',(#303,#304,#305,#306,#307,#308,#309,#310,#311,#312,
#313,#314,#315,#316,#317,#318,#319,#320,#321,#322,#323,#324));
#326=STYLED_ITEM('',(#327),#334);
#327=PRESENTATION_STYLE_ASSIGNMENT((#328));
#328=SURFACE_STYLE_USAGE(.BOTH.,#329);
#329=SURFACE_SIDE_STYLE('',(#330));
#330=SURFACE_STYLE_FILL_AREA(#331);
#331=FILL_AREA_STYLE('',(#332));
#332=FILL_AREA_STYLE_COLOUR('',#333);
#333=COLOUR_RGB('',0.917647058823529,0.917647058823529,0.917647058823529);
#334=MANIFOLD_SOLID_BREP('Part 2',#325);
#335=SHAPE_DEFINITION_REPRESENTATION(#574,#336);
#336=SHAPE_REPRESENTATION('Part 2',(#337),#569);
#337=AXIS2_PLACEMENT_3D('',#485,#383,#384);
#338=AXIS2_PLACEMENT_3D('',#486,#385,#386);
#339=AXIS2_PLACEMENT_3D('',#487,#387,#388);
#340=AXIS2_PLACEMENT_3D('',#489,#389,#390);
#341=AXIS2_PLACEMENT_3D('',#491,#391,#392);
#342=AXIS2_PLACEMENT_3D('',#493,#393,#394);
#343=AXIS2_PLACEMENT_3D('',#495,#395,#396);
#344=AXIS2_PLACEMENT_3D('',#502,#399,#400);
#345=AXIS2_PLACEMENT_3D('',#505,#402,#403);
#346=AXIS2_PLACEMENT_3D('',#506,#404,#405);
#347=AXIS2_PLACEMENT_3D('',#508,#406,#407);
#348=AXIS2_PLACEMENT_3D('',#510,#408,#409);
#349=AXIS2_PLACEMENT_3D('',#512,#410,#411);
#350=AXIS2_PLACEMENT_3D('',#514,#412,#413);
#351=AXIS2_PLACEMENT_3D('',#523,#417,#418);
#352=AXIS2_PLACEMENT_3D('',#524,#419,#420);
#353=AXIS2_PLACEMENT_3D('',#525,#421,#422);
#354=AXIS2_PLACEMENT_3D('',#528,#425,#426);
#355=AXIS2_PLACEMENT_3D('',#530,#428,#429);
#356=AXIS2_PLACEMENT_3D('',#532,#431,#432);
#357=AXIS2_PLACEMENT_3D('',#533,#433,#434);
#358=AXIS2_PLACEMENT_3D('',#535,#435,#436);
#359=AXIS2_PLACEMENT_3D('',#536,#437,#438);
#360=AXIS2_PLACEMENT_3D('',#537,#439,#440);
#361=AXIS2_PLACEMENT_3D('',#539,#441,#442);
#362=AXIS2_PLACEMENT_3D('',#540,#443,#444);
#363=AXIS2_PLACEMENT_3D('',#541,#445,#446);
#364=AXIS2_PLACEMENT_3D('',#543,#447,#448);
#365=AXIS2_PLACEMENT_3D('',#544,#449,#450);
#366=AXIS2_PLACEMENT_3D('',#545,#451,#452);
#367=AXIS2_PLACEMENT_3D('',#547,#453,#454);
#368=AXIS2_PLACEMENT_3D('',#548,#455,#456);
#369=AXIS2_PLACEMENT_3D('',#549,#457,#458);
#370=AXIS2_PLACEMENT_3D('',#550,#459,#460);
#371=AXIS2_PLACEMENT_3D('',#551,#461,#462);
#372=AXIS2_PLACEMENT_3D('',#552,#463,#464);
#373=AXIS2_PLACEMENT_3D('',#553,#465,#466);
#374=AXIS2_PLACEMENT_3D('',#555,#467,#468);
#375=AXIS2_PLACEMENT_3D('',#557,#469,#470);
#376=AXIS2_PLACEMENT_3D('',#558,#471,#472);
#377=AXIS2_PLACEMENT_3D('',#560,#473,#474);
#378=AXIS2_PLACEMENT_3D('',#561,#475,#476);
#379=AXIS2_PLACEMENT_3D('',#562,#477,#478);
#380=AXIS2_PLACEMENT_3D('',#564,#479,#480);
#381=AXIS2_PLACEMENT_3D('',#565,#481,#482);
#382=AXIS2_PLACEMENT_3D('',#567,#483,#484);
#383=DIRECTION('',(0.,0.,1.));
#384=DIRECTION('',(1.,0.,0.));
#385=DIRECTION('',(1.,0.,0.));
#386=DIRECTION('',(0.,0.,-1.));
#387=DIRECTION('',(-1.,0.,0.));
#388=DIRECTION('',(0.,0.,1.));
#389=DIRECTION('',(-1.,0.,0.));
#390=DIRECTION('',(0.,0.,1.));
#391=DIRECTION('',(-1.,0.,0.));
#392=DIRECTION('',(0.,0.,1.));
#393=DIRECTION('',(-1.,0.,0.));
#394=DIRECTION('',(0.,0.,1.));
#395=DIRECTION('',(1.,0.,0.));
#396=DIRECTION('',(0.,0.,-1.));
#397=DIRECTION('',(0.,-1.,0.));
#398=DIRECTION('',(0.,0.707106781186548,0.707106781186548));
#399=DIRECTION('',(1.,0.,0.));
#400=DIRECTION('',(0.,0.,-1.));
#401=DIRECTION('',(0.,0.766044443118978,0.64278760968654));
#402=DIRECTION('',(1.,1.58769373433143E-16,0.));
#403=DIRECTION('',(-1.58769373433143E-16,1.,0.));
#404=DIRECTION('',(1.,1.58769373433143E-16,0.));
#405=DIRECTION('',(-1.58769373433143E-16,1.,0.));
#406=DIRECTION('',(1.,1.58769373433143E-16,0.));
#407=DIRECTION('',(-1.58769373433143E-16,1.,0.));
#408=DIRECTION('',(1.,1.58769373433143E-16,0.));
#409=DIRECTION('',(-1.58769373433143E-16,1.,0.));
#410=DIRECTION('',(1.,1.58769373433143E-16,0.));
#411=DIRECTION('',(-1.58769373433143E-16,1.,0.));
#412=DIRECTION('',(1.,1.58769373433143E-16,0.));
#413=DIRECTION('',(-1.58769373433143E-16,1.,0.));
#414=DIRECTION('',(-1.12266900599315E-16,0.707106781186548,0.707106781186548));
#415=DIRECTION('',(1.58769373433143E-16,-1.,0.));
#416=DIRECTION('',(-1.21624396255941E-16,0.766044443118978,0.64278760968654));
#417=DIRECTION('',(1.,1.58769373433143E-16,0.));
#418=DIRECTION('',(-1.58769373433143E-16,1.,0.));
#419=DIRECTION('',(1.,0.,0.));
#420=DIRECTION('',(0.,0.,-1.));
#421=DIRECTION('',(0.,0.707106781186548,-0.707106781186548));
#422=DIRECTION('',(0.,0.707106781186548,0.707106781186548));
#423=DIRECTION('',(1.,0.,0.));
#424=DIRECTION('',(1.,0.,0.));
#425=DIRECTION('',(1.,0.,0.));
#426=DIRECTION('',(0.,0.,-1.));
#427=DIRECTION('',(1.,0.,0.));
#428=DIRECTION('',(0.,0.64278760968654,-0.766044443118978));
#429=DIRECTION('',(0.,0.766044443118978,0.64278760968654));
#430=DIRECTION('',(1.,0.,0.));
#431=DIRECTION('',(-1.,0.,0.));
#432=DIRECTION('',(0.,0.,1.));
#433=DIRECTION('',(-1.,0.,0.));
#434=DIRECTION('',(0.,0.,1.));
#435=DIRECTION('',(1.,0.,0.));
#436=DIRECTION('',(0.,0.,-1.));
#437=DIRECTION('',(-1.,0.,0.));
#438=DIRECTION('',(0.,0.,1.));
#439=DIRECTION('',(-1.,0.,0.));
#440=DIRECTION('',(0.,0.,1.));
#441=DIRECTION('',(1.,0.,0.));
#442=DIRECTION('',(0.,0.,-1.));
#443=DIRECTION('',(-1.,0.,0.));
#444=DIRECTION('',(0.,0.,1.));
#445=DIRECTION('',(-1.,0.,0.));
#446=DIRECTION('',(0.,0.,1.));
#447=DIRECTION('',(1.,0.,0.));
#448=DIRECTION('',(0.,0.,-1.));
#449=DIRECTION('',(-1.,0.,0.));
#450=DIRECTION('',(0.,0.,1.));
#451=DIRECTION('',(-1.,0.,0.));
#452=DIRECTION('',(0.,0.,1.));
#453=DIRECTION('',(1.,0.,0.));
#454=DIRECTION('',(0.,0.,-1.));
#455=DIRECTION('',(0.,0.,1.));
#456=DIRECTION('',(1.,0.,0.));
#457=DIRECTION('',(0.,0.,1.));
#458=DIRECTION('',(1.,0.,0.));
#459=DIRECTION('',(0.,0.,1.));
#460=DIRECTION('',(1.,0.,0.));
#461=DIRECTION('',(0.,0.,1.));
#462=DIRECTION('',(1.,0.,0.));
#463=DIRECTION('',(0.,0.,1.));
#464=DIRECTION('',(1.,0.,0.));
#465=DIRECTION('',(0.,0.,-1.));
#466=DIRECTION('',(-1.,0.,0.));
#467=DIRECTION('',(0.,0.,-1.));
#468=DIRECTION('',(-1.,0.,0.));
#469=DIRECTION('',(0.,0.,1.));
#470=DIRECTION('',(1.,0.,0.));
#471=DIRECTION('',(0.,0.,-1.));
#472=DIRECTION('',(-1.,0.,0.));
#473=DIRECTION('',(0.,0.,-1.));
#474=DIRECTION('',(1.,0.,0.));
#475=DIRECTION('',(0.,0.,-1.));
#476=DIRECTION('',(1.,0.,0.));
#477=DIRECTION('',(0.,0.,-1.));
#478=DIRECTION('',(-1.,0.,0.));
#479=DIRECTION('',(0.,0.,-1.));
#480=DIRECTION('',(-1.,0.,0.));
#481=DIRECTION('',(0.,0.,-1.));
#482=DIRECTION('',(-1.,0.,0.));
#483=DIRECTION('',(0.,0.,1.));
#484=DIRECTION('',(1.,0.,0.));
#485=CARTESIAN_POINT('',(0.,0.,0.));
#486=CARTESIAN_POINT('',(-0.0199999999999996,-4.85722573273506E-17,0.125));
#487=CARTESIAN_POINT('',(-0.0199999999999996,0.0634538491414684,0.0825334388017004));
#488=CARTESIAN_POINT('',(-0.0199999999999996,0.0634538491414684,0.0858934388017004));
#489=CARTESIAN_POINT('',(-0.0199999999999996,0.0634538491414684,0.0515334388017004));
#490=CARTESIAN_POINT('',(-0.0199999999999996,0.0634538491414684,0.0548934388017004));
#491=CARTESIAN_POINT('',(-0.0199999999999996,0.0324538491414684,0.0515334388017004));
#492=CARTESIAN_POINT('',(-0.0199999999999996,0.0324538491414684,0.0548934388017004));
#493=CARTESIAN_POINT('',(-0.0199999999999996,0.0324538491414684,0.0825334388017004));
#494=CARTESIAN_POINT('',(-0.0199999999999996,0.0324538491414684,0.0858934388017004));
#495=CARTESIAN_POINT('',(-0.0199999999999997,0.0479538491414684,0.0670334388017004));
#496=CARTESIAN_POINT('',(-0.0199999999999997,0.0479538491414684,0.0620334388017004));
#497=CARTESIAN_POINT('',(-0.0199999999999996,-4.85722573273506E-17,0.025));
#498=CARTESIAN_POINT('',(-0.0199999999999997,0.0437042343486299,0.025));
#499=CARTESIAN_POINT('',(-0.0199999999999997,-0.0437042343486301,0.025));
#500=CARTESIAN_POINT('',(-0.0199999999999996,0.071852117174315,0.053147882825685));
#501=CARTESIAN_POINT('',(-0.0199999999999997,0.0668457611458994,0.0481415267972694));
#502=CARTESIAN_POINT('',(-0.0199999999999997,0.0479538491414675,0.0670334388017014));
#503=CARTESIAN_POINT('',(-0.0199999999999997,0.030780365188508,0.0875));
#504=CARTESIAN_POINT('',(-0.0199999999999996,0.0311828508017793,0.0878377255296502));
#505=CARTESIAN_POINT('',(-0.03,-5.55111512312578E-17,0.125));
#506=CARTESIAN_POINT('',(-0.03,0.0634538491414684,0.0825334388017004));
#507=CARTESIAN_POINT('',(-0.03,0.0650538491414684,0.0825334388017004));
#508=CARTESIAN_POINT('',(-0.03,0.0634538491414684,0.0515334388017004));
#509=CARTESIAN_POINT('',(-0.03,0.0650538491414684,0.0515334388017004));
#510=CARTESIAN_POINT('',(-0.03,0.0324538491414684,0.0515334388017004));
#511=CARTESIAN_POINT('',(-0.03,0.0340538491414683,0.0515334388017004));
#512=CARTESIAN_POINT('',(-0.03,0.0324538491414684,0.0825334388017004));
#513=CARTESIAN_POINT('',(-0.03,0.0340538491414683,0.0825334388017004));
#514=CARTESIAN_POINT('',(-0.03,0.0479538491414684,0.0670334388017004));
#515=CARTESIAN_POINT('',(-0.03,0.0529538491414684,0.0670334388017004));
#516=CARTESIAN_POINT('',(-0.03,0.071852117174315,0.053147882825685));
#517=CARTESIAN_POINT('',(-0.03,0.0437042343486299,0.025));
#518=CARTESIAN_POINT('',(-0.03,0.0668457611458994,0.0481415267972694));
#519=CARTESIAN_POINT('',(-0.03,-5.55111512312578E-17,0.025));
#520=CARTESIAN_POINT('',(-0.03,-0.0437042343486301,0.025));
#521=CARTESIAN_POINT('',(-0.03,0.0311828508017793,0.0878377255296502));
#522=CARTESIAN_POINT('',(-0.03,0.030780365188508,0.0875));
#523=CARTESIAN_POINT('',(-0.03,0.0479538491414675,0.0670334388017014));
#524=CARTESIAN_POINT('',(-0.397409748993374,0.0479538491414684,0.0670334388017004));
#525=CARTESIAN_POINT('',(-0.397409748993374,0.0552749977472647,0.0365707633986347));
#526=CARTESIAN_POINT('',(-0.397409748993374,0.0437042343486299,0.025));
#527=CARTESIAN_POINT('',(-0.397409748993374,0.0668457611458994,0.0481415267972694));
#528=CARTESIAN_POINT('',(-0.397409748993374,0.0479538491414675,0.0670334388017014));
#529=CARTESIAN_POINT('',(-0.397409748993374,0.030780365188508,0.0875));
#530=CARTESIAN_POINT('',(-0.397409748993374,-0.00646193458006107,0.05625));
#531=CARTESIAN_POINT('',(-0.397409748993374,-0.0437042343486301,0.025));
#532=CARTESIAN_POINT('',(-0.0199999999999996,0.0324538491414684,0.0825334388017004));
#533=CARTESIAN_POINT('',(-0.0217599999999996,0.0324538491414684,0.0825334388017004));
#534=CARTESIAN_POINT('',(-0.0217599999999996,0.0324538491414684,0.0841334388017004));
#535=CARTESIAN_POINT('',(-0.0199999999999996,0.0324538491414684,0.0825334388017004));
#536=CARTESIAN_POINT('',(-0.0199999999999996,0.0324538491414684,0.0515334388017004));
#537=CARTESIAN_POINT('',(-0.0217599999999996,0.0324538491414684,0.0515334388017004));
#538=CARTESIAN_POINT('',(-0.0217599999999996,0.0324538491414684,0.0531334388017004));
#539=CARTESIAN_POINT('',(-0.0199999999999996,0.0324538491414684,0.0515334388017004));
#540=CARTESIAN_POINT('',(-0.0199999999999996,0.0634538491414684,0.0515334388017004));
#541=CARTESIAN_POINT('',(-0.0217599999999996,0.0634538491414684,0.0515334388017004));
#542=CARTESIAN_POINT('',(-0.0217599999999996,0.0634538491414684,0.0531334388017004));
#543=CARTESIAN_POINT('',(-0.0199999999999996,0.0634538491414684,0.0515334388017004));
#544=CARTESIAN_POINT('',(-0.0199999999999996,0.0634538491414684,0.0825334388017004));
#545=CARTESIAN_POINT('',(-0.0217599999999996,0.0634538491414684,0.0825334388017004));
#546=CARTESIAN_POINT('',(-0.0217599999999996,0.0634538491414684,0.0841334388017004));
#547=CARTESIAN_POINT('',(-0.0199999999999996,0.0634538491414684,0.0825334388017004));
#548=CARTESIAN_POINT('',(0.,0.,0.025));
#549=CARTESIAN_POINT('',(3.95516952522712E-16,-4.65182676908825E-17,0.025));
#550=CARTESIAN_POINT('',(0.,0.,0.025));
#551=CARTESIAN_POINT('',(3.95516952522712E-16,-4.65182676908825E-17,0.025));
#552=CARTESIAN_POINT('',(3.95516952522712E-16,-4.6671348540776E-17,-0.035));
#553=CARTESIAN_POINT('',(3.95516952522712E-16,-4.6671348540776E-17,-0.035));
#554=CARTESIAN_POINT('',(-0.0505099999999996,-4.6671348540776E-17,-0.035));
#555=CARTESIAN_POINT('',(3.95516952522712E-16,-4.6671348540776E-17,0.005));
#556=CARTESIAN_POINT('',(-0.0505099999999996,-4.6671348540776E-17,0.005));
#557=CARTESIAN_POINT('',(3.95516952522712E-16,-4.65182676908825E-17,-0.035));
#558=CARTESIAN_POINT('',(3.95516952522712E-16,-4.65182676908825E-17,-0.035));
#559=CARTESIAN_POINT('',(-0.0530099999999996,-4.65182676908825E-17,-0.035));
#560=CARTESIAN_POINT('',(-0.00130618390366397,-5.55111512312578E-17,-0.035));
#561=CARTESIAN_POINT('',(0.,0.,0.012));
#562=CARTESIAN_POINT('',(0.,-1.1327982892113E-18,0.012));
#563=CARTESIAN_POINT('',(-0.0185,-1.1327982892113E-18,0.012));
#564=CARTESIAN_POINT('',(0.,-1.1327982892113E-18,0.012));
#565=CARTESIAN_POINT('',(0.,-1.1327982892113E-18,0.005));
#566=CARTESIAN_POINT('',(-0.0185,-1.1327982892113E-18,0.005));
#567=CARTESIAN_POINT('',(0.,0.,0.005));
#568=MECHANICAL_DESIGN_GEOMETRIC_PRESENTATION_REPRESENTATION('',(#326),
#569);
#569=(
GEOMETRIC_REPRESENTATION_CONTEXT(3)
GLOBAL_UNCERTAINTY_ASSIGNED_CONTEXT((#570))
GLOBAL_UNIT_ASSIGNED_CONTEXT((#573,#572,#571))
REPRESENTATION_CONTEXT('Part 2','TOP_LEVEL_ASSEMBLY_PART')
);
#570=UNCERTAINTY_MEASURE_WITH_UNIT(LENGTH_MEASURE(1.E-8),#573,
'DISTANCE_ACCURACY_VALUE','Maximum Tolerance applied to model');
#571=(
NAMED_UNIT(*)
SI_UNIT($,.STERADIAN.)
SOLID_ANGLE_UNIT()
);
#572=(
NAMED_UNIT(*)
PLANE_ANGLE_UNIT()
SI_UNIT($,.RADIAN.)
);
#573=(
LENGTH_UNIT()
NAMED_UNIT(*)
SI_UNIT($,.METRE.)
);
#574=PRODUCT_DEFINITION_SHAPE('','',#575);
#575=PRODUCT_DEFINITION('','',#577,#576);
#576=PRODUCT_DEFINITION_CONTEXT('',#583,'design');
#577=PRODUCT_DEFINITION_FORMATION_WITH_SPECIFIED_SOURCE('','',#579,
 .NOT_KNOWN.);
#578=PRODUCT_RELATED_PRODUCT_CATEGORY('','',(#579));
#579=PRODUCT('Part 2','Part 2','Part 2',(#581));
#580=PRODUCT_CATEGORY('','');
#581=PRODUCT_CONTEXT('',#583,'mechanical');
#582=APPLICATION_PROTOCOL_DEFINITION('international standard',
'automotive_design',2010,#583);
#583=APPLICATION_CONTEXT(
'core data for automotive mechanical design processes');
ENDSEC;
END-ISO-10303-21;
